<svg xmlns="http://www.w3.org/2000/svg" viewBox="0 0 175.47 332.19"><defs><style>.cls-1{fill:#363f51;}.cls-2{fill:#364056;}.cls-3{fill:#f7b634;}.cls-4{fill:#ffaeab;}.cls-5{fill:#1a4850;}.cls-6{fill:#fa968c;}.cls-7{fill:none;stroke:#1a4850;stroke-linecap:round;stroke-width:0.56px;}.cls-7,.cls-9{stroke-miterlimit:10;}.cls-8{fill:#eeedef;}.cls-9{fill:#fff;stroke:#0fa8ba;}.cls-10{fill:#f9927d;}</style></defs><title>boy-services_1</title><g id="Layer_2" data-name="Layer 2"><g id="Layer_1-2" data-name="Layer 1"><path class="cls-1" d="M26.94,332.19v-3.08c0-3.55,3.31-10,3.31-12.36s9.16,1.92,9.16,1.92a11.41,11.41,0,0,0,3.15,6.89,8.75,8.75,0,0,1,2.22,6.63Z"/><path class="cls-1" d="M89.47,332.19l-1.59-.74-.74.74h-6c-.6-1.74-2.65-8.35-.8-12.94,2.15-5.32,8.77-3.9,8.77-3.9s4.5,6.28,7.11,7.4,12.54,5.15,13.73,7.75c.35.78-.25,1.31-.08,1.69Z"/><path class="cls-2" d="M69.16,134c3.43,49.77,12.81,115,23,183.62,0,0-2,3.25-13.31,1.55L44,173.43a1,1,0,0,0-1.93.31c-.41,11-3.93,44.58-2,145.86a13.92,13.92,0,0,1-12.28,0S5.28,169.8,10.45,141.12Z"/><path class="cls-3" d="M9.68,151s9.52,10,37.4,5.6c15.84-2.51,23-10.24,23-10.24S75.2,60,69.6,52.69c-4.08-5.29-12.08-7.55-22.52-8.1-3.94-.21-8.22-.17-12.77,0a43,43,0,0,0-9.54,1.53C13.09,49.42,4.9,57.08,3.66,63.1,2.1,70.64,9.68,151,9.68,151Z"/><path class="cls-3" d="M6.07,58.07C13.5,56.15,17.74,79.5,19.55,92s.67,20.26-4.85,20.65C8.82,113.08,4,112.49,1,92-3,64.1,6.07,58.07,6.07,58.07Z"/><path class="cls-4" d="M21.61,24.13c2.15,17.15,20.76,16.9,24.17,10,1.09-2.21,1.87-6.08,2.08-10.22.06-.94.08-1.89.07-2.83-.06-6.43-1.54-12.74-5.3-14C29.55,2.89,19.46,7,21.61,24.13Z"/><path class="cls-2" d="M46.27,10.54S38.69,5.26,27.48,9.18c0,0-1.87,9.91-2.26,14.34,0,0-4.19,1.76.45,10.25,0,0-5.57-.13-7.75-14.89C16,6.09,22.08,2.87,30.68.69,41.9-2.17,48.08,4.42,46.27,10.54Z"/><path class="cls-5" d="M35,19.18c0,1,.5,1.72,1,1.7s.93-.82.89-1.78-.51-1.72-1-1.7S34.94,18.22,35,19.18Z"/><path class="cls-5" d="M43.79,19.54c0,1,.51,1.72,1,1.7s.93-.82.89-1.78-.5-1.72-1-1.7S43.75,18.58,43.79,19.54Z"/><path class="cls-6" d="M31.38,22.33a1.83,1.83,0,0,0,3.45.93,1.83,1.83,0,0,0-3.45-.93Z"/><path class="cls-6" d="M45.82,23.08a1.59,1.59,0,0,0,2,.83c.06-.94.08-1.89.07-2.83a2.13,2.13,0,0,0-.86.09A1.63,1.63,0,0,0,45.82,23.08Z"/><path class="cls-7" d="M37,12.93a4.81,4.81,0,0,0-3.37.89"/><path class="cls-7" d="M44.42,13.72s2.07-.05,2.18,1.09"/><path class="cls-4" d="M25.22,23.52s-2.95-3.17-5.46-1,2.11,8,4.91,7.63S25.22,23.52,25.22,23.52Z"/><path class="cls-8" d="M43.07,28.8s-3.94.85-5.88.48c0,0,.56,1.81,5.76,1.14Z"/><path class="cls-6" d="M40.57,38s-1.15,4.67,2.1,10.5c0,0-6.91,7.58-14.78,2.78,0,0-1.54-15.35-4-18.26a5.31,5.31,0,0,1,0-3S31.61,38.42,40.57,38Z"/><rect class="cls-9" x="38.47" y="35" width="136.5" height="70.5" rx="15.08"/><path class="cls-4" d="M107.15,36.66l1-1.56a16.31,16.31,0,0,0,.78,3.48c.35.38,1.45,1.92,1.45,1.92a1,1,0,0,0,.62-1.58,6.24,6.24,0,0,1-.4-3.21s.68,1.88,1.31,2.15a21.86,21.86,0,0,1,2,1.2s.87-.33.06-1.22a.78.78,0,0,1-.17-.28c-.37-.32-.74-.71-.74-.94,0-.44-.37-2.07-1.06-2.49s-1.19.38-1.19.38a1.55,1.55,0,0,0-.88-1.42,1.46,1.46,0,0,0-1.63.52s-.41-1.35-1.34-1.23-1.37,1.22-1.37,1.22a1.66,1.66,0,0,0-1.17-1.15,2.09,2.09,0,0,0-1.44.24,5.27,5.27,0,0,0-.48,1.79c0,1.35,1.58,4.74,1.58,4.74s1.69-.17,1.07-1.3a3.2,3.2,0,0,1,.17-3.43l0,2.71,1.25,3.12s1.5-.42,1.29-1.16S107.15,36.66,107.15,36.66Z"/><path class="cls-4" d="M34.53,53s3.75-2.06,5.19-2,5,1.8,5,1.8-.22,1.8-1.41,1.12a3.38,3.38,0,0,0-3.66.08l2.88.1,3.3,1.42s-.49,1.58-1.28,1.34L41.92,56l-1.68,1s3.29.55,3.69.94,2,1.58,2,1.58-.49,1.4-1.68.64a6.6,6.6,0,0,0-3.42-.53s2,.79,2.26,1.45A23.75,23.75,0,0,0,44.3,63.3s-.37.92-1.31,0-4.6-.5-4.6-.5S34.89,57.61,34.53,53Z"/><path class="cls-4" d="M34.53,53c-4.06,3-1.32,14-1.32,14s7.84-1.11,7.73-4.24S34.53,53,34.53,53Z"/><path class="cls-4" d="M32.46,62.53S6.85,94.43,5.26,100.11s7.65,17.61,14.05,7.84C23.19,102,37.64,64.13,37.64,64.13Z"/><path class="cls-2" d="M51.33,76.6a.62.62,0,0,1-.18-.46l.07-9.76a.62.62,0,0,1,.18-.46.64.64,0,0,1,.48-.16l3,0A5.6,5.6,0,0,1,59,67.23a5.47,5.47,0,0,1,1.41,4.08,5,5,0,0,1-5.56,5.48l-3.05,0A.64.64,0,0,1,51.33,76.6Zm3.45-.9c2.85,0,4.29-1.45,4.31-4.39s-1.4-4.42-4.25-4.44l-2.35,0-.06,8.83Z"/><path class="cls-2" d="M62.87,76.67a.58.58,0,0,1-.18-.45l.07-9.76a.62.62,0,0,1,.18-.46.64.64,0,0,1,.48-.16l5.84,0a.6.6,0,0,1,.44.14.47.47,0,0,1,.15.39.5.5,0,0,1-.15.39.68.68,0,0,1-.44.14L64,66.9l0,3.83,4.92,0a.58.58,0,0,1,.43.15.47.47,0,0,1,.16.39.53.53,0,0,1-.16.39.66.66,0,0,1-.44.14l-4.92,0,0,4,5.24,0a.63.63,0,0,1,.43.13.49.49,0,0,1,.16.4.5.5,0,0,1-.16.39.66.66,0,0,1-.44.14l-5.84,0A.65.65,0,0,1,62.87,76.67Z"/><path class="cls-2" d="M80.07,65.93a.59.59,0,0,1,.32-.09.67.67,0,0,1,.44.17.47.47,0,0,1,.19.4.61.61,0,0,1-.06.25l-4.55,9.93a.73.73,0,0,1-.28.32.86.86,0,0,1-.41.1.84.84,0,0,1-.41-.11.77.77,0,0,1-.28-.31l-4.4-10a.71.71,0,0,1,0-.24.53.53,0,0,1,.2-.41.72.72,0,0,1,.46-.16.56.56,0,0,1,.54.36l4,9.14,4.08-9.08A.56.56,0,0,1,80.07,65.93Z"/><path class="cls-2" d="M82.66,76.81a.65.65,0,0,1-.17-.46l.06-9.76a.62.62,0,0,1,.19-.45.63.63,0,0,1,.47-.17l5.85,0a.63.63,0,0,1,.43.14.56.56,0,0,1,0,.78.61.61,0,0,1-.44.14l-5.23,0,0,3.82,4.92,0a.66.66,0,0,1,.44.14.53.53,0,0,1,.15.39.47.47,0,0,1-.16.39.6.6,0,0,1-.44.14l-4.92,0,0,4L89,76a.66.66,0,0,1,.44.14.51.51,0,0,1,.15.4.5.5,0,0,1-.16.39A.6.6,0,0,1,89,77l-5.84,0A.69.69,0,0,1,82.66,76.81Z"/><path class="cls-2" d="M91.76,76.88a.55.55,0,0,1-.18-.43l.07-9.85a.68.68,0,0,1,.17-.47.63.63,0,0,1,.47-.18.62.62,0,0,1,.47.19.68.68,0,0,1,.17.47L92.86,76l5,0a.66.66,0,0,1,.44.14.54.54,0,0,1,.15.41.51.51,0,0,1-.16.41.6.6,0,0,1-.44.13l-5.7,0A.67.67,0,0,1,91.76,76.88Z"/><path class="cls-2" d="M101.4,76.55a4.56,4.56,0,0,1-1.73-2,6.79,6.79,0,0,1-.59-3,7.13,7.13,0,0,1,.62-3,4.41,4.41,0,0,1,1.75-1.94,5.05,5.05,0,0,1,2.68-.66,5.11,5.11,0,0,1,2.68.69,4.48,4.48,0,0,1,1.72,2,7,7,0,0,1,.58,3,6.89,6.89,0,0,1-.63,3,4.49,4.49,0,0,1-1.75,2,5,5,0,0,1-2.67.67A5.09,5.09,0,0,1,101.4,76.55ZM106.8,75a6.29,6.29,0,0,0,0-6.73,3.76,3.76,0,0,0-5.46,0,6.23,6.23,0,0,0,0,6.71,3.32,3.32,0,0,0,2.71,1.21A3.35,3.35,0,0,0,106.8,75Z"/><path class="cls-2" d="M111.56,77.08a.64.64,0,0,1-.17-.48l.07-9.81a.62.62,0,0,1,.18-.46.64.64,0,0,1,.48-.16l3.7,0a4,4,0,0,1,2.69.86,3.48,3.48,0,0,1,0,4.8,3.9,3.9,0,0,1-2.7.84l-3.07,0,0,3.94a.64.64,0,0,1-.18.47.6.6,0,0,1-.46.18A.61.61,0,0,1,111.56,77.08Zm4.1-5.45c1.67,0,2.52-.72,2.53-2.19s-.83-2.18-2.5-2.19l-3,0,0,4.38Z"/><path class="cls-2" d="M131.78,66.4a.68.68,0,0,1,.16.48l-.07,9.89a.61.61,0,0,1-.16.45.57.57,0,0,1-.44.17.5.5,0,0,1-.42-.18.69.69,0,0,1-.14-.45l.06-8-3.44,6.47a.69.69,0,0,1-.64.45.71.71,0,0,1-.64-.46l-3.36-6.44,0,7.91a.68.68,0,0,1-.15.45.56.56,0,0,1-.43.17.54.54,0,0,1-.44-.18.62.62,0,0,1-.15-.45l.06-9.89a.65.65,0,0,1,.18-.48.57.57,0,0,1,.47-.17.69.69,0,0,1,.62.45l3.92,7.64,4-7.58a.8.8,0,0,1,.28-.35.56.56,0,0,1,.35-.1A.6.6,0,0,1,131.78,66.4Z"/><path class="cls-2" d="M134.78,77.16a.58.58,0,0,1-.18-.45l.07-9.77a.61.61,0,0,1,.18-.45.69.69,0,0,1,.48-.17l5.84,0a.6.6,0,0,1,.44.15.47.47,0,0,1,.15.39.51.51,0,0,1-.15.39.68.68,0,0,1-.44.14l-5.24,0,0,3.83,4.92,0a.58.58,0,0,1,.43.15.47.47,0,0,1,.16.39.53.53,0,0,1-.16.39.61.61,0,0,1-.44.13l-4.92,0,0,4,5.24,0a.63.63,0,0,1,.43.13.48.48,0,0,1,.16.4.5.5,0,0,1-.16.39.66.66,0,0,1-.44.14l-5.84,0A.65.65,0,0,1,134.78,77.16Z"/><path class="cls-2" d="M152.44,66.54a.73.73,0,0,1,.15.48l-.07,9.86a.65.65,0,0,1-.16.47.61.61,0,0,1-.47.18.66.66,0,0,1-.51-.27L145,68.54l-.06,8.29a.68.68,0,0,1-.17.47.57.57,0,0,1-.44.18.52.52,0,0,1-.44-.19.7.7,0,0,1-.15-.47l.06-9.86a.73.73,0,0,1,.17-.48.64.64,0,0,1,.46-.17.65.65,0,0,1,.53.27l6.41,8.71.06-8.28a.64.64,0,0,1,.17-.47.63.63,0,0,1,.88,0Z"/><path class="cls-2" d="M158.07,77.39a.64.64,0,0,1-.17-.48l.06-9.34-3.36,0a.59.59,0,0,1-.43-.15A.49.49,0,0,1,154,67a.53.53,0,0,1,.16-.41.66.66,0,0,1,.44-.14l8,.06a.64.64,0,0,1,.44.14.62.62,0,0,1,0,.81.63.63,0,0,1-.44.14l-3.36,0-.07,9.34a.69.69,0,0,1-.17.48.58.58,0,0,1-.47.17A.65.65,0,0,1,158.07,77.39Z"/><path class="cls-10" d="M41.12,25.81A5.06,5.06,0,0,1,40,25.66a.36.36,0,0,1-.26-.43.36.36,0,0,1,.43-.27,3.51,3.51,0,0,0,1.18.13c0-.59-.42-3.26-.81-5.64a.36.36,0,0,1,.71-.11c.2,1.27.87,5.43.81,5.92a.54.54,0,0,1-.25.39A1.22,1.22,0,0,1,41.12,25.81Z"/></g></g></svg>