<svg xmlns="http://www.w3.org/2000/svg" viewBox="0 0 131.54 324.3"><defs><style>.cls-1{fill:#ffaeab;}.cls-2{fill:#f7b634;}.cls-3{fill:#fff;}.cls-4{fill:#e8792e;}.cls-5{fill:#09090b;}.cls-6{fill:#123c5e;}.cls-7,.cls-9{fill:none;stroke-miterlimit:10;}.cls-7{stroke:#09090b;stroke-width:0.75px;}.cls-8{fill:#f9927d;}.cls-9{stroke:#364056;}.cls-10{fill:#364056;}</style></defs><title>boy-careers</title><g id="Layer_2" data-name="Layer 2"><g id="Layer_1-2" data-name="Layer 1"><path class="cls-1" d="M99.41,154.26l14.41-31.48-17-28.21L113,85.22l12.71,24.14c4.45,8.55,6.07,14.55,1.66,20.28l-21.79,30.58Z"/><path class="cls-1" d="M101.49,152.88s-3.31-.41-3.84,8.43S95.13,176,100.56,176.4s14.72-4.66,8.39-11.79l-2.35-7.5Z"/><path class="cls-2" d="M95.11,62.68s14.38,1.54,22.77,26.47L94.61,108.47l-4-15.28Z"/><polygon class="cls-3" points="43.63 314.86 44.03 282.15 56.32 281.45 54.56 315.65 43.63 314.86 43.63 314.86"/><path class="cls-4" d="M56,309.23s-9.39,4.53-13.8-2.6l-22.8,13.78,39.51-.29Z"/><polygon class="cls-3" points="19.37 324.3 58.88 324.01 58.86 320.12 19.35 320.41 19.37 324.3"/><polygon class="cls-5" points="55.43 298.71 55.27 301.93 43.83 298.6 55.43 298.71"/><polygon class="cls-3" points="107.95 314.92 104.32 282.2 92.03 281.5 97.01 315.7 107.95 314.92 107.95 314.92"/><path class="cls-4" d="M94.94,309.23s9.39,4.53,13.8-2.6l22.8,13.78L92,320.12Z"/><polygon class="cls-3" points="131.52 324.3 92 324.01 92.03 320.12 131.54 320.41 131.52 324.3"/><polygon class="cls-5" points="93.99 294.96 105.97 297.13 105.59 293.67 93.99 294.96"/><polygon class="cls-6" points="46.17 146 42.96 305.38 55.57 308.69 73.6 169.6 94.87 307.45 110.44 304.96 99.34 146 46.17 146"/><line class="cls-7" x1="73.6" y1="169.6" x2="83.17" y2="165.76"/><path class="cls-1" d="M34.46,87.33,28,96.52,19.22,63.45,9.79,64.63l4.48,42c0,10.19,10.62,15.78,17.63,9.26l17.35-17Z"/><path class="cls-1" d="M.22,46.48a1,1,0,0,1,1.56-.12l5.33,6.81L4.84,41.52A1.24,1.24,0,0,1,5.74,40,1.12,1.12,0,0,1,7,40.84l3.32,10.48-1.74-13a1.11,1.11,0,0,1,.77-1.25,1,1,0,0,1,1.18.8l2.8,11.85-.64-10.33a1.25,1.25,0,0,1,1.27-1.33c.71,0,1.16.78,1.24,1.39L16.8,53.93l1.67-4.51a1.44,1.44,0,0,1,1.9-1.15,1.62,1.62,0,0,1,1,1.45c.44,10.52-2.56,14.46-2.56,14.46l-8.14,2.46A19.48,19.48,0,0,1,4.93,56.33L.21,47.9A1.29,1.29,0,0,1,.22,46.48Z"/><path class="cls-2" d="M53.49,61.7s-5.91,1-10.4,7.4S32.62,87.5,32.62,87.5l15.43,17.71,7.05-6.55Z"/><path class="cls-2" d="M53.49,61.7,52.12,71.92s-3.39,11.33-2.73,14.23L45.17,146l56.66,7.28-3.7-81.69a20.58,20.58,0,0,0,.09-5.27,3.91,3.91,0,0,0-3.5-3.65L83.36,62Z"/><line class="cls-7" x1="98.78" y1="85.22" x2="99.53" y2="103.84"/><line class="cls-7" x1="48.05" y1="105.21" x2="49.39" y2="86.15"/><path class="cls-1" d="M83.72,61.46,83.1,44.22l-12.16-.38L70.2,64.05c-.08,2.21,1.64,1.81,3.62,1.7l6.7-.38A3.63,3.63,0,0,0,83.72,61.46Z"/><polygon class="cls-8" points="71.38 47.82 83.52 55.78 83.1 44.23 71.38 47.82"/><path class="cls-1" d="M97.6,32a4.58,4.58,0,1,1-9.1,0,4.58,4.58,0,1,1,9.1,0Z"/><path class="cls-9" d="M90.5,33.06c.25-.37,1.13-3.23,4-2.76"/><ellipse class="cls-1" cx="61.62" cy="31.95" rx="4.55" ry="5.08"/><path class="cls-9" d="M64.18,33.06c-.25-.37-1.14-3.23-4-2.76"/><path class="cls-1" d="M91.5,22.88a78.24,78.24,0,0,1-1.68,16c-.82,3.88-3.13,6.59-6.39,8.78l-.58.39a10.35,10.35,0,0,1-11.42.14h0c-3.53-2.24-6-5.21-6.76-9.37a114.1,114.1,0,0,1-1.54-16s-1.32-16.35,14-16S91.5,22.88,91.5,22.88Z"/><path class="cls-10" d="M64,29.52s3.22-11.62.89-19.13C64.84,10.39,55.82,13.28,64,29.52Z"/><path class="cls-10" d="M90.92,29.52S86.85,17.9,89.18,10.39C89.18,10.39,97.6,12.71,90.92,29.52Z"/><path class="cls-9" d="M76.36,32.5v2.11a.76.76,0,0,0,.88.83l1-.24"/><path class="cls-10" d="M75,22.8l-8.55,1.14s.69-2.52,4.18-3S75,22.8,75,22.8Z"/><path class="cls-10" d="M79.55,22.8l8.55,1.14s-.69-2.52-4.18-3S79.55,22.8,79.55,22.8Z"/><path class="cls-3" d="M72.26,37.92h9s-.71,2.58-4.49,2.58A5.16,5.16,0,0,1,72.26,37.92Z"/><path class="cls-9" d="M81.49,29.75a2.21,2.21,0,0,1,3.53,0"/><path class="cls-9" d="M68.94,29.75a2.21,2.21,0,0,1,3.53,0"/><path class="cls-10" d="M65.5,15.6s2.58-5.19,7.22-2.32,9.22,5.61,17.51,3.35l-1.11-6.26s-11.5-13.66-24.34,0Z"/><path class="cls-10" d="M64.78,10.37S65.51.89,77.5.07,93,6.38,93,6.38l-2.18.44s4.2,2,5.28,4l-2.36.92,3.11,3.08s-9.77,4.23-15.19,2L77.21,9.17Z"/><path class="cls-1" d="M70.28,61.7l-7.18.1s-.77,8.12,13.26,8.52,14.26-8,14.26-8L83,61.7Z"/><path class="cls-3" d="M43.59,137.55a14.27,14.27,0,0,1-.17-2A2,2,0,0,1,43.9,134c.49-.42,1.09-.1,1.59.12a4.17,4.17,0,0,0,1.59.35,2.4,2.4,0,0,0,1.44-.35c.44-.35.3-.93.22-1.41a7.52,7.52,0,0,1-.33-2,.73.73,0,0,1,.3-.58.29.29,0,0,1,.45.17c.09.48.82.28.73-.2a1,1,0,0,0-1.1-.78,1.32,1.32,0,0,0-1.1,1.08,5.44,5.44,0,0,0,.27,2.18c0,.21.08.43.1.65s0,.27-.19.34a2.7,2.7,0,0,1-1.06.1c-.72-.07-1.31-.5-2-.63a1.62,1.62,0,0,0-1.59.55,2.85,2.85,0,0,0-.55,1.85,13.65,13.65,0,0,0,.2,2.3c.07.48.8.28.73-.2Z"/><path class="cls-3" d="M60.6,108.32c.44-.28,2.78-1.65,3-.76.14.52-.19,1.08-.13,1.61a2,2,0,0,0,.56,1.16,2,2,0,0,0,1.15.6,6.33,6.33,0,0,0,1.56-.23,1.47,1.47,0,0,1,1.48,1.73c-.11.48.63.68.74.2a2.26,2.26,0,0,0-1.3-2.51,2.15,2.15,0,0,0-1.56-.05,1.41,1.41,0,0,1-1.61-.36c-.72-.89.52-2.4-.69-3.08a2.26,2.26,0,0,0-1.76.14,7.85,7.85,0,0,0-1.84.9c-.41.26,0,.92.38.65Z"/><path class="cls-3" d="M78.37,138.32a2.69,2.69,0,0,1,1.81-1.9,2.12,2.12,0,0,1,1.27,0c.53.19.57.58.79,1a2.3,2.3,0,0,0,2.2,1.05,3.68,3.68,0,0,0,2.5-1.07c.35-.34-.19-.88-.54-.54a2.83,2.83,0,0,1-2.87.71,1.07,1.07,0,0,1-.58-.42c-.12-.2-.15-.44-.25-.65a1.8,1.8,0,0,0-.94-.8c-1.74-.68-3.69.71-4.13,2.4a.38.38,0,0,0,.74.2Z"/><path class="cls-3" d="M49.75,78.94a7.58,7.58,0,0,1,3.39-.44,1.65,1.65,0,0,1,1.15.8c.2.41.11.88.45,1.24,1.16,1.25,3.61,1.47,4.33-.32.19-.45-.55-.65-.73-.2-.37.92-1.57.86-2.31.5a3.25,3.25,0,0,1-.59-.37.84.84,0,0,1-.3-.63,2,2,0,0,0-.48-1c-1.25-1.4-3.57-.74-5.12-.32a.38.38,0,0,0,.21.74Z"/><path class="cls-3" d="M34.33,83.58c-.13.13-.3,0-.36-.15a1.47,1.47,0,0,1-.07-.72,2.12,2.12,0,0,1,.21-1.06c.26-.4.77-.31,1.18-.3a1.85,1.85,0,0,0,1.15-.28,1.77,1.77,0,0,0,.5-1.92c-.2-.86-1-1.69-.81-2.62a.38.38,0,0,0-.73-.2c-.29,1.18.6,2,.82,3.07.08.37.09.88-.28,1.09s-1.1,0-1.58.14c-1,.21-1.22,1.35-1.23,2.25a1.51,1.51,0,0,0,.54,1.33.91.91,0,0,0,1.19-.09c.34-.35-.2-.89-.53-.54Z"/><path class="cls-3" d="M52.65,96.05c-.4-.8,1.43-1.26,2-1.16s.51.48.67.86a2.14,2.14,0,0,0,.69.88c1.5,1.14,3.39.26,4.43-1.06.3-.38-.24-.92-.54-.53a3,3,0,0,1-2.53,1.35,1.75,1.75,0,0,1-1.16-.61c-.3-.37-.29-.87-.61-1.22-1.11-1.19-4.43.12-3.56,1.88.21.43.87,0,.65-.39Z"/><path class="cls-3" d="M76.3,83.72c.67-.4,1.77-.92,2.41-.17.3.35.14.76,0,1.16a3.21,3.21,0,0,0-.16,1.34,3.08,3.08,0,0,0,3.71,2.65c.47-.1.27-.83-.21-.73a2.33,2.33,0,0,1-2.28-.83A2.43,2.43,0,0,1,79.33,86a4,4,0,0,1,.23-1.36,1.63,1.63,0,0,0-1-2,3.06,3.06,0,0,0-2.62.52.38.38,0,0,0,.38.66Z"/><path class="cls-3" d="M78.12,108.06a5.37,5.37,0,0,1,4.15-.82,3.4,3.4,0,0,1,2.47,2.51c.29,1.4-.82,2.57-.82,4a3.45,3.45,0,0,0,1.61,2.85,3.87,3.87,0,0,0,4-.1c.42-.26,0-.92-.38-.66a3,3,0,0,1-3.77-.32,2.63,2.63,0,0,1-.73-1.7,5.48,5.48,0,0,1,.55-2,3.7,3.7,0,0,0-.29-3.46,4.29,4.29,0,0,0-2.85-1.88,6.31,6.31,0,0,0-4.35,1c-.41.26,0,.92.38.66Z"/><path class="cls-3" d="M66.45,130.8a2,2,0,0,1-1.65-2.54c.18-.53.6-.92.82-1.43a2,2,0,0,0,0-1.46,3.07,3.07,0,0,0-2.33-1.83,10.86,10.86,0,0,0-1.8-.17c-.57,0-1.36-.06-1.53-.72a.38.38,0,0,0-.73.2c.35,1.34,1.88,1.24,3,1.31s2.74.5,2.78,1.89c0,.6-.49,1-.75,1.54a2.76,2.76,0,0,0-.3,1.69,2.68,2.68,0,0,0,2.27,2.25c.48.07.69-.66.21-.73Z"/><path class="cls-3" d="M47.64,104.51a3.7,3.7,0,0,1,1.51,3.5c-.15.8-.79.87-1.5.85a7.23,7.23,0,0,0-2,.16,3.27,3.27,0,0,0-2.47,2.38A2.25,2.25,0,0,0,44.6,114c.46.16.66-.57.2-.73a1.44,1.44,0,0,1-.93-1.36,2.06,2.06,0,0,1,.9-1.64,3.64,3.64,0,0,1,2-.64,10.22,10.22,0,0,0,1.92-.06c1.23-.3,1.4-1.66,1.23-2.72a4.57,4.57,0,0,0-1.87-3c-.39-.28-.77.38-.38.66Z"/><path class="cls-3" d="M91.57,78.34a2,2,0,0,1,2.17-1.89,2.63,2.63,0,0,1,1.6.77,17.06,17.06,0,0,1,1,1.47c1.39,1.64,4.21,1.14,5.51-.32.32-.36-.21-.9-.54-.54a3.28,3.28,0,0,1-3.23,1,2.15,2.15,0,0,1-1.45-1.11,3.89,3.89,0,0,0-1.09-1.36,3.05,3.05,0,0,0-3-.47,2.75,2.75,0,0,0-1.68,2.43c0,.49.74.49.76,0Z"/><path class="cls-3" d="M102.38,95.49a21.09,21.09,0,0,0,.6-3.15,1.74,1.74,0,0,1,.75-1.11.91.91,0,0,1,1.14.12,3.21,3.21,0,0,0,1.15.81,2,2,0,0,0,1.33-.08,2,2,0,0,0,1.07-2.23c-.11-.47-.84-.27-.73.2a1.16,1.16,0,0,1-1.38,1.4c-.46-.11-.73-.51-1.08-.78a1.57,1.57,0,0,0-1.2-.33,2.27,2.27,0,0,0-1.77,1.75c-.29,1-.11,2.07-.54,3-.2.44.46.83.66.38Z"/><path class="cls-3" d="M42.07,67.15c1,.06,2.29-.54,3.18.14.44.34.31.74.15,1.2a1.66,1.66,0,0,0,0,1.31,3.36,3.36,0,0,0,2.06,1.47,2,2,0,0,0,1.53.06,1.14,1.14,0,0,0,.69-1.1c0-.48-.81-.49-.76,0,.11,1-1.88.08-2.26-.17a1.27,1.27,0,0,1-.64-.78c-.06-.44.26-.86.31-1.29A1.69,1.69,0,0,0,45,66.34c-1-.32-2,.11-3,0-.49,0-.49.73,0,.76Z"/><path class="cls-3" d="M81.65,73.67a4.5,4.5,0,0,1,2.17-2A.86.86,0,0,1,85,72a2.67,2.67,0,0,0,1,1,3.19,3.19,0,0,0,2.77.27,1.76,1.76,0,0,0,1-2.16c-.18-.45-.92-.25-.74.2a1,1,0,0,1-.31,1.12,1.78,1.78,0,0,1-1.47.23A2.77,2.77,0,0,1,86,72.07c-.33-.32-.45-.79-.84-1a2.12,2.12,0,0,0-2.29.28,6.15,6.15,0,0,0-1.85,2,.38.38,0,0,0,.66.39Z"/></g></g></svg>