<svg xmlns="http://www.w3.org/2000/svg" viewBox="0 0 186.42 318.74"><defs><style>.cls-1{fill:#364056;}.cls-2{fill:#e8792e;}.cls-3{fill:#ffaeab;}.cls-4{fill:#ecbc4f;}.cls-5{fill:#fff;}.cls-6,.cls-7{fill:none;stroke-miterlimit:10;}.cls-6{stroke:#ce6620;}.cls-7{stroke:#364056;}.cls-8{fill:#ce6620;}</style></defs><title>boy-aboutus</title><g id="Layer_2" data-name="Layer 2"><g id="Layer_1-2" data-name="Layer 1"><path class="cls-1" d="M129,59.41l8.82-.07a1.74,1.74,0,0,1,1.55,2.57l-7.23,13.53a1.75,1.75,0,0,1-1.48.92l-8.46.28a1.75,1.75,0,0,1-1.62-2.53l6.87-13.73A1.77,1.77,0,0,1,129,59.41Z"/><path class="cls-2" d="M109.77,103.63l7.76.53s-4.88-12,.89-18.45l-5.59-22Z"/><path class="cls-3" d="M74.32,21.31s7.47,18.43,17.54,14.46,3.83-24.44,1.33-26-6,2.85-9.44,5.21-3.25,1.58-5.43,1.45S72.09,14.65,74.32,21.31Z"/><path d="M76.67,13.52s10.74,8.18,20-2,1-12.78-8.51-11S79,2.08,74.31,1.82,62.22,10.79,76.67,13.52Z"/><path d="M79.51,11.84s7.46,4.8.35,5.26c-2.4.16-6-1.45-5.39,3.06s5.48,7.16,4,9.28S63.12,28.52,63,16.35,79.51,11.84,79.51,11.84Z"/><path class="cls-3" d="M78.61,28.69,76.18,43.44s.66,7.21,6.08,7.31,6.07-10.12,6.07-10.12l.6-4.4S84.53,36,78.61,28.69Z"/><path class="cls-2" d="M76.39,41.86S56.46,42.68,49.58,50c-7.74,8.28-24.13,31.07-5.46,51.8l-4.71,28.61s42.41,3.08,65.64-5.24c0,0,14.84-56.8,5.42-68.44A49.19,49.19,0,0,0,88.34,41.46s-.2,6.34-5.46,6.38S76.39,41.86,76.39,41.86Z"/><path class="cls-1" d="M39.4,130.42,16.75,296.35l16,1.36,38-125.31S81.41,299.09,82.31,298.78,98.24,298,98.24,298l6.81-172.83A228.3,228.3,0,0,1,39.4,130.42Z"/><path class="cls-3" d="M62.94,89.67s-8.82,5.16-7.74,12.12S67.44,106,68.74,105.3s44.08-23.61,46.11-23.92,14.38.31,14.8-2a7,7,0,0,0-.62-4.21s-6.54-.81-7.7-.8,1.56-3.64,2.28-4.52-.31-2.18-2-1.29-7.5,6.75-7.5,6.75Z"/><path class="cls-3" d="M117.75,85.87s-4.79,5-.9,18.45c0,0,44.87-37.58,47.28-38s14-3.15,14.62-4.66-2.44-2.25-2.44-2.85,1.47-4.1,8.11-5.06c4.18-.61,1.22-2.44-3.5-2.69C171.25,50.49,117.75,85.87,117.75,85.87Z"/><path class="cls-4" d="M17.86,298.74l12.43.58.56,12L15,314.76.06,314.54s-.95-3.91,4.77-6.72A51.07,51.07,0,0,0,17.86,298.74Z"/><path class="cls-1" d="M.06,314.54l0,2.3a143.71,143.71,0,0,0,15,.11c7-.41,15.82-3.47,15.82-3.47L30.85,311s-12.56,3.24-16.23,3.58C12,314.79.06,314.54.06,314.54Z"/><path class="cls-5" d="M8.42,306.9a6.73,6.73,0,0,1,2.68-.08,5.39,5.39,0,0,1,2.23,1,.5.5,0,1,0,.71-.71,6.66,6.66,0,0,0-2.67-1.27,8.26,8.26,0,0,0-3.21.08.5.5,0,0,0,.26,1Z"/><path class="cls-5" d="M11.42,305.06c1.42-.13,3.12-.24,4.21.88.45.46,1.15-.24.7-.71-1.28-1.32-3.2-1.32-4.91-1.17a.5.5,0,0,0,0,1Z"/><path class="cls-5" d="M14.46,302.86a11.21,11.21,0,0,1,1.85.08,3.27,3.27,0,0,1,1.58.64.52.52,0,0,0,.71,0,.5.5,0,0,0,0-.71,6.13,6.13,0,0,0-4.14-1,.5.5,0,0,0,0,1Z"/><path class="cls-5" d="M4.27,309c2.34-.11,4.88-.22,7,1,.55.34,1-.53.5-.86-2.23-1.37-4.94-1.31-7.46-1.19-.64,0-.65,1,0,1Z"/><polygon class="cls-1" points="30.31 299.32 17.83 298.73 18 297.23 30.4 297.83 30.31 299.32"/><path class="cls-4" d="M96.48,300.5l-12.41.8-.36,12,15.9,3.21,15-.49s.88-3.92-4.89-6.63A51.07,51.07,0,0,1,96.48,300.5Z"/><path class="cls-1" d="M114.56,316l0,2.3a143.56,143.56,0,0,1-15,.37c-7-.28-15.88-3.19-15.88-3.19l0-2.51s12.62,3,16.29,3.29C102.58,316.45,114.56,316,114.56,316Z"/><path class="cls-5" d="M106.32,307.53a8,8,0,0,0-3.23,0,6.5,6.5,0,0,0-2.63,1.3.5.5,0,0,0,0,.71.51.51,0,0,0,.71,0,5.37,5.37,0,0,1,2.19-1,6.59,6.59,0,0,1,2.69,0,.53.53,0,0,0,.62-.35.51.51,0,0,0-.35-.62Z"/><path class="cls-5" d="M103,305.71c-1.71-.12-3.64-.09-4.9,1.25-.44.47.27,1.18.71.71,1.07-1.14,2.76-1.06,4.19-1a.5.5,0,0,0,.5-.5.51.51,0,0,0-.5-.5Z"/><path class="cls-5" d="M99.94,303.56a6.17,6.17,0,0,0-4.12,1.08.51.51,0,0,0,0,.71.52.52,0,0,0,.71,0,3.27,3.27,0,0,1,1.57-.67,7.51,7.51,0,0,1,.87-.09c.32,0,.65,0,1,0a.5.5,0,0,0,0-1Z"/><path class="cls-5" d="M110.24,309.57c-2.52-.08-5.23-.1-7.44,1.31-.54.34,0,1.21.51.86,2.06-1.31,4.59-1.24,6.93-1.17a.5.5,0,0,0,0-1Z"/><polygon class="cls-1" points="84.05 301.3 96.51 300.49 96.32 299 83.93 299.81 84.05 301.3"/><path class="cls-6" d="M62.69,89.38a29.4,29.4,0,0,1-4.57-2.9,10,10,0,0,1-3.2-4.3,14.82,14.82,0,0,1-.38-6.05"/><path class="cls-7" d="M40,126.73c10.44.36,37.74-1.81,44.28-2.29s15.18-2,21.64-3.16"/><path class="cls-8" d="M60.08,91.79a15.39,15.39,0,0,0-3.49,3.93,8,8,0,0,0-1.31,4.48,6,6,0,0,0,.83,3.89c1.39,1.85,4,2.53,6.2,2.37a22.59,22.59,0,0,1-5.3.43,6.23,6.23,0,0,1-4.13-2.26,6.43,6.43,0,0,1-1.06-2.72,10.53,10.53,0,0,1,2.49-8.68c1.1-1.24,6.25-4.59,7.92-3.12C61.45,90.66,60.67,91.3,60.08,91.79Z"/><path class="cls-7" d="M71.38,42.32a6.85,6.85,0,0,0,.68,3.28,14,14,0,0,0,6.2,7,10,10,0,0,0,9.21.15A6.81,6.81,0,0,0,90.78,49a10.2,10.2,0,0,0,.35-1.73L91.76,43"/><path class="cls-7" d="M66.21,43a14.06,14.06,0,0,0,2.42,7A19.17,19.17,0,0,0,74,55.3a16.93,16.93,0,0,0,3.86,2,23.72,23.72,0,0,0,8.4.86,8,8,0,0,0,2.8-.44,8.1,8.1,0,0,0,2.87-2.41,8.3,8.3,0,0,0,1.94-3,10.59,10.59,0,0,0,.3-2.58,17.46,17.46,0,0,1,1.08-5"/></g></g></svg>