<svg xmlns="http://www.w3.org/2000/svg" viewBox="0 0 131.59 313.35"><defs><style>.cls-1{fill:#ffaeab;}.cls-2{fill:#0fa8ba;}.cls-3{fill:#faaeb0;}.cls-4{fill:#ecbc4f;}.cls-5{fill:#fff;}.cls-6{fill:#09090b;}.cls-7{fill:#ff7133;}.cls-12,.cls-8{fill:none;stroke-miterlimit:10;}.cls-8{stroke:#09090b;stroke-width:0.77px;}.cls-9{fill:#364056;}.cls-10{fill:#f9927d;}.cls-11{fill:#ffb1a5;}.cls-12{stroke:#283045;}.cls-13{fill:#283045;}</style></defs><title>girl-careers_1</title><g id="Layer_2" data-name="Layer 2"><g id="Layer_1-2" data-name="Layer 1"><path class="cls-1" d="M85.18,68.92l22,20.84a9.92,9.92,0,0,1,1,13h0a8.14,8.14,0,0,1-12,1.28L77.64,87.75Z"/><path class="cls-1" d="M112.17,53.73,94.94,93.79c-1.92,4.43,0,9.7,4.15,11.54h0c4.4,1.93,9.36-.79,10.54-5.78l11-43.35Z"/><path class="cls-1" d="M131.36,35.93a1,1,0,0,0-1.61-.12l-5.51,6.84,2.35-11.71a1.25,1.25,0,0,0-.93-1.5,1.14,1.14,0,0,0-1.27.82L121,40.79l1.8-13.08a1.12,1.12,0,0,0-.8-1.26,1,1,0,0,0-1.22.81l-2.89,11.92.65-10.39a1.28,1.28,0,0,0-1.31-1.35c-.73,0-1.19.79-1.27,1.41l-1.68,14.57-.93-4.54a1.5,1.5,0,0,0-2-1.16,1.63,1.63,0,0,0-1,1.46c-.46,10.58,1.83,14.55,1.83,14.55l8.42,2.47a19.4,19.4,0,0,0,5.9-10.37l4.88-8.48A1.25,1.25,0,0,0,131.36,35.93Z"/><path class="cls-2" d="M67.59,56.06c11.16,2.71,25,16.82,25,16.82l-9.49,20L68.9,80.28Z"/><path class="cls-1" d="M33.51,135.42,21.27,99.83,41.09,82.46,25.76,70.7l-14.95,14c-6.13,6-8.89,12.59-4.23,20l19.91,35.79Z"/><path class="cls-1" d="M31.55,133.72s3.45.09,2.88,9,.75,15-4.86,14.59-14.49-6.87-7.12-13l3.35-7.12Z"/><path class="cls-2" d="M44.65,56.78c-8.9,1.88-25.44,17-25.44,17L27.8,94.55,42.86,82.66Z"/><path class="cls-2" d="M44.65,56.78s-7.42,3.69-11.08,7.46l7.49,49.26,31.82-1.42L78.29,66a6.13,6.13,0,0,0-3.49-5.92l-7.21-4C64,57.66,44.65,56.78,44.65,56.78Z"/><polygon class="cls-3" points="77.64 304.59 78.75 277.78 67.05 277.13 67.23 305.32 77.64 304.59 77.64 304.59"/><path class="cls-4" d="M65.91,299.37s8.94,4.2,13.14-2.41l21.71,12.78-37.62-.28Z"/><rect class="cls-5" x="63.12" y="309.6" width="37.63" height="3.61" transform="translate(2.27 -0.59) rotate(0.42)"/><polygon class="cls-6" points="67.11 286.55 78.26 289.64 78.39 286.55 67.11 286.55"/><polygon class="cls-3" points="22.18 304.59 25.36 277.78 37.06 277.13 32.6 305.32 22.18 304.59 22.18 304.59"/><path class="cls-4" d="M34.85,299.37s-8.94,4.2-13.14-2.41L0,309.74l37.63-.28Z"/><rect class="cls-5" x="0.01" y="309.6" width="37.63" height="3.61" transform="translate(39.92 622.66) rotate(179.58)"/><polygon class="cls-6" points="24.44 285.51 35.08 289.64 35.65 286.04 24.44 285.51"/><path class="cls-7" d="M41.06,113.5s-6.38,9.44-11.12,34.15c-5,26-7.8,147.6-7.8,147.6l14.73,1.1,21.3-134.43,7.14,134.43,15.24-1.65s17.68-157-7.67-182.62Z"/><line class="cls-8" x1="47.93" y1="155.04" x2="58.17" y2="161.92"/><path class="cls-9" d="M81.33,32C80,26.31,79.45,27.32,74.81,16,72,9.28,69.9,6.57,68.63,5.47h0A18.05,18.05,0,0,0,55.57,0,17.84,17.84,0,0,0,42.94,5.2h0c-1.21.88-3.5,3.43-6.53,10.83-4.63,11.29-5.14,10.28-6.51,16S30.27,48.14,41,50.18a8.9,8.9,0,0,1-1.87-3.94s4.51,6.66,10.64,6.26h11.6c6.14.4,10.65-6.26,10.65-6.26a8.85,8.85,0,0,1-1.88,3.94C81,48.14,82.71,37.66,81.33,32Z"/><path class="cls-1" d="M50.09,42.45l.09,12.06c0,3.76,2.17,3.27,5.57,3.22h0c2.91,0,5.61-.62,5.93-3.76l-.89-16.81Z"/><polygon class="cls-10" points="61.57 50.19 49.95 42.63 61.23 40.47 61.57 50.19"/><path class="cls-11" d="M50.18,54l-6.79,3s14,7.71,24.7-.86L61.68,54Z"/><path class="cls-9" d="M72.09,18.91c0,10.18-7.29,18.44-16.29,18.44S39.52,29.09,39.52,18.91,46.81,1.81,55.8,1.81,72.09,8.73,72.09,18.91Z"/><path class="cls-11" d="M74.9,28.1a4.47,4.47,0,1,1-8.9,0,4.46,4.46,0,1,1,8.9,0Z"/><path class="cls-12" d="M68,29.15c.25-.35,1.11-3.07,3.91-2.62"/><ellipse class="cls-11" cx="40.64" cy="28.1" rx="4.45" ry="4.84"/><path class="cls-12" d="M43.14,29.15c-.24-.35-1.11-3.07-3.91-2.62"/><path class="cls-1" d="M69.26,19.2a71.6,71.6,0,0,1-1.62,15.06c-.8,3.64-3,6.19-6.19,8.24l-.58.38a10.35,10.35,0,0,1-11,.13h0C46.4,40.9,44,38.12,43.26,34.2a104,104,0,0,1-1.48-15S40.5,3.85,55.32,4.15,69.26,19.2,69.26,19.2Z"/><path class="cls-9" d="M64.77,6S60.18,23.29,39.36,21.74c0,0,1.86-17,12-18.45C51.31,3.29,61.18,1.75,64.77,6Z"/><path class="cls-9" d="M59.56,4.15S60.27,16,69.17,22.77l1.28-5.63S71.86,5.35,59.56,4.15Z"/><polygon class="cls-9" points="44.65 18.91 42.23 26.26 41.18 18.91 44.65 18.91"/><polygon class="cls-9" points="66.32 18.91 68.82 25.64 69.78 18.91 66.32 18.91"/><path class="cls-13" d="M50.31,26A1.34,1.34,0,1,1,49,24.57,1.39,1.39,0,0,1,50.31,26Z"/><path class="cls-13" d="M63,26a1.34,1.34,0,1,1-1.34-1.44A1.39,1.39,0,0,1,63,26Z"/><path class="cls-12" d="M54.8,28.76v1.95a.73.73,0,0,0,.84.76l1-.22"/><path class="cls-9" d="M49,20.13s2.82-.41,2.91.83c0,0,0,.85-2.42,1.16s-4.1.16-4.37-.62S47.67,20.22,49,20.13Z"/><path class="cls-9" d="M61.59,19.94s-2.94-.44-3,.87c0,0,0,.88,2.53,1.21s4.29.16,4.57-.66S63,20,61.59,19.94Z"/><path class="cls-5" d="M50.26,34.21H60.77s-.84,2.95-5.26,2.95A6,6,0,0,1,50.26,34.21Z"/><ellipse class="cls-5" cx="33" cy="68.66" rx="2.59" ry="2.74"/><ellipse class="cls-5" cx="36.92" cy="81.13" rx="1.96" ry="2.07"/><ellipse class="cls-5" cx="63.27" cy="107.27" rx="1.96" ry="2.07"/><ellipse class="cls-5" cx="42.23" cy="107.41" rx="1.96" ry="2.07"/><ellipse class="cls-5" cx="77.68" cy="85.62" rx="1.96" ry="2.07"/><ellipse class="cls-5" cx="51.6" cy="70.73" rx="2.59" ry="2.74"/><ellipse class="cls-5" cx="64.11" cy="84.33" rx="2.03" ry="2.15"/><ellipse class="cls-5" cx="66.07" cy="66.41" rx="1.73" ry="1.83"/><ellipse class="cls-5" cx="77.73" cy="70.89" rx="1.73" ry="1.83"/><ellipse class="cls-5" cx="51.4" cy="86.51" rx="1.95" ry="2.07"/><ellipse class="cls-5" cx="39.1" cy="95.82" rx="2.59" ry="2.74"/><ellipse class="cls-5" cx="55.31" cy="98.44" rx="2.59" ry="2.74"/></g></g></svg>