<svg xmlns="http://www.w3.org/2000/svg" viewBox="0 0 159.71 305.97"><defs><style>.cls-1{fill:#0fa8ba;}.cls-2{fill:#ffaeab;}.cls-3{fill:#f7b634;}.cls-4{fill:#db6412;}.cls-5{fill:#1bbfbf;}.cls-6{fill:#11393d;}.cls-7{fill:#1a4850;}.cls-8{fill:#fa968c;}.cls-9{fill:#e8792e;}.cls-10{fill:#fff;}</style></defs><title>girl-aboutus</title><g id="Layer_2" data-name="Layer 2"><g id="Layer_1-2" data-name="Layer 1"><path class="cls-1" d="M122.1,55c-5.56-3.42-36.34,11.17-36.34,11.17l-3-27.88H76.39s-3.39,37.28,3,40.23,39.43-6.65,39.43-6.65Z"/><path class="cls-1" d="M101.86,136.9l20.24-3.22-11-62.21S99.82,79.8,101.86,136.9Z"/><path class="cls-2" d="M68,305.9c2.11-1.7,7.53-9,8.64-12.68C78.23,288,80.1,280.91,82,273.14h8.11c-2.66,8.47-4.37,15.56-5.13,18.75a6.34,6.34,0,0,0,.3,1.5c.23.78.68,12.58.68,12.58H67.8l.17-.05Z"/><path class="cls-2" d="M128.88,273.14h9.59c-1.79,9.88-3.19,18.26-3.19,18.26V306H124.83c1-4.36,3.91-17.43,3.91-22.94C128.74,279.79,128.8,276.48,128.88,273.14Z"/><path class="cls-3" d="M79.74,282.1c5.7-21.92,12.75-55.11,13.67-60.6.59-3.56,1.12-14.83,2.52-28.67.36-15.78,2.18-51.86,11-72.34l20.87.49c-.84,16.26,14.93,33.81-4.28,52.63-2.5,7-10.78,30.84-12,41.33-1.42,12.38-3.73,17.87-10.89,31.68-6.2,11.95-10.58,25.88-13.21,35.48Z"/><path class="cls-3" d="M150.47,191.85h0c-1.34,6.93-3.24,11.56-4.28,17.39-1.52,8.49,2.8,20.79-1.56,34.46-2.06,6.48-5.92,27.84-8,39.66h-7.91V283c0-28.77,4-63.06,3.38-76.1-.25-5.5-1.18-13.29-2.17-20.38,0,0-5.1-27.08-7.79-29.25-17-13.71-15.19-36.81-15.19-36.81l31.24,1.45s18.19,15.12,13.41,42c0,0,0,.27,0,.76C152.43,177.39,151.68,185.57,150.47,191.85Z"/><path class="cls-4" d="M86.88,306s.8-10.8-1.31-13.62S77.65,295,77.65,295l-5.18-2.36s.26,3.38-3.93,6.14-7.59,2-7.85,7.22Z"/><path class="cls-4" d="M136.77,294.71s-.13-3.59-5.11-3.17-4.62,4-4.62,4a1.11,1.11,0,0,0-1.4,0c-.66.58-.1,5.55-1.36,6.6s-.87,3.8-.87,3.8H138s.78-3.54-.66-4.85S139.52,295.1,136.77,294.71Z"/><path class="cls-5" d="M122.1,55a41.09,41.09,0,0,0,16.41,8.28c9.65,2.24,13.67-3.64,18.6,2.58,7.41,9.34-4.64,26.57-11,35.49-2.37,3.33-7.36,12.55-8.37,21.41,0,0-16.74,4.86-31.19-1.45l-1.08-20.55S96.39,73,122.1,55Z"/><path class="cls-1" d="M129.7,58.84S109.22,69.75,105.9,85.9s-4,51-4,51-2-38.08,2.07-54.5S118.85,55.31,122.1,55C122.1,55,127.87,58.18,129.7,58.84Z"/><path class="cls-6" d="M123.08,31.93c-.08,6.19-1.69,22.19-3.8,27.22s-.46,10,8.64,10.81,17.43,4.53,21.12,1.66,4-34.65-3.94-42.56-13.72-9.38-17.83-6.77S123.08,31.93,123.08,31.93Z"/><path class="cls-2" d="M146.78,21.67s-18.49-6.19-22.21,6.83,0,26.61,10,26.28C146.83,54.37,161.13,29,146.78,21.67Z"/><path class="cls-7" d="M134.5,36.55c-.06.83-.53,1.48-1.06,1.44s-.91-.73-.86-1.57.53-1.48,1.06-1.45S134.55,35.71,134.5,36.55Z"/><path class="cls-8" d="M137.06,40.94a1.82,1.82,0,0,1-3.53.37,1.62,1.62,0,0,1,1.61-1.6A1.64,1.64,0,0,1,137.06,40.94Z"/><path class="cls-7" d="M135,36.33s-.44-1.92-1.12-2-1.82,1.24-1.82,1.24l-1.25-.91,1.2.47s1-1.46,2-1.17S135,36.33,135,36.33Z"/><path class="cls-7" d="M126.77,35.35c0,.83-.53,1.48-1.06,1.45s-.91-.74-.86-1.58.53-1.48,1.06-1.45S126.82,34.51,126.77,35.35Z"/><path class="cls-7" d="M127.27,35.13s-.44-1.92-1.12-2-1.82,1.23-1.82,1.23l-1.25-.91,1.2.47s1-1.46,2-1.16S127.27,35.13,127.27,35.13Z"/><path class="cls-6" d="M136,32a.39.39,0,0,1-.3-.18,2.52,2.52,0,0,0-2.27-1.05.4.4,0,0,1-.43-.35.38.38,0,0,1,.35-.42,3.31,3.31,0,0,1,3,1.41.39.39,0,0,1-.12.53A.32.32,0,0,1,136,32Z"/><path class="cls-6" d="M127.51,30a.47.47,0,0,1-.22-.09,2.53,2.53,0,0,0-2.49-.32.37.37,0,0,1-.5-.2.38.38,0,0,1,.19-.5,3.32,3.32,0,0,1,3.29.43.38.38,0,0,1,0,.54A.4.4,0,0,1,127.51,30Z"/><path class="cls-8" d="M127.88,39.21s-3.3,0-3,1.19,2.22,2.67,2.22,2.67S128.62,40.65,127.88,39.21Z"/><path class="cls-1" d="M141.94,61.82S130,78.29,131.69,94.6,138.5,136,151.3,144.94c0,0-.8-8.73-2.38-20.43s12.92-45.11,10.53-55.2C158.3,64.47,155.42,61.8,141.94,61.82Z"/><path class="cls-1" d="M154.65,64.21c-5.91-5-34.52,4-34.52,4L92.3,42l-4.12,3.48s23.69,32.23,28.3,35.4,31.05.94,35.38-1.9S157.43,66.56,154.65,64.21Z"/><path class="cls-6" d="M139.41,28.36a21.1,21.1,0,0,1,4,12.39s3.1-3.8,4.72-.5-4.91,7-4.91,7,.12,9.55,3,9.66,10.42-16,8.73-21.44S148.09,24.53,139.41,28.36Z"/><path class="cls-8" d="M143.05,45.46c-1.42,3.82-6.86,10.43-12.62,8.54,0,0,.8,3.79-1.6,5.87,0,0-1.61,1.62.84,3.28,7.69,5.24,13,1.53,13.81.19l1.62-17.18A1.25,1.25,0,0,1,143.05,45.46Z"/><path class="cls-6" d="M132.9,25.32s-.07,13.51,9.1,17.1-6.37,22.6-5.66,34.45c0,0,17.63,6.09,20.42,1.72s-1.5-21.16.5-29.81.43-21.53-5.9-27.75-31.78-9.09-28.28,10.9C123.08,31.93,124.36,25.32,132.9,25.32Z"/><path class="cls-9" d="M94.17,5.65l5.34,22a7.4,7.4,0,0,1-5.44,8.94L15.34,55.7A7.4,7.4,0,0,1,6.4,50.25L.31,30a7.31,7.31,0,0,1,5.17-9.17L85.21.22A7.4,7.4,0,0,1,94.17,5.65Z"/><polygon class="cls-10" points="14.15 31.59 85.51 13.88 84.97 11.69 13.61 29.39 14.15 31.59"/><polygon class="cls-10" points="15.91 38.81 87.26 21.11 86.72 18.91 15.37 36.62 15.91 38.81"/><rect class="cls-10" x="16.92" y="40.12" width="29.09" height="2.26" transform="translate(-9.02 8.8) rotate(-13.95)"/><path class="cls-2" d="M88.13,45.88s4.54-.46,4.06-4.58c0,0-2.1-4.83-2.66-5.68s-3.21-.46-3.21-.46a3.2,3.2,0,0,0,1.82,1.36,1.11,1.11,0,0,1-.48,1.26c-.75.4-2.5.34-3,.49-1.07.29-4.2-.61-5.4-.16s-.66,1-.66,1l2.75,1s-2.87-.2-4.1.92,4.31,1.14,4.31,1.14-3.58.29-4,1.1c-.12.23.86.39.86.39s-.65.27-.43.81,1.9.59,3.19.54A37.81,37.81,0,0,1,88.13,45.88Z"/><path class="cls-8" d="M81.3,40.11s2.71.46,3.13.49,1.23.2,1.23.2S84.46,41.14,81.3,40.11Z"/><path class="cls-8" d="M81.51,42.17a9.3,9.3,0,0,1,1.82.32c.32.17,1.47-.15,1.64.13S83.21,42.94,81.51,42.17Z"/><path class="cls-8" d="M78.39,43.66a24.27,24.27,0,0,1,3.26.08c.73.16,2.23-.28,2.51,0S80.12,44.12,78.39,43.66Z"/><path class="cls-7" d="M126.86,46.83a2.9,2.9,0,0,0,2.69,1.45,3.4,3.4,0,0,0,1.92-.53,3.49,3.49,0,0,0,1.16-1.42c.2-.43-.45-.81-.65-.38a2.66,2.66,0,0,1-.89,1.15,2.61,2.61,0,0,1-1.54.43,2.14,2.14,0,0,1-2-1.07.37.37,0,0,0-.65.37Z"/></g></g></svg>