<svg xmlns="http://www.w3.org/2000/svg" viewBox="0 0 137.33 317.22"><defs><style>.cls-1{fill:#123c5e;}.cls-2{fill:#fdbfb2;}.cls-3{fill:#ffaeab;}.cls-4{fill:#f9927d;}.cls-10,.cls-5{fill:none;stroke-miterlimit:10;}.cls-5{stroke:#123c5e;}.cls-6{fill:#09090b;}.cls-7{fill:#e8792e;}.cls-8{fill:#fff;}.cls-9{fill:#f7b634;}.cls-10{stroke:#09090b;stroke-width:0.77px;}.cls-11{fill:#ff7133;}</style></defs><title>girl-academy</title><g id="Layer_2" data-name="Layer 2"><g id="Layer_1-2" data-name="Layer 1"><ellipse class="cls-1" cx="48.38" cy="12.73" rx="12.65" ry="12.76" transform="translate(0.79 28.15) rotate(-32.7)"/><ellipse class="cls-2" cx="45.38" cy="28.36" rx="10.45" ry="10.55" transform="translate(-8.13 29.01) rotate(-32.7)"/><path class="cls-3" d="M39.3,57.76l.1,16.65c0,3.54,2.22,3.09,5.7,3h0c3,0,5.75-.58,6.07-3.53l-.91-21.14Z"/><polygon class="cls-4" points="50.95 64.91 39.02 58.28 50.42 55.59 50.95 64.91"/><path class="cls-1" d="M61.83,35.57c0,9.6-7.46,17.38-16.68,17.38S28.47,45.17,28.47,35.57s7.47-16.13,16.68-16.13S61.83,26,61.83,35.57Z"/><path class="cls-3" d="M64.71,44.23a4.56,4.56,0,1,1-4.56-4.56A4.56,4.56,0,0,1,64.71,44.23Z"/><path class="cls-5" d="M57.6,45.22c.25-.33,1.14-2.89,4-2.47"/><circle class="cls-3" cx="29.62" cy="44.23" r="4.56"/><path class="cls-5" d="M32.18,45.22c-.25-.33-1.14-2.89-4-2.47"/><path class="cls-3" d="M58.94,35.84A62.15,62.15,0,0,1,57.27,50c-.81,3.44-3.1,5.85-6.33,7.78l-.59.35A11.4,11.4,0,0,1,39,58.28h0c-3.5-2-6-4.61-6.71-8.3a91.86,91.86,0,0,1-1.53-14.14s-1.3-14.47,13.88-14.19S58.94,35.84,58.94,35.84Z"/><path class="cls-1" d="M54.33,23.42S50.7,39.59,29.38,38.13c0,0,.84-16,11.17-17.29C40.55,20.84,50.66,19.39,54.33,23.42Z"/><path class="cls-1" d="M49,21.65s.73,11.17,9.84,17.56l1.31-5.31S61.6,22.78,49,21.65Z"/><polygon class="cls-1" points="33.72 35.56 31.25 42.49 30.18 35.56 33.72 35.56"/><polygon class="cls-1" points="55.92 35.56 58.49 41.91 59.47 35.56 55.92 35.56"/><path class="cls-5" d="M44.13,44.85v1.84a.72.72,0,0,0,.86.72l1-.21"/><path class="cls-1" d="M38.18,36.72s2.88-.39,3,.78c0,0,0,.8-2.48,1.1s-4.2.14-4.47-.6S36.82,36.8,38.18,36.72Z"/><path class="cls-1" d="M51.08,36.53s-3-.41-3.11.82c0,0,0,.84,2.59,1.15s4.4.15,4.68-.62S52.5,36.62,51.08,36.53Z"/><path class="cls-1" d="M39.9,49.6a10.23,10.23,0,0,0,9.76-.37"/><path class="cls-1" d="M39.73,42.43a1.29,1.29,0,1,1-1.29-1.27A1.28,1.28,0,0,1,39.73,42.43Z"/><path class="cls-1" d="M51.87,42.43a1.28,1.28,0,0,1-2.56,0,1.28,1.28,0,0,1,2.56,0Z"/><polygon class="cls-3" points="26.53 309.34 26.12 285.21 37.56 284.63 36.72 310 26.53 309.34 26.53 309.34"/><polygon class="cls-6" points="26.21 287.79 37.44 288.21 37.44 291.06 26.21 287.79"/><line class="cls-6" x1="37.44" y1="288.21" x2="37.44" y2="291.06"/><path class="cls-7" d="M38.92,304.64s-8.74,3.78-12.85-2.17L6.45,314l35.18-.24Z"/><rect class="cls-8" x="6.46" y="313.85" width="35.19" height="3.25" transform="translate(50.32 630.77) rotate(179.6)"/><polygon class="cls-3" points="102.11 309.34 97.25 285.21 85.8 284.63 91.92 310 102.11 309.34 102.11 309.34"/><path class="cls-7" d="M89.72,304.64s8.74,3.78,12.85-2.17L122.19,314,87,313.73Z"/><rect class="cls-8" x="87" y="313.85" width="35.19" height="3.25" transform="translate(2.21 -0.72) rotate(0.4)"/><path class="cls-9" d="M37.87,115.8S17.62,138.66,18,162.89s7.67,124.84,7.67,124.84l12.76.76,9.29-136.62,2.43-.15,35,137.18,13.86-2.28L79.23,155.12S73,131.8,61.68,117.76Z"/><line class="cls-10" x1="53.2" y1="152.57" x2="42.07" y2="150.63"/><path class="cls-3" d="M19.65,83.8,8.84,124.66a5.48,5.48,0,0,0,4.4,7h0a6.42,6.42,0,0,0,6.6-3.54L33.76,88.67a7.47,7.47,0,0,0-4.4-9.77h0A7.47,7.47,0,0,0,19.65,83.8Z"/><path class="cls-3" d="M8.53,126.27l-4.62,42,8.2-.37L20,127.74c.57-3.21-1.63-7.08-4.85-7.54h0C11.81,119.72,8.8,123,8.53,126.27Z"/><path class="cls-3" d="M5,165.28s-11.44,14.43.19,22.09a1.93,1.93,0,0,0,2.45-.27l.08-.09a2,2,0,0,0,.1-2.66c-1.59-1.89-3.61-5.73.51-10.26,0,0,1.91.64,1.25,4.52a1.59,1.59,0,0,0,1.59,1.88h0a1.64,1.64,0,0,0,1.51-1.13c.85-2.53,2.45-8.84-1.34-12.56Z"/><path class="cls-3" d="M115.36,123.18s16-9,21.8,3.65a2,2,0,0,1-.66,2.37l-.1.08a2,2,0,0,1-2.64-.33c-1.62-1.86-5.09-4.46-10.22-1.1,0,0,.33,2,4.27,1.94a1.6,1.6,0,0,1,1.61,1.87h0a1.66,1.66,0,0,1-1.35,1.31c-2.63.45-9.12,1-12.19-3.29Z"/><path class="cls-3" d="M59.16,78.4l56.74,51.33,1.19-7.38L69.66,70.76c-2.27-2.84-7.6-3.77-10.37-1.42l.33-.3A6.44,6.44,0,0,0,59.16,78.4Z"/><polygon class="cls-3" points="40.83 69.56 25.53 80.06 37.87 115.8 61.68 117.76 64.85 84.96 63.6 67.75 40.83 69.56"/><path class="cls-11" d="M34,73.75s3.12,9.67,12.17,7.61,9.38-13.13,9.38-13.13l11.74-.9L62.62,111H32.67L23.81,78.62Z"/><path class="cls-8" d="M24.68,81.73l10.75-4.42s.69,1,1,1.38L25,83Z"/><path class="cls-8" d="M66.61,74l-12.1.23s-.25,1.16-.41,1.68l12.36-.45Z"/><polygon class="cls-8" points="26.26 87.38 65.95 80.18 65.71 82.28 26.68 89.04 26.26 87.38"/><polygon class="cls-8" points="27.71 92.76 65.09 88.13 64.88 90.35 28.05 94.14 27.71 92.76"/><polygon class="cls-8" points="29.37 98.69 64.16 96.69 63.93 98.84 29.85 100.56 29.37 98.69"/><polygon class="cls-8" points="31.23 105.8 63.3 105.11 63.11 106.88 31.64 107.11 31.23 105.8"/></g></g></svg>