<svg xmlns="http://www.w3.org/2000/svg" width="100%" height="430px" viewBox="0 0 1920.32 442.71"><defs><style>.cls-1{fill:#d9d9e2;}.cls-2{fill:#e5e5ea;}.cls-3{fill:#eeedef;}.cls-4{fill:#fff;}.cls-5{fill:#f7b634;}.cls-6{fill:#efb670;}.cls-7{opacity:0.92;}.cls-8{fill:#e0dfde;}.cls-13,.cls-9{opacity:0.14;}.cls-10,.cls-13{fill:#0097cf;}.cls-11{opacity:0.5;}.cls-12{opacity:0.54;}.cls-13{isolation:isolate;}.cls-14{fill:#1bbfbf;}.cls-15{fill:none;stroke:#4ca5a2;stroke-linecap:round;stroke-miterlimit:10;stroke-width:1.94px;}.cls-16{fill:#ecbc4f;}.cls-17{fill:#e8792e;}.cls-18{fill:#f47f31;}</style></defs><title>services_4</title><g id="Layer_2" data-name="Layer 2"><g id="Layer_1-2" data-name="Layer 1"><path class="cls-1" d="M.28,288.57s352.85,27.87,430,0c118-42.64,292.49-27.88,430.42,26.24,131.11,51.45,254.27,3.28,310.77-18s259.25-36.08,457,29.52,291.43-3.08,291.43-3.08l.42,119.45H.32Z"/><path class="cls-2" d="M0,279.33s226.88-45.84,391.63,24.28c130.56,55.56,369.43,32.07,492.57-7.07s397.32-26.77,490.92,28.26c74.88,44,195.77,48.49,269.58,11.42,117.62-59.08,274.87-13.28,274.87-13.28l.41,119.44L0,442.71Z"/><path class="cls-3" d="M771.75.76h398.09A17.18,17.18,0,0,1,1187,17.94V268.33a23.34,23.34,0,0,1-23.34,23.34H777.91a23.34,23.34,0,0,1-23.34-23.34h0V17.94A17.18,17.18,0,0,1,771.75.76Z"/><rect class="cls-4" x="776.74" y="25.56" width="388.11" height="244.54"/><path class="cls-5" d="M772.83,0h395.89a18.47,18.47,0,0,1,18.47,18.47v13H754.35v-13A18.47,18.47,0,0,1,772.82,0Z"/><circle class="cls-3" cx="1137.08" cy="17.31" r="2.9"/><circle class="cls-3" cx="1147.21" cy="17.31" r="2.9"/><circle class="cls-3" cx="1156.94" cy="17.31" r="2.9"/><path class="cls-6" d="M801,287.23a29.31,29.31,0,0,1,6.57,1.1c2.34.57,4.67,1.16,7,1.82,4.68,1.34,9.22,3.08,13.79,4.76a38.06,38.06,0,0,1,7,3.48c.12.07,0,.26-.09.19a36,36,0,0,0-6-3.13c-2.29-.88-4.6-1.72-6.89-2.57a123.65,123.65,0,0,0-13.71-4.15,35.62,35.62,0,0,0-7.59-1.4c-.06,0-.07-.1,0-.1Z"/><g class="cls-7"><path class="cls-8" d="M855.43,295.67a53.7,53.7,0,0,0,2-21.82,34.14,34.14,0,0,0-9.37-19.68,60.23,60.23,0,0,0-6.43-5.29c-5.75-4.31-11.52-8.62-17.44-12.71-4.64-3.21-9.51-6.43-12.47-11.14a100,100,0,0,0,2.1,19.67,42.33,42.33,0,0,0,3.8,11.48c2.9,5.44,7.55,9.77,11.86,14.26A152.83,152.83,0,0,1,843.29,287a34.49,34.49,0,0,0,4.17,5.16,16.36,16.36,0,0,0,7.71,4"/><g class="cls-9"><path class="cls-10" d="M830.32,257.48a95.23,95.23,0,0,1,14.86,6.22,37,37,0,0,1,10.88,8.74c.53.65,1,1.31,1.47,2a53.83,53.83,0,0,1-2.11,21.22l-.26.51a16.42,16.42,0,0,1-7.7-4,35.11,35.11,0,0,1-4.18-5.15,154.5,154.5,0,0,0-13.77-16.55c-4.31-4.49-9-8.82-11.86-14.26a33.56,33.56,0,0,1-1.62-3.62,70.34,70.34,0,0,1,6.79,2.29C825.3,255.75,827.81,256.61,830.32,257.48Z"/></g><g class="cls-11"><path class="cls-10" d="M816.09,235.67c3.84,8.47,10.8,15.11,17.27,21.74a109.57,109.57,0,0,1,9.12,10.26A69.37,69.37,0,0,1,850,280a66.44,66.44,0,0,1,5.25,15.77c.06.28-.38.42-.44.14a70.8,70.8,0,0,0-11.91-27c-5.46-7.5-12.6-13.61-18.67-20.62a50.65,50.65,0,0,1-8.29-12.62c0-.1.12-.14.16,0Z"/></g></g><g class="cls-7"><path class="cls-8" d="M854.29,308.37c-2-8.23-5.92-15.53-12.58-21-4.16-3.43-9-6.06-13-9.68-6.29-5.75-10-13.62-15.46-20.09-7.41-8.72-17.78-14.54-27.91-20.17,10.35,13.8,12,32.44,22.9,45.87,8.93,11,23,17.08,36.93,20.94,3.27.9,6.73,1.81,9.09,4.16"/><g class="cls-12"><path class="cls-10" d="M792.26,244.78c9.67,6,15.41,15.94,21.42,25.07a85.49,85.49,0,0,0,10.4,13.49,40.45,40.45,0,0,0,6.59,5.45c2.69,1.75,5.65,3.08,8.39,4.75a49.16,49.16,0,0,1,15,14c.16.24-.22.44-.39.22a54.16,54.16,0,0,0-13.67-13c-2.69-1.75-5.6-3.1-8.35-4.75a38.62,38.62,0,0,1-6.43-4.88c-8.19-7.64-13.12-17.8-19.56-26.72-3.72-5.14-8-10-13.46-13.43a.08.08,0,0,1-.06-.1.09.09,0,0,1,.1-.06l0,0Z"/></g><path class="cls-13" d="M800.81,260.33c3.62,2.35,6,6,8.09,9.76s3.87,7.61,6.71,10.8a23.52,23.52,0,0,0,17.44,7.66c3.11,0,6.23-.64,9.32-.57,6.25,5.42,10,12.49,11.91,20.44-2.36-2.35-5.83-3.25-9.09-4.16-14-3.86-28-9.92-36.94-20.94-5.92-7.31-9.11-16.16-12.46-24.94A13.59,13.59,0,0,1,800.81,260.33Z"/></g><path class="cls-5" d="M835.36,298.44c-10.54-6.38-20.91-12.8-33.32-13.94a14.29,14.29,0,0,0-7.18.79c-.73.33-1.49.91-1.46,1.69a1.67,1.67,0,0,0,.38.93c1.06,1.43,3.05,1.87,4.86,2.16,12.46,2,25.6,2.53,36.65,8.41"/><path class="cls-5" d="M851.29,297.27a82.43,82.43,0,0,0-38.5-29.58c-3.31-1.26-6.85-2.33-10.39-1.92-1.33.15-3,1-2.63,2.25a2.21,2.21,0,0,0,.73,1,23,23,0,0,0,7.42,4,209.31,209.31,0,0,1,23.44,10.25,102.46,102.46,0,0,1,19.93,14"/><path class="cls-6" d="M805.45,268a202.52,202.52,0,0,1,19.73,8.55,84.08,84.08,0,0,1,9.08,5.43c3,2.1,6,4.38,8.81,6.7a32.91,32.91,0,0,1,4.06,3.58c1.17,1.32,2.19,2.75,3.4,4,.1.1,0,.26-.14.16-1-1.08-1.91-2.26-2.87-3.4a21,21,0,0,0-1.56-1.7c-.6-.56-1.27-1.07-1.91-1.59-2.84-2.32-5.7-4.61-8.69-6.75a103.89,103.89,0,0,0-18.83-10.36c-3.67-1.61-7.39-3.1-11.11-4.61V268Z"/><path class="cls-5" d="M852.54,293.87c-4.11-6.23-8.24-12.51-11.19-19.33-2.29-5.31-3.93-11.07-7.85-15.41a4.13,4.13,0,0,0-2.6-1.59,2.93,2.93,0,0,0-2.58,1.47,5.1,5.1,0,0,0-.6,2.94c.15,3.11,1.78,5.94,3.47,8.59,5.51,8.65,9.65,16.65,21.35,23.33"/><path class="cls-6" d="M832.33,264.19c4.07,8.08,8.37,16.15,14.22,23.19.84,1,1.7,2,2.6,2.95s1.89,1.88,2.83,2.83c.09.08,0,.22-.12.14a43.77,43.77,0,0,1-4.82-5,66.08,66.08,0,0,1-4.18-5.41A111.54,111.54,0,0,1,835.74,271c-1.19-2.26-2.34-4.54-3.48-6.83,0,0,0-.06.07,0Z"/><path class="cls-14" d="M1380.5,322.9c-4.89-17.17-22.18-54.75-41.83-52.58-22.65,2.5,22.21,43.52,22.21,43.52s-31.39-24.19-42.72-10.14,38.51,23,38.51,23-26.23-5.45-23.63,5,46.34,7.45,49.39,17.49S1383.85,334.68,1380.5,322.9Z"/><path class="cls-15" d="M1382.35,345c-4.29-18.22-12.1-35.89-23.5-50.78a105.43,105.43,0,0,0-14-15.11"/><path class="cls-15" d="M1382.06,345.33c-11.87-19.67-32.07-34-54.39-37.69"/><path class="cls-15" d="M1381.81,345.48c-10.74-8.73-24.38-13.23-38.07-14.2"/><path class="cls-14" d="M1387.48,322.08c4.89-17.18,22.19-54.75,41.83-52.59,22.66,2.5-22.2,43.53-22.2,43.53s31.38-24.2,42.71-10.15-38.51,23-38.51,23,26.23-5.45,23.63,5-46.33,7.44-49.39,17.49S1384.14,333.85,1387.48,322.08Z"/><path class="cls-15" d="M1385.64,344.18c4.29-18.22,12.09-35.88,23.49-50.78a106.59,106.59,0,0,1,14-15.11"/><path class="cls-15" d="M1385.92,344.5c11.87-19.67,32.08-34,54.4-37.69"/><path class="cls-15" d="M1386.18,344.65c10.74-8.73,24.37-13.23,38.07-14.2"/><path class="cls-14" d="M1371.85,305.5c-4.45-26.62-6.2-88,18.78-94.23,28.79-7.19-.59,72.11-.59,72.11s23.27-49.1,45.36-34.6-32.54,50.85-32.54,50.85,28.32-20.14,31.46-4.14-51.35,32.49-49,48.15S1374.89,323.75,1371.85,305.5Z"/><path class="cls-15" d="M1382.91,337.65c-5.79-27.81-7-56.51-2.22-83a149.43,149.43,0,0,1,7.83-28"/><path class="cls-15" d="M1383.44,338c2.48-33.46,18.19-63.36,42.88-79.11"/><path class="cls-15" d="M1383.84,338.06c7.69-17.44,21.41-30.27,37.33-38.14"/><path class="cls-16" d="M581.2,294.85c.55-6.24-8.31-4.33-11.59-2.4-6.39,3.77-16.35,15.79-18.36,19.66-.09-1.52-.22-3-.4-4.56-.33-2.83-.67-5.65-1-8.48,4.19-1.36,13.27-3.79,20.54-15.07,1.22-1.89,2.68-4.52,1.59-6.77-1.51-3.13-4.23-.68-5.92.92-2.88,2.73-12.09,12.77-16.64,17.2-.65-5.66-1.29-11.32-2-17,7.47-4.09,16.53-9.11,19.71-17.59,2.08-5.55-4.14-5.3-7.32-3.4-5.7,3.4-10.07,9.66-13,15.94-.33-2.66-.67-5.31-1-8-.07-.48-.13-1-.19-1.43,3.85-1.69,7.73-2.92,10.88-5.92a16.7,16.7,0,0,0,4.75-11.27c.1-1.85.5-4.08-.79-5.68-1.81-2.23-3.09.79-4,2.5A112.35,112.35,0,0,1,550,254.1c-1.28,1.86-2.43,3.65-3.5,5.56a16,16,0,0,1-1.23,1.73c-.54-3.77-1.16-7.55-1.85-11.3,5.17-5,11.38-11.13,12.07-18.74.45-5-4.56-3.4-6.73-1.13-3.36,3.52-5.43,8.55-6.57,13.6-.33-1.63-.68-3.26-1-4.88,4-7.45,9-16.62,7-25.36-1.28-5.55-6.22-2-7.81,1.28a28,28,0,0,0-2.52,10.6l-.6-2.17c-.49-1.73-1-3.42-1.65-5.09,4.23-5.86,9.34-13,8.68-20.65-.43-5-5.09-2.54-6.83.07-2.76,4.14-3.9,9.63-4.1,14.9-1.06-2.48-2.21-4.92-3.4-7.34,2.68-5.26,5.87-11.64,4.38-17.71-1-4-4.43-1.42-5.51.91a23,23,0,0,0-1.56,11.47c-1.35-2.63-2.7-5.26-4-7.92.33-2.64.45-5.45.51-7.89.06-2.89-.31-6.11-2.71-8.09-3.16-2.6-5.75-1.1-6.33,2.78a9.41,9.41,0,0,0,.69,5,8.06,8.06,0,0,0-4.16-1.53,2.79,2.79,0,0,0-2.64,1.14c-.75,1.2-.33,3.14.73,4.67,1.88,2.71,5.13,4.17,7.81,5.93a20.38,20.38,0,0,1,2.35,1.88c1,.94,2,1.93,3.06,2.79.89,1.73,1.78,3.46,2.65,5.21h0c-3.25-3.59-7.44-6.88-11.94-8-2.5-.6-6.66.5-4.15,3.75,4,5.21,11.56,6.57,17.5,7.79l.26-.19c.39.81.78,1.61,1.16,2.43l.07.12a109.17,109.17,0,0,1,5.14,12.82h0a19.38,19.38,0,0,0-3.87-3c-2.53-1.47-7.43-1.61-5.74,2.74,2.18,5.6,7.6,9.22,12.8,12.11,1.43,5.92,2.69,11.91,3.76,17.91-2.55-5.15-6.23-10.2-11-13-2.71-1.57-8-1.72-6.15,2.95,2.91,7.49,11.25,11.68,17.77,15.16l.2-.06h0c.46,2.82.87,5.66,1.25,8.48.18,1.39.36,2.78.53,4.17h0c-3.34-7-8.17-14.1-14.31-18-3.5-2.22-10.25-2.52-7.84,4,3.85,10.37,14.55,16.3,23,21.22h0c.45,3.95.86,7.91,1.29,11.86-5.08-5.32-14.93-17-18.43-20.45-1.63-1.64-5.89-5-7.56-1.46-.92,2,.84,6.15,2,7.9,2.46,3.9,15.32,14.32,24.73,20.11h0c.33,2.81.67,5.61,1.06,8.41.14,1,.26,2.07.37,3.1-6.83-8.53-21.26-24.28-26.11-26.66-2.47-1.21-6.81-2.56-8.68.27s2,6.48,3.54,8.77c3.57,5.28,20,16.68,23.39,18.35,2.59,1.29,5.57,2.07,8.18,3.2a.29.29,0,0,1,0,.13c.15,2.33.22,4.63.22,6.93l-.44-.28c-7.5-4.88-22.8-16.22-28-19.44-2.42-1.49-8.46-4.36-9.47.38-.54,2.62,2.75,7.13,4.57,8.91,3.76,3.71,20,11.67,32.59,16.21l.69.23c-.23,7.48-.82,14.93-1,22.65-.06,2.33,3.57,2.63,3.62.29.26-11.15,1.69-21.91,1.2-32.95C564.07,310.91,581,297.68,581.2,294.85Z"/><path class="cls-17" d="M592.14,332c3.19-3.36-2.82-6.34-5.61-6.73-5.44-.76-16.74,1.61-19.69,2.93.65-.92,1.27-1.86,1.88-2.83,1.11-1.79,2.22-3.58,3.34-5.35a25.42,25.42,0,0,0,18.84.74c1.58-.54,3.63-1.39,4-3.19.57-2.51-2.14-2.35-3.85-2.2-2.93.26-12.89,1.82-17.56,2.3,2.23-3.58,4.47-7.15,6.68-10.74,6.22,1.08,13.77,2.34,19.52-1.11,3.76-2.25,0-5-2.67-5.33-4.87-.66-10.28.95-14.88,3.24,1-1.7,2.07-3.39,3.09-5.09.18-.3.36-.61.55-.91,3,.79,5.82,1.87,9,1.58a12.3,12.3,0,0,0,7.94-4.34c.92-1,2.18-2.13,2.16-3.65,0-2.12-2.15-1-3.46-.4a85.66,85.66,0,0,1-8.63,3.16c-1.6.49-3.09,1-4.59,1.61a11.3,11.3,0,0,1-1.51.43c1.43-2.43,2.81-4.89,4.14-7.4,5.3-.52,11.72-1.19,15.62-5.28,2.56-2.69-1.08-4.07-3.38-3.75A21.29,21.29,0,0,0,593,284.53c.55-1.09,1.1-2.2,1.64-3.3,5.73-2.49,12.87-5.48,15.72-11.47,1.81-3.81-2.7-4-5.11-2.86a20.58,20.58,0,0,0-6.35,5c.22-.51.44-1,.65-1.54.52-1.23,1-2.46,1.4-3.7,5.14-1.45,11.39-3.23,14.53-8,2-3.09-1.77-3.82-4-3.11-3.5,1.13-6.69,3.78-9.23,6.74q.79-2.9,1.41-5.82c4-1.81,8.76-4,10.7-8.23,1.26-2.76-1.92-2.87-3.62-2a17,17,0,0,0-6.18,5.92c.43-2.15.85-4.29,1.31-6.44,1.41-1.38,2.77-2.95,3.93-4.34,1.37-1.64,2.64-3.68,2.16-5.93-.63-3-2.82-3.28-5-1.31a7,7,0,0,0-1.91,3.23,6,6,0,0,0-1.7-2.8,2.07,2.07,0,0,0-2.06-.55c-1,.34-1.64,1.66-1.73,3-.16,2.43,1,4.77,1.79,7a13.36,13.36,0,0,1,.49,2.17c.16,1,.28,2,.49,3-.28,1.42-.57,2.83-.86,4.24h0c-.23-3.57-1.14-7.41-3.24-10.12-1.17-1.5-4.09-2.78-4.13.26-.07,4.87,3.67,9.13,6.54,12.57h.3c-.14.65-.29,1.29-.44,1.94v.1a81.17,81.17,0,0,1-2.93,9.8h0a14.16,14.16,0,0,0-.86-3.52c-.78-2-3.56-4.35-4.58-1-1.32,4.24.15,8.84,1.83,12.9-1.9,4.09-3.93,8.14-6.07,12.11.89-4.15,1.09-8.78-.38-12.55-.85-2.16-3.82-4.67-4.92-1.13-1.77,5.68,1.13,11.95,3.3,17l.15.05h0q-1.56,2.77-3.18,5.49L581.28,300h0c1.37-5.7,1.84-12,.08-17.12-1-2.9-4.77-6.18-6.37-1.31-2.55,7.77.92,16.14,3.53,22.86h0l-4.72,7.46c-.49-5.42-.83-16.7-1.25-20.33-.19-1.7-1.09-5.63-3.7-4.33-1.45.72-2.35,4-2.51,5.47-.37,3.39,2.27,15.35,5,23h0q-1.67,2.66-3.27,5.35c-.39.67-.8,1.32-1.21,2,0-8.08-1.12-23.85-2.83-27.46-.88-1.84-2.77-4.62-5.16-3.84s-1.83,4.67-2,6.71c-.36,4.7,3.93,18.89,5.09,21.39.91,2,2.27,3.77,3.27,5.63l-.06.08q-1.49,2.12-3.06,4.11a1.49,1.49,0,0,0-.13-.37c-2.1-6.28-5.73-19.89-7.26-24.16-.72-2-2.9-6.42-5.66-4.14-1.53,1.27-1.7,5.39-1.46,7.26.47,3.89,6.18,16,11.4,24.4l.29.46c-3.57,4.22-7.35,8.26-11,12.65-1.11,1.32.86,3.17,2,1.84,5.28-6.34,11.06-11.91,15.87-18.53C574.82,333.41,590.69,333.52,592.14,332Z"/><g class="cls-7"><path class="cls-8" d="M545.86,333c.86-9.08.42-18.39-2.32-27.09s-7.89-16.79-15.27-22.15a72.12,72.12,0,0,0-8.72-5.16c-7.71-4.09-15.43-8.18-23.29-12-6.15-3-12.59-5.91-17.09-11.07a129.92,129.92,0,0,0,6.72,23.62,54.72,54.72,0,0,0,7,13.27c4.59,6,11,10.4,17,15a191.56,191.56,0,0,1,19.8,17.42,42.49,42.49,0,0,0,6,5.45,19.3,19.3,0,0,0,9.95,3.36"/><g class="cls-9"><path class="cls-10" d="M508,291.41A110.37,110.37,0,0,1,526.88,296a44.94,44.94,0,0,1,14.7,8.47c.76.68,1.48,1.4,2.16,2.14A69.54,69.54,0,0,1,545.85,333l-.2.67a19.42,19.42,0,0,1-9.95-3.36,42.49,42.49,0,0,1-6-5.45,191.56,191.56,0,0,0-19.8-17.42c-6-4.61-12.46-9-17-15a38.71,38.71,0,0,1-2.69-4.11c2.85.27,5.66.87,8.48,1.42C501.76,290.32,504.9,290.85,508,291.41Z"/></g><g class="cls-11"><path class="cls-10" d="M486.57,267.65c6.34,9.57,16,16.27,25,23.06a137,137,0,0,1,13,10.67A89.08,89.08,0,0,1,536.07,315a85.43,85.43,0,0,1,9.6,18.21c.12.33-.36.59-.49.26a90.07,90.07,0,0,0-19.86-30.55c-8.05-8.05-17.78-14.07-26.45-21.4a63.23,63.23,0,0,1-12.48-13.74c-.07-.11.11-.2.18-.09Z"/></g></g><g class="cls-7"><path class="cls-8" d="M547.27,348.74c-4.13-9.66-10.34-17.78-19.37-23.14-5.64-3.35-11.9-5.57-17.36-9.2-8.65-5.74-14.69-14.62-22.55-21.4-10.61-9.15-24.08-14.15-37.23-19,15.17,14.76,21.17,37.22,36.88,51.41,12.91,11.66,30.73,16.2,48,18.07,4,.44,8.32.84,11.61,3.23"/><g class="cls-12"><path class="cls-10" d="M460.47,283.64c12.69,5.37,21.6,16.35,30.64,26.29a106.94,106.94,0,0,0,15.17,14.38,48.56,48.56,0,0,0,8.94,5.31c3.54,1.59,7.32,2.61,10.91,4.1a60.07,60.07,0,0,1,20.65,14c.24.25-.16.58-.41.34a66.23,66.23,0,0,0-18.92-13.16c-3.54-1.59-7.26-2.64-10.85-4.1a46.32,46.32,0,0,1-8.63-4.65c-11.3-7.67-19.3-19.09-28.81-28.68C473.67,292,467.58,287,460.4,283.82a.11.11,0,0,1,0-.14A.1.1,0,0,1,460.47,283.64Z"/></g><path class="cls-13" d="M473.9,300.92c4.77,2.13,8.42,6.15,11.64,10.28s6.2,8.52,10.24,11.84a27.74,27.74,0,0,0,22.19,5.8c3.66-.66,7.19-2.06,10.85-2.6,8.53,5.36,14.46,13.24,18.44,22.56-3.29-2.39-7.57-2.78-11.61-3.22-17.29-1.88-35.11-6.42-48-18.07-8.55-7.73-14.23-17.9-20.07-27.95A15.81,15.81,0,0,1,473.9,300.92Z"/></g><path class="cls-18" d="M522.83,340.47c-13.79-5.66-27.39-11.39-42.26-10.25-2.9.22-5.9.75-8.28,2.43-.79.55-1.56,1.42-1.36,2.36a2.13,2.13,0,0,0,.65,1.06c1.56,1.54,4,1.66,6.2,1.65,15.1-.09,30.69-2.13,45,2.81"/><path class="cls-6" d="M480,333.77a33.45,33.45,0,0,1,8,0c2.87.21,5.75.46,8.62.8,5.8.68,11.53,1.88,17.26,3a45,45,0,0,1,9,2.82c.16.07.08.32-.07.25a42.54,42.54,0,0,0-7.78-2.59c-2.88-.61-5.78-1.16-8.67-1.73a145.21,145.21,0,0,0-17-2.29,41.29,41.29,0,0,0-9.23-.15c-.08,0-.11-.11,0-.12Z"/><path class="cls-18" d="M541.33,335.78a99.6,99.6,0,0,0-51.73-28.31c-4.17-.86-8.56-1.45-12.65-.23-1.53.45-3.28,1.85-2.61,3.3a2.8,2.8,0,0,0,1.08,1.08c2.85,1.88,6.27,2.63,9.6,3.36,10,2.18,20.11,4.35,29.81,7.75a123.43,123.43,0,0,1,26.5,13"/><path class="cls-6" d="M481,309.38a235,235,0,0,1,25.07,6.42A100.61,100.61,0,0,1,518,320.58c4,1.95,8,4.15,11.82,6.41a40.24,40.24,0,0,1,5.56,3.54c1.66,1.37,3.17,2.92,4.87,4.24.13.1,0,.33-.13.23-1.44-1.11-2.74-2.38-4.11-3.57a23.36,23.36,0,0,0-2.21-1.76c-.83-.57-1.73-1.05-2.6-1.56-3.84-2.25-7.7-4.47-11.68-6.47a123.31,123.31,0,0,0-24.42-8.84c-4.66-1.22-9.37-2.28-14.07-3.36,0,0,0-.07,0-.06Z"/><path class="cls-18" d="M542.07,331.37c-6.19-6.78-12.41-13.61-17.35-21.35-3.85-6-7-12.74-12.58-17.24a4.93,4.93,0,0,0-3.41-1.41,3.43,3.43,0,0,0-2.72,2.32,6.63,6.63,0,0,0-.07,3.72c.85,3.77,3.38,6.9,5.94,9.79,8.36,9.45,15,18.39,30.19,24.17"/><path class="cls-6" d="M511.85,299.2c6.54,9.05,13.35,18,21.76,25.46,1.2,1.06,2.44,2.09,3.71,3.07s2.63,1.92,3.94,2.88c.12.09,0,.28-.12.2a53.1,53.1,0,0,1-6.75-5.1c-2.12-1.82-4.16-3.74-6.09-5.76a142.4,142.4,0,0,1-10.95-13.07q-2.83-3.78-5.57-7.63c-2.74-3.85,0-.09.07-.05Z"/><path class="cls-14" d="M1131.38,299.75c7-15.46,14.18-30.69,13.27-47.55-.18-3.29-.72-6.7-2.62-9.44-.63-.91-1.63-1.81-2.74-1.61a2.64,2.64,0,0,0-1.27.71c-1.85,1.73-2.07,4.48-2.11,7-.34,17.1,1.62,34.8-4.6,50.82"/><path class="cls-6" d="M1140.75,245.88a37.13,37.13,0,0,1,.13,9c-.19,3.27-.43,6.53-.78,9.78-1.34,12.76-1,7.83-3.23,19.6a50,50,0,0,1-3.17,10.2c-.07.17-.37.1-.29-.08a47.52,47.52,0,0,0,2.91-8.85c.66-3.28,1.26-6.57,1.89-9.85a159.09,159.09,0,0,0,2.38-19.34c.22-3.46.61-7,0-10.46,0-.08.12-.12.14,0Z"/><path class="cls-18" d="M1129.91,303a111.92,111.92,0,0,0,34.79-57.78c1.13-4.7,1.94-9.65.63-14.31-.49-1.74-2.08-3.76-3.81-3a3.2,3.2,0,0,0-1.3,1.2c-2.29,3.17-3.28,7-4.23,10.77-2.85,11.31-5.69,22.65-10,33.53A138,138,0,0,1,1129.91,303"/><path class="cls-6" d="M1162.7,235.41a261,261,0,0,1-8.28,28.22,111.77,111.77,0,0,1-6,13.3c-2.4,4.52-5.1,8.89-7.86,13.21a45,45,0,0,1-4.34,6.19c-1.66,1.85-3.51,3.52-5.12,5.41-.12.14-.39,0-.26-.16,1.34-1.6,2.87-3,4.31-4.55a27.48,27.48,0,0,0,2.13-2.45c.7-.93,1.29-1.93,1.91-2.91,2.76-4.28,5.48-8.59,8-13a136.2,136.2,0,0,0,11.09-27.4c1.57-5.25,3-10.55,4.36-15.84h.08Z"/><path class="cls-14" d="M1135.08,303.91c8.15-6.82,16.36-13.68,25.61-19.05,7.2-4.19,15.18-7.6,20.63-13.77a5.51,5.51,0,0,0,1.77-3.82,4,4,0,0,0-2.66-3.14,8.15,8.15,0,0,0-4.38-.18c-4.45.86-8.2,3.64-11.68,6.45-11.36,9.21-22.06,16.43-29.29,33.51"/><path class="cls-6" d="M1173.78,270.59c-10.83,7.15-21.6,14.62-30.56,23.93q-1.93,2-3.73,4.11c-1.21,1.43-2.32,2.93-3.5,4.38-.1.14-.33,0-.23-.14a61.88,61.88,0,0,1,6.2-7.5c2.19-2.35,4.52-4.6,6.94-6.74a169,169,0,0,1,15.69-12c3-2.07,6.07-4.09,9.14-6.09,0,0,.1,0,0,.08Z"/><g class="cls-11"><path d="M884.32,159.58a11.59,11.59,0,0,1-4.35-2.4,1.85,1.85,0,0,1-.59-1.39,1.59,1.59,0,0,1,.31-1,1,1,0,0,1,.76-.41,1.9,1.9,0,0,1,1.11.43A13.4,13.4,0,0,0,890,157.7a8.83,8.83,0,0,0,5.24-1.32,4.3,4.3,0,0,0,1.83-3.73,3,3,0,0,0-.87-2.25,6.33,6.33,0,0,0-2.31-1.37A35.51,35.51,0,0,0,890,148a36.82,36.82,0,0,1-5.35-1.59A8.31,8.31,0,0,1,881.3,144a6.11,6.11,0,0,1-1.29-4,7.2,7.2,0,0,1,1.29-4.23,8.34,8.34,0,0,1,3.62-2.86,13.1,13.1,0,0,1,5.31-1,15.34,15.34,0,0,1,5.18.86,10.91,10.91,0,0,1,4,2.44,2,2,0,0,1,.63,1.39,1.59,1.59,0,0,1-.31,1,1,1,0,0,1-.76.41,2.38,2.38,0,0,1-1.15-.43,13.51,13.51,0,0,0-3.62-2.23,11.35,11.35,0,0,0-4-.64A8.37,8.37,0,0,0,885.1,136a4.51,4.51,0,0,0-1.83,3.83,3.52,3.52,0,0,0,1.61,3.16,16.23,16.23,0,0,0,5,1.85,58.84,58.84,0,0,1,5.68,1.61,8.46,8.46,0,0,1,3.44,2.2,5.55,5.55,0,0,1,1.37,3.94A6.87,6.87,0,0,1,899,156.7a8.35,8.35,0,0,1-3.64,2.78,13.48,13.48,0,0,1-5.36,1A18.1,18.1,0,0,1,884.32,159.58Z"/><path d="M906.06,159.72a1.52,1.52,0,0,1-.45-1.15V133.73a1.52,1.52,0,0,1,.45-1.15,1.71,1.71,0,0,1,1.22-.44h14.86a1.58,1.58,0,0,1,1.11.36,1.44,1.44,0,0,1,0,2,1.62,1.62,0,0,1-1.11.35H908.83v9.74h12.52a1.61,1.61,0,0,1,1.11.36,1.44,1.44,0,0,1,0,2,1.66,1.66,0,0,1-1.11.35H908.83v10.18h13.31a1.62,1.62,0,0,1,1.11.34,1.23,1.23,0,0,1,.4,1,1.25,1.25,0,0,1-.4,1,1.58,1.58,0,0,1-1.11.36H907.28A1.71,1.71,0,0,1,906.06,159.72Z"/><path d="M950.4,159.05a1.18,1.18,0,0,1-.46,1,1.59,1.59,0,0,1-1.05.38,1.62,1.62,0,0,1-1.43-.8l-5.33-8.42a6.39,6.39,0,0,0-2.14-2.25,6.3,6.3,0,0,0-3-.61h-5v10.37a1.68,1.68,0,0,1-.44,1.21,1.51,1.51,0,0,1-1.15.46,1.54,1.54,0,0,1-1.19-.46,1.64,1.64,0,0,1-.44-1.21v-25a1.49,1.49,0,0,1,.46-1.15,1.66,1.66,0,0,1,1.21-.44h9.85q4.57,0,7,2a7.36,7.36,0,0,1,2.4,6,7.46,7.46,0,0,1-1.92,5.36,8.75,8.75,0,0,1-5.51,2.47,4.81,4.81,0,0,1,1.79,1,9.34,9.34,0,0,1,1.59,2l4.53,7.15A1.68,1.68,0,0,1,950.4,159.05ZM940,145.61a7.42,7.42,0,0,0,4.86-1.35,5,5,0,0,0,1.61-4.09,4.93,4.93,0,0,0-1.59-4,7.61,7.61,0,0,0-4.88-1.31h-8v10.77Z"/><path d="M976.73,132.1a1.47,1.47,0,0,1,.81-.24,1.71,1.71,0,0,1,1.14.42,1.28,1.28,0,0,1,.49,1,1.35,1.35,0,0,1-.16.64l-11.4,25.36a1.73,1.73,0,0,1-.72.79,2,2,0,0,1-1,.28,1.94,1.94,0,0,1-1-.28,1.73,1.73,0,0,1-.72-.79l-11.37-25.36a1.69,1.69,0,0,1-.12-.6,1.32,1.32,0,0,1,.52-1.05,1.77,1.77,0,0,1,1.15-.42,1.45,1.45,0,0,1,1.39.92L965.94,156l10.21-23.17A1.56,1.56,0,0,1,976.73,132.1Z"/><path d="M983.51,159.9a1.64,1.64,0,0,1-.44-1.21V133.61a1.64,1.64,0,0,1,.44-1.21,1.77,1.77,0,0,1,2.38,0,1.68,1.68,0,0,1,.44,1.21v25.08a1.68,1.68,0,0,1-.44,1.21,1.77,1.77,0,0,1-2.38,0Z"/><path d="M998.25,158.75a11.45,11.45,0,0,1-4.47-5,19.33,19.33,0,0,1,0-15.26,11.45,11.45,0,0,1,4.47-5,13.21,13.21,0,0,1,6.88-1.73,14.63,14.63,0,0,1,5,.86,12.24,12.24,0,0,1,4.12,2.44,1.86,1.86,0,0,1,.63,1.39,1.59,1.59,0,0,1-.31,1,1,1,0,0,1-.76.41,2.22,2.22,0,0,1-1.15-.43,14.72,14.72,0,0,0-3.68-2.23,10.56,10.56,0,0,0-3.79-.64,8.7,8.7,0,0,0-7.1,3q-2.48,3-2.48,8.53c0,3.71.83,6.56,2.48,8.57a8.7,8.7,0,0,0,7.1,3,10.6,10.6,0,0,0,3.77-.64,14.62,14.62,0,0,0,3.7-2.23,2.22,2.22,0,0,1,1.15-.43,1,1,0,0,1,.76.4,1.52,1.52,0,0,1,.31,1,1.86,1.86,0,0,1-.63,1.39,12.24,12.24,0,0,1-4.12,2.44,14.63,14.63,0,0,1-5,.86A13.21,13.21,0,0,1,998.25,158.75Z"/><path d="M1020.61,159.72a1.49,1.49,0,0,1-.46-1.15V133.73a1.49,1.49,0,0,1,.46-1.15,1.66,1.66,0,0,1,1.21-.44h14.86a1.62,1.62,0,0,1,1.12.36,1.46,1.46,0,0,1,0,2,1.67,1.67,0,0,1-1.12.35h-13.31v9.74h12.52a1.59,1.59,0,0,1,1.11.36,1.44,1.44,0,0,1,0,2,1.64,1.64,0,0,1-1.11.35h-12.52v10.18h13.31a1.67,1.67,0,0,1,1.12.34,1.25,1.25,0,0,1,.39,1,1.28,1.28,0,0,1-.39,1,1.62,1.62,0,0,1-1.12.36h-14.86A1.66,1.66,0,0,1,1020.61,159.72Z"/><path d="M1046.12,159.58a11.59,11.59,0,0,1-4.35-2.4,1.82,1.82,0,0,1-.6-1.39,1.6,1.6,0,0,1,.32-1,.94.94,0,0,1,.76-.41,1.93,1.93,0,0,1,1.11.43,13.38,13.38,0,0,0,8.43,2.87,8.87,8.87,0,0,0,5.24-1.32,4.3,4.3,0,0,0,1.83-3.73,3,3,0,0,0-.87-2.25,6.5,6.5,0,0,0-2.31-1.37,35.13,35.13,0,0,0-3.86-1.07,36.64,36.64,0,0,1-5.34-1.59,8.31,8.31,0,0,1-3.38-2.39,6.11,6.11,0,0,1-1.29-4,7.2,7.2,0,0,1,1.29-4.23,8.34,8.34,0,0,1,3.62-2.86,13.08,13.08,0,0,1,5.3-1,15.36,15.36,0,0,1,5.19.86,10.87,10.87,0,0,1,4,2.44,1.93,1.93,0,0,1,.64,1.39,1.6,1.6,0,0,1-.32,1,.93.93,0,0,1-.75.41,2.45,2.45,0,0,1-1.16-.43,13.33,13.33,0,0,0-3.61-2.23,11.41,11.41,0,0,0-4-.64,8.31,8.31,0,0,0-5.12,1.38,4.51,4.51,0,0,0-1.83,3.83,3.5,3.5,0,0,0,1.61,3.16,16.23,16.23,0,0,0,5,1.85,58.84,58.84,0,0,1,5.68,1.61,8.53,8.53,0,0,1,3.44,2.2,5.59,5.59,0,0,1,1.37,3.94,6.87,6.87,0,0,1-1.29,4.13,8.41,8.41,0,0,1-3.64,2.78,13.5,13.5,0,0,1-5.37,1A18.09,18.09,0,0,1,1046.12,159.58Z"/></g></g></g></svg>
