<svg xmlns="http://www.w3.org/2000/svg" viewBox="0 0 1112.36 863.04"><defs><style>.cls-1{fill:#eeedef;}.cls-2{fill:#f9f7f4;}.cls-3{fill:#ff7133;}.cls-4{fill:#fd941f;}.cls-5{fill:#283045;}.cls-6{fill:#ffaeab;}.cls-7{fill:#fbbd48;}.cls-8{fill:#0fa8ba;}.cls-32,.cls-9{fill:none;stroke-miterlimit:10;}.cls-9{stroke:#fff6f3;stroke-width:1.74px;}.cls-10{fill:#ffd6cf;}.cls-11{fill:#ff8c35;}.cls-12{fill:#fffdfa;}.cls-13{fill:#f4952f;}.cls-14{fill:#1bbfbf;}.cls-15{fill:#364056;}.cls-16{fill:#3e485b;}.cls-17{fill:#fa968c;}.cls-18{fill:#ef7726;}.cls-19{fill:#ef6e4b;}.cls-20{fill:#fff;}.cls-21{fill:#455a64;}.cls-22{fill:#b9c1c7;}.cls-23{fill:#e8505b;}.cls-24{fill:#edbc4f;}.cls-25{fill:#e8792e;}.cls-26{fill:#dce0e3;}.cls-27{fill:#3c475b;}.cls-28{fill:#e5e3e8;}.cls-29{fill:#db6412;}.cls-30{fill:#11393d;}.cls-31{fill:#1a4850;}.cls-32{stroke:#fff;stroke-linecap:round;stroke-width:1.09px;}.cls-33{fill:#b5b5b5;opacity:0.6;}.cls-34{fill:#ffb301;}.cls-35{fill:#d5d4d8;}</style></defs><title>our services</title><g id="Layer_2" data-name="Layer 2"><g id="Layer_1-2" data-name="Layer 1"><rect class="cls-1" x="19.95" y="637.65" width="1092.41" height="3.9"/><rect class="cls-1" x="129.75" y="82.12" width="779.93" height="489.63" rx="31.27"/><rect class="cls-2" x="161.05" y="119.17" width="718.34" height="410.48"/><rect class="cls-1" x="175.95" y="144" width="705.12" height="24"/><path class="cls-3" d="M543.07,168.68l-12.27,7.16s-23.5-32.71-30.66-54.17,8.18-48,8.18-48-10.22,9.19-18.4,6.13-18.4-10.22-18.4-10.22H446L425.53,12.32S482.77-1,514.45,3.12s68.57,30.94,87.89,48c26.57,23.51,58.26,77.68,58.26,77.68L647.31,137s-41.9-61.32-71.54-68.47-55.19,40.88-55.19,40.88Z"/><polygon class="cls-4" points="388.49 40.42 361.54 82.14 415.12 82.14 388.49 40.42"/><path class="cls-5" d="M565.55,78.75S587,65.46,578.84,51.15,553.29,37.87,550.22,25.6,533.87-1,513.43.05s-28.62,15.33-36.8,9.2S441.89-1,437.8,24.58s24.53,37.81,37.81,31.68S496.05,38.89,505.25,45,526.71,80.79,541,75.68A26.49,26.49,0,0,1,565.55,78.75Z"/><path class="cls-6" d="M555.33,65.46s-1.27-10.4-9.45-8.36-.83,10.76-.83,10.76L544.22,79s-1.15,20.16,13.15,21.18c16.36-9.2,18.4-31.68,18.4-31.68S562.48,73.64,555.33,65.46Z"/><polygon class="cls-1" points="629.86 105.62 494.23 220.55 593.38 336.98 729.21 224.93 629.86 105.62"/><path class="cls-6" d="M653.26,133.34l1.21,12.86,3.06-6.9s5.37,18.4,10,17.63-6.9-28.1-6.9-28.1Z"/><path class="cls-7" d="M425.53,12.32s-34.74,6.64-37,28.1S400,69.55,400,69.55l13.8,26.06L340.2,104,344.79,124s85.09.77,93.52-2.3,13-14.56,14.56-24.53-2.81-29.64-2.81-29.64Z"/><path class="cls-8" d="M333,105.32s-9.2-1.53-11.75,1.53A28.39,28.39,0,0,0,317.2,114l4.09.51s-8.69,17.37-10.22,21,6.13-.51,10.73-3.58,13.29-13.28,13.29-13.28Z"/><path class="cls-6" d="M320.42,124.51l11.34-19.7,8.44-.77,4.59,13-10,.77-12.33,8.58A1.45,1.45,0,0,1,320.42,124.51Z"/><path class="cls-6" d="M553.77,180.75l-10.55-11.54-12,7.1s17.23,22.16,20.25,20.54c5.53-3-3.39-17.24-3.39-17.24Z"/><polygon class="cls-1" points="540.67 560.11 638.73 716.87 442.61 716.87 540.67 560.11"/><rect class="cls-7" x="52.8" y="23.91" width="204.25" height="140.86" rx="4.51"/><rect class="cls-9" x="52.8" y="23.91" width="204.25" height="140.86" rx="4.51"/><rect class="cls-10" x="2.44" y="49.19" width="204.25" height="140.86" rx="4.51"/><rect class="cls-8" x="2.44" y="49.19" width="204.25" height="140.86" rx="4.51"/><rect class="cls-11" x="57.25" y="115.22" width="15.2" height="44.93"/><rect class="cls-11" x="84.13" y="96.24" width="15.2" height="63.91"/><rect class="cls-12" x="111.01" y="82.96" width="15.2" height="77.19"/><rect class="cls-12" x="137.89" y="132.59" width="15.2" height="27.56"/><path class="cls-12" d="M170.69,161.56H42a1.22,1.22,0,0,1-1.22-1.22V83.78a1.22,1.22,0,0,1,2.43,0v75.35H170.69a1.22,1.22,0,0,1,0,2.43Z"/><path class="cls-6" d="M190.91,475.78c-21.7,12-22,29.25-26.55,41.66S152.25,544.09,150.74,552s42.69,57.22,42.69,57.22l2.42-11.39s-16.95-33.42-27.55-42.5l17.56-36.64Z"/><path class="cls-13" d="M194.35,460.07c-11.41,5.33-21.4,16.23-29.88,45.3,0,0,3.94,18,20.44,11.29S194.35,460.07,194.35,460.07Z"/><path class="cls-14" d="M294.72,659.6l26.94-92.89-171.73-50-25.61,86.57c-.84,2.82,1.09,5.88,4.3,6.83Z"/><path class="cls-6" d="M250,445.7s44.36,29.06,50.11,48.91-8.48,15.6-16.35,8.94-42.58-54.19-42.58-54.19Z"/><path class="cls-6" d="M250.62,440c0,8.64-1.67,16.28-7.06,12.63s-5.67-11.57,1.9-19.87C245.46,432.73,250.62,436.49,250.62,440Z"/><path class="cls-8" d="M215.89,856.55v-4.27c0-4.91,4.59-13.84,4.59-17.11s12.68,2.66,12.68,2.66a15.8,15.8,0,0,0,4.36,9.54,12.11,12.11,0,0,1,3.08,9.18Z"/><path class="cls-8" d="M302.46,856.55l-2.19-1-1,1h-8.37c-.83-2.41-3.66-11.56-1.11-17.91,3-7.37,12.15-5.4,12.15-5.4s6.23,8.69,9.83,10.24,17.37,7.13,19,10.73c.49,1.08-.34,1.81-.1,2.34Z"/><path class="cls-15" d="M306.15,836.33s-2.76,4.49-18.42,2.13L239.5,636.75a1.35,1.35,0,0,0-1.29-.89,1.29,1.29,0,0,0-.51.1h0a1.35,1.35,0,0,0-.86,1.22c-.56,15.21-5.43,61.71-2.81,201.93,0,0-8.23,4.53-17,0,0,0-31.08-207.4-23.92-247.11l19.26-2.34,62-7.58C279.1,651,292.07,741.33,306.15,836.33Z"/><path class="cls-16" d="M306.15,836.33s-2.76,4.49-18.42,2.13L239.5,636.75c-.62-.24-1.22-.51-1.8-.79h0c-20.21-9.41-24.47-34.93-25.36-46.3l62-7.58C279.1,651,292.07,741.33,306.15,836.33Z"/><path class="cls-6" d="M240.72,418.84s11.39-2.89,11-.13-10.16,3.66-10.16,3.66A3.69,3.69,0,0,1,240.72,418.84Z"/><path class="cls-17" d="M244.34,395.14c-5.05-12.12-32.5,1.13-33.26,9.66s1.89,35.31,21.21,37.71C252.5,445,248.93,406.16,244.34,395.14Z"/><path class="cls-17" d="M236.55,423.83s6.45,15.34-.61,18.66S213.56,423.7,236.55,423.83Z"/><path class="cls-17" d="M235.11,439.41a134.55,134.55,0,0,0,.31,20.4s-6,6.91-21.37-3.61c0,0,3.07-16.48,1-23.75l1.3-1.71A17.07,17.07,0,0,1,235.11,439.41Z"/><path class="cls-5" d="M247.91,385.24s-.49,2.17-1.93,2.52c-5.51,1.33-13.21-1.67-22.67-.91-37.3,3-18.44,44.24-8.22,45.6,16.31,2.18,21.46-8.62,21.46-8.62-1.72-2.59-1.26-10.75,1.68-10.61a2.76,2.76,0,0,1,3,2.63c3-9,2.85-14.75,2.38-17.77C255.15,395.43,247.91,385.24,247.91,385.24Z"/><path class="cls-18" d="M279.1,546.22s1-78-19-87.78c-22.12-10.84-59.85-5.36-73,6.31-11.38,10.12,2.39,75.47,2.73,99.41s-1.36,30.58-1.36,30.58,7.72,6.21,33.6,6.21c32.31,0,55.67-11,55.67-11Z"/><path class="cls-19" d="M289.23,509.85h-.07a5.75,5.75,0,0,1,.46.64Z"/><path class="cls-13" d="M240.41,451.2s-13.24-7.59-28.33-4.94l-5.87,9s1,3.9,35-1.46Z"/><path class="cls-17" d="M263.9,461.33c-11.2-5.66-15.25,8.82-10.26,22.9S301.44,522,301.44,503C301.44,493.74,283.7,471.34,263.9,461.33Z"/><path class="cls-17" d="M249.09,442.39a8.68,8.68,0,0,0,.91-3.78c0-2.12-2.81-5.8-2.81-5.8s-1.9-1-1.4,3.84c.24,2.38-2.9,6.11-3.21,10.39s2.88,8,4.85,5.56S249.09,442.39,249.09,442.39Z"/><path class="cls-13" d="M253.18,460.07s10.85-8.85,39,21.25c0,0,4.57,21.52-10.57,27.78,0,0-14.23-4.94-20.29-9.48S244.4,472,253.18,460.07Z"/><path class="cls-6" d="M184.48,623.45l-1.5,2.17s-.39-4.5-.87-5.07-2-2.87-2-2.87-1.92.52-1,2.22.35,4.66.35,4.66-.86-2.76-1.73-3.2a32.22,32.22,0,0,1-2.86-1.88s-1.28.4-.17,1.76a1.14,1.14,0,0,1,.22.41c.51.49,1,1.08,1,1.42,0,.63.39,3,1.34,3.65s1.75-.45,1.75-.45a2.22,2.22,0,0,0,1.16,2.11,2.09,2.09,0,0,0,2.39-.63s.5,2,1.85,1.87S186.5,628,186.5,628a2.41,2.41,0,0,0,1.59,1.75,3.21,3.21,0,0,0,2.11-.24,7.67,7.67,0,0,0,.82-2.55c.09-2-1.93-7-1.93-7s-2.44.13-1.64,1.8a4.62,4.62,0,0,1-.49,4.94l.15-3.91-1.56-4.59s-2.21.49-2,1.58S184.48,623.45,184.48,623.45Z"/><path class="cls-1" d="M952.62,671.17l-153.36-.71A33.4,33.4,0,0,1,766,636.91l1.63-384.47a33.41,33.41,0,0,1,33.56-33.27l153.36.71a33.41,33.41,0,0,1,33.25,33.55l-1.63,384.48A33.39,33.39,0,0,1,952.62,671.17Z"/><path class="cls-20" d="M954.34,233.15,924.6,233a7.4,7.4,0,0,0-7.25,7.52l0,5.39a7.39,7.39,0,0,1-7.25,7.52l-58-.27a7.39,7.39,0,0,1-7.19-7.58l0-5.4a7.41,7.41,0,0,0-7.19-7.58l-10.46-.05-26-.12a23.41,23.41,0,0,0-23.51,23.3L776.2,631a23.39,23.39,0,0,0,23.28,23.49l153.06.71a23.4,23.4,0,0,0,23.5-23.3l1.59-375.27A23.4,23.4,0,0,0,954.34,233.15Z"/><path class="cls-21" d="M870.21,607.86a3.21,3.21,0,1,1-3.21-3.21A3.21,3.21,0,0,1,870.21,607.86Z"/><path class="cls-21" d="M882.41,607.86a3.21,3.21,0,1,1-3.21-3.21A3.21,3.21,0,0,1,882.41,607.86Z"/><path class="cls-21" d="M894.61,607.86a3.21,3.21,0,1,1-3.21-3.21A3.21,3.21,0,0,1,894.61,607.86Z"/><path class="cls-22" d="M806.29,337.85s0-.28,0-.82a10.73,10.73,0,0,1,.4-2.38,11.13,11.13,0,0,1,5.91-6.95,13.41,13.41,0,0,1,6.66-1.1h27.88l117.85.24h.88l-.61.64-15.11,15.88.11-.26v26.3a19.43,19.43,0,0,1-.39,5.24,11.24,11.24,0,0,1-2.48,4.64,11.58,11.58,0,0,1-4.25,3,12.79,12.79,0,0,1-5.09.86h-10l-38.08,0-64.48-.08H818.8a13,13,0,0,1-6.32-1.14,11.3,11.3,0,0,1-6.36-9.42c-.06-7.32,0-13.58,0-18.72s.06-9.09.07-11.81c0-1.34,0-2.36,0-3.08s0-1,0-1,0,.35,0,1,0,1.74,0,3.08c0,2.72,0,6.7.07,11.81s0,11.43.11,18.69a10.84,10.84,0,0,0,6.14,9,12.44,12.44,0,0,0,6.11,1.06h6.71l64.48-.09,38.08,0h10a11.81,11.81,0,0,0,4.8-.81,10.67,10.67,0,0,0,4-2.84,10.39,10.39,0,0,0,2.31-4.33,19,19,0,0,0,.36-5V342.94l.11-.11L964.73,327l.27.63-117.85-.5L827.34,327l-8.07-.06a13.24,13.24,0,0,0-6.55,1,10.89,10.89,0,0,0-4.11,3.3,11.33,11.33,0,0,0-1.78,3.44A15.57,15.57,0,0,0,806.29,337.85Z"/><polygon class="cls-22" points="931.99 347.27 821.82 346.76 821.83 343.37 932 343.88 931.99 347.27"/><polygon class="cls-22" points="931.99 358.41 821.82 357.9 821.83 354.51 932 355.02 931.99 358.41"/><rect class="cls-22" x="908.51" y="345.67" width="3.39" height="43.59" transform="translate(538.26 1275.85) rotate(-89.72)"/><path class="cls-23" d="M890,282.75a6,6,0,0,0,3.55-5.51,5.6,5.6,0,1,0-11.17-.05,6,6,0,0,0,3.56,5.56c-8.59,1.29-8.2,10.63-8.2,10.63l20.32.1S898.5,284,890,282.75Z"/><path class="cls-24" d="M890,282.75a6,6,0,0,0,3.55-5.51,5.6,5.6,0,1,0-11.17-.05,6,6,0,0,0,3.56,5.56c-8.59,1.29-8.2,10.63-8.2,10.63l20.32.1S898.5,284,890,282.75Z"/><path class="cls-25" d="M878.83,282.75a6,6,0,0,0,3.55-5.51,5.6,5.6,0,1,0-11.17-.05,6,6,0,0,0,3.56,5.56c-8.6,1.29-8.21,10.63-8.21,10.63l20.32.1S887.35,284,878.83,282.75Z"/><rect class="cls-23" x="855.24" y="297.56" width="54.62" height="6.77" transform="translate(1.4 -4.08) rotate(0.26)"/><rect class="cls-25" x="855.24" y="297.56" width="54.62" height="6.77" transform="translate(1.4 -4.08) rotate(0.26)"/><path class="cls-21" d="M808.85,489.63a4.38,4.38,0,0,1,0-.8,5.67,5.67,0,0,1,.75-2.25,6,6,0,0,1,2.89-2.52c1.46-.66,3.3-.4,5.25-.46h33.79l113.76.24h.87l-.6.64-14.9,15.94.11-.26v10.68c0,.79,0,1.54,0,2.36a6.16,6.16,0,0,1-.61,2.38,6.33,6.33,0,0,1-3.58,3.2,6.84,6.84,0,0,1-2.39.36H928.33l-34.34,0L835.84,519,824,519l-5.43,0H816a12.12,12.12,0,0,1-2.54-.15,6.08,6.08,0,0,1-4.72-4.93,13.57,13.57,0,0,1-.09-2.18q0-4.23,0-7.7c0-4.61,0-8.2.07-10.66,0-1.2,0-2.12,0-2.77s0-.95,0-.95,0,.32,0,.95,0,1.57,0,2.77c0,2.46,0,6,.07,10.66q0,3.47,0,7.7a12.55,12.55,0,0,0,.1,2.12,5.68,5.68,0,0,0,4.43,4.57,11.57,11.57,0,0,0,2.45.12h2.6l5.43,0,11.8,0,58.15-.08,34.34,0h15.86a6.14,6.14,0,0,0,2.14-.31,5.56,5.56,0,0,0,3.14-2.81,5.42,5.42,0,0,0,.53-2.09c0-.74,0-1.55,0-2.32V500l.1-.11L965,484l.27.64-113.75-.49-33.79-.22c-2,0-3.78-.23-5.17.38a5.85,5.85,0,0,0-2.85,2.4,5.69,5.69,0,0,0-.8,2.18C808.87,489.36,808.87,489.63,808.85,489.63Z"/><polygon class="cls-26" points="936.93 498.56 826.76 498.06 826.77 494.67 936.94 495.18 936.93 498.56"/><rect class="cls-26" x="912.89" y="485.31" width="3.39" height="44.7" transform="translate(402.46 1419.75) rotate(-89.72)"/><path class="cls-8" d="M952.2,550.07v23.22a5.9,5.9,0,0,1-5.9,5.9H816.54a5.91,5.91,0,0,1-5.9-5.9v-12.7l-14.9-15.94,150.54-.48A5.9,5.9,0,0,1,952.2,550.07Z"/><polygon class="cls-20" points="824.12 559 934.29 558.49 934.28 555.11 824.11 555.62 824.12 559"/><polygon class="cls-20" points="824.12 569.9 934.29 569.39 934.28 566.01 824.11 566.52 824.12 569.9"/><polygon class="cls-6" points="636.32 822.8 635.55 843.43 649.43 843.52 649.78 822.9 636.32 822.8"/><polygon class="cls-6" points="701.67 819.88 706.3 840.9 718.49 838.8 715.97 818.2 701.67 819.88"/><path class="cls-15" d="M640.28,576.43c-2.57,1.17-5,103.43-5,103.43l-5.6,144.78,21.87.32s11.2-57.08,12.88-73.9,2.24-49.33,2.24-49.33l18.22-120.26Z"/><path class="cls-27" d="M707,580.63l-54.94-4.2s12.61,110.16,14.29,123.62,31.12,122.77,31.12,122.77l21-3.36s-9-64.47-9.81-74.56S695.79,690,695.79,690s10.89-67.1,11.21-75.68C707.56,599.13,707,580.63,707,580.63Z"/><path class="cls-8" d="M640.28,578.39,647,527.65l55.5,31.12,5.89,22.7C685.25,585.69,662.5,585.23,640.28,578.39Z"/><path class="cls-8" d="M626,465.42l41.2-20.18,40.37,5s22.7,8.41,26.07,21.87-11.78,44.57-11.78,44.57l-26.06-7.57-5.89,35.32L647,511.67V483.08l-12.61,4.21Z"/><polygon class="cls-6" points="622.62 490.65 634.4 487.29 625.99 465.42 622.62 490.65"/><rect class="cls-28" x="519.86" y="358.47" width="117.52" height="160.92" rx="4.56" transform="translate(47.12 -56.02) rotate(5.78)"/><path class="cls-6" d="M695.79,509.15l-5.89,35.32L647,511.67S637.76,494,635.24,494,634.4,505,634.4,505l-22.71-14.3s-2.52,10.09,0,15.14,25.23,16,25.23,16,41.21,40.37,62.23,48.78c18.5-24.39,22.7-53.82,22.7-53.82Z"/><path class="cls-6" d="M684.09,432.83s-8.28,8-16.56.55-1.38-37.24,8.83-40.28,17.12-2.06,22.35-.27c17.38,5.93-.56,49.1-.56,49.1l5.25,8.28s1.6,10.59-18.49,9.1c-14.89-1.1-12.41-11.31-10.2-12.69s8.82-4.69,8.82-4.69Z"/><path class="cls-5" d="M698.43,404.69s-2.21-7.73-4.14-7.45-8,8.55-18.76,7.72-18.48-9.1-16-17.65,11-6.35,16-4.69,8.83-10.21,17.11-11.59,15.72,0,15.45,10.21c0,0,9.65,2.48,8.55,9.38s-3.86,5.52-4.14,12.69,1.93,9.93-3.31,14.9a24.08,24.08,0,0,0-6.62,10.34l-2.21-15s5,1.1,5.24-4.42S700.64,402.48,698.43,404.69Z"/><path class="cls-8" d="M998.58,473.87c-8.34-5.13-54.46,16.73-54.46,16.73l-4.42-41.76h-9.61s-5.08,55.86,4.57,60.28,59.08-10,59.08-10Z"/><path class="cls-8" d="M968.25,596.66l30.33-4.82-16.53-93.23S965.19,511.09,968.25,596.66Z"/><path class="cls-6" d="M917.54,849.91c3.17-2.56,11.28-13.5,13-19,2.36-7.77,5.15-18.45,8-30.09h12.15c-4,12.7-6.54,23.32-7.68,28.1a9.09,9.09,0,0,0,.45,2.24c.34,1.17,1,18.85,1,18.85H917.22l.24-.07Z"/><path class="cls-6" d="M1008.75,800.82h14.36c-2.68,14.8-4.78,27.36-4.78,27.36V850h-15.65c1.5-6.53,5.86-26.12,5.86-34.38C1008.54,810.78,1008.62,805.82,1008.75,800.82Z"/><path class="cls-24" d="M935.11,814.24c8.54-32.85,19.1-82.58,20.48-90.81.88-5.33,1.68-22.22,3.77-43,.55-23.64,3.27-77.71,16.56-108.4l31.26.73c-1.26,24.37,22.37,50.67-6.4,78.86-3.75,10.53-16.17,46.22-18,62-2.13,18.55-5.58,26.77-16.31,47.46-9.29,17.92-15.86,38.79-19.8,53.17Z"/><path class="cls-24" d="M1041.09,679h0c-2,10.39-4.85,17.33-6.41,26.07-2.28,12.72,4.2,31.15-2.33,51.64-3.1,9.69-8.87,41.72-12,59.42h-11.86c0-.16,0-.34,0-.5,0-43.1,5.94-94.49,5.06-114-.37-8.24-1.78-19.92-3.25-30.55,0,0-7.65-40.57-11.68-43.82-25.47-20.54-22.75-55.16-22.75-55.16l46.8,2.18s27.26,22.65,20.1,63c0,0,0,.41.07,1.14C1044,657.34,1042.9,669.59,1041.09,679Z"/><path class="cls-29" d="M945.8,850s1.2-16.18-2-20.41S932,833.53,932,833.53L924.21,830s.39,5.07-5.89,9.21-11.38,3-11.77,10.81Z"/><path class="cls-29" d="M1020.56,833.13s-.19-5.37-7.65-4.74-6.92,6-6.92,6a1.69,1.69,0,0,0-2.1,0c-1,.87-.16,8.33-2,9.9s-1.3,5.69-1.3,5.69h21.78s1.18-5.3-1-7.26S1024.69,833.72,1020.56,833.13Z"/><path class="cls-14" d="M998.58,473.87a61.66,61.66,0,0,0,24.58,12.41c14.47,3.35,20.49-5.46,27.89,3.87,11.1,14-7,39.8-16.46,53.18-3.55,5-11,18.81-12.54,32.08,0,0-25.09,7.29-46.74-2.18l-1.61-30.79S960.06,501,998.58,473.87Z"/><path class="cls-30" d="M1000.05,433.16c-.13,6.79.82,24.49-2.34,30s-4.05,10.85,9.59,11.74,26.12,5,31.65,1.83,6-38.06-5.9-46.76-20.56-10.29-26.72-7.42S1000.05,433.16,1000.05,433.16Z"/><path class="cls-6" d="M1035.56,424s-27.7-9.28-33.28,10.23.06,39.87,15,39.38C1035.64,473,1057.07,435,1035.56,424Z"/><path class="cls-31" d="M1017.16,446.28c-.08,1.25-.79,2.22-1.58,2.17s-1.37-1.11-1.29-2.36.79-2.22,1.58-2.17S1017.24,445,1017.16,446.28Z"/><path class="cls-17" d="M1021.61,451.38a2.73,2.73,0,1,1-2.87-1.84A2.43,2.43,0,0,1,1021.61,451.38Z"/><path class="cls-31" d="M1017.91,446s-.66-2.88-1.68-2.94-2.73,1.85-2.73,1.85l-1.87-1.37,1.8.71s1.56-2.19,3-1.75S1017.91,446,1017.91,446Z"/><path class="cls-31" d="M1005.58,444.48c-.08,1.25-.79,2.23-1.58,2.17s-1.37-1.1-1.29-2.35.79-2.23,1.58-2.18S1005.66,443.23,1005.58,444.48Z"/><path class="cls-31" d="M1006.33,444.16s-.66-2.88-1.68-3-2.73,1.85-2.73,1.85l-1.87-1.36,1.8.7s1.56-2.19,3-1.74S1006.33,444.16,1006.33,444.16Z"/><path class="cls-30" d="M1019.46,439.42a.56.56,0,0,1-.45-.26,3.85,3.85,0,0,0-3.41-1.59.57.57,0,0,1-.63-.51.56.56,0,0,1,.51-.63,4.93,4.93,0,0,1,4.5,2.11.57.57,0,0,1-.18.79A.55.55,0,0,1,1019.46,439.42Z"/><path class="cls-30" d="M1006.69,436.46a.53.53,0,0,1-.33-.13,3.79,3.79,0,0,0-3.73-.47.58.58,0,0,1-.76-.3.56.56,0,0,1,.3-.75,4.92,4.92,0,0,1,4.92.64.57.57,0,0,1,.08.81A.59.59,0,0,1,1006.69,436.46Z"/><path class="cls-17" d="M1006.27,448.06s-4.95,0-4.47,1.78,3.34,4,3.34,4S1007.37,450.22,1006.27,448.06Z"/><path class="cls-30" d="M1024.53,434s6.34,8.08,6,18.57c0,0,4.65-5.7,7.08-.75s-7.36,10.45-7.36,10.45.18,14.3,4.5,14.47,15.61-23.94,13.07-32.13S1037.52,428.28,1024.53,434Z"/><path class="cls-17" d="M1030,459.63c-2.12,5.73-10.27,15.64-18.9,12.81,0,0,1.19,5.67-2.4,8.78,0,0-2.42,2.43,1.25,4.93,11.53,7.84,19.52,2.28,20.69.28l2.44-25.74A1.88,1.88,0,0,1,1030,459.63Z"/><path class="cls-30" d="M1014.77,425.89s-3,16.11,10.75,20.06S1041.16,466,1035,478.5c0,0,9,1.22,13.2-3.58s.07-13.76,3.08-23.26.63-23.65-8.85-30.48-47.63-10-42.38,12C1000.05,433.16,1002,425.89,1014.77,425.89Z"/><path class="cls-8" d="M1028.31,484.15s-17.95,24.68-15.36,49.12,10.21,62,29.39,75.44c0,0-1.2-13.09-3.57-30.62s19.36-67.6,15.78-82.72C1052.83,488.12,1048.51,484.12,1028.31,484.15Z"/><path class="cls-8" d="M1010,479.68S979.28,496,974.3,520.24s-6,76.42-6,76.42-2.93-57.06,3.1-81.66,22.36-40.6,27.23-41.13C998.58,473.87,1007.23,478.69,1010,479.68Z"/><path class="cls-8" d="M1047.35,487.73c-8.85-7.49-51.72,6-51.72,6l-41.71-39.33-6.16,5.21s35.49,48.31,42.39,53,46.54,1.42,53-2.85S1051.53,491.26,1047.35,487.73Z"/><path class="cls-25" d="M956.73,400l8,32.9a11.1,11.1,0,0,1-8.16,13.4L838.6,475a11.11,11.11,0,0,1-13.4-8.16L818.44,439,800,427.16l143.29-35.32A11.09,11.09,0,0,1,956.73,400Z"/><polygon class="cls-20" points="836.82 438.84 943.75 412.32 942.93 409.03 836 435.56 836.82 438.84"/><polygon class="cls-20" points="839.45 449.67 946.38 423.14 945.57 419.85 838.64 446.38 839.45 449.67"/><rect class="cls-20" x="840.96" y="451.63" width="43.59" height="3.39" transform="translate(-83.84 221.36) rotate(-13.95)"/><path class="cls-6" d="M947.67,460.27s6.8-.7,6.08-6.87c0,0-3.14-7.24-4-8.51s-4.81-.68-4.81-.68a4.85,4.85,0,0,0,2.74,2,1.65,1.65,0,0,1-.73,1.88c-1.13.61-3.74.52-4.56.74-1.61.44-6.3-.91-8.1-.24s-1,1.48-1,1.48l4.12,1.51s-4.3-.29-6.14,1.39,6.45,1.7,6.45,1.7-5.35.43-6,1.65c-.18.35,1.3.59,1.3.59s-1,.4-.65,1.21,2.85.88,4.78.81C940.94,458.82,947.67,460.27,947.67,460.27Z"/><path class="cls-17" d="M937.44,451.61s4.07.69,4.7.74a16.67,16.67,0,0,1,1.84.31S942.18,453.17,937.44,451.61Z"/><path class="cls-17" d="M937.75,454.7a14.69,14.69,0,0,1,2.73.48c.49.25,2.2-.23,2.46.2S940.3,455.86,937.75,454.7Z"/><path class="cls-17" d="M933.09,456.94a36.11,36.11,0,0,1,4.87.12c1.1.24,3.35-.43,3.77,0S935.67,457.63,933.09,456.94Z"/><path class="cls-31" d="M1004.4,463.23a6.54,6.54,0,0,0,4.83,1.48c1.88,0,3.91-.45,5.16-2a.76.76,0,0,0,0-1.06.75.75,0,0,0-1.06,0,5.15,5.15,0,0,1-4.1,1.54,5.09,5.09,0,0,1-3.77-1c-.7-.68-1.76.38-1.06,1.06Z"/><path class="cls-8" d="M727,849.9a2.29,2.29,0,0,1-1.32,2.85c-5.68,3.49-12.73,3.63-19.16,5.39-2.48.68-4.87,1.6-7.32,2.37A59.63,59.63,0,0,1,686.52,863a2.64,2.64,0,0,1-2.79-1.95,8.54,8.54,0,0,1,0-5.3c.79-2.14,2.83-3.54,4.74-4.79l15.77-10.29a8.5,8.5,0,0,1,1.7-.93c1.53-.55,3.22-.15,4.85-.11a16,16,0,0,0,6.48-1.5c2.22-.94,2.81-1.57,4.47.38A23.29,23.29,0,0,1,727,849.9Z"/><path class="cls-1" d="M683.73,861.08a2.64,2.64,0,0,0,2.79,1.95,59.63,59.63,0,0,0,12.71-2.52c2.45-.77,4.84-1.69,7.32-2.37,6.43-1.76,13.48-1.9,19.16-5.39A2.29,2.29,0,0,0,727,849.9c-8.11,3.73-17.25,4.56-25.84,7C695.5,858.53,689.65,860.82,683.73,861.08Z"/><path class="cls-32" d="M701.22,842.18a6.59,6.59,0,0,0,1.45,3.16"/><path class="cls-32" d="M698.66,843.58a8.72,8.72,0,0,0,1.67,3.69"/><path class="cls-32" d="M696.2,845.45a11.35,11.35,0,0,0,1.26,3.13"/><path class="cls-32" d="M709.75,847.49a2.12,2.12,0,1,1,2.62,1.47A2.11,2.11,0,0,1,709.75,847.49Z"/><path class="cls-8" d="M655.11,859.09a2.62,2.62,0,0,1-2.33,2.77c-7.36,2.17-15.23.2-22.9.23-3,0-5.89.32-8.84.44a68.68,68.68,0,0,1-14.88-1,3,3,0,0,1-2.51-3,9.75,9.75,0,0,1,1.64-5.87c1.53-2.14,4.2-3.08,6.71-3.89l20.61-6.7a9.58,9.58,0,0,1,2.16-.52c1.87-.15,3.63.8,5.43,1.32a18.44,18.44,0,0,0,7.65.29c2.74-.38,3.6-.9,4.85,1.76A26.83,26.83,0,0,1,655.11,859.09Z"/><path class="cls-1" d="M603.65,858.5a3,3,0,0,0,2.51,3,68.68,68.68,0,0,0,14.88,1c3-.12,5.89-.43,8.84-.44,7.67,0,15.54,1.94,22.9-.23a2.62,2.62,0,0,0,2.33-2.77c-10.13,1.71-20.54-.12-30.81,0C617.48,859.21,610.3,860,603.65,858.5Z"/><path class="cls-32" d="M628.76,842.75a7.59,7.59,0,0,0,.65,4"/><path class="cls-32" d="M625.49,843.54a9.93,9.93,0,0,0,.75,4.6"/><path class="cls-32" d="M622.19,844.89a13.26,13.26,0,0,0,.46,3.86"/><path class="cls-32" d="M636.63,851.22a2.45,2.45,0,1,1,2.47,2.42A2.45,2.45,0,0,1,636.63,851.22Z"/><rect class="cls-8" x="247.37" y="231.98" width="216.17" height="130.46" rx="4.41" transform="translate(-78.02 133.55) rotate(-19.22)"/><rect class="cls-20" x="245.24" y="247.83" width="177.49" height="5.55" transform="translate(-63.87 123.89) rotate(-19.22)"/><rect class="cls-20" x="268.54" y="320.32" width="113.78" height="1.98" transform="translate(-87.62 125.01) rotate(-19.22)"/><rect class="cls-20" x="270.29" y="325.34" width="113.78" height="1.98" transform="translate(-89.17 125.86) rotate(-19.22)"/><rect class="cls-20" x="272.12" y="330.59" width="113.78" height="1.98" transform="translate(-90.8 126.76) rotate(-19.22)"/><rect class="cls-20" x="274.04" y="336.08" width="113.78" height="1.98" transform="translate(-92.5 127.7) rotate(-19.22)"/><rect class="cls-20" x="276.03" y="341.81" width="113.78" height="1.98" transform="translate(-94.28 128.67) rotate(-19.22)"/><rect class="cls-20" x="259.52" y="277.29" width="56.13" height="47.53" transform="translate(-83.06 111.42) rotate(-19.22)"/><rect class="cls-20" x="316.34" y="257.49" width="56.13" height="47.53" transform="matrix(0.94, -0.33, 0.33, 0.94, -73.38, 129.02)"/><rect class="cls-20" x="372.67" y="237.39" width="56.13" height="47.53" transform="translate(-63.63 146.44) rotate(-19.22)"/><ellipse class="cls-33" cx="76.48" cy="756.27" rx="69.44" ry="8.74"/><path class="cls-1" d="M108.9,724.48c-.05,1.13-.13,2.26-.25,3.39-.87,8.43-3.3,19.61-10.67,24.86-5,3.58-11.38,4.48-17.39,4.77a108.81,108.81,0,0,1-14.89-.15c-5.32-.48-11.22-1.45-15.67-4.62C41.91,747,39.9,735.49,39,726.24c-.94-9.84,1.37-19.51,4.85-28.69,1.59-4.19,5.59-8.39,8.11-9.61a13.9,13.9,0,0,1,3.84-.8c2.18-.3,4.37-.53,6.56-.74a115.1,115.1,0,0,1,16.81-.51c5.25.26,10.73.46,15.84,1.75a5.58,5.58,0,0,1,1,.31c2.52,1.21,6.53,5.41,8.11,9.6A68.85,68.85,0,0,1,108.9,724.48Z"/><path class="cls-34" d="M74.71,729.71v.07l-.56,0Z"/><path class="cls-34" d="M74.15,729.74l-.56,0v-.07Z"/><path class="cls-35" d="M97.85,691.67c0,2.28-9.15,4.15-20.88,4.37l-2.29,0-2.17,0c-11.77-.21-21-2.08-21-4.37s9.14-4.13,20.83-4.35c.77,0,1.54,0,2.33,0h2C88.56,687.5,97.85,689.38,97.85,691.67Z"/><path class="cls-8" d="M81.08,585.57l.25-.22s-.36.42-.85,1l0,.05-.17.22c-1.13,1.44-2.76,3.62-2.77,4.27,0,1-.77,22.37-1.64,23.49S74,615.55,74.12,617c.09,1.12,2.31,79.58,2.31,79.58l-4.14.21s-1.07-61.41-2.66-64.63c-2.22-4.47-2.13-5.31-3.34-7s-1-9.32-1.12-11-1.49-2.71-3.73-3.83-1.63-1.72-1.16-2.14,2.84.23,3.26,0-3.2-3.47-4.79-5.88a6.08,6.08,0,0,1-.62-1.16c-.84-2.33,1.36-4.43,1.36-4.43s.87,2.28,1.82,4.18a13.17,13.17,0,0,0,1.11,1.88c1.26,1.68,5.59,11.32,6.29,14.4s.42-5.4.47-6.8S67.69,596,69,595.29s1.59.37,2.33-.84c.6-1,.24-15.05.08-20.75-.05-1.45-.08-2.36-.08-2.36s-.07-6.27-.22-14.57c0-2.49-.11-5.14-.17-7.88-.24-10.34-.6-21.66-1.13-27.91-.22-2.68-.48-4.42-.78-4.74l-.5-.52-2.11-2.12c-.85-.84-1.8-1.8-2.79-2.82l0,0-1.08-1.11h0c-3.21-3.35-6.33-6.86-6.22-7.87.21-1.91,1.76-1.79,2.82-.55.25.3.67.87,1.17,1.53a18,18,0,0,0,3.07,3.39c.74.52,1.33.58,1.59-.32.76-2.74,2.12-14.91-.55-18.14a26.66,26.66,0,0,0-4-3.67L59,483c-2-1.5-3.73-2.74-4-3.38-.32-.82,1.45-1.43,3.08-1.15a3.08,3.08,0,0,1,2,1.15,11.46,11.46,0,0,0,1.08,1.36,21.86,21.86,0,0,0,1.57,1.61,6.38,6.38,0,0,0,2.11,1.51c.22,0,.72-.05,1.27-.07h.46c.75,0,1.43.17,1.4.69s0,7.13,0,13.6c0,2.12.08,4.24.14,6.1a52.13,52.13,0,0,0,.41,6.25,1.39,1.39,0,0,0,.09.27,16.57,16.57,0,0,0,1,1.41,9.4,9.4,0,0,1,1.48,3.28c.14.47.27,1,.39,1.64s.25,1.15.47,2c1.12,4.39,3.72,13.32,5.57,20.5.88,3.41,1.59,6.43,1.88,8.38a7.54,7.54,0,0,1,.15,1.88h0c-.37,3.53-1.23,4.77,0,7a28.94,28.94,0,0,0,1.78,2.48A1.74,1.74,0,0,1,81.2,562a6.62,6.62,0,0,0-.8,2.4c-.2,1-.41,2.29-.61,3.71-.36,2.53-.68,5.54-1,8.5-.54,5.25-1,10.31-1.32,12.11l2.91-2.55Z"/><path class="cls-14" d="M80.43,586.36c4.38-4.9,7.94-10.83,13.95-13.37,1.47-.62,3.09-1.09,4.19-2.25.61-.64,1-1.48,1.8-1.91a8.87,8.87,0,0,1,2.18-.58c1.75-.45,3-1.89,4.32-3.17a37,37,0,0,1,10-7.08,9.4,9.4,0,0,1,3.88-1.17c.54,0,1.35-5.58,1.06-6.23-1.31-2.89-6.78-1.53-9-.52-5.56,2.52-9.81,8.28-14,12.5l-15,14.89a7.39,7.39,0,0,0-2.13,3C81.05,582.42,81.46,584.74,80.43,586.36Z"/><path class="cls-8" d="M27.84,585.91s-15.43,1.18-20.28-3.11-8.2-8.39-7.46-11,3.17-5,4.85-5,2.42-2.06,2.42-3.17,3.17-2.43,3.17-2.43,2.84.38,3.38,0,2.59-.93,3.71,0,3.38,2,4,1.44,7,6,7.76,7.51S27.84,585.91,27.84,585.91Z"/><path class="cls-8" d="M26.2,562.85s-4.1-4.85-5.22-6-2.79-2.09-2.23-3.93.15-2.46-.11-3,1-1.84,1.6-1.28.23,2,2.16,1.28,7.35-2.08,9.4,0,4.47,2.41,6.15,3,3.54,3.83,5.78,4.91,6.52,1.63,8,5S54,568.39,56,571.3s3.43,5.35,3.62,7.4,2.61,3,2.61,4.84,1.86,6.53-2.8,5.78-17-13.23-22.56-17.15A78,78,0,0,1,26.2,562.85Z"/><path class="cls-14" d="M42.42,559.12s-2.05-5.08,0-6.17,6.53-4.27,7.65-6.88,5.59-4.47,7.08-4.66,6.9,3.46,6.34,7.13-1.86,12.63-2.61,16.17-2.05,15-2.05,15.41S42.42,559.12,42.42,559.12Z"/><path class="cls-8" d="M56.22,557.86c-5.8-3.14-11.53-6.54-17.75-8.8-2.35-.85-10.66-1.44-11.33-4.48-.38-1.68-1.12-4.29-1.12-4.29a33.8,33.8,0,0,0,6.54,3.58c2.06.7,4.22.35,6.33.64s4,1.29,6.23,1.37c5,.19,5.13-.55,6.44-.18S54.91,557.15,56.22,557.86Z"/><path class="cls-14" d="M79.59,568.07c.85,0,6.7,1.68,7.23-1.3s3.52-5.22,5.75-6.53,3.55-6.75,7.09-7.29,10.25-2.16,11.56-3.87,2.61-4.13,5.4-5.81,3-3.72,3-6a20,20,0,0,1,1.34-6.23c.71-2.35-.78-4-1.9-6.63s.56-3.92-3.17-4.11S92,531.9,90.34,536.19A175.07,175.07,0,0,0,84.93,553c-1.49,5.61-6.52,8.78-6.52,11.76S79.59,568.07,79.59,568.07Z"/><path class="cls-8" d="M77.66,551.1c1.3,1.31,8.58-10.44,11.74-13.23s3.73-2,7.46-4.53,3.54-4.79,8-5.35,5.78-.56,8.39-4.1,6-3.17,6.71-5,.81-3.17,1-6.34,2.64-8,0-9.69-6.38-2.24-7.12-3-1.87-3.73-2.8-4.11a65.14,65.14,0,0,0-6.9-1.86c-.56,0-5.22-.56-8,.93s-6.1,2.8-9.3,4.1S78,509.53,77.66,515.31,77.66,551.1,77.66,551.1Z"/><path class="cls-13" d="M68,522.49c.55-.65,12.89-9.79,14.09-13s10.51-12.68,11.07-14.17,3.36-4.47,3.73-5a12.89,12.89,0,0,0,2-4.29,42.07,42.07,0,0,1,1.36-5s-2.29,3.72-5.09,4.47-4.84-3.17-6.71-.37-2.79,2.42-5.4,4.47S83,493.5,79.59,495s-4.73,1.3-4.35,3.35.56,4.48-1.5,6S70,504.87,70.3,508,68,516.43,68,517.92Z"/><path class="cls-13" d="M60.14,518.85c-.38-.56-9.53-10.81-15-14.54S43,499.46,38,497.79s-9-4.29-9.32-6.9S26.39,480.82,27,481a42.94,42.94,0,0,0,8.39.93c2.24-.19,8.39.74,11.74,4.66s11,10.63,13.06,15.85,4.16,8.57,4.22,12.11S60.14,518.85,60.14,518.85Z"/><path class="cls-14" d="M66.29,514.38c.18-.93,1.3-10.82,1.68-15.66s6.15-20.88,7.27-23.12,4.66-6.15,6-6.15A14.75,14.75,0,0,0,86.82,468c1.09-.75,5-.75,6.31,0s3.17.18,4.29-.56,4.85-1.49,4.66.93a45.51,45.51,0,0,1-2.26,8.95c-.91,2.79-1.84,5.22-7.06,9.88s-17.71,27-19.2,28.15S66.29,514.38,66.29,514.38Z"/><path class="cls-8" d="M56.25,486s4.62-5.78,6.3-5.78,6.72-3.36,3.74-6a26.23,26.23,0,0,1-6.34-9.5c-.75-2.24.37-6.9-1.12-8.58s-3.85-7.27-6.31-7.27-3,2.8-5.44,0,1.68-4.47-3.35-3.54-6.9-.15-10.44-.26-5.78,2.12-7.27,2.31,1.86,2.61-2.61,2.24c-1.7-.15-4.32-1.83-6-1.09-2.49,1.09-.43,6.5,1.21,7.61,2.76,1.87,7.79,6.88,11.71,8.58s11.18,4.66,11.93,6.34,3,7.45,6.52,8.57S56.25,486,56.25,486Z"/><path class="cls-14" d="M84.19,432.16a9.41,9.41,0,0,1-5.78,1.68c-3.36-.19-3,1.49-6.16,2.61s-5,.74-5,2.61.57,6.18-.92,6.07a5.15,5.15,0,0,0-5.22,3.62c-.93,3-3.54,9.51-3.17,10.44s2.05,13.7,1.49,15.33,4.75,10.59,5.45,11.52S75.55,468,78.28,464.23s7.26-16.75,8.54-19.1,2.77-3.83,3.33-5.14.19-3,0-4.66.19-5.78-2.05-4.85S84.19,432.16,84.19,432.16Z"/><path class="cls-8" d="M20.61,506.55s2.05,1.12,2.05,2.79.19,3.17,1.68,3.17,5.71,1.31,5.18,3.55-1.08,5.22,3,8.94,6.56,3.55,7.66,4.67,5.21,4.84,6.88,7.27a10.47,10.47,0,0,0,6.69,4.46c2.3.28,10,8.12,11.54,13.48l1.54,5.36A54.13,54.13,0,0,0,69.46,553c.56-2.59-.37-.27-.94-4.41s-3-4.72-1.8-7.14S71.51,532.83,68,530s-1.51-9.88-5.42-12.31-6.08-1.86-10-3.73-6.55-3.54-9.72-4.84-2-1.31-6.16-1.31-3.8-1.86-7.12-1.3,1,.06-3.32.56S20.61,506.55,20.61,506.55Z"/><path class="cls-14" d="M58.08,602.37s-4.84-6-8.32-7.2-6.22-4.23-8.95-5.72-3.48-1.49-7.21-1.74-15.66-5.33-17.15-13.6,1.49-7,3.23-9,2.24-3.73,4.22-3.48,2.24,0,4.48-1.49,1.74.49,4.72,0,3-2.49,5.22-2.24,4.23,6.46,7.71,7.21,6.21,1.24,7.95,3.73,5.22,5.46,4.1,7.95-1.92,4,.22,5.47a6,6,0,0,1,2.89,5.22c0,2,1.24,3.48,2,5.22s2.24,4,0,5.22-1.37,4.47-3.23,4.47Z"/><path class="cls-14" d="M75.42,577.39s-6.71-5.93-8.76-8.56-1.68-3.93-5.59-6.17-8.77-5.59-10.26-6.52a44.32,44.32,0,0,1-3.73-2.8,51.68,51.68,0,0,1,8,0c3.54.38,4.66-.89,6.15-.16a57.17,57.17,0,0,0,7.83,3c2.24.56,6.53,2.24,6.34,3.54s2.36,3.54,4.17,4.1.68,2.65.87,5.05,2.61,4.42,1.11,5.28-4.66,4.59-4.66,4.59Z"/><path class="cls-8" d="M60.32,510.09s-34.67-33-36.91-34.68-4.1-4.66-3.73-6.34,2.8-3.12,3.54-2.4-.39,1.13,3.63-.19,5.32-.91,7.37,0,6,1.66,6.92,1.29,2.78,1.68,5.94,3.91,4.67,4.85,7.46,4.85,4.66,2.61,5.78,7.46,3.28,6,4.25,8.39-1,3.54-1,7.55-.52,8.8,0,10.6S60.32,510.09,60.32,510.09Z"/><path class="cls-14" d="M54.36,504.31c.74,0,3,4.29,3.91,4.85s7.27.37,9.14.93,5.78,4.1,9.13,5.59,3,3.73,5.52,6,2.87,1.49,4.36,6-1.68,7.09-1.49,10.63-.15,4.85-2.87,7.64-3.65,2.06-4.4,5.22-1.31,6.76-1.31,6.76-5.22-9-7.45-12-1.38-4.66-4.33-7.45a43.63,43.63,0,0,1-7-9.32c-1.5-2.61-3.36-8.21-3.17-10.82s1.27-4.66,0-6.71S54.36,504.31,54.36,504.31Z"/><path class="cls-8" d="M93.13,442.6s-1.86,3.92-1.67,6-2.19,4.1-3.33,5-5.87,10.25-7.24,14-9.78,22.19-10,24.8-3.35,14.06-3.35,14.06-1.21-10.89-1.44-16.11-.23-9.32,1.44-11.19,1.11-6.34.93-7.83,1.1-.93,2.42-2.24,1.87-4.84,2.43-6,2.24-1.68,3.92-2.42,2.73-3.55,3.6-5.6,4.28-2.79,4.53-3.17.44-2.42,1-3.54,2.8-1.12,3.36-1.68S93.13,442.6,93.13,442.6Z"/><circle class="cls-20" cx="582.19" cy="406.79" r="29.96"/><rect class="cls-20" x="531.35" y="449.39" width="85.13" height="3.39" transform="translate(54.09 -61.39) rotate(6.43)"/><rect class="cls-20" x="530.32" y="459.94" width="85.13" height="3.39" transform="translate(55.26 -61.21) rotate(6.43)"/><rect class="cls-20" x="529.29" y="469.25" width="85.13" height="3.39" transform="translate(56.3 -61.04) rotate(6.43)"/><rect class="cls-20" x="528.11" y="478.49" width="85.13" height="3.39" transform="translate(57.32 -60.85) rotate(6.43)"/><ellipse class="cls-7" cx="802.6" cy="156.69" rx="4.97" ry="4.34"/><ellipse class="cls-7" cx="819.98" cy="156.69" rx="4.97" ry="4.34"/><ellipse class="cls-7" cx="835.81" cy="156.69" rx="4.97" ry="4.34"/><rect class="cls-20" x="603.82" y="136.25" width="34.22" height="37.04" transform="matrix(0.64, 0.77, -0.77, 0.64, 342.98, -421.65)"/><rect class="cls-20" x="631.61" y="169.85" width="34.22" height="37.04" transform="translate(378.84 -430.89) rotate(50.26)"/><rect class="cls-20" x="657.96" y="203.84" width="34.22" height="37.04" transform="matrix(0.64, 0.77, -0.77, 0.64, 414.49, -438.89)"/><rect class="cls-20" x="565.2" y="167.89" width="34.22" height="37.04" transform="translate(353.38 -380.53) rotate(50.26)"/><rect class="cls-20" x="592.99" y="201.5" width="34.22" height="37.04" transform="translate(389.25 -389.78) rotate(50.26)"/><rect class="cls-20" x="619.34" y="235.49" width="34.22" height="37.04" transform="translate(424.89 -397.78) rotate(50.26)"/><rect class="cls-20" x="526.15" y="201.92" width="34.22" height="37.04" transform="translate(365.46 -338.23) rotate(50.26)"/><rect class="cls-20" x="553.94" y="235.52" width="34.22" height="37.04" transform="translate(401.33 -347.48) rotate(50.26)"/><rect class="cls-20" x="580.29" y="269.51" width="34.22" height="37.04" transform="translate(436.97 -355.48) rotate(50.26)"/></g></g></svg>