<svg xmlns="http://www.w3.org/2000/svg" viewBox="0 0 1410.97 1240.86"><defs><style>.cls-1{fill:#e5e5e5;}.cls-16,.cls-2,.cls-22{fill:#fff;}.cls-3{fill:#b9c1c7;}.cls-4{fill:#0fa8ba;}.cls-5{fill:#f8ba1b;}.cls-10,.cls-6{fill:#cbd8ee;}.cls-34,.cls-37,.cls-38,.cls-40,.cls-6{stroke:#fff;}.cls-34,.cls-41,.cls-6{stroke-miterlimit:10;}.cls-6{stroke-width:3px;}.cls-7{fill:#f49d9d;}.cls-8{fill:#ffaeab;}.cls-9{fill:#283045;}.cls-11{fill:#eae9e1;}.cls-12{fill:#eff4fb;}.cls-13{fill:#1aad4b;}.cls-14{fill:#159146;}.cls-15{fill:#e2a51b;}.cls-16{font-size:16.85px;}.cls-16,.cls-22{font-family:Montserrat-Medium, Montserrat;font-weight:500;}.cls-17{letter-spacing:0em;}.cls-18{letter-spacing:-0.02em;}.cls-19{letter-spacing:0em;}.cls-20{letter-spacing:-0.03em;}.cls-21{fill:#f47f31;}.cls-22{font-size:12.68px;}.cls-23{letter-spacing:0em;}.cls-24{letter-spacing:-0.02em;}.cls-25{letter-spacing:-0.03em;}.cls-26{fill:#d0d5dd;}.cls-27{fill:#ff6b6e;}.cls-28{fill:#ffc54f;}.cls-29{fill:#c1cc8c;}.cls-30{font-size:59.29px;}.cls-30,.cls-32{fill:#0c243f;font-family:Montserrat-Bold, Montserrat;font-weight:700;}.cls-31{fill:#fffdfa;}.cls-32{font-size:56.54px;}.cls-33{letter-spacing:-0.01em;}.cls-34,.cls-37,.cls-38,.cls-40,.cls-41{fill:none;}.cls-34{stroke-width:2px;}.cls-35{fill:#030a33;}.cls-36{fill:#3d4559;}.cls-37,.cls-38,.cls-40{stroke-linecap:round;stroke-linejoin:round;}.cls-37{stroke-width:1.05px;}.cls-38{stroke-width:1.21px;}.cls-39{fill:#ff8c35;}.cls-40{stroke-width:2.77px;}.cls-41{stroke:#fff6f3;stroke-width:1.74px;}</style></defs><title>Do You think</title><g id="Layer_2" data-name="Layer 2"><g id="Layer_5" data-name="Layer 5"><path class="cls-1" d="M831,1.12C574.77-11.11,403.1,78.29,365.62,209.77c-81,284.31-298,96.19-358.87,465.44-37,224.7,79.55,400.45,321.83,449.4,138.08,27.9,203.34-55.65,349.61-11.46C826.05,1157.82,838,1223.05,956,1239.26c138,18.94,347.33-133.5,393.6-284.32,41-133.74-125.8-165.08-39.36-348.51,97-205.92,46.76-257.26-18.52-373.74C1204.84,77.64,993.78,8.89,831,1.12Z"/><ellipse class="cls-2" cx="363.93" cy="644.09" rx="19.86" ry="18.62"/><polygon class="cls-3" points="560.06 1030.57 721.72 996.92 515.37 925.19 523.65 949.74 560.06 1030.57"/><ellipse class="cls-4" cx="185.9" cy="787.13" rx="17.45" ry="21.04" transform="translate(-601.65 971.23) rotate(-89.87)"/><polygon class="cls-4" points="221.27 1000.58 183.56 786.67 313.66 631.21 317.33 633.33 188.25 787.59 225.7 1000.04 221.27 1000.58"/><polygon class="cls-4" points="211.02 1000.55 173.31 786.65 303.41 631.18 307.09 633.3 178 787.57 215.46 1000.02 211.02 1000.55"/><polygon class="cls-5" points="388.06 587.67 305 676.85 318.69 687.67 402.27 598.85 388.06 587.67"/><path class="cls-4" d="M387.45,588.71l-81,87-3.1-2.27c-24.58-17.22-20-57-.55-76.32l8.19-7.93c19.45-19.27,51.88-17.67,76.45-.46Z"/><path class="cls-4" d="M176.35,996h87.34a12.43,12.43,0,0,1,12.43,12.43V1014a0,0,0,0,1,0,0H163.91a0,0,0,0,1,0,0v-5.52A12.43,12.43,0,0,1,176.35,996Z" transform="translate(2.31 -0.5) rotate(0.13)"/><line class="cls-6" x1="1207.95" y1="1051.57" x2="643.24" y2="961.88"/><path class="cls-4" d="M1068.3,711.12s94.6.83,99.76.66,50.77-6.35,33.32,52.35-47.6,278.72-47.6,278.72l-192.51-31.73Z"/><path class="cls-3" d="M434.81,713.69,251.65,699.6a21.47,21.47,0,0,0-22.12,27.86l83.88,265.91,233.75,38.37L463.33,737A32.25,32.25,0,0,0,434.81,713.69Z"/><path class="cls-7" d="M784.1,682.69S824.83,718.82,911.93,582c7.41-11.63-60.14,5.54-66.48-13.5S820.06,435.7,804.2,423L762.94,601.77S819,626.1,775.11,661Z"/><path class="cls-7" d="M700.34,891.92,599.79,959.19,517,925.74l-5.72-20s77.48-15.49,89-21.89c8.65-4.79,15.45-25.1,15.45-25.1S659.79,875,700.34,891.92Z"/><path class="cls-5" d="M1079.92,880s-26.8-32.44-70.52-20.45S949.11,874,949.11,874,927.6,711.42,938.88,691.68s60.49-94.31,97.61-42.24C1105.92,746.8,1079.92,880,1079.92,880Z"/><path class="cls-5" d="M917.73,578.85s-15.52-2.82-28.91,19S829,686.21,801.38,686c-28.39-.18-9.58-48.58-9.58-48.58s-34.91,6.72-39.78,8S668.1,663.47,639.19,765L591.94,858.1s39,16.12,92.63,36.87L699,901.05l4.28-12.41,15.28,110.14s261.89-13.3,315.48,16.32l13.28-5.53s34-212.12,25.58-241-18.48-122.6-67.69-156.55C959.89,580.76,917.73,578.85,917.73,578.85Z"/><path class="cls-8" d="M659.07,440c-2.37,28.2-4.27,58.57,10.29,82.8,2.77,4.61,6.12,8.94,8,14,5,13.12-.6,27.67-6.13,40.56,4.21,5.68,15.28,1.33,21.44,5.53,3,2.07,5.16,5.2,7.25,8.23a383.39,383.39,0,0,0,41.29,50.08,14.65,14.65,0,0,0,5.27,3.94c4.69,1.66,9.57-1.63,13.3-4.93,35.11-31.07,52.7-77.42,64.81-122.91,1.65-6.16,3.22-12.4,3.42-18.78.22-6.72-1.09-13.39-2.77-19.89a173.19,173.19,0,0,0-49.45-83c-7.69-7.15-16.18-13.65-25.9-17.53s-20.86-4.91-30.63-1.19"/><path class="cls-8" d="M1076.74,868s11.64,120.58-18,141-351.88-8.46-351.88-8.46-49.36,4.23-54.29,4.23-66.29-24.68-66.29-24.68l-48.66,24-.7-63.47s43-33.85,64.87-26.09,78.28,29.62,83.21,29.62S919.84,935,961.45,915.22l-11.64-42S1022.8,817.55,1076.74,868Z"/><path class="cls-9" d="M865.61,468.72c-1.7-4.59-4.14-9-5.08-13.76-1.42-7.22.64-14.59,2.12-21.8,4.82-23.46,3.09-49-8.92-69.71a69.82,69.82,0,0,0-32.83-29.06h0l-.25-.1-.42-.16c-31.26-14.57-69.12-9.73-97.67-2.06,0,0-70.46,32.47-110.45,17.33,0,0,4.81,18.07,20.16,26.39,0,0-19.82,11.63-42.13,4.21a80.91,80.91,0,0,0-6.09,21.3c-2.75,19.87,2.68,41,15.8,56.2s34,23.67,53.85,20.55c11.72-1.84,22.53-7.4,34-10.24s25.12-2.33,33.43,6.14c3.87,4,6.13,9.19,9.58,13.52,6.08,7.64,15.61,12,25.29,13.29s9.94.6,19.34-2c1.05-9.55,3.37-19.58,10.18-26.36s19.33-8.51,25.68-1.3c4.29,4.89,4.57,12.18,3.14,18.52s-4.29,12.32-5.53,18.7c-3.5,17.93,4.59,38.41,21.92,44.15,11-11,24.88-23.94,31.41-38.15S871.05,483.37,865.61,468.72Z"/><ellipse class="cls-10" cx="811.88" cy="494.08" rx="44.82" ry="44.72"/><ellipse class="cls-11" cx="819.47" cy="494.37" rx="28.91" ry="29.45"/><path class="cls-10" d="M798,452.85c-1.43-12-13.2-38.83-27-58.8-29-42.05-80.44-46.25-89.48-47.43,6.07-2.13,10.29-3.08,16.56-5.22,3.93-1.34,10.59-3.69,14.31-5.21,9.89.69,47.1,5,75.95,34.63C816.15,399.34,832.27,457,832.27,457Z"/><path class="cls-2" d="M1083,862.14S1009,812.26,947.8,869.06l-2.95-22.13s61.38-49.48,139.12-3.46Z"/><path class="cls-2" d="M1085,818.08s-77.39-47.31-142.27,4.76l-3.7-20.63s68-48.92,145.7-2.91Z"/><path class="cls-2" d="M1081.85,770.75s-89.06-46.91-144.38,2.38l-3.7-20.63s64.83-51.61,144.12-3.44Z"/><path class="cls-2" d="M1070.24,719.28S993.07,672.12,929,720.94l-4-22.27s58.26-47.76,135.11-7a133.87,133.87,0,0,1,5.95,14.38C1067.66,710.51,1069.29,715.34,1070.24,719.28Z"/><path class="cls-2" d="M1041.75,657.55s-72.19-43.65-127,1.34l-10.05-23.27s63.22-43.57,120.47-4.44q3.86,5.3,7.75,11.34C1036.22,647.71,1039.16,652.75,1041.75,657.55Z"/><path class="cls-2" d="M749.19,685.33,707.9,665.48a68.94,68.94,0,0,0-8.58,5.81,67.34,67.34,0,0,0-8.33,7.88l50.8,16.74Z"/><path class="cls-2" d="M732.62,720.59,674,696.76q-2.87,3.39-5.81,7.38c-1.89,2.56-3.6,5.06-5.15,7.46l63.57,24.5Z"/><polygon class="cls-2" points="717.46 763.08 649.76 735.05 642.36 752.5 714.82 777.88 717.46 763.08"/><polygon class="cls-2" points="706.88 808.29 630.73 780 621.73 799.04 704.24 827.34 706.88 808.29"/><polygon class="cls-2" points="702.12 849.28 614.86 813.85 604.28 833.42 699.48 869.91 702.12 849.28"/><path class="cls-7" d="M1033.73,847.52l4.45,26.9s8.7,85.08-12.56,97.41c-30.68,17.78-318.38,27.78-318.38,27.78s294,27.79,346.94,11.12c40.08-12.64,21.15-142.25,21.15-142.25S1063.7,848.93,1033.73,847.52Z"/><ellipse class="cls-12" cx="369.14" cy="858.53" rx="25.17" ry="27.26" transform="translate(-196.42 114.57) rotate(-13.98)"/><ellipse class="cls-3" cx="891.97" cy="1135.48" rx="78.49" ry="12.77"/><path class="cls-13" d="M1028.06,960.17c3.78-3.35,7.53-6.74,11.17-10.24-29.42,12.69-59.76,26-81.5,49.54-2.44,2.64-4.81,5.49-5.9,8.91-4.14,13,6.79,6.21,12.31,2.32q11.48-8.09,22.66-16.59Q1008,977.91,1028.06,960.17Z"/><path class="cls-13" d="M1006.22,991c2.69-2.08,5.35-4.19,7.94-6.36-21.28,7.47-43.21,15.33-58.56,30.05a14.57,14.57,0,0,0-4.1,5.64c-2.7,8.37,5.15,4.23,9.11,1.84q8.21-5,16.2-10.19Q992,1002,1006.22,991Z"/><path class="cls-14" d="M998.27,934.71c2.19-4.55,4.33-9.13,6.34-13.77-22.21,23.1-45,47.13-56,77.24-1.22,3.38-2.3,6.92-2,10.5,1.22,13.62,8.66,3.1,12.25-2.63q7.44-11.89,14.46-24.06Q986.69,958.82,998.27,934.71Z"/><path class="cls-13" d="M978.92,921.44c1.08-4.94,2.1-9.89,3-14.86-16.26,27.61-32.87,56.27-36.53,88.1-.4,3.57-.63,7.27.51,10.68,4.35,13,9.14,1,11.3-5.4q4.49-13.31,8.49-26.76Q973.25,947.58,978.92,921.44Z"/><path class="cls-14" d="M946.08,944.56c-.65-3.65-1.35-7.29-2.16-10.88-3.55,25.08-7.06,51-.52,73.07.73,2.48,1.63,5,3.41,6.62,6.78,6.35,6.74-3.5,6.43-8.59q-.65-10.56-1.68-21Q949.57,963.9,946.08,944.56Z"/><path class="cls-13" d="M938.13,1001c-4.8-4.59-10.7-7.85-15.88-12-7.58-6.09-13.48-14-19.3-21.76l-21.58-28.91c7,10.53,6.75,24.24,12,35.71,3.69,8.05,10,14.68,16.79,20.31,10.16,8.38,24.79,18.34,38.1,20.14A50.13,50.13,0,0,0,938.13,1001Z"/><path class="cls-14" d="M941.38,1006.44c-3.08-3-6.87-5.13-10.2-7.84-4.87-4-8.67-9.12-12.4-14.2l-13.86-18.87c4.46,6.87,4.33,15.82,7.7,23.3,2.37,5.26,6.39,9.59,10.79,13.26,6.53,5.47,15.93,12,24.48,13.14A32.65,32.65,0,0,0,941.38,1006.44Z"/><path class="cls-4" d="M946,1014.07h5a50.25,50.25,0,0,1,50.25,50.25v79.24a0,0,0,0,1,0,0H895.72a0,0,0,0,1,0,0v-79.24A50.25,50.25,0,0,1,946,1014.07Z" transform="translate(1896.89 2157.63) rotate(-180)"/><path class="cls-2" d="M979.85,1045s7.06-8.47-.27-14.15c-8.06-6.25-13.86,3.9-13.86,3.9l-3.28-2.41s8.77-13,19.31-5.06c10.06,7.59,1.31,20.08,1.31,20.08Z"/><path class="cls-2" d="M916.89,1031.77s-5.56,9.53,2.62,13.92c9,4.82,13-6.15,13-6.15l3.64,1.84s-6.5,14.28-18.21,8.19c-11.17-5.82-4.62-19.59-4.62-19.59Z"/><path class="cls-2" d="M971.53,1074.37s5.5,9.56,13.37,4.65c8.65-5.4,1.14-14.35,1.14-14.35l3.4-2.25s9.17,12.75-1.94,19.88c-10.6,6.8-19.3-5.73-19.3-5.73Z"/><path class="cls-2" d="M955.33,1108.6s-10.24,4.12-6.47,12.6c4.14,9.32,14,3.13,14,3.13l1.75,3.68s-13.89,7.3-19.41-4.7c-5.26-11.44,8.36-18.31,8.36-18.31Z"/><path class="cls-2" d="M915.41,1093.89s-6,9.27,2,14c8.76,5.22,13.27-5.56,13.27-5.56l3.56,2s-7.13,14-18.56,7.38c-10.9-6.3-3.75-19.77-3.75-19.77Z"/><path class="cls-2" d="M972.24,1104.33s5.29,4.52,8.93-.06c4-5-2.35-8.77-2.35-8.77l1.55-2s8.14,5.64,3,12.22c-4.87,6.29-12.68.67-12.68.67Z"/><path class="cls-2" d="M921.36,1078.64s5.3,4.52,8.94-.06c4-5-2.36-8.77-2.36-8.77l1.55-2.06s8.14,5.64,3,12.23c-4.86,6.28-12.68.67-12.68.67Z"/><path class="cls-2" d="M943.55,1059.51s2.63,6.44,8,4c5.86-2.63,1.93-8.87,1.93-8.87l2.32-1.11s4.64,8.75-2.91,12.26c-7.21,3.34-11.57-5.23-11.57-5.23Z"/><path class="cls-13" d="M940.18,998.63c-2.7-6.07-6.93-11.32-10.16-17.13-4.72-8.49-7.2-18-9.64-27.43l-9.06-34.92c2.45,12.37-2.92,25-2.38,37.59.37,8.85,3.66,17.35,7.86,25.16,6.25,11.59,16,26.34,27.67,33A49.54,49.54,0,0,0,940.18,998.63Z"/><path class="cls-13" d="M938.53,997.82c-2.71-6.07-6.94-11.32-10.17-17.12-4.72-8.5-7.2-18-9.64-27.44l-9.06-34.92c2.45,12.37-2.92,25-2.38,37.59.37,8.86,3.66,17.36,7.87,25.16,6.24,11.59,16,26.34,27.67,33A50,50,0,0,0,938.53,997.82Z"/><path class="cls-15" d="M370.28,161.72v14.93H32.92V161.72A17.42,17.42,0,0,1,50.33,144.3H352.91A17.38,17.38,0,0,1,370.28,161.72Z"/><path class="cls-5" d="M370.28,176.65v178A17.34,17.34,0,0,1,352.91,372H50.33a17.38,17.38,0,0,1-17.41-17.37v-178Z"/><rect class="cls-2" x="43.87" y="192.78" width="3.44" height="26.99"/><text class="cls-16" transform="translate(53.54 204.5)">&lt;html&gt;<tspan x="0" y="20.23" xml:space="preserve">    &lt;</tspan><tspan class="cls-17" x="27.95" y="20.23">h</tspan><tspan class="cls-18" x="39.47" y="20.23">e</tspan><tspan class="cls-19" x="49.54" y="20.23">a</tspan><tspan x="59.67" y="20.23">d&gt;</tspan><tspan x="0" y="40.45" xml:space="preserve">        &lt;title&gt;...&lt;</tspan><tspan class="cls-20" x="110.86" y="40.45">/</tspan><tspan x="116.33" y="40.45">title&gt;</tspan><tspan x="0" y="60.68"> </tspan><tspan x="0" y="80.9">&lt;/html&gt;</tspan></text><path class="cls-2" d="M1411,163.83v11.23H1157.08V163.83a13.11,13.11,0,0,1,13.11-13.11h227.7A13.09,13.09,0,0,1,1411,163.83Z"/><path class="cls-21" d="M1411,175.06V309a13.05,13.05,0,0,1-13.08,13.07h-227.7A13.08,13.08,0,0,1,1157.08,309v-134Z"/><rect class="cls-2" x="1165.33" y="187.21" width="2.59" height="20.31"/><text class="cls-22" transform="translate(1172.6 196.02)">&lt;html&gt;<tspan x="0" y="15.22" xml:space="preserve">    &lt;</tspan><tspan class="cls-23" x="21.03" y="15.22">h</tspan><tspan class="cls-24" x="29.71" y="15.22">e</tspan><tspan class="cls-23" x="37.28" y="15.22">a</tspan><tspan x="44.9" y="15.22">d&gt;</tspan><tspan x="0" y="30.44" xml:space="preserve">        &lt;title&gt;...&lt;</tspan><tspan class="cls-25" x="83.42" y="30.44">/</tspan><tspan x="87.54" y="30.44">title&gt;</tspan><tspan x="0" y="45.66"> </tspan><tspan x="0" y="60.88">&lt;/html&gt;</tspan></text><path class="cls-2" d="M512.19,303.34V512.59a6.06,6.06,0,0,1-6.06,6.07H163.92a6.07,6.07,0,0,1-6.07-6.07V303.34a6.07,6.07,0,0,1,6.07-6.07H506.13A6.06,6.06,0,0,1,512.19,303.34Z"/><path class="cls-26" d="M512.19,303.34v16.52H157.85V303.34a6.07,6.07,0,0,1,6.07-6.07H506.13A6.06,6.06,0,0,1,512.19,303.34Z"/><path class="cls-27" d="M471.35,309.28a4.5,4.5,0,1,1-4.5-4.5A4.49,4.49,0,0,1,471.35,309.28Z"/><path class="cls-28" d="M487.14,309.28a4.49,4.49,0,1,1-4.49-4.5A4.49,4.49,0,0,1,487.14,309.28Z"/><path class="cls-29" d="M502.94,309.28a4.5,4.5,0,1,1-4.49-4.5A4.49,4.49,0,0,1,502.94,309.28Z"/><rect class="cls-2" x="185.64" y="328.59" width="1.93" height="15.13"/><text class="cls-30" transform="translate(246.53 431.32)">HTML</text><rect class="cls-4" x="194.12" y="342.58" width="171.86" height="4.1" rx="0.85"/><rect class="cls-28" x="194.12" y="468.24" width="191.81" height="4.04" rx="0.85"/><path class="cls-2" d="M411.53,354H195.87a1.75,1.75,0,0,0-1.75,1.75h0a1.76,1.76,0,0,0,1.75,1.75H411.53a1.75,1.75,0,0,0,1.75-1.75h0A1.75,1.75,0,0,0,411.53,354Z"/><rect class="cls-4" x="194.12" y="479.44" width="185.41" height="3.96" rx="0.85"/><rect class="cls-4" x="194.12" y="458.04" width="219.37" height="4.16" rx="0.94"/><rect class="cls-29" x="422.26" y="353.85" width="54.16" height="3.73" rx="0.85"/><rect class="cls-2" x="193.62" y="331.46" width="62.9" height="4.01" rx="0.85"/><path class="cls-31" d="M1364.44,349.05V548.61a5.81,5.81,0,0,1-5.83,5.79h-329a5.82,5.82,0,0,1-5.84-5.79V349.05a5.82,5.82,0,0,1,5.84-5.79h329A5.81,5.81,0,0,1,1364.44,349.05Z"/><path class="cls-26" d="M1364.44,349.05v15.76H1023.73V349.05a5.82,5.82,0,0,1,5.84-5.79h329A5.81,5.81,0,0,1,1364.44,349.05Z"/><path class="cls-27" d="M1325.16,354.72a4.32,4.32,0,1,1-4.32-4.29A4.3,4.3,0,0,1,1325.16,354.72Z"/><path class="cls-4" d="M1340.35,354.72a4.32,4.32,0,1,1-4.32-4.29A4.3,4.3,0,0,1,1340.35,354.72Z"/><path class="cls-2" d="M1355.54,354.72a4.32,4.32,0,1,1-4.32-4.29A4.31,4.31,0,0,1,1355.54,354.72Z"/><rect class="cls-2" x="1050.46" y="373.13" width="1.85" height="14.43"/><text class="cls-32" transform="translate(1129.57 471.1) scale(1.01 1)"><tspan class="cls-33">C</tspan><tspan x="41.11" y="0">SS</tspan></text><rect class="cls-5" x="1058.61" y="386.48" width="165.25" height="3.91" rx="0.85"/><rect class="cls-28" x="1058.61" y="506.32" width="184.42" height="3.85" rx="0.85"/><path class="cls-1" d="M1267.65,397.4H1060.3a1.68,1.68,0,0,0-1.69,1.67h0a1.68,1.68,0,0,0,1.69,1.67h207.35a1.68,1.68,0,0,0,1.68-1.67h0A1.68,1.68,0,0,0,1267.65,397.4Z"/><rect class="cls-1" x="1058.61" y="516.99" width="178.27" height="3.78" rx="0.85"/><rect class="cls-1" x="1058.61" y="496.59" width="210.92" height="3.96" rx="0.94"/><rect class="cls-5" x="1277.97" y="397.22" width="52.07" height="3.56" rx="0.85"/><rect class="cls-1" x="1058.13" y="375.87" width="60.47" height="3.83" rx="0.85"/><rect class="cls-4" x="915.92" y="100.23" width="219.87" height="217.72" rx="9.06"/><line class="cls-34" x1="1010.01" y1="143.15" x2="1114.36" y2="143.15"/><line class="cls-34" x1="936.14" y1="175.1" x2="1113.52" y2="175.1"/><line class="cls-34" x1="936.14" y1="205.36" x2="1113.52" y2="205.36"/><line class="cls-34" x1="936.14" y1="235.63" x2="1113.52" y2="235.63"/><line class="cls-34" x1="936.14" y1="265.89" x2="1113.52" y2="265.89"/><path class="cls-2" d="M937.42,139.18l18.48-9.38V135l-13.27,6.47,13.27,6.65v5.18l-18.48-9.52Z"/><path class="cls-2" d="M960.51,155l11.17-30.28h4.79L965.34,155Z"/><path class="cls-2" d="M999.56,143.87l-18.48,9.38v-5.19l13.27-6.46L981.08,135V129.8l18.48,9.51Z"/><circle class="cls-2" cx="1358.53" cy="160.6" r="4.74"/><circle class="cls-2" cx="1375.23" cy="160.78" r="4.74"/><path class="cls-35" d="M678.38,516.46c3.94-5.31,8.63-10.69,15.21-12.54,5.33-1.49,11.69-2.22,17.11-.93,2.12.5,2.6-2.85.49-3.35-6-1.43-13-.54-18.86,1.14-7.11,2-12.32,7.8-16.59,13.56-1.3,1.75,1.34,3.87,2.64,2.12Z"/><circle class="cls-9" cx="697.3" cy="523.87" r="7.01"/><circle class="cls-36" cx="697.21" cy="523.77" r="4.75"/><ellipse class="cls-12" cx="693.98" cy="522.07" rx="1.66" ry="1.8"/><path class="cls-7" d="M706.31,600.82a45.55,45.55,0,0,0,24.51-22.43,72.08,72.08,0,0,1-9.61,31.66c-.78,1.34-1.83,2.81-3.38,3s-3-1.3-4-2.6c-2.12-2.67-5.36-6.92-7.48-9.58"/><path class="cls-2" d="M515.77,950.5l7.06,122.9c.51,8.16,6.79,14.49,14.36,14.49h48.56c7.6,0,13.88-6.37,14.36-14.56l6.56-122.83Z"/><rect class="cls-4" x="510.17" y="944.42" width="101.96" height="20.18"/><polygon class="cls-4" points="521.02 945.15 526.72 927.63 597.79 927.63 602.84 945.15 521.02 945.15"/><line class="cls-37" x1="523.4" y1="943.94" x2="599.84" y2="943.94"/><polygon class="cls-4" points="603.89 1036.33 518.55 1036.33 514.85 985.22 607.59 985.22 603.89 1036.33"/><circle class="cls-31" cx="497.61" cy="207.67" r="62.2" transform="translate(184.93 646.97) rotate(-77.21)"/><rect class="cls-4" x="466.45" y="187.95" width="62.32" height="39.02"/><polyline class="cls-38" points="466.45 187.95 496.7 207.67 528.77 187.95"/><circle class="cls-39" cx="437.85" cy="159.24" r="27.43"/><polyline class="cls-40" points="425.64 160.62 435.91 168.12 448.13 152.6"/><rect class="cls-21" x="9.97" y="432.63" width="137.51" height="93.82" rx="4.51"/><rect class="cls-41" x="9.97" y="432.63" width="137.51" height="93.82" rx="4.51"/><path class="cls-2" d="M106.39,464.43a29.91,29.91,0,0,0-11.34-12.91l-14.94,25-29.59,9.56h0a30.55,30.55,0,0,0,1.33,3.42,30,30,0,0,0,54.54-25.06Z"/><path class="cls-4" d="M66.58,449.69a29.89,29.89,0,0,0-14,13.26l27.53,13.56,14.94-25a30.56,30.56,0,0,0-5.51-2.7,30,30,0,0,0-23,.87Z"/><path class="cls-3" d="M52.75,462.63c-.06.11-.11.22-.17.32a30,30,0,0,0-2.06,23.12l29.59-9.56Z"/><path class="cls-4" d="M177.24,576.9H116.56a5.64,5.64,0,0,1-5.63-5.64V515.4a3.47,3.47,0,0,1,3.47-3.47h62.84a3.47,3.47,0,0,1,3.47,3.47v58A3.47,3.47,0,0,1,177.24,576.9Z"/><path class="cls-31" d="M158.66,541.75l-2.24-.39a12.26,12.26,0,0,0-1.16-2.8l1.31-1.87a1.72,1.72,0,0,0-.2-2.21L155,533.14a1.73,1.73,0,0,0-2.21-.16L151,534.29a11.42,11.42,0,0,0-2.8-1.16l-.38-2.29a1.73,1.73,0,0,0-1.67-1.44h-1.94a1.73,1.73,0,0,0-1.7,1.44l-.4,2.23a12.18,12.18,0,0,0-2.79,1.16L137.41,533a1.73,1.73,0,0,0-2.21.19l-1.35,1.35a1.73,1.73,0,0,0-.19,2.21L135,538.6a11.42,11.42,0,0,0-1.16,2.8l-2.24.39a1.72,1.72,0,0,0-1.43,1.7v1.9a1.73,1.73,0,0,0,1.43,1.71l2.24.39a11.42,11.42,0,0,0,1.16,2.8l-1.31,1.87a1.73,1.73,0,0,0,.19,2.21l1.35,1.34a1.73,1.73,0,0,0,2.21.2l1.86-1.31a11.8,11.8,0,0,0,2.8,1.15l.39,2.24a1.75,1.75,0,0,0,1.71,1.44h1.93a1.73,1.73,0,0,0,1.7-1.44l.4-2.24A11.72,11.72,0,0,0,151,554.6l1.83,1.28a1.72,1.72,0,0,0,2.21-.2l1.34-1.34a1.72,1.72,0,0,0,.2-2.21l-1.31-1.88a12.26,12.26,0,0,0,1.16-2.8l2.24-.4a1.71,1.71,0,0,0,1.43-1.7v-1.9A1.73,1.73,0,0,0,158.66,541.75ZM145.11,550a5.64,5.64,0,1,1,5.65-5.64v0A5.64,5.64,0,0,1,145.11,550Z"/></g></g></svg>