<svg xmlns="http://www.w3.org/2000/svg" viewBox="0 0 1919.53 449.47"><defs><style>.cls-1{fill:#1bbfbf;}.cls-2{fill:#0fa8ba;}.cls-3{fill:#eeedef;}.cls-14,.cls-4{fill:#d9d9e2;}.cls-4{opacity:0.88;}.cls-5{fill:#f7b634;}.cls-6{fill:#efb670;}.cls-7{opacity:0.92;}.cls-8{fill:#e0dfde;}.cls-13,.cls-9{opacity:0.14;}.cls-10,.cls-13{fill:#0097cf;}.cls-11{opacity:0.5;}.cls-12{opacity:0.54;}.cls-15,.cls-16,.cls-23,.cls-24{fill:none;stroke-miterlimit:10;}.cls-15{stroke:#eeedef;}.cls-16{stroke:#fff;}.cls-17{fill:#ecbc4f;}.cls-18{fill:#e8792e;}.cls-19{fill:#f47f31;}.cls-20{fill:#364056;}.cls-21{fill:#ffaeab;}.cls-22{fill:#fff;}.cls-23{stroke:#ce6620;}.cls-24{stroke:#364056;}.cls-25{fill:#ce6620;}.cls-26{fill:#db6412;}.cls-27{fill:#11393d;}.cls-28{fill:#1a4850;}.cls-29{fill:#fa968c;}</style></defs><title>aboutus-dark</title><g id="Layer_2" data-name="Layer 2"><g id="Layer_1-2" data-name="Layer 1"><path class="cls-1" d="M0,294.78s352.73,27.86,429.81,0c118-42.65,292.38-27.89,430.26,26.24,131.06,51.45,254.18,3.28,310.66-18s259.16-36.09,456.85,29.52,291.33-3.08,291.33-3.08l.41,119.45L0,448.92Z"/><path class="cls-2" d="M.23,286.09S227,240.25,391.72,310.36c130.51,55.57,369.3,32.07,492.4-7.06s397.17-26.77,490.74,28.26c74.86,44,195.7,48.49,269.49,11.42,117.57-59.08,274.76-13.29,274.76-13.29l.42,119.45L.21,449.47Z"/><path class="cls-3" d="M773.69.76h397.94a17.18,17.18,0,0,1,17.18,17.18V268.33a23.34,23.34,0,0,1-23.34,23.34H779.85a23.34,23.34,0,0,1-23.34-23.34V17.94A17.18,17.18,0,0,1,773.69.76Z"/><rect class="cls-4" x="778.67" y="25.56" width="387.98" height="244.54"/><path class="cls-5" d="M774.76,0H1170.5A18.47,18.47,0,0,1,1189,18.47v13a0,0,0,0,1,0,0H756.29a0,0,0,0,1,0,0v-13A18.47,18.47,0,0,1,774.76,0Z"/><circle class="cls-3" cx="1138.88" cy="17.31" r="2.9"/><circle class="cls-3" cx="1149.01" cy="17.31" r="2.9"/><circle class="cls-3" cx="1158.73" cy="17.31" r="2.9"/><path class="cls-6" d="M802.94,287.23a29.31,29.31,0,0,1,6.57,1.1c2.34.57,4.67,1.16,7,1.82,4.69,1.34,9.23,3.08,13.79,4.76a38,38,0,0,1,7,3.48c.12.07,0,.26-.09.19a35.91,35.91,0,0,0-6-3.13c-2.29-.88-4.59-1.72-6.89-2.57a122.37,122.37,0,0,0-13.71-4.15,35.53,35.53,0,0,0-7.58-1.4c-.06,0-.07-.1,0-.1Z"/><g class="cls-7"><path class="cls-8" d="M857.33,295.67a53.5,53.5,0,0,0,2-21.82A34.18,34.18,0,0,0,850,254.17a59.67,59.67,0,0,0-6.43-5.29c-5.76-4.31-11.51-8.62-17.43-12.71-4.64-3.21-9.52-6.43-12.47-11.14a100.84,100.84,0,0,0,2.09,19.67,42.93,42.93,0,0,0,3.81,11.48c2.89,5.44,7.55,9.77,11.85,14.26A155,155,0,0,1,845.2,287a34.49,34.49,0,0,0,4.17,5.16,16.31,16.31,0,0,0,7.71,4"/><g class="cls-9"><path class="cls-10" d="M832.23,257.48a94.58,94.58,0,0,1,14.86,6.22A37,37,0,0,1,858,272.44a23.31,23.31,0,0,1,1.47,2,53.81,53.81,0,0,1-2.11,21.22l-.25.51a16.46,16.46,0,0,1-7.71-4,34.92,34.92,0,0,1-4.17-5.15,152.94,152.94,0,0,0-13.77-16.55c-4.3-4.49-9-8.82-11.85-14.26a30.77,30.77,0,0,1-1.62-3.62,71.08,71.08,0,0,1,6.78,2.29C827.22,255.75,829.73,256.61,832.23,257.48Z"/></g><g class="cls-11"><path class="cls-10" d="M818,235.67c3.83,8.47,10.79,15.11,17.26,21.74a110.69,110.69,0,0,1,9.12,10.26,69.92,69.92,0,0,1,7.5,12.35,66.62,66.62,0,0,1,5.26,15.77c.05.28-.38.42-.44.14a70.9,70.9,0,0,0-11.92-27c-5.45-7.5-12.59-13.61-18.66-20.62a50.42,50.42,0,0,1-8.28-12.62c0-.1.11-.14.16-.05Z"/></g></g><g class="cls-7"><path class="cls-8" d="M856.2,308.37c-2-8.23-5.93-15.53-12.59-21-4.15-3.43-9-6.06-13-9.68-6.28-5.75-10-13.62-15.45-20.09-7.41-8.72-17.77-14.54-27.91-20.17,10.35,13.8,12,32.44,22.9,45.87,8.93,11,22.95,17.08,36.91,20.94,3.27.9,6.74,1.81,9.1,4.16"/><g class="cls-12"><path class="cls-10" d="M794.18,244.78c9.67,6,15.41,15.94,21.41,25.07A86.89,86.89,0,0,0,826,283.34a40.12,40.12,0,0,0,6.59,5.45c2.69,1.75,5.65,3.08,8.39,4.75a49.26,49.26,0,0,1,15,14c.16.24-.22.44-.38.22a54.07,54.07,0,0,0-13.68-13c-2.68-1.75-5.59-3.1-8.33-4.75a38.41,38.41,0,0,1-6.44-4.88c-8.19-7.64-13.11-17.8-19.55-26.72-3.71-5.14-8-9.95-13.46-13.43-.08-.06,0-.19.08-.13Z"/></g><path class="cls-13" d="M802.73,260.33c3.62,2.35,6,6,8.09,9.76s3.87,7.61,6.71,10.8A23.47,23.47,0,0,0,835,288.55c3.11,0,6.23-.64,9.32-.57,6.24,5.42,10,12.49,11.9,20.44-2.36-2.35-5.82-3.25-9.09-4.16-14-3.86-28-9.92-36.92-20.94-5.91-7.31-9.11-16.16-12.46-24.94A13.49,13.49,0,0,1,802.73,260.33Z"/></g><path class="cls-5" d="M837.27,298.44c-10.53-6.38-20.9-12.8-33.31-13.94a14.25,14.25,0,0,0-7.17.79c-.73.33-1.5.91-1.47,1.69a1.73,1.73,0,0,0,.38.93c1.07,1.43,3,1.87,4.87,2.16,12.45,2,25.59,2.53,36.63,8.41"/><path class="cls-5" d="M853.19,297.27a82.38,82.38,0,0,0-38.48-29.58c-3.31-1.26-6.85-2.33-10.39-1.92-1.32.15-3,1-2.63,2.25a2.17,2.17,0,0,0,.74,1c2.07,1.88,4.77,3,7.41,4,7.95,3.11,15.94,6.22,23.43,10.25a102.17,102.17,0,0,1,19.92,14"/><path class="cls-6" d="M807.37,268a201.62,201.62,0,0,1,19.72,8.55,84.74,84.74,0,0,1,9.08,5.43c3.05,2.1,6,4.38,8.81,6.7a33.76,33.76,0,0,1,4.06,3.58c1.17,1.32,2.19,2.75,3.4,4,.09.1-.05.26-.15.16-1-1.08-1.91-2.26-2.86-3.4a19.28,19.28,0,0,0-1.56-1.7c-.6-.56-1.27-1.07-1.92-1.59-2.83-2.32-5.69-4.61-8.68-6.75a104,104,0,0,0-18.82-10.36c-3.67-1.61-7.39-3.1-11.11-4.61,0,0,0-.06,0-.05Z"/><path class="cls-5" d="M854.45,293.87c-4.11-6.23-8.25-12.51-11.19-19.33-2.29-5.31-3.93-11.07-7.85-15.41a4.13,4.13,0,0,0-2.6-1.59,2.92,2.92,0,0,0-2.58,1.47,5.16,5.16,0,0,0-.6,2.94c.16,3.11,1.78,5.94,3.47,8.59,5.51,8.65,9.64,16.65,21.35,23.33"/><path class="cls-6" d="M834.24,264.19c4.07,8.08,8.37,16.15,14.21,23.19.84,1,1.71,2,2.61,2.95s1.89,1.88,2.83,2.83a.1.1,0,0,1-.13.14,43.5,43.5,0,0,1-4.81-5,66.2,66.2,0,0,1-4.19-5.41A114.25,114.25,0,0,1,837.65,271c-1.19-2.26-2.34-4.54-3.47-6.83,0,0,0-.06.06,0Z"/><path class="cls-14" d="M1382.22,322.9c-4.89-17.17-22.18-54.75-41.82-52.58-22.64,2.5,22.2,43.52,22.2,43.52s-31.37-24.19-42.7-10.14,38.5,23,38.5,23-26.22-5.45-23.62,5,46.31,7.45,49.37,17.49S1385.56,334.68,1382.22,322.9Z"/><path class="cls-15" d="M1384.06,345c-4.28-18.22-12.09-35.89-23.48-50.78a106.33,106.33,0,0,0-14-15.11"/><path class="cls-15" d="M1383.78,345.33c-11.87-19.67-32.07-34-54.38-37.69"/><path class="cls-15" d="M1383.52,345.48c-10.73-8.73-24.36-13.23-38-14.2"/><path class="cls-14" d="M1389.2,322.08c4.88-17.18,22.17-54.75,41.81-52.59,22.65,2.5-22.19,43.53-22.19,43.53s31.37-24.2,42.69-10.15-38.49,23-38.49,23,26.22-5.45,23.62,5-46.32,7.44-49.37,17.49S1385.85,333.85,1389.2,322.08Z"/><path class="cls-16" d="M1387.35,344.18c4.29-18.22,12.09-35.88,23.49-50.78a106.22,106.22,0,0,1,14-15.11"/><path class="cls-16" d="M1387.64,344.5c11.86-19.67,32.06-34,54.37-37.69"/><path class="cls-16" d="M1387.89,344.65c10.74-8.73,24.37-13.23,38.06-14.2"/><path class="cls-4" d="M1373.57,305.5c-4.45-26.62-6.19-88,18.77-94.23,28.78-7.19-.59,72.11-.59,72.11s23.26-49.1,45.35-34.6-32.54,50.85-32.54,50.85,28.32-20.14,31.46-4.14-51.33,32.49-49,48.15S1376.61,323.75,1373.57,305.5Z"/><path class="cls-16" d="M1384.62,337.65c-5.78-27.81-7-56.51-2.22-83a150.84,150.84,0,0,1,7.83-28"/><path class="cls-16" d="M1385.16,338c2.47-33.46,18.18-63.36,42.86-79.11"/><path class="cls-16" d="M1385.56,338.06c7.69-17.44,21.4-30.27,37.31-38.14"/><path class="cls-17" d="M583.2,294.85c.55-6.24-8.31-4.33-11.59-2.4-6.38,3.77-16.34,15.79-18.35,19.66-.09-1.52-.22-3-.4-4.56q-.5-4.24-1-8.48c4.19-1.36,13.26-3.79,20.54-15.07,1.22-1.89,2.67-4.52,1.59-6.77-1.51-3.13-4.24-.68-5.92.92-2.88,2.73-12.09,12.77-16.64,17.2-.65-5.66-1.29-11.32-2-17,7.47-4.09,16.52-9.11,19.7-17.59,2.08-5.55-4.13-5.3-7.31-3.4-5.7,3.4-10.06,9.66-13,15.94-.32-2.66-.66-5.31-1-8-.06-.48-.13-1-.19-1.43,3.85-1.69,7.73-2.92,10.88-5.92a16.63,16.63,0,0,0,4.74-11.27c.11-1.85.51-4.08-.78-5.68-1.81-2.23-3.09.79-4,2.5a115.33,115.33,0,0,1-6.47,10.6c-1.28,1.86-2.43,3.65-3.5,5.56a16,16,0,0,1-1.23,1.73c-.53-3.77-1.15-7.55-1.85-11.3,5.17-5,11.38-11.13,12.07-18.74.44-5-4.56-3.4-6.73-1.13-3.36,3.52-5.43,8.55-6.56,13.6-.34-1.63-.68-3.26-1-4.88,4-7.45,9-16.62,7-25.36-1.28-5.55-6.22-2-7.8,1.28a27.92,27.92,0,0,0-2.52,10.6c-.2-.72-.4-1.45-.61-2.17-.49-1.73-1-3.42-1.64-5.09,4.22-5.86,9.33-13,8.67-20.65-.43-5-5.08-2.54-6.82.07-2.76,4.14-3.9,9.63-4.1,14.9-1.06-2.48-2.21-4.92-3.4-7.34,2.67-5.26,5.87-11.64,4.38-17.71-1-4-4.44-1.42-5.52.91a23.15,23.15,0,0,0-1.55,11.47c-1.35-2.63-2.7-5.26-4-7.92.33-2.64.45-5.45.51-7.89.06-2.89-.31-6.11-2.71-8.09-3.16-2.6-5.74-1.1-6.33,2.78a9.47,9.47,0,0,0,.69,5,8.09,8.09,0,0,0-4.15-1.53,2.8,2.8,0,0,0-2.64,1.14c-.76,1.2-.34,3.14.73,4.67,1.88,2.71,5.12,4.17,7.8,5.93a19.17,19.17,0,0,1,2.35,1.88c1,.94,2,1.93,3.06,2.79q1.34,2.59,2.65,5.21h0c-3.24-3.59-7.44-6.88-11.94-8-2.49-.6-6.65.5-4.14,3.75,4,5.21,11.55,6.57,17.49,7.79l.26-.19c.39.81.78,1.61,1.16,2.43a.63.63,0,0,0,.07.12,108.42,108.42,0,0,1,5.13,12.82v0a19.92,19.92,0,0,0-3.87-3c-2.53-1.47-7.43-1.61-5.74,2.74,2.18,5.6,7.6,9.22,12.79,12.11,1.44,5.92,2.69,11.91,3.76,17.91-2.54-5.15-6.22-10.2-11-13-2.71-1.57-8-1.72-6.15,2.95,2.91,7.49,11.24,11.68,17.76,15.16l.2-.06h0c.46,2.82.88,5.66,1.25,8.48.18,1.39.37,2.78.53,4.17h0c-3.35-7.19-8.17-14.28-14.31-18.18-3.5-2.22-10.24-2.52-7.84,4,3.85,10.37,14.54,16.3,23,21.22h0c.45,3.95.86,7.91,1.29,11.86-5.07-5.32-14.93-17-18.42-20.45-1.63-1.64-5.89-5-7.56-1.46-.92,2,.85,6.15,1.95,7.9,2.46,3.9,15.32,14.32,24.73,20.11h0c.32,2.81.66,5.61,1,8.41.14,1,.26,2.07.37,3.1-6.82-8.53-21.25-24.28-26.1-26.66-2.47-1.21-6.81-2.56-8.67.27s2,6.48,3.53,8.77c3.57,5.28,20,16.68,23.38,18.35,2.59,1.29,5.57,2.07,8.18,3.2,0,0,0,.09,0,.13.14,2.33.21,4.63.22,6.93l-.45-.28c-7.5-4.88-22.79-16.22-28-19.44-2.42-1.49-8.47-4.36-9.47.38-.55,2.62,2.74,7.13,4.56,8.91,3.76,3.71,20,11.67,32.58,16.21l.69.23c-.23,7.48-.82,14.93-1,22.65-.06,2.33,3.57,2.63,3.63.29.25-11.15,1.68-21.91,1.2-32.95C566.08,310.91,583,297.68,583.2,294.85Z"/><path class="cls-18" d="M594.13,332c3.2-3.36-2.81-6.34-5.6-6.73-5.44-.76-16.74,1.61-19.68,2.93.65-.92,1.27-1.86,1.87-2.83q1.66-2.69,3.35-5.35a25.34,25.34,0,0,0,18.82.74c1.58-.54,3.63-1.39,4-3.19.57-2.51-2.14-2.35-3.85-2.2-2.92.26-12.88,1.82-17.55,2.3,2.23-3.58,4.47-7.15,6.68-10.74,6.22,1.08,13.77,2.34,19.51-1.11,3.76-2.25,0-5-2.66-5.33-4.87-.66-10.28.95-14.88,3.24,1-1.7,2.06-3.39,3.08-5.09.19-.3.37-.61.55-.91,3,.79,5.82,1.87,9,1.58a12.33,12.33,0,0,0,7.94-4.34c.91-1,2.17-2.13,2.15-3.65,0-2.12-2.15-1-3.46-.4a84,84,0,0,1-8.62,3.16c-1.6.49-3.09,1-4.59,1.61a11.93,11.93,0,0,1-1.51.43q2.14-3.64,4.13-7.4c5.31-.52,11.72-1.19,15.62-5.28,2.56-2.69-1.08-4.07-3.38-3.75a21.33,21.33,0,0,0-10.06,4.84c.56-1.09,1.11-2.2,1.64-3.3,5.73-2.49,12.87-5.48,15.72-11.47,1.81-3.81-2.7-4-5.11-2.86a20.51,20.51,0,0,0-6.34,5c.22-.51.43-1,.65-1.54.51-1.23,1-2.46,1.39-3.7,5.14-1.45,11.39-3.23,14.53-8,2.05-3.09-1.77-3.82-4-3.11-3.5,1.13-6.68,3.78-9.23,6.74.53-1.93,1-3.87,1.41-5.82,4-1.81,8.76-4,10.69-8.23,1.27-2.76-1.91-2.87-3.61-2a17,17,0,0,0-6.18,5.92c.43-2.15.86-4.29,1.31-6.44,1.41-1.38,2.77-2.95,3.93-4.34,1.37-1.64,2.64-3.68,2.16-5.93-.63-3-2.82-3.28-4.94-1.31a7,7,0,0,0-1.92,3.23,6,6,0,0,0-1.7-2.8,2.06,2.06,0,0,0-2.06-.55c-1,.34-1.63,1.66-1.72,3-.16,2.43,1,4.77,1.79,7a14.23,14.23,0,0,1,.49,2.17c.16,1,.27,2,.49,3l-.87,4.24h0c-.23-3.57-1.14-7.41-3.24-10.12-1.16-1.5-4.08-2.78-4.12.26-.07,4.87,3.66,9.13,6.54,12.57H603c-.14.65-.29,1.29-.44,1.94a.87.87,0,0,1,0,.1,80.8,80.8,0,0,1-2.93,9.8h0a14.74,14.74,0,0,0-.86-3.52c-.79-2-3.56-4.35-4.59-1.05-1.31,4.24.16,8.84,1.84,12.9-1.9,4.09-3.93,8.14-6.08,12.11.9-4.15,1.1-8.78-.38-12.55-.84-2.16-3.81-4.67-4.91-1.13-1.77,5.68,1.13,11.95,3.3,17l.15.05h0q-1.56,2.78-3.18,5.49L583.28,300h0c1.37-5.7,1.84-12,.08-17.12-1-2.9-4.77-6.18-6.37-1.31-2.54,7.77.92,16.14,3.53,22.86h0q-2.34,3.73-4.72,7.46c-.48-5.42-.83-16.7-1.24-20.33-.2-1.7-1.1-5.63-3.71-4.33-1.45.72-2.34,4-2.51,5.47-.37,3.39,2.28,15.35,5,23h0c-1.1,1.77-2.2,3.55-3.26,5.35-.4.67-.8,1.32-1.21,2,0-8.08-1.12-23.85-2.84-27.46-.87-1.84-2.76-4.62-5.15-3.84s-1.83,4.67-2,6.71c-.36,4.7,3.92,18.89,5.09,21.39.91,2,2.27,3.77,3.26,5.63l-.06.08c-1,1.41-2,2.78-3.06,4.11,0-.12-.08-.24-.13-.37-2.09-6.28-5.72-19.89-7.25-24.16-.72-2-2.9-6.42-5.66-4.14-1.53,1.27-1.69,5.39-1.46,7.26.47,3.89,6.18,16,11.4,24.4.09.16.19.31.29.46-3.57,4.22-7.35,8.26-11,12.65-1.1,1.32.86,3.17,2,1.84,5.28-6.34,11.06-11.91,15.86-18.53C576.83,333.41,592.69,333.52,594.13,332Z"/><g class="cls-7"><path class="cls-8" d="M547.87,333c.86-9.08.42-18.39-2.32-27.09s-7.89-16.79-15.27-22.15a70.49,70.49,0,0,0-8.71-5.16c-7.71-4.09-15.42-8.18-23.28-12-6.15-3-12.59-5.91-17.08-11.07a129.09,129.09,0,0,0,6.71,23.62,54.73,54.73,0,0,0,7,13.27c4.58,6,11,10.4,17,15a191.45,191.45,0,0,1,19.79,17.42,43.15,43.15,0,0,0,6,5.45,19.39,19.39,0,0,0,9.95,3.36"/><g class="cls-9"><path class="cls-10" d="M510.06,291.41A110.59,110.59,0,0,1,528.9,296a44.91,44.91,0,0,1,14.7,8.47c.75.68,1.47,1.4,2.16,2.14a69.57,69.57,0,0,1,2.1,26.38l-.19.67a19.39,19.39,0,0,1-9.95-3.36,42.61,42.61,0,0,1-6-5.45,191.35,191.35,0,0,0-19.78-17.42c-6-4.61-12.46-9-17-15a39.76,39.76,0,0,1-2.69-4.11c2.85.27,5.66.87,8.48,1.42C503.78,290.32,506.92,290.85,510.06,291.41Z"/></g><g class="cls-11"><path class="cls-10" d="M488.6,267.65c6.34,9.57,16,16.27,25,23.06a136.37,136.37,0,0,1,13,10.67A89.32,89.32,0,0,1,538.09,315a85.39,85.39,0,0,1,9.59,18.21c.12.33-.36.59-.49.26a90.2,90.2,0,0,0-19.85-30.55c-8.05-8.05-17.78-14.07-26.44-21.4a63.46,63.46,0,0,1-12.48-13.74c-.07-.11.11-.2.18-.09Z"/></g></g><g class="cls-7"><path class="cls-8" d="M549.28,348.74c-4.13-9.66-10.34-17.78-19.36-23.14-5.63-3.35-11.9-5.57-17.36-9.2-8.64-5.74-14.68-14.62-22.54-21.4-10.6-9.15-24.07-14.15-37.22-19C468,290.79,474,313.25,489.67,327.44c12.9,11.66,30.72,16.2,48,18.07,4,.44,8.32.84,11.61,3.23"/><g class="cls-12"><path class="cls-10" d="M462.51,283.64C475.2,289,484.1,300,493.14,309.93a107.4,107.4,0,0,0,15.16,14.38,48.56,48.56,0,0,0,8.94,5.31c3.55,1.59,7.32,2.61,10.91,4.1a60.16,60.16,0,0,1,20.64,14c.24.25-.16.58-.4.34a66.37,66.37,0,0,0-18.92-13.16c-3.54-1.59-7.26-2.64-10.85-4.1a46.23,46.23,0,0,1-8.62-4.65c-11.3-7.67-19.29-19.09-28.81-28.68-5.48-5.53-11.57-10.53-18.74-13.68a.09.09,0,0,1,.06-.18Z"/></g><path class="cls-13" d="M475.93,300.92c4.78,2.13,8.43,6.15,11.64,10.28s6.2,8.52,10.24,11.84a27.73,27.73,0,0,0,22.18,5.8c3.66-.66,7.19-2.06,10.85-2.6,8.52,5.36,14.45,13.24,18.43,22.56-3.28-2.39-7.56-2.78-11.6-3.22-17.29-1.88-35.1-6.42-48-18.07-8.55-7.73-14.22-17.9-20.06-27.95A15.74,15.74,0,0,1,475.93,300.92Z"/></g><path class="cls-19" d="M524.85,340.47c-13.79-5.66-27.38-11.39-42.24-10.25-2.9.22-5.9.75-8.28,2.43-.79.55-1.56,1.42-1.36,2.36a2.11,2.11,0,0,0,.65,1.06c1.56,1.54,4,1.66,6.19,1.65,15.1-.09,30.68-2.13,45,2.81"/><path class="cls-6" d="M482,333.77a33.29,33.29,0,0,1,8,0c2.88.21,5.75.46,8.62.8,5.8.68,11.52,1.88,17.26,3a45.39,45.39,0,0,1,8.95,2.82c.16.07.08.32-.07.25a42.79,42.79,0,0,0-7.78-2.59c-2.88-.61-5.77-1.16-8.66-1.73a145.89,145.89,0,0,0-17-2.29,41.3,41.3,0,0,0-9.23-.15c-.07,0-.1-.11,0-.12Z"/><path class="cls-19" d="M543.34,335.78a99.54,99.54,0,0,0-51.71-28.31c-4.17-.86-8.56-1.45-12.64-.23-1.53.45-3.28,1.85-2.61,3.3a2.74,2.74,0,0,0,1.08,1.08c2.85,1.88,6.26,2.63,9.59,3.36,10,2.18,20.11,4.35,29.8,7.75a123.54,123.54,0,0,1,26.49,13"/><path class="cls-6" d="M483.06,309.38a235,235,0,0,1,25.07,6.42A101.46,101.46,0,0,1,520,320.58c4,1.95,8,4.15,11.82,6.41a40.14,40.14,0,0,1,5.55,3.54c1.66,1.37,3.18,2.92,4.88,4.24.13.1,0,.33-.14.23-1.44-1.11-2.74-2.38-4.1-3.57a25.08,25.08,0,0,0-2.21-1.76c-.83-.57-1.73-1.05-2.6-1.56-3.84-2.25-7.7-4.47-11.68-6.47a123.4,123.4,0,0,0-24.41-8.84c-4.66-1.22-9.37-2.28-14.07-3.36,0,0,0-.07,0-.06Z"/><path class="cls-19" d="M544.09,331.37c-6.19-6.78-12.42-13.61-17.35-21.35-3.85-6-7-12.74-12.58-17.24a4.91,4.91,0,0,0-3.4-1.41,3.43,3.43,0,0,0-2.72,2.32,6.54,6.54,0,0,0-.07,3.72c.85,3.77,3.38,6.9,5.93,9.79,8.37,9.45,15,18.39,30.19,24.17"/><path class="cls-6" d="M513.87,299.2c6.54,9.05,13.35,18,21.76,25.46,1.2,1.06,2.43,2.09,3.7,3.07s2.63,1.92,3.94,2.88c.12.09,0,.28-.12.2a53.72,53.72,0,0,1-6.74-5.1q-3.2-2.73-6.1-5.76a143.91,143.91,0,0,1-10.94-13.07q-2.83-3.78-5.56-7.63s0-.09.06-.05Z"/><path class="cls-1" d="M1133.19,299.75c7-15.46,14.17-30.69,13.26-47.55-.18-3.29-.72-6.7-2.62-9.44-.63-.91-1.62-1.81-2.74-1.61a2.49,2.49,0,0,0-1.26.71c-1.86,1.73-2.07,4.48-2.12,7-.33,17.1,1.63,34.8-4.59,50.82"/><path class="cls-6" d="M1142.55,245.88a36.38,36.38,0,0,1,.13,9c-.19,3.27-.43,6.53-.77,9.78-1.35,12.76-1,7.83-3.24,19.6a50.19,50.19,0,0,1-3.16,10.2c-.08.17-.37.1-.3-.08a47.26,47.26,0,0,0,2.91-8.85c.66-3.28,1.27-6.57,1.89-9.85a159.34,159.34,0,0,0,2.38-19.34c.22-3.46.61-7,0-10.46,0-.08.12-.12.14,0Z"/><path class="cls-19" d="M1131.72,303a111.92,111.92,0,0,0,34.77-57.78c1.13-4.7,1.94-9.65.63-14.31-.49-1.74-2.08-3.76-3.8-3.05A3.36,3.36,0,0,0,1162,229c-2.28,3.17-3.27,7-4.22,10.77-2.85,11.31-5.7,22.65-10,33.53a138.25,138.25,0,0,1-16.1,29.64"/><path class="cls-6" d="M1164.49,235.41a261.88,261.88,0,0,1-8.27,28.22,113,113,0,0,1-6,13.3c-2.4,4.52-5.1,8.89-7.86,13.21a45.16,45.16,0,0,1-4.33,6.19c-1.66,1.85-3.52,3.52-5.12,5.41-.13.14-.39,0-.27-.16,1.35-1.6,2.87-3,4.31-4.55a27.27,27.27,0,0,0,2.13-2.45c.7-.93,1.29-1.93,1.92-2.91,2.75-4.28,5.47-8.59,7.94-13a137.15,137.15,0,0,0,11.09-27.4c1.57-5.25,3-10.55,4.35-15.84,0,0,.09,0,.08,0Z"/><path class="cls-1" d="M1136.88,303.91c8.15-6.82,16.36-13.68,25.6-19.05,7.2-4.19,15.18-7.6,20.63-13.77,1-1.09,1.88-2.39,1.76-3.82a3.92,3.92,0,0,0-2.65-3.14,8.14,8.14,0,0,0-4.38-.18c-4.45.86-8.2,3.64-11.67,6.45-11.36,9.21-22.06,16.43-29.29,33.51"/><path class="cls-6" d="M1175.57,270.59c-10.83,7.15-21.59,14.62-30.55,23.93q-1.93,2-3.72,4.11c-1.22,1.43-2.33,2.93-3.5,4.38-.11.14-.33,0-.24-.14a61.56,61.56,0,0,1,6.2-7.5q3.3-3.53,6.94-6.74a165.82,165.82,0,0,1,15.69-12c3-2.07,6.06-4.09,9.13-6.09,0,0,.1.05,0,.08Z"/><g class="cls-11"><path d="M899.25,155.58a1.23,1.23,0,0,1-.45,1,1.58,1.58,0,0,1-1.08.39,1.38,1.38,0,0,1-1.37-.94l-2.78-6.36H878.79L876,156a1.38,1.38,0,0,1-1.38.94,1.67,1.67,0,0,1-1.1-.41,1.29,1.29,0,0,1-.47-1,1.55,1.55,0,0,1,.16-.63L884.43,130a1.7,1.7,0,0,1,.7-.82,2.05,2.05,0,0,1,1-.27A1.9,1.9,0,0,1,887.9,130l11.21,24.95A1.42,1.42,0,0,1,899.25,155.58ZM880,147h12.39l-6.23-14.08Z"/><path d="M923.19,144.91a6.87,6.87,0,0,1,1.31,4.31,6.73,6.73,0,0,1-2.39,5.59c-1.59,1.3-3.85,1.94-6.77,1.94h-9.89a1.66,1.66,0,0,1-1.2-.43,1.48,1.48,0,0,1-.45-1.14V130.67a1.53,1.53,0,0,1,.45-1.14,1.71,1.71,0,0,1,1.2-.43h9.45a10.43,10.43,0,0,1,6.62,1.88,7.11,7.11,0,0,1,1.2,9.18,6.73,6.73,0,0,1-3.24,2.39A6.59,6.59,0,0,1,923.19,144.91ZM907,141.34h7.45a7.33,7.33,0,0,0,4.68-1.26,4.35,4.35,0,0,0,1.59-3.65q0-4.68-6.27-4.7H907Zm12.84,11.51a4.44,4.44,0,0,0,1.55-3.75q0-5.1-6.35-5.1h-8v10.05h8a7.84,7.84,0,0,0,4.79-1.16Z"/><path d="M935.11,155.34a11.27,11.27,0,0,1-4.37-4.9,17.11,17.11,0,0,1-1.53-7.49,17.5,17.5,0,0,1,1.51-7.55,11.08,11.08,0,0,1,4.35-4.91,14.13,14.13,0,0,1,13.45,0,11,11,0,0,1,4.35,4.91,19.32,19.32,0,0,1,0,15,11.2,11.2,0,0,1-4.37,4.92,13.76,13.76,0,0,1-13.37,0Zm13.53-4c1.64-2,2.45-4.81,2.45-8.45s-.81-6.44-2.43-8.44a9.43,9.43,0,0,0-13.34-.36l-.36.36c-1.64,2-2.46,4.78-2.46,8.42s.82,6.47,2.48,8.47a9.37,9.37,0,0,0,13.24.45c.15-.15.3-.29.44-.45Z"/><path d="M962.78,154.24q-2.79-2.82-2.79-8.31V130.55a1.63,1.63,0,0,1,.43-1.19,1.57,1.57,0,0,1,1.18-.46,1.52,1.52,0,0,1,1.14.46,1.68,1.68,0,0,1,.43,1.19V146.2c0,2.7.66,4.72,2,6.08a9.29,9.29,0,0,0,11.62,0c1.31-1.36,2-3.38,2-6.08V130.55a1.64,1.64,0,0,1,.45-1.19,1.62,1.62,0,0,1,1.16-.46,1.54,1.54,0,0,1,1.17.46,1.63,1.63,0,0,1,.44,1.19v15.38c0,3.63-.94,6.4-2.81,8.29s-4.58,2.85-8.17,2.85S964.63,156.13,962.78,154.24Z"/><path d="M995.69,156.5a1.61,1.61,0,0,1-.45-1.2V131.85h-8.43a1.53,1.53,0,0,1-1.1-.36,1.28,1.28,0,0,1-.39-1,1.33,1.33,0,0,1,.39-1,1.61,1.61,0,0,1,1.1-.35H1007a1.61,1.61,0,0,1,1.1.35,1.3,1.3,0,0,1,.39,1,1.28,1.28,0,0,1-.39,1,1.51,1.51,0,0,1-1.1.36h-8.42v23.49a1.71,1.71,0,0,1-.43,1.2,1.58,1.58,0,0,1-1.18.45A1.62,1.62,0,0,1,995.69,156.5Z"/><path d="M1024.73,154.24q-2.79-2.82-2.79-8.31V130.55a1.68,1.68,0,0,1,.43-1.19,1.57,1.57,0,0,1,1.18-.46,1.52,1.52,0,0,1,1.14.46,1.67,1.67,0,0,1,.43,1.19V146.2c0,2.7.66,4.72,2,6.08a9.29,9.29,0,0,0,11.62,0c1.31-1.36,2-3.38,2-6.08V130.55a1.6,1.6,0,0,1,.45-1.19,1.62,1.62,0,0,1,1.16-.46,1.57,1.57,0,0,1,1.18.46,1.68,1.68,0,0,1,.43,1.19v15.38c0,3.63-.94,6.4-2.81,8.29s-4.59,2.85-8.17,2.85S1026.58,156.13,1024.73,154.24Z"/><path d="M1053.72,156.18a11.11,11.11,0,0,1-4.29-2.37,1.79,1.79,0,0,1-.59-1.37,1.51,1.51,0,0,1,.31-1,.94.94,0,0,1,.75-.41,1.86,1.86,0,0,1,1.1.43,13.18,13.18,0,0,0,8.31,2.82,8.73,8.73,0,0,0,5.17-1.29,4.26,4.26,0,0,0,1.8-3.69,3,3,0,0,0-.86-2.22,6.1,6.1,0,0,0-2.27-1.35,35.66,35.66,0,0,0-3.8-1.06,36.72,36.72,0,0,1-5.27-1.57,8.21,8.21,0,0,1-3.34-2.35,6,6,0,0,1-1.27-4,7.11,7.11,0,0,1,1.27-4.18,8.31,8.31,0,0,1,3.57-2.82,13.07,13.07,0,0,1,5.24-1,15.3,15.3,0,0,1,5.11.84,11,11,0,0,1,4,2.41,1.92,1.92,0,0,1,.63,1.38,1.56,1.56,0,0,1-.32,1,.91.91,0,0,1-.74.41,2.38,2.38,0,0,1-1.14-.43,13.13,13.13,0,0,0-3.57-2.2,11,11,0,0,0-4-.63,8.24,8.24,0,0,0-5.06,1.36,4.43,4.43,0,0,0-1.81,3.78,3.46,3.46,0,0,0,1.59,3.12,15.87,15.87,0,0,0,4.89,1.82c2.36.58,4.23,1.11,5.59,1.59a8.4,8.4,0,0,1,3.4,2.18,5.46,5.46,0,0,1,1.35,3.88,6.78,6.78,0,0,1-1.27,4.08,8.33,8.33,0,0,1-3.59,2.75,13.34,13.34,0,0,1-5.29,1A17.81,17.81,0,0,1,1053.72,156.18Z"/></g><path class="cls-20" d="M784.57,103.84l8.82-.08a1.74,1.74,0,0,1,1.55,2.57l-7.23,13.53a1.74,1.74,0,0,1-1.48.92l-8.46.28a1.74,1.74,0,0,1-1.61-2.53L783,104.8A1.72,1.72,0,0,1,784.57,103.84Z"/><path class="cls-18" d="M765.38,148.05l7.75.53s-4.87-12,.9-18.45l-5.59-22Z"/><path class="cls-21" d="M730,65.73s7.46,18.44,17.53,14.46,3.82-24.44,1.32-26-6,2.85-9.43,5.21-3.25,1.58-5.43,1.45S727.71,59.07,730,65.73Z"/><path d="M732.29,57.94s10.74,8.18,20-2,.94-12.79-8.51-11-9.15,1.58-13.81,1.32S717.84,55.21,732.29,57.94Z"/><path d="M735.13,56.27s7.46,4.79.35,5.25c-2.4.16-6-1.45-5.38,3.06s5.47,7.16,4,9.28-15.33-.92-15.44-13.09S735.13,56.27,735.13,56.27Z"/><path class="cls-21" d="M734.23,73.11,731.8,87.86s.66,7.21,6.08,7.31S744,85.05,744,85.05l.6-4.4S740.15,80.42,734.23,73.11Z"/><path class="cls-18" d="M732,86.28s-19.92.82-26.8,8.18c-7.74,8.28-24.12,31.07-5.46,51.8L695,174.87s42.41,3.08,65.62-5.24c0,0,14.84-56.8,5.42-68.44A49.19,49.19,0,0,0,744,85.88s-.2,6.34-5.46,6.38S732,86.28,732,86.28Z"/><path class="cls-20" d="M695,174.84,672.4,340.77l15.94,1.36,38-125.31S737,343.51,737.93,343.2s15.93-.74,15.93-.74l6.8-172.83A228.16,228.16,0,0,1,695,174.84Z"/><path class="cls-21" d="M718.56,134.09s-8.81,5.16-7.73,12.12,12.23,4.25,13.53,3.52,44.07-23.62,46.1-23.93,14.37.31,14.79-2a7,7,0,0,0-.62-4.2s-6.54-.82-7.7-.81,1.57-3.64,2.28-4.52-.3-2.18-2-1.29-7.49,6.75-7.49,6.75Z"/><path class="cls-21" d="M773.36,130.29s-4.8,5-.9,18.45c0,0,44.85-37.58,47.26-38.05s14-3.15,14.62-4.66-2.44-2.25-2.45-2.85,1.48-4.1,8.12-5.06c4.17-.61,1.22-2.44-3.5-2.69C826.84,94.91,773.36,130.29,773.36,130.29Z"/><path class="cls-17" d="M673.51,343.16l12.42.58.56,12-15.83,3.48L655.71,359s-1-3.9,4.77-6.71A51.25,51.25,0,0,0,673.51,343.16Z"/><path class="cls-20" d="M655.71,359l0,2.3a143.56,143.56,0,0,0,15,.11c7-.41,15.82-3.47,15.82-3.47l-.09-2.51s-12.56,3.24-16.23,3.58C667.68,359.21,655.71,359,655.71,359Z"/><path class="cls-22" d="M664.07,351.32a6.72,6.72,0,0,1,2.68-.08,5.48,5.48,0,0,1,2.22,1,.51.51,0,0,0,.71,0,.5.5,0,0,0,0-.71,6.46,6.46,0,0,0-2.67-1.26,7.9,7.9,0,0,0-3.21.08.5.5,0,1,0,.27,1Z"/><path class="cls-22" d="M667.06,349.48c1.43-.12,3.12-.23,4.21.88a.5.5,0,0,0,.71-.7c-1.29-1.33-3.21-1.33-4.92-1.18a.5.5,0,0,0,0,1Z"/><path class="cls-22" d="M670.11,347.28a10.09,10.09,0,0,1,1.84.09,3.24,3.24,0,0,1,1.59.63.51.51,0,0,0,.7,0,.5.5,0,0,0,0-.71,6.18,6.18,0,0,0-4.13-1,.5.5,0,0,0,0,1Z"/><path class="cls-22" d="M659.92,353.47c2.34-.12,4.87-.23,7,1,.55.34,1-.53.51-.86-2.24-1.37-4.94-1.31-7.46-1.18-.64,0-.65,1,0,1Z"/><polygon class="cls-20" points="685.95 343.74 673.48 343.15 673.64 341.65 686.04 342.25 685.95 343.74"/><path class="cls-17" d="M752.1,344.93l-12.41.79-.36,12,15.89,3.21,14.95-.49s.88-3.92-4.89-6.63A51.25,51.25,0,0,1,752.1,344.93Z"/><path class="cls-20" d="M770.17,360.41l0,2.3a145.24,145.24,0,0,1-15,.38c-7-.29-15.87-3.2-15.87-3.2l.05-2.51s12.61,3,16.28,3.29C758.2,360.87,770.17,360.41,770.17,360.41Z"/><path class="cls-22" d="M761.93,352a8,8,0,0,0-3.23,0,6.5,6.5,0,0,0-2.63,1.3.5.5,0,1,0,.71.71,5.43,5.43,0,0,1,2.19-1.05,6.82,6.82,0,0,1,2.7,0,.52.52,0,0,0,.61-.35.51.51,0,0,0-.35-.62Z"/><path class="cls-22" d="M758.64,350.13c-1.71-.12-3.63-.09-4.9,1.26-.44.46.27,1.17.71.7,1.07-1.13,2.76-1.06,4.19-1a.5.5,0,0,0,.5-.5.51.51,0,0,0-.5-.5Z"/><path class="cls-22" d="M755.56,348a6.21,6.21,0,0,0-4.12,1.08.5.5,0,1,0,.7.71,3.26,3.26,0,0,1,1.57-.66,5.93,5.93,0,0,1,.87-.1c.33,0,.65,0,1,0a.5.5,0,0,0,0-1Z"/><path class="cls-22" d="M765.85,354c-2.52-.08-5.23-.1-7.43,1.31-.55.34,0,1.21.5.86,2.06-1.31,4.59-1.24,6.93-1.17a.5.5,0,0,0,0-1Z"/><polygon class="cls-20" points="739.67 345.73 752.13 344.91 751.93 343.42 739.55 344.23 739.67 345.73"/><path class="cls-23" d="M718.32,133.8a29.4,29.4,0,0,1-4.57-2.9,10,10,0,0,1-3.2-4.29,14.88,14.88,0,0,1-.38-6.06"/><path class="cls-24" d="M695.67,171.15c10.44.36,37.73-1.81,44.27-2.29s15.17-2,21.63-3.16"/><path class="cls-25" d="M715.71,136.21a15.39,15.39,0,0,0-3.49,3.93,8,8,0,0,0-1.31,4.48,6,6,0,0,0,.83,3.89c1.39,1.85,4,2.53,6.19,2.37-1.6.18-3.69.68-5.29.43a6.23,6.23,0,0,1-4.13-2.26,6.43,6.43,0,0,1-1.06-2.72,10.5,10.5,0,0,1,2.49-8.67c1.1-1.25,6.25-4.6,7.92-3.13C717.07,135.09,716.3,135.72,715.71,136.21Z"/><path class="cls-24" d="M727,86.74a7,7,0,0,0,.68,3.28,14,14,0,0,0,6.2,7,10,10,0,0,0,9.21.15,6.81,6.81,0,0,0,3.31-3.79,10.2,10.2,0,0,0,.35-1.73l.63-4.26"/><path class="cls-24" d="M721.83,87.45a14.16,14.16,0,0,0,2.42,7,19.3,19.3,0,0,0,5.34,5.24,17.14,17.14,0,0,0,3.86,2,23.72,23.72,0,0,0,8.4.86,8,8,0,0,0,2.8-.43,8.29,8.29,0,0,0,2.87-2.41,8.48,8.48,0,0,0,1.94-3,11.67,11.67,0,0,0,.3-2.58,17.13,17.13,0,0,1,1.08-5"/><path class="cls-2" d="M1227.55,130.87c-5.56-3.42-36.33,11.17-36.33,11.17l-3-27.87h-6.41s-3.39,37.28,3.05,40.23,39.41-6.65,39.41-6.65Z"/><path class="cls-2" d="M1207.32,212.81l20.23-3.21-11-62.22S1205.28,155.71,1207.32,212.81Z"/><path class="cls-21" d="M1173.49,381.81c2.11-1.7,7.53-9,8.64-12.67,1.57-5.19,3.43-12.32,5.34-20.08h8.1c-2.66,8.47-4.36,15.56-5.12,18.75a5.89,5.89,0,0,0,.3,1.49c.23.78.68,12.58.68,12.58h-18.15l.16,0Z"/><path class="cls-21" d="M1234.33,349.06h9.59c-1.79,9.87-3.19,18.25-3.19,18.25v14.57h-10.44c1-4.36,3.9-17.43,3.9-22.94C1234.19,355.7,1234.25,352.4,1234.33,349.06Z"/><path class="cls-5" d="M1185.21,358c5.7-21.92,12.75-55.1,13.66-60.6.59-3.55,1.12-14.83,2.52-28.66.37-15.78,2.18-51.87,11-72.35l20.86.49c-.84,16.26,14.92,33.82-4.27,52.63-2.5,7-10.79,30.84-12,41.34-1.42,12.37-3.72,17.86-10.88,31.67-6.19,12-10.58,25.89-13.21,35.48Z"/><path class="cls-5" d="M1255.91,267.76h0c-1.34,6.93-3.23,11.57-4.28,17.4-1.52,8.49,2.81,20.79-1.55,34.46-2.07,6.47-5.92,27.84-8,39.66h-7.91v-.34c0-28.76,4-63.06,3.38-76.1-.25-5.49-1.18-13.29-2.17-20.38,0,0-5.1-27.08-7.79-29.24-17-13.71-15.18-36.82-15.18-36.82l31.22,1.46s18.19,15.11,13.41,42c0,0,0,.28,0,.76C1257.87,253.31,1257.12,261.48,1255.91,267.76Z"/><path class="cls-26" d="M1192.34,381.88s.8-10.8-1.31-13.62-7.91,2.62-7.91,2.62l-5.18-2.35s.26,3.37-3.93,6.14-7.59,2-7.85,7.21Z"/><path class="cls-26" d="M1242.22,370.62s-.13-3.59-5.11-3.17-4.61,4-4.61,4a1.14,1.14,0,0,0-1.41,0c-.65.58-.1,5.56-1.36,6.6s-.86,3.8-.86,3.8h14.53s.78-3.53-.66-4.84S1245,371,1242.22,370.62Z"/><path class="cls-1" d="M1227.55,130.87a41,41,0,0,0,16.4,8.28c9.65,2.24,13.67-3.64,18.61,2.59,7.4,9.34-4.65,26.56-11,35.48-2.36,3.33-7.35,12.56-8.36,21.41,0,0-16.74,4.87-31.18-1.45L1211,176.63S1201.85,148.94,1227.55,130.87Z"/><path class="cls-2" d="M1235.15,134.75s-20.47,10.92-23.79,27.06-4,51-4,51-2-38.08,2.07-54.49,14.91-27.09,18.16-27.45C1227.55,130.87,1233.33,134.09,1235.15,134.75Z"/><path class="cls-27" d="M1228.53,107.85c-.08,6.18-1.69,22.18-3.79,27.22s-.47,10,8.63,10.8,17.42,4.53,21.11,1.67,4-34.66-3.93-42.57-13.72-9.38-17.83-6.76S1228.53,107.85,1228.53,107.85Z"/><path class="cls-21" d="M1252.22,97.59s-18.48-6.19-22.2,6.82,0,26.61,10,26.28C1252.27,130.29,1266.57,104.91,1252.22,97.59Z"/><path class="cls-28" d="M1240,112.46c-.06.83-.53,1.48-1.06,1.45s-.91-.74-.86-1.58.53-1.48,1.06-1.45S1240,111.62,1240,112.46Z"/><path class="cls-29" d="M1242.5,116.85a1.81,1.81,0,1,1-1.91-1.23A1.63,1.63,0,0,1,1242.5,116.85Z"/><path class="cls-28" d="M1240.45,112.24s-.44-1.92-1.12-2-1.82,1.23-1.82,1.23l-1.25-.91,1.2.47s1-1.46,2-1.16S1240.45,112.24,1240.45,112.24Z"/><path class="cls-28" d="M1232.22,111.26c0,.84-.53,1.49-1,1.45s-.92-.74-.86-1.57.52-1.49,1-1.45S1232.28,110.43,1232.22,111.26Z"/><path class="cls-28" d="M1232.72,111.05s-.44-1.93-1.12-2-1.82,1.23-1.82,1.23l-1.25-.91,1.21.48s1-1.47,2-1.17S1232.72,111.05,1232.72,111.05Z"/><path class="cls-27" d="M1241.48,107.89a.39.39,0,0,1-.3-.18,2.56,2.56,0,0,0-2.27-1.06.39.39,0,0,1-.43-.34.38.38,0,0,1,.34-.42,3.32,3.32,0,0,1,3,1.41.39.39,0,0,1-.12.53A.46.46,0,0,1,1241.48,107.89Z"/><path class="cls-27" d="M1233,105.91a.33.33,0,0,1-.22-.09,2.52,2.52,0,0,0-2.49-.31.39.39,0,0,1-.31-.71,3.32,3.32,0,0,1,3.29.43.38.38,0,0,1,0,.54A.37.37,0,0,1,1233,105.91Z"/><path class="cls-29" d="M1233.34,115.12s-3.3,0-3,1.19,2.23,2.67,2.23,2.67S1234.07,116.57,1233.34,115.12Z"/><path class="cls-2" d="M1247.39,137.73s-12,16.48-10.25,32.78,6.81,41.35,19.6,50.34c0,0-.8-8.73-2.38-20.43s12.92-45.11,10.53-55.2C1263.74,140.38,1260.86,137.72,1247.39,137.73Z"/><path class="cls-2" d="M1260.09,140.12c-5.91-5-34.5,4-34.5,4l-27.83-26.25-4.11,3.48s23.68,32.24,28.28,35.4,31,.95,35.38-1.9S1262.87,142.48,1260.09,140.12Z"/><path class="cls-27" d="M1244.86,104.27a21,21,0,0,1,4,12.39s3.1-3.8,4.73-.49-4.91,7-4.91,7,.12,9.54,3,9.66,10.41-16,8.72-21.45S1253.53,100.45,1244.86,104.27Z"/><path class="cls-29" d="M1248.49,121.37c-1.41,3.82-6.85,10.44-12.61,8.55,0,0,.8,3.79-1.6,5.86,0,0-1.61,1.62.84,3.29,7.69,5.23,13,1.52,13.8.18l1.63-17.17A1.26,1.26,0,0,1,1248.49,121.37Z"/><path class="cls-27" d="M1238.35,101.23s-.07,13.51,9.1,17.11-6.38,22.59-5.66,34.44c0,0,17.62,6.09,20.41,1.72s-1.5-21.16.51-29.81.42-21.53-5.91-27.74-31.77-9.1-28.27,10.9C1228.53,107.85,1229.81,101.23,1238.35,101.23Z"/><path class="cls-18" d="M1199.63,81.57l5.34,22a7.41,7.41,0,0,1-5.44,9l-78.7,19.14a7.4,7.4,0,0,1-8.94-5.44l-6.08-20.29a7.3,7.3,0,0,1,5.16-9.17l79.7-20.58A7.4,7.4,0,0,1,1199.63,81.57Z"/><polygon class="cls-22" points="1119.64 107.5 1190.97 89.8 1190.43 87.6 1119.1 105.31 1119.64 107.5"/><polygon class="cls-22" points="1121.4 114.72 1192.73 97.02 1192.19 94.83 1120.86 112.53 1121.4 114.72"/><polygon class="cls-22" points="1123.11 121.76 1151.33 114.75 1150.79 112.56 1122.57 119.57 1123.11 121.76"/><path class="cls-21" d="M1193.59,121.8s4.54-.47,4.06-4.59c0,0-2.1-4.83-2.66-5.67s-3.21-.46-3.21-.46a3.2,3.2,0,0,0,1.83,1.35,1.11,1.11,0,0,1-.48,1.26c-.76.41-2.5.35-3.05.5-1.07.29-4.2-.61-5.4-.17s-.66,1-.66,1l2.74,1s-2.86-.19-4.09.93,4.3,1.13,4.3,1.13-3.57.29-4,1.1c-.11.24.87.39.87.39s-.65.27-.43.81,1.9.59,3.19.54A38.41,38.41,0,0,1,1193.59,121.8Z"/><path class="cls-29" d="M1186.76,116s2.72.46,3.14.49a11.83,11.83,0,0,1,1.23.21S1189.93,117.06,1186.76,116Z"/><path class="cls-29" d="M1187,118.08a10,10,0,0,1,1.82.32c.33.17,1.47-.15,1.64.14S1188.68,118.86,1187,118.08Z"/><path class="cls-29" d="M1183.86,119.57a24.67,24.67,0,0,1,3.26.09c.73.15,2.23-.29,2.51,0S1185.59,120,1183.86,119.57Z"/><path class="cls-28" d="M1232.31,122.75a3,3,0,0,0,2.7,1.45,3.39,3.39,0,0,0,1.91-.54,3.46,3.46,0,0,0,1.16-1.41c.2-.44-.45-.82-.65-.38a2.87,2.87,0,0,1-.89,1.15,2.67,2.67,0,0,1-1.53.43,2.18,2.18,0,0,1-2-1.08.38.38,0,0,0-.65.38Z"/></g></g></svg>