<svg xmlns="http://www.w3.org/2000/svg" viewBox="0 0 1919.86 442.71"><defs><style>.cls-1{fill:#d9d9e2;}.cls-2{fill:#e5e5ea;}.cls-3{fill:#eeedef;}.cls-4{fill:#fff;}.cls-5{fill:#f7b634;}.cls-6{fill:#efb670;}.cls-7{opacity:0.92;}.cls-8{fill:#e0dfde;}.cls-13,.cls-9{opacity:0.14;}.cls-10,.cls-13{fill:#0097cf;}.cls-11{opacity:0.5;}.cls-12{opacity:0.54;}.cls-13{isolation:isolate;}.cls-14{fill:#1bbfbf;}.cls-15,.cls-21,.cls-22{fill:none;stroke-miterlimit:10;}.cls-15{stroke:#4ca5a2;stroke-linecap:round;stroke-width:1.94px;}.cls-16{fill:#ecbc4f;}.cls-17{fill:#e8792e;}.cls-18{fill:#f47f31;}.cls-19{fill:#364056;}.cls-20{fill:#ffaeab;}.cls-21{stroke:#ce6620;}.cls-22{stroke:#364056;}.cls-23{fill:#ce6620;}.cls-24{fill:#0fa8ba;}.cls-25{fill:#db6412;}.cls-26{fill:#11393d;}.cls-27{fill:#1a4850;}.cls-28{fill:#fa968c;}</style></defs><title>aboutus_4</title><g id="Layer_2" data-name="Layer 2"><g id="Layer_1-2" data-name="Layer 1"><path class="cls-1" d="M.28,288.57s352.77,27.87,429.9,0c118-42.64,292.42-27.88,430.31,26.24,131.08,51.45,254.21,3.28,310.7-18s259.19-36.08,456.89,29.52,291.36-3.08,291.36-3.08l.42,119.45H.32Z"/><path class="cls-2" d="M0,279.33s226.83-45.84,391.54,24.28c130.52,55.56,369.34,32.07,492.45-7.07s397.22-26.77,490.8,28.26c74.86,44,195.72,48.49,269.51,11.42,117.6-59.08,274.81-13.28,274.81-13.28l.41,119.44L0,442.71Z"/><path class="cls-3" d="M771.56.76h398a17.17,17.17,0,0,1,17.15,17.18V268.33a23.33,23.33,0,0,1-23.33,23.34H777.72a23.34,23.34,0,0,1-23.33-23.34h0V17.94A17.18,17.18,0,0,1,771.56.76Z"/><rect class="cls-4" x="776.55" y="25.56" width="388.02" height="244.54"/><path class="cls-5" d="M772.64,0h395.8a18.46,18.46,0,0,1,18.46,18.47v13H754.17v-13A18.47,18.47,0,0,1,772.63,0Z"/><circle class="cls-3" cx="1136.81" cy="17.31" r="2.9"/><circle class="cls-3" cx="1146.93" cy="17.31" r="2.9"/><circle class="cls-3" cx="1156.66" cy="17.31" r="2.9"/><path class="cls-6" d="M800.81,287.23a29.31,29.31,0,0,1,6.57,1.1c2.34.57,4.66,1.16,7,1.82,4.68,1.34,9.22,3.08,13.79,4.76a38.06,38.06,0,0,1,7,3.48c.12.07,0,.26-.09.19a36,36,0,0,0-6-3.13c-2.29-.88-4.6-1.72-6.89-2.57a123.48,123.48,0,0,0-13.7-4.15,35.74,35.74,0,0,0-7.59-1.4c-.06,0-.07-.1,0-.1Z"/><g class="cls-7"><path class="cls-8" d="M855.22,295.67a53.7,53.7,0,0,0,2-21.82,34.06,34.06,0,0,0-9.36-19.68,60.23,60.23,0,0,0-6.43-5.29c-5.75-4.31-11.52-8.62-17.44-12.71-4.64-3.21-9.51-6.43-12.47-11.14a100.77,100.77,0,0,0,2.1,19.67,43,43,0,0,0,3.8,11.48c2.9,5.44,7.55,9.77,11.86,14.26A154,154,0,0,1,843.09,287a33.88,33.88,0,0,0,4.17,5.16,16.33,16.33,0,0,0,7.7,4"/><g class="cls-9"><path class="cls-10" d="M830.12,257.48A95.23,95.23,0,0,1,845,263.7a37,37,0,0,1,10.87,8.74c.53.65,1,1.31,1.47,2a53.65,53.65,0,0,1-2.11,21.22l-.26.51a16.43,16.43,0,0,1-7.69-4,33.86,33.86,0,0,1-4.18-5.15,154.5,154.5,0,0,0-13.77-16.55c-4.31-4.49-9-8.82-11.86-14.26a33.56,33.56,0,0,1-1.62-3.62,70.34,70.34,0,0,1,6.79,2.29C825.1,255.75,827.61,256.61,830.12,257.48Z"/></g><g class="cls-11"><path class="cls-10" d="M815.89,235.67c3.84,8.47,10.8,15.11,17.27,21.74a111,111,0,0,1,9.12,10.26A70.56,70.56,0,0,1,849.8,280,66.42,66.42,0,0,1,855,295.77c.06.28-.38.42-.44.14a70.63,70.63,0,0,0-11.9-27c-5.46-7.5-12.6-13.61-18.67-20.62a50.93,50.93,0,0,1-8.29-12.62c0-.1.12-.14.16,0Z"/></g></g><g class="cls-7"><path class="cls-8" d="M854.08,308.37c-2-8.23-5.91-15.53-12.57-21-4.16-3.43-9-6.06-13-9.68-6.29-5.75-10-13.62-15.46-20.09-7.4-8.72-17.77-14.54-27.9-20.17,10.35,13.8,12,32.44,22.9,45.87,8.92,11,23,17.08,36.92,20.94,3.27.9,6.73,1.81,9.08,4.16"/><g class="cls-12"><path class="cls-10" d="M792.07,244.78c9.67,6,15.41,15.94,21.41,25.07a86.09,86.09,0,0,0,10.4,13.49,40.45,40.45,0,0,0,6.59,5.45c2.69,1.75,5.65,3.08,8.39,4.75a49.23,49.23,0,0,1,15,14c.16.24-.22.44-.39.22a54.12,54.12,0,0,0-13.66-13c-2.69-1.75-5.6-3.1-8.35-4.75a38.62,38.62,0,0,1-6.43-4.88c-8.19-7.64-13.12-17.8-19.55-26.72-3.72-5.14-8-10-13.46-13.43a.08.08,0,0,1-.06-.1.09.09,0,0,1,.1-.06l0,0Z"/></g><path class="cls-13" d="M800.62,260.33c3.62,2.35,6,6,8.09,9.76s3.86,7.61,6.7,10.8a23.52,23.52,0,0,0,17.44,7.66c3.11,0,6.23-.64,9.32-.57,6.25,5.42,10,12.49,11.9,20.44-2.35-2.35-5.82-3.25-9.08-4.16-14-3.86-28-9.92-36.93-20.94-5.92-7.31-9.11-16.16-12.46-24.94A13.59,13.59,0,0,1,800.62,260.33Z"/></g><path class="cls-5" d="M835.16,298.44c-10.54-6.38-20.91-12.8-33.31-13.94a14.28,14.28,0,0,0-7.18.79c-.73.33-1.49.91-1.46,1.69a1.67,1.67,0,0,0,.38.93c1.06,1.43,3,1.87,4.86,2.16,12.45,2,25.59,2.53,36.64,8.41"/><path class="cls-5" d="M851.09,297.27a82.48,82.48,0,0,0-38.5-29.58c-3.3-1.26-6.84-2.33-10.38-1.92-1.33.15-3,1-2.63,2.25a2.14,2.14,0,0,0,.73,1,23,23,0,0,0,7.42,4,210,210,0,0,1,23.43,10.25,103.07,103.07,0,0,1,19.93,14"/><path class="cls-6" d="M805.26,268A202.35,202.35,0,0,1,825,276.55a84.08,84.08,0,0,1,9.08,5.43c3,2.1,6,4.38,8.81,6.7a33.65,33.65,0,0,1,4.06,3.58c1.17,1.32,2.19,2.75,3.4,4,.1.1,0,.26-.14.16-1-1.08-1.91-2.26-2.87-3.4a21,21,0,0,0-1.56-1.7c-.6-.56-1.27-1.07-1.91-1.59-2.84-2.32-5.7-4.61-8.69-6.75a103.89,103.89,0,0,0-18.83-10.36c-3.67-1.61-7.38-3.1-11.1-4.61V268Z"/><path class="cls-5" d="M852.33,293.87c-4.1-6.23-8.23-12.51-11.18-19.33-2.29-5.31-3.93-11.07-7.85-15.41a4.13,4.13,0,0,0-2.6-1.59,2.93,2.93,0,0,0-2.58,1.47,5.18,5.18,0,0,0-.6,2.94c.15,3.11,1.78,5.94,3.47,8.59,5.51,8.65,9.65,16.65,21.34,23.33"/><path class="cls-6" d="M832.13,264.19c4.07,8.08,8.37,16.15,14.22,23.19.84,1,1.7,2,2.6,2.95s1.89,1.88,2.83,2.83c.09.08,0,.22-.12.14a43.77,43.77,0,0,1-4.82-5,66.08,66.08,0,0,1-4.18-5.41A111.54,111.54,0,0,1,835.54,271c-1.19-2.26-2.34-4.54-3.48-6.83,0,0,0-.06.07,0Z"/><path class="cls-14" d="M1380.17,322.9c-4.89-17.17-22.18-54.75-41.82-52.58-22.65,2.5,22.2,43.52,22.2,43.52s-31.38-24.19-42.71-10.14,38.5,23,38.5,23-26.22-5.45-23.62,5,46.33,7.45,49.38,17.49S1383.52,334.68,1380.17,322.9Z"/><path class="cls-15" d="M1382,345c-4.29-18.22-12.1-35.89-23.5-50.78a105.37,105.37,0,0,0-14-15.11"/><path class="cls-15" d="M1381.73,345.33c-11.87-19.67-32.06-34-54.38-37.69"/><path class="cls-15" d="M1381.48,345.48c-10.74-8.73-24.38-13.23-38.06-14.2"/><path class="cls-14" d="M1387.15,322.08c4.89-17.18,22.18-54.75,41.82-52.59,22.65,2.5-22.2,43.53-22.2,43.53s31.37-24.2,42.7-10.15-38.5,23-38.5,23,26.22-5.45,23.62,5-46.31,7.44-49.37,17.49S1383.81,333.85,1387.15,322.08Z"/><path class="cls-15" d="M1385.31,344.18c4.29-18.22,12.08-35.88,23.48-50.78a106.59,106.59,0,0,1,14-15.11"/><path class="cls-15" d="M1385.59,344.5c11.86-19.67,32.07-34,54.38-37.69"/><path class="cls-15" d="M1385.85,344.65c10.73-8.73,24.36-13.23,38.06-14.2"/><path class="cls-14" d="M1371.52,305.5c-4.45-26.62-6.2-88,18.78-94.23,28.78-7.19-.59,72.11-.59,72.11s23.26-49.1,45.34-34.6-32.53,50.85-32.53,50.85,28.32-20.14,31.46-4.14-51.34,32.49-49,48.15S1374.56,323.75,1371.52,305.5Z"/><path class="cls-15" d="M1382.58,337.65c-5.79-27.81-7-56.51-2.22-83a148.68,148.68,0,0,1,7.83-28"/><path class="cls-15" d="M1383.11,338c2.48-33.46,18.18-63.36,42.87-79.11"/><path class="cls-15" d="M1383.51,338.06c7.69-17.44,21.4-30.27,37.32-38.14"/><path class="cls-16" d="M581.06,294.85c.55-6.24-8.31-4.33-11.59-2.4-6.39,3.77-16.34,15.79-18.35,19.66-.09-1.52-.22-3-.4-4.56-.34-2.83-.67-5.65-1-8.48,4.19-1.36,13.26-3.79,20.53-15.07,1.22-1.89,2.68-4.52,1.59-6.77-1.51-3.13-4.23-.68-5.92.92-2.88,2.73-12.08,12.77-16.63,17.2-.65-5.66-1.29-11.32-2-17,7.47-4.09,16.52-9.11,19.7-17.59,2.08-5.55-4.14-5.3-7.31-3.4-5.7,3.4-10.07,9.66-13,15.94-.33-2.66-.67-5.31-1-8-.07-.48-.13-1-.19-1.43,3.85-1.69,7.73-2.92,10.88-5.92a16.75,16.75,0,0,0,4.75-11.27c.09-1.85.49-4.08-.79-5.68-1.81-2.23-3.09.79-4,2.5a116.69,116.69,0,0,1-6.47,10.6c-1.28,1.86-2.43,3.65-3.5,5.56a16,16,0,0,1-1.23,1.73c-.54-3.77-1.16-7.55-1.85-11.3,5.17-5,11.38-11.13,12.07-18.74.45-5-4.56-3.4-6.73-1.13-3.36,3.52-5.43,8.55-6.57,13.6-.33-1.63-.68-3.26-1-4.88,4-7.45,9-16.62,7-25.36-1.28-5.55-6.22-2-7.81,1.28a28,28,0,0,0-2.52,10.6l-.6-2.17c-.49-1.73-1-3.42-1.65-5.09,4.23-5.86,9.34-13,8.68-20.65-.43-5-5.09-2.54-6.83.07-2.76,4.14-3.9,9.63-4.1,14.9-1.06-2.48-2.21-4.92-3.4-7.34,2.68-5.26,5.87-11.64,4.38-17.71-1-4-4.43-1.42-5.51.91a23.07,23.07,0,0,0-1.56,11.47c-1.35-2.63-2.7-5.26-4-7.92.33-2.64.45-5.45.51-7.89.06-2.89-.31-6.11-2.71-8.09-3.15-2.6-5.74-1.1-6.32,2.78a9.41,9.41,0,0,0,.69,5,8.06,8.06,0,0,0-4.16-1.53,2.78,2.78,0,0,0-2.64,1.14c-.75,1.2-.33,3.14.73,4.67,1.88,2.71,5.13,4.17,7.81,5.93a22.24,22.24,0,0,1,2.35,1.88c1,.94,2,1.93,3.05,2.79.9,1.73,1.78,3.46,2.65,5.21h0c-3.25-3.59-7.43-6.88-11.93-8-2.5-.6-6.66.5-4.15,3.75,4,5.21,11.55,6.57,17.49,7.79l.26-.19c.39.81.78,1.61,1.16,2.43l.07.12a107.46,107.46,0,0,1,5.14,12.82h0a19.38,19.38,0,0,0-3.87-3c-2.53-1.47-7.43-1.61-5.74,2.74,2.18,5.6,7.6,9.22,12.8,12.11,1.43,5.92,2.69,11.91,3.76,17.91-2.55-5.15-6.23-10.2-11-13-2.71-1.57-8-1.72-6.15,2.95,2.91,7.49,11.25,11.68,17.77,15.16l.2-.06h0c.46,2.82.87,5.66,1.25,8.48.18,1.39.36,2.78.53,4.17h0c-3.34-7-8.17-14.1-14.31-18-3.5-2.22-10.24-2.52-7.84,4,3.85,10.37,14.55,16.3,23,21.22h0c.45,3.95.86,7.91,1.29,11.86-5.08-5.32-14.93-17-18.43-20.45-1.63-1.64-5.89-5-7.55-1.46-.92,2,.84,6.15,2,7.9,2.46,3.9,15.32,14.32,24.73,20.11h0c.33,2.81.67,5.61,1.06,8.41.14,1,.26,2.07.37,3.1-6.83-8.53-21.26-24.28-26.11-26.66-2.46-1.21-6.8-2.56-8.67.27s2,6.48,3.54,8.77c3.57,5.28,20,16.68,23.38,18.35,2.59,1.29,5.57,2.07,8.18,3.2v.13c.15,2.33.22,4.63.22,6.93l-.44-.28c-7.5-4.88-22.8-16.22-28-19.44-2.42-1.49-8.46-4.36-9.47.38-.54,2.62,2.75,7.13,4.57,8.91,3.76,3.71,20,11.67,32.58,16.21l.69.23c-.23,7.48-.82,14.93-1,22.65-.06,2.33,3.57,2.63,3.62.29.26-11.15,1.69-21.91,1.2-32.95C563.93,310.91,580.86,297.68,581.06,294.85Z"/><path class="cls-17" d="M592,332c3.19-3.36-2.82-6.34-5.61-6.73-5.44-.76-16.74,1.61-19.69,2.93.65-.92,1.27-1.86,1.88-2.83,1.11-1.79,2.22-3.58,3.34-5.35a25.42,25.42,0,0,0,18.84.74c1.58-.54,3.63-1.39,4-3.19.57-2.51-2.14-2.35-3.85-2.2-2.93.26-12.89,1.82-17.56,2.3,2.23-3.58,4.47-7.15,6.68-10.74,6.22,1.08,13.77,2.34,19.52-1.11,3.76-2.25,0-5-2.67-5.33-4.87-.66-10.28.95-14.88,3.24,1-1.7,2.07-3.39,3.09-5.09.18-.3.36-.61.55-.91,3,.79,5.82,1.87,9,1.58a12.3,12.3,0,0,0,7.94-4.34c.91-1,2.17-2.13,2.15-3.65,0-2.12-2.14-1-3.45-.4a85.66,85.66,0,0,1-8.63,3.16c-1.6.49-3.09,1-4.59,1.61a11.3,11.3,0,0,1-1.51.43c1.43-2.43,2.81-4.89,4.14-7.4,5.3-.52,11.72-1.19,15.61-5.28,2.56-2.69-1.08-4.07-3.37-3.75a21.25,21.25,0,0,0-10.06,4.84c.55-1.09,1.1-2.2,1.64-3.3,5.73-2.49,12.86-5.48,15.71-11.47,1.81-3.81-2.7-4-5.11-2.86a20.54,20.54,0,0,0-6.34,5c.22-.51.44-1,.65-1.54.52-1.23,1-2.46,1.4-3.7,5.13-1.45,11.38-3.23,14.52-8,2-3.09-1.77-3.82-4-3.11-3.5,1.13-6.69,3.78-9.22,6.74q.79-2.9,1.41-5.82c4-1.81,8.75-4,10.69-8.23,1.26-2.76-1.92-2.87-3.62-2a17,17,0,0,0-6.18,5.92c.43-2.15.85-4.29,1.31-6.44,1.41-1.38,2.77-2.95,3.93-4.34,1.37-1.64,2.64-3.68,2.16-5.93-.63-3-2.82-3.28-5-1.31a7.14,7.14,0,0,0-1.91,3.23,6,6,0,0,0-1.69-2.8,2.08,2.08,0,0,0-2.06-.55c-1,.34-1.64,1.66-1.73,3-.16,2.43,1,4.77,1.79,7a14.5,14.5,0,0,1,.49,2.17c.16,1,.28,2,.49,3-.28,1.42-.57,2.83-.86,4.24h0c-.23-3.57-1.14-7.41-3.24-10.12-1.17-1.5-4.09-2.78-4.13.26-.07,4.87,3.67,9.13,6.54,12.57h.3c-.14.65-.29,1.29-.44,1.94a.17.17,0,0,0,0,.1,81.17,81.17,0,0,1-2.93,9.8h0a14.61,14.61,0,0,0-.86-3.52c-.78-2-3.56-4.35-4.58-1-1.32,4.24.15,8.84,1.83,12.9-1.9,4.09-3.93,8.14-6.07,12.11.89-4.15,1.09-8.78-.38-12.55-.85-2.16-3.82-4.67-4.92-1.13-1.77,5.68,1.13,11.95,3.3,17l.15.05h0q-1.56,2.77-3.18,5.49L581.14,300h0c1.37-5.7,1.84-12,.08-17.12-1-2.9-4.77-6.18-6.37-1.31-2.55,7.77.92,16.14,3.53,22.86h0l-4.72,7.46c-.49-5.42-.83-16.7-1.25-20.33-.19-1.7-1.09-5.63-3.7-4.33-1.45.72-2.35,4-2.51,5.47-.37,3.39,2.27,15.35,5,23h0q-1.66,2.66-3.27,5.35c-.39.67-.8,1.32-1.21,2,0-8.08-1.12-23.85-2.83-27.46-.88-1.84-2.76-4.62-5.15-3.84s-1.83,4.67-2,6.71c-.36,4.7,3.93,18.89,5.08,21.39.91,2,2.27,3.77,3.27,5.63l-.06.08q-1.49,2.12-3.06,4.11a1.49,1.49,0,0,0-.13-.37c-2.09-6.28-5.72-19.89-7.25-24.16-.72-2-2.9-6.42-5.66-4.14-1.53,1.27-1.7,5.39-1.46,7.26.47,3.89,6.18,16,11.4,24.4l.29.46c-3.57,4.22-7.35,8.26-11,12.65-1.11,1.32.86,3.17,2,1.84,5.28-6.34,11.06-11.91,15.86-18.53C574.68,333.41,590.55,333.52,592,332Z"/><g class="cls-7"><path class="cls-8" d="M545.73,333c.86-9.08.42-18.39-2.32-27.09s-7.89-16.79-15.27-22.15a72,72,0,0,0-8.71-5.16c-7.71-4.09-15.43-8.18-23.29-12-6.15-3-12.59-5.91-17.09-11.07a129.92,129.92,0,0,0,6.72,23.62,55.07,55.07,0,0,0,7,13.27c4.59,6,11,10.4,17,15a191.45,191.45,0,0,1,19.79,17.42,42.49,42.49,0,0,0,6,5.45,19.3,19.3,0,0,0,10,3.36"/><g class="cls-9"><path class="cls-10" d="M507.88,291.41A110.26,110.26,0,0,1,526.75,296a44.83,44.83,0,0,1,14.7,8.47c.76.68,1.48,1.4,2.16,2.14A69.74,69.74,0,0,1,545.72,333l-.2.67a19.42,19.42,0,0,1-9.95-3.36,42.49,42.49,0,0,1-6-5.45,191.45,191.45,0,0,0-19.79-17.42c-6-4.61-12.46-9-17-15a38.71,38.71,0,0,1-2.69-4.11c2.85.27,5.66.87,8.48,1.42C501.64,290.32,504.78,290.85,507.88,291.41Z"/></g><g class="cls-11"><path class="cls-10" d="M486.45,267.65c6.34,9.57,16,16.27,25,23.06a138.15,138.15,0,0,1,13,10.67A88.51,88.51,0,0,1,535.94,315a85.43,85.43,0,0,1,9.6,18.21c.12.33-.36.59-.49.26a90.07,90.07,0,0,0-19.86-30.55c-8-8.05-17.77-14.07-26.44-21.4a63.48,63.48,0,0,1-12.48-13.74c-.07-.11.11-.2.18-.09Z"/></g></g><g class="cls-7"><path class="cls-8" d="M547.14,348.74C543,339.08,536.8,331,527.77,325.6c-5.64-3.35-11.89-5.57-17.35-9.2-8.65-5.74-14.69-14.62-22.55-21.4-10.6-9.15-24.07-14.15-37.22-19,15.17,14.76,21.17,37.22,36.87,51.41,12.91,11.66,30.73,16.2,48,18.07,4,.44,8.32.84,11.61,3.23"/><g class="cls-12"><path class="cls-10" d="M460.36,283.64C473.05,289,482,300,491,309.93a107.48,107.48,0,0,0,15.17,14.38,48.56,48.56,0,0,0,8.94,5.31c3.54,1.59,7.31,2.61,10.9,4.1a60.07,60.07,0,0,1,20.65,14c.24.25-.16.58-.41.34a66.23,66.23,0,0,0-18.92-13.16c-3.54-1.59-7.26-2.64-10.84-4.1a46,46,0,0,1-8.63-4.65c-11.3-7.67-19.3-19.09-28.81-28.68-5.48-5.47-11.57-10.47-18.75-13.65a.1.1,0,0,1,.07-.18Z"/></g><path class="cls-13" d="M473.79,300.92c4.76,2.13,8.41,6.15,11.63,10.28s6.2,8.52,10.24,11.84a27.74,27.74,0,0,0,22.19,5.8c3.65-.66,7.18-2.06,10.84-2.6,8.53,5.36,14.46,13.24,18.44,22.56-3.29-2.39-7.57-2.78-11.61-3.22-17.28-1.88-35.1-6.42-48-18.07-8.55-7.73-14.22-17.9-20.06-27.95A15.85,15.85,0,0,1,473.79,300.92Z"/></g><path class="cls-18" d="M522.7,340.47c-13.78-5.66-27.38-11.39-42.25-10.25-2.89.22-5.89.75-8.27,2.43-.79.55-1.56,1.42-1.36,2.36a2.06,2.06,0,0,0,.65,1.06c1.56,1.54,4,1.66,6.2,1.65,15.09-.09,30.68-2.13,45,2.81"/><path class="cls-6" d="M479.88,333.77a33.45,33.45,0,0,1,8,0c2.87.21,5.75.46,8.62.8,5.8.68,11.53,1.88,17.26,3a44.89,44.89,0,0,1,9,2.82c.16.07.08.32-.07.25a42.44,42.44,0,0,0-7.77-2.59c-2.88-.61-5.78-1.16-8.67-1.73a145.21,145.21,0,0,0-17-2.29,41.28,41.28,0,0,0-9.23-.15c-.08,0-.11-.11,0-.12Z"/><path class="cls-18" d="M541.2,335.78a99.61,99.61,0,0,0-51.72-28.31c-4.17-.86-8.56-1.45-12.64-.23-1.53.45-3.28,1.85-2.61,3.3a2.74,2.74,0,0,0,1.08,1.08c2.85,1.88,6.26,2.63,9.59,3.36,10,2.18,20.11,4.35,29.81,7.75a123.58,123.58,0,0,1,26.49,13"/><path class="cls-6" d="M480.88,309.38A235,235,0,0,1,506,315.8a100.61,100.61,0,0,1,11.93,4.78c4,1.95,7.94,4.15,11.81,6.41a40.24,40.24,0,0,1,5.56,3.54c1.66,1.37,3.17,2.92,4.87,4.24.13.1,0,.33-.13.23-1.44-1.11-2.74-2.38-4.11-3.57a23.36,23.36,0,0,0-2.21-1.76c-.83-.57-1.73-1.05-2.6-1.56-3.84-2.25-7.7-4.47-11.67-6.47A123.31,123.31,0,0,0,495,312.8c-4.66-1.22-9.37-2.28-14.07-3.36-.05,0,0-.07,0-.06Z"/><path class="cls-18" d="M541.94,331.37c-6.19-6.78-12.41-13.61-17.35-21.35-3.85-6-7-12.74-12.57-17.24a5,5,0,0,0-3.41-1.41,3.43,3.43,0,0,0-2.72,2.32,6.63,6.63,0,0,0-.07,3.72c.85,3.77,3.38,6.9,5.94,9.79,8.35,9.45,15,18.39,30.18,24.17"/><path class="cls-6" d="M511.73,299.2c6.54,9.05,13.34,18,21.75,25.46,1.2,1.06,2.44,2.09,3.71,3.07s2.63,1.92,3.94,2.88c.12.09,0,.28-.12.2a53.1,53.1,0,0,1-6.75-5.1c-2.12-1.82-4.16-3.74-6.09-5.76a142.29,142.29,0,0,1-10.94-13.07q-2.84-3.78-5.57-7.63c-2.74-3.85,0-.09.07-.05Z"/><path class="cls-14" d="M1131.11,299.75c7-15.46,14.17-30.69,13.26-47.55-.18-3.29-.72-6.7-2.61-9.44-.63-.91-1.63-1.81-2.74-1.61a2.55,2.55,0,0,0-1.27.71c-1.85,1.73-2.07,4.48-2.11,7-.34,17.1,1.62,34.8-4.6,50.82"/><path class="cls-6" d="M1140.48,245.88a37.13,37.13,0,0,1,.13,9c-.19,3.27-.43,6.53-.78,9.78-1.34,12.76-1,7.83-3.23,19.6a50,50,0,0,1-3.17,10.2c-.07.17-.37.1-.29-.08a47.52,47.52,0,0,0,2.91-8.85c.66-3.28,1.26-6.57,1.89-9.85a161.1,161.1,0,0,0,2.38-19.34c.22-3.46.61-7,0-10.46,0-.08.12-.12.14,0Z"/><path class="cls-18" d="M1129.64,303a111.9,111.9,0,0,0,34.78-57.78c1.13-4.7,1.94-9.65.63-14.31-.49-1.74-2.08-3.76-3.81-3a3.33,3.33,0,0,0-1.3,1.2c-2.29,3.17-3.28,7-4.23,10.77-2.85,11.31-5.69,22.65-10,33.53A137.54,137.54,0,0,1,1129.64,303"/><path class="cls-6" d="M1162.42,235.41a261,261,0,0,1-8.28,28.22,110.19,110.19,0,0,1-6,13.3c-2.4,4.52-5.09,8.89-7.85,13.21a45,45,0,0,1-4.34,6.19c-1.66,1.85-3.51,3.52-5.12,5.41-.12.14-.39,0-.26-.16,1.34-1.6,2.87-3,4.31-4.55a31.15,31.15,0,0,0,2.13-2.45c.7-.93,1.29-1.93,1.91-2.91,2.76-4.28,5.47-8.59,8-13a136.2,136.2,0,0,0,11.09-27.4c1.57-5.25,3-10.55,4.36-15.84h.08Z"/><path class="cls-14" d="M1134.81,303.91c8.15-6.82,16.35-13.68,25.6-19.05,7.2-4.19,15.18-7.6,20.63-13.77a5.55,5.55,0,0,0,1.77-3.82,4,4,0,0,0-2.66-3.14,8.15,8.15,0,0,0-4.38-.18c-4.45.86-8.2,3.64-11.68,6.45-11.36,9.21-22,16.43-29.28,33.51"/><path class="cls-6" d="M1173.5,270.59c-10.83,7.15-21.6,14.62-30.55,23.93q-1.93,2-3.73,4.11c-1.21,1.43-2.32,2.93-3.5,4.38-.1.14-.33,0-.23-.14a60.08,60.08,0,0,1,6.2-7.5c2.18-2.35,4.51-4.6,6.93-6.74a169,169,0,0,1,15.69-12c3-2.07,6.07-4.09,9.14-6.09,0,0,.1,0,0,.08Z"/><g class="cls-11"><path d="M888.89,156.36a1.29,1.29,0,0,1-.45,1,1.65,1.65,0,0,1-1.08.39,1.39,1.39,0,0,1-1.37-.94l-2.78-6.36H868.42l-2.79,6.34a1.41,1.41,0,0,1-1.38.94,1.68,1.68,0,0,1-1.1-.41,1.31,1.31,0,0,1-.47-1,1.37,1.37,0,0,1,.16-.63l11.22-24.95a1.65,1.65,0,0,1,.7-.82,2,2,0,0,1,1-.27,1.91,1.91,0,0,1,1.06.29,1.78,1.78,0,0,1,.71.8l11.22,24.95A1.64,1.64,0,0,1,888.89,156.36Zm-19.26-8.59H882l-6.24-14.08Z"/><path d="M912.84,145.69a7.74,7.74,0,0,1-1.08,9.9c-1.59,1.3-3.86,1.94-6.78,1.94h-9.89a1.71,1.71,0,0,1-1.2-.43,1.49,1.49,0,0,1-.45-1.14V131.45a1.46,1.46,0,0,1,.45-1.14,1.62,1.62,0,0,1,1.2-.43h9.45a10.32,10.32,0,0,1,6.63,1.88,7.11,7.11,0,0,1,1.2,9.18,7,7,0,0,1-3.24,2.39A6.59,6.59,0,0,1,912.84,145.69Zm-16.21-3.57h7.45a7.5,7.5,0,0,0,4.69-1.26,4.38,4.38,0,0,0,1.59-3.65c0-3.13-2.1-4.7-6.28-4.7h-7.45Zm12.85,11.51a4.48,4.48,0,0,0,1.55-3.75q0-5.1-6.36-5.1h-8v10.05h8a8,8,0,0,0,4.8-1.16Z"/><path d="M924.76,156.12a11.38,11.38,0,0,1-4.37-4.9,17.11,17.11,0,0,1-1.53-7.49,17.35,17.35,0,0,1,1.51-7.55,11.08,11.08,0,0,1,4.35-4.91,14.15,14.15,0,0,1,13.46,0,11.08,11.08,0,0,1,4.35,4.91,19.32,19.32,0,0,1,0,15,11.43,11.43,0,0,1-4.37,4.92,13.84,13.84,0,0,1-13.38,0Zm13.54-4q2.44-3,2.45-8.45t-2.43-8.44a9.45,9.45,0,0,0-13.35-.37l-.36.37c-1.64,2-2.46,4.78-2.46,8.42s.82,6.47,2.48,8.47a9.36,9.36,0,0,0,13.24.44c.16-.14.3-.29.45-.44Z"/><path d="M952.44,155q-2.79-2.82-2.79-8.31V131.33a1.63,1.63,0,0,1,.43-1.19,1.54,1.54,0,0,1,1.18-.46,1.49,1.49,0,0,1,1.14.46,1.71,1.71,0,0,1,.43,1.19V147c0,2.7.66,4.72,2,6.08a9.33,9.33,0,0,0,11.63,0c1.31-1.36,2-3.38,2-6.08V131.33a1.57,1.57,0,0,1,.45-1.19,1.71,1.71,0,0,1,2.33,0,1.63,1.63,0,0,1,.44,1.19v15.38c0,3.63-.94,6.4-2.81,8.29s-4.59,2.85-8.18,2.85S954.29,156.91,952.44,155Z"/><path d="M985.36,157.28a1.64,1.64,0,0,1-.45-1.2V132.63h-8.43a1.62,1.62,0,0,1-1.1-.36,1.31,1.31,0,0,1-.39-1,1.28,1.28,0,0,1,.39-1,1.57,1.57,0,0,1,1.1-.35h20.15a1.57,1.57,0,0,1,1.1.35,1.48,1.48,0,0,1,0,2,1.62,1.62,0,0,1-1.1.36H988.2v23.49a1.71,1.71,0,0,1-.43,1.2,1.6,1.6,0,0,1-1.18.45A1.66,1.66,0,0,1,985.36,157.28Z"/><path d="M1014.41,155q-2.79-2.82-2.79-8.31V131.33a1.67,1.67,0,0,1,.43-1.19,1.54,1.54,0,0,1,1.18-.46,1.49,1.49,0,0,1,1.14.46,1.67,1.67,0,0,1,.43,1.19V147c0,2.7.66,4.72,2,6.08a9.33,9.33,0,0,0,11.63,0c1.31-1.36,2-3.38,2-6.08V131.33a1.57,1.57,0,0,1,.45-1.19,1.72,1.72,0,0,1,2.34,0,1.71,1.71,0,0,1,.43,1.19v15.38c0,3.63-.94,6.4-2.81,8.29s-4.59,2.85-8.17,2.85S1016.26,156.91,1014.41,155Z"/><path d="M1043.41,157a11.38,11.38,0,0,1-4.29-2.37,1.79,1.79,0,0,1-.59-1.37,1.49,1.49,0,0,1,.31-1,.88.88,0,0,1,.75-.41,1.86,1.86,0,0,1,1.1.43,13.3,13.3,0,0,0,8.31,2.82,8.89,8.89,0,0,0,5.18-1.29,4.31,4.31,0,0,0,1.8-3.69,3,3,0,0,0-.86-2.22,6.18,6.18,0,0,0-2.27-1.35,33.61,33.61,0,0,0-3.81-1.06,38.46,38.46,0,0,1-5.27-1.57,8.21,8.21,0,0,1-3.34-2.35,6,6,0,0,1-1.27-4,7.06,7.06,0,0,1,1.27-4.18,8.16,8.16,0,0,1,3.57-2.82,12.74,12.74,0,0,1,5.24-1,15.15,15.15,0,0,1,5.12.84,10.8,10.8,0,0,1,4,2.41,1.9,1.9,0,0,1,.63,1.38,1.57,1.57,0,0,1-.32,1,1,1,0,0,1-.74.41,2.6,2.6,0,0,1-1.14-.43,13,13,0,0,0-3.57-2.2,10.92,10.92,0,0,0-4-.63,8.17,8.17,0,0,0-5.06,1.36,4.41,4.41,0,0,0-1.81,3.78,3.47,3.47,0,0,0,1.59,3.12,16.39,16.39,0,0,0,4.89,1.82q3.54.87,5.6,1.59a8.36,8.36,0,0,1,3.4,2.18,5.45,5.45,0,0,1,1.35,3.88,6.85,6.85,0,0,1-1.27,4.08,8.33,8.33,0,0,1-3.59,2.75,13.75,13.75,0,0,1-5.3,1A18.1,18.1,0,0,1,1043.41,157Z"/></g><path class="cls-19" d="M777.48,110.4l8.81-.07a1.74,1.74,0,0,1,1.56,2.57l-7.23,13.53a1.75,1.75,0,0,1-1.49.92l-8.45.28a1.75,1.75,0,0,1-1.62-2.53l6.87-13.73A1.76,1.76,0,0,1,777.48,110.4Z"/><path class="cls-17" d="M758.28,154.61l7.75.54s-4.87-12,.9-18.45l-5.59-22Z"/><path class="cls-20" d="M722.83,72.3s7.47,18.43,17.54,14.46,3.83-24.44,1.33-26-6,2.85-9.44,5.21-3.25,1.58-5.43,1.44S720.6,65.63,722.83,72.3Z"/><path d="M725.18,64.51s10.74,8.17,20-2,.94-12.78-8.51-11.05-9.16,1.59-13.82,1.33S710.72,61.78,725.18,64.51Z"/><path d="M728,62.83s7.46,4.8.35,5.26c-2.4.16-6-1.45-5.39,3s5.48,7.17,4,9.29-15.34-.92-15.45-13.1S728,62.83,728,62.83Z"/><path class="cls-20" d="M727.11,79.68l-2.42,14.75s.66,7.21,6.07,7.31,6.08-10.12,6.08-10.12l.6-4.41S733,87,727.11,79.68Z"/><path class="cls-17" d="M724.9,92.85S705,93.67,698.09,101c-7.75,8.29-24.13,31.08-5.46,51.81l-4.71,28.6s42.41,3.09,65.64-5.23c0,0,14.84-56.8,5.42-68.44a49.26,49.26,0,0,0-22.13-15.32s-.2,6.34-5.46,6.39S724.9,92.85,724.9,92.85Z"/><path class="cls-19" d="M687.9,181.41,665.26,347.33l16,1.37,38-125.32s10.72,126.7,11.62,126.39,15.93-.74,15.93-.74l6.81-172.83A228.82,228.82,0,0,1,687.9,181.41Z"/><path class="cls-20" d="M711.45,140.66s-8.82,5.16-7.74,12.12,12.23,4.25,13.53,3.51,44.09-23.62,46.12-23.93,14.38.32,14.8-2a7,7,0,0,0-.62-4.21s-6.54-.81-7.71-.8,1.57-3.65,2.29-4.52-.31-2.18-2-1.29-7.49,6.74-7.49,6.74Z"/><path class="cls-20" d="M766.26,136.86s-4.8,5-.9,18.44c0,0,44.86-37.57,47.28-38s14-3.15,14.62-4.67-2.44-2.24-2.44-2.85,1.47-4.09,8.11-5c4.18-.61,1.22-2.44-3.5-2.7C819.76,101.47,766.26,136.86,766.26,136.86Z"/><path class="cls-16" d="M666.37,349.73l12.43.58.56,12-15.84,3.48-14.95-.23s-1-3.9,4.77-6.71A51.07,51.07,0,0,0,666.37,349.73Z"/><path class="cls-19" d="M648.57,365.52l0,2.3a142.28,142.28,0,0,0,15,.12c7-.41,15.82-3.48,15.82-3.48l-.09-2.5s-12.56,3.23-16.23,3.58C660.55,365.78,648.57,365.52,648.57,365.52Z"/><path class="cls-4" d="M656.93,357.89a6.73,6.73,0,0,1,2.68-.08,5.26,5.26,0,0,1,2.23,1,.52.52,0,0,0,.71,0,.51.51,0,0,0,0-.71,6.66,6.66,0,0,0-2.67-1.27,8.26,8.26,0,0,0-3.21.08.5.5,0,0,0-.35.62.51.51,0,0,0,.61.35Z"/><path class="cls-4" d="M659.93,356c1.42-.12,3.12-.23,4.2.89.45.46,1.16-.25.71-.71-1.28-1.32-3.2-1.32-4.91-1.18a.52.52,0,0,0-.5.5.5.5,0,0,0,.5.5Z"/><path class="cls-4" d="M663,353.84a12.4,12.4,0,0,1,1.85.09,3.27,3.27,0,0,1,1.58.64.52.52,0,0,0,.71,0,.5.5,0,0,0,0-.71,6.2,6.2,0,0,0-4.14-1,.5.5,0,0,0,0,1Z"/><path class="cls-4" d="M652.78,360c2.34-.11,4.88-.22,7,1.05a.5.5,0,0,0,.51-.87c-2.24-1.36-4.94-1.3-7.46-1.18-.64,0-.65,1,0,1Z"/><polygon class="cls-19" points="678.82 350.31 666.34 349.71 666.51 348.22 678.91 348.82 678.82 350.31"/><path class="cls-16" d="M745,351.49l-12.41.8-.36,12,15.9,3.21,15-.48s.88-3.92-4.89-6.63A50.9,50.9,0,0,1,745,351.49Z"/><path class="cls-19" d="M763.07,367l0,2.3a143.56,143.56,0,0,1-15,.37c-7-.29-15.88-3.2-15.88-3.2l.05-2.5s12.62,3,16.29,3.29C751.09,367.44,763.07,367,763.07,367Z"/><path class="cls-4" d="M754.83,358.52a8.17,8.17,0,0,0-3.23,0A6.65,6.65,0,0,0,749,359.8a.5.5,0,1,0,.7.71,5.36,5.36,0,0,1,2.19-1.05,6.82,6.82,0,0,1,2.7,0,.52.52,0,0,0,.62-.35.5.5,0,0,0-.35-.61Z"/><path class="cls-4" d="M751.53,356.7c-1.7-.12-3.63-.09-4.89,1.25-.44.47.26,1.18.71.71,1.07-1.14,2.75-1.06,4.18-1a.51.51,0,0,0,.5-.5.5.5,0,0,0-.5-.5Z"/><path class="cls-4" d="M748.45,354.55a6.17,6.17,0,0,0-4.12,1.08.5.5,0,0,0,0,.71.52.52,0,0,0,.71,0,3.27,3.27,0,0,1,1.57-.67,5.81,5.81,0,0,1,.87-.09c.32,0,.65,0,1,0a.5.5,0,0,0,0-1Z"/><path class="cls-4" d="M758.75,360.56c-2.52-.08-5.23-.1-7.44,1.31-.54.34,0,1.21.51.86,2-1.31,4.59-1.24,6.93-1.17a.5.5,0,0,0,0-1Z"/><polygon class="cls-19" points="732.56 352.29 745.02 351.48 744.83 349.99 732.44 350.8 732.56 352.29"/><path class="cls-21" d="M711.2,140.37a31,31,0,0,1-4.57-2.9,9.92,9.92,0,0,1-3.2-4.3,14.82,14.82,0,0,1-.39-6"/><path class="cls-22" d="M688.55,177.71c10.44.37,37.74-1.81,44.28-2.29s15.18-2,21.64-3.15"/><path class="cls-23" d="M708.59,142.78a15.34,15.34,0,0,0-3.49,3.92,8.17,8.17,0,0,0-1.32,4.49,6.08,6.08,0,0,0,.84,3.88c1.39,1.86,4,2.53,6.2,2.38-1.61.18-3.7.67-5.3.43a6.2,6.2,0,0,1-4.13-2.26,6.43,6.43,0,0,1-1.06-2.72,10.55,10.55,0,0,1,2.48-8.68c1.11-1.24,6.26-4.6,7.93-3.12C710,141.65,709.18,142.29,708.59,142.78Z"/><path class="cls-22" d="M719.89,93.3a6.86,6.86,0,0,0,.68,3.29,14,14,0,0,0,6.2,7,10.05,10.05,0,0,0,9.21.15,6.81,6.81,0,0,0,3.31-3.79,10.12,10.12,0,0,0,.35-1.74l.63-4.26"/><path class="cls-22" d="M714.72,94a14,14,0,0,0,2.41,7,19,19,0,0,0,5.35,5.23,16.67,16.67,0,0,0,3.85,2,23.55,23.55,0,0,0,8.41.86,7.78,7.78,0,0,0,2.8-.43,8.2,8.2,0,0,0,2.87-2.41,8.39,8.39,0,0,0,1.94-3,10.59,10.59,0,0,0,.3-2.58,17.6,17.6,0,0,1,1.08-5"/><path class="cls-24" d="M1220.62,137.44c-5.57-3.42-36.35,11.17-36.35,11.17l-3-27.88h-6.41s-3.39,37.28,3,40.23,39.42-6.65,39.42-6.65Z"/><path class="cls-24" d="M1200.37,219.38l20.25-3.22-11-62.21S1198.33,162.28,1200.37,219.38Z"/><path class="cls-20" d="M1166.54,388.38c2.11-1.7,7.52-9,8.64-12.68,1.57-5.18,3.43-12.31,5.33-20.08h8.11c-2.66,8.47-4.36,15.56-5.12,18.75a5.87,5.87,0,0,0,.3,1.5c.23.78.68,12.58.68,12.58h-18.16l.16-.05Z"/><path class="cls-20" d="M1227.4,355.62H1237c-1.79,9.88-3.2,18.26-3.2,18.26v14.57h-10.44c1-4.36,3.91-17.43,3.91-22.94C1227.26,362.27,1227.31,359,1227.4,355.62Z"/><path class="cls-5" d="M1178.26,364.58c5.7-21.92,12.75-55.11,13.66-60.6.6-3.56,1.13-14.83,2.52-28.67.37-15.78,2.19-51.86,11-72.34l20.87.49c-.85,16.26,14.92,33.81-4.28,52.63-2.5,7-10.79,30.84-12,41.33-1.42,12.38-3.72,17.87-10.88,31.68-6.2,11.95-10.59,25.88-13.22,35.48Z"/><path class="cls-5" d="M1249,274.33h0c-1.34,6.93-3.23,11.56-4.28,17.39-1.51,8.49,2.81,20.79-1.55,34.46-2.07,6.48-5.92,27.84-8,39.66h-7.92c0-.11,0-.23,0-.33,0-28.77,4-63.06,3.38-76.1-.25-5.5-1.19-13.29-2.17-20.38,0,0-5.11-27.08-7.79-29.25-17-13.71-15.19-36.81-15.19-36.81l31.23,1.45s18.19,15.12,13.42,42c0,0,0,.27,0,.76C1250.94,259.87,1250.19,268.05,1249,274.33Z"/><path class="cls-25" d="M1185.39,388.45s.8-10.8-1.31-13.62-7.92,2.62-7.92,2.62l-5.17-2.36s.26,3.38-3.93,6.14-7.6,2-7.86,7.22Z"/><path class="cls-25" d="M1235.29,377.19s-.13-3.59-5.11-3.17-4.62,4-4.62,4a1.13,1.13,0,0,0-1.4,0c-.66.58-.11,5.55-1.36,6.6s-.87,3.8-.87,3.8h14.53s.79-3.54-.65-4.85S1238,377.58,1235.29,377.19Z"/><path class="cls-14" d="M1220.62,137.44a41.09,41.09,0,0,0,16.4,8.28c9.65,2.24,13.67-3.64,18.61,2.58,7.41,9.34-4.64,26.57-11,35.49-2.36,3.33-7.35,12.56-8.36,21.41,0,0-16.75,4.86-31.19-1.45L1204,183.2S1194.91,155.51,1220.62,137.44Z"/><path class="cls-24" d="M1228.21,141.32s-20.47,10.91-23.8,27.06-4,51-4,51-1.95-38.08,2.08-54.5,14.92-27.09,18.17-27.44C1220.62,137.44,1226.39,140.66,1228.21,141.32Z"/><path class="cls-26" d="M1221.6,114.41c-.09,6.19-1.69,22.19-3.8,27.22s-.46,10,8.64,10.81,17.43,4.53,21.12,1.66,4-34.65-3.94-42.56-13.72-9.38-17.83-6.77S1221.6,114.41,1221.6,114.41Z"/><path class="cls-20" d="M1245.29,104.15s-18.48-6.19-22.2,6.83,0,26.61,10,26.28C1245.34,136.85,1259.65,111.47,1245.29,104.15Z"/><path class="cls-27" d="M1233,119c0,.83-.52,1.48-1,1.44s-.92-.73-.86-1.57.53-1.48,1.06-1.45S1233.07,118.19,1233,119Z"/><path class="cls-28" d="M1235.57,123.42a1.82,1.82,0,1,1-1.91-1.23A1.62,1.62,0,0,1,1235.57,123.42Z"/><path class="cls-27" d="M1233.52,118.81s-.44-1.92-1.13-2-1.82,1.24-1.82,1.24l-1.25-.91,1.21.47s1-1.46,2-1.17S1233.52,118.81,1233.52,118.81Z"/><path class="cls-27" d="M1225.29,117.83c-.06.83-.53,1.48-1.06,1.45s-.91-.74-.86-1.58.53-1.48,1.06-1.45S1225.34,117,1225.29,117.83Z"/><path class="cls-27" d="M1225.79,117.61s-.44-1.92-1.12-2-1.82,1.23-1.82,1.23l-1.25-.91,1.2.47s1-1.46,2-1.16S1225.79,117.61,1225.79,117.61Z"/><path class="cls-26" d="M1234.55,114.45a.39.39,0,0,1-.3-.17,2.52,2.52,0,0,0-2.28-1.06.39.39,0,0,1-.08-.77,3.3,3.3,0,0,1,3,1.41.38.38,0,0,1-.11.53A.33.33,0,0,1,1234.55,114.45Z"/><path class="cls-26" d="M1226,112.48a.43.43,0,0,1-.22-.09,2.53,2.53,0,0,0-2.49-.32.38.38,0,0,1-.51-.19.39.39,0,0,1,.2-.51,3.32,3.32,0,0,1,3.29.43.39.39,0,0,1,0,.54A.4.4,0,0,1,1226,112.48Z"/><path class="cls-28" d="M1226.4,121.69s-3.3,0-3,1.19,2.23,2.67,2.23,2.67S1227.14,123.14,1226.4,121.69Z"/><path class="cls-24" d="M1240.46,144.3s-12,16.47-10.26,32.78,6.82,41.35,19.62,50.34c0,0-.8-8.73-2.39-20.43s12.92-45.11,10.53-55.2C1256.82,147,1253.94,144.28,1240.46,144.3Z"/><path class="cls-24" d="M1253.16,146.69c-5.91-5-34.51,4-34.51,4l-27.84-26.25-4.11,3.48s23.69,32.23,28.29,35.4,31.06.94,35.39-1.9S1256,149.05,1253.16,146.69Z"/><path class="cls-26" d="M1237.93,110.84a21,21,0,0,1,4,12.39s3.11-3.8,4.73-.5-4.91,7-4.91,7,.12,9.55,3,9.66,10.41-16,8.72-21.44S1246.6,107,1237.93,110.84Z"/><path class="cls-28" d="M1241.56,127.94c-1.41,3.82-6.85,10.43-12.61,8.54,0,0,.79,3.79-1.6,5.87,0,0-1.62,1.62.83,3.28,7.7,5.24,13,1.53,13.81.19l1.63-17.18A1.25,1.25,0,0,1,1241.56,127.94Z"/><path class="cls-26" d="M1231.42,107.8s-.08,13.51,9.1,17.1-6.38,22.6-5.66,34.45c0,0,17.63,6.09,20.42,1.72s-1.5-21.16.5-29.81.42-21.53-5.9-27.75-31.79-9.09-28.28,10.9C1221.6,114.41,1222.88,107.8,1231.42,107.8Z"/><path class="cls-17" d="M1192.69,88.14l5.33,22a7.4,7.4,0,0,1-5.44,8.94l-78.72,19.15a7.41,7.41,0,0,1-8.95-5.45l-6.08-20.29a7.3,7.3,0,0,1,5.17-9.17l79.72-20.57A7.4,7.4,0,0,1,1192.69,88.14Z"/><polygon class="cls-4" points="1112.67 114.07 1184.02 96.36 1183.48 94.17 1112.12 111.87 1112.67 114.07"/><polygon class="cls-4" points="1114.42 121.29 1185.78 103.59 1185.24 101.39 1113.88 119.09 1114.42 121.29"/><rect class="cls-4" x="1115.43" y="122.6" width="29.09" height="2.26" transform="translate(3.5 276.06) rotate(-13.95)"/><path class="cls-20" d="M1186.64,128.37s4.54-.47,4.06-4.59c0,0-2.1-4.83-2.65-5.68s-3.22-.46-3.22-.46a3.24,3.24,0,0,0,1.83,1.36,1.11,1.11,0,0,1-.48,1.26c-.76.4-2.5.34-3,.49-1.07.29-4.21-.61-5.4-.16s-.67,1-.67,1l2.75,1s-2.87-.2-4.09.92,4.3,1.14,4.3,1.14-3.57.29-4,1.1c-.12.23.87.39.87.39s-.66.27-.43.81,1.9.59,3.19.54A37.49,37.49,0,0,1,1186.64,128.37Z"/><path class="cls-28" d="M1179.81,122.59s2.72.46,3.14.49,1.23.2,1.23.2S1183,123.62,1179.81,122.59Z"/><path class="cls-28" d="M1180,124.65a9.3,9.3,0,0,1,1.82.32c.33.17,1.47-.15,1.64.13S1181.72,125.42,1180,124.65Z"/><path class="cls-28" d="M1176.91,126.14a24.13,24.13,0,0,1,3.25.08c.73.16,2.24-.28,2.52,0S1178.63,126.6,1176.91,126.14Z"/><path class="cls-27" d="M1225.38,129.31a2.9,2.9,0,0,0,2.69,1.45,3.42,3.42,0,0,0,1.92-.53,3.47,3.47,0,0,0,1.15-1.42c.21-.43-.44-.81-.64-.38a2.82,2.82,0,0,1-.89,1.15,2.61,2.61,0,0,1-1.54.43,2.16,2.16,0,0,1-2-1.07.37.37,0,0,0-.64.37Z"/></g></g></svg>