<svg xmlns="http://www.w3.org/2000/svg" viewBox="0 0 1919.88 442.71"><defs><style>.cls-1{fill:#d9d9e2;}.cls-2{fill:#e5e5ea;}.cls-3{fill:#eeedef;}.cls-4{fill:#fff;}.cls-5{fill:#f7b634;}.cls-6{fill:#efb670;}.cls-7{opacity:0.92;}.cls-8{fill:#e0dfde;}.cls-13,.cls-9{opacity:0.14;}.cls-10,.cls-13{fill:#0097cf;}.cls-11{opacity:0.5;}.cls-12{opacity:0.54;}.cls-13{isolation:isolate;}.cls-14{fill:#1bbfbf;}.cls-15,.cls-23,.cls-25,.cls-29,.cls-32,.cls-33{fill:none;stroke-miterlimit:10;}.cls-15{stroke:#4ca5a2;stroke-linecap:round;stroke-width:1.94px;}.cls-16{fill:#ecbc4f;}.cls-17{fill:#e8792e;}.cls-18{fill:#f47f31;}.cls-19{fill:#123c5e;}.cls-20{fill:#fdbfb2;}.cls-21{fill:#ffaeab;}.cls-22{fill:#f9927d;}.cls-23{stroke:#123c5e;}.cls-24{fill:#09090b;}.cls-25,.cls-29{stroke:#09090b;}.cls-25{stroke-width:0.77px;}.cls-26{fill:#ff7133;}.cls-27{fill:#faaeb0;}.cls-28{fill:#3a2c32;}.cls-29{stroke-width:0.75px;}.cls-30{fill:#f7a59c;}.cls-31{fill:#ffb1a5;}.cls-32{stroke:#ccc;stroke-width:1.03px;}.cls-33{stroke:#fff;stroke-width:0.75px;}</style></defs><title>academy_5</title><g id="Layer_2" data-name="Layer 2"><g id="Layer_1-2" data-name="Layer 1"><path class="cls-1" d="M.28,288.57s352.77,27.87,429.9,0c118-42.64,292.43-27.88,430.32,26.24,131.08,51.45,254.22,3.28,310.7-18s259.19-36.08,456.9,29.52,291.36-3.08,291.36-3.08l.42,119.45H.32Z"/><path class="cls-2" d="M0,279.33s226.83-45.84,391.54,24.28c130.53,55.56,369.35,32.07,492.46-7.07s397.23-26.77,490.81,28.26c74.86,44,195.72,48.49,269.52,11.42,117.59-59.08,274.8-13.28,274.8-13.28l.41,119.44L0,442.71Z"/><path class="cls-3" d="M771.57.76h398a17.18,17.18,0,0,1,17.16,17.18V268.33a23.34,23.34,0,0,1-23.34,23.34H777.73a23.34,23.34,0,0,1-23.33-23.34h0V17.94A17.18,17.18,0,0,1,771.57.76Z"/><rect class="cls-4" x="776.56" y="25.56" width="388.02" height="244.54"/><path class="cls-5" d="M772.65,0h395.8a18.47,18.47,0,0,1,18.47,18.47v13H754.18v-13A18.47,18.47,0,0,1,772.64,0Z"/><circle class="cls-3" cx="1136.82" cy="17.31" r="2.9"/><circle class="cls-3" cx="1146.95" cy="17.31" r="2.9"/><circle class="cls-3" cx="1156.68" cy="17.31" r="2.9"/><path class="cls-6" d="M800.82,287.23a29.31,29.31,0,0,1,6.57,1.1c2.34.57,4.66,1.16,7,1.82,4.68,1.34,9.22,3.08,13.79,4.76a38.06,38.06,0,0,1,7,3.48c.12.07,0,.26-.09.19a36,36,0,0,0-6-3.13c-2.29-.88-4.6-1.72-6.89-2.57a123.48,123.48,0,0,0-13.7-4.15,35.74,35.74,0,0,0-7.59-1.4c-.06,0-.07-.1,0-.1Z"/><g class="cls-7"><path class="cls-8" d="M855.23,295.67a53.52,53.52,0,0,0,2-21.82,34.06,34.06,0,0,0-9.36-19.68,60.23,60.23,0,0,0-6.43-5.29c-5.75-4.31-11.52-8.62-17.44-12.71-4.64-3.21-9.51-6.43-12.47-11.14a100.77,100.77,0,0,0,2.1,19.67,43,43,0,0,0,3.8,11.48c2.9,5.44,7.55,9.77,11.86,14.26A154,154,0,0,1,843.1,287a33.88,33.88,0,0,0,4.17,5.16,16.31,16.31,0,0,0,7.71,4"/><g class="cls-9"><path class="cls-10" d="M830.13,257.48A95.23,95.23,0,0,1,845,263.7a37,37,0,0,1,10.87,8.74c.53.65,1,1.31,1.47,2a53.65,53.65,0,0,1-2.11,21.22l-.25.51a16.42,16.42,0,0,1-7.7-4,33.86,33.86,0,0,1-4.18-5.15,154.5,154.5,0,0,0-13.77-16.55c-4.31-4.49-9-8.82-11.86-14.26a33.56,33.56,0,0,1-1.62-3.62,70.34,70.34,0,0,1,6.79,2.29C825.11,255.75,827.62,256.61,830.13,257.48Z"/></g><g class="cls-11"><path class="cls-10" d="M815.9,235.67c3.84,8.47,10.8,15.11,17.27,21.74a111,111,0,0,1,9.12,10.26A70.56,70.56,0,0,1,849.81,280a66.9,66.9,0,0,1,5.25,15.77c.06.28-.38.42-.44.14a70.8,70.8,0,0,0-11.91-27c-5.46-7.5-12.6-13.61-18.67-20.62a50.93,50.93,0,0,1-8.29-12.62c0-.1.12-.14.16,0Z"/></g></g><g class="cls-7"><path class="cls-8" d="M854.1,308.37c-2-8.23-5.92-15.53-12.58-21-4.16-3.43-9-6.06-13-9.68-6.29-5.75-10-13.62-15.46-20.09-7.4-8.72-17.77-14.54-27.9-20.17,10.35,13.8,12,32.44,22.9,45.87,8.92,11,23,17.08,36.92,20.94,3.27.9,6.73,1.81,9.09,4.16"/><g class="cls-12"><path class="cls-10" d="M792.08,244.78c9.67,6,15.41,15.94,21.41,25.07a86.09,86.09,0,0,0,10.4,13.49,40.45,40.45,0,0,0,6.59,5.45c2.69,1.75,5.65,3.08,8.39,4.75a49.38,49.38,0,0,1,15,14c.16.24-.22.44-.39.22a54.33,54.33,0,0,0-13.67-13c-2.69-1.75-5.6-3.1-8.35-4.75a38.62,38.62,0,0,1-6.43-4.88c-8.19-7.64-13.12-17.8-19.55-26.72-3.72-5.14-8-10-13.46-13.43a.08.08,0,0,1-.06-.1.09.09,0,0,1,.1-.06l0,0Z"/></g><path class="cls-13" d="M800.63,260.33c3.62,2.35,6,6,8.09,9.76s3.86,7.61,6.7,10.8a23.52,23.52,0,0,0,17.44,7.66c3.11,0,6.23-.64,9.32-.57,6.25,5.42,10,12.49,11.91,20.44-2.36-2.35-5.83-3.25-9.09-4.16-14-3.86-28-9.92-36.93-20.94-5.92-7.31-9.11-16.16-12.46-24.94A13.59,13.59,0,0,1,800.63,260.33Z"/></g><path class="cls-5" d="M835.17,298.44c-10.54-6.38-20.91-12.8-33.31-13.94a14.28,14.28,0,0,0-7.18.79c-.73.33-1.49.91-1.46,1.69a1.67,1.67,0,0,0,.38.93c1.06,1.43,3,1.87,4.86,2.16,12.46,2,25.59,2.53,36.64,8.41"/><path class="cls-5" d="M851.1,297.27a82.48,82.48,0,0,0-38.5-29.58c-3.3-1.26-6.84-2.33-10.38-1.92-1.33.15-3,1-2.63,2.25a2.14,2.14,0,0,0,.73,1,23,23,0,0,0,7.42,4,210,210,0,0,1,23.43,10.25,103.07,103.07,0,0,1,19.93,14"/><path class="cls-6" d="M805.27,268A202.35,202.35,0,0,1,825,276.55a84.08,84.08,0,0,1,9.08,5.43c3,2.1,6,4.38,8.81,6.7a33.65,33.65,0,0,1,4.06,3.58c1.17,1.32,2.19,2.75,3.4,4,.1.1,0,.26-.14.16-1-1.08-1.91-2.26-2.87-3.4a21,21,0,0,0-1.56-1.7c-.6-.56-1.27-1.07-1.91-1.59-2.84-2.32-5.7-4.61-8.69-6.75a103.89,103.89,0,0,0-18.83-10.36c-3.67-1.61-7.38-3.1-11.1-4.61V268Z"/><path class="cls-5" d="M852.35,293.87c-4.11-6.23-8.24-12.51-11.19-19.33-2.29-5.31-3.93-11.07-7.85-15.41a4.13,4.13,0,0,0-2.6-1.59,2.93,2.93,0,0,0-2.58,1.47,5.18,5.18,0,0,0-.6,2.94c.15,3.11,1.78,5.94,3.47,8.59,5.51,8.65,9.65,16.65,21.35,23.33"/><path class="cls-6" d="M832.14,264.19c4.07,8.08,8.37,16.15,14.22,23.19.84,1,1.7,2,2.6,2.95s1.89,1.88,2.83,2.83c.09.08,0,.22-.12.14a43.77,43.77,0,0,1-4.82-5,66.08,66.08,0,0,1-4.18-5.41A111.54,111.54,0,0,1,835.55,271c-1.19-2.26-2.34-4.54-3.48-6.83,0,0,0-.06.07,0Z"/><path class="cls-14" d="M1380.19,322.9c-4.89-17.17-22.18-54.75-41.83-52.58-22.64,2.5,22.21,43.52,22.21,43.52s-31.38-24.19-42.71-10.14,38.5,23,38.5,23-26.22-5.45-23.62,5,46.33,7.45,49.37,17.49S1383.53,334.68,1380.19,322.9Z"/><path class="cls-15" d="M1382,345c-4.28-18.22-12.09-35.89-23.49-50.78a105.43,105.43,0,0,0-14-15.11"/><path class="cls-15" d="M1381.74,345.33c-11.86-19.67-32.06-34-54.37-37.69"/><path class="cls-15" d="M1381.5,345.48c-10.74-8.73-24.38-13.23-38.07-14.2"/><path class="cls-14" d="M1387.16,322.08c4.89-17.18,22.19-54.75,41.82-52.59,22.66,2.5-22.19,43.53-22.19,43.53s31.37-24.2,42.7-10.15-38.5,23-38.5,23,26.22-5.45,23.62,5-46.32,7.44-49.38,17.49S1383.82,333.85,1387.16,322.08Z"/><path class="cls-15" d="M1385.32,344.18c4.29-18.22,12.09-35.88,23.49-50.78a106,106,0,0,1,14-15.11"/><path class="cls-15" d="M1385.6,344.5c11.87-19.67,32.08-34,54.39-37.69"/><path class="cls-15" d="M1385.86,344.65c10.74-8.73,24.37-13.23,38.07-14.2"/><path class="cls-14" d="M1371.54,305.5c-4.45-26.62-6.2-88,18.77-94.23,28.79-7.19-.59,72.11-.59,72.11s23.27-49.1,45.35-34.6-32.53,50.85-32.53,50.85,28.31-20.14,31.45-4.14-51.34,32.49-49,48.15S1374.58,323.75,1371.54,305.5Z"/><path class="cls-15" d="M1382.59,337.65c-5.78-27.81-7-56.51-2.21-83a149.4,149.4,0,0,1,7.82-28"/><path class="cls-15" d="M1383.12,338c2.48-33.46,18.19-63.36,42.87-79.11"/><path class="cls-15" d="M1383.52,338.06c7.69-17.44,21.41-30.27,37.33-38.14"/><path class="cls-16" d="M581.07,294.85c.55-6.24-8.31-4.33-11.59-2.4-6.39,3.77-16.35,15.79-18.36,19.66-.09-1.52-.22-3-.4-4.56-.33-2.83-.66-5.65-1-8.48,4.19-1.36,13.27-3.79,20.54-15.07,1.22-1.89,2.68-4.52,1.59-6.77-1.51-3.13-4.23-.68-5.92.92-2.88,2.73-12.09,12.77-16.64,17.2-.65-5.66-1.28-11.32-2-17,7.46-4.09,16.52-9.11,19.7-17.59,2.08-5.55-4.14-5.3-7.32-3.4-5.7,3.4-10.07,9.66-13,15.94-.33-2.66-.67-5.31-1-8-.07-.48-.13-1-.19-1.43,3.84-1.69,7.72-2.92,10.87-5.92a16.7,16.7,0,0,0,4.75-11.27c.1-1.85.5-4.08-.79-5.68-1.81-2.23-3.09.79-4,2.5a112.35,112.35,0,0,1-6.47,10.6c-1.28,1.86-2.42,3.65-3.49,5.56a19.3,19.3,0,0,1-1.23,1.73c-.54-3.77-1.16-7.55-1.85-11.3,5.17-5,11.37-11.13,12.06-18.74.45-5-4.56-3.4-6.72-1.13-3.36,3.52-5.43,8.55-6.57,13.6-.33-1.63-.68-3.26-1-4.88,4-7.45,9-16.62,7-25.36-1.28-5.55-6.22-2-7.81,1.28a27.78,27.78,0,0,0-2.52,10.6l-.6-2.17c-.49-1.73-1-3.42-1.65-5.09,4.23-5.86,9.34-13,8.68-20.65-.43-5-5.09-2.54-6.83.07-2.76,4.14-3.9,9.63-4.1,14.9-1.06-2.48-2.21-4.92-3.4-7.34,2.68-5.26,5.87-11.64,4.38-17.71-1-4-4.43-1.42-5.51.91a23,23,0,0,0-1.56,11.47c-1.35-2.63-2.7-5.26-4-7.92.33-2.64.45-5.45.51-7.89.06-2.89-.31-6.11-2.71-8.09-3.16-2.6-5.75-1.1-6.33,2.78a9.51,9.51,0,0,0,.69,5,8.06,8.06,0,0,0-4.16-1.53,2.79,2.79,0,0,0-2.64,1.14c-.75,1.2-.33,3.14.73,4.67,1.88,2.71,5.13,4.17,7.81,5.93a20.38,20.38,0,0,1,2.35,1.88c1,.94,2,1.93,3.06,2.79.89,1.73,1.78,3.46,2.65,5.21h0c-3.25-3.59-7.44-6.88-11.94-8-2.5-.6-6.66.5-4.15,3.75,4,5.21,11.56,6.57,17.5,7.79l.26-.19c.39.81.78,1.61,1.16,2.43l.07.12a109.17,109.17,0,0,1,5.14,12.82h0a19.38,19.38,0,0,0-3.87-3c-2.53-1.47-7.43-1.61-5.74,2.74,2.18,5.6,7.6,9.22,12.8,12.11,1.43,5.92,2.69,11.91,3.76,17.91-2.55-5.15-6.23-10.2-11-13-2.71-1.57-8-1.72-6.15,2.95,2.91,7.49,11.25,11.68,17.77,15.16l.2-.06h0c.46,2.82.87,5.66,1.25,8.48.18,1.39.36,2.78.53,4.17h0c-3.34-7-8.17-14.1-14.31-18-3.5-2.22-10.25-2.52-7.84,4,3.85,10.37,14.55,16.3,23,21.22h0c.45,3.95.86,7.91,1.29,11.86-5.08-5.32-14.93-17-18.43-20.45-1.63-1.64-5.89-5-7.56-1.46-.92,2,.84,6.15,2,7.9,2.46,3.9,15.32,14.32,24.73,20.11h0c.33,2.81.67,5.61,1.06,8.41.14,1,.26,2.07.37,3.1-6.83-8.53-21.26-24.28-26.11-26.66-2.47-1.21-6.81-2.56-8.68.27s2,6.48,3.54,8.77c3.57,5.28,20,16.68,23.39,18.35,2.59,1.29,5.57,2.07,8.18,3.2v.13c.15,2.33.22,4.63.22,6.93l-.44-.28c-7.5-4.88-22.8-16.22-28-19.44-2.42-1.49-8.46-4.36-9.47.38-.54,2.62,2.75,7.13,4.57,8.91,3.76,3.71,20,11.67,32.59,16.21l.69.23c-.23,7.48-.82,14.93-1,22.65-.06,2.33,3.56,2.63,3.61.29.26-11.15,1.69-21.91,1.2-32.95C563.94,310.91,580.87,297.68,581.07,294.85Z"/><path class="cls-17" d="M592,332c3.18-3.36-2.82-6.34-5.61-6.73-5.44-.76-16.74,1.61-19.69,2.93.65-.92,1.27-1.86,1.88-2.83,1.11-1.79,2.22-3.58,3.34-5.35a25.42,25.42,0,0,0,18.84.74c1.58-.54,3.62-1.39,4-3.19.57-2.51-2.14-2.35-3.84-2.2-2.93.26-12.89,1.82-17.56,2.3,2.23-3.58,4.47-7.15,6.68-10.74,6.22,1.08,13.76,2.34,19.51-1.11,3.76-2.25,0-5-2.67-5.33-4.86-.66-10.27.95-14.87,3.24,1-1.7,2.07-3.39,3.09-5.09.18-.3.36-.61.55-.91,3,.79,5.82,1.87,9,1.58a12.25,12.25,0,0,0,7.94-4.34c.92-1,2.18-2.13,2.16-3.65,0-2.12-2.15-1-3.46-.4a83.91,83.91,0,0,1-8.63,3.16c-1.59.49-3.08,1-4.58,1.61a11.74,11.74,0,0,1-1.51.43c1.42-2.43,2.8-4.89,4.14-7.4,5.29-.52,11.71-1.19,15.61-5.28,2.56-2.69-1.08-4.07-3.38-3.75a21.34,21.34,0,0,0-10.06,4.84c.55-1.09,1.1-2.2,1.64-3.3,5.73-2.49,12.87-5.48,15.72-11.47,1.81-3.81-2.7-4-5.11-2.86a20.7,20.7,0,0,0-6.35,5c.22-.51.44-1,.65-1.54.52-1.23,1-2.46,1.4-3.7,5.14-1.45,11.39-3.23,14.53-8,2-3.09-1.77-3.82-4-3.11-3.5,1.13-6.69,3.78-9.23,6.74q.79-2.9,1.41-5.82c4-1.81,8.76-4,10.7-8.23,1.26-2.76-1.92-2.87-3.62-2a17,17,0,0,0-6.18,5.92c.43-2.15.85-4.29,1.31-6.44,1.41-1.38,2.77-2.95,3.93-4.34,1.37-1.64,2.64-3.68,2.16-5.93-.63-3-2.82-3.28-5-1.31a7,7,0,0,0-1.91,3.23,5.94,5.94,0,0,0-1.7-2.8,2.07,2.07,0,0,0-2.06-.55c-1,.34-1.64,1.66-1.73,3-.16,2.43,1,4.77,1.79,7a12.39,12.39,0,0,1,.49,2.17c.16,1,.28,2,.49,3-.28,1.42-.57,2.83-.86,4.24h0c-.23-3.57-1.14-7.41-3.24-10.12-1.17-1.5-4.09-2.78-4.13.26-.07,4.87,3.67,9.13,6.54,12.57h.3c-.14.65-.29,1.29-.44,1.94v.1a79.41,79.41,0,0,1-2.93,9.8h0a13.73,13.73,0,0,0-.86-3.52c-.78-2-3.56-4.35-4.57-1-1.32,4.24.14,8.84,1.82,12.9-1.89,4.09-3.92,8.14-6.06,12.11.89-4.15,1.09-8.78-.38-12.55-.85-2.16-3.82-4.67-4.92-1.13-1.77,5.68,1.13,11.95,3.3,17l.15.05h0q-1.56,2.77-3.18,5.49L581.15,300h0c1.37-5.7,1.84-12,.08-17.12-1-2.9-4.77-6.18-6.37-1.31-2.55,7.77.92,16.14,3.53,22.86h0l-4.72,7.46c-.49-5.42-.83-16.7-1.25-20.33-.19-1.7-1.09-5.63-3.7-4.33-1.45.72-2.35,4-2.51,5.47-.37,3.39,2.27,15.35,5,23h0q-1.66,2.66-3.27,5.35c-.39.67-.8,1.32-1.21,2,0-8.08-1.12-23.85-2.83-27.46-.88-1.84-2.77-4.62-5.16-3.84s-1.83,4.67-2,6.71c-.36,4.7,3.93,18.89,5.09,21.39.91,2,2.27,3.77,3.27,5.63l-.06.08q-1.49,2.12-3.06,4.11a1.49,1.49,0,0,0-.13-.37c-2.1-6.28-5.73-19.89-7.26-24.16-.72-2-2.9-6.42-5.66-4.14-1.52,1.27-1.69,5.39-1.45,7.26.47,3.89,6.17,16,11.39,24.4l.29.46c-3.57,4.22-7.35,8.26-11,12.65-1.11,1.32.85,3.17,2,1.84,5.28-6.34,11.06-11.91,15.87-18.53C574.69,333.41,590.56,333.52,592,332Z"/><g class="cls-7"><path class="cls-8" d="M545.74,333c.86-9.08.42-18.39-2.32-27.09s-7.89-16.79-15.27-22.15a72.12,72.12,0,0,0-8.72-5.16c-7.71-4.09-15.42-8.18-23.28-12-6.15-3-12.59-5.91-17.09-11.07a129.92,129.92,0,0,0,6.72,23.62,54.72,54.72,0,0,0,7,13.27c4.59,6,11,10.4,17,15a191.56,191.56,0,0,1,19.8,17.42,42.49,42.49,0,0,0,6,5.45,19.27,19.27,0,0,0,9.95,3.36"/><g class="cls-9"><path class="cls-10" d="M507.88,291.41A110.37,110.37,0,0,1,526.76,296a44.94,44.94,0,0,1,14.7,8.47c.76.68,1.48,1.4,2.16,2.14A69.74,69.74,0,0,1,545.73,333l-.2.67a19.36,19.36,0,0,1-9.95-3.36,42.49,42.49,0,0,1-6-5.45,191.56,191.56,0,0,0-19.8-17.42c-6-4.61-12.45-9-17-15a37.22,37.22,0,0,1-2.69-4.11c2.85.27,5.66.87,8.48,1.42C501.65,290.32,504.78,290.85,507.88,291.41Z"/></g><g class="cls-11"><path class="cls-10" d="M486.46,267.65c6.34,9.57,16,16.27,25,23.06a137,137,0,0,1,13,10.67A89.08,89.08,0,0,1,536,315a85.89,85.89,0,0,1,9.6,18.21c.12.33-.36.59-.49.26a90.07,90.07,0,0,0-19.86-30.55c-8.05-8.05-17.78-14.07-26.44-21.4a63.23,63.23,0,0,1-12.48-13.74c-.07-.11.11-.2.18-.09Z"/></g></g><g class="cls-7"><path class="cls-8" d="M547.15,348.74C543,339.08,536.81,331,527.78,325.6c-5.64-3.35-11.9-5.57-17.36-9.2-8.64-5.74-14.68-14.62-22.54-21.4-10.61-9.15-24.08-14.15-37.22-19,15.16,14.76,21.16,37.22,36.87,51.41,12.91,11.66,30.72,16.2,48,18.07,4,.44,8.32.84,11.61,3.23"/><g class="cls-12"><path class="cls-10" d="M460.37,283.64C473.05,289,482,300,491,309.93a106.86,106.86,0,0,0,15.16,14.38,48.89,48.89,0,0,0,8.94,5.31c3.54,1.59,7.32,2.61,10.91,4.1a60.07,60.07,0,0,1,20.65,14c.24.25-.16.58-.41.34a66.37,66.37,0,0,0-18.92-13.16c-3.54-1.59-7.26-2.64-10.85-4.1a46.64,46.64,0,0,1-8.63-4.65c-11.29-7.67-19.29-19.09-28.8-28.68C473.56,292,467.47,287,460.3,283.82a.1.1,0,0,1,0-.14A.12.12,0,0,1,460.37,283.64Z"/></g><path class="cls-13" d="M473.79,300.92c4.77,2.13,8.42,6.15,11.64,10.28s6.2,8.52,10.24,11.84a27.73,27.73,0,0,0,22.18,5.8c3.66-.66,7.19-2.06,10.85-2.6,8.53,5.36,14.46,13.24,18.44,22.56-3.29-2.39-7.57-2.78-11.61-3.22-17.29-1.88-35.1-6.42-48-18.07-8.55-7.73-14.23-17.9-20.07-27.95A15.81,15.81,0,0,1,473.79,300.92Z"/></g><path class="cls-18" d="M522.71,340.47c-13.79-5.66-27.38-11.39-42.25-10.25-2.9.22-5.9.75-8.28,2.43-.79.55-1.56,1.42-1.36,2.36a2.13,2.13,0,0,0,.65,1.06c1.56,1.54,4,1.66,6.2,1.65,15.1-.09,30.68-2.13,45,2.81"/><path class="cls-6" d="M479.89,333.77a33.45,33.45,0,0,1,8,0c2.87.21,5.75.46,8.62.8,5.8.68,11.52,1.88,17.25,3a45,45,0,0,1,9,2.82c.16.07.08.32-.07.25a42.54,42.54,0,0,0-7.78-2.59c-2.88-.61-5.78-1.16-8.67-1.73a145,145,0,0,0-17-2.29,41.29,41.29,0,0,0-9.23-.15c-.08,0-.11-.11,0-.12Z"/><path class="cls-18" d="M541.21,335.78a99.61,99.61,0,0,0-51.72-28.31c-4.17-.86-8.56-1.45-12.65-.23-1.53.45-3.28,1.85-2.61,3.3a2.8,2.8,0,0,0,1.08,1.08c2.85,1.88,6.27,2.63,9.6,3.36,10,2.18,20.1,4.35,29.8,7.75a123.43,123.43,0,0,1,26.5,13"/><path class="cls-6" d="M480.89,309.38A234.8,234.8,0,0,1,506,315.8a99.93,99.93,0,0,1,11.93,4.78c4,1.95,8,4.15,11.82,6.41a41.47,41.47,0,0,1,5.56,3.54c1.66,1.37,3.17,2.92,4.87,4.24.13.1,0,.33-.13.23-1.44-1.11-2.74-2.38-4.11-3.57a24.71,24.71,0,0,0-2.21-1.76c-.83-.57-1.73-1.05-2.6-1.56-3.84-2.25-7.7-4.47-11.68-6.47A123.22,123.22,0,0,0,495,312.8c-4.66-1.22-9.37-2.28-14.07-3.36-.05,0,0-.07,0-.06Z"/><path class="cls-18" d="M542,331.37c-6.19-6.78-12.41-13.61-17.35-21.35-3.85-6-7-12.74-12.58-17.24a4.93,4.93,0,0,0-3.41-1.41,3.43,3.43,0,0,0-2.72,2.32,6.72,6.72,0,0,0-.07,3.72c.85,3.77,3.38,6.9,5.94,9.79,8.36,9.45,15,18.39,30.19,24.17"/><path class="cls-6" d="M511.73,299.2c6.54,9.05,13.35,18,21.76,25.46,1.2,1.06,2.44,2.09,3.71,3.07s2.63,1.92,3.94,2.88c.12.09,0,.28-.12.2a53.1,53.1,0,0,1-6.75-5.1c-2.12-1.82-4.16-3.74-6.09-5.76a142.4,142.4,0,0,1-10.95-13.07q-2.82-3.78-5.57-7.63c-2.74-3.85,0-.09.07-.05Z"/><path class="cls-14" d="M1131.12,299.75c7-15.46,14.18-30.69,13.27-47.55-.18-3.29-.72-6.7-2.62-9.44-.63-.91-1.63-1.81-2.74-1.61a2.64,2.64,0,0,0-1.27.71c-1.85,1.73-2.07,4.48-2.11,7-.34,17.1,1.62,34.8-4.6,50.82"/><path class="cls-6" d="M1140.49,245.88a37.13,37.13,0,0,1,.13,9c-.19,3.27-.43,6.53-.78,9.78-1.34,12.76-1,7.83-3.23,19.6a50,50,0,0,1-3.17,10.2c-.07.17-.37.1-.29-.08a47.52,47.52,0,0,0,2.91-8.85c.66-3.28,1.26-6.57,1.89-9.85a159.09,159.09,0,0,0,2.38-19.34c.22-3.46.61-7,0-10.46,0-.08.12-.12.14,0Z"/><path class="cls-18" d="M1129.65,303a111.83,111.83,0,0,0,34.78-57.78c1.13-4.7,1.94-9.65.63-14.31-.49-1.74-2.08-3.76-3.8-3a3.2,3.2,0,0,0-1.3,1.2c-2.29,3.17-3.28,7-4.23,10.77-2.85,11.31-5.69,22.65-10,33.53A138,138,0,0,1,1129.65,303"/><path class="cls-6" d="M1162.43,235.41a258.7,258.7,0,0,1-8.27,28.22,111.77,111.77,0,0,1-6,13.3c-2.4,4.52-5.1,8.89-7.86,13.21a45,45,0,0,1-4.34,6.19c-1.66,1.85-3.51,3.52-5.12,5.41-.12.14-.39,0-.26-.16,1.34-1.6,2.87-3,4.31-4.55a27.48,27.48,0,0,0,2.13-2.45c.7-.93,1.29-1.93,1.91-2.91,2.76-4.28,5.48-8.59,8-13a137.38,137.38,0,0,0,11.09-27.4c1.57-5.25,3-10.55,4.35-15.84h.08Z"/><path class="cls-14" d="M1134.82,303.91c8.15-6.82,16.36-13.68,25.61-19.05,7.19-4.19,15.17-7.6,20.62-13.77a5.51,5.51,0,0,0,1.77-3.82,4,4,0,0,0-2.66-3.14,8.15,8.15,0,0,0-4.38-.18c-4.45.86-8.2,3.64-11.68,6.45-11.35,9.21-22,16.43-29.28,33.51"/><path class="cls-6" d="M1173.51,270.59c-10.83,7.15-21.59,14.62-30.55,23.93q-1.93,2-3.73,4.11c-1.21,1.43-2.32,2.93-3.5,4.38-.1.14-.33,0-.23-.14a61.88,61.88,0,0,1,6.2-7.5c2.19-2.35,4.52-4.6,6.94-6.74a170.24,170.24,0,0,1,15.68-12c3-2.07,6.07-4.09,9.14-6.09,0,0,.1,0,0,.08Z"/><g class="cls-11"><path d="M901.4,155.8a1.14,1.14,0,0,1-.42.9,1.44,1.44,0,0,1-1,.36,1.28,1.28,0,0,1-1.26-.86l-2.55-5.83H882.61L880,156.2a1.28,1.28,0,0,1-1.26.86,1.47,1.47,0,0,1-1-.38,1.16,1.16,0,0,1-.44-.91,1.22,1.22,0,0,1,.15-.58l10.29-22.9a1.6,1.6,0,0,1,.65-.75,1.81,1.81,0,0,1,.94-.25,1.79,1.79,0,0,1,1,.27,1.65,1.65,0,0,1,.65.73l10.29,22.9A1.31,1.31,0,0,1,901.4,155.8Zm-17.71-7.88H895.1L889.37,135Z"/><path d="M909.25,155.6a10.2,10.2,0,0,1-4-4.5,17.41,17.41,0,0,1,0-13.82,10.2,10.2,0,0,1,4-4.5,11.85,11.85,0,0,1,6.22-1.57A13.24,13.24,0,0,1,920,132a10.94,10.94,0,0,1,3.72,2.21,1.66,1.66,0,0,1,.58,1.26,1.41,1.41,0,0,1-.29.88.82.82,0,0,1-.68.38,2.07,2.07,0,0,1-1.05-.39,13.2,13.2,0,0,0-3.33-2,9.55,9.55,0,0,0-3.43-.58,7.88,7.88,0,0,0-6.43,2.72c-1.5,1.81-2.25,4.39-2.25,7.72s.75,6,2.25,7.76a7.88,7.88,0,0,0,6.43,2.72,9.44,9.44,0,0,0,3.42-.58,13.16,13.16,0,0,0,3.34-2,2,2,0,0,1,1.05-.4.85.85,0,0,1,.68.36,1.41,1.41,0,0,1,.29.9,1.66,1.66,0,0,1-.58,1.26,10.94,10.94,0,0,1-3.72,2.21,13.24,13.24,0,0,1-4.56.78A11.85,11.85,0,0,1,909.25,155.6Z"/><path d="M950.47,155.8a1.14,1.14,0,0,1-.42.9,1.45,1.45,0,0,1-1,.36,1.28,1.28,0,0,1-1.26-.86l-2.55-5.83H931.67l-2.59,5.83a1.28,1.28,0,0,1-1.26.86,1.51,1.51,0,0,1-1-.38,1.18,1.18,0,0,1-.43-.91,1.22,1.22,0,0,1,.15-.58l10.29-22.9a1.6,1.6,0,0,1,.65-.75,1.81,1.81,0,0,1,.94-.25,1.79,1.79,0,0,1,1,.27,1.65,1.65,0,0,1,.65.73l10.29,22.9A1.31,1.31,0,0,1,950.47,155.8Zm-17.72-7.88h11.42L938.44,135Z"/><path d="M955.05,156.48a1.39,1.39,0,0,1-.41-1v-22.5a1.39,1.39,0,0,1,.41-1,1.52,1.52,0,0,1,1.1-.4h7q6.09,0,9.42,3.3t3.33,9.37q0,6.09-3.35,9.4t-9.4,3.31h-7A1.52,1.52,0,0,1,955.05,156.48Zm7.94-2.12q9.87,0,9.87-10.19T963,134h-5.4v20.34Z"/><path d="M981.66,156.48a1.36,1.36,0,0,1-.42-1v-22.5a1.36,1.36,0,0,1,.42-1,1.49,1.49,0,0,1,1.1-.4h13.46a1.45,1.45,0,0,1,1,.33,1.13,1.13,0,0,1,.36.9,1.16,1.16,0,0,1-.36.9,1.49,1.49,0,0,1-1,.32H984.16v8.82H995.5a1.49,1.49,0,0,1,1,.32,1.16,1.16,0,0,1,.36.9,1.13,1.13,0,0,1-.36.9,1.45,1.45,0,0,1-1,.33H984.16v9.21h12.06a1.54,1.54,0,0,1,1,.31,1.13,1.13,0,0,1,.36.92,1.16,1.16,0,0,1-.36.9,1.49,1.49,0,0,1-1,.32H982.76A1.49,1.49,0,0,1,981.66,156.48Z"/><path d="M1025.79,131.73a1.55,1.55,0,0,1,.38,1.1v22.79a1.52,1.52,0,0,1-.36,1,1.3,1.3,0,0,1-1,.39,1.19,1.19,0,0,1-1-.39,1.66,1.66,0,0,1-.32-1V137.23l-7.81,15a1.6,1.6,0,0,1-1.48,1.05,1.65,1.65,0,0,1-1.48-1.05l-7.84-14.79v18.21a1.57,1.57,0,0,1-.35,1,1.22,1.22,0,0,1-1,.39,1.29,1.29,0,0,1-1-.39,1.52,1.52,0,0,1-.36-1V132.83a1.56,1.56,0,0,1,.39-1.1,1.46,1.46,0,0,1,1.08-.41,1.62,1.62,0,0,1,1.44,1.05l9.15,17.53,9-17.53a2,2,0,0,1,.63-.81,1.54,1.54,0,0,1,1.87.17Z"/><path d="M1049.39,131.36a1.24,1.24,0,0,1,.9.39,1.32,1.32,0,0,1,.4,1,1.28,1.28,0,0,1-.33.9l-8.74,11.05v10.87a1.48,1.48,0,1,1-3,0V144.64l-8.74-11a1.32,1.32,0,0,1-.36-.9,1.29,1.29,0,0,1,.41-1,1.35,1.35,0,0,1,1-.39,1.31,1.31,0,0,1,1,.54l8.21,10.47,8.17-10.47A1.29,1.29,0,0,1,1049.39,131.36Z"/></g><ellipse class="cls-19" cx="728" cy="61.88" rx="12.65" ry="12.76" transform="translate(81.95 403.09) rotate(-32.7)"/><ellipse class="cls-20" cx="725" cy="77.51" rx="10.45" ry="10.55" transform="translate(73.01 403.91) rotate(-32.7)"/><path class="cls-21" d="M718.92,106.91l.1,16.65c0,3.54,2.22,3.08,5.7,3h0c3,0,5.75-.58,6.07-3.54l-.91-21.14Z"/><polygon class="cls-22" points="730.58 114.05 718.65 107.43 730.04 104.73 730.58 114.05"/><path class="cls-19" d="M741.46,84.71c0,9.6-7.47,17.38-16.69,17.38s-16.68-7.78-16.68-17.38,7.47-16.12,16.68-16.12S741.46,75.12,741.46,84.71Z"/><path class="cls-21" d="M744.33,93.38a4.56,4.56,0,1,1-4.55-4.56A4.56,4.56,0,0,1,744.33,93.38Z"/><path class="cls-23" d="M737.22,94.37c.25-.34,1.14-2.9,4-2.48"/><circle class="cls-21" cx="709.25" cy="93.38" r="4.56"/><path class="cls-23" d="M711.8,94.37c-.25-.34-1.14-2.9-4-2.48"/><path class="cls-21" d="M738.56,85a62.3,62.3,0,0,1-1.66,14.19c-.82,3.44-3.11,5.84-6.34,7.77l-.59.36a11.4,11.4,0,0,1-11.32.12h0c-3.51-2-6-4.61-6.72-8.3A91.17,91.17,0,0,1,710.41,85S709.1,70.51,724.28,70.8,738.56,85,738.56,85Z"/><path class="cls-19" d="M734,72.56s-3.63,16.18-25,14.71c0,0,.84-16,11.17-17.29C720.17,70,730.29,68.53,734,72.56Z"/><path class="cls-19" d="M728.62,70.79s.73,11.18,9.84,17.56L739.78,83S741.22,71.92,728.62,70.79Z"/><polygon class="cls-19" points="713.35 84.71 710.87 91.64 709.8 84.71 713.35 84.71"/><polygon class="cls-19" points="735.55 84.71 738.11 91.05 739.09 84.71 735.55 84.71"/><path class="cls-23" d="M723.75,94v1.83a.72.72,0,0,0,.86.72l1-.2"/><path class="cls-19" d="M717.8,85.86s2.88-.39,3,.79c0,0,0,.79-2.47,1.09s-4.2.15-4.48-.59S716.44,86,717.8,85.86Z"/><path class="cls-19" d="M730.7,85.68s-3-.41-3.11.82c0,0,0,.83,2.59,1.14s4.4.15,4.68-.62S732.12,85.76,730.7,85.68Z"/><path class="cls-19" d="M719.52,98.75a10.24,10.24,0,0,0,9.76-.38"/><path class="cls-19" d="M719.35,91.58a1.28,1.28,0,1,1-1.28-1.27A1.28,1.28,0,0,1,719.35,91.58Z"/><path class="cls-19" d="M731.5,91.58a1.28,1.28,0,1,1-1.28-1.27A1.28,1.28,0,0,1,731.5,91.58Z"/><polygon class="cls-21" points="706.15 358.49 705.74 334.36 717.18 333.77 716.34 359.14 706.15 358.49 706.15 358.49"/><polygon class="cls-24" points="705.83 336.93 717.07 337.35 717.07 340.2 705.83 336.93"/><line class="cls-24" x1="717.07" y1="337.35" x2="717.07" y2="340.2"/><path class="cls-17" d="M718.54,353.79s-8.74,3.78-12.85-2.18l-19.62,11.51,35.19-.25Z"/><rect class="cls-4" x="686.08" y="362.99" width="35.19" height="3.25" transform="translate(1409.89 724.3) rotate(179.6)"/><polygon class="cls-21" points="781.74 358.49 776.87 334.36 765.42 333.77 771.55 359.14 781.74 358.49 781.74 358.49"/><path class="cls-17" d="M769.35,353.79s8.74,3.78,12.84-2.18l19.63,11.51-35.19-.25Z"/><rect class="cls-4" x="766.62" y="362.99" width="35.19" height="3.25" transform="translate(2.57 -5.48) rotate(0.4)"/><path class="cls-5" d="M717.5,165S697.24,187.81,697.66,212s7.67,124.84,7.67,124.84l12.76.76L727.38,201l2.43-.15,35,137.18,13.86-2.27L758.85,204.26s-6.18-23.32-17.55-37.36Z"/><line class="cls-25" x1="732.82" y1="201.71" x2="721.69" y2="199.77"/><path class="cls-21" d="M699.28,133,688.47,173.8a5.48,5.48,0,0,0,4.39,7h0a6.44,6.44,0,0,0,6.6-3.55l13.92-39.4A7.47,7.47,0,0,0,709,128h0A7.47,7.47,0,0,0,699.28,133Z"/><path class="cls-21" d="M688.15,175.41l-4.62,42,8.2-.38,7.85-40.11c.56-3.2-1.64-7.08-4.86-7.54h0C691.43,168.87,688.43,172.1,688.15,175.41Z"/><path class="cls-21" d="M684.65,214.42s-11.44,14.43.19,22.1a2,2,0,0,0,2.45-.27l.08-.09a2,2,0,0,0,.1-2.66c-1.59-1.89-3.61-5.73.51-10.27,0,0,1.91.64,1.25,4.52a1.59,1.59,0,0,0,1.59,1.88h0a1.65,1.65,0,0,0,1.51-1.12c.86-2.53,2.45-8.84-1.34-12.56Z"/><path class="cls-21" d="M795,172.32s16-9,21.79,3.65a1.94,1.94,0,0,1-.65,2.38l-.1.07a2,2,0,0,1-2.65-.32c-1.62-1.87-5.09-4.46-10.22-1.11,0,0,.33,2,4.27,1.95A1.59,1.59,0,0,1,809,180.8h0a1.64,1.64,0,0,1-1.35,1.31c-2.63.45-9.12,1-12.19-3.29Z"/><path class="cls-21" d="M738.78,127.55l56.74,51.32,1.19-7.38L749.28,119.9c-2.27-2.83-7.6-3.76-10.37-1.41l.34-.31A6.44,6.44,0,0,0,738.78,127.55Z"/><polygon class="cls-21" points="720.45 118.71 705.15 129.2 717.5 164.95 741.3 166.9 744.47 134.11 743.23 116.9 720.45 118.71"/><path class="cls-26" d="M713.66,122.89s3.13,9.67,12.17,7.62,9.39-13.14,9.39-13.14l11.74-.9-4.71,43.62h-30l-8.87-32.33Z"/><path class="cls-4" d="M704.3,130.87l10.76-4.41s.69,1,1,1.38l-11.45,4.34Z"/><path class="cls-4" d="M746.23,123.13l-12.1.24s-.25,1.16-.41,1.67l12.37-.45Z"/><polygon class="cls-4" points="705.88 136.53 745.57 129.32 745.33 131.42 706.3 138.18 705.88 136.53"/><polygon class="cls-4" points="707.33 141.91 744.72 137.28 744.5 139.49 707.68 143.29 707.33 141.91"/><polygon class="cls-4" points="708.99 147.84 743.78 145.84 743.55 147.98 709.47 149.7 708.99 147.84"/><polygon class="cls-4" points="710.85 154.94 742.92 154.25 742.73 156.03 711.26 156.25 710.85 154.94"/><polygon class="cls-27" points="1238.88 371.3 1238.49 339.75 1226.75 339.08 1228.43 372.06 1238.88 371.3 1238.88 371.3"/><path class="cls-28" d="M1227.11,365.86s9,4.38,13.18-2.51l21.78,13.3-37.74-.29Z"/><polygon class="cls-4" points="1262.05 380.4 1224.31 380.12 1224.33 376.36 1262.07 376.65 1262.05 380.4"/><polygon class="cls-24" points="1227.57 355.39 1238.7 358.5 1238.66 355.28 1227.57 355.39"/><polygon class="cls-27" points="1159.33 372.45 1170.26 340.91 1182 340.24 1169.78 373.21 1159.33 372.45 1159.33 372.45"/><path class="cls-28" d="M1173.67,366.79s-9,4.37-13.18-2.51l-21.78,13.29,37.74-.28Z"/><polygon class="cls-4" points="1138.73 381.33 1176.47 381.04 1176.45 377.29 1138.71 377.57 1138.73 381.33"/><polygon class="cls-24" points="1166.37 352.14 1175.97 356.5 1177.14 353.36 1166.37 352.14"/><polygon class="cls-19" points="1236.45 208.49 1241.63 355.3 1225.13 355.3 1210.25 231.24 1181.33 354.31 1164.57 352.06 1185.66 208.49 1236.45 208.49"/><line class="cls-29" x1="1210.25" y1="231.24" x2="1201.11" y2="227.54"/><path class="cls-21" d="M1231.33,166.81s13.76,33.83,20.53,70.29l7.09-1.58s-4-44-13.49-76.78Z"/><path class="cls-30" d="M1258.25,232.54s12,17-.37,26.13a1.89,1.89,0,0,1-2.59-.3l-.09-.11a2.54,2.54,0,0,1-.08-3.14c1.69-2.25,3.86-6.81-.46-12.13,0,0-2,.77-1.36,5.35a1.86,1.86,0,0,1-1.7,2.24h0a1.73,1.73,0,0,1-1.58-1.32c-.89-3-2.52-10.43,1.51-14.85Z"/><path class="cls-26" d="M1231.49,133.27s9.62,3,17,23.94l-17.93,12.16-3.82-11.26Z"/><path class="cls-21" d="M1197.24,125.59l-60.55-53.74-8.75,2.09c-2.21-2.39,34.14,42.27,60.2,65.38Z"/><path class="cls-21" d="M1123.87,74.72a7.1,7.1,0,0,0,10.66,1.91,9.32,9.32,0,0,0,1.7-12,7.1,7.1,0,0,0-10.66-1.91A9.32,9.32,0,0,0,1123.87,74.72Z"/><path class="cls-31" d="M1131.44,61.23s2.09-3.13,4.68.3,4.25,9.5-1.59,15.1Z"/><path class="cls-26" d="M1175,136.27l6.43-25.45,15,10.41a23.52,23.52,0,0,0,5.87,2.12v4.29l-5,.89-4.92,30Z"/><path class="cls-26" d="M1199.79,122.68l-6.23,10.7c-2.4,1-5.42,6.71-4.79,9.5L1183.36,209l54.12,7-3.54-78.77c.39-1.94-.07-2.92-1.71-3.65l-12.4-5.56Z"/><line class="cls-32" x1="1234.55" y1="161.3" x2="1235.25" y2="178.79"/><line class="cls-32" x1="1188.6" y1="158.45" x2="1189.43" y2="147.74"/><path class="cls-21" d="M1212.78,127l-.6-16.61-11.61-.37-.71,19.48c-.07,2.13,1.57,1.75,3.46,1.64l6.41-.37A3.49,3.49,0,0,0,1212.78,127Z"/><polygon class="cls-22" points="1200.99 113.82 1212.58 121.5 1212.18 110.36 1200.99 113.82"/><path class="cls-21" d="M1226,98.53a4.38,4.38,0,1,1-4.35-4.9A4.66,4.66,0,0,1,1226,98.53Z"/><path class="cls-19" d="M1219.25,99.59c.24-.36,1.09-3.11,3.82-2.66"/><path class="cls-21" d="M1187.32,98.53a4.38,4.38,0,1,0,4.35-4.9A4.66,4.66,0,0,0,1187.32,98.53Z"/><path class="cls-19" d="M1194.11,99.59c-.24-.36-1.08-3.11-3.82-2.66"/><path class="cls-21" d="M1220.2,89.78a76.19,76.19,0,0,1-1.6,15.45c-.78,3.74-3,6.36-6.1,8.47l-.56.38a9.79,9.79,0,0,1-10.9.13h0c-3.37-2.16-5.74-5-6.46-9a112.35,112.35,0,0,1-1.47-15.4s-1.26-15.77,13.35-15.46S1220.2,89.78,1220.2,89.78Z"/><path class="cls-19" d="M1193.89,96.18s3.08-11.2.85-18.44C1194.74,77.74,1187.77,81.63,1193.89,96.18Z"/><path class="cls-19" d="M1219.65,96.18S1215.76,85,1218,77.74C1218,77.74,1225,80.74,1219.65,96.18Z"/><path class="cls-19" d="M1193.72,79.41s19.31,11.16,26.8,2.32c0,0,6.13-7-.62-12.34s-22.23,4.08-22.23,4.08S1194.21,74.4,1193.72,79.41Z"/><path class="cls-19" d="M1193.72,79.41s-3.61-7.2,6.65-10.74c0,0,2.5,2.88-1.07,6.67S1193.72,79.41,1193.72,79.41Z"/><path class="cls-19" d="M1201.53,96.18a1.35,1.35,0,1,1-1.35-1.51A1.44,1.44,0,0,1,1201.53,96.18Z"/><ellipse class="cls-19" cx="1212.66" cy="96.18" rx="1.35" ry="1.51"/><path class="cls-23" d="M1205.74,99.06v2a.74.74,0,0,0,.84.8l1-.23"/><path class="cls-19" d="M1204.43,91.43l-8.17,1.1s.66-2.42,4-2.84S1204.43,91.43,1204.43,91.43Z"/><path class="cls-19" d="M1208.8,91.43l8.16,1.1s-.66-2.42-4-2.84S1208.8,91.43,1208.8,91.43Z"/><path class="cls-33" d="M1204.41,96.64c0,3.29-2.38,6-5.32,6s-5.32-2.67-5.32-6,2.38-6,5.32-6S1204.41,93.34,1204.41,96.64Z"/><ellipse class="cls-33" cx="1214.17" cy="96.64" rx="5.32" ry="5.97"/><path class="cls-33" d="M1204.41,97.13s1.88-3.24,4.43,0"/><path class="cls-4" d="M1201.83,104.28h8.58s-.68,2.49-4.29,2.49A5,5,0,0,1,1201.83,104.28Z"/><polygon class="cls-21" points="1203.33 123.96 1192.46 122.99 1202.44 133.41 1217.63 128.15 1203.33 123.96"/></g></g></svg>