<svg xmlns="http://www.w3.org/2000/svg" viewBox="0 0 1920.28 443.95"><defs><style>.cls-1{fill:#1bbfbf;}.cls-2{fill:#0fa8ba;}.cls-3{fill:#eeedef;}.cls-14,.cls-4{fill:#d9d9e2;}.cls-4{opacity:0.88;}.cls-5{fill:#f7b634;}.cls-6{fill:#efb670;}.cls-7{opacity:0.92;}.cls-8{fill:#e0dfde;}.cls-13,.cls-9{opacity:0.14;}.cls-10,.cls-13{fill:#0097cf;}.cls-11{opacity:0.5;}.cls-12{opacity:0.54;}.cls-15,.cls-16,.cls-24,.cls-27,.cls-31,.cls-34,.cls-35{fill:none;stroke-miterlimit:10;}.cls-15{stroke:#eeedef;}.cls-16,.cls-35{stroke:#fff;}.cls-17{fill:#ecbc4f;}.cls-18{fill:#e8792e;}.cls-19{fill:#f47f31;}.cls-20{fill:#123c5e;}.cls-21{fill:#fdbfb2;}.cls-22{fill:#ffaeab;}.cls-23{fill:#f9927d;}.cls-24{stroke:#123c5e;}.cls-25{fill:#09090b;}.cls-26{fill:#fff;}.cls-27,.cls-31{stroke:#09090b;}.cls-27{stroke-width:0.77px;}.cls-28{fill:#ff7133;}.cls-29{fill:#faaeb0;}.cls-30{fill:#3a2c32;}.cls-31{stroke-width:0.75px;}.cls-32{fill:#f7a59c;}.cls-33{fill:#ffb1a5;}.cls-34{stroke:#ccc;stroke-width:1.03px;}.cls-35{stroke-width:0.75px;}</style></defs><title>academy-dark</title><g id="Layer_2" data-name="Layer 2"><g id="Layer_1-2" data-name="Layer 1"><path class="cls-1" d="M.28,289.81s352.85,27.87,430,0c118-42.64,292.49-27.88,430.42,26.24,131.11,51.45,254.27,3.28,310.77-18s259.25-36.08,457,29.53,291.43-3.09,291.43-3.09l.42,119.45L.28,444Z"/><path class="cls-2" d="M0,280.57s226.88-45.84,391.63,24.28c130.56,55.56,369.43,32.07,492.57-7.07s397.32-26.76,490.92,28.27c74.88,44,195.77,48.48,269.58,11.41,117.62-59.08,274.87-13.28,274.87-13.28l.41,119.44L0,444Z"/><path class="cls-3" d="M772.16.76h398.09a17.18,17.18,0,0,1,17.18,17.18V268.33a23.34,23.34,0,0,1-23.34,23.34H778.33A23.34,23.34,0,0,1,755,268.33V17.94A17.18,17.18,0,0,1,772.16.76Z"/><rect class="cls-4" x="777.16" y="25.56" width="388.11" height="244.54"/><path class="cls-5" d="M773.24,0h395.89a18.47,18.47,0,0,1,18.47,18.47v13a0,0,0,0,1,0,0H754.76a0,0,0,0,1,0,0v-13A18.47,18.47,0,0,1,773.24,0Z"/><circle class="cls-3" cx="1137.49" cy="17.31" r="2.9"/><circle class="cls-3" cx="1147.63" cy="17.31" r="2.9"/><circle class="cls-3" cx="1157.35" cy="17.31" r="2.9"/><path class="cls-6" d="M801.43,287.23a29.21,29.21,0,0,1,6.57,1.1c2.34.57,4.68,1.16,7,1.82,4.69,1.34,9.23,3.08,13.79,4.76a38.11,38.11,0,0,1,7,3.48c.12.07,0,.26-.1.19a35.53,35.53,0,0,0-6-3.13c-2.29-.88-4.59-1.72-6.89-2.57A122.37,122.37,0,0,0,809,288.73a35.65,35.65,0,0,0-7.58-1.4c-.07,0-.08-.1,0-.1Z"/><g class="cls-7"><path class="cls-8" d="M855.84,295.67a53.5,53.5,0,0,0,2-21.82,34.18,34.18,0,0,0-9.36-19.68,60.66,60.66,0,0,0-6.43-5.29c-5.76-4.31-11.52-8.62-17.44-12.71C820,233,815.13,229.74,812.18,225a100.84,100.84,0,0,0,2.09,19.67,42.91,42.91,0,0,0,3.8,11.48c2.9,5.44,7.56,9.77,11.86,14.26A153.8,153.8,0,0,1,843.7,287a34.56,34.56,0,0,0,4.18,5.16,16.26,16.26,0,0,0,7.71,4"/><g class="cls-9"><path class="cls-10" d="M830.73,257.48a95.09,95.09,0,0,1,14.87,6.22,37.11,37.11,0,0,1,10.87,8.74,23.31,23.31,0,0,1,1.47,2,54,54,0,0,1-2.1,21.22l-.26.51a16.46,16.46,0,0,1-7.71-4A34.92,34.92,0,0,1,843.7,287a153,153,0,0,0-13.78-16.55c-4.3-4.49-9-8.82-11.85-14.26a29.21,29.21,0,0,1-1.62-3.62,71.08,71.08,0,0,1,6.78,2.29C825.72,255.75,828.23,256.61,830.73,257.48Z"/></g><g class="cls-11"><path class="cls-10" d="M816.5,235.67c3.84,8.47,10.8,15.11,17.27,21.74a110.8,110.8,0,0,1,9.13,10.26A69.92,69.92,0,0,1,850.4,280a66.62,66.62,0,0,1,5.26,15.77c.05.28-.38.42-.44.14a70.9,70.9,0,0,0-11.92-27c-5.46-7.5-12.6-13.61-18.67-20.62a50.42,50.42,0,0,1-8.28-12.62c-.05-.1.11-.14.15-.05Z"/></g></g><g class="cls-7"><path class="cls-8" d="M854.71,308.37c-2-8.23-5.93-15.53-12.59-21-4.15-3.43-9-6.06-13-9.68-6.28-5.75-10-13.62-15.46-20.09-7.4-8.72-17.77-14.54-27.91-20.17,10.35,13.8,12,32.44,22.9,45.87,8.94,11,23,17.08,36.93,20.94,3.27.9,6.74,1.81,9.1,4.16"/><g class="cls-12"><path class="cls-10" d="M792.67,244.78c9.68,6,15.42,15.94,21.42,25.07a86.28,86.28,0,0,0,10.4,13.49,40.12,40.12,0,0,0,6.59,5.45c2.7,1.75,5.66,3.08,8.4,4.75a49.26,49.26,0,0,1,15,14c.16.24-.22.44-.38.22a54.07,54.07,0,0,0-13.68-13c-2.68-1.75-5.6-3.1-8.34-4.75a38.34,38.34,0,0,1-6.43-4.88c-8.2-7.64-13.12-17.8-19.57-26.72-3.71-5.14-8-9.95-13.46-13.43-.08-.06,0-.19.08-.13Z"/></g><path class="cls-13" d="M801.22,260.33c3.63,2.35,6,6,8.09,9.76s3.87,7.61,6.72,10.8a23.46,23.46,0,0,0,17.43,7.66c3.12,0,6.23-.64,9.33-.57,6.24,5.42,10,12.49,11.91,20.44-2.37-2.35-5.83-3.25-9.1-4.16-14-3.86-28-9.92-36.93-20.94-5.92-7.31-9.12-16.16-12.47-24.94A13.49,13.49,0,0,1,801.22,260.33Z"/></g><path class="cls-5" d="M835.77,298.44c-10.53-6.38-20.9-12.8-33.32-13.94a14.25,14.25,0,0,0-7.17.79c-.73.33-1.5.91-1.47,1.69a1.73,1.73,0,0,0,.38.93c1.07,1.43,3,1.87,4.87,2.16,12.46,2,25.6,2.53,36.64,8.41"/><path class="cls-5" d="M851.7,297.27a82.39,82.39,0,0,0-38.5-29.58c-3.31-1.26-6.84-2.33-10.38-1.92-1.33.15-3,1-2.64,2.25a2.17,2.17,0,0,0,.74,1c2.07,1.88,4.78,3,7.42,4,7.95,3.11,15.94,6.22,23.43,10.25a102.24,102.24,0,0,1,19.93,14"/><path class="cls-6" d="M805.86,268a201.79,201.79,0,0,1,19.73,8.55,85.88,85.88,0,0,1,9.09,5.43c3,2.1,5.94,4.38,8.81,6.7a33.76,33.76,0,0,1,4.06,3.58c1.17,1.32,2.19,2.75,3.4,4,.09.1-.05.26-.15.16-1-1.08-1.91-2.26-2.86-3.4a21,21,0,0,0-1.56-1.7c-.61-.56-1.28-1.07-1.92-1.59-2.84-2.32-5.7-4.61-8.69-6.75A104,104,0,0,0,817,272.68c-3.67-1.61-7.4-3.1-11.11-4.61,0,0,0-.06,0-.05Z"/><path class="cls-5" d="M853,293.87c-4.12-6.23-8.25-12.51-11.19-19.33-2.29-5.31-3.93-11.07-7.86-15.41a4.11,4.11,0,0,0-2.6-1.59,2.92,2.92,0,0,0-2.58,1.47,5.16,5.16,0,0,0-.6,2.94c.16,3.11,1.78,5.94,3.47,8.59,5.52,8.65,9.65,16.65,21.36,23.33"/><path class="cls-6" d="M832.74,264.19c4.07,8.08,8.38,16.15,14.22,23.19.84,1,1.71,2,2.61,2.95s1.89,1.88,2.83,2.83a.1.1,0,0,1-.13.14,43.59,43.59,0,0,1-4.82-5,68.37,68.37,0,0,1-4.18-5.41A114.33,114.33,0,0,1,836.15,271c-1.19-2.26-2.34-4.54-3.47-6.83,0,0,0-.06.06,0Z"/><path class="cls-14" d="M1380.91,322.9c-4.88-17.17-22.18-54.75-41.82-52.58-22.66,2.5,22.2,43.52,22.2,43.52s-31.38-24.19-42.71-10.14,38.51,23,38.51,23-26.23-5.45-23.63,5,46.33,7.45,49.39,17.49S1384.26,334.68,1380.91,322.9Z"/><path class="cls-15" d="M1382.76,345c-4.29-18.22-12.1-35.89-23.49-50.78a106.33,106.33,0,0,0-14-15.11"/><path class="cls-15" d="M1382.48,345.33c-11.87-19.67-32.08-34-54.4-37.69"/><path class="cls-15" d="M1382.22,345.48c-10.74-8.73-24.37-13.23-38.07-14.2"/><path class="cls-14" d="M1387.9,322.08c4.88-17.18,22.18-54.75,41.83-52.59,22.65,2.5-22.21,43.53-22.21,43.53s31.39-24.2,42.72-10.15-38.52,23-38.52,23,26.24-5.45,23.64,5-46.34,7.44-49.4,17.49S1384.55,333.85,1387.9,322.08Z"/><path class="cls-16" d="M1386.05,344.18c4.29-18.22,12.1-35.88,23.49-50.78a106.36,106.36,0,0,1,14-15.11"/><path class="cls-16" d="M1386.33,344.5c11.88-19.67,32.08-34,54.4-37.69"/><path class="cls-16" d="M1386.59,344.65c10.74-8.73,24.37-13.23,38.07-14.2"/><path class="cls-4" d="M1372.26,305.5c-4.44-26.62-6.19-88,18.78-94.23,28.8-7.19-.59,72.11-.59,72.11s23.27-49.1,45.36-34.6-32.54,50.85-32.54,50.85,28.32-20.14,31.47-4.14-51.35,32.49-49,48.15S1375.3,323.75,1372.26,305.5Z"/><path class="cls-16" d="M1383.32,337.65c-5.78-27.81-7-56.51-2.22-83a150.08,150.08,0,0,1,7.83-28"/><path class="cls-16" d="M1383.85,338c2.48-33.46,18.19-63.36,42.88-79.11"/><path class="cls-16" d="M1384.26,338.06c7.69-17.44,21.4-30.27,37.32-38.14"/><path class="cls-17" d="M581.62,294.85c.55-6.24-8.32-4.33-11.6-2.4-6.38,3.77-16.35,15.79-18.36,19.66-.08-1.52-.22-3-.39-4.56-.33-2.83-.66-5.66-1-8.48,4.19-1.36,13.27-3.79,20.55-15.07,1.22-1.89,2.67-4.52,1.59-6.77-1.51-3.13-4.24-.68-5.92.92-2.88,2.73-12.1,12.77-16.64,17.2q-1-8.49-2-17c7.48-4.09,16.53-9.11,19.71-17.59,2.08-5.55-4.13-5.3-7.31-3.4-5.7,3.4-10.07,9.66-13,15.94-.33-2.66-.67-5.31-1-8-.06-.48-.13-1-.19-1.43,3.85-1.69,7.73-2.92,10.88-5.92a16.64,16.64,0,0,0,4.75-11.27c.11-1.85.5-4.08-.79-5.68-1.8-2.23-3.09.79-4,2.5a115.24,115.24,0,0,1-6.46,10.6c-1.29,1.86-2.43,3.65-3.51,5.56a15.77,15.77,0,0,1-1.22,1.73c-.54-3.77-1.16-7.55-1.86-11.3,5.17-5,11.39-11.13,12.08-18.74.44-5-4.57-3.4-6.74-1.13-3.36,3.52-5.43,8.55-6.56,13.6-.34-1.63-.68-3.26-1-4.88,4-7.45,9-16.62,7-25.36-1.29-5.55-6.23-2-7.81,1.28a28.11,28.11,0,0,0-2.53,10.6c-.19-.72-.39-1.45-.6-2.17-.49-1.73-1-3.42-1.64-5.09,4.22-5.86,9.33-13,8.67-20.65-.43-5-5.08-2.54-6.83.07-2.75,4.14-3.9,9.63-4.09,14.9-1.07-2.48-2.21-4.92-3.41-7.34,2.68-5.26,5.87-11.64,4.39-17.71-1-4-4.44-1.42-5.52.91a23,23,0,0,0-1.56,11.47c-1.34-2.63-2.7-5.26-4-7.92.32-2.64.44-5.45.5-7.89.07-2.89-.3-6.11-2.71-8.09-3.16-2.6-5.74-1.1-6.33,2.78a9.47,9.47,0,0,0,.69,5,8.09,8.09,0,0,0-4.15-1.53,2.83,2.83,0,0,0-2.65,1.14c-.75,1.2-.33,3.14.73,4.67,1.89,2.71,5.13,4.17,7.81,5.93a19.17,19.17,0,0,1,2.35,1.88c1,.94,2,1.93,3.06,2.79q1.34,2.59,2.66,5.21h0c-3.24-3.59-7.43-6.88-11.94-8-2.49-.6-6.66.5-4.15,3.75,4,5.21,11.56,6.57,17.5,7.79l.26-.19,1.17,2.43.06.12a108.47,108.47,0,0,1,5.14,12.82v0a19.34,19.34,0,0,0-3.87-3c-2.53-1.47-7.43-1.61-5.73,2.74,2.17,5.6,7.59,9.22,12.79,12.11,1.43,5.92,2.69,11.91,3.76,17.91-2.54-5.15-6.23-10.2-11-13-2.71-1.57-8-1.72-6.15,2.95,2.91,7.49,11.25,11.68,17.77,15.16l.2-.06h0c.46,2.82.88,5.66,1.25,8.48.18,1.39.37,2.78.53,4.17h0c-3.35-7.19-8.17-14.28-14.31-18.18-3.51-2.22-10.25-2.52-7.85,4,3.85,10.37,14.55,16.3,23,21.22h0c.45,3.95.86,7.91,1.3,11.86-5.08-5.32-14.94-17-18.43-20.45-1.64-1.64-5.9-5-7.57-1.46-.92,2,.85,6.15,1.95,7.9,2.47,3.9,15.33,14.32,24.74,20.11h0q.48,4.21,1.05,8.41c.14,1,.26,2.07.37,3.1-6.82-8.53-21.25-24.28-26.11-26.66-2.47-1.21-6.81-2.56-8.67.27s2,6.48,3.53,8.77c3.57,5.28,20,16.68,23.39,18.35,2.59,1.29,5.57,2.07,8.19,3.2v.13c.14,2.33.21,4.63.22,6.93l-.45-.28c-7.5-4.88-22.8-16.22-28-19.44-2.42-1.49-8.47-4.36-9.47.38-.55,2.62,2.74,7.13,4.56,8.91,3.77,3.71,20,11.67,32.59,16.21l.69.23c-.22,7.48-.82,14.93-1,22.65-.06,2.33,3.56,2.63,3.62.29.25-11.15,1.69-21.91,1.2-32.95C564.49,310.91,581.37,297.68,581.62,294.85Z"/><path class="cls-18" d="M592.55,332c3.19-3.36-2.82-6.34-5.61-6.73-5.43-.76-16.74,1.61-19.68,2.93.65-.92,1.27-1.86,1.87-2.83q1.67-2.69,3.35-5.35a25.37,25.37,0,0,0,18.83.74c1.58-.54,3.63-1.39,4-3.19.57-2.51-2.14-2.35-3.85-2.2-2.92.26-12.88,1.82-17.56,2.3,2.23-3.58,4.47-7.15,6.68-10.74,6.22,1.08,13.77,2.34,19.52-1.11,3.77-2.25.05-5-2.67-5.33-4.86-.66-10.27.95-14.87,3.24,1-1.7,2.06-3.39,3.08-5.09l.55-.91c3,.79,5.82,1.87,9,1.58A12.33,12.33,0,0,0,603.2,295c.92-1,2.17-2.13,2.16-3.65,0-2.12-2.15-1-3.47-.4a83.28,83.28,0,0,1-8.63,3.16c-1.6.49-3.08,1-4.59,1.61a12.23,12.23,0,0,1-1.5.43q2.13-3.64,4.13-7.4c5.31-.52,11.72-1.19,15.62-5.28,2.56-2.69-1.07-4.07-3.38-3.75a21.33,21.33,0,0,0-10.06,4.84c.55-1.09,1.1-2.2,1.64-3.3,5.73-2.49,12.87-5.48,15.72-11.47,1.81-3.81-2.69-4-5.11-2.86a20.62,20.62,0,0,0-6.34,5c.22-.51.43-1,.65-1.54.51-1.23,1-2.46,1.39-3.7,5.14-1.45,11.39-3.23,14.53-8,2.06-3.09-1.77-3.82-4-3.11-3.51,1.13-6.69,3.78-9.24,6.74.53-1.93,1-3.87,1.42-5.82,4-1.81,8.75-4,10.69-8.23,1.27-2.76-1.92-2.87-3.62-2a17,17,0,0,0-6.18,5.92c.44-2.15.86-4.29,1.32-6.44,1.4-1.38,2.77-2.95,3.93-4.34,1.36-1.64,2.64-3.68,2.15-5.93-.63-3-2.82-3.28-4.94-1.31a7.06,7.06,0,0,0-1.92,3.23,6,6,0,0,0-1.7-2.8,2.06,2.06,0,0,0-2.06-.55c-1,.34-1.63,1.66-1.72,3-.16,2.43,1,4.77,1.79,7a14.23,14.23,0,0,1,.49,2.17c.16,1,.27,2,.49,3l-.87,4.24h0c-.22-3.57-1.14-7.41-3.24-10.12-1.16-1.5-4.08-2.78-4.12.26-.07,4.87,3.66,9.13,6.54,12.57h.23c-.14.65-.29,1.29-.44,1.94a.87.87,0,0,1,0,.1,80.8,80.8,0,0,1-2.93,9.8h0a14.74,14.74,0,0,0-.86-3.52c-.79-2-3.56-4.35-4.59-1.05-1.32,4.24.15,8.84,1.83,12.9-1.89,4.09-3.92,8.14-6.07,12.11.9-4.15,1.09-8.78-.38-12.55-.84-2.16-3.82-4.67-4.92-1.13-1.76,5.68,1.13,11.95,3.31,17l.14.05h0c-1,1.85-2.1,3.68-3.18,5.49-.54.89-1.07,1.78-1.61,2.66h0c1.37-5.7,1.85-12,.09-17.12-1-2.9-4.78-6.18-6.37-1.31-2.55,7.77.91,16.14,3.52,22.86h0c-1.56,2.49-3.14,5-4.71,7.46-.49-5.42-.84-16.7-1.25-20.33-.2-1.7-1.1-5.63-3.71-4.33-1.45.72-2.34,4-2.51,5.47-.37,3.39,2.28,15.35,5,23h0c-1.1,1.77-2.2,3.55-3.26,5.35-.4.67-.8,1.32-1.22,2,0-8.08-1.11-23.85-2.83-27.46-.87-1.84-2.77-4.62-5.15-3.84s-1.84,4.67-2,6.71c-.37,4.7,3.92,18.89,5.09,21.39.9,2,2.27,3.77,3.26,5.63l-.06.08c-1,1.41-2,2.78-3.06,4.11,0-.12-.09-.24-.13-.37-2.1-6.28-5.73-19.89-7.26-24.16-.71-2-2.89-6.42-5.66-4.14-1.52,1.27-1.69,5.39-1.46,7.26.47,3.89,6.19,16,11.41,24.4.09.16.19.31.28.46-3.57,4.22-7.35,8.26-11,12.65-1.11,1.32.85,3.17,2,1.84,5.28-6.34,11.07-11.91,15.87-18.53C575.24,333.41,591.1,333.52,592.55,332Z"/><g class="cls-7"><path class="cls-8" d="M546.27,333c.86-9.08.42-18.39-2.32-27.09s-7.89-16.79-15.27-22.15a71.36,71.36,0,0,0-8.72-5.16c-7.71-4.09-15.42-8.18-23.28-12-6.16-3-12.6-5.91-17.1-11.07a129.92,129.92,0,0,0,6.72,23.62,54.73,54.73,0,0,0,7,13.27c4.59,6,11,10.4,17.05,15a190.42,190.42,0,0,1,19.79,17.42,43.22,43.22,0,0,0,6,5.45,19.39,19.39,0,0,0,10,3.36"/><g class="cls-9"><path class="cls-10" d="M508.45,291.41A110.93,110.93,0,0,1,527.3,296a44.91,44.91,0,0,1,14.7,8.47c.75.68,1.47,1.4,2.16,2.14a69.37,69.37,0,0,1,2.1,26.38l-.19.67a19.39,19.39,0,0,1-10-3.36,42.61,42.61,0,0,1-6-5.45,190.42,190.42,0,0,0-19.79-17.42c-6-4.61-12.46-9-17.05-15a39.76,39.76,0,0,1-2.69-4.11c2.86.27,5.67.87,8.48,1.42C502.17,290.32,505.31,290.85,508.45,291.41Z"/></g><g class="cls-11"><path class="cls-10" d="M487,267.65c6.35,9.57,16,16.27,25,23.06a136.37,136.37,0,0,1,13,10.67A88.82,88.82,0,0,1,536.49,315a85.39,85.39,0,0,1,9.59,18.21c.12.33-.36.59-.49.26a90.07,90.07,0,0,0-19.86-30.55c-8.05-8.05-17.78-14.07-26.44-21.4a63.25,63.25,0,0,1-12.49-13.74c-.07-.11.11-.2.18-.09Z"/></g></g><g class="cls-7"><path class="cls-8" d="M547.68,348.74c-4.12-9.66-10.34-17.78-19.37-23.14-5.63-3.35-11.9-5.57-17.36-9.2-8.64-5.74-14.69-14.62-22.55-21.4-10.6-9.15-24.07-14.15-37.23-19,15.18,14.76,21.17,37.22,36.88,51.41,12.91,11.66,30.73,16.2,48,18.07,4,.44,8.32.84,11.61,3.23"/><g class="cls-12"><path class="cls-10" d="M460.88,283.64c12.69,5.37,21.6,16.35,30.64,26.29a108,108,0,0,0,15.17,14.38,48.56,48.56,0,0,0,8.94,5.31c3.55,1.59,7.32,2.61,10.91,4.1a60.23,60.23,0,0,1,20.66,14c.23.25-.17.58-.41.34a66.28,66.28,0,0,0-18.93-13.16c-3.54-1.59-7.26-2.64-10.85-4.1a46.64,46.64,0,0,1-8.63-4.65c-11.3-7.67-19.29-19.09-28.81-28.68C474.09,292,468,287,460.82,283.82c-.11-.05-.05-.22.06-.18Z"/></g><path class="cls-13" d="M474.31,300.92c4.78,2.13,8.43,6.15,11.64,10.28s6.2,8.52,10.24,11.84a27.74,27.74,0,0,0,22.19,5.8c3.66-.66,7.2-2.06,10.86-2.6,8.52,5.36,14.45,13.24,18.44,22.56-3.29-2.39-7.57-2.78-11.61-3.22-17.29-1.88-35.12-6.42-48-18.07-8.55-7.73-14.22-17.9-20.07-27.95A15.78,15.78,0,0,1,474.31,300.92Z"/></g><path class="cls-19" d="M523.24,340.47c-13.79-5.66-27.39-11.39-42.25-10.25-2.91.22-5.9.75-8.28,2.43-.79.55-1.57,1.42-1.37,2.36a2.18,2.18,0,0,0,.65,1.06c1.57,1.54,4,1.66,6.2,1.65,15.11-.09,30.69-2.13,45,2.81"/><path class="cls-6" d="M480.37,333.77a33.29,33.29,0,0,1,8,0c2.88.21,5.75.46,8.62.8,5.81.68,11.53,1.88,17.27,3a45.69,45.69,0,0,1,9,2.82c.15.07.08.32-.08.25a42.69,42.69,0,0,0-7.77-2.59c-2.89-.61-5.78-1.16-8.67-1.73A146.34,146.34,0,0,0,489.63,334a41.3,41.3,0,0,0-9.23-.15c-.08,0-.11-.11,0-.12Z"/><path class="cls-19" d="M541.74,335.78A99.56,99.56,0,0,0,490,307.47c-4.17-.86-8.56-1.45-12.64-.23-1.54.45-3.28,1.85-2.62,3.3a2.76,2.76,0,0,0,1.09,1.08c2.84,1.88,6.26,2.63,9.59,3.36,10,2.18,20.12,4.35,29.81,7.75a123.61,123.61,0,0,1,26.5,13"/><path class="cls-6" d="M481.44,309.38a235.77,235.77,0,0,1,25.08,6.42,101.46,101.46,0,0,1,11.87,4.78c4,1.95,8,4.15,11.82,6.41a39.65,39.65,0,0,1,5.56,3.54c1.66,1.37,3.18,2.92,4.88,4.24.13.1,0,.33-.14.23-1.44-1.11-2.74-2.38-4.1-3.57a26.64,26.64,0,0,0-2.21-1.76c-.84-.57-1.73-1.05-2.6-1.56-3.85-2.25-7.71-4.47-11.69-6.47a123.63,123.63,0,0,0-24.41-8.84c-4.67-1.22-9.38-2.28-14.08-3.36,0,0,0-.07,0-.06Z"/><path class="cls-19" d="M542.49,331.37c-6.2-6.78-12.42-13.61-17.36-21.35-3.84-6-7-12.74-12.58-17.24a4.91,4.91,0,0,0-3.4-1.41,3.45,3.45,0,0,0-2.73,2.32,6.63,6.63,0,0,0-.06,3.72c.85,3.77,3.38,6.9,5.93,9.79,8.37,9.45,15,18.39,30.2,24.17"/><path class="cls-6" d="M512.26,299.2c6.54,9.05,13.36,18,21.76,25.46,1.21,1.06,2.44,2.09,3.71,3.07s2.63,1.92,3.94,2.88c.12.09,0,.28-.12.2a53,53,0,0,1-6.74-5.1,83,83,0,0,1-6.1-5.76,142.4,142.4,0,0,1-11-13.07q-2.84-3.78-5.56-7.63s0-.09.06-.05Z"/><path class="cls-1" d="M1131.8,299.75c7-15.46,14.18-30.69,13.27-47.55-.18-3.29-.72-6.7-2.63-9.44-.63-.91-1.62-1.81-2.74-1.61a2.53,2.53,0,0,0-1.26.71c-1.86,1.73-2.07,4.48-2.12,7-.33,17.1,1.63,34.8-4.59,50.82"/><path class="cls-6" d="M1141.16,245.88a36.38,36.38,0,0,1,.14,9c-.2,3.27-.44,6.53-.78,9.78-1.35,12.76-1,7.83-3.24,19.6a50.19,50.19,0,0,1-3.16,10.2c-.08.17-.37.1-.3-.08a47.26,47.26,0,0,0,2.91-8.85c.66-3.28,1.27-6.57,1.89-9.85a157.38,157.38,0,0,0,2.38-19.34c.22-3.46.61-7,0-10.46,0-.08.12-.12.14,0Z"/><path class="cls-19" d="M1130.33,303a111.88,111.88,0,0,0,34.78-57.78c1.13-4.7,1.94-9.65.63-14.31-.49-1.74-2.08-3.76-3.8-3.05a3.36,3.36,0,0,0-1.31,1.2c-2.29,3.17-3.28,7-4.22,10.77-2.85,11.31-5.7,22.65-10,33.53a138.25,138.25,0,0,1-16.1,29.64"/><path class="cls-6" d="M1163.11,235.41a261.88,261.88,0,0,1-8.27,28.22,113,113,0,0,1-6,13.3c-2.4,4.52-5.11,8.89-7.87,13.21a45.16,45.16,0,0,1-4.33,6.19c-1.66,1.85-3.52,3.52-5.13,5.41-.12.14-.38,0-.26-.16,1.35-1.6,2.87-3,4.31-4.55a29.09,29.09,0,0,0,2.14-2.45c.69-.93,1.28-1.93,1.91-2.91,2.76-4.28,5.48-8.59,7.95-13a137.15,137.15,0,0,0,11.09-27.4c1.56-5.25,3-10.55,4.35-15.84,0,0,.09,0,.08,0Z"/><path class="cls-1" d="M1135.49,303.91c8.16-6.82,16.36-13.68,25.61-19.05,7.2-4.19,15.18-7.6,20.63-13.77a5.47,5.47,0,0,0,1.77-3.82,3.93,3.93,0,0,0-2.66-3.14,8.09,8.09,0,0,0-4.37-.18c-4.45.86-8.21,3.64-11.68,6.45-11.36,9.21-22.06,16.43-29.3,33.51"/><path class="cls-6" d="M1174.19,270.59c-10.83,7.15-21.59,14.62-30.56,23.93q-1.94,2-3.72,4.11c-1.22,1.43-2.33,2.93-3.5,4.38-.11.14-.33,0-.24-.14a62.5,62.5,0,0,1,6.2-7.5q3.3-3.53,7-6.74a165.82,165.82,0,0,1,15.69-12c3-2.07,6.06-4.09,9.13-6.09,0,0,.1.05,0,.08Z"/><g class="cls-11"><path d="M901.29,156.15a1.16,1.16,0,0,1-.41.9,1.47,1.47,0,0,1-1,.36,1.28,1.28,0,0,1-1.26-.86l-2.56-5.84H882.5l-2.59,5.84a1.28,1.28,0,0,1-1.26.86,1.49,1.49,0,0,1-1-.38,1.17,1.17,0,0,1-.43-.92,1.2,1.2,0,0,1,.14-.57l10.3-22.9a1.53,1.53,0,0,1,.64-.75,1.82,1.82,0,0,1,.94-.26,1.79,1.79,0,0,1,1,.27,1.67,1.67,0,0,1,.65.74l10.3,22.9A1.4,1.4,0,0,1,901.29,156.15Zm-17.71-7.88H895l-5.72-12.93Z"/><path d="M909.14,156a10.32,10.32,0,0,1-4-4.5,17.52,17.52,0,0,1,0-13.82,10.32,10.32,0,0,1,4-4.5,11.89,11.89,0,0,1,6.23-1.57,13.22,13.22,0,0,1,4.55.78,11,11,0,0,1,3.73,2.21,1.68,1.68,0,0,1,.57,1.26,1.35,1.35,0,0,1-.29.88.85.85,0,0,1-.68.38,2,2,0,0,1-1-.4,13.48,13.48,0,0,0-3.33-2,9.43,9.43,0,0,0-3.44-.58A7.88,7.88,0,0,0,909,136.8c-1.5,1.81-2.25,4.39-2.25,7.72s.75,5.95,2.25,7.76a7.88,7.88,0,0,0,6.43,2.72,9.44,9.44,0,0,0,3.42-.58,13.2,13.2,0,0,0,3.35-2,2,2,0,0,1,1-.4.85.85,0,0,1,.68.36,1.35,1.35,0,0,1,.29.9,1.68,1.68,0,0,1-.57,1.26,11,11,0,0,1-3.73,2.21,13.22,13.22,0,0,1-4.55.78A11.89,11.89,0,0,1,909.14,156Z"/><path d="M950.36,156.15a1.14,1.14,0,0,1-.42.9,1.44,1.44,0,0,1-1,.36,1.28,1.28,0,0,1-1.26-.86l-2.55-5.84H931.57l-2.6,5.84a1.28,1.28,0,0,1-1.26.86,1.47,1.47,0,0,1-1-.38,1.18,1.18,0,0,1-.44-.92,1.21,1.21,0,0,1,.15-.57l10.29-22.9a1.55,1.55,0,0,1,.65-.75,1.82,1.82,0,0,1,.94-.26,1.79,1.79,0,0,1,1,.27,1.73,1.73,0,0,1,.65.74l10.29,22.9A1.28,1.28,0,0,1,950.36,156.15Zm-17.71-7.88h11.41l-5.73-12.93Z"/><path d="M955,156.83a1.36,1.36,0,0,1-.42-1v-22.5a1.36,1.36,0,0,1,.42-1,1.49,1.49,0,0,1,1.1-.4h7q6.07,0,9.41,3.29t3.33,9.38q0,6.09-3.35,9.4t-9.39,3.31h-7A1.49,1.49,0,0,1,955,156.83Zm7.94-2.12q9.86,0,9.86-10.19t-9.86-10.15h-5.4v20.34Z"/><path d="M981.55,156.83a1.39,1.39,0,0,1-.41-1v-22.5a1.39,1.39,0,0,1,.41-1,1.5,1.5,0,0,1,1.1-.4h13.46a1.49,1.49,0,0,1,1,.32,1.16,1.16,0,0,1,.36.9,1.13,1.13,0,0,1-.36.9,1.45,1.45,0,0,1-1,.33H984.05v8.82h11.34a1.47,1.47,0,0,1,1,.32,1.16,1.16,0,0,1,.36.9,1.13,1.13,0,0,1-.36.9,1.43,1.43,0,0,1-1,.33H984.05v9.21h12.06a1.49,1.49,0,0,1,1,.31,1.13,1.13,0,0,1,.36.92,1.16,1.16,0,0,1-.36.9,1.49,1.49,0,0,1-1,.32H982.65A1.5,1.5,0,0,1,981.55,156.83Z"/><path d="M1025.69,132.08a1.59,1.59,0,0,1,.37,1.1V156a1.47,1.47,0,0,1-.35,1,1.3,1.3,0,0,1-1,.4,1.19,1.19,0,0,1-1-.4,1.61,1.61,0,0,1-.32-1v-18.4l-7.81,15a1.59,1.59,0,0,1-1.48,1,1.63,1.63,0,0,1-1.47-1l-7.85-14.8V156a1.57,1.57,0,0,1-.34,1,1.23,1.23,0,0,1-1,.4,1.28,1.28,0,0,1-1-.4,1.48,1.48,0,0,1-.36-1V133.18a1.56,1.56,0,0,1,.39-1.1,1.46,1.46,0,0,1,1.08-.41,1.62,1.62,0,0,1,1.44,1l9.15,17.54,9-17.54a2.2,2.2,0,0,1,.62-.81,1.45,1.45,0,0,1,.81-.23A1.39,1.39,0,0,1,1025.69,132.08Z"/><path d="M1049.28,131.71a1.24,1.24,0,0,1,.9.39,1.4,1.4,0,0,1,.08,1.87L1041.51,145V155.9a1.41,1.41,0,0,1-1.48,1.51,1.46,1.46,0,0,1-1.06-.4,1.43,1.43,0,0,1-.41-1.11V145l-8.75-11a1.29,1.29,0,0,1-.36-.9,1.32,1.32,0,0,1,.41-1,1.37,1.37,0,0,1,1-.39,1.3,1.3,0,0,1,1,.54l8.21,10.47,8.17-10.47A1.3,1.3,0,0,1,1049.28,131.71Z"/></g><ellipse class="cls-20" cx="731.92" cy="49.53" rx="12.65" ry="12.76" transform="translate(89.24 403.25) rotate(-32.7)"/><ellipse class="cls-21" cx="728.92" cy="65.16" rx="10.45" ry="10.55" transform="translate(80.3 404.07) rotate(-32.7)"/><path class="cls-22" d="M722.84,94.55l.1,16.66c0,3.54,2.22,3.08,5.7,3h0c3,0,5.75-.58,6.07-3.54l-.91-21.14Z"/><polygon class="cls-23" points="734.5 101.7 722.57 95.08 733.96 92.38 734.5 101.7"/><path class="cls-20" d="M745.38,72.36c0,9.6-7.47,17.38-16.69,17.38S712,82,712,72.36s7.47-16.12,16.68-16.12S745.38,62.76,745.38,72.36Z"/><path class="cls-22" d="M748.25,81a4.56,4.56,0,1,1-4.56-4.56A4.56,4.56,0,0,1,748.25,81Z"/><path class="cls-24" d="M741.14,82c.25-.34,1.14-2.9,4-2.48"/><circle class="cls-22" cx="713.17" cy="81.03" r="4.56"/><path class="cls-24" d="M715.72,82c-.25-.34-1.14-2.9-4-2.48"/><path class="cls-22" d="M742.48,72.64a62.3,62.3,0,0,1-1.66,14.19c-.82,3.44-3.11,5.84-6.34,7.77l-.59.36a11.4,11.4,0,0,1-11.32.12h0c-3.51-2-6-4.61-6.72-8.3a91.17,91.17,0,0,1-1.52-14.14S713,58.16,728.2,58.45,742.48,72.64,742.48,72.64Z"/><path class="cls-20" d="M737.87,60.21s-3.63,16.17-25,14.71c0,0,.84-16,11.17-17.29C724.09,57.63,734.2,56.18,737.87,60.21Z"/><path class="cls-20" d="M732.54,58.44s.73,11.17,9.84,17.56l1.31-5.31S745.14,59.57,732.54,58.44Z"/><polygon class="cls-20" points="717.27 72.36 714.79 79.29 713.72 72.36 717.27 72.36"/><polygon class="cls-20" points="739.47 72.36 742.03 78.7 743.01 72.36 739.47 72.36"/><path class="cls-24" d="M727.67,81.65v1.83a.72.72,0,0,0,.86.72l1-.2"/><path class="cls-20" d="M721.72,73.51s2.88-.39,3,.79c0,0,0,.79-2.47,1.09s-4.2.15-4.48-.59S720.36,73.59,721.72,73.51Z"/><path class="cls-20" d="M734.62,73.33s-3-.41-3.11.82c0,0,0,.83,2.59,1.14s4.4.15,4.68-.62S736,73.41,734.62,73.33Z"/><path class="cls-20" d="M723.44,86.4A10.24,10.24,0,0,0,733.2,86"/><path class="cls-20" d="M723.27,79.23A1.28,1.28,0,1,1,722,78,1.28,1.28,0,0,1,723.27,79.23Z"/><path class="cls-20" d="M735.42,79.23A1.28,1.28,0,1,1,734.14,78,1.28,1.28,0,0,1,735.42,79.23Z"/><polygon class="cls-22" points="710.07 346.14 709.66 322 721.1 321.42 720.26 346.79 710.07 346.14 710.07 346.14"/><polygon class="cls-25" points="709.75 324.58 720.99 325 720.99 327.85 709.75 324.58"/><line class="cls-25" x1="720.98" y1="325" x2="720.98" y2="327.85"/><path class="cls-18" d="M722.46,341.43s-8.74,3.79-12.85-2.17L690,350.77l35.19-.25Z"/><rect class="cls-26" x="690" y="350.64" width="35.19" height="3.25" transform="translate(1417.64 699.57) rotate(179.6)"/><polygon class="cls-22" points="785.65 346.14 780.79 322 769.34 321.42 775.47 346.79 785.65 346.14 785.65 346.14"/><path class="cls-18" d="M773.26,341.43s8.74,3.79,12.85-2.17l19.63,11.51-35.19-.25Z"/><rect class="cls-26" x="770.54" y="350.64" width="35.19" height="3.25" transform="translate(2.49 -5.51) rotate(0.4)"/><path class="cls-5" d="M721.41,152.6s-20.25,22.86-19.83,47.08,7.67,124.84,7.67,124.84l12.76.76,9.29-136.62,2.43-.15,35,137.18,13.86-2.27L762.77,191.91s-6.19-23.32-17.55-37.36Z"/><line class="cls-27" x1="736.74" y1="189.36" x2="725.61" y2="187.42"/><path class="cls-22" d="M703.2,120.6l-10.81,40.85a5.48,5.48,0,0,0,4.39,7h0a6.44,6.44,0,0,0,6.6-3.55l13.92-39.4a7.48,7.48,0,0,0-4.4-9.78h0A7.46,7.46,0,0,0,703.2,120.6Z"/><path class="cls-22" d="M692.07,163.06l-4.62,42,8.2-.38,7.85-40.11c.56-3.2-1.64-7.08-4.86-7.54h0C695.35,156.52,692.35,159.75,692.07,163.06Z"/><path class="cls-22" d="M688.57,202.07s-11.44,14.43.19,22.1a2,2,0,0,0,2.45-.27l.08-.09a2,2,0,0,0,.1-2.66c-1.59-1.89-3.61-5.73.51-10.27,0,0,1.91.64,1.25,4.52a1.59,1.59,0,0,0,1.59,1.88h0a1.65,1.65,0,0,0,1.51-1.12c.86-2.53,2.45-8.85-1.34-12.56Z"/><path class="cls-22" d="M798.91,160s16-9,21.79,3.65a2,2,0,0,1-.65,2.38l-.1.07a2,2,0,0,1-2.65-.32c-1.62-1.87-5.09-4.46-10.22-1.11,0,0,.33,2,4.27,2a1.59,1.59,0,0,1,1.61,1.86h0a1.64,1.64,0,0,1-1.35,1.31c-2.63.45-9.12,1-12.19-3.29Z"/><path class="cls-22" d="M742.7,115.2l56.74,51.32,1.19-7.38L753.2,107.55c-2.27-2.83-7.6-3.77-10.37-1.41l.33-.31A6.45,6.45,0,0,0,742.7,115.2Z"/><polygon class="cls-22" points="724.37 106.36 709.07 116.85 721.41 152.6 745.22 154.55 748.39 121.76 747.15 104.55 724.37 106.36"/><path class="cls-28" d="M717.58,110.54s3.13,9.67,12.17,7.62S739.14,105,739.14,105l11.74-.9-4.71,43.62H716.22l-8.87-32.33Z"/><path class="cls-26" d="M708.22,118.52,719,114.11s.69,1,1,1.38l-11.45,4.34Z"/><path class="cls-26" d="M750.15,110.78l-12.1.24s-.25,1.16-.41,1.67l12.37-.45Z"/><polygon class="cls-26" points="709.8 124.18 749.49 116.97 749.25 119.07 710.22 125.83 709.8 124.18"/><polygon class="cls-26" points="711.25 129.56 748.64 124.93 748.42 127.14 711.6 130.94 711.25 129.56"/><polygon class="cls-26" points="712.91 135.49 747.7 133.49 747.47 135.63 713.39 137.35 712.91 135.49"/><polygon class="cls-26" points="714.77 142.59 746.84 141.9 746.65 143.68 715.18 143.9 714.77 142.59"/><polygon class="cls-29" points="1242.8 358.95 1242.41 327.4 1230.67 326.73 1232.35 359.71 1242.8 358.95 1242.8 358.95"/><path class="cls-30" d="M1231,353.51s9,4.37,13.18-2.51L1266,364.3l-37.74-.29Z"/><polygon class="cls-26" points="1265.96 368.05 1228.22 367.76 1228.25 364.01 1265.99 364.3 1265.96 368.05"/><polygon class="cls-25" points="1231.49 343.04 1242.62 346.14 1242.58 342.93 1231.49 343.04"/><polygon class="cls-29" points="1163.25 360.1 1174.18 328.56 1185.92 327.88 1173.7 360.86 1163.25 360.1 1163.25 360.1"/><path class="cls-30" d="M1177.59,354.44s-9,4.37-13.18-2.51l-21.78,13.29,37.74-.28Z"/><polygon class="cls-26" points="1142.65 368.98 1180.39 368.69 1180.37 364.94 1142.63 365.22 1142.65 368.98"/><polygon class="cls-25" points="1170.29 339.79 1179.89 344.14 1181.06 341.01 1170.29 339.79"/><polygon class="cls-20" points="1240.37 196.14 1245.55 342.95 1229.05 342.95 1214.17 218.89 1185.25 341.96 1168.49 339.71 1189.58 196.14 1240.37 196.14"/><line class="cls-31" x1="1214.17" y1="218.89" x2="1205.03" y2="215.19"/><path class="cls-22" d="M1235.25,154.46s13.76,33.83,20.53,70.29l7.09-1.58s-4-44-13.49-76.78Z"/><path class="cls-32" d="M1262.17,220.19s12,17-.37,26.12a1.88,1.88,0,0,1-2.59-.29l-.09-.11a2.54,2.54,0,0,1-.08-3.14c1.69-2.25,3.86-6.81-.46-12.13,0,0-2,.77-1.36,5.35a1.86,1.86,0,0,1-1.7,2.24h0a1.74,1.74,0,0,1-1.58-1.32c-.89-3-2.52-10.43,1.51-14.85Z"/><path class="cls-28" d="M1235.41,120.92s9.62,3,17,23.94L1234.5,157l-3.82-11.26Z"/><path class="cls-22" d="M1201.16,113.24,1140.61,59.5l-8.75,2.09c-2.21-2.39,34.14,42.27,60.2,65.38Z"/><path class="cls-22" d="M1127.79,62.37a7.1,7.1,0,0,0,10.66,1.91,9.32,9.32,0,0,0,1.7-12,7.1,7.1,0,0,0-10.66-1.91A9.32,9.32,0,0,0,1127.79,62.37Z"/><path class="cls-33" d="M1135.36,48.88s2.09-3.13,4.68.3,4.25,9.49-1.59,15.1Z"/><path class="cls-28" d="M1178.88,123.92l6.43-25.45,15,10.41a23.52,23.52,0,0,0,5.87,2.12v4.29l-5,.89-4.92,30Z"/><path class="cls-28" d="M1203.71,110.33l-6.23,10.7c-2.4,1-5.42,6.71-4.79,9.5l-5.41,66.11,54.12,7-3.54-78.77c.39-1.94-.07-2.92-1.71-3.65l-12.4-5.56Z"/><line class="cls-34" x1="1238.47" y1="148.95" x2="1239.17" y2="166.44"/><line class="cls-34" x1="1192.52" y1="146.1" x2="1193.35" y2="135.39"/><path class="cls-22" d="M1216.7,114.62,1216.1,98l-11.61-.37-.71,19.48c-.08,2.13,1.57,1.75,3.46,1.64l6.41-.37A3.49,3.49,0,0,0,1216.7,114.62Z"/><polygon class="cls-23" points="1204.91 101.47 1216.5 109.15 1216.1 98.01 1204.91 101.47"/><path class="cls-22" d="M1230,86.18a4.38,4.38,0,1,1-4.35-4.9A4.66,4.66,0,0,1,1230,86.18Z"/><path class="cls-20" d="M1223.17,87.24c.24-.36,1.09-3.11,3.82-2.66"/><path class="cls-22" d="M1191.24,86.18a4.38,4.38,0,1,0,4.35-4.9A4.66,4.66,0,0,0,1191.24,86.18Z"/><path class="cls-20" d="M1198,87.24c-.24-.36-1.09-3.11-3.82-2.66"/><path class="cls-22" d="M1224.12,77.42a76.21,76.21,0,0,1-1.6,15.46c-.78,3.74-3,6.36-6.1,8.47l-.56.38a9.81,9.81,0,0,1-10.9.13h0c-3.37-2.16-5.74-5-6.46-9a110.45,110.45,0,0,1-1.47-15.4s-1.26-15.76,13.35-15.45S1224.12,77.42,1224.12,77.42Z"/><path class="cls-20" d="M1197.81,83.83s3.08-11.2.85-18.44C1198.66,65.39,1191.69,69.28,1197.81,83.83Z"/><path class="cls-20" d="M1223.57,83.83s-3.89-11.2-1.65-18.44C1221.92,65.39,1228.93,68.39,1223.57,83.83Z"/><path class="cls-20" d="M1197.64,67.06s19.31,11.16,26.8,2.32c0,0,6.13-7-.62-12.34s-22.23,4.08-22.23,4.08S1198.13,62.05,1197.64,67.06Z"/><path class="cls-20" d="M1197.64,67.06s-3.61-7.2,6.65-10.74c0,0,2.5,2.88-1.07,6.67S1197.64,67.06,1197.64,67.06Z"/><path class="cls-20" d="M1205.45,83.83a1.35,1.35,0,1,1-1.35-1.51A1.44,1.44,0,0,1,1205.45,83.83Z"/><ellipse class="cls-20" cx="1216.58" cy="83.83" rx="1.35" ry="1.51"/><path class="cls-24" d="M1209.66,86.71v2a.74.74,0,0,0,.84.8l1-.23"/><path class="cls-20" d="M1208.35,79.08l-8.17,1.1s.66-2.42,4-2.84S1208.35,79.08,1208.35,79.08Z"/><path class="cls-20" d="M1212.72,79.08l8.16,1.1s-.66-2.42-4-2.84S1212.72,79.08,1212.72,79.08Z"/><path class="cls-35" d="M1208.33,84.29c0,3.29-2.38,6-5.32,6s-5.32-2.67-5.32-6,2.38-6,5.32-6S1208.33,81,1208.33,84.29Z"/><ellipse class="cls-35" cx="1218.09" cy="84.29" rx="5.32" ry="5.97"/><path class="cls-35" d="M1208.33,84.78s1.88-3.24,4.43,0"/><path class="cls-26" d="M1205.75,91.93h8.58s-.68,2.49-4.29,2.49A5,5,0,0,1,1205.75,91.93Z"/><polygon class="cls-22" points="1207.25 111.61 1196.38 110.64 1206.36 121.06 1221.55 115.8 1207.25 111.61"/></g></g></svg>