<svg xmlns="http://www.w3.org/2000/svg" viewBox="0 0 1920.28 445.74"><defs><style>.cls-1{fill:#1bbfbf;}.cls-2{fill:#0fa8ba;}.cls-3{fill:#eeedef;}.cls-14,.cls-4{fill:#d9d9e2;}.cls-4{opacity:0.88;}.cls-5{fill:#f7b634;}.cls-6{fill:#efb670;}.cls-7{opacity:0.92;}.cls-8{fill:#e0dfde;}.cls-13,.cls-9{opacity:0.14;}.cls-10,.cls-13{fill:#0097cf;}.cls-11{opacity:0.5;}.cls-12{opacity:0.54;}.cls-15,.cls-16,.cls-24,.cls-26,.cls-30,.cls-32{fill:none;stroke-miterlimit:10;}.cls-15{stroke:#eeedef;}.cls-16{stroke:#fff;}.cls-17{fill:#ecbc4f;}.cls-18{fill:#e8792e;}.cls-19{fill:#f47f31;}.cls-20{fill:#ffaeab;}.cls-21{fill:#fff;}.cls-22{fill:#09090b;}.cls-23{fill:#123c5e;}.cls-24,.cls-30{stroke:#09090b;}.cls-24{stroke-width:0.75px;}.cls-25{fill:#f9927d;}.cls-26{stroke:#364056;}.cls-27{fill:#364056;}.cls-28{fill:#faaeb0;}.cls-29{fill:#ff7133;}.cls-30{stroke-width:0.77px;}.cls-31{fill:#ffb1a5;}.cls-32{stroke:#283045;}.cls-33{fill:#283045;}</style></defs><title>careers-dark</title><g id="Layer_2" data-name="Layer 2"><g id="Layer_1-2" data-name="Layer 1"><path class="cls-1" d="M.28,291.61s352.85,27.86,430,0c118-42.64,292.49-27.88,430.42,26.25,131.11,51.44,254.27,3.28,310.77-18s259.25-36.09,457,29.52,291.43-3.08,291.43-3.08l.42,119.44-1920,.05Z"/><path class="cls-2" d="M0,282.37s226.88-45.85,391.63,24.27c130.56,55.57,369.43,32.07,492.57-7.07s397.32-26.76,490.92,28.27c74.88,44,195.77,48.49,269.58,11.41C1762.34,280.18,1919.59,326,1919.59,326l.41,119.45L0,445.74Z"/><path class="cls-3" d="M769.54.76h398.09a17.18,17.18,0,0,1,17.18,17.18V268.33a23.34,23.34,0,0,1-23.34,23.34H775.71a23.34,23.34,0,0,1-23.34-23.34V17.94A17.18,17.18,0,0,1,769.54.76Z"/><rect class="cls-4" x="774.53" y="25.56" width="388.11" height="244.54"/><path class="cls-5" d="M770.62,0H1166.5A18.47,18.47,0,0,1,1185,18.47v13a0,0,0,0,1,0,0H752.14a0,0,0,0,1,0,0v-13A18.47,18.47,0,0,1,770.62,0Z"/><circle class="cls-3" cx="1134.87" cy="17.31" r="2.9"/><circle class="cls-3" cx="1145.01" cy="17.31" r="2.9"/><circle class="cls-3" cx="1154.73" cy="17.31" r="2.9"/><path class="cls-6" d="M798.81,287.23a29.21,29.21,0,0,1,6.57,1.1c2.34.57,4.68,1.16,7,1.82,4.69,1.34,9.23,3.08,13.79,4.76a38.11,38.11,0,0,1,7,3.48c.12.07,0,.26-.1.19a35.53,35.53,0,0,0-6-3.13c-2.29-.88-4.59-1.72-6.89-2.57a123,123,0,0,0-13.71-4.15,35.65,35.65,0,0,0-7.58-1.4c-.07,0-.08-.1,0-.1Z"/><g class="cls-7"><path class="cls-8" d="M853.22,295.67a53.5,53.5,0,0,0,2-21.82,34.18,34.18,0,0,0-9.36-19.68,60.66,60.66,0,0,0-6.43-5.29c-5.76-4.31-11.52-8.62-17.44-12.71-4.64-3.21-9.52-6.43-12.48-11.14a101.63,101.63,0,0,0,2.1,19.67,42.56,42.56,0,0,0,3.8,11.48c2.9,5.44,7.56,9.77,11.86,14.26A153.8,153.8,0,0,1,841.08,287a34.56,34.56,0,0,0,4.18,5.16,16.26,16.26,0,0,0,7.71,4"/><g class="cls-9"><path class="cls-10" d="M828.11,257.48A95.09,95.09,0,0,1,843,263.7a37.11,37.11,0,0,1,10.87,8.74,23.31,23.31,0,0,1,1.47,2,53.81,53.81,0,0,1-2.11,21.22l-.25.51a16.46,16.46,0,0,1-7.71-4,34.92,34.92,0,0,1-4.17-5.15,154.2,154.2,0,0,0-13.78-16.55c-4.3-4.49-9-8.82-11.85-14.26a29.21,29.21,0,0,1-1.62-3.62,71.08,71.08,0,0,1,6.78,2.29C823.1,255.75,825.61,256.61,828.11,257.48Z"/></g><g class="cls-11"><path class="cls-10" d="M813.88,235.67c3.84,8.47,10.8,15.11,17.27,21.74a109.25,109.25,0,0,1,9.12,10.26A69.38,69.38,0,0,1,847.78,280,66.62,66.62,0,0,1,853,295.79c.05.28-.38.42-.44.14a70.9,70.9,0,0,0-11.92-27c-5.46-7.5-12.6-13.61-18.67-20.62a50.42,50.42,0,0,1-8.28-12.62c-.05-.1.11-.14.15-.05Z"/></g></g><g class="cls-7"><path class="cls-8" d="M852.09,308.37c-2-8.23-5.93-15.53-12.59-21-4.16-3.43-9-6.06-13-9.68-6.28-5.75-10-13.62-15.46-20.09-7.4-8.72-17.77-14.54-27.91-20.17,10.35,13.8,12,32.44,22.9,45.87,8.94,11,23,17.08,36.93,20.94,3.27.9,6.74,1.81,9.1,4.16"/><g class="cls-12"><path class="cls-10" d="M790.05,244.78c9.68,6,15.42,15.94,21.42,25.07a86.28,86.28,0,0,0,10.4,13.49,40.12,40.12,0,0,0,6.59,5.45c2.7,1.75,5.66,3.08,8.4,4.75a49.26,49.26,0,0,1,15,14c.16.24-.22.44-.38.22a54.24,54.24,0,0,0-13.68-13c-2.68-1.75-5.6-3.1-8.34-4.75a38.41,38.41,0,0,1-6.44-4.88c-8.19-7.64-13.11-17.8-19.56-26.72-3.71-5.14-8-9.95-13.46-13.43-.08-.06,0-.19.08-.13Z"/></g><path class="cls-13" d="M798.6,260.33c3.62,2.35,6,6,8.09,9.76s3.87,7.61,6.72,10.8a23.46,23.46,0,0,0,17.43,7.66c3.12,0,6.23-.64,9.33-.57,6.24,5.42,10,12.49,11.9,20.44-2.36-2.35-5.82-3.25-9.09-4.16-14-3.86-28-9.92-36.93-20.94-5.92-7.31-9.12-16.16-12.47-24.94A13.49,13.49,0,0,1,798.6,260.33Z"/></g><path class="cls-5" d="M833.15,298.44c-10.53-6.38-20.9-12.8-33.32-13.94a14.25,14.25,0,0,0-7.17.79c-.73.33-1.5.91-1.47,1.69a1.73,1.73,0,0,0,.38.93c1.07,1.43,3,1.87,4.87,2.16,12.45,2,25.6,2.53,36.64,8.41"/><path class="cls-5" d="M849.08,297.27a82.39,82.39,0,0,0-38.5-29.58c-3.31-1.26-6.84-2.33-10.38-1.92-1.33.15-3,1-2.64,2.25a2.17,2.17,0,0,0,.74,1c2.07,1.88,4.78,3,7.41,4,8,3.11,15.95,6.22,23.44,10.25a102.54,102.54,0,0,1,19.93,14"/><path class="cls-6" d="M803.24,268A201.79,201.79,0,0,1,823,276.57a84.74,84.74,0,0,1,9.08,5.43c3.05,2.1,6,4.38,8.82,6.7a33.76,33.76,0,0,1,4.06,3.58c1.16,1.32,2.19,2.75,3.4,4,.09.1-.05.26-.15.16-1-1.08-1.91-2.26-2.86-3.4a19.39,19.39,0,0,0-1.57-1.7c-.6-.56-1.27-1.07-1.91-1.59-2.84-2.32-5.7-4.61-8.69-6.75a104,104,0,0,0-18.82-10.36c-3.67-1.61-7.4-3.1-11.12-4.61,0,0,0-.06,0-.05Z"/><path class="cls-5" d="M850.34,293.87c-4.12-6.23-8.25-12.51-11.19-19.33-2.29-5.31-3.93-11.07-7.86-15.41a4.11,4.11,0,0,0-2.6-1.59,2.92,2.92,0,0,0-2.58,1.47,5.16,5.16,0,0,0-.6,2.94c.16,3.11,1.78,5.94,3.47,8.59,5.52,8.65,9.65,16.65,21.36,23.33"/><path class="cls-6" d="M830.12,264.19c4.07,8.08,8.38,16.15,14.22,23.19.84,1,1.71,2,2.61,2.95s1.89,1.88,2.83,2.83c.08.08,0,.22-.13.14a43.59,43.59,0,0,1-4.82-5,68.37,68.37,0,0,1-4.18-5.41A114.33,114.33,0,0,1,833.53,271c-1.19-2.26-2.34-4.54-3.47-6.83,0,0,0-.06.06,0Z"/><path class="cls-14" d="M1378.29,322.9c-4.88-17.17-22.18-54.75-41.83-52.58-22.65,2.5,22.21,43.52,22.21,43.52s-31.39-24.19-42.71-10.14,38.51,23,38.51,23-26.23-5.45-23.63,5,46.33,7.45,49.39,17.49S1381.64,334.68,1378.29,322.9Z"/><path class="cls-15" d="M1380.14,345c-4.29-18.22-12.1-35.89-23.49-50.78a105.82,105.82,0,0,0-14.05-15.11"/><path class="cls-15" d="M1379.86,345.33c-11.88-19.67-32.08-34-54.4-37.69"/><path class="cls-15" d="M1379.6,345.48c-10.74-8.73-24.37-13.23-38.07-14.2"/><path class="cls-14" d="M1385.28,322.08c4.88-17.18,22.18-54.75,41.83-52.59C1449.76,272,1404.9,313,1404.9,313s31.39-24.2,42.71-10.15-38.51,23-38.51,23,26.24-5.45,23.64,5-46.34,7.44-49.4,17.49S1381.93,333.85,1385.28,322.08Z"/><path class="cls-16" d="M1383.43,344.18c4.29-18.22,12.1-35.88,23.49-50.78a106.36,106.36,0,0,1,14-15.11"/><path class="cls-16" d="M1383.71,344.5c11.88-19.67,32.08-34,54.4-37.69"/><path class="cls-16" d="M1384,344.65c10.74-8.73,24.37-13.23,38.07-14.2"/><path class="cls-4" d="M1369.64,305.5c-4.44-26.62-6.19-88,18.78-94.23,28.79-7.19-.59,72.11-.59,72.11s23.27-49.1,45.36-34.6-32.54,50.85-32.54,50.85,28.32-20.14,31.47-4.14-51.35,32.49-49,48.15S1372.68,323.75,1369.64,305.5Z"/><path class="cls-16" d="M1380.7,337.65c-5.78-27.81-7-56.51-2.22-83a150.08,150.08,0,0,1,7.83-28"/><path class="cls-16" d="M1381.23,338c2.48-33.46,18.19-63.36,42.88-79.11"/><path class="cls-16" d="M1381.63,338.06c7.7-17.44,21.41-30.27,37.33-38.14"/><path class="cls-17" d="M579,294.85c.55-6.24-8.32-4.33-11.6-2.4-6.38,3.77-16.35,15.79-18.36,19.66-.08-1.52-.22-3-.39-4.56-.33-2.83-.66-5.66-1-8.48,4.19-1.36,13.27-3.79,20.55-15.07,1.22-1.89,2.67-4.52,1.59-6.77-1.51-3.13-4.24-.68-5.93.92-2.87,2.73-12.09,12.77-16.64,17.2-.65-5.66-1.29-11.32-2-17,7.48-4.09,16.53-9.11,19.71-17.59,2.08-5.55-4.13-5.3-7.31-3.4-5.7,3.4-10.07,9.66-13,15.94-.33-2.66-.67-5.31-1-8-.06-.48-.13-1-.19-1.43,3.85-1.69,7.73-2.92,10.88-5.92a16.64,16.64,0,0,0,4.75-11.27c.11-1.85.5-4.08-.79-5.68-1.8-2.23-3.09.79-4,2.5a113.17,113.17,0,0,1-6.47,10.6c-1.28,1.86-2.42,3.65-3.5,5.56a14.71,14.71,0,0,1-1.23,1.73c-.53-3.77-1.15-7.55-1.85-11.3,5.17-5,11.38-11.13,12.08-18.74.44-5-4.57-3.4-6.74-1.13-3.36,3.52-5.43,8.55-6.56,13.6-.34-1.63-.69-3.26-1-4.88,4-7.45,9-16.62,7-25.36-1.29-5.55-6.23-2-7.82,1.28a28.29,28.29,0,0,0-2.52,10.6c-.19-.72-.4-1.45-.6-2.17-.49-1.73-1-3.42-1.64-5.09,4.22-5.86,9.33-13,8.67-20.65-.43-5-5.08-2.54-6.83.07-2.75,4.14-3.9,9.63-4.1,14.9-1.06-2.48-2.2-4.92-3.4-7.34,2.68-5.26,5.87-11.64,4.38-17.71-1-4-4.43-1.42-5.51.91A23,23,0,0,0,525,199.9c-1.34-2.63-2.7-5.26-4-7.92.32-2.64.44-5.45.5-7.89.06-2.89-.3-6.11-2.71-8.09-3.16-2.6-5.74-1.1-6.33,2.78a9.47,9.47,0,0,0,.69,5,8.12,8.12,0,0,0-4.15-1.53,2.83,2.83,0,0,0-2.65,1.14c-.75,1.2-.33,3.14.73,4.67,1.89,2.71,5.13,4.17,7.81,5.93a19.17,19.17,0,0,1,2.35,1.88c1,.94,2,1.93,3.06,2.79q1.33,2.59,2.66,5.21h0c-3.24-3.59-7.44-6.88-11.94-8-2.49-.6-6.66.5-4.15,3.75,4,5.21,11.56,6.57,17.5,7.79l.26-.19,1.17,2.43.06.12A108.47,108.47,0,0,1,531,222.65v0a19.34,19.34,0,0,0-3.87-3c-2.53-1.47-7.43-1.61-5.73,2.74,2.17,5.6,7.59,9.22,12.79,12.11,1.43,5.92,2.69,11.91,3.76,17.91-2.54-5.15-6.23-10.2-11-13-2.71-1.57-8-1.72-6.15,2.95,2.91,7.49,11.25,11.68,17.77,15.16l.2-.06h0c.46,2.82.88,5.66,1.25,8.48.18,1.39.37,2.78.53,4.17h0C537.26,263,532.44,255.9,526.3,252c-3.51-2.22-10.25-2.52-7.85,4,3.85,10.37,14.55,16.3,23,21.22h0c.45,3.95.86,7.91,1.29,11.86-5.07-5.32-14.93-17-18.42-20.45-1.64-1.64-5.9-5-7.57-1.46-.92,2,.85,6.15,1.95,7.9,2.47,3.9,15.33,14.32,24.74,20.11h0c.32,2.81.66,5.61,1.05,8.41.14,1,.26,2.07.37,3.1-6.82-8.53-21.25-24.28-26.11-26.66-2.47-1.21-6.81-2.56-8.67.27s2,6.48,3.53,8.77c3.57,5.28,20,16.68,23.39,18.35,2.59,1.29,5.57,2.07,8.19,3.2v.13c.14,2.33.21,4.63.22,6.93l-.45-.28c-7.5-4.88-22.8-16.22-28-19.44-2.42-1.49-8.47-4.36-9.47.38-.55,2.62,2.74,7.13,4.56,8.91,3.76,3.71,20,11.67,32.59,16.21l.69.23c-.22,7.48-.82,14.93-1,22.65,0,2.33,3.57,2.63,3.63.29.25-11.15,1.69-21.91,1.2-32.95C561.87,310.91,578.75,297.68,579,294.85Z"/><path class="cls-18" d="M589.93,332c3.19-3.36-2.82-6.34-5.61-6.73-5.43-.76-16.74,1.61-19.68,2.93.64-.92,1.27-1.86,1.87-2.83q1.66-2.69,3.35-5.35a25.37,25.37,0,0,0,18.83.74c1.58-.54,3.63-1.39,4-3.19.57-2.51-2.14-2.35-3.85-2.2-2.93.26-12.89,1.82-17.56,2.3,2.23-3.58,4.47-7.15,6.68-10.74,6.22,1.08,13.77,2.34,19.52-1.11,3.77-2.25.05-5-2.67-5.33-4.87-.66-10.28.95-14.87,3.24,1-1.7,2.06-3.39,3.08-5.09.18-.3.36-.61.55-.91,3,.79,5.82,1.87,9,1.58a12.33,12.33,0,0,0,7.94-4.34c.91-1,2.17-2.13,2.16-3.65,0-2.12-2.16-1-3.47-.4a83.28,83.28,0,0,1-8.63,3.16c-1.6.49-3.08,1-4.59,1.61a12.23,12.23,0,0,1-1.5.43q2.13-3.64,4.13-7.4c5.31-.52,11.72-1.19,15.62-5.28,2.56-2.69-1.07-4.07-3.38-3.75a21.33,21.33,0,0,0-10.06,4.84c.55-1.09,1.1-2.2,1.64-3.3,5.73-2.49,12.87-5.48,15.72-11.47,1.81-3.81-2.7-4-5.11-2.86a20.51,20.51,0,0,0-6.34,5c.22-.51.43-1,.64-1.54.52-1.23,1-2.46,1.4-3.7,5.14-1.45,11.39-3.23,14.53-8,2.06-3.09-1.77-3.82-4-3.11-3.51,1.13-6.69,3.78-9.24,6.74.53-1.93,1-3.87,1.42-5.82,4-1.81,8.75-4,10.69-8.23,1.27-2.76-1.92-2.87-3.62-2a17,17,0,0,0-6.18,5.92c.44-2.15.86-4.29,1.32-6.44,1.4-1.38,2.77-2.95,3.93-4.34,1.36-1.64,2.63-3.68,2.15-5.93-.63-3-2.82-3.28-4.94-1.31a7.06,7.06,0,0,0-1.92,3.23,6,6,0,0,0-1.7-2.8,2.06,2.06,0,0,0-2.06-.55c-1,.34-1.63,1.66-1.72,3-.16,2.43,1,4.77,1.79,7a14.23,14.23,0,0,1,.49,2.17c.16,1,.27,2,.49,3l-.87,4.24h0c-.23-3.57-1.14-7.41-3.24-10.12-1.16-1.5-4.08-2.78-4.12.26-.07,4.87,3.66,9.13,6.54,12.57h.23c-.14.65-.29,1.29-.44,1.94a.87.87,0,0,1,0,.1,80.8,80.8,0,0,1-2.93,9.8h0a15.23,15.23,0,0,0-.86-3.52c-.79-2-3.56-4.35-4.59-1.05-1.32,4.24.15,8.84,1.83,12.9-1.9,4.09-3.93,8.14-6.07,12.11.9-4.15,1.09-8.78-.38-12.55-.84-2.16-3.82-4.67-4.92-1.13-1.76,5.68,1.13,11.95,3.31,17l.14.05h0c-1,1.85-2.1,3.68-3.18,5.49-.54.89-1.07,1.78-1.61,2.66h0c1.37-5.7,1.85-12,.09-17.12-1-2.9-4.78-6.18-6.37-1.31-2.55,7.77.91,16.14,3.52,22.86h0c-1.56,2.49-3.14,5-4.71,7.46-.49-5.42-.84-16.7-1.25-20.33-.2-1.7-1.1-5.63-3.71-4.33-1.45.72-2.34,4-2.51,5.47-.37,3.39,2.28,15.35,5,23h0c-1.1,1.77-2.2,3.55-3.26,5.35-.4.67-.8,1.32-1.22,2,0-8.08-1.12-23.85-2.83-27.46-.87-1.84-2.77-4.62-5.15-3.84s-1.84,4.67-2,6.71c-.37,4.7,3.92,18.89,5.09,21.39.9,2,2.27,3.77,3.26,5.63l-.06.08c-1,1.41-2,2.78-3.06,4.11,0-.12-.09-.24-.13-.37-2.1-6.28-5.73-19.89-7.26-24.16-.71-2-2.89-6.42-5.66-4.14-1.52,1.27-1.69,5.39-1.46,7.26.47,3.89,6.19,16,11.4,24.4l.29.46c-3.57,4.22-7.35,8.26-11,12.65-1.1,1.32.86,3.17,2,1.84,5.28-6.34,11.07-11.91,15.87-18.53C572.62,333.41,588.48,333.52,589.93,332Z"/><g class="cls-7"><path class="cls-8" d="M543.65,333c.86-9.08.42-18.39-2.32-27.09s-7.89-16.79-15.27-22.15a71.36,71.36,0,0,0-8.72-5.16c-7.71-4.09-15.43-8.18-23.28-12-6.16-3-12.6-5.91-17.1-11.07a129.92,129.92,0,0,0,6.72,23.62,54.73,54.73,0,0,0,7,13.27c4.59,6,11,10.4,17.05,15a190.42,190.42,0,0,1,19.79,17.42,43.22,43.22,0,0,0,6,5.45,19.39,19.39,0,0,0,10,3.36"/><g class="cls-9"><path class="cls-10" d="M505.83,291.41A110.93,110.93,0,0,1,524.68,296a44.86,44.86,0,0,1,14.69,8.47c.76.68,1.48,1.4,2.17,2.14a69.57,69.57,0,0,1,2.1,26.38l-.19.67a19.39,19.39,0,0,1-10-3.36,42.61,42.61,0,0,1-6-5.45,190.53,190.53,0,0,0-19.8-17.42c-6-4.61-12.45-9-17-15a39.76,39.76,0,0,1-2.69-4.11c2.86.27,5.67.87,8.48,1.42C499.55,290.32,502.69,290.85,505.83,291.41Z"/></g><g class="cls-11"><path class="cls-10" d="M484.36,267.65c6.35,9.57,16,16.27,25,23.06a136.37,136.37,0,0,1,13,10.67A88.75,88.75,0,0,1,533.86,315a85,85,0,0,1,9.6,18.21c.12.33-.36.59-.49.26a90.07,90.07,0,0,0-19.86-30.55c-8.05-8.05-17.78-14.07-26.44-21.4a63.25,63.25,0,0,1-12.49-13.74c-.07-.11.11-.2.18-.09Z"/></g></g><g class="cls-7"><path class="cls-8" d="M545.06,348.74c-4.13-9.66-10.34-17.78-19.37-23.14-5.63-3.35-11.9-5.57-17.36-9.2-8.65-5.74-14.69-14.62-22.55-21.4-10.6-9.15-24.07-14.15-37.23-19,15.18,14.76,21.17,37.22,36.88,51.41,12.91,11.66,30.73,16.2,48,18.07,4,.44,8.32.84,11.61,3.23"/><g class="cls-12"><path class="cls-10" d="M458.26,283.64C471,289,479.86,300,488.9,309.93a108,108,0,0,0,15.17,14.38,48.56,48.56,0,0,0,8.94,5.31c3.55,1.59,7.32,2.61,10.91,4.1a60.23,60.23,0,0,1,20.66,14c.23.25-.17.58-.41.34a66.28,66.28,0,0,0-18.93-13.16c-3.54-1.59-7.26-2.64-10.85-4.1a46.64,46.64,0,0,1-8.63-4.65c-11.3-7.67-19.29-19.09-28.81-28.68C471.47,292,465.37,287,458.2,283.82a.09.09,0,0,1,.06-.18Z"/></g><path class="cls-13" d="M471.69,300.92c4.78,2.13,8.42,6.15,11.64,10.28s6.2,8.52,10.24,11.84a27.74,27.74,0,0,0,22.19,5.8c3.66-.66,7.2-2.06,10.86-2.6,8.52,5.36,14.45,13.24,18.44,22.56-3.29-2.39-7.57-2.78-11.62-3.22-17.28-1.88-35.11-6.42-48-18.07-8.55-7.73-14.23-17.9-20.07-27.95A15.78,15.78,0,0,1,471.69,300.92Z"/></g><path class="cls-19" d="M520.62,340.47c-13.79-5.66-27.39-11.39-42.25-10.25-2.91.22-5.9.75-8.28,2.43-.79.55-1.57,1.42-1.37,2.36a2.18,2.18,0,0,0,.65,1.06c1.57,1.54,4,1.66,6.2,1.65,15.1-.09,30.69-2.13,45,2.81"/><path class="cls-6" d="M477.75,333.77a33.29,33.29,0,0,1,8,0c2.88.21,5.75.46,8.62.8,5.81.68,11.53,1.88,17.27,3a45.39,45.39,0,0,1,9,2.82c.16.07.09.32-.07.25a42.54,42.54,0,0,0-7.78-2.59c-2.88-.61-5.77-1.16-8.66-1.73A146.34,146.34,0,0,0,487,334a41.3,41.3,0,0,0-9.23-.15c-.08,0-.11-.11,0-.12Z"/><path class="cls-19" d="M539.12,335.78a99.56,99.56,0,0,0-51.73-28.31c-4.17-.86-8.56-1.45-12.65-.23-1.53.45-3.27,1.85-2.61,3.3a2.76,2.76,0,0,0,1.09,1.08c2.84,1.88,6.26,2.63,9.59,3.36,10,2.18,20.12,4.35,29.81,7.75a123.61,123.61,0,0,1,26.5,13"/><path class="cls-6" d="M478.82,309.38a235.77,235.77,0,0,1,25.08,6.42,101.46,101.46,0,0,1,11.87,4.78c4,1.95,8,4.15,11.82,6.41a39.65,39.65,0,0,1,5.56,3.54c1.66,1.37,3.18,2.92,4.88,4.24.13.1,0,.33-.14.23-1.44-1.11-2.74-2.38-4.11-3.57a24.93,24.93,0,0,0-2.2-1.76c-.84-.57-1.73-1.05-2.61-1.56-3.84-2.25-7.7-4.47-11.68-6.47a123.63,123.63,0,0,0-24.41-8.84c-4.67-1.22-9.38-2.28-14.08-3.36-.05,0,0-.07,0-.06Z"/><path class="cls-19" d="M539.87,331.37c-6.2-6.78-12.42-13.61-17.36-21.35-3.84-6-7-12.74-12.58-17.24a4.92,4.92,0,0,0-3.41-1.41,3.43,3.43,0,0,0-2.72,2.32,6.72,6.72,0,0,0-.07,3.72c.86,3.77,3.38,6.9,5.94,9.79,8.37,9.45,15,18.39,30.2,24.17"/><path class="cls-6" d="M509.64,299.2c6.54,9.05,13.36,18,21.76,25.46,1.21,1.06,2.44,2.09,3.71,3.07s2.63,1.92,3.94,2.88c.12.09,0,.28-.12.2a53.82,53.82,0,0,1-6.75-5.1c-2.12-1.82-4.16-3.74-6.09-5.76a142.4,142.4,0,0,1-11-13.07q-2.83-3.78-5.56-7.63s0-.09.06-.05Z"/><path class="cls-1" d="M1129.17,299.75c7.06-15.46,14.19-30.69,13.28-47.55-.18-3.29-.72-6.7-2.63-9.44-.63-.91-1.62-1.81-2.74-1.61a2.53,2.53,0,0,0-1.26.71c-1.86,1.73-2.07,4.48-2.12,7-.33,17.1,1.63,34.8-4.59,50.82"/><path class="cls-6" d="M1138.54,245.88a36.87,36.87,0,0,1,.14,9c-.2,3.27-.44,6.53-.78,9.78-1.35,12.76-1,7.83-3.24,19.6a50.19,50.19,0,0,1-3.16,10.2c-.08.17-.38.1-.3-.08a47.26,47.26,0,0,0,2.91-8.85c.66-3.28,1.27-6.57,1.89-9.85a157.38,157.38,0,0,0,2.38-19.34c.22-3.46.61-7,0-10.46,0-.08.12-.12.14,0Z"/><path class="cls-19" d="M1127.71,303a111.88,111.88,0,0,0,34.78-57.78c1.13-4.7,1.94-9.65.63-14.31-.49-1.74-2.08-3.76-3.8-3.05A3.36,3.36,0,0,0,1158,229c-2.29,3.17-3.28,7-4.22,10.77-2.85,11.31-5.7,22.65-10,33.53a138.25,138.25,0,0,1-16.1,29.64"/><path class="cls-6" d="M1160.49,235.41a261.88,261.88,0,0,1-8.27,28.22,113,113,0,0,1-6,13.3c-2.4,4.52-5.11,8.89-7.87,13.21a45.16,45.16,0,0,1-4.33,6.19c-1.66,1.85-3.52,3.52-5.13,5.41-.12.14-.38,0-.26-.16,1.35-1.6,2.87-3,4.31-4.55a27.27,27.27,0,0,0,2.13-2.45c.7-.93,1.29-1.93,1.92-2.91,2.75-4.28,5.48-8.59,7.94-13a136,136,0,0,0,11.09-27.4c1.57-5.25,3-10.55,4.36-15.84,0,0,.09,0,.08,0Z"/><path class="cls-1" d="M1132.87,303.91c8.16-6.82,16.36-13.68,25.61-19.05,7.2-4.19,15.18-7.6,20.63-13.77a5.47,5.47,0,0,0,1.77-3.82,3.93,3.93,0,0,0-2.66-3.14,8.09,8.09,0,0,0-4.37-.18c-4.45.86-8.21,3.64-11.68,6.45-11.36,9.21-22.07,16.43-29.3,33.51"/><path class="cls-6" d="M1171.57,270.59c-10.83,7.15-21.59,14.62-30.56,23.93q-1.93,2-3.72,4.11c-1.22,1.43-2.33,2.93-3.5,4.38-.11.14-.33,0-.24-.14a61.56,61.56,0,0,1,6.2-7.5q3.3-3.53,7-6.74a165.82,165.82,0,0,1,15.69-12c3-2.07,6.06-4.09,9.13-6.09,0,0,.1.05,0,.08Z"/><path class="cls-20" d="M1248.73,188.65l14.41-31.49-17-28.21,16.11-9.34L1275,143.75c4.45,8.54,6.07,14.55,1.66,20.28l-21.79,30.57Z"/><path class="cls-20" d="M1250.81,187.26s-3.31-.41-3.84,8.44-2.52,14.67,2.91,15.08,14.72-4.66,8.39-11.79l-2.35-7.5Z"/><path class="cls-5" d="M1244.43,97.07s14.38,1.54,22.77,26.46l-23.27,19.32-4-15.27Z"/><polygon class="cls-21" points="1192.94 349.25 1193.35 316.53 1205.64 315.83 1203.88 350.04 1192.94 349.25 1192.94 349.25"/><path class="cls-18" d="M1205.27,343.61s-9.39,4.54-13.8-2.6l-22.8,13.79,39.51-.3Z"/><polygon class="cls-21" points="1168.69 358.69 1208.2 358.39 1208.18 354.5 1168.67 354.8 1168.69 358.69"/><polygon class="cls-22" points="1204.75 333.1 1204.59 336.32 1193.15 332.99 1204.75 333.1"/><polygon class="cls-21" points="1257.27 349.3 1253.64 316.58 1241.35 315.88 1246.33 350.09 1257.27 349.3 1257.27 349.3"/><path class="cls-18" d="M1244.27,343.61s9.38,4.54,13.79-2.6l22.8,13.79-39.51-.3Z"/><polygon class="cls-21" points="1280.84 358.69 1241.33 358.39 1241.35 354.5 1280.86 354.8 1280.84 358.69"/><polygon class="cls-22" points="1243.31 329.35 1255.3 331.51 1254.91 328.05 1243.31 329.35"/><polygon class="cls-23" points="1195.49 180.38 1192.28 339.76 1204.89 343.07 1222.92 203.98 1244.19 341.83 1259.77 339.35 1248.66 180.38 1195.49 180.38"/><line class="cls-24" x1="1222.92" y1="203.98" x2="1232.49" y2="200.15"/><path class="cls-20" d="M1183.78,121.72l-6.42,9.19-8.82-33.08L1159.11,99l4.48,42c0,10.18,10.62,15.77,17.63,9.25l17.35-17Z"/><path class="cls-20" d="M1149.54,80.87a1,1,0,0,1,1.56-.13l5.33,6.81-2.27-11.65a1.22,1.22,0,0,1,.9-1.48,1.1,1.1,0,0,1,1.23.81l3.32,10.47-1.74-13a1.1,1.1,0,0,1,.77-1.25,1,1,0,0,1,1.18.8l2.8,11.85L1162,73.77a1.26,1.26,0,0,1,1.27-1.34c.71-.05,1.16.78,1.24,1.4l1.63,14.48,1.67-4.5a1.45,1.45,0,0,1,1.9-1.16,1.63,1.63,0,0,1,1,1.45c.44,10.53-2.55,14.47-2.55,14.47L1160,101a19.53,19.53,0,0,1-5.72-10.32l-4.72-8.43A1.27,1.27,0,0,1,1149.54,80.87Z"/><path class="cls-5" d="M1202.81,96.08s-5.91,1-10.4,7.4-10.47,18.4-10.47,18.4l15.43,17.71,7.05-6.54Z"/><path class="cls-5" d="M1202.81,96.08l-1.36,10.22s-3.4,11.34-2.74,14.23l-4.22,59.82,56.66,7.29-3.7-81.7a20.58,20.58,0,0,0,.09-5.27A3.92,3.92,0,0,0,1244,97l-11.36-.63Z"/><line class="cls-24" x1="1248.1" y1="119.61" x2="1248.85" y2="138.22"/><line class="cls-24" x1="1197.37" y1="139.59" x2="1198.71" y2="120.53"/><path class="cls-20" d="M1233,95.84l-.62-17.23-12.16-.39-.74,20.21c-.08,2.21,1.64,1.81,3.62,1.7l6.71-.38A3.62,3.62,0,0,0,1233,95.84Z"/><polygon class="cls-25" points="1220.7 82.2 1232.84 90.17 1232.42 78.61 1220.7 82.2"/><path class="cls-20" d="M1246.92,66.34a4.58,4.58,0,1,1-4.55-5.08A4.84,4.84,0,0,1,1246.92,66.34Z"/><path class="cls-26" d="M1239.82,67.44c.25-.37,1.13-3.22,4-2.76"/><ellipse class="cls-20" cx="1210.94" cy="66.34" rx="4.55" ry="5.08"/><path class="cls-26" d="M1213.5,67.44c-.25-.37-1.14-3.22-4-2.76"/><path class="cls-20" d="M1240.82,57.26a78.15,78.15,0,0,1-1.68,16c-.82,3.88-3.13,6.6-6.39,8.78l-.58.39a10.35,10.35,0,0,1-11.42.15h0c-3.53-2.25-6-5.21-6.76-9.38a114.1,114.1,0,0,1-1.54-16s-1.32-16.35,14-16S1240.82,57.26,1240.82,57.26Z"/><path class="cls-27" d="M1213.27,63.9s3.22-11.61.89-19.12C1214.16,44.78,1205.14,47.67,1213.27,63.9Z"/><path class="cls-27" d="M1240.24,63.9s-4.07-11.61-1.74-19.12C1238.5,44.78,1246.92,47.09,1240.24,63.9Z"/><path class="cls-26" d="M1225.68,66.89V69a.77.77,0,0,0,.88.82l1-.23"/><path class="cls-27" d="M1224.3,57.18l-8.55,1.14s.69-2.51,4.18-3S1224.3,57.18,1224.3,57.18Z"/><path class="cls-27" d="M1228.87,57.18l8.55,1.14s-.69-2.51-4.18-3S1228.87,57.18,1228.87,57.18Z"/><path class="cls-21" d="M1221.58,72.31h9s-.71,2.58-4.49,2.58A5.18,5.18,0,0,1,1221.58,72.31Z"/><path class="cls-26" d="M1230.81,64.14a2.21,2.21,0,0,1,3.53,0"/><path class="cls-26" d="M1218.26,64.14a2.21,2.21,0,0,1,3.53,0"/><path class="cls-27" d="M1214.82,50s2.58-5.2,7.22-2.32,9.22,5.6,17.51,3.34l-1.11-6.26s-11.5-13.66-24.34,0Z"/><path class="cls-27" d="M1214.1,44.75s.73-9.48,12.72-10.3,15.54,6.31,15.54,6.31l-2.18.44s4.2,2,5.28,4l-2.36.92,3.11,3.08s-9.77,4.24-15.19,2l-4.49-7.57Z"/><path class="cls-20" d="M1219.61,96.08l-7.19.1s-.77,8.12,13.26,8.52,14.26-8,14.26-8l-7.59-.62Z"/><path class="cls-20" d="M757.81,111.5l22,20.84a9.91,9.91,0,0,1,1,13h0a8.12,8.12,0,0,1-12,1.28l-18.54-16.32Z"/><path class="cls-20" d="M784.8,96.31l-17.23,40.07c-1.92,4.42,0,9.69,4.15,11.53h0c4.4,1.93,9.36-.78,10.55-5.78l11-43.34Z"/><path class="cls-20" d="M804,78.51a1,1,0,0,0-1.61-.12l-5.5,6.84,2.34-11.71a1.23,1.23,0,0,0-.93-1.49,1.13,1.13,0,0,0-1.27.81l-3.43,10.53,1.8-13.07a1.11,1.11,0,0,0-.8-1.26,1,1,0,0,0-1.22.8l-2.89,11.92.66-10.39A1.28,1.28,0,0,0,789.83,70c-.74,0-1.2.78-1.28,1.4L786.87,86l-.93-4.54a1.49,1.49,0,0,0-2-1.16,1.63,1.63,0,0,0-1,1.46c-.46,10.58,1.83,14.55,1.83,14.55l8.42,2.48a19.43,19.43,0,0,0,5.9-10.37L804,79.93A1.25,1.25,0,0,0,804,78.51Z"/><path class="cls-2" d="M740.23,98.64c11.15,2.71,25,16.82,25,16.82l-9.5,20-14.17-12.62Z"/><path class="cls-20" d="M706.14,178,693.9,142.41,713.72,125l-15.33-11.75-14.94,14c-6.14,6-8.9,12.6-4.24,20L699.12,183Z"/><path class="cls-20" d="M704.18,176.3s3.45.1,2.89,9,.74,15-4.87,14.59-14.49-6.87-7.12-13l3.35-7.12Z"/><path class="cls-2" d="M717.28,99.36c-8.9,1.88-25.44,17-25.44,17l8.59,20.74,15.07-11.9Z"/><path class="cls-2" d="M717.28,99.36s-7.42,3.69-11.08,7.46l7.49,49.26,31.82-1.42,5.41-46.08a6.13,6.13,0,0,0-3.49-5.91l-7.2-4C736.65,100.24,717.28,99.36,717.28,99.36Z"/><polygon class="cls-28" points="750.28 347.18 751.38 320.37 739.68 319.72 739.86 347.91 750.28 347.18 750.28 347.18"/><path class="cls-17" d="M738.54,342s8.94,4.21,13.14-2.41l21.71,12.78-37.62-.27Z"/><rect class="cls-21" x="735.75" y="352.18" width="37.63" height="3.61" transform="translate(2.6 -5.48) rotate(0.42)"/><polygon class="cls-22" points="739.74 329.13 750.89 332.23 751.02 329.13 739.74 329.13"/><polygon class="cls-28" points="694.81 347.18 697.99 320.37 709.69 319.72 705.23 347.91 694.81 347.18 694.81 347.18"/><path class="cls-17" d="M707.48,342s-8.93,4.21-13.14-2.41l-21.71,12.78,37.63-.27Z"/><rect class="cls-21" x="672.64" y="352.18" width="37.63" height="3.61" transform="translate(1385.47 702.94) rotate(179.58)"/><polygon class="cls-22" points="697.08 328.09 707.71 332.23 708.28 328.63 697.08 328.09"/><path class="cls-29" d="M713.69,156.08s-6.38,9.45-11.12,34.15c-5,26-7.8,147.6-7.8,147.6l14.73,1.11L730.8,204.5l7.14,134.44,15.24-1.66s17.68-157-7.67-182.62Z"/><line class="cls-30" x1="720.57" y1="197.63" x2="730.8" y2="204.5"/><path class="cls-27" d="M754,74.57c-1.38-5.68-1.88-4.67-6.51-16-2.77-6.75-4.92-9.46-6.19-10.55h0a18.12,18.12,0,0,0-25.69-.28h0c-1.21.88-3.49,3.43-6.53,10.83-4.63,11.29-5.13,10.28-6.51,16s.37,16.15,11.15,18.19a8.85,8.85,0,0,1-1.88-3.94s4.51,6.67,10.64,6.26H734c6.14.41,10.65-6.26,10.65-6.26a8.85,8.85,0,0,1-1.88,3.94C753.58,90.72,755.34,80.25,754,74.57Z"/><path class="cls-20" d="M722.72,85l.1,12.06c0,3.76,2.16,3.27,5.57,3.22h0c2.9,0,5.6-.62,5.92-3.75l-.89-16.82Z"/><polygon class="cls-25" points="734.2 92.78 722.58 85.22 733.86 83.06 734.2 92.78"/><path class="cls-31" d="M722.82,96.55l-6.8,3s14,7.71,24.7-.86l-6.41-2.12Z"/><path class="cls-27" d="M744.72,61.5c0,10.18-7.29,18.43-16.28,18.43s-16.29-8.25-16.29-18.43,7.29-17.11,16.29-17.11S744.72,51.32,744.72,61.5Z"/><path class="cls-31" d="M747.53,70.68a4.46,4.46,0,1,1-4.45-4.83A4.65,4.65,0,0,1,747.53,70.68Z"/><path class="cls-32" d="M740.59,71.74c.24-.36,1.11-3.08,3.91-2.63"/><ellipse class="cls-31" cx="713.28" cy="70.68" rx="4.45" ry="4.84"/><path class="cls-32" d="M715.77,71.74c-.24-.36-1.11-3.08-3.91-2.63"/><path class="cls-20" d="M741.89,61.79a71.49,71.49,0,0,1-1.62,15.05c-.79,3.65-3,6.19-6.19,8.24l-.57.38a10.37,10.37,0,0,1-11.06.13h0c-3.42-2.11-5.82-4.89-6.55-8.8a104.93,104.93,0,0,1-1.49-15s-1.28-15.35,13.55-15S741.89,61.79,741.89,61.79Z"/><path class="cls-27" d="M737.4,48.61S732.82,65.87,712,64.33c0,0,1.85-17,11.94-18.46C723.94,45.87,733.82,44.33,737.4,48.61Z"/><path class="cls-27" d="M732.19,46.73s.71,11.85,9.61,18.62l1.28-5.63S744.5,47.93,732.19,46.73Z"/><polygon class="cls-27" points="717.28 61.49 714.86 68.84 713.82 61.49 717.28 61.49"/><polygon class="cls-27" points="738.95 61.49 741.45 68.22 742.41 61.49 738.95 61.49"/><path class="cls-33" d="M722.94,68.59a1.34,1.34,0,1,1-1.34-1.44A1.4,1.4,0,0,1,722.94,68.59Z"/><path class="cls-33" d="M735.64,68.59a1.34,1.34,0,1,1-1.34-1.44A1.4,1.4,0,0,1,735.64,68.59Z"/><path class="cls-32" d="M727.43,71.34v2a.72.72,0,0,0,.83.76l1-.21"/><path class="cls-27" d="M721.62,62.72s2.82-.42,2.91.83c0,0,0,.84-2.42,1.16s-4.1.15-4.37-.63S720.3,62.8,721.62,62.72Z"/><path class="cls-27" d="M734.22,62.52s-2.94-.44-3,.87c0,0,0,.88,2.53,1.21s4.3.16,4.57-.65S735.61,62.61,734.22,62.52Z"/><path class="cls-21" d="M722.89,76.8H733.4s-.83,2.94-5.26,2.94A6,6,0,0,1,722.89,76.8Z"/><ellipse class="cls-21" cx="705.63" cy="111.25" rx="2.59" ry="2.74"/><ellipse class="cls-21" cx="709.55" cy="123.72" rx="1.96" ry="2.07"/><ellipse class="cls-21" cx="735.9" cy="149.85" rx="1.96" ry="2.07"/><ellipse class="cls-21" cx="714.86" cy="149.99" rx="1.96" ry="2.07"/><ellipse class="cls-21" cx="750.31" cy="128.2" rx="1.96" ry="2.07"/><ellipse class="cls-21" cx="724.24" cy="113.32" rx="2.59" ry="2.74"/><ellipse class="cls-21" cx="736.75" cy="126.91" rx="2.03" ry="2.15"/><ellipse class="cls-21" cx="738.7" cy="108.99" rx="1.73" ry="1.83"/><ellipse class="cls-21" cx="750.36" cy="113.47" rx="1.73" ry="1.83"/><ellipse class="cls-21" cx="724.03" cy="129.09" rx="1.95" ry="2.07"/><ellipse class="cls-21" cx="711.74" cy="138.4" rx="2.59" ry="2.74"/><ellipse class="cls-21" cx="727.94" cy="141.02" rx="2.59" ry="2.74"/><path class="cls-21" d="M1192.91,171.93a14.12,14.12,0,0,1-.17-2,2,2,0,0,1,.48-1.61c.49-.42,1.09-.1,1.59.11a4,4,0,0,0,1.59.35,2.39,2.39,0,0,0,1.44-.34c.44-.36.3-.93.22-1.42a7.38,7.38,0,0,1-.33-2,.75.75,0,0,1,.3-.59.29.29,0,0,1,.45.18c.09.48.82.27.73-.2a1,1,0,0,0-1.1-.78,1.33,1.33,0,0,0-1.1,1.07,5.41,5.41,0,0,0,.27,2.18c0,.22.08.44.1.65s0,.28-.19.35a2.7,2.7,0,0,1-1.06.09,20.34,20.34,0,0,1-2-.63,1.65,1.65,0,0,0-1.59.56,2.81,2.81,0,0,0-.55,1.85,13.44,13.44,0,0,0,.2,2.29c.07.49.81.28.73-.2Z"/><path class="cls-21" d="M1209.92,142.71c.44-.29,2.78-1.66,3-.77.14.52-.19,1.08-.13,1.62a2,2,0,0,0,.56,1.15,2.06,2.06,0,0,0,1.15.61,5.9,5.9,0,0,0,1.56-.24,1.48,1.48,0,0,1,1.48,1.74c-.11.47.63.67.74.2a2.27,2.27,0,0,0-1.3-2.52,2.15,2.15,0,0,0-1.56-.05,1.38,1.38,0,0,1-1.61-.36c-.72-.89.52-2.4-.69-3.08a2.31,2.31,0,0,0-1.76.14,8.48,8.48,0,0,0-1.84.9c-.41.27,0,.93.38.66Z"/><path class="cls-21" d="M1227.69,172.71a2.7,2.7,0,0,1,1.81-1.91,2,2,0,0,1,1.27,0c.53.19.57.57.79,1a2.3,2.3,0,0,0,2.2,1,3.68,3.68,0,0,0,2.5-1.07c.35-.34-.19-.88-.54-.53a2.83,2.83,0,0,1-2.87.71,1,1,0,0,1-.58-.43c-.12-.19-.15-.44-.25-.64a1.72,1.72,0,0,0-.94-.8c-1.74-.69-3.69.71-4.12,2.4a.38.38,0,0,0,.73.2Z"/><path class="cls-21" d="M1199.07,113.32a7.57,7.57,0,0,1,3.39-.43,1.64,1.64,0,0,1,1.15.79c.21.42.11.88.45,1.25,1.16,1.24,3.61,1.47,4.33-.33.19-.45-.55-.65-.73-.2-.37.93-1.57.87-2.31.5a2.78,2.78,0,0,1-.59-.37.83.83,0,0,1-.3-.63,2,2,0,0,0-.48-1c-1.25-1.4-3.57-.73-5.12-.31a.38.38,0,0,0,.21.73Z"/><path class="cls-21" d="M1183.65,118c-.13.13-.3,0-.36-.15a1.5,1.5,0,0,1-.07-.73,2.15,2.15,0,0,1,.21-1.06c.26-.39.78-.3,1.18-.3a1.79,1.79,0,0,0,1.15-.28,1.76,1.76,0,0,0,.5-1.91c-.2-.87-1-1.7-.81-2.63a.38.38,0,0,0-.73-.2c-.29,1.18.6,2,.82,3.08.08.36.09.87-.28,1.09s-1.09,0-1.58.13c-1,.22-1.22,1.36-1.22,2.26a1.46,1.46,0,0,0,.53,1.32.91.91,0,0,0,1.19-.09c.34-.35-.2-.89-.53-.53Z"/><path class="cls-21" d="M1202,130.44c-.4-.81,1.43-1.26,2-1.17s.51.48.67.87a2.18,2.18,0,0,0,.69.87c1.5,1.15,3.39.26,4.43-1,.3-.38-.24-.92-.54-.54a3,3,0,0,1-2.53,1.36,1.8,1.8,0,0,1-1.16-.62c-.29-.36-.29-.87-.61-1.22-1.11-1.19-4.43.13-3.56,1.88.21.44.87.05.65-.38Z"/><path class="cls-21" d="M1225.62,118.1c.67-.4,1.77-.92,2.41-.17.3.35.14.77,0,1.16a3.39,3.39,0,0,0-.16,1.34,3.08,3.08,0,0,0,3.71,2.65c.47-.1.27-.83-.21-.73a2.31,2.31,0,0,1-2.28-.83,2.44,2.44,0,0,1-.47-1.18,4.28,4.28,0,0,1,.23-1.37,1.62,1.62,0,0,0-1-2,3,3,0,0,0-2.62.52.38.38,0,0,0,.38.65Z"/><path class="cls-21" d="M1227.44,142.44a5.41,5.41,0,0,1,4.15-.82,3.42,3.42,0,0,1,2.47,2.51c.29,1.4-.82,2.58-.82,4a3.43,3.43,0,0,0,1.61,2.84,3.85,3.85,0,0,0,4-.1c.42-.25,0-.91-.38-.65a3,3,0,0,1-3.77-.32,2.66,2.66,0,0,1-.73-1.71,5.48,5.48,0,0,1,.55-2,3.64,3.64,0,0,0-.29-3.46,4.27,4.27,0,0,0-2.85-1.87,6.26,6.26,0,0,0-4.35,1c-.41.25,0,.91.38.65Z"/><path class="cls-21" d="M1215.77,165.19a2,2,0,0,1-1.65-2.55c.18-.52.6-.92.82-1.43a2,2,0,0,0,0-1.46,3.07,3.07,0,0,0-2.33-1.83,10.85,10.85,0,0,0-1.8-.16c-.57,0-1.36-.07-1.53-.73a.38.38,0,0,0-.73.2c.35,1.34,1.88,1.25,3,1.32s2.74.49,2.78,1.88c0,.6-.48,1-.75,1.55a2.73,2.73,0,0,0-.3,1.69,2.71,2.71,0,0,0,2.28,2.25c.47.07.68-.66.2-.73Z"/><path class="cls-21" d="M1197,138.89a3.7,3.7,0,0,1,1.51,3.5c-.15.81-.79.87-1.5.85a6.79,6.79,0,0,0-2,.17,3.24,3.24,0,0,0-2.48,2.38,2.26,2.26,0,0,0,1.44,2.58c.46.16.66-.58.2-.74a1.44,1.44,0,0,1-.93-1.35,2.08,2.08,0,0,1,.9-1.65,3.63,3.63,0,0,1,2-.63,10.22,10.22,0,0,0,1.92-.07c1.23-.3,1.4-1.65,1.23-2.71a4.55,4.55,0,0,0-1.87-3c-.39-.29-.77.37-.38.65Z"/><path class="cls-21" d="M1240.89,112.72a2,2,0,0,1,2.17-1.88,2.53,2.53,0,0,1,1.6.77,15.64,15.64,0,0,1,1,1.47c1.39,1.64,4.21,1.13,5.51-.33.32-.36-.21-.9-.54-.53a3.28,3.28,0,0,1-3.23,1,2.1,2.1,0,0,1-1.44-1.1,4,4,0,0,0-1.1-1.37,3.05,3.05,0,0,0-3-.46,2.73,2.73,0,0,0-1.68,2.42c0,.49.74.49.76,0Z"/><path class="cls-21" d="M1251.7,129.88a21,21,0,0,0,.6-3.16,1.74,1.74,0,0,1,.75-1.1.91.91,0,0,1,1.14.12,3.07,3.07,0,0,0,1.15.8,2,2,0,0,0,1.33-.08,1.94,1.94,0,0,0,1.07-2.22c-.11-.48-.84-.28-.73.2a1.15,1.15,0,0,1-1.38,1.39c-.46-.1-.73-.51-1.08-.78a1.57,1.57,0,0,0-1.2-.33,2.27,2.27,0,0,0-1.77,1.75c-.29,1-.11,2.08-.54,3-.2.45.46.83.66.39Z"/><path class="cls-21" d="M1191.39,101.53c1,.07,2.29-.54,3.18.14.44.34.31.75.15,1.21a1.66,1.66,0,0,0,0,1.31,3.34,3.34,0,0,0,2.06,1.46,2,2,0,0,0,1.53.07,1.14,1.14,0,0,0,.69-1.11c0-.48-.81-.48-.76,0,.11,1-1.88.08-2.26-.16a1.26,1.26,0,0,1-.64-.79c-.06-.43.26-.86.31-1.28a1.71,1.71,0,0,0-1.31-1.66c-1-.31-2,.12-2.95,0-.49,0-.49.73,0,.76Z"/><path class="cls-21" d="M1231,108.05a4.55,4.55,0,0,1,2.17-2,.85.85,0,0,1,1.18.4,2.72,2.72,0,0,0,1,1,3.23,3.23,0,0,0,2.77.28,1.76,1.76,0,0,0,1-2.16c-.18-.45-.92-.26-.73.2a1,1,0,0,1-.32,1.12,1.81,1.81,0,0,1-1.47.22,2.6,2.6,0,0,1-1.27-.61c-.34-.31-.46-.78-.85-1a2.1,2.1,0,0,0-2.28.28,6.1,6.1,0,0,0-1.86,2,.38.38,0,0,0,.66.38Z"/><g class="cls-11"><path d="M887.65,158.42a10.32,10.32,0,0,1-4-4.5,17.55,17.55,0,0,1,0-13.82,10.38,10.38,0,0,1,4-4.5,11.94,11.94,0,0,1,6.23-1.57,13.31,13.31,0,0,1,4.55.77,11.2,11.2,0,0,1,3.73,2.22,1.67,1.67,0,0,1,.58,1.26,1.39,1.39,0,0,1-.29.88.83.83,0,0,1-.69.38,2,2,0,0,1-1-.4,13.11,13.11,0,0,0-3.33-2,9.61,9.61,0,0,0-3.44-.58,7.88,7.88,0,0,0-6.42,2.72q-2.25,2.73-2.25,7.72c0,3.34.75,5.92,2.25,7.76a7.88,7.88,0,0,0,6.42,2.72,9.46,9.46,0,0,0,3.42-.58,12.94,12.94,0,0,0,3.35-2,2.17,2.17,0,0,1,1-.39.85.85,0,0,1,.69.36,1.41,1.41,0,0,1,.29.9,1.65,1.65,0,0,1-.58,1.26,10.86,10.86,0,0,1-3.73,2.21,13.08,13.08,0,0,1-4.55.78A11.94,11.94,0,0,1,887.65,158.42Z"/><path d="M928.87,158.62a1.11,1.11,0,0,1-.41.9,1.45,1.45,0,0,1-1,.36,1.26,1.26,0,0,1-1.26-.87l-2.56-5.83H910.08L907.49,159a1.26,1.26,0,0,1-1.26.87,1.49,1.49,0,0,1-1-.38,1.19,1.19,0,0,1-.43-.92,1.41,1.41,0,0,1,.14-.57l10.3-22.9a1.61,1.61,0,0,1,.65-.76,1.93,1.93,0,0,1,.93-.25,1.77,1.77,0,0,1,1,.27,1.72,1.72,0,0,1,.65.74l10.3,22.9A1.43,1.43,0,0,1,928.87,158.62Zm-17.71-7.89h11.41l-5.72-12.92Z"/><path d="M952.67,158.69a1.07,1.07,0,0,1-.42.88,1.4,1.4,0,0,1-1,.34,1.47,1.47,0,0,1-1.3-.72l-4.82-7.63a5.8,5.8,0,0,0-1.94-2,5.74,5.74,0,0,0-2.74-.56h-4.54v9.4a1.51,1.51,0,0,1-.39,1.09,1.33,1.33,0,0,1-1,.42,1.42,1.42,0,0,1-1.08-.42,1.51,1.51,0,0,1-.39-1.09V135.76a1.46,1.46,0,0,1,.41-1,1.54,1.54,0,0,1,1.1-.39h8.93c2.76,0,4.86.61,6.32,1.83a7.73,7.73,0,0,1,.43,10.26,8,8,0,0,1-5,2.24,4.45,4.45,0,0,1,1.62.93,8.32,8.32,0,0,1,1.44,1.8l4.11,6.48A1.56,1.56,0,0,1,952.67,158.69Zm-9.42-12.17a6.72,6.72,0,0,0,4.41-1.22,4.55,4.55,0,0,0,1.45-3.71,4.44,4.44,0,0,0-1.44-3.64,6.91,6.91,0,0,0-4.42-1.18H936v9.75Z"/><path d="M958.16,159.3a1.38,1.38,0,0,1-.42-1V135.8a1.43,1.43,0,0,1,.42-1.05,1.54,1.54,0,0,1,1.1-.39h13.46a1.5,1.5,0,0,1,1,.32,1.3,1.3,0,0,1,0,1.8,1.46,1.46,0,0,1-1,.33H960.66v8.82H972a1.45,1.45,0,0,1,1,.32,1.3,1.3,0,0,1,0,1.8,1.45,1.45,0,0,1-1,.32H960.66v9.17h12.06a1.49,1.49,0,0,1,1,.31,1.32,1.32,0,0,1,0,1.81,1.46,1.46,0,0,1-1,.33H959.25A1.51,1.51,0,0,1,958.16,159.3Z"/><path d="M979.11,159.3a1.38,1.38,0,0,1-.42-1V135.8a1.43,1.43,0,0,1,.42-1.05,1.54,1.54,0,0,1,1.1-.39h13.46a1.5,1.5,0,0,1,1,.32,1.3,1.3,0,0,1,0,1.8,1.46,1.46,0,0,1-1,.33H981.61v8.82H993a1.45,1.45,0,0,1,1,.32,1.3,1.3,0,0,1,0,1.8,1.45,1.45,0,0,1-1,.32H981.61v9.17h12.06a1.49,1.49,0,0,1,1,.31,1.32,1.32,0,0,1,0,1.81,1.46,1.46,0,0,1-1,.33H980.25A1.46,1.46,0,0,1,979.11,159.3Z"/><path d="M1019.25,158.69a1.07,1.07,0,0,1-.42.88,1.4,1.4,0,0,1-1,.34,1.47,1.47,0,0,1-1.3-.72l-4.82-7.63A4.75,4.75,0,0,0,1007,149h-4.54v9.4a1.51,1.51,0,0,1-.39,1.09,1.38,1.38,0,0,1-1,.42,1.42,1.42,0,0,1-1.08-.42,1.51,1.51,0,0,1-.39-1.09V135.76a1.39,1.39,0,0,1,.41-1,1.54,1.54,0,0,1,1.1-.39h8.93c2.76,0,4.87.61,6.31,1.83a6.65,6.65,0,0,1,2.18,5.4,6.73,6.73,0,0,1-1.74,4.86,8,8,0,0,1-5,2.24,4.45,4.45,0,0,1,1.62.93,8.32,8.32,0,0,1,1.44,1.8l4.1,6.48A1.55,1.55,0,0,1,1019.25,158.69Zm-9.44-12.17a6.72,6.72,0,0,0,4.41-1.22,4.54,4.54,0,0,0,1.46-3.71,4.44,4.44,0,0,0-1.44-3.64,6.9,6.9,0,0,0-4.43-1.18h-7.27v9.75Z"/><path d="M1027.25,159.18a10.54,10.54,0,0,1-3.94-2.18,1.66,1.66,0,0,1-.54-1.26,1.33,1.33,0,0,1,.29-.88.85.85,0,0,1,.68-.38,1.79,1.79,0,0,1,1,.39,12.13,12.13,0,0,0,7.63,2.6,8,8,0,0,0,4.75-1.19,3.89,3.89,0,0,0,1.66-3.39,2.73,2.73,0,0,0-.79-2,5.69,5.69,0,0,0-2.09-1.24,32.33,32.33,0,0,0-3.49-1,34.18,34.18,0,0,1-4.85-1.44,7.68,7.68,0,0,1-3.06-2.16,5.56,5.56,0,0,1-1.17-3.68,6.54,6.54,0,0,1,1.17-3.83,7.65,7.65,0,0,1,3.28-2.59,12,12,0,0,1,4.81-.92,14.11,14.11,0,0,1,4.69.77,10,10,0,0,1,3.66,2.22,1.75,1.75,0,0,1,.57,1.26,1.38,1.38,0,0,1-.28.88.86.86,0,0,1-.69.38,2.08,2.08,0,0,1-1-.4,12.39,12.39,0,0,0-3.28-2,10.16,10.16,0,0,0-3.63-.58,7.67,7.67,0,0,0-4.65,1.24,4.12,4.12,0,0,0-1.73,3.44,3.2,3.2,0,0,0,1.45,2.86,14.85,14.85,0,0,0,4.49,1.67,49.41,49.41,0,0,1,5.14,1.46,7.65,7.65,0,0,1,3.12,2,5,5,0,0,1,1.24,3.56,6.14,6.14,0,0,1-1.17,3.75,7.58,7.58,0,0,1-3.29,2.52,12.23,12.23,0,0,1-4.86.9A16.48,16.48,0,0,1,1027.25,159.18Z"/></g></g></g></svg>