<svg xmlns="http://www.w3.org/2000/svg" viewBox="0 0 1918.09 442.71"><defs><style>.cls-1{fill:#d9d9e2;}.cls-2{fill:#e5e5ea;}.cls-3{fill:#eeedef;}.cls-4{fill:#fff;}.cls-5{fill:#f7b634;}.cls-6{fill:#efb670;}.cls-7{opacity:0.92;}.cls-8{fill:#e0dfde;}.cls-13,.cls-9{opacity:0.14;}.cls-10,.cls-13{fill:#0097cf;}.cls-11{opacity:0.5;}.cls-12{opacity:0.54;}.cls-13{isolation:isolate;}.cls-14{fill:#1bbfbf;}.cls-15,.cls-22,.cls-24,.cls-29,.cls-31{fill:none;stroke-miterlimit:10;}.cls-15{stroke:#4ca5a2;stroke-linecap:round;stroke-width:1.94px;}.cls-16{fill:#ecbc4f;}.cls-17{fill:#e8792e;}.cls-18{fill:#f47f31;}.cls-19{fill:#ffaeab;}.cls-20{fill:#09090b;}.cls-21{fill:#123c5e;}.cls-22,.cls-29{stroke:#09090b;}.cls-22{stroke-width:0.75px;}.cls-23{fill:#f9927d;}.cls-24{stroke:#364056;}.cls-25{fill:#364056;}.cls-26{fill:#0fa8ba;}.cls-27{fill:#faaeb0;}.cls-28{fill:#ff7133;}.cls-29{stroke-width:0.77px;}.cls-30{fill:#ffb1a5;}.cls-31{stroke:#283045;}.cls-32{fill:#283045;}</style></defs><title>careers_4</title><g id="Layer_2" data-name="Layer 2"><g id="Layer_1-2" data-name="Layer 1"><g id="Layer_1-2-2" data-name="Layer 1-2"><path class="cls-1" d="M.28,288.57s352.44,27.87,429.5,0c117.86-42.64,292.15-27.88,429.92,26.24,131,51.45,254,3.28,310.41-18s259-36.08,456.47,29.52,291.09-3.08,291.09-3.08l.42,119.45H.32Z"/><path class="cls-2" d="M0,279.33s226.62-45.84,391.18,24.28c130.4,55.56,369,32.07,492-7.07S1280,269.77,1373.52,324.8c74.8,44,195.55,48.49,269.27,11.42,117.48-59.08,274.55-13.28,274.55-13.28l.41,119.44L0,442.71Z"/><path class="cls-3" d="M770.85.76h397.63a17.17,17.17,0,0,1,17.14,17.18V268.33a23.33,23.33,0,0,1-23.31,23.34H777a23.33,23.33,0,0,1-23.32-23.34h0V17.94A17.17,17.17,0,0,1,770.85.76Z"/><rect class="cls-4" x="775.84" y="25.56" width="387.66" height="244.54"/><path class="cls-5" d="M771.93,0h395.43a18.46,18.46,0,0,1,18.45,18.47v13H753.47v-13A18.46,18.46,0,0,1,771.92,0Z"/><circle class="cls-3" cx="1135.76" cy="17.31" r="2.9"/><circle class="cls-3" cx="1145.88" cy="17.31" r="2.9"/><circle class="cls-3" cx="1155.6" cy="17.31" r="2.9"/><path class="cls-6" d="M800.07,287.23a29.22,29.22,0,0,1,6.56,1.1c2.34.57,4.67,1.16,7,1.82,4.68,1.34,9.21,3.08,13.78,4.76a38.29,38.29,0,0,1,7,3.48c.12.07,0,.26-.09.19a35.92,35.92,0,0,0-6-3.13c-2.29-.88-4.6-1.72-6.89-2.57a123.32,123.32,0,0,0-13.69-4.15,35.53,35.53,0,0,0-7.58-1.4c-.06,0-.07-.1,0-.1Z"/><g class="cls-7"><path class="cls-8" d="M854.44,295.67a53.87,53.87,0,0,0,2-21.82,34.06,34.06,0,0,0-9.36-19.68,59.14,59.14,0,0,0-6.42-5.29c-5.74-4.31-11.5-8.62-17.42-12.71-4.63-3.21-9.5-6.43-12.45-11.14a100.76,100.76,0,0,0,2.09,19.67,43,43,0,0,0,3.8,11.48c2.9,5.44,7.54,9.77,11.85,14.26A153.81,153.81,0,0,1,842.31,287a33.88,33.88,0,0,0,4.17,5.16,16.33,16.33,0,0,0,7.7,4"/><g class="cls-9"><path class="cls-10" d="M829.36,257.48a95,95,0,0,1,14.84,6.22,37.08,37.08,0,0,1,10.87,8.74c.52.65,1,1.31,1.46,2a53.83,53.83,0,0,1-2.1,21.22l-.26.51a16.34,16.34,0,0,1-7.69-4A34.47,34.47,0,0,1,842.3,287a154.32,154.32,0,0,0-13.75-16.55c-4.31-4.49-9-8.82-11.85-14.26a33.56,33.56,0,0,1-1.62-3.62,70.15,70.15,0,0,1,6.78,2.29C824.34,255.75,826.85,256.61,829.36,257.48Z"/></g><g class="cls-11"><path class="cls-10" d="M815.14,235.67c3.84,8.47,10.79,15.11,17.25,21.74a109.46,109.46,0,0,1,9.11,10.26A69.91,69.91,0,0,1,849,280a66.9,66.9,0,0,1,5.25,15.77c.06.28-.38.42-.44.14a70.78,70.78,0,0,0-11.9-27c-5.45-7.5-12.58-13.61-18.65-20.62A50.89,50.89,0,0,1,815,235.67c0-.1.12-.14.16,0Z"/></g></g><g class="cls-7"><path class="cls-8" d="M853.3,308.37c-2-8.23-5.92-15.53-12.57-21-4.15-3.43-9-6.06-13-9.68-6.29-5.75-10-13.62-15.44-20.09-7.41-8.72-17.76-14.54-27.88-20.17,10.34,13.8,12,32.44,22.87,45.87,8.92,11,23,17.08,36.89,20.94,3.26.9,6.72,1.81,9.08,4.16"/><g class="cls-12"><path class="cls-10" d="M791.34,244.78c9.66,6,15.39,15.94,21.39,25.07a86,86,0,0,0,10.39,13.49,40,40,0,0,0,6.59,5.45c2.68,1.75,5.64,3.08,8.38,4.75a49.31,49.31,0,0,1,15,14c.16.24-.22.44-.39.22a54.12,54.12,0,0,0-13.66-13c-2.68-1.75-5.59-3.1-8.34-4.75a39,39,0,0,1-6.42-4.88c-8.18-7.64-13.1-17.8-19.54-26.72-3.71-5.14-8-10-13.44-13.43a.08.08,0,0,1-.06-.1.09.09,0,0,1,.1-.06l0,0Z"/></g><path class="cls-13" d="M799.88,260.33c3.62,2.35,6,6,8.08,9.76s3.87,7.61,6.7,10.8a23.49,23.49,0,0,0,17.42,7.66c3.11,0,6.23-.64,9.31-.57,6.24,5.42,10,12.49,11.9,20.44-2.36-2.35-5.83-3.25-9.08-4.16-14-3.86-28-9.92-36.9-20.94-5.91-7.31-9.1-16.16-12.44-24.94A13.54,13.54,0,0,1,799.88,260.33Z"/></g><path class="cls-5" d="M834.39,298.44c-10.53-6.38-20.89-12.8-33.28-13.94a14.24,14.24,0,0,0-7.17.79c-.73.33-1.49.91-1.46,1.69a1.67,1.67,0,0,0,.38.93c1.06,1.43,3,1.87,4.85,2.16,12.45,2,25.57,2.53,36.61,8.41"/><path class="cls-5" d="M850.3,297.27a82.35,82.35,0,0,0-38.45-29.58c-3.31-1.26-6.85-2.33-10.38-1.92-1.33.15-3,1-2.63,2.25a2.21,2.21,0,0,0,.73,1,22.91,22.91,0,0,0,7.41,4,208.86,208.86,0,0,1,23.41,10.25,102.63,102.63,0,0,1,19.91,14"/><path class="cls-6" d="M804.51,268a201.13,201.13,0,0,1,19.71,8.55,84.93,84.93,0,0,1,9.07,5.43c3,2.1,6,4.38,8.8,6.7a33.65,33.65,0,0,1,4.06,3.58c1.16,1.32,2.18,2.75,3.39,4,.1.1,0,.26-.14.16-1-1.08-1.91-2.26-2.86-3.4a21,21,0,0,0-1.56-1.7c-.6-.56-1.27-1.07-1.91-1.59-2.84-2.32-5.69-4.61-8.68-6.75a104.05,104.05,0,0,0-18.81-10.36c-3.66-1.61-7.38-3.1-11.1-4.61V268Z"/><path class="cls-5" d="M851.55,293.87c-4.11-6.23-8.23-12.51-11.18-19.33-2.28-5.31-3.92-11.07-7.84-15.41a4.13,4.13,0,0,0-2.6-1.59,2.91,2.91,0,0,0-2.57,1.47,5.1,5.1,0,0,0-.6,2.94c.15,3.11,1.78,5.94,3.46,8.59,5.51,8.65,9.64,16.65,21.33,23.33"/><path class="cls-6" d="M831.36,264.19c4.07,8.08,8.36,16.15,14.21,23.19.84,1,1.69,2,2.59,2.95s1.89,1.88,2.83,2.83c.09.08,0,.22-.12.14a44.55,44.55,0,0,1-4.81-5,66.08,66.08,0,0,1-4.18-5.41A111.46,111.46,0,0,1,834.77,271c-1.19-2.26-2.34-4.54-3.48-6.83,0,0,0-.06.07,0Z"/><path class="cls-14" d="M1378.9,322.9c-4.89-17.17-22.16-54.75-41.79-52.58-22.62,2.5,22.19,43.52,22.19,43.52s-31.35-24.19-42.67-10.14,38.46,23,38.46,23-26.2-5.45-23.6,5,46.29,7.45,49.33,17.49S1382.24,334.68,1378.9,322.9Z"/><path class="cls-15" d="M1380.74,345c-4.28-18.22-12.08-35.89-23.47-50.78a105.3,105.3,0,0,0-14-15.11"/><path class="cls-15" d="M1380.45,345.33c-11.85-19.67-32-34-54.32-37.69"/><path class="cls-15" d="M1380.2,345.48c-10.72-8.73-24.35-13.23-38-14.2"/><path class="cls-14" d="M1385.87,322.08c4.88-17.18,22.16-54.75,41.78-52.59,22.63,2.5-22.17,43.53-22.17,43.53s31.34-24.2,42.66-10.15-38.47,23-38.47,23,26.2-5.45,23.6,5-46.27,7.44-49.33,17.49S1382.53,333.85,1385.87,322.08Z"/><path class="cls-15" d="M1384,344.18c4.29-18.22,12.08-35.88,23.46-50.78a106.52,106.52,0,0,1,14-15.11"/><path class="cls-15" d="M1384.31,344.5c11.86-19.67,32-34,54.34-37.69"/><path class="cls-15" d="M1384.57,344.65c10.73-8.73,24.34-13.23,38-14.2"/><path class="cls-14" d="M1370.26,305.5c-4.45-26.62-6.2-88,18.75-94.23,28.76-7.19-.58,72.11-.58,72.11s23.24-49.1,45.3-34.6-32.5,50.85-32.5,50.85,28.29-20.14,31.42-4.14-51.29,32.49-48.94,48.15S1373.29,323.75,1370.26,305.5Z"/><path class="cls-15" d="M1381.3,337.65c-5.78-27.81-7-56.51-2.21-83a149.4,149.4,0,0,1,7.82-28"/><path class="cls-15" d="M1381.83,338c2.48-33.46,18.17-63.36,42.83-79.11"/><path class="cls-15" d="M1382.23,338.06c7.68-17.44,21.39-30.27,37.29-38.14"/><path class="cls-16" d="M580.52,294.85c.55-6.24-8.3-4.33-11.57-2.4-6.38,3.77-16.33,15.79-18.34,19.66-.09-1.52-.22-3-.4-4.56-.33-2.83-.67-5.65-1-8.48,4.19-1.36,13.26-3.79,20.52-15.07,1.22-1.89,2.67-4.52,1.59-6.77-1.51-3.13-4.23-.68-5.92.92-2.87,2.73-12.07,12.77-16.62,17.2-.65-5.66-1.29-11.32-2-17,7.47-4.09,16.51-9.11,19.69-17.59,2.08-5.55-4.13-5.3-7.31-3.4-5.69,3.4-10.06,9.66-13,15.94-.32-2.66-.66-5.31-1-8-.07-.48-.13-1-.19-1.43,3.84-1.69,7.72-2.92,10.86-5.92a16.7,16.7,0,0,0,4.75-11.27c.1-1.85.5-4.08-.79-5.68-1.81-2.23-3.09.79-4,2.5a114.38,114.38,0,0,1-6.46,10.6c-1.28,1.86-2.43,3.65-3.49,5.56a19.3,19.3,0,0,1-1.23,1.73c-.54-3.77-1.16-7.55-1.85-11.3,5.16-5,11.37-11.13,12.05-18.74.45-5-4.55-3.4-6.72-1.13-3.35,3.52-5.42,8.55-6.56,13.6-.33-1.63-.68-3.26-1-4.88,4-7.45,9-16.62,7-25.36-1.28-5.55-6.21-2-7.8,1.28a28,28,0,0,0-2.51,10.6l-.6-2.17c-.49-1.73-1-3.42-1.65-5.09,4.22-5.86,9.33-13,8.67-20.65-.43-5-5.09-2.54-6.82.07-2.76,4.14-3.9,9.63-4.1,14.9-1.06-2.48-2.21-4.92-3.4-7.34,2.68-5.26,5.87-11.64,4.38-17.71-1-4-4.43-1.42-5.5.91a23,23,0,0,0-1.56,11.47c-1.35-2.63-2.7-5.26-4-7.92.33-2.64.45-5.45.51-7.89.06-2.89-.31-6.11-2.71-8.09-3.15-2.6-5.74-1.1-6.32,2.78a9.51,9.51,0,0,0,.69,5,8,8,0,0,0-4.15-1.53,2.78,2.78,0,0,0-2.64,1.14c-.75,1.2-.33,3.14.73,4.67,1.88,2.71,5.12,4.17,7.8,5.93a21.27,21.27,0,0,1,2.35,1.88c1,.94,2,1.93,3.05,2.79.9,1.73,1.78,3.46,2.65,5.21h0c-3.25-3.59-7.43-6.88-11.93-8-2.49-.6-6.65.5-4.14,3.75,4,5.21,11.55,6.57,17.48,7.79l.26-.19c.39.81.78,1.61,1.16,2.43l.07.12a109.11,109.11,0,0,1,5.13,12.82h0a19.32,19.32,0,0,0-3.86-3c-2.53-1.47-7.43-1.61-5.74,2.74,2.18,5.6,7.59,9.22,12.79,12.11,1.43,5.92,2.68,11.91,3.75,17.91-2.54-5.15-6.22-10.2-11-13-2.71-1.57-8-1.72-6.15,2.95,2.91,7.49,11.24,11.68,17.75,15.16l.2-.06h0c.46,2.82.87,5.66,1.25,8.48.18,1.39.36,2.78.53,4.17h0c-3.34-7-8.16-14.1-14.29-18-3.5-2.22-10.24-2.52-7.83,4,3.84,10.37,14.53,16.3,23,21.22h0c.45,3.95.86,7.91,1.29,11.86-5.08-5.32-14.92-17-18.41-20.45-1.63-1.64-5.88-5-7.55-1.46-.92,2,.84,6.15,2,7.9,2.46,3.9,15.31,14.32,24.71,20.11h0c.33,2.81.67,5.61,1.05,8.41.14,1,.26,2.07.37,3.1-6.82-8.53-21.23-24.28-26.08-26.66-2.46-1.21-6.8-2.56-8.67.27s2,6.48,3.54,8.77c3.57,5.28,20,16.68,23.36,18.35,2.59,1.29,5.57,2.07,8.17,3.2a.29.29,0,0,1,0,.13c.15,2.33.22,4.63.22,6.93l-.44-.28c-7.49-4.88-22.77-16.22-28-19.44-2.42-1.49-8.45-4.36-9.46.38-.54,2.62,2.74,7.13,4.56,8.91,3.76,3.71,20,11.67,32.55,16.21l.69.23c-.23,7.48-.82,14.93-1,22.65-.06,2.33,3.57,2.63,3.62.29.26-11.15,1.69-21.91,1.2-32.95C563.41,310.91,580.33,297.68,580.52,294.85Z"/><path class="cls-17" d="M591.45,332c3.19-3.36-2.81-6.34-5.6-6.73-5.44-.76-16.72,1.61-19.67,2.93.65-.92,1.27-1.86,1.88-2.83,1.1-1.79,2.22-3.58,3.34-5.35a25.34,25.34,0,0,0,18.81.74c1.58-.54,3.63-1.39,4-3.19.57-2.51-2.14-2.35-3.85-2.2-2.92.26-12.87,1.82-17.54,2.3,2.23-3.58,4.47-7.15,6.68-10.74,6.21,1.08,13.75,2.34,19.49-1.11,3.76-2.25,0-5-2.66-5.33-4.87-.66-10.27.95-14.87,3.24,1-1.7,2.07-3.39,3.09-5.09.18-.3.36-.61.55-.91,3,.79,5.81,1.87,9,1.58A12.27,12.27,0,0,0,602,295c.92-1,2.18-2.13,2.16-3.65,0-2.12-2.15-1-3.46-.4a84.6,84.6,0,0,1-8.62,3.16c-1.6.49-3.08,1-4.58,1.61a11.74,11.74,0,0,1-1.51.43c1.42-2.43,2.8-4.89,4.13-7.4,5.3-.52,11.71-1.19,15.61-5.28,2.55-2.69-1.08-4.07-3.38-3.75a21.26,21.26,0,0,0-10,4.84c.55-1.09,1.1-2.2,1.64-3.3,5.72-2.49,12.85-5.48,15.7-11.47,1.81-3.81-2.7-4-5.1-2.86a20.58,20.58,0,0,0-6.35,5c.22-.51.44-1,.65-1.54.52-1.23,1-2.46,1.4-3.7,5.14-1.45,11.38-3.23,14.52-8,2-3.09-1.77-3.82-4-3.11-3.5,1.13-6.68,3.78-9.22,6.74q.8-2.9,1.41-5.82c4-1.81,8.75-4,10.69-8.23,1.25-2.76-1.92-2.87-3.62-2a16.92,16.92,0,0,0-6.17,5.92c.43-2.15.85-4.29,1.31-6.44,1.4-1.38,2.76-2.95,3.92-4.34,1.37-1.64,2.64-3.68,2.16-5.93-.63-3-2.82-3.28-5-1.31a7,7,0,0,0-1.9,3.23,6.1,6.1,0,0,0-1.7-2.8,2.07,2.07,0,0,0-2.06-.55c-1,.34-1.64,1.66-1.73,3-.16,2.43,1,4.77,1.79,7a12.39,12.39,0,0,1,.49,2.17c.16,1,.28,2,.49,3-.28,1.42-.57,2.83-.86,4.24h0c-.23-3.57-1.14-7.41-3.23-10.12-1.17-1.5-4.09-2.78-4.13.26-.07,4.87,3.67,9.13,6.53,12.57h.3c-.14.65-.29,1.29-.44,1.94v.1a81.13,81.13,0,0,1-2.92,9.8h0a14.61,14.61,0,0,0-.86-3.52c-.78-2-3.56-4.35-4.58-1-1.32,4.24.15,8.84,1.83,12.9-1.9,4.09-3.93,8.14-6.06,12.11.89-4.15,1.09-8.78-.38-12.55-.85-2.16-3.82-4.67-4.92-1.13-1.76,5.68,1.13,11.95,3.3,17l.15.05h0q-1.56,2.77-3.18,5.49L580.6,300h0c1.37-5.7,1.84-12,.08-17.12-1-2.9-4.76-6.18-6.36-1.31-2.54,7.77.92,16.14,3.53,22.86h0l-4.72,7.46c-.49-5.42-.83-16.7-1.25-20.33-.18-1.7-1.08-5.63-3.69-4.33-1.45.72-2.35,4-2.51,5.47-.37,3.39,2.27,15.35,5,23h0c-1.12,1.77-2.2,3.55-3.27,5.35-.39.67-.8,1.32-1.21,2,0-8.08-1.12-23.85-2.83-27.46-.87-1.84-2.76-4.62-5.15-3.84s-1.83,4.67-2,6.71c-.36,4.7,3.93,18.89,5.09,21.39.91,2,2.26,3.77,3.26,5.63l-.06.08q-1.49,2.12-3,4.11a1.49,1.49,0,0,0-.13-.37c-2.1-6.28-5.73-19.89-7.25-24.16-.72-2-2.9-6.42-5.66-4.14-1.53,1.27-1.7,5.39-1.46,7.26.47,3.89,6.18,16,11.39,24.4l.29.46c-3.57,4.22-7.34,8.26-11,12.65-1.11,1.32.86,3.17,2,1.84,5.27-6.34,11.05-11.91,15.85-18.53C574.15,333.41,590,333.52,591.45,332Z"/><g class="cls-7"><path class="cls-8" d="M545.23,333c.85-9.08.42-18.39-2.32-27.09s-7.88-16.79-15.25-22.15A72,72,0,0,0,519,278.6c-7.7-4.09-15.42-8.18-23.27-12-6.14-3-12.57-5.91-17.07-11.07a129.92,129.92,0,0,0,6.72,23.62,54.69,54.69,0,0,0,7,13.27c4.58,6,11,10.4,17,15a191.24,191.24,0,0,1,19.77,17.42,43,43,0,0,0,6,5.45,19.26,19.26,0,0,0,9.94,3.36"/><g class="cls-9"><path class="cls-10" d="M507.41,291.41A110.15,110.15,0,0,1,526.27,296,44.74,44.74,0,0,1,541,304.47c.76.68,1.48,1.4,2.16,2.14A69.74,69.74,0,0,1,545.22,333l-.2.67a19.36,19.36,0,0,1-9.94-3.36,42.49,42.49,0,0,1-6-5.45,191.24,191.24,0,0,0-19.77-17.42c-6-4.61-12.45-9-17-15a37.22,37.22,0,0,1-2.69-4.11c2.85.27,5.65.87,8.47,1.42C501.18,290.32,504.31,290.85,507.41,291.41Z"/></g><g class="cls-11"><path class="cls-10" d="M486,267.65c6.34,9.57,16,16.27,25,23.06a136.75,136.75,0,0,1,13,10.67A89,89,0,0,1,535.45,315,86.31,86.31,0,0,1,545,333.21c.12.33-.36.59-.49.26a90.17,90.17,0,0,0-19.84-30.55c-8-8.05-17.76-14.07-26.42-21.4a63.44,63.44,0,0,1-12.47-13.74c-.06-.11.11-.2.18-.09Z"/></g></g><g class="cls-7"><path class="cls-8" d="M546.63,348.74c-4.12-9.66-10.32-17.78-19.34-23.14-5.64-3.35-11.89-5.57-17.34-9.2-8.64-5.74-14.68-14.62-22.53-21.4-10.59-9.15-24.05-14.15-37.18-19,15.15,14.76,21.14,37.22,36.83,51.41,12.9,11.66,30.7,16.2,47.95,18.07,4,.44,8.31.84,11.59,3.23"/><g class="cls-12"><path class="cls-10" d="M459.94,283.64c12.67,5.37,21.57,16.35,30.6,26.29a106.79,106.79,0,0,0,15.15,14.38,48.48,48.48,0,0,0,8.93,5.31c3.54,1.59,7.31,2.61,10.9,4.1a60,60,0,0,1,20.62,14c.24.25-.16.58-.4.34a66.42,66.42,0,0,0-18.9-13.16c-3.54-1.59-7.25-2.64-10.84-4.1a46.23,46.23,0,0,1-8.62-4.65c-11.29-7.67-19.28-19.09-28.78-28.68C473.12,292,467,287,459.87,283.82a.1.1,0,0,1,0-.14A.12.12,0,0,1,459.94,283.64Z"/></g><path class="cls-13" d="M473.35,300.92c4.76,2.13,8.41,6.15,11.63,10.28s6.19,8.52,10.22,11.84a27.71,27.71,0,0,0,22.17,5.8c3.65-.66,7.18-2.06,10.84-2.6,8.52,5.36,14.44,13.24,18.41,22.56-3.28-2.39-7.56-2.78-11.59-3.22-17.27-1.88-35.07-6.42-47.95-18.07-8.54-7.73-14.21-17.9-20-27.95A15.8,15.8,0,0,1,473.35,300.92Z"/></g><path class="cls-18" d="M522.22,340.47c-13.77-5.66-27.36-11.39-42.21-10.25-2.89.22-5.89.75-8.27,2.43-.79.55-1.56,1.42-1.36,2.36a2.13,2.13,0,0,0,.65,1.06c1.56,1.54,4,1.66,6.19,1.65,15.09-.09,30.66-2.13,44.95,2.81"/><path class="cls-6" d="M479.44,333.77a33.37,33.37,0,0,1,8,0c2.87.21,5.75.46,8.61.8,5.8.68,11.52,1.88,17.24,3a44.89,44.89,0,0,1,9,2.82c.16.07.08.32-.07.25a42.44,42.44,0,0,0-7.77-2.59c-2.88-.61-5.77-1.16-8.66-1.73a144.88,144.88,0,0,0-17-2.29,41.2,41.2,0,0,0-9.22-.15c-.08,0-.11-.11,0-.12Z"/><path class="cls-18" d="M540.7,335.78A99.47,99.47,0,0,0,489,307.47c-4.16-.86-8.55-1.45-12.63-.23-1.53.45-3.28,1.85-2.61,3.3a2.8,2.8,0,0,0,1.08,1.08c2.84,1.88,6.26,2.63,9.59,3.36,10,2.18,20.08,4.35,29.77,7.75a123.21,123.21,0,0,1,26.47,13"/><path class="cls-6" d="M480.44,309.38a234.45,234.45,0,0,1,25,6.42,100.47,100.47,0,0,1,11.92,4.78c4,1.95,7.94,4.15,11.8,6.41a40.24,40.24,0,0,1,5.56,3.54c1.66,1.37,3.16,2.92,4.86,4.24.13.1,0,.33-.13.23-1.44-1.11-2.73-2.38-4.1-3.57a23.36,23.36,0,0,0-2.21-1.76c-.83-.57-1.73-1.05-2.6-1.56-3.83-2.25-7.69-4.47-11.66-6.47a123.13,123.13,0,0,0-24.4-8.84c-4.65-1.22-9.35-2.28-14-3.36-.05,0,0-.07,0-.06Z"/><path class="cls-18" d="M541.44,331.37c-6.18-6.78-12.4-13.61-17.33-21.35-3.85-6-7-12.74-12.56-17.24a5,5,0,0,0-3.41-1.41,3.43,3.43,0,0,0-2.72,2.32,6.63,6.63,0,0,0-.07,3.72c.85,3.77,3.38,6.9,5.94,9.79,8.35,9.45,15,18.39,30.15,24.17"/><path class="cls-6" d="M511.26,299.2c6.53,9.05,13.33,18,21.73,25.46,1.2,1.06,2.44,2.09,3.71,3.07s2.62,1.92,3.93,2.88c.12.09,0,.28-.12.2a53,53,0,0,1-6.74-5.1,82.75,82.75,0,0,1-6.08-5.76,140.71,140.71,0,0,1-10.94-13.07q-2.84-3.78-5.56-7.63c-2.74-3.85,0-.09.07-.05Z"/><path class="cls-14" d="M1130.07,299.75c7-15.46,14.16-30.69,13.25-47.55-.18-3.29-.72-6.7-2.62-9.44-.63-.91-1.62-1.81-2.73-1.61a2.55,2.55,0,0,0-1.27.71c-1.85,1.73-2.07,4.48-2.11,7-.34,17.1,1.62,34.8-4.59,50.82"/><path class="cls-6" d="M1139.42,245.88a36.14,36.14,0,0,1,.13,9c-.19,3.27-.42,6.53-.77,9.78-1.34,12.76-1,7.83-3.23,19.6a50,50,0,0,1-3.17,10.2c-.07.17-.37.1-.29-.08a47.52,47.52,0,0,0,2.91-8.85c.66-3.28,1.26-6.57,1.89-9.85a159.07,159.07,0,0,0,2.37-19.34c.22-3.46.61-7,0-10.46,0-.08.12-.12.14,0Z"/><path class="cls-18" d="M1128.6,303a111.91,111.91,0,0,0,34.75-57.78c1.13-4.7,1.93-9.65.63-14.31-.49-1.74-2.08-3.76-3.81-3a3.33,3.33,0,0,0-1.3,1.2c-2.29,3.17-3.27,7-4.22,10.77-2.85,11.31-5.69,22.65-10,33.53A137.94,137.94,0,0,1,1128.6,303"/><path class="cls-6" d="M1161.35,235.41a263.22,263.22,0,0,1-8.27,28.22,113.32,113.32,0,0,1-6,13.3c-2.4,4.52-5.1,8.89-7.86,13.21a44.06,44.06,0,0,1-4.33,6.19c-1.66,1.85-3.51,3.52-5.11,5.41-.12.14-.39,0-.26-.16,1.33-1.6,2.86-3,4.3-4.55a27.48,27.48,0,0,0,2.13-2.45c.7-.93,1.29-1.93,1.91-2.91,2.75-4.28,5.47-8.59,8-13a136.72,136.72,0,0,0,11.07-27.4c1.57-5.25,3-10.55,4.36-15.84h.08Z"/><path class="cls-14" d="M1133.76,303.91c8.14-6.82,16.34-13.68,25.58-19.05,7.19-4.19,15.16-7.6,20.61-13.77a5.55,5.55,0,0,0,1.77-3.82,4,4,0,0,0-2.66-3.14,8.15,8.15,0,0,0-4.38-.18c-4.44.86-8.19,3.64-11.66,6.45-11.35,9.21-22,16.43-29.26,33.51"/><path class="cls-6" d="M1172.42,270.59c-10.82,7.15-21.58,14.62-30.53,23.93-1.28,1.33-2.53,2.7-3.72,4.11s-2.32,2.93-3.5,4.38c-.1.14-.33,0-.23-.14a60.89,60.89,0,0,1,6.19-7.5c2.19-2.35,4.52-4.6,6.94-6.74a167.45,167.45,0,0,1,15.67-12c3-2.07,6.06-4.09,9.13-6.09,0,0,.1,0,0,.08Z"/><g class="cls-11"><path d="M888.37,157.18a10.38,10.38,0,0,1-4-4.5,17.55,17.55,0,0,1,0-13.82,10.38,10.38,0,0,1,4-4.5,11.79,11.79,0,0,1,6.22-1.57,13.21,13.21,0,0,1,4.54.77,11.14,11.14,0,0,1,3.73,2.22,1.74,1.74,0,0,1,.58,1.26,1.45,1.45,0,0,1-.29.88.86.86,0,0,1-.69.38,2,2,0,0,1-1-.4,13,13,0,0,0-3.32-2,9.39,9.39,0,0,0-3.44-.58,7.84,7.84,0,0,0-6.41,2.72c-1.5,1.81-2.25,4.39-2.25,7.72s.75,5.92,2.25,7.76a7.84,7.84,0,0,0,6.41,2.72,9.76,9.76,0,0,0,3.42-.58,13.34,13.34,0,0,0,3.34-2,2,2,0,0,1,1-.39.87.87,0,0,1,.69.36,1.41,1.41,0,0,1,.29.9,1.74,1.74,0,0,1-.58,1.26,10.86,10.86,0,0,1-3.73,2.21,13,13,0,0,1-4.54.78A12,12,0,0,1,888.37,157.18Z"/><path d="M929.54,157.38a1.18,1.18,0,0,1-.41.9,1.47,1.47,0,0,1-1,.36,1.27,1.27,0,0,1-1.26-.87l-2.56-5.83H910.77l-2.59,5.83a1.26,1.26,0,0,1-1.25.87,1.47,1.47,0,0,1-1-.38,1.14,1.14,0,0,1-.43-.92,1.26,1.26,0,0,1,.14-.57l10.28-22.9a1.56,1.56,0,0,1,.65-.76,1.93,1.93,0,0,1,.93-.25,1.75,1.75,0,0,1,1,.27,1.67,1.67,0,0,1,.65.74l10.29,22.9A1.4,1.4,0,0,1,929.54,157.38Zm-17.69-7.89h11.4l-5.72-12.92Z"/><path d="M953.31,157.45a1.08,1.08,0,0,1-.42.88,1.4,1.4,0,0,1-1,.34,1.48,1.48,0,0,1-1.3-.72l-4.81-7.63a5.89,5.89,0,0,0-1.94-2,5.73,5.73,0,0,0-2.73-.56h-4.54v9.4a1.51,1.51,0,0,1-.39,1.09,1.37,1.37,0,0,1-1,.42,1.42,1.42,0,0,1-1.08-.42,1.61,1.61,0,0,1-.39-1.09V134.52a1.46,1.46,0,0,1,.41-1.05,1.54,1.54,0,0,1,1.1-.39h8.92q4.14,0,6.31,1.83a6.67,6.67,0,0,1,2.17,5.4,6.74,6.74,0,0,1-1.74,4.86,8,8,0,0,1-5,2.24,4.45,4.45,0,0,1,1.62.93,8.63,8.63,0,0,1,1.44,1.8l4.1,6.48A1.56,1.56,0,0,1,953.31,157.45Zm-9.41-12.17a6.86,6.86,0,0,0,4.41-1.22,4.62,4.62,0,0,0,1.45-3.71,4.5,4.5,0,0,0-1.44-3.64,6.87,6.87,0,0,0-4.42-1.18h-7.27v9.75Z"/><path d="M958.79,158.06a1.34,1.34,0,0,1-.41-1v-22.5a1.37,1.37,0,0,1,.41-1.05,1.54,1.54,0,0,1,1.1-.39h13.45a1.52,1.52,0,0,1,1,.32,1.2,1.2,0,0,1,.36.9,1.13,1.13,0,0,1-.36.9,1.46,1.46,0,0,1-1,.33H961.29v8.82h11.33a1.45,1.45,0,0,1,1,.32,1.3,1.3,0,0,1,0,1.8,1.45,1.45,0,0,1-1,.32H961.29V156h12.05a1.51,1.51,0,0,1,1,.31,1.34,1.34,0,0,1,0,1.81,1.46,1.46,0,0,1-1,.33H959.88A1.51,1.51,0,0,1,958.79,158.06Z"/><path d="M979.72,158.06a1.38,1.38,0,0,1-.42-1v-22.5a1.42,1.42,0,0,1,.42-1.05,1.54,1.54,0,0,1,1.1-.39h13.44a1.5,1.5,0,0,1,1,.32,1.31,1.31,0,0,1,0,1.8,1.44,1.44,0,0,1-1,.33h-12v8.82h11.32a1.43,1.43,0,0,1,1,.32,1.29,1.29,0,0,1,0,1.8,1.43,1.43,0,0,1-1,.32H982.22V156h12a1.49,1.49,0,0,1,1,.31,1.32,1.32,0,0,1,0,1.81,1.44,1.44,0,0,1-1,.33h-13.4A1.49,1.49,0,0,1,979.72,158.06Z"/><path d="M1019.81,157.45a1.06,1.06,0,0,1-.42.88,1.38,1.38,0,0,1-1,.34,1.46,1.46,0,0,1-1.3-.72l-4.82-7.63a4.75,4.75,0,0,0-4.67-2.56h-4.54v9.4a1.51,1.51,0,0,1-.39,1.09,1.38,1.38,0,0,1-1,.42,1.39,1.39,0,0,1-1.08-.42,1.51,1.51,0,0,1-.39-1.09V134.52a1.39,1.39,0,0,1,.41-1.05,1.51,1.51,0,0,1,1.09-.39h8.92q4.14,0,6.31,1.83a7.75,7.75,0,0,1,.44,10.26,8,8,0,0,1-5,2.24,4.45,4.45,0,0,1,1.62.93,8.32,8.32,0,0,1,1.44,1.8l4.09,6.48A1.44,1.44,0,0,1,1019.81,157.45Zm-9.43-12.17a6.72,6.72,0,0,0,4.41-1.22,4.55,4.55,0,0,0,1.46-3.71,4.5,4.5,0,0,0-1.44-3.64,6.9,6.9,0,0,0-4.43-1.18h-7.26v9.75Z"/><path d="M1027.8,157.94a10.64,10.64,0,0,1-3.93-2.18,1.66,1.66,0,0,1-.54-1.26,1.33,1.33,0,0,1,.29-.88.82.82,0,0,1,.68-.38,1.78,1.78,0,0,1,1,.39,12.11,12.11,0,0,0,7.62,2.6,8.06,8.06,0,0,0,4.74-1.19,3.89,3.89,0,0,0,1.66-3.39,2.71,2.71,0,0,0-.79-2,5.69,5.69,0,0,0-2.09-1.24,32.16,32.16,0,0,0-3.48-1,34.18,34.18,0,0,1-4.85-1.44,7.67,7.67,0,0,1-3-2.16,5.56,5.56,0,0,1-1.17-3.68,6.54,6.54,0,0,1,1.17-3.83,7.62,7.62,0,0,1,3.27-2.59,12,12,0,0,1,4.81-.92,14,14,0,0,1,4.68.77,10,10,0,0,1,3.66,2.22,1.77,1.77,0,0,1,.57,1.26,1.38,1.38,0,0,1-.28.88.87.87,0,0,1-.69.38,2.14,2.14,0,0,1-1-.4,12,12,0,0,0-3.28-2,10.14,10.14,0,0,0-3.62-.58,7.6,7.6,0,0,0-4.65,1.24,4.11,4.11,0,0,0-1.72,3.44,3.18,3.18,0,0,0,1.44,2.86,15,15,0,0,0,4.49,1.67,49.11,49.11,0,0,1,5.13,1.46,7.65,7.65,0,0,1,3.12,2,5,5,0,0,1,1.24,3.56,6.29,6.29,0,0,1-1.17,3.75,7.58,7.58,0,0,1-3.29,2.52,12.39,12.39,0,0,1-4.85.9A16.48,16.48,0,0,1,1027.8,157.94Z"/></g></g><path class="cls-19" d="M1231.13,195.21l14.41-31.49-17-28.21,16.11-9.35,12.71,24.14c4.45,8.55,6.07,14.56,1.66,20.29l-21.78,30.57Z"/><path class="cls-19" d="M1233.21,193.82s-3.31-.41-3.84,8.44-2.52,14.66,2.91,15.08,14.73-4.66,8.39-11.79l-2.35-7.5Z"/><path class="cls-5" d="M1226.83,103.63s14.38,1.53,22.77,26.46l-23.27,19.32-4-15.28Z"/><polygon class="cls-4" points="1175.35 355.81 1175.75 323.09 1188.04 322.39 1186.29 356.59 1175.35 355.81 1175.35 355.81"/><path class="cls-17" d="M1187.67,350.17s-9.39,4.53-13.8-2.6l-22.8,13.78,39.51-.29Z"/><polygon class="cls-4" points="1151.1 365.25 1190.61 364.95 1190.58 361.06 1151.07 361.35 1151.1 365.25"/><polygon class="cls-20" points="1187.15 339.66 1186.99 342.87 1175.55 339.54 1187.15 339.66"/><polygon class="cls-4" points="1239.67 355.86 1236.04 323.14 1223.75 322.44 1228.73 356.65 1239.67 355.86 1239.67 355.86"/><path class="cls-17" d="M1226.67,350.17s9.38,4.53,13.79-2.6l22.8,13.78-39.51-.29Z"/><polygon class="cls-4" points="1263.24 365.25 1223.73 364.95 1223.75 361.06 1263.26 361.35 1263.24 365.25"/><polygon class="cls-20" points="1225.71 335.91 1237.7 338.07 1237.31 334.61 1225.71 335.91"/><polygon class="cls-21" points="1177.89 186.94 1174.68 346.32 1187.29 349.63 1205.32 210.54 1226.59 348.39 1242.17 345.91 1231.06 186.94 1177.89 186.94"/><line class="cls-22" x1="1205.32" y1="210.54" x2="1214.89" y2="206.7"/><path class="cls-19" d="M1166.18,128.27l-6.42,9.19-8.82-33.07-9.43,1.18,4.48,42c0,10.19,10.62,15.78,17.63,9.26l17.35-17Z"/><path class="cls-19" d="M1131.94,87.43a1,1,0,0,1,1.56-.13l5.33,6.81-2.27-11.65a1.22,1.22,0,0,1,.9-1.48,1.1,1.1,0,0,1,1.23.81L1142,92.26l-1.74-13A1.11,1.11,0,0,1,1141,78a1,1,0,0,1,1.18.81l2.8,11.84-.63-10.33a1.25,1.25,0,0,1,1.26-1.33c.71,0,1.16.78,1.24,1.39l1.63,14.49,1.67-4.51a1.44,1.44,0,0,1,1.9-1.15,1.63,1.63,0,0,1,1,1.45c.44,10.52-2.55,14.46-2.55,14.46l-8.15,2.47a19.46,19.46,0,0,1-5.71-10.32l-4.73-8.43A1.27,1.27,0,0,1,1131.94,87.43Z"/><path class="cls-5" d="M1185.21,102.64s-5.91,1-10.39,7.4-10.48,18.4-10.48,18.4l15.43,17.71,7.06-6.55Z"/><path class="cls-5" d="M1185.21,102.64l-1.36,10.22s-3.39,11.34-2.74,14.23l-4.22,59.82,56.67,7.28-3.71-81.69a20.5,20.5,0,0,0,.1-5.27,3.94,3.94,0,0,0-3.51-3.65l-11.36-.64Z"/><line class="cls-22" x1="1230.51" y1="126.16" x2="1231.25" y2="144.78"/><line class="cls-22" x1="1179.77" y1="146.15" x2="1181.11" y2="127.09"/><path class="cls-19" d="M1215.44,102.4l-.62-17.23-12.16-.39-.74,20.21c-.08,2.21,1.64,1.81,3.62,1.7l6.71-.38A3.63,3.63,0,0,0,1215.44,102.4Z"/><polygon class="cls-23" points="1203.1 88.76 1215.24 96.72 1214.82 85.17 1203.1 88.76"/><path class="cls-19" d="M1229.32,72.9a4.58,4.58,0,1,1-4.55-5.08A4.84,4.84,0,0,1,1229.32,72.9Z"/><path class="cls-24" d="M1222.22,74c.25-.37,1.14-3.23,4-2.76"/><ellipse class="cls-19" cx="1193.35" cy="72.9" rx="4.55" ry="5.08"/><path class="cls-24" d="M1195.9,74c-.25-.37-1.14-3.23-4-2.76"/><path class="cls-19" d="M1223.22,63.82a78.24,78.24,0,0,1-1.68,16c-.82,3.88-3.12,6.59-6.38,8.78l-.59.39a10.35,10.35,0,0,1-11.42.14h0c-3.53-2.24-6-5.2-6.76-9.37a114.1,114.1,0,0,1-1.54-16s-1.32-16.35,14-16S1223.22,63.82,1223.22,63.82Z"/><path class="cls-25" d="M1195.67,70.46s3.23-11.61.89-19.13C1196.56,51.33,1187.54,54.22,1195.67,70.46Z"/><path class="cls-25" d="M1222.64,70.46s-4.07-11.61-1.73-19.13C1220.91,51.33,1229.32,53.65,1222.64,70.46Z"/><path class="cls-24" d="M1208.08,73.44v2.12a.77.77,0,0,0,.88.82l1-.23"/><path class="cls-25" d="M1206.7,63.74l-8.55,1.14s.69-2.52,4.18-2.95S1206.7,63.74,1206.7,63.74Z"/><path class="cls-25" d="M1211.27,63.74l8.55,1.14s-.69-2.52-4.18-2.95S1211.27,63.74,1211.27,63.74Z"/><path class="cls-4" d="M1204,78.86h9s-.71,2.58-4.49,2.58A5.16,5.16,0,0,1,1204,78.86Z"/><path class="cls-24" d="M1213.21,70.7a2.22,2.22,0,0,1,3.54,0"/><path class="cls-24" d="M1200.66,70.7a2.22,2.22,0,0,1,3.54,0"/><path class="cls-25" d="M1197.22,56.54s2.59-5.19,7.22-2.32,9.22,5.61,17.51,3.35l-1.1-6.26s-11.5-13.66-24.35,0Z"/><path class="cls-25" d="M1196.5,51.31s.73-9.48,12.72-10.3,15.54,6.31,15.54,6.31l-2.18.44s4.2,2,5.28,4l-2.36.92,3.11,3.08s-9.77,4.24-15.19,2l-4.49-7.58Z"/><path class="cls-19" d="M1202,102.64l-7.19.1s-.77,8.12,13.26,8.52,14.26-8,14.26-8l-7.59-.62Z"/><circle class="cls-25" cx="1202.46" cy="71.06" r="1.24"/><circle class="cls-25" cx="1214.96" cy="71.06" r="1.24"/><path class="cls-19" d="M740.21,118.06l22,20.84a9.91,9.91,0,0,1,1,13h0a8.14,8.14,0,0,1-12,1.28l-18.54-16.32Z"/><path class="cls-19" d="M767.2,102.87,750,142.93c-1.92,4.43,0,9.7,4.15,11.54h0c4.4,1.93,9.36-.79,10.55-5.78l11-43.35Z"/><path class="cls-19" d="M786.39,85.07a1,1,0,0,0-1.61-.12l-5.5,6.84,2.34-11.71a1.25,1.25,0,0,0-.93-1.5,1.15,1.15,0,0,0-1.27.82L776,89.93l1.8-13.08a1.12,1.12,0,0,0-.8-1.26,1,1,0,0,0-1.22.81l-2.89,11.92.66-10.39a1.3,1.3,0,0,0-1.31-1.35c-.74,0-1.2.79-1.28,1.41l-1.68,14.57L768.35,88a1.51,1.51,0,0,0-2-1.16,1.63,1.63,0,0,0-1,1.46c-.45,10.58,1.83,14.55,1.83,14.55l8.42,2.47A19.4,19.4,0,0,0,781.52,95l4.89-8.48A1.27,1.27,0,0,0,786.39,85.07Z"/><path class="cls-26" d="M722.63,105.2c11.15,2.71,25,16.82,25,16.82l-9.5,20-14.17-12.61Z"/><path class="cls-19" d="M688.54,184.56,676.3,149l19.82-17.37L680.8,119.84l-14.95,14c-6.14,5.95-8.9,12.59-4.24,20l19.91,35.79Z"/><path class="cls-19" d="M686.58,182.86s3.45.09,2.89,9,.75,15-4.87,14.59-14.49-6.87-7.12-13l3.35-7.12Z"/><path class="cls-26" d="M699.68,105.92c-8.9,1.88-25.43,17-25.43,17l8.58,20.74L697.9,131.8Z"/><path class="cls-26" d="M699.68,105.92s-7.41,3.69-11.08,7.46l7.49,49.26,31.82-1.42,5.41-46.08a6.13,6.13,0,0,0-3.49-5.92l-7.2-4C719.05,106.8,699.68,105.92,699.68,105.92Z"/><polygon class="cls-27" points="732.68 353.73 733.78 326.92 722.08 326.27 722.26 354.46 732.68 353.73 732.68 353.73"/><path class="cls-16" d="M720.94,348.51s8.94,4.2,13.14-2.41l21.72,12.78-37.63-.28Z"/><rect class="cls-4" x="718.16" y="358.74" width="37.63" height="3.61" transform="translate(2.64 -5.35) rotate(0.42)"/><polygon class="cls-20" points="722.14 335.69 733.29 338.78 733.42 335.69 722.14 335.69"/><polygon class="cls-27" points="677.22 353.73 680.39 326.92 692.1 326.27 687.63 354.46 677.22 353.73 677.22 353.73"/><path class="cls-16" d="M689.88,348.51s-8.93,4.2-13.13-2.41L655,358.88l37.63-.28Z"/><rect class="cls-4" x="655.04" y="358.74" width="37.63" height="3.61" transform="translate(1350.32 716.18) rotate(179.58)"/><polygon class="cls-20" points="679.48 334.65 690.12 338.78 690.68 335.18 679.48 334.65"/><path class="cls-28" d="M696.09,162.64s-6.37,9.44-11.12,34.15c-5,26-7.79,147.6-7.79,147.6l14.72,1.1,21.3-134.43,7.14,134.43,15.24-1.65s17.68-157-7.67-182.62Z"/><line class="cls-29" x1="702.97" y1="204.18" x2="713.2" y2="211.06"/><path class="cls-25" d="M736.36,81.12c-1.38-5.67-1.88-4.66-6.51-16-2.77-6.75-4.91-9.46-6.19-10.56h0a18,18,0,0,0-13.06-5.47A17.83,17.83,0,0,0,698,54.34h0c-1.22.88-3.5,3.43-6.54,10.83-4.63,11.29-5.13,10.28-6.51,16s.38,16.16,11.15,18.2a8.85,8.85,0,0,1-1.88-3.94s4.51,6.66,10.65,6.26h11.59c6.14.4,10.65-6.26,10.65-6.26a8.85,8.85,0,0,1-1.88,3.94C736,97.28,737.74,86.8,736.36,81.12Z"/><path class="cls-19" d="M705.13,91.59l.09,12.06c0,3.76,2.17,3.27,5.57,3.22h0c2.9-.05,5.6-.62,5.92-3.76l-.89-16.81Z"/><polygon class="cls-23" points="716.61 99.33 704.98 91.77 716.26 89.61 716.61 99.33"/><path class="cls-30" d="M705.22,103.11l-6.79,3s14,7.71,24.7-.86l-6.42-2.13Z"/><path class="cls-25" d="M727.12,68.05c0,10.18-7.29,18.44-16.28,18.44s-16.29-8.26-16.29-18.44S701.84,51,710.84,51,727.12,57.87,727.12,68.05Z"/><path class="cls-30" d="M729.93,77.24a4.46,4.46,0,1,1-4.45-4.83A4.66,4.66,0,0,1,729.93,77.24Z"/><path class="cls-31" d="M723,78.29c.24-.35,1.11-3.07,3.91-2.62"/><ellipse class="cls-30" cx="695.68" cy="77.24" rx="4.45" ry="4.84"/><path class="cls-31" d="M698.17,78.29c-.24-.35-1.11-3.07-3.91-2.62"/><path class="cls-19" d="M724.3,68.34a71.51,71.51,0,0,1-1.63,15.06c-.79,3.64-3,6.19-6.19,8.24l-.57.38a10.37,10.37,0,0,1-11.06.13h0c-3.42-2.11-5.81-4.89-6.55-8.81a104.81,104.81,0,0,1-1.49-15S695.53,53,710.36,53.29,724.3,68.34,724.3,68.34Z"/><path class="cls-25" d="M719.8,55.17s-4.58,17.26-25.4,15.71c0,0,1.86-17,11.94-18.45C706.34,52.43,716.22,50.89,719.8,55.17Z"/><path class="cls-25" d="M714.59,53.29s.71,11.85,9.61,18.62l1.28-5.63S726.9,54.49,714.59,53.29Z"/><polygon class="cls-25" points="699.68 68.05 697.26 75.4 696.22 68.05 699.68 68.05"/><polygon class="cls-25" points="721.35 68.05 723.86 74.78 724.82 68.05 721.35 68.05"/><path class="cls-32" d="M705.34,75.15A1.34,1.34,0,1,1,704,73.71,1.39,1.39,0,0,1,705.34,75.15Z"/><path class="cls-32" d="M718,75.15a1.34,1.34,0,1,1-1.34-1.44A1.39,1.39,0,0,1,718,75.15Z"/><path class="cls-31" d="M709.84,77.9v1.95a.72.72,0,0,0,.83.76l1-.22"/><path class="cls-25" d="M704,69.27s2.81-.41,2.9.83c0,0,0,.85-2.42,1.16s-4.1.16-4.36-.62S702.7,69.36,704,69.27Z"/><path class="cls-25" d="M716.62,69.08s-2.94-.44-3,.87c0,0,0,.88,2.53,1.21s4.3.16,4.58-.66S718,69.17,716.62,69.08Z"/><path class="cls-4" d="M705.29,83.35H715.8s-.83,3-5.26,3A6.05,6.05,0,0,1,705.29,83.35Z"/><ellipse class="cls-4" cx="688.03" cy="117.8" rx="2.59" ry="2.74"/><ellipse class="cls-4" cx="691.95" cy="130.27" rx="1.96" ry="2.07"/><ellipse class="cls-4" cx="718.3" cy="156.41" rx="1.96" ry="2.07"/><ellipse class="cls-4" cx="697.26" cy="156.55" rx="1.96" ry="2.07"/><ellipse class="cls-4" cx="732.71" cy="134.76" rx="1.96" ry="2.07"/><ellipse class="cls-4" cx="706.64" cy="119.87" rx="2.59" ry="2.74"/><ellipse class="cls-4" cx="719.15" cy="133.47" rx="2.03" ry="2.15"/><ellipse class="cls-4" cx="721.11" cy="115.55" rx="1.73" ry="1.83"/><ellipse class="cls-4" cx="732.76" cy="120.03" rx="1.73" ry="1.83"/><ellipse class="cls-4" cx="706.43" cy="135.65" rx="1.95" ry="2.07"/><ellipse class="cls-4" cx="694.14" cy="144.96" rx="2.59" ry="2.74"/><ellipse class="cls-4" cx="710.34" cy="147.58" rx="2.59" ry="2.74"/><path class="cls-4" d="M1175.31,178.49a14.26,14.26,0,0,1-.17-2,2,2,0,0,1,.48-1.62c.49-.42,1.09-.1,1.6.12a4.13,4.13,0,0,0,1.59.35,2.45,2.45,0,0,0,1.43-.34c.44-.36.3-.93.22-1.42a7.81,7.81,0,0,1-.33-2,.76.76,0,0,1,.3-.58.29.29,0,0,1,.45.17c.09.48.83.28.73-.2a1,1,0,0,0-1.1-.78,1.34,1.34,0,0,0-1.1,1.08,5.44,5.44,0,0,0,.27,2.18c0,.21.08.43.1.65s0,.27-.19.34a2.53,2.53,0,0,1-1.06.1c-.72-.07-1.31-.5-2-.63a1.61,1.61,0,0,0-1.58.56,2.81,2.81,0,0,0-.56,1.84,13.65,13.65,0,0,0,.2,2.3c.07.48.81.28.73-.2Z"/><path class="cls-4" d="M1192.33,149.27c.44-.29,2.77-1.66,3-.77.14.52-.19,1.08-.13,1.61a2,2,0,0,0,.56,1.16,2.09,2.09,0,0,0,1.15.61,6.85,6.85,0,0,0,1.56-.24,1.49,1.49,0,0,1,1.49,1.73c-.11.48.62.68.73.2a2.27,2.27,0,0,0-1.3-2.51,2.15,2.15,0,0,0-1.56-.05,1.41,1.41,0,0,1-1.61-.36c-.72-.89.52-2.4-.69-3.08a2.26,2.26,0,0,0-1.76.14,8,8,0,0,0-1.84.9c-.4.27,0,.92.39.66Z"/><path class="cls-4" d="M1210.09,179.26a2.7,2.7,0,0,1,1.81-1.9,2.12,2.12,0,0,1,1.27,0c.53.19.57.58.79,1a2.32,2.32,0,0,0,2.21,1.05,3.67,3.67,0,0,0,2.49-1.07c.35-.34-.19-.88-.54-.54a2.83,2.83,0,0,1-2.87.72,1.19,1.19,0,0,1-.58-.43c-.12-.2-.15-.44-.25-.65a1.76,1.76,0,0,0-.94-.8c-1.74-.68-3.69.71-4.12,2.4a.38.38,0,0,0,.73.2Z"/><path class="cls-4" d="M1181.47,119.88a7.72,7.72,0,0,1,3.39-.44,1.65,1.65,0,0,1,1.15.8c.21.41.11.88.45,1.24,1.16,1.25,3.61,1.47,4.33-.32.19-.45-.55-.65-.73-.2-.37.93-1.57.87-2.31.5a3.06,3.06,0,0,1-.59-.37.86.86,0,0,1-.3-.63,2.06,2.06,0,0,0-.47-1c-1.26-1.4-3.57-.73-5.12-.31a.38.38,0,0,0,.2.73Z"/><path class="cls-4" d="M1166.05,124.52c-.12.13-.3,0-.36-.14a1.51,1.51,0,0,1-.07-.73,2,2,0,0,1,.22-1.06c.25-.4.77-.3,1.17-.3a1.57,1.57,0,0,0,1.66-2.19c-.21-.87-1.05-1.7-.81-2.63.11-.47-.62-.67-.74-.2-.29,1.18.6,2,.82,3.08.08.36.1.87-.27,1.08s-1.1,0-1.59.14c-1,.21-1.22,1.36-1.22,2.26a1.47,1.47,0,0,0,.53,1.32.93.93,0,0,0,1.2-.09c.33-.35-.2-.89-.54-.54Z"/><path class="cls-4" d="M1184.37,137c-.39-.8,1.43-1.26,2-1.16s.51.48.67.87a2.18,2.18,0,0,0,.69.87c1.5,1.15,3.39.26,4.43-1,.3-.38-.23-.93-.54-.54a3,3,0,0,1-2.53,1.35,1.75,1.75,0,0,1-1.16-.61c-.29-.37-.29-.87-.61-1.22-1.11-1.19-4.43.13-3.56,1.88.21.44.87.05.65-.39Z"/><path class="cls-4" d="M1208,124.66c.68-.4,1.77-.92,2.41-.17.3.35.15.77,0,1.16a3.21,3.21,0,0,0-.15,1.34,3.07,3.07,0,0,0,3.7,2.65c.48-.1.27-.83-.2-.73a2.26,2.26,0,0,1-2.75-2,3.74,3.74,0,0,1,.23-1.36,1.64,1.64,0,0,0-1-2,3,3,0,0,0-2.63.51.38.38,0,0,0,.38.66Z"/><path class="cls-4" d="M1209.85,149a5.35,5.35,0,0,1,4.14-.82,3.43,3.43,0,0,1,2.48,2.51c.29,1.4-.83,2.58-.83,3.95a3.44,3.44,0,0,0,1.62,2.85,3.85,3.85,0,0,0,4-.1.38.38,0,0,0-.38-.66,3,3,0,0,1-3.77-.32,2.63,2.63,0,0,1-.73-1.7,5.48,5.48,0,0,1,.55-2,3.64,3.64,0,0,0-.29-3.46,4.32,4.32,0,0,0-2.85-1.88,6.37,6.37,0,0,0-4.35,1c-.41.26,0,.92.39.66Z"/><path class="cls-4" d="M1198.17,171.74a2,2,0,0,1-1.65-2.54c.18-.53.6-.92.82-1.43a2,2,0,0,0,0-1.46,3.07,3.07,0,0,0-2.33-1.83,10.85,10.85,0,0,0-1.8-.16c-.56,0-1.35-.07-1.53-.73a.38.38,0,0,0-.73.2c.36,1.34,1.88,1.24,3,1.31s2.74.5,2.78,1.89c0,.6-.48,1-.75,1.54a2.76,2.76,0,0,0-.3,1.69,2.71,2.71,0,0,0,2.28,2.26c.47.07.68-.67.2-.74Z"/><path class="cls-4" d="M1179.36,145.45a3.7,3.7,0,0,1,1.52,3.5c-.16.8-.8.87-1.5.85a7.2,7.2,0,0,0-2,.16,3.29,3.29,0,0,0-2.48,2.38,2.25,2.25,0,0,0,1.44,2.58c.46.16.66-.57.2-.73a1.44,1.44,0,0,1-.93-1.36,2.07,2.07,0,0,1,.9-1.64,3.67,3.67,0,0,1,2-.64,10.28,10.28,0,0,0,1.92-.06c1.22-.3,1.39-1.66,1.22-2.72a4.53,4.53,0,0,0-1.87-3c-.39-.29-.77.37-.38.65Z"/><path class="cls-4" d="M1223.29,119.28a2,2,0,0,1,2.17-1.89,2.68,2.68,0,0,1,1.61.77c.43.43.59,1,1,1.47,1.39,1.65,4.2,1.14,5.5-.32.32-.36-.21-.9-.54-.53a3.3,3.3,0,0,1-3.23,1,2.11,2.11,0,0,1-1.44-1.11,4,4,0,0,0-1.1-1.36,3,3,0,0,0-3-.46,2.75,2.75,0,0,0-1.68,2.42.38.38,0,0,0,.76,0Z"/><path class="cls-4" d="M1234.1,136.43c.46-1,.31-2.1.6-3.15a1.69,1.69,0,0,1,.75-1.1.91.91,0,0,1,1.14.11,3,3,0,0,0,1.15.81,2,2,0,0,0,1.33-.08,1.94,1.94,0,0,0,1.07-2.23c-.11-.47-.84-.27-.73.21a1.15,1.15,0,0,1-1.38,1.39c-.46-.1-.73-.51-1.08-.78a1.57,1.57,0,0,0-1.2-.33A2.27,2.27,0,0,0,1234,133c-.29,1-.11,2.08-.54,3-.2.44.46.83.66.38Z"/><path class="cls-4" d="M1173.79,108.09c1,.07,2.29-.54,3.18.14.44.34.32.75.15,1.21a1.63,1.63,0,0,0,0,1.3,3.38,3.38,0,0,0,2.06,1.47,2,2,0,0,0,1.53.06,1.11,1.11,0,0,0,.69-1.1c-.05-.48-.81-.49-.76,0,.11,1-1.88.08-2.26-.17a1.22,1.22,0,0,1-.64-.78c-.06-.43.27-.86.31-1.29a1.68,1.68,0,0,0-1.31-1.65c-1-.32-2,.12-3,0-.49,0-.49.73,0,.76Z"/><path class="cls-4" d="M1213.37,114.61a4.5,4.5,0,0,1,2.17-2,.86.86,0,0,1,1.18.39,2.67,2.67,0,0,0,1,1,3.19,3.19,0,0,0,2.77.27,1.75,1.75,0,0,0,1-2.16c-.18-.44-.92-.25-.73.2a1,1,0,0,1-.32,1.12,1.78,1.78,0,0,1-1.47.23,2.69,2.69,0,0,1-1.27-.61c-.34-.31-.46-.79-.85-1.05a2.1,2.1,0,0,0-2.28.28,5.88,5.88,0,0,0-1.85,2,.38.38,0,0,0,.65.38Z"/></g></g></svg>