<svg xmlns="http://www.w3.org/2000/svg" viewBox="0 0 1920.32 442.71"><defs><style>.cls-1{fill:#d9d9e2;}.cls-2{fill:#e5e5ea;}.cls-3{fill:#eeedef;}.cls-4{fill:#fff;}.cls-5{fill:#f7b634;}.cls-6{fill:#efb670;}.cls-7{opacity:0.92;}.cls-8{fill:#e0dfde;}.cls-13,.cls-9{opacity:0.14;}.cls-10,.cls-13{fill:#0097cf;}.cls-11{opacity:0.5;}.cls-12{opacity:0.54;}.cls-13{isolation:isolate;}.cls-14{fill:#1bbfbf;}.cls-15,.cls-24{fill:none;stroke-linecap:round;}.cls-15{stroke:#4ca5a2;stroke-miterlimit:10;stroke-width:1.94px;}.cls-16{fill:#ecbc4f;}.cls-17{fill:#e8792e;}.cls-18{fill:#f47f31;}.cls-19{fill:#364056;}.cls-20{fill:#fbb990;}.cls-21{fill:#3e4a5e;}.cls-22{fill:#1f3727;}.cls-23{fill:#363f51;}.cls-24{stroke:#0b1b10;stroke-linejoin:round;stroke-width:2px;}.cls-25{fill:#ffaeab;}.cls-26{fill:#ff9c00;}.cls-27{fill:#f49d9d;}.cls-28{fill:#fab9af;}.cls-29{fill:#fa968c;}.cls-30{fill:#0fa8ba;}.cls-31{fill:#edbc4f;}.cls-32{fill:#f9927d;}</style></defs><title>contactus_3</title><g id="Layer_2" data-name="Layer 2"><g id="Layer_1-2" data-name="Layer 1"><path class="cls-1" d="M.28,288.57s352.85,27.87,430,0c118-42.64,292.49-27.88,430.42,26.24,131.11,51.45,254.27,3.28,310.77-18s259.25-36.08,457,29.52,291.43-3.08,291.43-3.08l.42,119.45H.32Z"/><path class="cls-2" d="M0,279.33s226.88-45.84,391.63,24.28c130.56,55.56,369.43,32.07,492.57-7.07s397.32-26.77,490.92,28.26c74.88,44,195.77,48.49,269.58,11.42,117.62-59.08,274.87-13.28,274.87-13.28l.41,119.44L0,442.71Z"/><path class="cls-3" d="M771.75.76h398.09A17.18,17.18,0,0,1,1187,17.94V268.33a23.34,23.34,0,0,1-23.34,23.34H777.91a23.34,23.34,0,0,1-23.34-23.34h0V17.94A17.18,17.18,0,0,1,771.75.76Z"/><rect class="cls-4" x="776.74" y="25.56" width="388.11" height="244.54"/><path class="cls-5" d="M772.83,0h395.89a18.47,18.47,0,0,1,18.47,18.47v13H754.35v-13A18.47,18.47,0,0,1,772.82,0Z"/><circle class="cls-3" cx="1137.08" cy="17.31" r="2.9"/><circle class="cls-3" cx="1147.21" cy="17.31" r="2.9"/><circle class="cls-3" cx="1156.94" cy="17.31" r="2.9"/><path class="cls-6" d="M801,287.23a29.31,29.31,0,0,1,6.57,1.1c2.34.57,4.67,1.16,7,1.82,4.68,1.34,9.22,3.08,13.79,4.76a38.06,38.06,0,0,1,7,3.48c.12.07,0,.26-.09.19a36,36,0,0,0-6-3.13c-2.29-.88-4.6-1.72-6.89-2.57a123.65,123.65,0,0,0-13.71-4.15,35.62,35.62,0,0,0-7.59-1.4c-.06,0-.07-.1,0-.1Z"/><g class="cls-7"><path class="cls-8" d="M855.43,295.67a53.7,53.7,0,0,0,2-21.82,34.14,34.14,0,0,0-9.37-19.68,60.23,60.23,0,0,0-6.43-5.29c-5.75-4.31-11.52-8.62-17.44-12.71-4.64-3.21-9.51-6.43-12.47-11.14a100,100,0,0,0,2.1,19.67,42.33,42.33,0,0,0,3.8,11.48c2.9,5.44,7.55,9.77,11.86,14.26A152.83,152.83,0,0,1,843.29,287a34.49,34.49,0,0,0,4.17,5.16,16.36,16.36,0,0,0,7.71,4"/><g class="cls-9"><path class="cls-10" d="M830.32,257.48a95.23,95.23,0,0,1,14.86,6.22,37,37,0,0,1,10.88,8.74c.53.65,1,1.31,1.47,2a53.83,53.83,0,0,1-2.11,21.22l-.26.51a16.42,16.42,0,0,1-7.7-4,35.11,35.11,0,0,1-4.18-5.15,154.5,154.5,0,0,0-13.77-16.55c-4.31-4.49-9-8.82-11.86-14.26a33.56,33.56,0,0,1-1.62-3.62,70.34,70.34,0,0,1,6.79,2.29C825.3,255.75,827.81,256.61,830.32,257.48Z"/></g><g class="cls-11"><path class="cls-10" d="M816.09,235.67c3.84,8.47,10.8,15.11,17.27,21.74a109.57,109.57,0,0,1,9.12,10.26A69.37,69.37,0,0,1,850,280a66.44,66.44,0,0,1,5.25,15.77c.06.28-.38.42-.44.14a70.8,70.8,0,0,0-11.91-27c-5.46-7.5-12.6-13.61-18.67-20.62a50.65,50.65,0,0,1-8.29-12.62c0-.1.12-.14.16,0Z"/></g></g><g class="cls-7"><path class="cls-8" d="M854.29,308.37c-2-8.23-5.92-15.53-12.58-21-4.16-3.43-9-6.06-13-9.68-6.29-5.75-10-13.62-15.46-20.09-7.41-8.72-17.78-14.54-27.91-20.17,10.35,13.8,12,32.44,22.9,45.87,8.93,11,23,17.08,36.93,20.94,3.27.9,6.73,1.81,9.09,4.16"/><g class="cls-12"><path class="cls-10" d="M792.26,244.78c9.67,6,15.41,15.94,21.42,25.07a85.49,85.49,0,0,0,10.4,13.49,40.45,40.45,0,0,0,6.59,5.45c2.69,1.75,5.65,3.08,8.39,4.75a49.16,49.16,0,0,1,15,14c.16.24-.22.44-.39.22a54.16,54.16,0,0,0-13.67-13c-2.69-1.75-5.6-3.1-8.35-4.75a38.62,38.62,0,0,1-6.43-4.88c-8.19-7.64-13.12-17.8-19.56-26.72-3.72-5.14-8-10-13.46-13.43a.08.08,0,0,1-.06-.1.09.09,0,0,1,.1-.06l0,0Z"/></g><path class="cls-13" d="M800.81,260.33c3.62,2.35,6,6,8.09,9.76s3.87,7.61,6.71,10.8a23.52,23.52,0,0,0,17.44,7.66c3.11,0,6.23-.64,9.32-.57,6.25,5.42,10,12.49,11.91,20.44-2.36-2.35-5.83-3.25-9.09-4.16-14-3.86-28-9.92-36.94-20.94-5.92-7.31-9.11-16.16-12.46-24.94A13.59,13.59,0,0,1,800.81,260.33Z"/></g><path class="cls-5" d="M835.36,298.44c-10.54-6.38-20.91-12.8-33.32-13.94a14.29,14.29,0,0,0-7.18.79c-.73.33-1.49.91-1.46,1.69a1.67,1.67,0,0,0,.38.93c1.06,1.43,3.05,1.87,4.86,2.16,12.46,2,25.6,2.53,36.65,8.41"/><path class="cls-5" d="M851.29,297.27a82.43,82.43,0,0,0-38.5-29.58c-3.31-1.26-6.85-2.33-10.39-1.92-1.33.15-3,1-2.63,2.25a2.21,2.21,0,0,0,.73,1,23,23,0,0,0,7.42,4,209.31,209.31,0,0,1,23.44,10.25,102.46,102.46,0,0,1,19.93,14"/><path class="cls-6" d="M805.45,268a202.52,202.52,0,0,1,19.73,8.55,84.08,84.08,0,0,1,9.08,5.43c3,2.1,6,4.38,8.81,6.7a32.91,32.91,0,0,1,4.06,3.58c1.17,1.32,2.19,2.75,3.4,4,.1.1,0,.26-.14.16-1-1.08-1.91-2.26-2.87-3.4a21,21,0,0,0-1.56-1.7c-.6-.56-1.27-1.07-1.91-1.59-2.84-2.32-5.7-4.61-8.69-6.75a103.89,103.89,0,0,0-18.83-10.36c-3.67-1.61-7.39-3.1-11.11-4.61V268Z"/><path class="cls-5" d="M852.54,293.87c-4.11-6.23-8.24-12.51-11.19-19.33-2.29-5.31-3.93-11.07-7.85-15.41a4.13,4.13,0,0,0-2.6-1.59,2.93,2.93,0,0,0-2.58,1.47,5.1,5.1,0,0,0-.6,2.94c.15,3.11,1.78,5.94,3.47,8.59,5.51,8.65,9.65,16.65,21.35,23.33"/><path class="cls-6" d="M832.33,264.19c4.07,8.08,8.37,16.15,14.22,23.19.84,1,1.7,2,2.6,2.95s1.89,1.88,2.83,2.83c.09.08,0,.22-.12.14a43.77,43.77,0,0,1-4.82-5,66.08,66.08,0,0,1-4.18-5.41A111.54,111.54,0,0,1,835.74,271c-1.19-2.26-2.34-4.54-3.48-6.83,0,0,0-.06.07,0Z"/><path class="cls-14" d="M1380.5,322.9c-4.89-17.17-22.18-54.75-41.83-52.58-22.65,2.5,22.21,43.52,22.21,43.52s-31.39-24.19-42.72-10.14,38.51,23,38.51,23-26.23-5.45-23.63,5,46.34,7.45,49.39,17.49S1383.85,334.68,1380.5,322.9Z"/><path class="cls-15" d="M1382.35,345c-4.29-18.22-12.1-35.89-23.5-50.78a105.43,105.43,0,0,0-14-15.11"/><path class="cls-15" d="M1382.06,345.33c-11.87-19.67-32.07-34-54.39-37.69"/><path class="cls-15" d="M1381.81,345.48c-10.74-8.73-24.38-13.23-38.07-14.2"/><path class="cls-14" d="M1387.48,322.08c4.89-17.18,22.19-54.75,41.83-52.59,22.66,2.5-22.2,43.53-22.2,43.53s31.38-24.2,42.71-10.15-38.51,23-38.51,23,26.23-5.45,23.63,5-46.33,7.44-49.39,17.49S1384.14,333.85,1387.48,322.08Z"/><path class="cls-15" d="M1385.64,344.18c4.29-18.22,12.09-35.88,23.49-50.78a106.59,106.59,0,0,1,14-15.11"/><path class="cls-15" d="M1385.92,344.5c11.87-19.67,32.08-34,54.4-37.69"/><path class="cls-15" d="M1386.18,344.65c10.74-8.73,24.37-13.23,38.07-14.2"/><path class="cls-14" d="M1371.85,305.5c-4.45-26.62-6.2-88,18.78-94.23,28.79-7.19-.59,72.11-.59,72.11s23.27-49.1,45.36-34.6-32.54,50.85-32.54,50.85,28.32-20.14,31.46-4.14-51.35,32.49-49,48.15S1374.89,323.75,1371.85,305.5Z"/><path class="cls-15" d="M1382.91,337.65c-5.79-27.81-7-56.51-2.22-83a149.43,149.43,0,0,1,7.83-28"/><path class="cls-15" d="M1383.44,338c2.48-33.46,18.19-63.36,42.88-79.11"/><path class="cls-15" d="M1383.84,338.06c7.69-17.44,21.41-30.27,37.33-38.14"/><path class="cls-16" d="M581.2,294.85c.55-6.24-8.31-4.33-11.59-2.4-6.39,3.77-16.35,15.79-18.36,19.66-.09-1.52-.22-3-.4-4.56-.33-2.83-.67-5.65-1-8.48,4.19-1.36,13.27-3.79,20.54-15.07,1.22-1.89,2.68-4.52,1.59-6.77-1.51-3.13-4.23-.68-5.92.92-2.88,2.73-12.09,12.77-16.64,17.2-.65-5.66-1.29-11.32-2-17,7.47-4.09,16.53-9.11,19.71-17.59,2.08-5.55-4.14-5.3-7.32-3.4-5.7,3.4-10.07,9.66-13,15.94-.33-2.66-.67-5.31-1-8-.07-.48-.13-1-.19-1.43,3.85-1.69,7.73-2.92,10.88-5.92a16.7,16.7,0,0,0,4.75-11.27c.1-1.85.5-4.08-.79-5.68-1.81-2.23-3.09.79-4,2.5A112.35,112.35,0,0,1,550,254.1c-1.28,1.86-2.43,3.65-3.5,5.56a16,16,0,0,1-1.23,1.73c-.54-3.77-1.16-7.55-1.85-11.3,5.17-5,11.38-11.13,12.07-18.74.45-5-4.56-3.4-6.73-1.13-3.36,3.52-5.43,8.55-6.57,13.6-.33-1.63-.68-3.26-1-4.88,4-7.45,9-16.62,7-25.36-1.28-5.55-6.22-2-7.81,1.28a28,28,0,0,0-2.52,10.6l-.6-2.17c-.49-1.73-1-3.42-1.65-5.09,4.23-5.86,9.34-13,8.68-20.65-.43-5-5.09-2.54-6.83.07-2.76,4.14-3.9,9.63-4.1,14.9-1.06-2.48-2.21-4.92-3.4-7.34,2.68-5.26,5.87-11.64,4.38-17.71-1-4-4.43-1.42-5.51.91a23,23,0,0,0-1.56,11.47c-1.35-2.63-2.7-5.26-4-7.92.33-2.64.45-5.45.51-7.89.06-2.89-.31-6.11-2.71-8.09-3.16-2.6-5.75-1.1-6.33,2.78a9.41,9.41,0,0,0,.69,5,8.06,8.06,0,0,0-4.16-1.53,2.79,2.79,0,0,0-2.64,1.14c-.75,1.2-.33,3.14.73,4.67,1.88,2.71,5.13,4.17,7.81,5.93a20.38,20.38,0,0,1,2.35,1.88c1,.94,2,1.93,3.06,2.79.89,1.73,1.78,3.46,2.65,5.21h0c-3.25-3.59-7.44-6.88-11.94-8-2.5-.6-6.66.5-4.15,3.75,4,5.21,11.56,6.57,17.5,7.79l.26-.19c.39.81.78,1.61,1.16,2.43l.07.12a109.17,109.17,0,0,1,5.14,12.82h0a19.38,19.38,0,0,0-3.87-3c-2.53-1.47-7.43-1.61-5.74,2.74,2.18,5.6,7.6,9.22,12.8,12.11,1.43,5.92,2.69,11.91,3.76,17.91-2.55-5.15-6.23-10.2-11-13-2.71-1.57-8-1.72-6.15,2.95,2.91,7.49,11.25,11.68,17.77,15.16l.2-.06h0c.46,2.82.87,5.66,1.25,8.48.18,1.39.36,2.78.53,4.17h0c-3.34-7-8.17-14.1-14.31-18-3.5-2.22-10.25-2.52-7.84,4,3.85,10.37,14.55,16.3,23,21.22h0c.45,3.95.86,7.91,1.29,11.86-5.08-5.32-14.93-17-18.43-20.45-1.63-1.64-5.89-5-7.56-1.46-.92,2,.84,6.15,2,7.9,2.46,3.9,15.32,14.32,24.73,20.11h0c.33,2.81.67,5.61,1.06,8.41.14,1,.26,2.07.37,3.1-6.83-8.53-21.26-24.28-26.11-26.66-2.47-1.21-6.81-2.56-8.68.27s2,6.48,3.54,8.77c3.57,5.28,20,16.68,23.39,18.35,2.59,1.29,5.57,2.07,8.18,3.2a.29.29,0,0,1,0,.13c.15,2.33.22,4.63.22,6.93l-.44-.28c-7.5-4.88-22.8-16.22-28-19.44-2.42-1.49-8.46-4.36-9.47.38-.54,2.62,2.75,7.13,4.57,8.91,3.76,3.71,20,11.67,32.59,16.21l.69.23c-.23,7.48-.82,14.93-1,22.65-.06,2.33,3.57,2.63,3.62.29.26-11.15,1.69-21.91,1.2-32.95C564.07,310.91,581,297.68,581.2,294.85Z"/><path class="cls-17" d="M592.14,332c3.19-3.36-2.82-6.34-5.61-6.73-5.44-.76-16.74,1.61-19.69,2.93.65-.92,1.27-1.86,1.88-2.83,1.11-1.79,2.22-3.58,3.34-5.35a25.42,25.42,0,0,0,18.84.74c1.58-.54,3.63-1.39,4-3.19.57-2.51-2.14-2.35-3.85-2.2-2.93.26-12.89,1.82-17.56,2.3,2.23-3.58,4.47-7.15,6.68-10.74,6.22,1.08,13.77,2.34,19.52-1.11,3.76-2.25,0-5-2.67-5.33-4.87-.66-10.28.95-14.88,3.24,1-1.7,2.07-3.39,3.09-5.09.18-.3.36-.61.55-.91,3,.79,5.82,1.87,9,1.58a12.3,12.3,0,0,0,7.94-4.34c.92-1,2.18-2.13,2.16-3.65,0-2.12-2.15-1-3.46-.4a85.66,85.66,0,0,1-8.63,3.16c-1.6.49-3.09,1-4.59,1.61a11.3,11.3,0,0,1-1.51.43c1.43-2.43,2.81-4.89,4.14-7.4,5.3-.52,11.72-1.19,15.62-5.28,2.56-2.69-1.08-4.07-3.38-3.75A21.29,21.29,0,0,0,593,284.53c.55-1.09,1.1-2.2,1.64-3.3,5.73-2.49,12.87-5.48,15.72-11.47,1.81-3.81-2.7-4-5.11-2.86a20.58,20.58,0,0,0-6.35,5c.22-.51.44-1,.65-1.54.52-1.23,1-2.46,1.4-3.7,5.14-1.45,11.39-3.23,14.53-8,2-3.09-1.77-3.82-4-3.11-3.5,1.13-6.69,3.78-9.23,6.74q.79-2.9,1.41-5.82c4-1.81,8.76-4,10.7-8.23,1.26-2.76-1.92-2.87-3.62-2a17,17,0,0,0-6.18,5.92c.43-2.15.85-4.29,1.31-6.44,1.41-1.38,2.77-2.95,3.93-4.34,1.37-1.64,2.64-3.68,2.16-5.93-.63-3-2.82-3.28-5-1.31a7,7,0,0,0-1.91,3.23,6,6,0,0,0-1.7-2.8,2.07,2.07,0,0,0-2.06-.55c-1,.34-1.64,1.66-1.73,3-.16,2.43,1,4.77,1.79,7a13.36,13.36,0,0,1,.49,2.17c.16,1,.28,2,.49,3-.28,1.42-.57,2.83-.86,4.24h0c-.23-3.57-1.14-7.41-3.24-10.12-1.17-1.5-4.09-2.78-4.13.26-.07,4.87,3.67,9.13,6.54,12.57h.3c-.14.65-.29,1.29-.44,1.94v.1a81.17,81.17,0,0,1-2.93,9.8h0a14.16,14.16,0,0,0-.86-3.52c-.78-2-3.56-4.35-4.58-1-1.32,4.24.15,8.84,1.83,12.9-1.9,4.09-3.93,8.14-6.07,12.11.89-4.15,1.09-8.78-.38-12.55-.85-2.16-3.82-4.67-4.92-1.13-1.77,5.68,1.13,11.95,3.3,17l.15.05h0q-1.56,2.77-3.18,5.49L581.28,300h0c1.37-5.7,1.84-12,.08-17.12-1-2.9-4.77-6.18-6.37-1.31-2.55,7.77.92,16.14,3.53,22.86h0l-4.72,7.46c-.49-5.42-.83-16.7-1.25-20.33-.19-1.7-1.09-5.63-3.7-4.33-1.45.72-2.35,4-2.51,5.47-.37,3.39,2.27,15.35,5,23h0q-1.67,2.66-3.27,5.35c-.39.67-.8,1.32-1.21,2,0-8.08-1.12-23.85-2.83-27.46-.88-1.84-2.77-4.62-5.16-3.84s-1.83,4.67-2,6.71c-.36,4.7,3.93,18.89,5.09,21.39.91,2,2.27,3.77,3.27,5.63l-.06.08q-1.49,2.12-3.06,4.11a1.49,1.49,0,0,0-.13-.37c-2.1-6.28-5.73-19.89-7.26-24.16-.72-2-2.9-6.42-5.66-4.14-1.53,1.27-1.7,5.39-1.46,7.26.47,3.89,6.18,16,11.4,24.4l.29.46c-3.57,4.22-7.35,8.26-11,12.65-1.11,1.32.86,3.17,2,1.84,5.28-6.34,11.06-11.91,15.87-18.53C574.82,333.41,590.69,333.52,592.14,332Z"/><g class="cls-7"><path class="cls-8" d="M545.86,333c.86-9.08.42-18.39-2.32-27.09s-7.89-16.79-15.27-22.15a72.12,72.12,0,0,0-8.72-5.16c-7.71-4.09-15.43-8.18-23.29-12-6.15-3-12.59-5.91-17.09-11.07a129.92,129.92,0,0,0,6.72,23.62,54.72,54.72,0,0,0,7,13.27c4.59,6,11,10.4,17,15a191.56,191.56,0,0,1,19.8,17.42,42.49,42.49,0,0,0,6,5.45,19.3,19.3,0,0,0,9.95,3.36"/><g class="cls-9"><path class="cls-10" d="M508,291.41A110.37,110.37,0,0,1,526.88,296a44.94,44.94,0,0,1,14.7,8.47c.76.68,1.48,1.4,2.16,2.14A69.54,69.54,0,0,1,545.85,333l-.2.67a19.42,19.42,0,0,1-9.95-3.36,42.49,42.49,0,0,1-6-5.45,191.56,191.56,0,0,0-19.8-17.42c-6-4.61-12.46-9-17-15a38.71,38.71,0,0,1-2.69-4.11c2.85.27,5.66.87,8.48,1.42C501.76,290.32,504.9,290.85,508,291.41Z"/></g><g class="cls-11"><path class="cls-10" d="M486.57,267.65c6.34,9.57,16,16.27,25,23.06a137,137,0,0,1,13,10.67A89.08,89.08,0,0,1,536.07,315a85.43,85.43,0,0,1,9.6,18.21c.12.33-.36.59-.49.26a90.07,90.07,0,0,0-19.86-30.55c-8.05-8.05-17.78-14.07-26.45-21.4a63.23,63.23,0,0,1-12.48-13.74c-.07-.11.11-.2.18-.09Z"/></g></g><g class="cls-7"><path class="cls-8" d="M547.27,348.74c-4.13-9.66-10.34-17.78-19.37-23.14-5.64-3.35-11.9-5.57-17.36-9.2-8.65-5.74-14.69-14.62-22.55-21.4-10.61-9.15-24.08-14.15-37.23-19,15.17,14.76,21.17,37.22,36.88,51.41,12.91,11.66,30.73,16.2,48,18.07,4,.44,8.32.84,11.61,3.23"/><g class="cls-12"><path class="cls-10" d="M460.47,283.64c12.69,5.37,21.6,16.35,30.64,26.29a106.94,106.94,0,0,0,15.17,14.38,48.56,48.56,0,0,0,8.94,5.31c3.54,1.59,7.32,2.61,10.91,4.1a60.07,60.07,0,0,1,20.65,14c.24.25-.16.58-.41.34a66.23,66.23,0,0,0-18.92-13.16c-3.54-1.59-7.26-2.64-10.85-4.1a46.32,46.32,0,0,1-8.63-4.65c-11.3-7.67-19.3-19.09-28.81-28.68C473.67,292,467.58,287,460.4,283.82a.11.11,0,0,1,0-.14A.1.1,0,0,1,460.47,283.64Z"/></g><path class="cls-13" d="M473.9,300.92c4.77,2.13,8.42,6.15,11.64,10.28s6.2,8.52,10.24,11.84a27.74,27.74,0,0,0,22.19,5.8c3.66-.66,7.19-2.06,10.85-2.6,8.53,5.36,14.46,13.24,18.44,22.56-3.29-2.39-7.57-2.78-11.61-3.22-17.29-1.88-35.11-6.42-48-18.07-8.55-7.73-14.23-17.9-20.07-27.95A15.81,15.81,0,0,1,473.9,300.92Z"/></g><path class="cls-18" d="M522.83,340.47c-13.79-5.66-27.39-11.39-42.26-10.25-2.9.22-5.9.75-8.28,2.43-.79.55-1.56,1.42-1.36,2.36a2.13,2.13,0,0,0,.65,1.06c1.56,1.54,4,1.66,6.2,1.65,15.1-.09,30.69-2.13,45,2.81"/><path class="cls-6" d="M480,333.77a33.45,33.45,0,0,1,8,0c2.87.21,5.75.46,8.62.8,5.8.68,11.53,1.88,17.26,3a45,45,0,0,1,9,2.82c.16.07.08.32-.07.25a42.54,42.54,0,0,0-7.78-2.59c-2.88-.61-5.78-1.16-8.67-1.73a145.21,145.21,0,0,0-17-2.29,41.29,41.29,0,0,0-9.23-.15c-.08,0-.11-.11,0-.12Z"/><path class="cls-18" d="M541.33,335.78a99.6,99.6,0,0,0-51.73-28.31c-4.17-.86-8.56-1.45-12.65-.23-1.53.45-3.28,1.85-2.61,3.3a2.8,2.8,0,0,0,1.08,1.08c2.85,1.88,6.27,2.63,9.6,3.36,10,2.18,20.11,4.35,29.81,7.75a123.43,123.43,0,0,1,26.5,13"/><path class="cls-6" d="M481,309.38a235,235,0,0,1,25.07,6.42A100.61,100.61,0,0,1,518,320.58c4,1.95,8,4.15,11.82,6.41a40.24,40.24,0,0,1,5.56,3.54c1.66,1.37,3.17,2.92,4.87,4.24.13.1,0,.33-.13.23-1.44-1.11-2.74-2.38-4.11-3.57a23.36,23.36,0,0,0-2.21-1.76c-.83-.57-1.73-1.05-2.6-1.56-3.84-2.25-7.7-4.47-11.68-6.47a123.31,123.31,0,0,0-24.42-8.84c-4.66-1.22-9.37-2.28-14.07-3.36,0,0,0-.07,0-.06Z"/><path class="cls-18" d="M542.07,331.37c-6.19-6.78-12.41-13.61-17.35-21.35-3.85-6-7-12.74-12.58-17.24a4.93,4.93,0,0,0-3.41-1.41,3.43,3.43,0,0,0-2.72,2.32,6.63,6.63,0,0,0-.07,3.72c.85,3.77,3.38,6.9,5.94,9.79,8.36,9.45,15,18.39,30.19,24.17"/><path class="cls-6" d="M511.85,299.2c6.54,9.05,13.35,18,21.76,25.46,1.2,1.06,2.44,2.09,3.71,3.07s2.63,1.92,3.94,2.88c.12.09,0,.28-.12.2a53.1,53.1,0,0,1-6.75-5.1c-2.12-1.82-4.16-3.74-6.09-5.76a142.4,142.4,0,0,1-10.95-13.07q-2.83-3.78-5.57-7.63c-2.74-3.85,0-.09.07-.05Z"/><path class="cls-14" d="M1131.38,299.75c7-15.46,14.18-30.69,13.27-47.55-.18-3.29-.72-6.7-2.62-9.44-.63-.91-1.63-1.81-2.74-1.61a2.64,2.64,0,0,0-1.27.71c-1.85,1.73-2.07,4.48-2.11,7-.34,17.1,1.62,34.8-4.6,50.82"/><path class="cls-6" d="M1140.75,245.88a37.13,37.13,0,0,1,.13,9c-.19,3.27-.43,6.53-.78,9.78-1.34,12.76-1,7.83-3.23,19.6a50,50,0,0,1-3.17,10.2c-.07.17-.37.1-.29-.08a47.52,47.52,0,0,0,2.91-8.85c.66-3.28,1.26-6.57,1.89-9.85a159.09,159.09,0,0,0,2.38-19.34c.22-3.46.61-7,0-10.46,0-.08.12-.12.14,0Z"/><path class="cls-18" d="M1129.91,303a111.92,111.92,0,0,0,34.79-57.78c1.13-4.7,1.94-9.65.63-14.31-.49-1.74-2.08-3.76-3.81-3a3.2,3.2,0,0,0-1.3,1.2c-2.29,3.17-3.28,7-4.23,10.77-2.85,11.31-5.69,22.65-10,33.53A138,138,0,0,1,1129.91,303"/><path class="cls-6" d="M1162.7,235.41a261,261,0,0,1-8.28,28.22,111.77,111.77,0,0,1-6,13.3c-2.4,4.52-5.1,8.89-7.86,13.21a45,45,0,0,1-4.34,6.19c-1.66,1.85-3.51,3.52-5.12,5.41-.12.14-.39,0-.26-.16,1.34-1.6,2.87-3,4.31-4.55a27.48,27.48,0,0,0,2.13-2.45c.7-.93,1.29-1.93,1.91-2.91,2.76-4.28,5.48-8.59,8-13a136.2,136.2,0,0,0,11.09-27.4c1.57-5.25,3-10.55,4.36-15.84h.08Z"/><path class="cls-14" d="M1135.08,303.91c8.15-6.82,16.36-13.68,25.61-19.05,7.2-4.19,15.18-7.6,20.63-13.77a5.51,5.51,0,0,0,1.77-3.82,4,4,0,0,0-2.66-3.14,8.15,8.15,0,0,0-4.38-.18c-4.45.86-8.2,3.64-11.68,6.45-11.36,9.21-22.06,16.43-29.29,33.51"/><path class="cls-6" d="M1173.78,270.59c-10.83,7.15-21.6,14.62-30.56,23.93q-1.93,2-3.73,4.11c-1.21,1.43-2.32,2.93-3.5,4.38-.1.14-.33,0-.23-.14a61.88,61.88,0,0,1,6.2-7.5c2.19-2.35,4.52-4.6,6.94-6.74a169,169,0,0,1,15.69-12c3-2.07,6.07-4.09,9.14-6.09,0,0,.1,0,0,.08Z"/><path class="cls-19" d="M1201.36,92.57s10.83-.59,14.14,11.93c3,11.32,17.54,59.74,23.45,78.25a4.19,4.19,0,0,1-5,5.35c-11.32-2.7-32.81-8.18-40.82-12.69,0,0-8.79-49.9-8.91-63.65C1184.14,99.13,1189.68,92.67,1201.36,92.57Z"/><path class="cls-20" d="M1192.33,372.58l-1.21,10s7.19,3.17,9.61.73l.61-9.66Z"/><path class="cls-16" d="M1167.51,396.51c.76,1.64,34.45-.12,34.45-.12s1.07-10,0-13.08-6,.38-9.34-.4c0,0-2-2.79-3.65-2.69-.6,0-2.72,1.4-5.37,3.14l-1.33.87-1,.64-1.6,1-.61.39h0l-1.48.94c-3,1.84-5.74,3.39-7.36,3.68C1166,391.68,1166.74,394.87,1167.51,396.51Z"/><path class="cls-4" d="M1179.73,385.91a3.09,3.09,0,0,1,1.84.36,8.24,8.24,0,0,1,2.61,2.84.55.55,0,0,0,.34.28.62.62,0,0,0,.48,0,.61.61,0,0,0,.24-.82,9.33,9.33,0,0,0-3.11-3.33,4.84,4.84,0,0,0-.8-.33C1180.44,384.94,1179.71,385.14,1179.73,385.91Z"/><path class="cls-4" d="M1182.29,384.23a3.58,3.58,0,0,1,1.11.36,8.26,8.26,0,0,1,2.6,2.84.66.66,0,0,0,.35.29.63.63,0,0,0,.48-.05.6.6,0,0,0,.23-.82,9.27,9.27,0,0,0-3.1-3.33l-.34-.16C1183.05,383.41,1182.42,383.37,1182.29,384.23Z"/><path class="cls-4" d="M1177.64,387.24a3.18,3.18,0,0,1,1.47.38,8.17,8.17,0,0,1,2.6,2.84.62.62,0,0,0,.82.24.61.61,0,0,0,.24-.83,9.35,9.35,0,0,0-3.1-3.32,5.25,5.25,0,0,0-.55-.25h0C1178.16,386.21,1177.59,386.45,1177.64,387.24Z"/><path class="cls-20" d="M1242.88,297.39l10.1.57s2.28-7.53-.44-9.63l-9.66.36Z"/><path class="cls-16" d="M1276.67,311.61c1.08-1.45-16.27-30.38-16.27-30.38s-9.34,3.75-11.56,6.13,3.13,5.09,4,8.43c0,0-1.52,3.09-.67,4.49.31.51,2.51,1.74,5.3,3.27l1.39.76,1,.55,1.67.93.63.35h0l1.52.87c3,1.74,5.7,3.48,6.71,4.77C1273.14,315.25,1275.58,313.05,1276.67,311.61Z"/><path class="cls-4" d="M1259.69,304.23a3.08,3.08,0,0,1-.55-1.8,8.32,8.32,0,0,1,1.28-3.63.58.58,0,0,0,.09-.44.59.59,0,0,0-.26-.4.61.61,0,0,0-.84.18,9.24,9.24,0,0,0-1.48,4.3,4.77,4.77,0,0,0,.08.87C1258.49,304.05,1259,304.61,1259.69,304.23Z"/><path class="cls-4" d="M1257,302.76a3.33,3.33,0,0,1-.2-1.15,8.15,8.15,0,0,1,1.29-3.64.62.62,0,0,0,.08-.44.54.54,0,0,0-.26-.39.6.6,0,0,0-.84.17,9.41,9.41,0,0,0-1.48,4.3c0,.13,0,.26,0,.38C1255.92,302.47,1256.18,303.05,1257,302.76Z"/><path class="cls-4" d="M1261.83,305.45a3.39,3.39,0,0,1-.35-1.47,8.22,8.22,0,0,1,1.29-3.63.61.61,0,1,0-1-.67,9.34,9.34,0,0,0-1.48,4.3,3.86,3.86,0,0,0,0,.6h0C1260.68,305.48,1261.17,305.87,1261.83,305.45Z"/><path class="cls-21" d="M1183.87,218.74s-17.07,51.72-18,64.19,25.83,13,38,13.87c13.64,1,40.83,1.5,40.83,1.5l.49-11.15s-14.36-4.58-25.81-7.09-30.9-4.8-30.9-4.8l27.08-57.67Z"/><path class="cls-22" d="M1240.8,286.13s1.26-2.1,5.31.07c0,0-.6,6.81-1.35,12.7a8.52,8.52,0,0,1-5.37-.31A73,73,0,0,0,1240.8,286.13Z"/><path class="cls-23" d="M1205.39,217.1s-22,58.58-22.6,74.13,6.68,82.45,6.68,82.45l10.68,1.3s9.49-43.39,3.51-71c0,0,27.67-66,29.56-80.94S1205.39,217.1,1205.39,217.1Z"/><path class="cls-24" d="M1226.57,233.35s-13.37,47-28,71.13a79,79,0,0,1,3.84,23.93c0,15.84-3.23,35.8-3.23,35.8"/><path class="cls-22" d="M1201.93,368.49a8.46,8.46,0,0,1,.44,7.62s-7,.31-12.95.08c0,0-1.41-5.3-.45-7.76A109.74,109.74,0,0,0,1201.93,368.49Z"/><path class="cls-25" d="M1187,140.82c-1.3.41-2.6.8-3.9,1.18-2.89.82-5.78,1.54-8.66,2.12-1.44.29-2.87.54-4.3.75l-.81.11-.21,0-.14-.21-.32-.45,0,0-.17-.25-.52-.79c-.23-.36-.46-.7-.69-1.07l-.68-1.1c-.23-.36-.45-.73-.67-1.12-1.79-3-3.48-6.15-5.14-9.33-.81-1.6-1.65-3.19-2.43-4.82s-1.61-3.23-2.38-4.87-1.57-3.27-2.32-4.92l-2.28-5,0,0a3.83,3.83,0,0,0-4.64-2.06c-2,.63-2.36,1.67-1.73,3.7l1.32,5.8c.54,1.76,1,4,1.53,5.73s.9,3.62,1.5,5.38,1.23,3.5,1.86,5.25c1.29,3.5,2.61,7,4.14,10.51.18.44.38.88.58,1.32l.6,1.32c.19.44.42.89.63,1.33s.43.89.66,1.34l.71,1.36c.25.45.53.93.8,1.39.13.23.3.49.45.73l.24.37.12.19.14.2.29.41.15.2.18.23.4.49.33.35.17.17.1.1.13.11.26.22a6.36,6.36,0,0,0,4.08,1.41h.42c1.76-.1,3.49-.27,5.19-.49s3.38-.49,5-.79c3.16-.59,6.25-1.3,9.3-2.11Z"/><path class="cls-26" d="M1186.44,139.32a64.77,64.77,0,0,1-15.93,4.61,100.28,100.28,0,0,1-.8,16s13.57,0,17.32-3.89c3.16-3.26,5.77-4.95,5-10.49C1191.77,143.9,1189.16,138.05,1186.44,139.32Z"/><path class="cls-25" d="M1166.56,150a.43.43,0,0,0,.49-.13.64.64,0,0,0,.08-.14,31,31,0,0,1,2.24-4.73l-.21,0-.14-.21-.32-.45c-.19.32-.37.65-.55,1a31.06,31.06,0,0,0-1.86,4.07A.44.44,0,0,0,1166.56,150Z"/><path class="cls-25" d="M1165.22,146.9a.46.46,0,0,0,.49.15l.14-.08a27.26,27.26,0,0,1,2.3-1.64l.87-.53-.32-.45,0,0-.17-.25a29.46,29.46,0,0,0-3.21,2.21A.45.45,0,0,0,1165.22,146.9Z"/><path class="cls-27" d="M1145.43,102.76s1-5.44-.11-7.84-1.13-7.28-2-7.67-1.24,3.2-.38,6.41S1145.43,102.76,1145.43,102.76Z"/><path class="cls-25" d="M1144.69,101.48s-1.32-4.66-2.24-4.74-1.55,3.24.26,7.56c.53,1.28.3,3.29.86,5.67a3.55,3.55,0,0,0,6.17,1.53,7.48,7.48,0,0,0,1-1.5s.13-9.6-1.92-12.94-3-9.74-3.92-10.54-1.28,3.11-1,5.85S1144.69,101.48,1144.69,101.48Z"/><path class="cls-5" d="M1225.33,224c-5.38,1.38-25,1.49-35.8-.22a26.42,26.42,0,0,1-5.16-1.24,5.9,5.9,0,0,1-1-.45c-.66-.38-1-.79-1-1.25,0-.24,0-.54,0-.9h0c0-.73.11-1.69.21-2.84.18-2,.44-4.58.74-7.45h0c.82-7.71,2-17.54,2.58-24.29.07-.78.13-1.51.19-2.2,0-.28.05-.56.07-.82,0-.6.08-1.14.12-1.64l0-.53c0-.6.09-1.16.14-1.68.08-.88.18-1.67.27-2.37.62-4.91,1.12-5.93-2.1-10.66-6-8.82-.66-12.57,0-15.34s-1.19-10.38,3-12.75a58.6,58.6,0,0,1,5.58-2.37c.33-.11.65-.2,1-.29a17.07,17.07,0,0,1,4.87-.59,54.43,54.43,0,0,1,11.68.75l.91.18c7.3,1.53,11.53,4.67,13.18,8,1.26,2.58,2.27,8.45,3.13,15.65,0,.32.08.64.11,1,1.16,10,2.05,22.42,2.91,32.09.07.83.15,1.64.22,2.42,0,.56.1,1.12.16,1.65.07.79.15,1.54.23,2.26,0,.28,0,.55.08.82.09.78.18,1.51.26,2.2a44.92,44.92,0,0,0,.83,4.92C1236.81,221.9,1233.4,221.9,1225.33,224Z"/><path class="cls-26" d="M1238.33,151.48s5.15,8-2.13,17.81a15,15,0,0,1-2.72-7.84A11.12,11.12,0,0,1,1238.33,151.48Z"/><path class="cls-28" d="M1286.21,156.63a3.47,3.47,0,0,0-3.89-1.66l-.11,0-2.42.65c-.8.23-1.6.47-2.4.67-1.61.44-3.21.88-4.8,1.29-.8.2-1.59.42-2.39.6l-2.38.58-2.37.52c-.79.18-1.58.33-2.36.49l-1.17.21-1.17.21c-.78.13-1.55.24-2.31.35l-1.14.13c-.38.06-.74.07-1.11.11s-.72.06-1.08.08-.69,0-1,0h-.68l-.18,0h0l-.29-.07-.24,0-.11,0c-.23-.05-.46-.12-.71-.19l-.11,0q-.27-.07-.54-.18a36.3,36.3,0,0,1-3.94-1.68,92.55,92.55,0,0,1-8.2-4.66c-.63-.39-1.27-.8-1.9-1.21-2.1-1.34-4.19-2.74-6.25-4.19-1.35-.94-2.7-1.88-4-2.85l-4-2.91-1.41-1a148.81,148.81,0,0,0-.8,15.06c1,.73,2,1.46,3.08,2.16q2.16,1.47,4.36,2.89c1.47.94,3,1.87,4.48,2.77.79.46,1.58.92,2.39,1.37s1.51.83,2.29,1.24c1.59.84,3.23,1.64,4.94,2.39.86.37,1.74.74,2.65,1.08s1.86.66,2.85.94a25,25,0,0,0,3.21.72l.47.06.49.07h.12l.31,0h1.3l.41,0,.81-.07c.5-.06,1-.11,1.5-.19s1-.14,1.43-.24.94-.17,1.39-.28l1.36-.31c.46-.1.89-.23,1.33-.34s.89-.23,1.32-.37c.86-.26,1.74-.5,2.58-.79l1.27-.43c.42-.14.85-.28,1.26-.45l2.48-.93,2.44-1c.81-.34,1.6-.71,2.4-1.07l1.19-.54.59-.26.59-.3,2.33-1.15c1.55-.79,3.07-1.63,4.58-2.47A3.47,3.47,0,0,0,1286.21,156.63Z"/><path class="cls-28" d="M1285.13,161c-1.36-.43-4.14-3.84-2.21-8.09,1.8-3.94,1.41-5.52,3.1-8.21,1.46-2.33,1.49,0,1.47,2.27s-.55,3.1,1.39,2.65,8.65-5.52,10.86-5.66-6.33,6.32-6.33,6.32,8.07-4.24,9.07-3.45c1.19.94-7.17,5.95-7.17,5.95s7.36-2.61,7.63-2.07c.52,1-6.41,4.8-6.41,4.8s5.17-1.54,5.06-.58S1291.85,160.94,1285.13,161Z"/><path class="cls-29" d="M1286.31,156.14a5.35,5.35,0,0,0,3.32-1.87.27.27,0,0,0,0-.38.27.27,0,0,0-.39,0c-.08.11-2.12,2.6-4.47,1.29a.28.28,0,0,0-.27.48A3.37,3.37,0,0,0,1286.31,156.14Z"/><path class="cls-29" d="M1293.34,156.22a.29.29,0,0,0,.22-.13.28.28,0,0,0-.09-.38,5.28,5.28,0,0,1-2.36-4.17.28.28,0,0,0-.55,0,5.76,5.76,0,0,0,2.62,4.63A.25.25,0,0,0,1293.34,156.22Z"/><path class="cls-29" d="M1252.67,166.44a.42.42,0,0,0,.34-.32.38.38,0,0,0,0-.15,28.38,28.38,0,0,1-.31-5.2l-.11,0c-.23-.05-.46-.12-.71-.19,0,.48,0,1,0,1.46a26.75,26.75,0,0,0,.33,4.09A.4.4,0,0,0,1252.67,166.44Z"/><path class="cls-29" d="M1250.68,164.47a.36.36,0,0,0,.08-.12,23.76,23.76,0,0,1,1.11-2.34c.23-.43.47-.85.72-1.27-.23-.05-.46-.12-.71-.19l-.11,0A27.07,27.07,0,0,0,1250,164a.41.41,0,0,0,.68.43Z"/><path class="cls-26" d="M1238.33,151.48a9.59,9.59,0,0,0-1.51,1.69,14.14,14.14,0,0,0-2,12.22,22.31,22.31,0,0,0,1.4,3.9c-.18-.11-11.61-6.78-16.76-11.08a18.2,18.2,0,0,1-1.42-3.89h0a22.92,22.92,0,0,1,.78-13.92c.21-.56.45-1.14.72-1.71A137.12,137.12,0,0,0,1238.33,151.48Z"/><path class="cls-26" d="M1194.22,140.47c1,1.36,2.62,2.05,4.88,2.05h.4a15.12,15.12,0,0,0,12.2-7.27l-.91-.23a14.12,14.12,0,0,1-11.32,6.6c-2.15.08-3.67-.48-4.53-1.67-1-1.42-1-3.51-.7-5.12-.31.1-.63.22-1,.35A7.44,7.44,0,0,0,1194.22,140.47Z"/><path class="cls-25" d="M1208.68,135a12.24,12.24,0,0,1-12.14,2.55l.31-13.07,10.07-3.34,1.62-.54Z"/><path class="cls-29" d="M1206.92,121.13s-2.57,11.63-10.3,12.93l.23-9.59Z"/><path class="cls-25" d="M1211.48,112.79a13.27,13.27,0,0,1-.79,4.12c-.08.25-.18.51-.27.76-.19.47-.39,1-.61,1.43h0a23.44,23.44,0,0,1-1.25,2.31c-4.41,7.18-12.79,12.1-18.11,6.93-4.22-4.1-4.76-11.11-4.52-17.07l0-.77c.06-1.12.14-2.19.22-3.19a10.74,10.74,0,0,1,.76-3.11h0a10.32,10.32,0,0,1,8.36-6.28c3.65-.41,7.56,0,9.89,1,3.19,1.45,5,3.17,5.75,6.78a22.2,22.2,0,0,1,.43,3.08c0,.31,0,.62.06,1,0,.49,0,1,0,1.56S1211.49,112.27,1211.48,112.79Z"/><path class="cls-19" d="M1196.5,109.31s-1.12.14-1.06.9.8.57,1.37.47a6.12,6.12,0,0,1,2.6,0,2.94,2.94,0,0,1,1.82,1.4S1201.15,109,1196.5,109.31Z"/><path class="cls-19" d="M1190.48,110.37c-.06.69-.73.53-1.25.43a5.88,5.88,0,0,0-2.37,0,2.79,2.79,0,0,0-.93.46l0-.77a4.35,4.35,0,0,1,3.55-.94S1190.54,109.68,1190.48,110.37Z"/><path class="cls-19" d="M1210.69,116.91c-.08.25-.18.51-.27.76-.19.47-.39,1-.61,1.43h0a23.44,23.44,0,0,1-1.25,2.31,4.27,4.27,0,0,1-1.34-2.1Z"/><path class="cls-19" d="M1197.72,102s-2,5.75,3.43,5.43,3.21,4.35,6,6,7.8-4.27,3.83-12.08-16.26-6.95-19.47-5.08c-3.85,2.23-6.88,6.88-5.54,13.61C1185.94,109.85,1196.53,106.86,1197.72,102Z"/><path class="cls-25" d="M1208.06,109.48s3.57-1.74,4.45,2.43-3.18,7.83-6.81,7.57C1205.7,119.48,1206.28,111.25,1208.06,109.48Z"/><path class="cls-29" d="M1207.61,116.46a.38.38,0,0,0,.37-.32,6.4,6.4,0,0,1,2.43-3.91.38.38,0,0,0,.1-.53.38.38,0,0,0-.53-.11,7.08,7.08,0,0,0-2.75,4.42.39.39,0,0,0,.31.45Z"/><path class="cls-29" d="M1210.57,114.59a.36.36,0,0,0,.33-.21.38.38,0,0,0-.16-.52,4.34,4.34,0,0,0-2.31-.48.39.39,0,0,0-.31.45.39.39,0,0,0,.45.31,3.41,3.41,0,0,1,1.82.41A.39.39,0,0,0,1210.57,114.59Z"/><path class="cls-19" d="M1196.28,113.88a1.17,1.17,0,0,0,1,1.32c.54,0,1-.56,1-1.29a1.18,1.18,0,0,0-1-1.32C1196.74,112.58,1196.29,113.16,1196.28,113.88Z"/><path class="cls-19" d="M1187.32,113.87c0,.72.38,1.32.89,1.33s.92-.57.94-1.3-.39-1.31-.89-1.32S1187.33,113.15,1187.32,113.87Z"/><path class="cls-4" d="M1191,124.15a18.7,18.7,0,0,0,6.2-.92,3.91,3.91,0,0,1-3.43,2.73A3,3,0,0,1,1191,124.15Z"/><path class="cls-29" d="M1191.22,120.6a5.81,5.81,0,0,0,1.3-.19.41.41,0,0,0,.31-.5.42.42,0,0,0-.5-.31,4.34,4.34,0,0,1-1.39.15c0-.69.5-3.81,1-6.59a.42.42,0,1,0-.83-.13c-.24,1.48-1,6.35-.94,6.92a.63.63,0,0,0,.28.46A1.47,1.47,0,0,0,1191.22,120.6Z"/><path class="cls-20" d="M737.42,299.54c-1.91,7.25-1.51,15.42-.81,26.92l-1.38,27.09a14.43,14.43,0,0,0,9.19,1.12L752,301Z"/><path class="cls-26" d="M768.26,365.62c-.78,1.66-35.09-.13-35.09-.13s-1.09-10.18,0-13.32,6.08.39,9.51-.4c0,0,2.05-2.85,3.72-2.75.61,0,2.77,1.42,5.47,3.2l1.36.89,1,.65,1.62,1.06c.21.13.42.26.62.4h0l1.51.95c3,1.87,5.85,3.46,7.5,3.75C769.85,360.7,769,364,768.26,365.62Z"/><path class="cls-4" d="M755.81,354.82a3.16,3.16,0,0,0-1.88.37,8.37,8.37,0,0,0-2.65,2.89.59.59,0,0,1-.35.29.62.62,0,0,1-.48-.05.61.61,0,0,1-.24-.84,9.33,9.33,0,0,1,3.16-3.38,4.33,4.33,0,0,1,.82-.34C755.09,353.83,755.84,354,755.81,354.82Z"/><path class="cls-4" d="M753.21,353.11a3.59,3.59,0,0,0-1.14.37,8.37,8.37,0,0,0-2.65,2.89.63.63,0,0,1-.35.29.58.58,0,0,1-.48-.05.62.62,0,0,1-.25-.84,9.54,9.54,0,0,1,3.16-3.38,3.7,3.7,0,0,1,.35-.17C752.43,352.27,753.08,352.24,753.21,353.11Z"/><path class="cls-4" d="M757.94,356.17a3.19,3.19,0,0,0-1.5.39,8.58,8.58,0,0,0-2.65,2.89.63.63,0,0,1-.35.29.58.58,0,0,1-.48-.05.61.61,0,0,1-.25-.83,9.53,9.53,0,0,1,3.16-3.39,5.38,5.38,0,0,1,.56-.25h0C757.41,355.12,758,355.37,757.94,356.17Z"/><path class="cls-21" d="M742.56,233l-2.73,41.31c-6.69,17.46-5.18,62.94-4.48,70.22l11.7-.5,26.24-139.17-28.34,1Z"/><path class="cls-23" d="M749.6,342c1,2.06,1.14,4.69.15,5.95l-16.58,1.38c-1.32-1.06-1.81-4.78-.83-5.88Z"/><path class="cls-20" d="M708.82,290.33c-4.17,6-7.47,14.58-10.4,25.6l-7.94,24.23s2.12,2.35,7.53,4l23.81-48.59Z"/><path class="cls-23" d="M722.51,204.45s-3.39,35.25-4.38,62.62c0,0-26.47,53.25-27.91,64.43l15.27,6.79s27.32-55.05,32.76-67.66l15.64-64Z"/><path class="cls-21" d="M711.87,291.16l-.21,0a.82.82,0,0,1-.59-1c1.94-7.65,9.9-20.55,11.15-22.56-2-17.5,3.57-59.44,3.8-61.23a.82.82,0,0,1,1.63.22c-.06.43-5.78,44-3.77,61.11a.82.82,0,0,1-.12.53c-.09.15-9.1,14.46-11.1,22.34A.82.82,0,0,1,711.87,291.16Z"/><path class="cls-26" d="M710.15,366.48H696c-.33-.3-1-1.07-1.82-1.86L681.81,351.8a1.71,1.71,0,0,1-.27-2c1.43-2.59,5-9,6.59-10.44,2-1.89,3.35-.52,3.35-.52s3.41,4.39,5.13,3.64c2-.88,3.86-1.6,4.21,2.76a30.36,30.36,0,0,0,2.64,9.27s2.09,3.59,5,5c3.32,1.63,3.56,4.05,3.32,5.56A1.67,1.67,0,0,1,710.15,366.48Z"/><path class="cls-4" d="M702.56,351.7a3.14,3.14,0,0,0-1.6-1.06,8.33,8.33,0,0,0-3.91.2.62.62,0,0,1-.77-.41.62.62,0,0,1,.41-.77,9.55,9.55,0,0,1,4.63-.2,5.31,5.31,0,0,1,.83.34C702.73,350.48,703.13,351.15,702.56,351.7Z"/><path class="cls-4" d="M701.9,348.65a3.39,3.39,0,0,0-1.06-.53,8.22,8.22,0,0,0-3.92.2.61.61,0,0,1-.46,0,.66.66,0,0,1-.31-.38.61.61,0,0,1,.42-.76,9.39,9.39,0,0,1,4.63-.2l.36.13C701.94,347.51,702.42,347.93,701.9,348.65Z"/><path class="cls-4" d="M703.13,354.15a3.36,3.36,0,0,0-1.34-.77,8.38,8.38,0,0,0-3.92.2.61.61,0,0,1-.46,0,.67.67,0,0,1-.31-.37.63.63,0,0,1,.42-.77,9.53,9.53,0,0,1,4.63-.2c.2.06.39.14.57.21h0C703.49,353,703.73,353.62,703.13,354.15Z"/><path class="cls-30" d="M794.9,173l0,0q-5.24-4-10.32-8.13c-3.37-2.75-6.69-5.56-9.8-8.42-1.56-1.42-3.07-2.87-4.42-4.3-.52-.55-1-1.09-1.46-1.62l-.41-.49-.34-.43-.05-.06-.34-.46-.14-.21c-.05-.07-.08-.13-.13-.19s-.12-.22-.18-.32l0-.07v0h0l0-.1c0-.06-.05-.12-.08-.21s0-.13-.07-.2l-14.16,5.45.15.37c.07.17.15.36.24.55l.13.29.08.17.1.2.19.38.1.19.09.16.38.65c.24.37.5.76.73,1.08l.36.49.36.45c.24.31.46.57.69.85l.69.78c.91,1,1.81,1.9,2.7,2.75,1.79,1.71,3.58,3.25,5.37,4.74,3.59,3,7.21,5.74,10.87,8.43s7.33,5.28,11,7.84l.11.07a6.12,6.12,0,0,0,8.61-1.73c.17-.25.33-.5.49-.75A6.12,6.12,0,0,0,794.9,173Z"/><path class="cls-20" d="M801.4,177.23q-1.56,2.86-3.26,5.66l-.37.62q-1.28,2.06-2.59,4.08l-.24-.22c-1.07-1.11-4.26-4.23-4.71-6.37-.28-1.3.58-3.54,2.73-4.93a4.73,4.73,0,0,1,3.32-.39,16.12,16.12,0,0,1,4.36,1.16C800.85,176.94,801.11,177.07,801.4,177.23Z"/><polygon class="cls-17" points="805.24 175.71 804.85 177.31 804.17 180 804.04 180.51 803.47 182.8 802.85 185.29 802.82 185.41 802.11 188.26 801.48 190.8 800.69 193.96 791.8 192.54 791.85 191.8 792.08 188.65 792.21 186.75 792.43 183.63 792.43 183.58 792.57 181.69 792.78 178.72 792.79 178.51 792.93 176.62 793.13 173.78 805.24 175.71"/><polygon class="cls-4" points="804.04 180.51 803.47 182.8 802.85 185.29 792.43 183.63 792.43 183.58 792.57 181.69 792.78 178.72 804.04 180.51"/><rect class="cls-31" x="792.61" y="172.37" width="13.53" height="2.4" transform="translate(37.14 -123.3) rotate(9.03)"/><path class="cls-31" d="M795.45,170.36H804a1.48,1.48,0,0,1,1.48,1.48v.56a0,0,0,0,1,0,0H794a0,0,0,0,1,0,0v-.56A1.48,1.48,0,0,1,795.45,170.36Z" transform="translate(36.8 -123.38) rotate(9.03)"/><path class="cls-32" d="M805.88,178.42a1.92,1.92,0,0,0-.84-1.88l-.58,2.31A1.36,1.36,0,0,0,805.88,178.42Z"/><path class="cls-20" d="M805.88,178.42a22.31,22.31,0,0,1-3.5-.35c-1.34-.19-4.45-.11-3.55.93.72.83,4.72,1.3,5.37,2,0,0-2.06-.36-3.79-.75-1.56-.36-4.17-.39-3.47.43s2.83,1.41,3.57,1.73c1,.41,2.24.89,2.24.89a33.17,33.17,0,0,0-3.77-.53c-1-.08-3.52-.8-3.18.62.18.71,3.66,1.62,5.27,2.43,0,0-3.28-.69-4.5-.21-1,.38,0,.85,1.17,1.43a31.44,31.44,0,0,0,3.06,1.21c1,.38,2.88.33,3.31-.65s0-1.62.45-2.18,1.21-1.36,1.19-2a3,3,0,0,1,.66-2A2.08,2.08,0,0,0,805.88,178.42Z"/><path class="cls-14" d="M771.39,209.57c-5.32,2.79-40.55,2.26-48.43-2.24-2.43-1.39-3.55-10.37-3.89-22.38,0-.28,0-.56,0-.84s0-.54,0-.81c0-.65,0-1.31,0-2,0-1.19,0-2.41,0-3.65,0-.41,0-.82,0-1.23v-1.56c0-.77,0-1.55,0-2.33,0-.45,0-.9,0-1.35s0-.85,0-1.28,0-.78,0-1.17c0-.11,0-.22,0-.33l0-1.75c0-.21,0-.41,0-.61,0-.81,0-1.61.05-2.42,0-1.87.11-3.76.17-5.65,0-.88.06-1.77.1-2.65l.06-1.68,0-.75c0-1.38.11-2.75.17-4.12l0-.62c.05-1,.1-2.06.16-3.08l0-.72c0-.42,0-.84.07-1.25l0-.76c0-.29,0-.58,0-.87s0-.62,0-.93,0-.8.07-1.2,0-.63,0-.94,0-.58.05-.86l0-.54c0-.55.07-1.09.1-1.63,0-.24,0-.48,0-.71.37-6,.76-11.3,1.13-15.6.07-.73.13-1.43.19-2.1.1-1.16.21-2.23.3-3.18.08-.71.15-1.36.21-1.93.13-1.06.24-1.89.33-2.44,1.21-7,14.15-14,20.58-17a9.62,9.62,0,0,1,7.11-.47L757,94.11c5.79,1.87,9.49,5.5,11.35,10.64.15.39.28.8.4,1.22a28.11,28.11,0,0,1,1,8c0,2.35.09,5.26.12,8.08,0,.43,0,.86,0,1.28,0,.62,0,1.24,0,1.83,0,.12,0,.23,0,.35v1.89c0,1.31,0,2.64,0,4,0,.49,0,1,0,1.48,0,.24,0,.48,0,.71l0,1.15v.08l0,.94c0,.29,0,.57,0,.86s0,.63,0,.94c0,1,.08,2,.12,3,0,.13,0,.27,0,.4s0,.32,0,.49l.09,2.36c0,.3,0,.6,0,.89l.06,1.33c0,.45,0,.89,0,1.33,0,.15,0,.3,0,.45s0,.31,0,.47v.41a.08.08,0,0,0,0,0l0,1.07,0,1v0q0,.54,0,1.05c0,.85,0,1.67,0,2.45,0,.54,0,1.06,0,1.56,0,.34,0,.67,0,1,0,.15,0,.31,0,.46q0,.69,0,1.44c0,.9,0,1.84,0,2.82,0,.61,0,1.24.07,1.88,0,.3,0,.61,0,.92s0,.52,0,.78,0,.61.05.92,0,.37,0,.56,0,.19,0,.29c0,.3,0,.6.07.91s0,.75.08,1.13c.05.77.11,1.55.18,2.33l0,.45c0,.15,0,.3,0,.44,0,.57.09,1.14.14,1.71,0,.25,0,.49.07.73s0,.53.07.79c0,.47.09.94.13,1.42s.09.9.13,1.35c.08.88.17,1.76.25,2.64,0,.33.06.66.1,1,.08.93.17,1.85.26,2.77C773.61,196.87,774.39,208,771.39,209.57Z"/><path class="cls-20" d="M743.64,94.15c5.2,9.27,13.51,3,13.51,3l-.34-14.45-11.29-3.45-1.81-.55Z"/><path class="cls-32" d="M745.52,79.26s2.86,12.07,11.52,13.4l-.23-10Z"/><path class="cls-32" d="M763.65,67.32s3.37-2.08,5,2-2.12,9.36-6,8.5C762.68,77.86,762.13,69.44,763.65,67.32Z"/><path class="cls-20" d="M741.12,70.6a14.63,14.63,0,0,0,1.11,5.07c.19.49.4,1,.63,1.48h0c4,8.67,14.12,17.77,20.07,11.12,5-5.62,5-16.63,4.45-23.36a10.69,10.69,0,0,0-9.48-9.75c-3.78-.43-7.85-.06-10.26,1-3.31,1.5-5.14,3.29-6,7a23.81,23.81,0,0,0-.44,3.2c0,.31-.05.64-.06,1,0,.51,0,1.06,0,1.62S741.11,70.06,741.12,70.6Z"/><path class="cls-16" d="M741.35,63.73s-3.48.23-4.54,2.41,4.61,1.83,5.93,1.06Z"/><path class="cls-22" d="M741.12,69c3,.58,6.27,1.64,7.69,0,0,0-.25-2,2.85-3.9a2.94,2.94,0,0,0,1.1-3.51l-11.09,1.61a23.81,23.81,0,0,0-.44,3.2c0,.31-.05.64-.06,1C741.14,67.92,741.13,68.47,741.12,69Z"/><path class="cls-16" d="M741.23,66.43A13.49,13.49,0,0,1,743.14,55c4-5.71,15.42-5.43,19.2-1.89a13.74,13.74,0,0,1,4.22,8.53S750.87,59.22,741.23,66.43Z"/><path class="cls-16" d="M751.84,62s19.27-10.34,26.46-7-10.92,9.93-10.92,9.93a8.93,8.93,0,0,0-.82-3.29S756.67,61.06,751.84,62Z"/><path class="cls-32" d="M742.23,75.67c.19.49.4,1,.63,1.48h0a7.75,7.75,0,0,0,3.94,1.17H747a.4.4,0,0,0,.37-.42.41.41,0,0,0-.43-.38h-.14A7,7,0,0,1,742.23,75.67Z"/><path class="cls-20" d="M744.67,67.16s-3.71-1.8-4.62,2.53,3.65,8.88,7.29,7.4C747.34,77.09,746.52,69,744.67,67.16Z"/><path class="cls-32" d="M745.13,74.41a.39.39,0,0,1-.38-.33A6.61,6.61,0,0,0,742.23,70a.4.4,0,0,1,.45-.67,7.45,7.45,0,0,1,2.86,4.59.39.39,0,0,1-.33.46Z"/><path class="cls-32" d="M742.06,72.47a.4.4,0,0,1-.17-.76,4.55,4.55,0,0,1,2.4-.5.4.4,0,0,1-.15.79,3.56,3.56,0,0,0-1.88.42A.49.49,0,0,1,742.06,72.47Z"/><path class="cls-32" d="M762.16,78.7a6.24,6.24,0,0,1-1.36-.19.43.43,0,0,1-.32-.52.44.44,0,0,1,.52-.32,4.36,4.36,0,0,0,1.44.15c0-.71-.51-3.95-1-6.84a.43.43,0,0,1,.36-.49.42.42,0,0,1,.49.36c.25,1.53,1.06,6.59,1,7.18a.67.67,0,0,1-.3.48A1.52,1.52,0,0,1,762.16,78.7Z"/><path class="cls-22" d="M756.53,71.73c0,.75-.31,1.36-.72,1.37s-.76-.59-.78-1.35.32-1.36.73-1.37S756.52,71,756.53,71.73Z"/><path class="cls-22" d="M752.35,69.8a.58.58,0,0,1-.26-.13.64.64,0,0,1-.1-.91,4.51,4.51,0,0,1,5.41-1.34.65.65,0,1,1-.56,1.17,3.26,3.26,0,0,0-3.84,1A.65.65,0,0,1,752.35,69.8Z"/><path class="cls-22" d="M765.8,71.73c0,.75-.31,1.36-.72,1.37s-.76-.59-.78-1.35.32-1.36.73-1.37S765.79,71,765.8,71.73Z"/><path class="cls-22" d="M762.57,68.52a.55.55,0,0,1-.17-.2.58.58,0,0,1,.25-.77,4,4,0,0,1,4.84.87.57.57,0,1,1-.87.74,2.85,2.85,0,0,0-3.45-.59A.59.59,0,0,1,762.57,68.52Z"/><path class="cls-4" d="M763.76,81.35a24.3,24.3,0,0,1-8.08-1.21s1,3.45,4.46,3.56A3.85,3.85,0,0,0,763.76,81.35Z"/><path class="cls-32" d="M735.18,202.18a17.44,17.44,0,0,1-5.21-.91,6.93,6.93,0,0,1,1.63,1.33c3.08,3.82,6.44,4.89,6.83,4S735.18,202.18,735.18,202.18Z"/><path class="cls-30" d="M724.3,105a123.62,123.62,0,0,0-9.38,10.64,113.81,113.81,0,0,0-8.07,11.76A119.68,119.68,0,0,0,700.3,140c-1.48,3.3-2.81,6.65-4,10-.36,1-.72,2-1.07,3.06L695,154a6.62,6.62,0,0,0,.64,5.05q1.18,2.07,2.43,4.09c3.27,5.39,6.79,10.58,10.47,15.6,4.62,6.29,9.5,12.3,14.56,18.11a4.83,4.83,0,0,0,7.66-5.84h0c-4.13-6.23-8-12.58-11.57-19.06-2.87-5.22-5.51-10.53-7.88-15.91l0-.07c-.09-.21-.18-.41-.26-.61s.1-.29.16-.44l.06-.16c.31-.86.63-1.72,1-2.57.75-2,1.55-3.88,2.4-5.77a104.57,104.57,0,0,1,5.7-11,97.53,97.53,0,0,1,7-10.15,109,109,0,0,1,8.19-9.3h0a7.81,7.81,0,1,0-11.12-11Z"/><path class="cls-31" d="M696.27,150c-.36,1-.72,2-1.07,3.06L695,154a6.62,6.62,0,0,0,.64,5.05q1.18,2.07,2.43,4.09C699.79,160.46,702,155.12,696.27,150Z"/><path class="cls-32" d="M736.18,200.67s3.19,2.09,4.25,4.51,5.68,6,4.19,7.22c-1.26,1-6.78-6.77-9.47-8.43S736.18,200.67,736.18,200.67Z"/><path class="cls-20" d="M733.68,202.12s5.41,2,7,4.28,5.94,4.9,5.81,5.9-3.54-.59-6-3.07S733.68,202.12,733.68,202.12Z"/><path class="cls-20" d="M730,193.5a8,8,0,0,0-1.87.07,3.68,3.68,0,0,0-2.8,5.1h0a6.58,6.58,0,0,0,1.5,1.83l.1.09.39.31c2.76,2.13,7.11,2.56,7.11,2.56s5.44,3.9,7.76,5.6,6,3.51,5.8,2.21-5.48-5.51-7.39-9.14S730,193.5,730,193.5Z"/><path class="cls-20" d="M727.32,200.91l-.39-.31.33.27Z"/><path class="cls-21" d="M688.85,330.62a9.52,9.52,0,0,0-3,7.14s11.13,5.28,16.78,7.44c0,0,3.44-4.39,3.53-7.08C706.12,338.12,696,334.1,688.85,330.62Z"/><g class="cls-11"><path d="M855.55,159.1a10.8,10.8,0,0,1-4.24-4.71,18.38,18.38,0,0,1,0-14.45,10.8,10.8,0,0,1,4.24-4.71,12.49,12.49,0,0,1,6.51-1.64,14,14,0,0,1,4.77.81,11.44,11.44,0,0,1,3.89,2.32,1.74,1.74,0,0,1,.61,1.31,1.45,1.45,0,0,1-.31.93.87.87,0,0,1-.71.39,2.15,2.15,0,0,1-1.09-.41,13.71,13.71,0,0,0-3.49-2.11,10,10,0,0,0-3.59-.6,8.22,8.22,0,0,0-6.72,2.84q-2.35,2.85-2.36,8.08c0,3.51.79,6.22,2.36,8.11a8.22,8.22,0,0,0,6.72,2.84,10.07,10.07,0,0,0,3.58-.6,13.75,13.75,0,0,0,3.5-2.11,2.15,2.15,0,0,1,1.09-.41.87.87,0,0,1,.71.37,1.45,1.45,0,0,1,.31,1,1.74,1.74,0,0,1-.61,1.31,11.44,11.44,0,0,1-3.89,2.32,14,14,0,0,1-4.77.81A12.49,12.49,0,0,1,855.55,159.1Z"/><path d="M880.57,159.08a10.86,10.86,0,0,1-4.2-4.7,16.43,16.43,0,0,1-1.47-7.2,16.88,16.88,0,0,1,1.45-7.24,10.62,10.62,0,0,1,4.18-4.71,13.54,13.54,0,0,1,12.92,0,10.62,10.62,0,0,1,4.18,4.71,16.8,16.8,0,0,1,1.45,7.21,16.54,16.54,0,0,1-1.47,7.21,10.86,10.86,0,0,1-4.2,4.72,13.24,13.24,0,0,1-12.84,0Zm13-3.82c1.57-1.89,2.35-4.6,2.35-8.11s-.77-6.22-2.33-8.1a9.06,9.06,0,0,0-13.16,0q-2.35,2.85-2.35,8.08c0,3.49.78,6.18,2.35,8.09a9,9,0,0,0,13.14,0Z"/><path d="M925.55,134.14a1.69,1.69,0,0,1,.37,1.15V159a1.65,1.65,0,0,1-.39,1.15,1.45,1.45,0,0,1-1.11.44,1.61,1.61,0,0,1-1.25-.64l-15.62-20.9V159a1.61,1.61,0,0,1-.4,1.15,1.37,1.37,0,0,1-1.07.44,1.32,1.32,0,0,1-1.05-.44,1.65,1.65,0,0,1-.38-1.15V135.29a1.65,1.65,0,0,1,.39-1.15,1.45,1.45,0,0,1,1.11-.44,1.64,1.64,0,0,1,1.29.64L923,155.24v-20a1.66,1.66,0,0,1,.4-1.15,1.37,1.37,0,0,1,1.07-.44A1.34,1.34,0,0,1,925.55,134.14Z"/><path d="M939.31,160.19a1.55,1.55,0,0,1-.43-1.15V136.53h-8.1a1.49,1.49,0,0,1-1-.34,1.45,1.45,0,0,1,0-2,1.49,1.49,0,0,1,1-.34H950.1a1.49,1.49,0,0,1,1,.34,1.45,1.45,0,0,1,0,2,1.49,1.49,0,0,1-1,.34H942V159a1.62,1.62,0,0,1-.41,1.15,1.51,1.51,0,0,1-1.13.44A1.55,1.55,0,0,1,939.31,160.19Z"/><path d="M974.87,159.31a1.18,1.18,0,0,1-.43.94,1.53,1.53,0,0,1-1,.38,1.34,1.34,0,0,1-1.31-.91l-2.68-6.1H955.22l-2.71,6.1a1.34,1.34,0,0,1-1.32.91,1.61,1.61,0,0,1-1.06-.4,1.22,1.22,0,0,1-.45-1,1.33,1.33,0,0,1,.15-.6l10.77-23.95a1.65,1.65,0,0,1,.68-.79,2,2,0,0,1,2,0,1.73,1.73,0,0,1,.67.77l10.77,23.95A1.4,1.4,0,0,1,974.87,159.31Zm-18.52-8.25h11.93l-6-13.52Z"/><path d="M983.08,159.1a10.78,10.78,0,0,1-4.23-4.71,18.26,18.26,0,0,1,0-14.45,10.78,10.78,0,0,1,4.23-4.71,12.53,12.53,0,0,1,6.52-1.64,13.88,13.88,0,0,1,4.76.81,11.58,11.58,0,0,1,3.9,2.32,1.73,1.73,0,0,1,.6,1.31,1.5,1.5,0,0,1-.3.93.89.89,0,0,1-.72.39,2.18,2.18,0,0,1-1.09-.41,13.85,13.85,0,0,0-3.48-2.11,10,10,0,0,0-3.6-.6,8.22,8.22,0,0,0-6.72,2.84q-2.36,2.85-2.35,8.08c0,3.51.78,6.22,2.35,8.11a8.22,8.22,0,0,0,6.72,2.84,10.07,10.07,0,0,0,3.58-.6,13.75,13.75,0,0,0,3.5-2.11,2.18,2.18,0,0,1,1.09-.41.89.89,0,0,1,.72.37,1.5,1.5,0,0,1,.3,1,1.73,1.73,0,0,1-.6,1.31,11.58,11.58,0,0,1-3.9,2.32,13.88,13.88,0,0,1-4.76.81A12.53,12.53,0,0,1,983.08,159.1Z"/><path d="M1010.29,160.19a1.55,1.55,0,0,1-.44-1.15V136.53h-8.09a1.52,1.52,0,0,1-1.06-.34,1.48,1.48,0,0,1,0-2,1.52,1.52,0,0,1,1.06-.34h19.31a1.5,1.5,0,0,1,1.06.34,1.45,1.45,0,0,1,0,2,1.5,1.5,0,0,1-1.06.34H1013V159a1.58,1.58,0,0,1-.42,1.15,1.48,1.48,0,0,1-1.13.44A1.53,1.53,0,0,1,1010.29,160.19Z"/><path d="M1038.17,158c-1.78-1.81-2.68-4.47-2.68-8V135.29a1.58,1.58,0,0,1,.42-1.15,1.48,1.48,0,0,1,1.13-.44,1.45,1.45,0,0,1,1.09.44,1.57,1.57,0,0,1,.41,1.15v15q0,3.87,1.91,5.84a9,9,0,0,0,11.16,0c1.26-1.31,1.88-3.26,1.88-5.84v-15a1.55,1.55,0,0,1,.44-1.15,1.65,1.65,0,0,1,2.24,0,1.62,1.62,0,0,1,.41,1.15v14.76q0,5.23-2.69,8c-1.8,1.82-4.41,2.73-7.85,2.73S1040,159.84,1038.17,158Z"/><path d="M1066,159.89a10.89,10.89,0,0,1-4.12-2.28,1.7,1.7,0,0,1-.56-1.31,1.5,1.5,0,0,1,.3-.93.88.88,0,0,1,.71-.39,1.87,1.87,0,0,1,1.06.41,12.65,12.65,0,0,0,8,2.71,8.45,8.45,0,0,0,5-1.24,4.11,4.11,0,0,0,1.73-3.54,2.82,2.82,0,0,0-.83-2.13,6,6,0,0,0-2.18-1.3,33.89,33.89,0,0,0-3.65-1,35.7,35.7,0,0,1-5.07-1.51,7.92,7.92,0,0,1-3.2-2.26,5.83,5.83,0,0,1-1.22-3.84,6.89,6.89,0,0,1,1.22-4,7.93,7.93,0,0,1,3.43-2.71,12.47,12.47,0,0,1,5-1,14.58,14.58,0,0,1,4.91.81,10.26,10.26,0,0,1,3.82,2.32,1.83,1.83,0,0,1,.6,1.31,1.5,1.5,0,0,1-.3.93.88.88,0,0,1-.71.39,2.39,2.39,0,0,1-1.1-.41,12.66,12.66,0,0,0-3.42-2.11,10.75,10.75,0,0,0-3.8-.6,7.91,7.91,0,0,0-4.86,1.3,4.25,4.25,0,0,0-1.73,3.63,3.32,3.32,0,0,0,1.52,3,15.24,15.24,0,0,0,4.69,1.75c2.28.56,4.08,1.06,5.38,1.53a8,8,0,0,1,3.26,2.09,5.23,5.23,0,0,1,1.3,3.73,6.54,6.54,0,0,1-1.22,3.91,8,8,0,0,1-3.45,2.64,12.89,12.89,0,0,1-5.08.94A17.07,17.07,0,0,1,1066,159.89Z"/></g></g></g></svg>