<svg xmlns="http://www.w3.org/2000/svg" viewBox="0 0 1920.55 441.61"><defs><style>.cls-1{fill:#1bbfbf;}.cls-2{fill:#0fa8ba;}.cls-3{fill:#eeedef;}.cls-14,.cls-4{fill:#d9d9e2;}.cls-4{opacity:0.88;}.cls-5{fill:#f7b634;}.cls-6{fill:#efb670;}.cls-7{opacity:0.92;}.cls-8{fill:#e0dfde;}.cls-13,.cls-9{opacity:0.14;}.cls-10,.cls-13{fill:#0097cf;}.cls-11{opacity:0.5;}.cls-12{opacity:0.54;}.cls-15,.cls-16,.cls-26{fill:none;}.cls-15{stroke:#eeedef;}.cls-15,.cls-16{stroke-miterlimit:10;}.cls-16{stroke:#fff;}.cls-17{fill:#ecbc4f;}.cls-18{fill:#e8792e;}.cls-19{fill:#f47f31;}.cls-20{fill:#364056;}.cls-21{fill:#fbb990;}.cls-22{fill:#fff;}.cls-23{fill:#3e4a5e;}.cls-24{fill:#1f3727;}.cls-25{fill:#363f51;}.cls-26{stroke:#0b1b10;stroke-linecap:round;stroke-linejoin:round;stroke-width:2px;}.cls-27{fill:#ffaeab;}.cls-28{fill:#ff9c00;}.cls-29{fill:#f49d9d;}.cls-30{fill:#fab9af;}.cls-31{fill:#fa968c;}.cls-32{fill:#edbc4f;}.cls-33{fill:#f9927d;}</style></defs><title>contactus-dark</title><g id="Layer_2" data-name="Layer 2"><g id="Layer_1-2" data-name="Layer 1"><path class="cls-1" d="M.56,287.47s352.85,27.86,430,0c118-42.65,292.49-27.89,430.42,26.24,131.11,51.45,254.26,3.28,310.77-18s259.24-36.09,457,29.52,291.43-3.08,291.43-3.08l.41,119.45-1920,.05Z"/><path class="cls-2" d="M0,278.23S226.9,232.39,391.65,302.5c130.56,55.57,369.43,32.07,492.57-7.06s397.32-26.77,490.92,28.26c74.88,44,195.77,48.49,269.58,11.42,117.62-59.08,274.87-13.29,274.87-13.29l.41,119.45L0,441.6Z"/><path class="cls-3" d="M772.58.76h398.09a17.18,17.18,0,0,1,17.18,17.18V268.33a23.34,23.34,0,0,1-23.34,23.34H778.74a23.34,23.34,0,0,1-23.34-23.34V17.94A17.18,17.18,0,0,1,772.58.76Z"/><rect class="cls-4" x="777.57" y="25.56" width="388.11" height="244.54"/><path class="cls-5" d="M773.65,0h395.89A18.47,18.47,0,0,1,1188,18.47v13a0,0,0,0,1,0,0H755.18a0,0,0,0,1,0,0v-13A18.47,18.47,0,0,1,773.65,0Z"/><circle class="cls-3" cx="1137.9" cy="17.31" r="2.9"/><circle class="cls-3" cx="1148.04" cy="17.31" r="2.9"/><circle class="cls-3" cx="1157.77" cy="17.31" r="2.9"/><path class="cls-6" d="M801.84,287.23a29.39,29.39,0,0,1,6.58,1.1c2.34.57,4.67,1.16,7,1.82,4.69,1.34,9.23,3.08,13.79,4.76a38.11,38.11,0,0,1,7,3.48c.12.07,0,.26-.1.19a35.16,35.16,0,0,0-6-3.13c-2.28-.88-4.59-1.72-6.89-2.57a122.37,122.37,0,0,0-13.71-4.15,35.53,35.53,0,0,0-7.58-1.4c-.06,0-.07-.1,0-.1Z"/><g class="cls-7"><path class="cls-8" d="M856.26,295.67a53.49,53.49,0,0,0,2-21.82,34.18,34.18,0,0,0-9.36-19.68,59.67,59.67,0,0,0-6.43-5.29c-5.76-4.31-11.52-8.62-17.44-12.71-4.64-3.21-9.52-6.43-12.47-11.14a100.84,100.84,0,0,0,2.09,19.67,42.93,42.93,0,0,0,3.81,11.48c2.9,5.44,7.55,9.77,11.85,14.26A153.89,153.89,0,0,1,844.12,287a34.49,34.49,0,0,0,4.17,5.16,16.35,16.35,0,0,0,7.71,4"/><g class="cls-9"><path class="cls-10" d="M831.14,257.48A94.69,94.69,0,0,1,846,263.7a37,37,0,0,1,10.88,8.74c.52.65,1,1.31,1.47,2a54.19,54.19,0,0,1-2.11,21.22l-.26.51a16.46,16.46,0,0,1-7.71-4,34.92,34.92,0,0,1-4.17-5.15,152.94,152.94,0,0,0-13.77-16.55c-4.31-4.49-9-8.82-11.86-14.26a32.51,32.51,0,0,1-1.62-3.62,71.27,71.27,0,0,1,6.79,2.29C826.13,255.75,828.64,256.61,831.14,257.48Z"/></g><g class="cls-11"><path class="cls-10" d="M816.92,235.67c3.83,8.47,10.8,15.11,17.27,21.74a110.69,110.69,0,0,1,9.12,10.26A70.57,70.57,0,0,1,850.82,280a66.59,66.59,0,0,1,5.25,15.77c.06.28-.38.42-.44.14a71,71,0,0,0-11.91-27c-5.46-7.5-12.6-13.61-18.68-20.62a50.42,50.42,0,0,1-8.28-12.62c0-.1.12-.14.16-.05Z"/></g></g><g class="cls-7"><path class="cls-8" d="M855.12,308.37c-2-8.23-5.93-15.53-12.59-21-4.15-3.43-9-6.06-13-9.68-6.29-5.75-10-13.62-15.46-20.09-7.41-8.72-17.78-14.54-27.92-20.17,10.36,13.8,12,32.44,22.91,45.87,8.93,11,22.95,17.08,36.93,20.94,3.26.9,6.73,1.81,9.09,4.16"/><g class="cls-12"><path class="cls-10" d="M793.08,244.78c9.68,6,15.42,15.94,21.42,25.07a86.34,86.34,0,0,0,10.41,13.49,39.3,39.3,0,0,0,6.59,5.45c2.69,1.75,5.65,3.08,8.39,4.75a49.3,49.3,0,0,1,15,14c.16.24-.22.44-.39.22a54.07,54.07,0,0,0-13.68-13c-2.68-1.75-5.59-3.1-8.34-4.75a38.34,38.34,0,0,1-6.43-4.88c-8.2-7.64-13.12-17.8-19.57-26.72-3.71-5.14-8-9.95-13.45-13.43-.09-.06,0-.19.07-.13Z"/></g><path class="cls-13" d="M801.63,260.33c3.63,2.35,6,6,8.1,9.76s3.87,7.61,6.71,10.8a23.49,23.49,0,0,0,17.44,7.66c3.11,0,6.23-.64,9.32-.57,6.25,5.42,10,12.49,11.91,20.44-2.36-2.35-5.83-3.25-9.1-4.16-14-3.86-28-9.92-36.93-20.94-5.92-7.31-9.11-16.16-12.46-24.94A13.51,13.51,0,0,1,801.63,260.33Z"/></g><path class="cls-5" d="M836.19,298.44c-10.54-6.38-20.91-12.8-33.32-13.94a14.29,14.29,0,0,0-7.18.79c-.73.33-1.49.91-1.47,1.69a1.73,1.73,0,0,0,.38.93c1.07,1.43,3.06,1.87,4.87,2.16,12.46,2,25.6,2.53,36.64,8.41"/><path class="cls-5" d="M852.11,297.27a82.41,82.41,0,0,0-38.49-29.58c-3.32-1.26-6.85-2.33-10.39-1.92-1.33.15-3,1-2.63,2.25a2.22,2.22,0,0,0,.73,1c2.08,1.88,4.78,3,7.42,4,8,3.11,15.94,6.22,23.43,10.25a101.94,101.94,0,0,1,19.93,14"/><path class="cls-6" d="M806.28,268A201.62,201.62,0,0,1,826,276.57a84.88,84.88,0,0,1,9.09,5.43c3,2.1,5.95,4.38,8.81,6.7a33,33,0,0,1,4.06,3.58c1.17,1.32,2.19,2.75,3.4,4,.09.1-.05.26-.14.16-1-1.08-1.92-2.26-2.87-3.4a19.28,19.28,0,0,0-1.56-1.7c-.6-.56-1.27-1.07-1.92-1.59-2.83-2.32-5.69-4.61-8.68-6.75a104.37,104.37,0,0,0-18.83-10.36c-3.67-1.61-7.39-3.1-11.11-4.61,0,0,0-.06,0-.05Z"/><path class="cls-5" d="M853.37,293.87c-4.11-6.23-8.25-12.51-11.19-19.33-2.29-5.31-3.93-11.07-7.85-15.41a4.16,4.16,0,0,0-2.6-1.59,2.93,2.93,0,0,0-2.59,1.47,5.24,5.24,0,0,0-.59,2.94c.15,3.11,1.78,5.94,3.46,8.59,5.52,8.65,9.65,16.65,21.36,23.33"/><path class="cls-6" d="M833.15,264.19c4.07,8.08,8.38,16.15,14.23,23.19.83,1,1.7,2,2.6,2.95s1.89,1.88,2.83,2.83c.09.08,0,.22-.13.14a43.5,43.5,0,0,1-4.81-5,66.2,66.2,0,0,1-4.19-5.41A114.25,114.25,0,0,1,836.57,271c-1.2-2.26-2.35-4.54-3.48-6.83,0,0,0-.06.06,0Z"/><path class="cls-14" d="M1381.33,322.9c-4.89-17.17-22.19-54.75-41.83-52.58-22.65,2.5,22.2,43.52,22.2,43.52s-31.38-24.19-42.71-10.14,38.51,23,38.51,23-26.23-5.45-23.63,5,46.33,7.45,49.39,17.49S1384.68,334.68,1381.33,322.9Z"/><path class="cls-15" d="M1383.18,345c-4.29-18.22-12.1-35.89-23.5-50.78a106.33,106.33,0,0,0-14-15.11"/><path class="cls-15" d="M1382.89,345.33c-11.87-19.67-32.08-34-54.4-37.69"/><path class="cls-15" d="M1382.63,345.48c-10.73-8.73-24.37-13.23-38.06-14.2"/><path class="cls-14" d="M1388.31,322.08c4.89-17.18,22.19-54.75,41.83-52.59,22.65,2.5-22.2,43.53-22.2,43.53s31.38-24.2,42.71-10.15-38.51,23-38.51,23,26.23-5.45,23.63,5-46.33,7.44-49.39,17.49S1385,333.85,1388.31,322.08Z"/><path class="cls-16" d="M1386.46,344.18c4.29-18.22,12.1-35.88,23.5-50.78a105.71,105.71,0,0,1,14-15.11"/><path class="cls-16" d="M1386.75,344.5c11.87-19.67,32.08-34,54.4-37.69"/><path class="cls-16" d="M1387,344.65c10.73-8.73,24.37-13.23,38.06-14.2"/><path class="cls-4" d="M1372.67,305.5c-4.44-26.62-6.19-88,18.78-94.23,28.8-7.19-.58,72.11-.58,72.11s23.27-49.1,45.36-34.6-32.55,50.85-32.55,50.85,28.33-20.14,31.47-4.14-51.35,32.49-49,48.15S1375.72,323.75,1372.67,305.5Z"/><path class="cls-16" d="M1383.73,337.65c-5.78-27.81-7-56.51-2.22-83a150.84,150.84,0,0,1,7.83-28"/><path class="cls-16" d="M1384.27,338c2.48-33.46,18.18-63.36,42.88-79.11"/><path class="cls-16" d="M1384.67,338.06c7.69-17.44,21.41-30.27,37.32-38.14"/><path class="cls-17" d="M582,294.85c.55-6.24-8.32-4.33-11.59-2.4-6.39,3.77-16.35,15.79-18.36,19.66-.09-1.52-.22-3-.4-4.56q-.49-4.24-1-8.48c4.2-1.36,13.27-3.79,20.55-15.07,1.22-1.89,2.67-4.52,1.59-6.77-1.51-3.13-4.24-.68-5.92.92-2.88,2.73-12.1,12.77-16.64,17.2-.65-5.66-1.29-11.32-2-17,7.48-4.09,16.53-9.11,19.72-17.59,2.08-5.55-4.14-5.3-7.32-3.4-5.7,3.4-10.07,9.66-13,15.94-.33-2.66-.67-5.31-1-8l-.18-1.43c3.84-1.69,7.73-2.92,10.88-5.92a16.63,16.63,0,0,0,4.74-11.27c.11-1.85.51-4.08-.78-5.68-1.81-2.23-3.09.79-4,2.5a115.33,115.33,0,0,1-6.47,10.6c-1.29,1.86-2.43,3.65-3.5,5.56a16,16,0,0,1-1.23,1.73c-.54-3.77-1.16-7.55-1.86-11.3,5.18-5,11.39-11.13,12.08-18.74.44-5-4.56-3.4-6.73-1.13-3.37,3.52-5.43,8.55-6.57,13.6-.33-1.63-.68-3.26-1-4.88,4-7.45,9-16.62,7-25.36-1.28-5.55-6.23-2-7.81,1.28a27.92,27.92,0,0,0-2.52,10.6c-.2-.72-.4-1.45-.61-2.17-.49-1.73-1-3.42-1.64-5.09,4.22-5.86,9.34-13,8.68-20.65-.43-5-5.09-2.54-6.83.07-2.76,4.14-3.9,9.63-4.1,14.9-1.06-2.48-2.21-4.92-3.4-7.34,2.67-5.26,5.87-11.64,4.38-17.71-1-4-4.44-1.42-5.52.91a23,23,0,0,0-1.55,11.47c-1.35-2.63-2.71-5.26-4-7.92.32-2.64.44-5.45.51-7.89.06-2.89-.31-6.11-2.71-8.09-3.16-2.6-5.75-1.1-6.33,2.78a9.47,9.47,0,0,0,.69,5,8.15,8.15,0,0,0-4.16-1.53,2.8,2.8,0,0,0-2.64,1.14c-.76,1.2-.34,3.14.73,4.67,1.88,2.71,5.13,4.17,7.81,5.93a19.07,19.07,0,0,1,2.34,1.88c1,.94,2,1.93,3.07,2.79L526,203.9h0c-3.24-3.59-7.43-6.88-11.93-8-2.5-.6-6.66.5-4.15,3.75,4,5.21,11.55,6.57,17.49,7.79l.27-.19c.39.81.78,1.61,1.16,2.43l.06.12a106.78,106.78,0,0,1,5.14,12.82v0a19.92,19.92,0,0,0-3.87-3c-2.53-1.47-7.43-1.61-5.74,2.74,2.17,5.6,7.6,9.22,12.8,12.11,1.43,5.92,2.69,11.91,3.76,17.91-2.55-5.15-6.23-10.2-11-13-2.71-1.57-8-1.72-6.15,2.95,2.91,7.49,11.24,11.68,17.77,15.16l.2-.06h0c.46,2.82.87,5.66,1.25,8.48.18,1.39.36,2.78.53,4.17h0c-3.36-7.19-8.18-14.28-14.32-18.18-3.5-2.22-10.25-2.52-7.84,4,3.84,10.37,14.55,16.3,23,21.22h0c.44,3.95.86,7.91,1.29,11.86-5.08-5.32-14.94-17-18.43-20.45-1.63-1.64-5.89-5-7.56-1.46-.93,2,.84,6.15,2,7.9,2.46,3.9,15.32,14.32,24.73,20.11h0q.48,4.21,1.06,8.41c.14,1,.26,2.07.36,3.1-6.82-8.53-21.25-24.28-26.1-26.66-2.47-1.21-6.82-2.56-8.68.27s2,6.48,3.54,8.77c3.56,5.28,20,16.68,23.39,18.35,2.59,1.29,5.56,2.07,8.18,3.2v.13c.15,2.33.21,4.63.22,6.93l-.44-.28c-7.51-4.88-22.8-16.22-28-19.44-2.42-1.49-8.47-4.36-9.47.38-.54,2.62,2.75,7.13,4.56,8.91,3.77,3.71,20,11.67,32.6,16.21l.68.23c-.22,7.48-.81,14.93-1,22.65-.06,2.33,3.57,2.63,3.62.29.26-11.15,1.69-21.91,1.2-32.95C564.9,310.91,581.78,297.68,582,294.85Z"/><path class="cls-18" d="M593,332c3.2-3.36-2.81-6.34-5.6-6.73-5.44-.76-16.75,1.61-19.69,2.93.65-.92,1.27-1.86,1.87-2.83q1.66-2.69,3.35-5.35a25.39,25.39,0,0,0,18.84.74c1.57-.54,3.63-1.39,4-3.19.56-2.51-2.14-2.35-3.85-2.2-2.93.26-12.89,1.82-17.56,2.3,2.23-3.58,4.47-7.15,6.68-10.74,6.21,1.08,13.77,2.34,19.52-1.11,3.76-2.25.05-5-2.67-5.33-4.87-.66-10.28.95-14.88,3.24,1-1.7,2.06-3.39,3.08-5.09.19-.3.37-.61.55-.91,3,.79,5.82,1.87,9,1.58a12.28,12.28,0,0,0,7.94-4.34c.92-1,2.17-2.13,2.16-3.65,0-2.12-2.15-1-3.46-.4a84.14,84.14,0,0,1-8.63,3.16c-1.6.49-3.09,1-4.59,1.61a12.43,12.43,0,0,1-1.51.43q2.14-3.64,4.13-7.4c5.31-.52,11.72-1.19,15.63-5.28,2.55-2.69-1.08-4.07-3.38-3.75-3.57.48-7.08,2.44-10.07,4.84.56-1.09,1.11-2.2,1.65-3.3,5.73-2.49,12.87-5.48,15.71-11.47,1.82-3.81-2.69-4-5.11-2.86a20.62,20.62,0,0,0-6.34,5c.22-.51.44-1,.65-1.54.51-1.23,1-2.46,1.39-3.7,5.15-1.45,11.4-3.23,14.54-8,2-3.09-1.78-3.82-4-3.11-3.5,1.13-6.69,3.78-9.23,6.74.53-1.93,1-3.87,1.41-5.82,4-1.81,8.76-4,10.69-8.23,1.27-2.76-1.91-2.87-3.61-2a16.91,16.91,0,0,0-6.19,5.92c.44-2.15.86-4.29,1.32-6.44,1.41-1.38,2.77-2.95,3.93-4.34,1.37-1.64,2.64-3.68,2.16-5.93-.63-3-2.82-3.28-5-1.31a7,7,0,0,0-1.91,3.23,6,6,0,0,0-1.71-2.8,2,2,0,0,0-2-.55c-1,.34-1.64,1.66-1.73,3-.16,2.43,1.05,4.77,1.79,7a13.13,13.13,0,0,1,.49,2.17c.16,1,.28,2,.49,3-.28,1.42-.57,2.83-.86,4.24h0c-.22-3.57-1.13-7.41-3.23-10.12-1.17-1.5-4.09-2.78-4.13.26-.07,4.87,3.66,9.13,6.54,12.57h.24c-.14.65-.29,1.29-.44,1.94a.62.62,0,0,1,0,.1,77.38,77.38,0,0,1-2.93,9.8h0a14.74,14.74,0,0,0-.86-3.52c-.79-2-3.56-4.35-4.58-1.05-1.32,4.24.15,8.84,1.83,12.9-1.9,4.09-3.93,8.14-6.08,12.11.9-4.15,1.1-8.78-.38-12.55-.84-2.16-3.81-4.67-4.91-1.13-1.77,5.68,1.13,11.95,3.3,17l.15.05h0q-1.56,2.78-3.19,5.49c-.53.89-1.07,1.78-1.61,2.66h0c1.37-5.7,1.84-12,.08-17.12-1-2.9-4.77-6.18-6.37-1.31-2.55,7.77.92,16.14,3.53,22.86h0c-1.56,2.49-3.14,5-4.71,7.46-.49-5.42-.84-16.7-1.25-20.33-.19-1.7-1.09-5.63-3.71-4.33-1.44.72-2.34,4-2.51,5.47-.37,3.39,2.28,15.35,5.06,23h0q-1.66,2.65-3.27,5.35c-.39.67-.8,1.32-1.21,2,0-8.08-1.12-23.85-2.84-27.46-.87-1.84-2.76-4.62-5.15-3.84s-1.83,4.67-2,6.71c-.36,4.7,3.92,18.89,5.09,21.39.91,2,2.27,3.77,3.26,5.63l-.05.08c-1,1.41-2,2.78-3.07,4.11,0-.12-.08-.24-.13-.37-2.09-6.28-5.73-19.89-7.26-24.16-.71-2-2.89-6.42-5.66-4.14-1.52,1.27-1.69,5.39-1.46,7.26.47,3.89,6.19,16,11.41,24.4.09.16.19.31.29.46-3.58,4.22-7.35,8.26-11,12.65-1.11,1.32.85,3.17,2,1.84,5.29-6.34,11.07-11.91,15.88-18.53C575.65,333.41,591.52,333.52,593,332Z"/><g class="cls-7"><path class="cls-8" d="M546.69,333c.85-9.08.42-18.39-2.32-27.09s-7.89-16.79-15.28-22.15a71.24,71.24,0,0,0-8.71-5.16c-7.72-4.09-15.43-8.18-23.29-12-6.16-3-12.59-5.91-17.09-11.07a129.12,129.12,0,0,0,6.72,23.62,54.39,54.39,0,0,0,7,13.27c4.58,6,11,10.4,17,15a190.42,190.42,0,0,1,19.79,17.42,43.8,43.8,0,0,0,6,5.45,19.42,19.42,0,0,0,10,3.36"/><g class="cls-9"><path class="cls-10" d="M508.86,291.41A110.7,110.7,0,0,1,527.71,296a44.91,44.91,0,0,1,14.7,8.47c.76.68,1.48,1.4,2.16,2.14a69.37,69.37,0,0,1,2.1,26.38l-.19.67a19.42,19.42,0,0,1-10-3.36,42.61,42.61,0,0,1-6-5.45,190.42,190.42,0,0,0-19.79-17.42c-6-4.61-12.46-9-17-15a39.85,39.85,0,0,1-2.7-4.11c2.86.27,5.67.87,8.49,1.42C502.58,290.32,505.72,290.85,508.86,291.41Z"/></g><g class="cls-11"><path class="cls-10" d="M487.39,267.65c6.35,9.57,16,16.27,25,23.06a136.5,136.5,0,0,1,13,10.67A89.32,89.32,0,0,1,536.9,315a84.94,84.94,0,0,1,9.59,18.21c.13.33-.35.59-.48.26a90.1,90.1,0,0,0-19.87-30.55c-8-8.05-17.77-14.07-26.44-21.4a63.46,63.46,0,0,1-12.48-13.74c-.07-.11.1-.2.17-.09Z"/></g></g><g class="cls-7"><path class="cls-8" d="M548.09,348.74C544,339.08,537.76,331,528.73,325.6c-5.64-3.35-11.91-5.57-17.36-9.2-8.65-5.74-14.69-14.62-22.55-21.4-10.61-9.15-24.08-14.15-37.23-19,15.17,14.76,21.17,37.22,36.88,51.41,12.9,11.66,30.72,16.2,48,18.07,4,.44,8.33.84,11.61,3.23"/><g class="cls-12"><path class="cls-10" d="M461.29,283.64C474,289,482.89,300,491.94,309.93a107.4,107.4,0,0,0,15.16,14.38,48.56,48.56,0,0,0,8.94,5.31c3.55,1.59,7.32,2.61,10.91,4.1a60.23,60.23,0,0,1,20.66,14c.24.25-.17.58-.41.34a66.37,66.37,0,0,0-18.92-13.16c-3.54-1.59-7.27-2.64-10.85-4.1a46.32,46.32,0,0,1-8.63-4.65c-11.3-7.67-19.3-19.09-28.82-28.68C474.5,292,468.41,287,461.23,283.82c-.11-.05-.05-.22.06-.18Z"/></g><path class="cls-13" d="M474.72,300.92c4.78,2.13,8.43,6.15,11.65,10.28s6.2,8.52,10.24,11.84a27.73,27.73,0,0,0,22.18,5.8c3.67-.66,7.2-2.06,10.86-2.6,8.53,5.36,14.46,13.24,18.44,22.56-3.29-2.39-7.57-2.78-11.61-3.22-17.29-1.88-35.11-6.42-48-18.07-8.55-7.73-14.22-17.9-20.06-27.95A15.77,15.77,0,0,1,474.72,300.92Z"/></g><path class="cls-19" d="M523.65,340.47c-13.79-5.66-27.39-11.39-42.25-10.25-2.9.22-5.9.75-8.28,2.43-.79.55-1.56,1.42-1.36,2.36a2.16,2.16,0,0,0,.64,1.06c1.57,1.54,4,1.66,6.2,1.65,15.11-.09,30.7-2.13,45,2.81"/><path class="cls-6" d="M480.79,333.77a33.2,33.2,0,0,1,8,0c2.88.21,5.76.46,8.62.8,5.81.68,11.54,1.88,17.27,3a45.48,45.48,0,0,1,9,2.82c.15.07.08.32-.07.25a42.79,42.79,0,0,0-7.78-2.59c-2.88-.61-5.78-1.16-8.67-1.73a145.89,145.89,0,0,0-17-2.29,41.4,41.4,0,0,0-9.24-.15c-.07,0-.1-.11,0-.12Z"/><path class="cls-19" d="M542.15,335.78a99.57,99.57,0,0,0-51.72-28.31c-4.18-.86-8.57-1.45-12.65-.23-1.53.45-3.28,1.85-2.61,3.3a2.74,2.74,0,0,0,1.08,1.08c2.85,1.88,6.26,2.63,9.6,3.36,10,2.18,20.11,4.35,29.81,7.75a123.31,123.31,0,0,1,26.49,13"/><path class="cls-6" d="M481.85,309.38a234.54,234.54,0,0,1,25.08,6.42,101.46,101.46,0,0,1,11.87,4.78c4.05,1.95,8,4.15,11.83,6.41a40.14,40.14,0,0,1,5.55,3.54c1.67,1.37,3.18,2.92,4.88,4.24.13.1,0,.33-.14.23-1.43-1.11-2.74-2.38-4.1-3.57a25.08,25.08,0,0,0-2.21-1.76c-.83-.57-1.73-1.05-2.6-1.56-3.84-2.25-7.71-4.47-11.68-6.47a123.72,123.72,0,0,0-24.42-8.84c-4.67-1.22-9.37-2.28-14.08-3.36,0,0,0-.07,0-.06Z"/><path class="cls-19" d="M542.9,331.37c-6.19-6.78-12.42-13.61-17.35-21.35-3.85-6-7-12.74-12.58-17.24a4.94,4.94,0,0,0-3.41-1.41,3.43,3.43,0,0,0-2.72,2.32,6.54,6.54,0,0,0-.07,3.72c.85,3.77,3.38,6.9,5.94,9.79,8.36,9.45,15,18.39,30.19,24.17"/><path class="cls-6" d="M512.68,299.2c6.54,9.05,13.35,18,21.76,25.46,1.2,1.06,2.44,2.09,3.7,3.07s2.64,1.92,4,2.88c.12.09,0,.28-.12.2a53.1,53.1,0,0,1-6.75-5.1Q532,323,529.12,320a142.4,142.4,0,0,1-11-13.07c-1.89-2.52-3.73-5.07-5.56-7.63,0,0,0-.09.07-.05Z"/><path class="cls-1" d="M1132.21,299.75c7-15.46,14.18-30.69,13.27-47.55-.18-3.29-.72-6.7-2.62-9.44-.63-.91-1.63-1.81-2.74-1.61a2.56,2.56,0,0,0-1.27.71c-1.85,1.73-2.07,4.48-2.12,7-.33,17.1,1.63,34.8-4.59,50.82"/><path class="cls-6" d="M1141.57,245.88a36.38,36.38,0,0,1,.14,9c-.19,3.27-.44,6.53-.78,9.78-1.35,12.76-1,7.83-3.23,19.6a49.6,49.6,0,0,1-3.17,10.2c-.07.17-.37.1-.3-.08a47.3,47.3,0,0,0,2.92-8.85c.66-3.28,1.26-6.57,1.88-9.85a157.38,157.38,0,0,0,2.38-19.34c.23-3.46.62-7,0-10.46,0-.08.12-.12.13,0Z"/><path class="cls-19" d="M1130.74,303a112,112,0,0,0,34.79-57.78c1.13-4.7,1.94-9.65.63-14.31-.5-1.74-2.08-3.76-3.81-3.05A3.36,3.36,0,0,0,1161,229c-2.28,3.17-3.27,7-4.22,10.77-2.85,11.31-5.7,22.65-10,33.53a137.81,137.81,0,0,1-16.1,29.64"/><path class="cls-6" d="M1163.52,235.41a259.62,259.62,0,0,1-8.27,28.22,113,113,0,0,1-6,13.3c-2.4,4.52-5.1,8.89-7.87,13.21a43.48,43.48,0,0,1-4.33,6.19c-1.66,1.85-3.52,3.52-5.12,5.41-.13.14-.39,0-.26-.16,1.34-1.6,2.87-3,4.31-4.55a29,29,0,0,0,2.13-2.45c.7-.93,1.29-1.93,1.91-2.91,2.76-4.28,5.48-8.59,8-13a137.15,137.15,0,0,0,11.09-27.4c1.57-5.25,3-10.55,4.35-15.84,0,0,.1,0,.08,0Z"/><path class="cls-1" d="M1135.91,303.91c8.15-6.82,16.36-13.68,25.6-19.05,7.21-4.19,15.19-7.6,20.64-13.77,1-1.09,1.88-2.39,1.76-3.82a3.92,3.92,0,0,0-2.65-3.14,8.14,8.14,0,0,0-4.38-.18c-4.45.86-8.21,3.64-11.68,6.45-11.36,9.21-22.06,16.43-29.29,33.51"/><path class="cls-6" d="M1174.61,270.59c-10.83,7.15-21.6,14.62-30.57,23.93q-1.92,2-3.72,4.11c-1.21,1.43-2.33,2.93-3.5,4.38-.11.14-.33,0-.23-.14a61.56,61.56,0,0,1,6.2-7.5q3.29-3.53,6.94-6.74a167.11,167.11,0,0,1,15.69-12c3-2.07,6.07-4.09,9.13-6.09,0,0,.1.05.06.08Z"/><path class="cls-20" d="M1218.52,88.91s10.83-.59,14.14,11.93c3,11.32,17.54,59.74,23.45,78.25a4.18,4.18,0,0,1-5,5.34c-11.32-2.69-32.81-8.17-40.81-12.68,0,0-8.8-49.9-8.92-63.65C1201.31,95.47,1206.84,89,1218.52,88.91Z"/><path class="cls-21" d="M1209.49,368.92l-1.21,10s7.19,3.17,9.61.73l.61-9.66Z"/><path class="cls-17" d="M1184.67,392.85c.77,1.64,34.45-.12,34.45-.12s1.07-10,0-13.08-6,.38-9.34-.4c0,0-2-2.79-3.65-2.69-.6,0-2.72,1.39-5.37,3.14-.43.28-.87.58-1.33.87l-1,.64-1.6,1-.61.39h0c-.49.32-1,.63-1.48.93-3,1.85-5.74,3.4-7.36,3.69C1183.11,388,1183.9,391.21,1184.67,392.85Z"/><path class="cls-22" d="M1196.89,382.25a3.09,3.09,0,0,1,1.84.36,8.24,8.24,0,0,1,2.61,2.84.55.55,0,0,0,.35.28.6.6,0,0,0,.47,0,.61.61,0,0,0,.24-.82,9.33,9.33,0,0,0-3.11-3.33,4.11,4.11,0,0,0-.8-.33C1197.61,381.28,1196.87,381.48,1196.89,382.25Z"/><path class="cls-22" d="M1199.45,380.57a3.33,3.33,0,0,1,1.11.36,8.44,8.44,0,0,1,2.61,2.84.61.61,0,0,0,.34.29.67.67,0,0,0,.48-.05.6.6,0,0,0,.23-.82,9.17,9.17,0,0,0-3.1-3.33l-.34-.16C1200.21,379.75,1199.58,379.71,1199.45,380.57Z"/><path class="cls-22" d="M1194.8,383.57a3.33,3.33,0,0,1,1.47.39,8.17,8.17,0,0,1,2.6,2.84.6.6,0,0,0,.35.28.59.59,0,0,0,.48-.05.6.6,0,0,0,.23-.82,9.27,9.27,0,0,0-3.1-3.32,4.46,4.46,0,0,0-.55-.25h0C1195.32,382.55,1194.75,382.79,1194.8,383.57Z"/><path class="cls-21" d="M1260,293.72l10.1.57s2.28-7.52-.44-9.62L1260,285Z"/><path class="cls-17" d="M1293.83,308c1.08-1.45-16.27-30.38-16.27-30.38s-9.34,3.75-11.56,6.13,3.13,5.09,4,8.43c0,0-1.52,3.09-.67,4.49.31.51,2.51,1.74,5.3,3.27l1.39.76,1,.55,1.67.93.63.35h0l1.52.87c3,1.74,5.7,3.48,6.71,4.77C1290.3,311.59,1292.74,309.39,1293.83,308Z"/><path class="cls-22" d="M1276.85,300.57a3.18,3.18,0,0,1-.55-1.8,8.15,8.15,0,0,1,1.29-3.63.62.62,0,0,0,.08-.44.59.59,0,0,0-.26-.4.61.61,0,0,0-.84.18,9.24,9.24,0,0,0-1.48,4.3,4.77,4.77,0,0,0,.08.87C1275.66,300.39,1276.17,301,1276.85,300.57Z"/><path class="cls-22" d="M1274.17,299.09a3,3,0,0,1-.21-1.15,8.15,8.15,0,0,1,1.29-3.63.62.62,0,0,0,.09-.44.61.61,0,0,0-1.1-.22,9.21,9.21,0,0,0-1.49,4.3c0,.13,0,.26,0,.38C1273.08,298.81,1273.34,299.38,1274.17,299.09Z"/><path class="cls-22" d="M1279,301.79a3.4,3.4,0,0,1-.35-1.48,8.22,8.22,0,0,1,1.29-3.62.61.61,0,0,0-1-.67,9.34,9.34,0,0,0-1.48,4.3,3.86,3.86,0,0,0,0,.6h0C1277.85,301.82,1278.33,302.21,1279,301.79Z"/><path class="cls-23" d="M1201,215.08s-17.07,51.72-18,64.19,25.83,13,38,13.86c13.64,1,40.83,1.51,40.83,1.51l.49-11.15s-14.36-4.58-25.81-7.09-30.9-4.8-30.9-4.8l27.08-57.67Z"/><path class="cls-24" d="M1258,282.47s1.27-2.1,5.31.07c0,0-.59,6.81-1.35,12.7a8.52,8.52,0,0,1-5.37-.31A73,73,0,0,0,1258,282.47Z"/><path class="cls-25" d="M1222.55,213.44s-22,58.58-22.6,74.13,6.68,82.45,6.68,82.45l10.68,1.3s9.49-43.39,3.51-71c0,0,27.67-66.05,29.56-80.94S1222.55,213.44,1222.55,213.44Z"/><path class="cls-26" d="M1243.73,229.69s-13.37,47-28,71.13a79,79,0,0,1,3.84,23.93c0,15.84-3.23,35.8-3.23,35.8"/><path class="cls-24" d="M1219.1,364.83a8.48,8.48,0,0,1,.43,7.62s-7,.31-13,.07c0,0-1.41-5.29-.45-7.75A109.87,109.87,0,0,0,1219.1,364.83Z"/><path class="cls-27" d="M1204.2,137.16q-2,.61-3.9,1.17c-2.89.82-5.78,1.54-8.66,2.13-1.44.29-2.87.54-4.3.75l-.81.11-.2,0-.15-.2-.32-.45,0,0-.17-.25-.52-.8c-.23-.35-.46-.69-.69-1.06l-.68-1.1c-.23-.37-.45-.73-.67-1.12-1.79-3-3.48-6.15-5.14-9.33-.81-1.6-1.65-3.19-2.43-4.82s-1.61-3.23-2.38-4.88-1.57-3.26-2.32-4.91l-2.28-4.95,0-.05a3.83,3.83,0,0,0-4.64-2c-2,.63-2.36,1.67-1.73,3.69l1.32,5.81c.54,1.76,1,4,1.53,5.73s.9,3.62,1.5,5.38,1.24,3.5,1.86,5.25c1.29,3.5,2.61,7,4.14,10.51.18.44.38.88.58,1.32l.6,1.32c.19.44.42.89.63,1.33s.43.89.66,1.34l.72,1.36c.24.45.52.93.79,1.39.13.23.3.49.45.73l.24.37.12.19.14.2.29.41.15.2a1.92,1.92,0,0,0,.19.23l.39.49.33.35.17.17.11.1.12.11.26.22a6.36,6.36,0,0,0,4.08,1.41h.42c1.76-.1,3.49-.27,5.2-.49s3.37-.49,5-.79c3.16-.59,6.25-1.31,9.3-2.11Z"/><path class="cls-28" d="M1203.6,135.65a64.26,64.26,0,0,1-15.93,4.62,100.28,100.28,0,0,1-.8,16s13.57,0,17.32-3.89c3.16-3.26,5.77-5,5-10.49C1208.93,140.24,1206.32,134.39,1203.6,135.65Z"/><path class="cls-27" d="M1183.72,146.32a.43.43,0,0,0,.49-.13.39.39,0,0,0,.08-.14,31,31,0,0,1,2.24-4.73l-.2,0-.15-.2-.32-.45c-.19.32-.37.65-.55,1a30.48,30.48,0,0,0-1.86,4.07A.44.44,0,0,0,1183.72,146.32Z"/><path class="cls-27" d="M1182.38,143.24a.44.44,0,0,0,.49.14.46.46,0,0,0,.14-.07,27.26,27.26,0,0,1,2.3-1.64l.87-.53-.32-.45,0,0-.17-.25a29.46,29.46,0,0,0-3.21,2.21A.45.45,0,0,0,1182.38,143.24Z"/><path class="cls-29" d="M1162.59,99.1s1-5.44-.11-7.84-1.12-7.28-2-7.67-1.24,3.2-.38,6.41S1162.59,99.1,1162.59,99.1Z"/><path class="cls-27" d="M1161.85,97.82s-1.31-4.66-2.24-4.74-1.55,3.23.26,7.56c.54,1.28.3,3.29.86,5.67a3.55,3.55,0,0,0,6.17,1.53,7.48,7.48,0,0,0,1-1.5s.13-9.6-1.92-12.94-3-9.74-3.92-10.54-1.28,3.11-1,5.85S1161.85,97.82,1161.85,97.82Z"/><path class="cls-5" d="M1242.49,220.31c-5.38,1.38-25,1.49-35.8-.23a25.8,25.8,0,0,1-5.16-1.23,5.9,5.9,0,0,1-1-.45c-.66-.38-1-.8-1-1.25,0-.24,0-.54,0-.9h0c0-.73.11-1.69.21-2.84.18-2,.44-4.58.74-7.45h0c.82-7.71,2-17.54,2.58-24.29.07-.78.13-1.51.19-2.2,0-.28,0-.56.07-.82.05-.6.08-1.14.12-1.64l0-.53c0-.6.09-1.16.14-1.68.08-.88.18-1.67.27-2.37.62-4.92,1.12-5.93-2.09-10.66-6-8.82-.67-12.57,0-15.34s-1.2-10.38,3-12.75a58.6,58.6,0,0,1,5.58-2.37c.33-.11.65-.21,1-.29a17.33,17.33,0,0,1,4.87-.6,55,55,0,0,1,11.68.76l.92.18c7.29,1.53,11.52,4.67,13.17,8,1.26,2.58,2.27,8.45,3.13,15.65,0,.31.08.64.11,1,1.17,10,2,22.42,2.91,32.09.07.83.15,1.64.22,2.42,0,.56.1,1.12.16,1.65.07.79.15,1.54.23,2.26,0,.28,0,.55.08.82.09.77.18,1.51.27,2.2a42.37,42.37,0,0,0,.82,4.91C1254,218.24,1250.56,218.24,1242.49,220.31Z"/><path class="cls-28" d="M1255.49,147.82s5.15,8-2.13,17.81a15.13,15.13,0,0,1-2.72-7.84A11.1,11.1,0,0,1,1255.49,147.82Z"/><path class="cls-30" d="M1303.37,153a3.46,3.46,0,0,0-3.89-1.66l-.1,0L1297,152c-.8.23-1.6.46-2.4.67-1.61.44-3.2.88-4.8,1.28-.8.21-1.59.43-2.39.61l-2.38.58-2.37.52-2.36.48c-.39.09-.78.15-1.17.22l-1.17.21c-.78.13-1.55.24-2.31.35l-1.14.13c-.38.05-.74.07-1.11.11s-.72.06-1.08.08-.69,0-1,0h-.69l-.18,0h0l-.29-.07-.24,0-.11,0-.71-.19-.11,0c-.18-.06-.36-.11-.54-.18a36.3,36.3,0,0,1-3.94-1.68,92.55,92.55,0,0,1-8.2-4.66l-1.9-1.21c-2.1-1.35-4.19-2.74-6.25-4.2-1.35-.93-2.7-1.87-4-2.84l-4-2.91-1.41-1a148.81,148.81,0,0,0-.8,15.06c1,.73,2,1.46,3.08,2.16,1.44,1,2.89,1.94,4.36,2.89s3,1.87,4.49,2.76c.78.47,1.58.93,2.38,1.37s1.51.84,2.29,1.25c1.59.84,3.23,1.64,4.94,2.39.87.37,1.74.74,2.65,1.08s1.86.65,2.85.94a27.21,27.21,0,0,0,3.21.72l.47.06.49.06.12,0,.32,0h1.29l.41,0,.81-.07c.5-.06,1-.11,1.5-.19s1-.14,1.43-.24l1.39-.28,1.36-.31c.46-.1.89-.23,1.33-.34l1.32-.37c.86-.26,1.74-.5,2.58-.79l1.27-.43c.42-.14.85-.28,1.26-.45l2.48-.93,2.44-1c.81-.34,1.6-.71,2.4-1.07l1.19-.54.6-.27.58-.29,2.34-1.15c1.54-.79,3.06-1.63,4.57-2.47A3.47,3.47,0,0,0,1303.37,153Z"/><path class="cls-30" d="M1302.29,157.29c-1.36-.43-4.14-3.84-2.21-8.09,1.8-3.94,1.41-5.52,3.1-8.21,1.46-2.33,1.49,0,1.47,2.27s-.55,3.1,1.39,2.65,8.65-5.52,10.86-5.66-6.33,6.32-6.33,6.32,8.07-4.24,9.07-3.45c1.19.94-7.17,5.95-7.17,5.95s7.37-2.61,7.63-2.07c.52,1-6.4,4.8-6.4,4.8s5.16-1.54,5-.58S1309,157.28,1302.29,157.29Z"/><path class="cls-31" d="M1303.47,152.47a5.31,5.31,0,0,0,3.32-1.86.26.26,0,0,0,0-.38.27.27,0,0,0-.39,0c-.08.11-2.12,2.6-4.47,1.29a.28.28,0,0,0-.27.48A3.36,3.36,0,0,0,1303.47,152.47Z"/><path class="cls-31" d="M1310.5,152.56a.29.29,0,0,0,.22-.13.28.28,0,0,0-.09-.38,5.28,5.28,0,0,1-2.36-4.17.28.28,0,0,0-.55,0,5.76,5.76,0,0,0,2.62,4.63A.33.33,0,0,0,1310.5,152.56Z"/><path class="cls-31" d="M1269.83,162.78a.42.42,0,0,0,.34-.32.38.38,0,0,0,0-.15,29.34,29.34,0,0,1-.31-5.2l-.11,0c-.23-.05-.46-.12-.71-.19,0,.48,0,1,0,1.46a28.08,28.08,0,0,0,.33,4.09A.4.4,0,0,0,1269.83,162.78Z"/><path class="cls-31" d="M1267.84,160.81a.36.36,0,0,0,.08-.12,25,25,0,0,1,1.11-2.34c.23-.43.47-.85.72-1.27-.23-.05-.46-.12-.71-.19l-.11,0a27.07,27.07,0,0,0-1.77,3.53.41.41,0,0,0,.68.43Z"/><path class="cls-28" d="M1255.49,147.82a10.09,10.09,0,0,0-1.51,1.69,14.14,14.14,0,0,0-2,12.22,22.76,22.76,0,0,0,1.4,3.89c-.18-.1-11.61-6.77-16.76-11.07a18.17,18.17,0,0,1-1.42-3.9h0a22.92,22.92,0,0,1,.78-13.92q.32-.85.72-1.71A137.12,137.12,0,0,0,1255.49,147.82Z"/><path class="cls-28" d="M1211.38,136.81c1,1.36,2.62,2.05,4.88,2.05h.41a15.13,15.13,0,0,0,12.2-7.28l-.92-.22a14.15,14.15,0,0,1-11.32,6.6c-2.14.08-3.67-.48-4.53-1.67-1-1.43-1-3.51-.7-5.12-.31.1-.63.22-1,.35A7.5,7.5,0,0,0,1211.38,136.81Z"/><path class="cls-27" d="M1225.84,131.33a12.24,12.24,0,0,1-12.14,2.55l.31-13.07,10.07-3.34,1.62-.54Z"/><path class="cls-31" d="M1224.08,117.47s-2.57,11.63-10.3,12.93l.23-9.59Z"/><path class="cls-27" d="M1228.65,109.13a13.6,13.6,0,0,1-.8,4.12c-.08.25-.18.5-.27.76-.19.47-.39.95-.61,1.43h0a22.21,22.21,0,0,1-1.25,2.3c-4.41,7.18-12.78,12.11-18.11,6.94-4.22-4.1-4.76-11.11-4.52-17.07l0-.77c.06-1.12.14-2.19.22-3.19a10.74,10.74,0,0,1,.76-3.11h0a10.32,10.32,0,0,1,8.36-6.28c3.65-.41,7.56,0,9.89,1,3.19,1.44,5,3.17,5.75,6.78a22.2,22.2,0,0,1,.43,3.08c0,.31,0,.62.06,1,0,.49,0,1,0,1.56S1228.65,108.61,1228.65,109.13Z"/><path class="cls-20" d="M1213.66,105.65s-1.12.14-1.06.89.8.58,1.37.47a6.31,6.31,0,0,1,2.6,0,2.94,2.94,0,0,1,1.82,1.4S1218.31,105.32,1213.66,105.65Z"/><path class="cls-20" d="M1207.64,106.71c-.06.69-.73.53-1.25.43a5.88,5.88,0,0,0-2.37,0,2.89,2.89,0,0,0-.93.46l0-.77a4.36,4.36,0,0,1,3.56-.94S1207.7,106,1207.64,106.71Z"/><path class="cls-20" d="M1227.85,113.25c-.08.25-.18.5-.27.76-.19.47-.39.95-.61,1.43h0a22.21,22.21,0,0,1-1.25,2.3,4.22,4.22,0,0,1-1.34-2.09Z"/><path class="cls-20" d="M1214.88,98.36s-2,5.75,3.43,5.43,3.21,4.35,6,5.95,7.8-4.27,3.83-12.08-16.26-7-19.47-5.08c-3.85,2.23-6.88,6.88-5.54,13.61C1203.1,106.19,1213.69,103.2,1214.88,98.36Z"/><path class="cls-27" d="M1225.22,105.82s3.57-1.74,4.45,2.43-3.18,7.83-6.81,7.57C1222.86,115.82,1223.44,107.59,1225.22,105.82Z"/><path class="cls-31" d="M1224.77,112.8a.38.38,0,0,0,.37-.32,6.4,6.4,0,0,1,2.43-3.91.38.38,0,0,0,.1-.53.38.38,0,0,0-.53-.11,7.08,7.08,0,0,0-2.75,4.42.37.37,0,0,0,.31.44Z"/><path class="cls-31" d="M1227.73,110.93a.39.39,0,0,0,.34-.21.39.39,0,0,0-.17-.52,4.34,4.34,0,0,0-2.31-.48.39.39,0,0,0,.14.76,3.41,3.41,0,0,1,1.82.41A.39.39,0,0,0,1227.73,110.93Z"/><path class="cls-20" d="M1213.44,110.22a1.17,1.17,0,0,0,1,1.32c.54,0,1-.57,1-1.29a1.18,1.18,0,0,0-1-1.32C1213.9,108.92,1213.45,109.49,1213.44,110.22Z"/><path class="cls-20" d="M1204.48,110.21c0,.72.39,1.32.89,1.33s.92-.57.94-1.3-.39-1.31-.89-1.32S1204.49,109.49,1204.48,110.21Z"/><path class="cls-22" d="M1208.16,120.49a18.7,18.7,0,0,0,6.2-.92,3.89,3.89,0,0,1-3.42,2.72A2.94,2.94,0,0,1,1208.16,120.49Z"/><path class="cls-31" d="M1208.38,116.93a6,6,0,0,0,1.31-.18.41.41,0,0,0,.3-.5.42.42,0,0,0-.5-.31,4.65,4.65,0,0,1-1.39.15c0-.69.5-3.81,1-6.59a.43.43,0,0,0-.35-.48.42.42,0,0,0-.48.35c-.24,1.48-1,6.35-.94,6.92a.63.63,0,0,0,.28.46A1.47,1.47,0,0,0,1208.38,116.93Z"/><path class="cls-21" d="M754.58,295.88c-1.91,7.25-1.51,15.42-.81,26.92l-1.38,27.09a14.43,14.43,0,0,0,9.19,1.12l7.57-53.67Z"/><path class="cls-28" d="M785.42,362c-.78,1.67-35.09-.12-35.09-.12s-1.09-10.18,0-13.32,6.07.39,9.5-.4c0,0,2.06-2.85,3.72-2.75.61,0,2.77,1.42,5.47,3.2l1.36.89,1,.64c.53.36,1.08.71,1.63,1.07l.61.4h0l1.5.95c3,1.87,5.85,3.46,7.5,3.75C787,357,786.2,360.29,785.42,362Z"/><path class="cls-22" d="M773,351.16a3.14,3.14,0,0,0-1.88.37,8.44,8.44,0,0,0-2.66,2.89.59.59,0,0,1-.35.29.62.62,0,0,1-.48,0,.61.61,0,0,1-.24-.84,9.41,9.41,0,0,1,3.16-3.39,6.21,6.21,0,0,1,.82-.34C772.25,350.17,773,350.37,773,351.16Z"/><path class="cls-22" d="M770.37,349.45a3.15,3.15,0,0,0-1.14.37,8.37,8.37,0,0,0-2.65,2.89.59.59,0,0,1-.35.29.58.58,0,0,1-.48-.05.61.61,0,0,1-.24-.84,9.45,9.45,0,0,1,3.15-3.39l.35-.16C769.59,348.61,770.24,348.57,770.37,349.45Z"/><path class="cls-22" d="M775.1,352.51a3.19,3.19,0,0,0-1.5.39,8.3,8.3,0,0,0-2.64,2.89.65.65,0,0,1-.36.29.58.58,0,0,1-.48-.05.6.6,0,0,1-.24-.83,9.29,9.29,0,0,1,3.15-3.39,3.87,3.87,0,0,1,.56-.25h0C774.57,351.46,775.15,351.71,775.1,352.51Z"/><path class="cls-23" d="M759.72,229.37,757,270.68c-6.69,17.46-5.18,62.93-4.48,70.22l11.7-.51,26.24-139.16-28.34,1Z"/><path class="cls-25" d="M766.76,338.33c1,2.06,1.14,4.68.15,5.95l-16.58,1.38c-1.31-1.06-1.81-4.78-.83-5.88Z"/><path class="cls-21" d="M726,286.67c-4.17,6-7.47,14.58-10.4,25.6l-7.94,24.23s2.12,2.35,7.53,4L739,291.88Z"/><path class="cls-25" d="M739.67,200.78s-3.39,35.26-4.38,62.63c0,0-26.47,53.25-27.91,64.43l15.27,6.79S750,279.58,755.41,267l15.64-64Z"/><path class="cls-23" d="M729,287.49a.75.75,0,0,1-.21,0,.83.83,0,0,1-.59-1c1.94-7.65,9.9-20.55,11.15-22.56-2-17.5,3.57-59.44,3.8-61.23a.82.82,0,0,1,1.63.22c-.06.43-5.78,44-3.77,61.11a.83.83,0,0,1-.12.53c-.09.15-9.1,14.45-11.1,22.34A.81.81,0,0,1,729,287.49Z"/><path class="cls-28" d="M727.31,362.82H713.2c-.33-.3-1-1.07-1.81-1.87L699,348.14a1.71,1.71,0,0,1-.27-2c1.43-2.6,5-8.95,6.59-10.44,2-1.89,3.35-.52,3.35-.52s3.41,4.39,5.13,3.64c2-.88,3.86-1.6,4.21,2.76a30.36,30.36,0,0,0,2.64,9.27s2.09,3.59,5,5c3.32,1.63,3.56,4.05,3.32,5.56A1.67,1.67,0,0,1,727.31,362.82Z"/><path class="cls-22" d="M719.72,348a3.14,3.14,0,0,0-1.6-1.06,8.35,8.35,0,0,0-3.91.2.61.61,0,0,1-.46,0,.64.64,0,0,1-.31-.37.62.62,0,0,1,.41-.77,9.55,9.55,0,0,1,4.63-.2,4.49,4.49,0,0,1,.83.34C719.89,346.82,720.29,347.49,719.72,348Z"/><path class="cls-22" d="M719.06,345a3.39,3.39,0,0,0-1.06-.53,8.22,8.22,0,0,0-3.92.2.61.61,0,0,1-.77-.42.61.61,0,0,1,.42-.76,9.4,9.4,0,0,1,4.63-.2,3.82,3.82,0,0,1,.36.13C719.1,343.85,719.58,344.27,719.06,345Z"/><path class="cls-22" d="M720.29,350.49a3.25,3.25,0,0,0-1.34-.77,8.24,8.24,0,0,0-3.92.2.58.58,0,0,1-.45,0,.67.67,0,0,1-.32-.38.61.61,0,0,1,.42-.76,9.53,9.53,0,0,1,4.63-.2c.2.06.39.14.57.21h0C720.65,349.37,720.89,350,720.29,350.49Z"/><path class="cls-2" d="M812.06,169.31l0,0q-5.24-4-10.32-8.13c-3.37-2.76-6.69-5.56-9.8-8.42-1.56-1.43-3.07-2.87-4.42-4.31-.52-.54-1-1.08-1.46-1.61l-.41-.49-.34-.43,0-.06c-.11-.16-.24-.32-.34-.46l-.14-.21-.13-.2c-.09-.13-.12-.21-.18-.31l0-.07v0h0l0-.1c0-.06,0-.12-.08-.21s0-.13-.07-.2l-14.16,5.45.15.37c.07.17.15.36.24.55l.13.29.08.17.1.2.19.38.1.19.09.16.38.65c.24.37.5.76.73,1.08l.37.49.35.45c.24.31.46.56.69.85l.69.78c.91,1,1.81,1.89,2.7,2.75,1.79,1.71,3.58,3.25,5.37,4.74,3.59,3,7.21,5.73,10.87,8.42s7.33,5.29,11,7.85l.11.07a6.13,6.13,0,0,0,8.62-1.73l.48-.75A6.11,6.11,0,0,0,812.06,169.31Z"/><path class="cls-21" d="M818.56,173.57q-1.56,2.87-3.26,5.66c-.12.21-.25.41-.37.61-.84,1.38-1.71,2.74-2.59,4.09l-.24-.22c-1.07-1.11-4.26-4.23-4.71-6.37-.28-1.3.58-3.55,2.74-4.93a4.76,4.76,0,0,1,3.31-.4,16.48,16.48,0,0,1,4.36,1.17C818,173.28,818.27,173.41,818.56,173.57Z"/><polygon class="cls-18" points="822.4 172.05 822.01 173.65 821.33 176.34 821.2 176.85 820.63 179.14 820.01 181.63 819.98 181.75 819.27 184.6 818.64 187.14 817.85 190.3 808.96 188.88 809.01 188.14 809.24 184.99 809.37 183.09 809.59 179.97 809.59 179.92 809.73 178.03 809.94 175.06 809.95 174.85 810.09 172.96 810.29 170.12 822.4 172.05"/><polygon class="cls-22" points="821.2 176.85 820.63 179.14 820.01 181.63 809.59 179.97 809.59 179.92 809.73 178.03 809.94 175.06 821.2 176.85"/><rect class="cls-32" x="809.77" y="168.7" width="13.53" height="2.4" transform="translate(36.78 -126.04) rotate(9.03)"/><path class="cls-32" d="M812.62,166.7h8.53a1.48,1.48,0,0,1,1.48,1.48v.56a0,0,0,0,1,0,0H811.14a0,0,0,0,1,0,0v-.56A1.48,1.48,0,0,1,812.62,166.7Z" transform="translate(36.44 -126.12) rotate(9.03)"/><path class="cls-33" d="M823,174.76a1.92,1.92,0,0,0-.84-1.88l-.58,2.31A1.36,1.36,0,0,0,823,174.76Z"/><path class="cls-21" d="M823,174.76a22.31,22.31,0,0,1-3.5-.35c-1.34-.19-4.45-.11-3.55.93.72.82,4.72,1.29,5.37,2,0,0-2.06-.36-3.79-.75-1.56-.36-4.17-.39-3.47.42s2.83,1.42,3.57,1.74c1,.41,2.24.89,2.24.89a33.17,33.17,0,0,0-3.77-.53c-1-.08-3.52-.8-3.17.62.17.71,3.65,1.62,5.26,2.42,0,0-3.28-.69-4.5-.2-1,.38,0,.85,1.17,1.43a31.44,31.44,0,0,0,3.06,1.21c1,.38,2.88.33,3.31-.65s0-1.62.45-2.18,1.21-1.36,1.2-2a2.91,2.91,0,0,1,.65-2A2.08,2.08,0,0,0,823,174.76Z"/><path class="cls-1" d="M788.55,205.91c-5.32,2.79-40.54,2.26-48.42-2.24-2.44-1.39-3.56-10.37-3.9-22.38,0-.28,0-.56,0-.84s0-.54,0-.81c0-.65,0-1.31,0-2,0-1.2,0-2.41,0-3.65,0-.41,0-.82,0-1.23v-.72c0-.28,0-.56,0-.84,0-.77,0-1.55,0-2.33,0-.45,0-.9,0-1.35s0-.85,0-1.28,0-.78,0-1.17c0-.11,0-.22,0-.33l0-1.76c0-.2,0-.4,0-.6l.06-2.42c0-1.87.1-3.76.16-5.65,0-.88.06-1.77.1-2.65q0-.85.06-1.68l0-.75c0-1.38.11-2.75.18-4.12,0-.21,0-.41,0-.62,0-1,.1-2.06.16-3.08l0-.72c0-.42,0-.84.07-1.25l0-.76c0-.29,0-.58,0-.87s0-.62.05-.94,0-.79.07-1.19,0-.63.05-.94,0-.58,0-.86,0-.36,0-.54l.09-1.63c0-.24,0-.48.05-.72.37-5.94.77-11.3,1.13-15.59.07-.73.13-1.43.19-2.1.1-1.17.21-2.23.31-3.18.07-.71.14-1.36.2-1.93.13-1.06.24-1.89.33-2.44,1.21-7,14.15-14,20.58-17a9.65,9.65,0,0,1,7.12-.47l6.68,2.17c5.79,1.87,9.49,5.5,11.35,10.63.15.4.28.81.4,1.23a28.11,28.11,0,0,1,1,8c0,2.34.09,5.26.12,8.08,0,.43,0,.86,0,1.28v2.18c0,.63,0,1.26,0,1.89,0,1.31,0,2.64.05,4,0,.49,0,1,0,1.48,0,.24,0,.47,0,.71l0,1.15v.08l0,.94c0,.29,0,.57,0,.86s0,.63,0,.94c0,1,.07,2,.11,3,0,.13,0,.27,0,.4s0,.32,0,.48l.09,2.37c0,.3,0,.6,0,.89l.06,1.33c0,.44,0,.89,0,1.33,0,.15,0,.3,0,.45s0,.31,0,.47v.41a0,0,0,0,0,0,0q0,.56,0,1.08l0,1v0q0,.54,0,1.05c0,.85,0,1.67,0,2.45,0,.54,0,1.06,0,1.56,0,.34,0,.67,0,1,0,.15,0,.31,0,.46,0,.46,0,.94,0,1.43,0,.91,0,1.85,0,2.83,0,.61,0,1.24.07,1.88,0,.3,0,.61,0,.92s0,.52,0,.78,0,.61,0,.92,0,.37,0,.56,0,.19,0,.28c0,.3,0,.61.06.92s0,.75.08,1.13c0,.77.11,1.55.18,2.33l0,.45c0,.15,0,.29.05.44q.06.86.15,1.71c0,.25,0,.49.06.73s0,.53.07.79c0,.47.09.94.13,1.41s.09.91.13,1.36c.08.88.17,1.76.25,2.64,0,.33.06.66.1,1,.09.93.17,1.85.26,2.77C790.77,193.21,791.55,204.34,788.55,205.91Z"/><path class="cls-21" d="M760.8,90.49c5.2,9.27,13.51,3,13.51,3L774,79,762.69,75.6l-1.82-.55Z"/><path class="cls-33" d="M762.69,75.6S765.54,87.67,774.2,89L774,79Z"/><path class="cls-33" d="M780.81,63.66s3.37-2.08,5,2-2.12,9.36-6,8.5C779.84,74.2,779.29,65.78,780.81,63.66Z"/><path class="cls-21" d="M758.28,66.94A14.63,14.63,0,0,0,759.39,72c.19.49.4,1,.63,1.48h0c4,8.67,14.12,17.77,20.07,11.12,5-5.62,5-16.63,4.45-23.36a10.71,10.71,0,0,0-9.47-9.76c-3.79-.42-7.85-.05-10.27,1-3.31,1.5-5.14,3.29-6,7a23.58,23.58,0,0,0-.44,3.2c0,.31,0,.64-.06,1,0,.51,0,1-.05,1.62S758.27,66.4,758.28,66.94Z"/><path class="cls-17" d="M758.51,60.07S755,60.3,754,62.48s4.61,1.83,5.93,1.06Z"/><path class="cls-24" d="M758.28,65.37c3,.58,6.27,1.64,7.69,0,0,0-.25-2,2.85-3.9a2.94,2.94,0,0,0,1.1-3.51l-11.09,1.61a23.58,23.58,0,0,0-.44,3.2c0,.31,0,.64-.06,1C758.3,64.26,758.29,64.8,758.28,65.37Z"/><path class="cls-17" d="M758.39,62.77a13.49,13.49,0,0,1,1.91-11.45c4-5.71,15.42-5.43,19.2-1.89A13.76,13.76,0,0,1,783.73,58S768,55.56,758.39,62.77Z"/><path class="cls-17" d="M769,58.36s19.26-10.34,26.45-7-10.92,9.93-10.92,9.93a9,9,0,0,0-.81-3.29S773.83,57.4,769,58.36Z"/><path class="cls-33" d="M759.39,72c.19.49.4,1,.63,1.48h0A7.75,7.75,0,0,0,764,74.66h.19a.39.39,0,0,0,.37-.42.41.41,0,0,0-.43-.38H764A7,7,0,0,1,759.39,72Z"/><path class="cls-21" d="M761.83,63.5s-3.71-1.8-4.62,2.53,3.65,8.87,7.29,7.4C764.5,73.43,763.68,65.34,761.83,63.5Z"/><path class="cls-33" d="M762.29,70.75a.4.4,0,0,1-.38-.33,6.56,6.56,0,0,0-2.52-4.06.4.4,0,0,1,.45-.67,7.45,7.45,0,0,1,2.86,4.59.4.4,0,0,1-.33.46Z"/><path class="cls-33" d="M759.22,68.81a.42.42,0,0,1-.34-.22.4.4,0,0,1,.17-.54,4.48,4.48,0,0,1,2.4-.5.4.4,0,0,1,.32.46.39.39,0,0,1-.47.32,3.66,3.66,0,0,0-1.88.43A.46.46,0,0,1,759.22,68.81Z"/><path class="cls-33" d="M779.32,75a6.33,6.33,0,0,1-1.36-.19.44.44,0,0,1-.32-.52.44.44,0,0,1,.52-.32,4.36,4.36,0,0,0,1.44.15c0-.71-.51-4-1-6.84a.43.43,0,0,1,.36-.49.43.43,0,0,1,.5.35c.24,1.54,1,6.6,1,7.19a.69.69,0,0,1-.3.48A1.52,1.52,0,0,1,779.32,75Z"/><path class="cls-24" d="M773.7,68.07c0,.75-.32,1.36-.73,1.37s-.76-.6-.78-1.35.32-1.36.73-1.37S773.68,67.32,773.7,68.07Z"/><path class="cls-24" d="M769.51,66.14a.58.58,0,0,1-.26-.13.64.64,0,0,1-.1-.91,4.51,4.51,0,0,1,5.41-1.34.65.65,0,1,1-.55,1.17,3.27,3.27,0,0,0-3.85,1A.65.65,0,0,1,769.51,66.14Z"/><path class="cls-24" d="M783,68.07c0,.75-.32,1.36-.73,1.37s-.76-.6-.78-1.35.32-1.36.73-1.37S783,67.32,783,68.07Z"/><path class="cls-24" d="M779.73,64.85a.52.52,0,0,1-.17-.19.59.59,0,0,1,.25-.78,4,4,0,0,1,4.84.88.57.57,0,0,1-.06.81.58.58,0,0,1-.81-.07,2.85,2.85,0,0,0-3.45-.59A.57.57,0,0,1,779.73,64.85Z"/><path class="cls-22" d="M780.92,77.69a24.3,24.3,0,0,1-8.08-1.21s1,3.45,4.46,3.56A3.85,3.85,0,0,0,780.92,77.69Z"/><path class="cls-33" d="M752.34,198.52a17.27,17.27,0,0,1-5.21-.92,7.2,7.2,0,0,1,1.63,1.34c3.08,3.82,6.44,4.89,6.83,4S752.34,198.52,752.34,198.52Z"/><path class="cls-2" d="M741.46,101.35A123.62,123.62,0,0,0,732.08,112,113.81,113.81,0,0,0,724,123.75a121.59,121.59,0,0,0-6.55,12.61c-1.48,3.3-2.81,6.64-4,10q-.56,1.53-1.08,3.06l-.25.92a6.62,6.62,0,0,0,.64,5c.8,1.38,1.6,2.74,2.43,4.09,3.27,5.39,6.79,10.58,10.48,15.6,4.61,6.28,9.49,12.3,14.56,18.11a4.82,4.82,0,0,0,7.65-5.84h0c-4.13-6.23-8-12.58-11.57-19.06-2.87-5.22-5.51-10.53-7.88-15.91l0-.08c-.09-.2-.18-.4-.26-.6s.1-.29.16-.44l.06-.16c.31-.86.63-1.72,1-2.57.76-2,1.55-3.88,2.4-5.77a104.57,104.57,0,0,1,5.7-11,98.74,98.74,0,0,1,7-10.16,112.18,112.18,0,0,1,8.19-9.29h0a7.81,7.81,0,1,0-11.12-11Z"/><path class="cls-32" d="M713.44,146.36q-.56,1.53-1.08,3.06l-.25.92a6.62,6.62,0,0,0,.64,5c.8,1.38,1.6,2.74,2.43,4.09C717,156.8,719.14,151.46,713.44,146.36Z"/><path class="cls-33" d="M753.34,197s3.2,2.09,4.25,4.51,5.68,6,4.19,7.22c-1.26,1-6.78-6.77-9.47-8.43S753.34,197,753.34,197Z"/><path class="cls-21" d="M750.84,198.46s5.41,2,7,4.28,5.94,4.9,5.81,5.9-3.54-.59-6-3.07S750.84,198.46,750.84,198.46Z"/><path class="cls-21" d="M747.15,189.84a8,8,0,0,0-1.87.07,3.68,3.68,0,0,0-2.8,5.1h0a6.58,6.58,0,0,0,1.5,1.83l.1.09.39.31c2.76,2.13,7.12,2.56,7.12,2.56s5.43,3.9,7.75,5.6,6,3.51,5.8,2.21-5.48-5.51-7.39-9.14S747.15,189.84,747.15,189.84Z"/><path class="cls-21" d="M744.48,197.25l-.39-.31.33.27Z"/><path class="cls-23" d="M706,327a9.53,9.53,0,0,0-3,7.14s11.13,5.28,16.78,7.44c0,0,3.44-4.39,3.53-7.08C723.28,334.46,713.2,330.44,706,327Z"/><g class="cls-11"><path d="M872.71,155.44a10.86,10.86,0,0,1-4.24-4.71,18.38,18.38,0,0,1,0-14.45,10.86,10.86,0,0,1,4.24-4.71,12.49,12.49,0,0,1,6.51-1.64,13.93,13.93,0,0,1,4.77.81,11.44,11.44,0,0,1,3.89,2.32,1.71,1.71,0,0,1,.61,1.31,1.52,1.52,0,0,1-.3.93.9.9,0,0,1-.72.39,2.15,2.15,0,0,1-1.09-.41,13.71,13.71,0,0,0-3.49-2.11,10,10,0,0,0-3.59-.6,8.22,8.22,0,0,0-6.72,2.84c-1.57,1.89-2.36,4.59-2.36,8.08s.79,6.21,2.36,8.11a8.22,8.22,0,0,0,6.72,2.84,10.07,10.07,0,0,0,3.58-.6,13.75,13.75,0,0,0,3.5-2.11,2.15,2.15,0,0,1,1.09-.41.9.9,0,0,1,.72.37,1.48,1.48,0,0,1,.3.95,1.71,1.71,0,0,1-.61,1.31,11.44,11.44,0,0,1-3.89,2.32,13.93,13.93,0,0,1-4.77.81A12.49,12.49,0,0,1,872.71,155.44Z"/><path d="M897.73,155.42a10.86,10.86,0,0,1-4.2-4.7,16.43,16.43,0,0,1-1.47-7.2,16.88,16.88,0,0,1,1.45-7.24,10.62,10.62,0,0,1,4.18-4.71,13.54,13.54,0,0,1,12.92,0,10.62,10.62,0,0,1,4.18,4.71,16.77,16.77,0,0,1,1.45,7.21,16.54,16.54,0,0,1-1.47,7.21,10.86,10.86,0,0,1-4.2,4.72,13.24,13.24,0,0,1-12.84,0Zm13-3.82q2.35-2.85,2.35-8.11c0-3.52-.77-6.22-2.33-8.1a9.06,9.06,0,0,0-13.16,0c-1.57,1.89-2.35,4.59-2.35,8.08s.78,6.18,2.35,8.09a9,9,0,0,0,13.14,0Z"/><path d="M942.71,130.48a1.66,1.66,0,0,1,.37,1.14v23.76a1.65,1.65,0,0,1-.39,1.15,1.45,1.45,0,0,1-1.11.44,1.58,1.58,0,0,1-1.24-.64l-15.63-20.9v19.95a1.61,1.61,0,0,1-.4,1.15,1.37,1.37,0,0,1-1.07.44,1.32,1.32,0,0,1-1-.44,1.7,1.7,0,0,1-.38-1.15V131.62a1.63,1.63,0,0,1,.39-1.14,1.45,1.45,0,0,1,1.12-.44,1.64,1.64,0,0,1,1.28.64l15.58,20.9v-20a1.63,1.63,0,0,1,.4-1.14,1.37,1.37,0,0,1,1.07-.44A1.32,1.32,0,0,1,942.71,130.48Z"/><path d="M956.47,156.53a1.55,1.55,0,0,1-.43-1.15V132.87h-8.1a1.54,1.54,0,0,1-1.05-.34,1.45,1.45,0,0,1,0-2,1.49,1.49,0,0,1,1.05-.34h19.32a1.49,1.49,0,0,1,1,.34,1.45,1.45,0,0,1,0,2,1.54,1.54,0,0,1-1,.34h-8.1v22.51a1.62,1.62,0,0,1-.41,1.15,1.49,1.49,0,0,1-1.13.44A1.55,1.55,0,0,1,956.47,156.53Z"/><path d="M992,155.65a1.19,1.19,0,0,1-.43.94,1.52,1.52,0,0,1-1,.38,1.34,1.34,0,0,1-1.32-.91l-2.68-6.1H972.38l-2.71,6.1a1.34,1.34,0,0,1-1.32.91,1.56,1.56,0,0,1-1.05-.4,1.2,1.2,0,0,1-.46-1,1.33,1.33,0,0,1,.15-.6l10.77-23.95a1.61,1.61,0,0,1,.68-.79,2,2,0,0,1,2,0,1.73,1.73,0,0,1,.67.77L991.88,155A1.4,1.4,0,0,1,992,155.65Zm-18.52-8.25h11.93l-6-13.52Z"/><path d="M1000.24,155.44a10.78,10.78,0,0,1-4.23-4.71,18.26,18.26,0,0,1,0-14.45,10.78,10.78,0,0,1,4.23-4.71,12.53,12.53,0,0,1,6.52-1.64,13.88,13.88,0,0,1,4.76.81,11.58,11.58,0,0,1,3.9,2.32,1.73,1.73,0,0,1,.6,1.31,1.52,1.52,0,0,1-.3.93.89.89,0,0,1-.72.39,2.18,2.18,0,0,1-1.09-.41,13.85,13.85,0,0,0-3.48-2.11,10,10,0,0,0-3.6-.6,8.22,8.22,0,0,0-6.72,2.84c-1.57,1.89-2.35,4.59-2.35,8.08s.78,6.21,2.35,8.11a8.22,8.22,0,0,0,6.72,2.84,10.07,10.07,0,0,0,3.58-.6,13.75,13.75,0,0,0,3.5-2.11,2.18,2.18,0,0,1,1.09-.41.89.89,0,0,1,.72.37,1.48,1.48,0,0,1,.3.95,1.73,1.73,0,0,1-.6,1.31,11.58,11.58,0,0,1-3.9,2.32,13.88,13.88,0,0,1-4.76.81A12.53,12.53,0,0,1,1000.24,155.44Z"/><path d="M1027.45,156.53a1.55,1.55,0,0,1-.44-1.15V132.87h-8.09a1.57,1.57,0,0,1-1.06-.34,1.48,1.48,0,0,1,0-2,1.52,1.52,0,0,1,1.06-.34h19.31a1.5,1.5,0,0,1,1.06.34,1.45,1.45,0,0,1,0,2,1.55,1.55,0,0,1-1.06.34h-8.09v22.51a1.62,1.62,0,0,1-.41,1.15,1.51,1.51,0,0,1-1.13.44A1.55,1.55,0,0,1,1027.45,156.53Z"/><path d="M1055.33,154.37q-2.67-2.72-2.67-8V131.62a1.55,1.55,0,0,1,.41-1.14,1.49,1.49,0,0,1,1.13-.44,1.45,1.45,0,0,1,1.09.44,1.56,1.56,0,0,1,.42,1.14v15q0,3.87,1.9,5.84a9,9,0,0,0,11.16,0c1.26-1.31,1.88-3.26,1.88-5.84v-15a1.53,1.53,0,0,1,.44-1.14,1.65,1.65,0,0,1,2.24,0,1.59,1.59,0,0,1,.41,1.14v14.77c0,3.48-.9,6.14-2.69,8s-4.41,2.73-7.85,2.73S1057.11,156.17,1055.33,154.37Z"/><path d="M1083.17,156.23a10.89,10.89,0,0,1-4.12-2.28,1.74,1.74,0,0,1-.56-1.31,1.5,1.5,0,0,1,.3-.93.88.88,0,0,1,.71-.39,1.87,1.87,0,0,1,1.06.41,12.65,12.65,0,0,0,8,2.71,8.42,8.42,0,0,0,5-1.24,4.11,4.11,0,0,0,1.73-3.54,2.82,2.82,0,0,0-.83-2.13,6,6,0,0,0-2.18-1.3,33.89,33.89,0,0,0-3.65-1,35.7,35.7,0,0,1-5.07-1.51,8,8,0,0,1-3.2-2.26,5.83,5.83,0,0,1-1.22-3.84,6.89,6.89,0,0,1,1.22-4,7.93,7.93,0,0,1,3.43-2.71,12.47,12.47,0,0,1,5-1,14.58,14.58,0,0,1,4.91.81,10.26,10.26,0,0,1,3.82,2.32,1.83,1.83,0,0,1,.6,1.31,1.52,1.52,0,0,1-.3.93.88.88,0,0,1-.71.39,2.32,2.32,0,0,1-1.09-.41,12.69,12.69,0,0,0-3.43-2.11,10.75,10.75,0,0,0-3.8-.6,8,8,0,0,0-4.86,1.29,4.28,4.28,0,0,0-1.73,3.64,3.34,3.34,0,0,0,1.52,3,15.24,15.24,0,0,0,4.69,1.75,53.69,53.69,0,0,1,5.38,1.53,8,8,0,0,1,3.26,2.09,5.23,5.23,0,0,1,1.3,3.73,6.54,6.54,0,0,1-1.22,3.91,8,8,0,0,1-3.45,2.64,13,13,0,0,1-5.08.94A17.11,17.11,0,0,1,1083.17,156.23Z"/></g></g></g></svg>