<svg xmlns="http://www.w3.org/2000/svg" viewBox="0 0 1919.97 442.71"><defs><style>.cls-1{fill:#1bbfbf;}.cls-2{fill:#0fa8ba;}.cls-3{fill:#eeedef;}.cls-14,.cls-4{fill:#d9d9e2;}.cls-4{opacity:0.88;}.cls-5{fill:#f7b634;}.cls-6{fill:#efb670;}.cls-7{opacity:0.92;}.cls-8{fill:#e0dfde;}.cls-13,.cls-9{opacity:0.14;}.cls-10,.cls-13{fill:#0097cf;}.cls-11{opacity:0.5;}.cls-12{opacity:0.54;}.cls-15,.cls-16,.cls-25{fill:none;}.cls-15{stroke:#eeedef;}.cls-15,.cls-16,.cls-25,.cls-26{stroke-miterlimit:10;}.cls-16{stroke:#fff;}.cls-17{fill:#ecbc4f;}.cls-18{fill:#e8792e;}.cls-19{fill:#f47f31;}.cls-20{fill:#363f51;}.cls-21{fill:#364056;}.cls-22{fill:#ffaeab;}.cls-23{fill:#1a4850;}.cls-24{fill:#fa968c;}.cls-25{stroke:#1a4850;stroke-linecap:round;stroke-width:0.56px;}.cls-26,.cls-31{fill:#fff;}.cls-26{stroke:#0fa8ba;}.cls-27{fill:#e09f2d;}.cls-28{fill:#0e3944;}.cls-29{fill:#adbec4;}.cls-30{fill:#ff8b66;}.cls-32{fill:#ef6e4b;}.cls-33{fill:#ff7133;}</style></defs><title>services-dark</title><g id="Layer_2" data-name="Layer 2"><g id="Layer_1-2" data-name="Layer 1"><path class="cls-1" d="M.28,288.57s352.8,27.87,429.89,0c118-42.64,292.44-27.88,430.35,26.24,131.09,51.45,254.22,3.28,310.72-18s259.2-36.08,456.93,29.52,291.39-3.08,291.39-3.08l.41,119.45L.28,442.71Z"/><path class="cls-2" d="M0,279.33s226.85-45.84,391.57,24.28c130.53,55.56,369.37,32.07,492.5-7.07s397.25-26.77,490.83,28.26c74.87,44,195.75,48.49,269.55,11.42,117.59-59.08,274.81-13.28,274.81-13.28l.42,119.44L0,442.71Z"/><path class="cls-3" d="M767.34.76h398.09a17.18,17.18,0,0,1,17.18,17.18V268.33a23.34,23.34,0,0,1-23.34,23.34H773.5a23.34,23.34,0,0,1-23.34-23.34V17.94A17.18,17.18,0,0,1,767.34.76Z"/><rect class="cls-4" x="772.33" y="25.56" width="388.11" height="244.54"/><path class="cls-5" d="M768.41,0H1164.3a18.47,18.47,0,0,1,18.47,18.47v13a0,0,0,0,1,0,0H749.94a0,0,0,0,1,0,0v-13A18.47,18.47,0,0,1,768.41,0Z"/><circle class="cls-3" cx="1132.66" cy="17.31" r="2.9"/><circle class="cls-3" cx="1142.8" cy="17.31" r="2.9"/><circle class="cls-3" cx="1152.52" cy="17.31" r="2.9"/><path class="cls-6" d="M796.6,287.23a29.39,29.39,0,0,1,6.58,1.1c2.34.57,4.67,1.16,7,1.82,4.69,1.34,9.23,3.08,13.79,4.76a38.11,38.11,0,0,1,7,3.48c.12.07,0,.26-.1.19a35.16,35.16,0,0,0-6-3.13c-2.28-.88-4.59-1.72-6.89-2.57a122.37,122.37,0,0,0-13.71-4.15,35.53,35.53,0,0,0-7.58-1.4c-.07,0-.07-.1,0-.1Z"/><g class="cls-7"><path class="cls-8" d="M851,295.67a53.49,53.49,0,0,0,2-21.82,34.18,34.18,0,0,0-9.36-19.68,59.67,59.67,0,0,0-6.43-5.29c-5.76-4.31-11.52-8.62-17.44-12.71-4.64-3.21-9.52-6.43-12.47-11.14a100.84,100.84,0,0,0,2.09,19.67,42.58,42.58,0,0,0,3.81,11.48c2.89,5.44,7.55,9.77,11.85,14.26A153.89,153.89,0,0,1,838.88,287a34.49,34.49,0,0,0,4.17,5.16,16.35,16.35,0,0,0,7.71,4"/><g class="cls-9"><path class="cls-10" d="M825.9,257.48a94.69,94.69,0,0,1,14.87,6.22,37,37,0,0,1,10.88,8.74c.52.65,1,1.31,1.46,2a54,54,0,0,1-2.1,21.22l-.26.51a16.46,16.46,0,0,1-7.71-4,34.92,34.92,0,0,1-4.17-5.15,154.1,154.1,0,0,0-13.77-16.55c-4.31-4.49-9-8.82-11.86-14.26a30.77,30.77,0,0,1-1.62-3.62,71.08,71.08,0,0,1,6.78,2.29C820.89,255.75,823.4,256.61,825.9,257.48Z"/></g><g class="cls-11"><path class="cls-10" d="M811.68,235.67c3.83,8.47,10.8,15.11,17.27,21.74a112.16,112.16,0,0,1,9.12,10.26A70.57,70.57,0,0,1,845.58,280a67,67,0,0,1,5.25,15.77c0,.28-.38.42-.44.14a70.9,70.9,0,0,0-11.92-27c-5.45-7.5-12.6-13.61-18.67-20.62a50.42,50.42,0,0,1-8.28-12.62c0-.1.11-.14.16-.05Z"/></g></g><g class="cls-7"><path class="cls-8" d="M849.88,308.37c-2-8.23-5.93-15.53-12.59-21-4.15-3.43-9-6.06-13-9.68-6.29-5.75-10-13.62-15.46-20.09C801.46,248.85,791.09,243,781,237.4c10.36,13.8,12,32.44,22.9,45.87,8.94,11,23,17.08,36.93,20.94,3.27.9,6.74,1.81,9.1,4.16"/><g class="cls-12"><path class="cls-10" d="M787.84,244.78c9.68,6,15.42,15.94,21.42,25.07a86.89,86.89,0,0,0,10.4,13.49,39.78,39.78,0,0,0,6.6,5.45c2.69,1.75,5.65,3.08,8.39,4.75a49.41,49.41,0,0,1,15,14c.16.24-.22.44-.39.22a54.07,54.07,0,0,0-13.68-13c-2.68-1.75-5.6-3.1-8.34-4.75a38.34,38.34,0,0,1-6.43-4.88c-8.2-7.64-13.12-17.8-19.57-26.72-3.71-5.14-8-9.95-13.46-13.43-.08-.06,0-.19.08-.13Z"/></g><path class="cls-13" d="M796.39,260.33c3.63,2.35,6.05,6,8.1,9.76s3.87,7.61,6.71,10.8a23.49,23.49,0,0,0,17.44,7.66c3.11,0,6.23-.64,9.32-.57,6.24,5.42,10,12.49,11.91,20.44-2.36-2.35-5.83-3.25-9.1-4.16-14-3.86-28-9.92-36.93-20.94-5.92-7.31-9.11-16.16-12.46-24.94A13.51,13.51,0,0,1,796.39,260.33Z"/></g><path class="cls-5" d="M831,298.44c-10.54-6.38-20.91-12.8-33.32-13.94a14.29,14.29,0,0,0-7.18.79c-.73.33-1.49.91-1.47,1.69a1.73,1.73,0,0,0,.38.93c1.07,1.43,3.06,1.87,4.87,2.16,12.46,2,25.6,2.53,36.64,8.41"/><path class="cls-5" d="M846.87,297.27a82.41,82.41,0,0,0-38.49-29.58c-3.32-1.26-6.85-2.33-10.39-1.92-1.33.15-3,1-2.63,2.25a2.22,2.22,0,0,0,.73,1c2.07,1.88,4.78,3,7.42,4,8,3.11,15.94,6.22,23.43,10.25a101.94,101.94,0,0,1,19.93,14"/><path class="cls-6" d="M801,268a200.75,200.75,0,0,1,19.73,8.55,85.88,85.88,0,0,1,9.09,5.43c3,2.1,5.94,4.38,8.81,6.7a33.76,33.76,0,0,1,4.06,3.58c1.17,1.32,2.19,2.75,3.4,4,.09.1,0,.26-.15.16-1-1.08-1.91-2.26-2.86-3.4a19.28,19.28,0,0,0-1.56-1.7c-.6-.56-1.28-1.07-1.92-1.59-2.84-2.32-5.7-4.61-8.68-6.75a104.37,104.37,0,0,0-18.83-10.36c-3.67-1.61-7.39-3.1-11.11-4.61,0,0,0-.06,0-.05Z"/><path class="cls-5" d="M848.13,293.87c-4.11-6.23-8.25-12.51-11.19-19.33-2.29-5.31-3.93-11.07-7.85-15.41a4.16,4.16,0,0,0-2.6-1.59A2.93,2.93,0,0,0,823.9,259a5.24,5.24,0,0,0-.59,2.94c.15,3.11,1.78,5.94,3.46,8.59,5.52,8.65,9.65,16.65,21.36,23.33"/><path class="cls-6" d="M827.91,264.19c4.07,8.08,8.38,16.15,14.23,23.19.83,1,1.7,2,2.6,2.95s1.89,1.88,2.83,2.83c.09.08,0,.22-.13.14a43.5,43.5,0,0,1-4.81-5,66.2,66.2,0,0,1-4.19-5.41A114.33,114.33,0,0,1,831.32,271c-1.19-2.26-2.34-4.54-3.47-6.83,0,0,0-.06.06,0Z"/><path class="cls-14" d="M1376.09,322.9c-4.89-17.17-22.19-54.75-41.83-52.58-22.66,2.5,22.2,43.52,22.2,43.52s-31.38-24.19-42.71-10.14,38.51,23,38.51,23-26.23-5.45-23.63,5,46.33,7.45,49.39,17.49S1379.43,334.68,1376.09,322.9Z"/><path class="cls-15" d="M1377.94,345c-4.3-18.22-12.1-35.89-23.5-50.78a106.33,106.33,0,0,0-14-15.11"/><path class="cls-15" d="M1377.65,345.33c-11.87-19.67-32.08-34-54.4-37.69"/><path class="cls-15" d="M1377.39,345.48c-10.74-8.73-24.37-13.23-38.06-14.2"/><path class="cls-14" d="M1383.07,322.08c4.89-17.18,22.18-54.75,41.83-52.59,22.65,2.5-22.2,43.53-22.2,43.53s31.38-24.2,42.71-10.15-38.51,23-38.51,23,26.23-5.45,23.63,5-46.34,7.44-49.39,17.49S1379.72,333.85,1383.07,322.08Z"/><path class="cls-16" d="M1381.22,344.18c4.29-18.22,12.1-35.88,23.5-50.78a105.71,105.71,0,0,1,14-15.11"/><path class="cls-16" d="M1381.51,344.5c11.87-19.67,32.08-34,54.39-37.69"/><path class="cls-16" d="M1381.76,344.65c10.74-8.73,24.38-13.23,38.07-14.2"/><path class="cls-4" d="M1367.43,305.5c-4.44-26.62-6.19-88,18.78-94.23,28.8-7.19-.58,72.11-.58,72.11s23.26-49.1,45.36-34.6-32.55,50.85-32.55,50.85,28.33-20.14,31.47-4.14-51.35,32.49-49,48.15S1370.48,323.75,1367.43,305.5Z"/><path class="cls-16" d="M1378.49,337.65c-5.78-27.81-7-56.51-2.22-83a150.84,150.84,0,0,1,7.83-28"/><path class="cls-16" d="M1379,338c2.47-33.46,18.18-63.36,42.88-79.11"/><path class="cls-16" d="M1379.43,338.06c7.69-17.44,21.41-30.27,37.32-38.14"/><path class="cls-17" d="M576.79,294.85c.55-6.24-8.32-4.33-11.6-2.4-6.38,3.77-16.35,15.79-18.35,19.66-.09-1.52-.22-3-.4-4.56q-.5-4.24-1-8.48c4.2-1.36,13.27-3.79,20.55-15.07,1.22-1.89,2.67-4.52,1.59-6.77-1.51-3.13-4.24-.68-5.92.92-2.88,2.73-12.1,12.77-16.64,17.2-.65-5.66-1.29-11.32-2-17,7.48-4.09,16.53-9.11,19.71-17.59,2.09-5.55-4.13-5.3-7.31-3.4-5.7,3.4-10.07,9.66-13,15.94-.33-2.66-.67-5.31-1-8-.06-.48-.12-1-.19-1.43,3.85-1.69,7.73-2.92,10.88-5.92a16.6,16.6,0,0,0,4.75-11.27c.11-1.85.5-4.08-.79-5.68-1.8-2.23-3.08.79-4,2.5a115.33,115.33,0,0,1-6.47,10.6c-1.29,1.86-2.43,3.65-3.51,5.56a14.51,14.51,0,0,1-1.22,1.73c-.54-3.77-1.16-7.55-1.86-11.3,5.17-5,11.39-11.13,12.08-18.74.44-5-4.56-3.4-6.73-1.13-3.37,3.52-5.43,8.55-6.57,13.6-.33-1.63-.68-3.26-1-4.88,4-7.45,9-16.62,7-25.36-1.29-5.55-6.23-2-7.81,1.28a27.92,27.92,0,0,0-2.52,10.6c-.2-.72-.4-1.45-.61-2.17-.49-1.73-1-3.42-1.64-5.09,4.22-5.86,9.34-13,8.68-20.65-.44-5-5.09-2.54-6.83.07-2.76,4.14-3.9,9.63-4.1,14.9-1.06-2.48-2.21-4.92-3.4-7.34,2.67-5.26,5.87-11.64,4.38-17.71-1-4-4.44-1.42-5.52.91a23.15,23.15,0,0,0-1.56,11.47c-1.34-2.63-2.7-5.26-4-7.92.32-2.64.44-5.45.5-7.89.07-2.89-.3-6.11-2.7-8.09-3.16-2.6-5.75-1.1-6.33,2.78a9.47,9.47,0,0,0,.69,5,8.15,8.15,0,0,0-4.16-1.53,2.8,2.8,0,0,0-2.64,1.14c-.76,1.2-.34,3.14.73,4.67,1.88,2.71,5.12,4.17,7.81,5.93a19.07,19.07,0,0,1,2.34,1.88c1,.94,2,1.93,3.06,2.79q1.33,2.59,2.66,5.21h0c-3.24-3.59-7.43-6.88-11.93-8-2.5-.6-6.66.5-4.15,3.75,4,5.21,11.55,6.57,17.49,7.79l.27-.19,1.16,2.43.06.12a106.78,106.78,0,0,1,5.14,12.82v0a19.68,19.68,0,0,0-3.88-3c-2.52-1.47-7.42-1.61-5.73,2.74,2.17,5.6,7.59,9.22,12.79,12.11,1.44,5.92,2.7,11.91,3.77,17.91-2.55-5.15-6.23-10.2-11-13-2.71-1.57-8-1.72-6.15,2.95,2.91,7.49,11.25,11.68,17.78,15.16l.19-.06h0c.47,2.82.88,5.66,1.26,8.48.18,1.39.36,2.78.53,4.17h0c-3.36-7.19-8.18-14.28-14.32-18.18-3.51-2.22-10.25-2.52-7.84,4,3.84,10.37,14.54,16.3,23,21.22h0c.45,3.95.87,7.91,1.3,11.86-5.08-5.32-14.94-17-18.43-20.45-1.63-1.64-5.9-5-7.56-1.46-.93,2,.84,6.15,2,7.9,2.46,3.9,15.32,14.32,24.73,20.11h0q.48,4.21,1,8.41c.15,1,.27,2.07.37,3.1-6.82-8.53-21.25-24.28-26.1-26.66-2.47-1.21-6.82-2.56-8.68.27s2,6.48,3.54,8.77c3.56,5.28,20,16.68,23.38,18.35,2.6,1.29,5.57,2.07,8.19,3.2v.13c.15,2.33.21,4.63.22,6.93l-.44-.28c-7.51-4.88-22.8-16.22-28-19.44-2.42-1.49-8.47-4.36-9.47.38-.55,2.62,2.75,7.13,4.56,8.91,3.77,3.71,20,11.67,32.6,16.21l.68.23c-.22,7.48-.82,14.93-1,22.65-.06,2.33,3.57,2.63,3.62.29.26-11.15,1.69-21.91,1.2-32.95C559.66,310.91,576.54,297.68,576.79,294.85Z"/><path class="cls-18" d="M587.72,332c3.2-3.36-2.82-6.34-5.61-6.73-5.43-.76-16.74,1.61-19.68,2.93.65-.92,1.27-1.86,1.87-2.83q1.66-2.69,3.35-5.35a25.37,25.37,0,0,0,18.83.74c1.58-.54,3.64-1.39,4-3.19.57-2.51-2.14-2.35-3.85-2.2-2.92.26-12.88,1.82-17.55,2.3,2.23-3.58,4.46-7.15,6.68-10.74,6.21,1.08,13.77,2.34,19.52-1.11,3.76-2.25,0-5-2.67-5.33-4.87-.66-10.28.95-14.88,3.24,1-1.7,2.06-3.39,3.08-5.09.19-.3.37-.61.55-.91,3,.79,5.82,1.87,9,1.58a12.3,12.3,0,0,0,7.94-4.34c.92-1,2.17-2.13,2.16-3.65,0-2.12-2.15-1-3.47-.4a84,84,0,0,1-8.62,3.16c-1.6.49-3.09,1-4.6,1.61a11.73,11.73,0,0,1-1.5.43q2.14-3.64,4.13-7.4c5.31-.52,11.72-1.19,15.63-5.28,2.55-2.69-1.08-4.07-3.38-3.75-3.57.48-7.08,2.44-10.07,4.84.56-1.09,1.11-2.2,1.64-3.3,5.73-2.49,12.87-5.48,15.72-11.47,1.82-3.81-2.69-4-5.11-2.86a20.62,20.62,0,0,0-6.34,5c.22-.51.44-1,.65-1.54.51-1.23,1-2.46,1.39-3.7,5.15-1.45,11.39-3.23,14.54-8,2.05-3.09-1.78-3.82-4-3.11-3.5,1.13-6.69,3.78-9.24,6.74.53-1.93,1-3.87,1.42-5.82,4-1.81,8.76-4,10.69-8.23,1.27-2.76-1.91-2.87-3.61-2a16.91,16.91,0,0,0-6.19,5.92c.44-2.15.86-4.29,1.32-6.44,1.4-1.38,2.77-2.95,3.93-4.34,1.37-1.64,2.64-3.68,2.16-5.93-.63-3-2.82-3.28-5-1.31a7,7,0,0,0-1.91,3.23,6.06,6.06,0,0,0-1.71-2.8,2,2,0,0,0-2-.55c-1,.34-1.64,1.66-1.73,3-.16,2.43,1.05,4.77,1.79,7a14.23,14.23,0,0,1,.49,2.17c.16,1,.27,2,.49,3-.29,1.42-.57,2.83-.87,4.24h0c-.22-3.57-1.13-7.41-3.23-10.12-1.17-1.5-4.09-2.78-4.13.26-.07,4.87,3.66,9.13,6.54,12.57h.24c-.15.65-.29,1.29-.45,1.94a.87.87,0,0,1,0,.1,79.05,79.05,0,0,1-2.93,9.8h0a14.74,14.74,0,0,0-.86-3.52c-.79-2-3.56-4.35-4.59-1.05-1.31,4.24.16,8.84,1.84,12.9-1.9,4.09-3.93,8.14-6.08,12.11.9-4.15,1.1-8.78-.38-12.55-.84-2.16-3.81-4.67-4.91-1.13-1.77,5.68,1.13,11.95,3.3,17l.15.05h0q-1.56,2.78-3.19,5.49c-.53.89-1.07,1.78-1.61,2.66h0c1.36-5.7,1.84-12,.08-17.12-1-2.9-4.78-6.18-6.37-1.31-2.55,7.77.91,16.14,3.52,22.86h0c-1.56,2.49-3.14,5-4.71,7.46-.49-5.42-.84-16.7-1.25-20.33-.19-1.7-1.1-5.63-3.71-4.33-1.44.72-2.34,4-2.51,5.47-.37,3.39,2.28,15.35,5.06,23h0q-1.65,2.65-3.26,5.35c-.39.67-.8,1.32-1.21,2,0-8.08-1.12-23.85-2.84-27.46-.87-1.84-2.77-4.62-5.15-3.84s-1.83,4.67-2,6.71c-.37,4.7,3.92,18.89,5.09,21.39.91,2,2.27,3.77,3.26,5.63l-.06.08c-1,1.41-2,2.78-3.06,4.11,0-.12-.08-.24-.13-.37-2.09-6.28-5.73-19.89-7.26-24.16-.71-2-2.89-6.42-5.66-4.14-1.52,1.27-1.69,5.39-1.46,7.26.47,3.89,6.19,16,11.41,24.4.09.16.19.31.28.46-3.57,4.22-7.34,8.26-11,12.65-1.11,1.32.85,3.17,2,1.84,5.29-6.34,11.07-11.91,15.87-18.53C570.41,333.41,586.28,333.52,587.72,332Z"/><g class="cls-7"><path class="cls-8" d="M541.44,333c.86-9.08.43-18.39-2.31-27.09s-7.9-16.79-15.28-22.15a70.61,70.61,0,0,0-8.72-5.16c-7.71-4.09-15.42-8.18-23.28-12-6.16-3-12.6-5.91-17.09-11.07a129.09,129.09,0,0,0,6.71,23.62,54.42,54.42,0,0,0,7,13.27c4.58,6,11,10.4,17,15a190.42,190.42,0,0,1,19.79,17.42,43.22,43.22,0,0,0,6,5.45,19.39,19.39,0,0,0,10,3.36"/><g class="cls-9"><path class="cls-10" d="M503.62,291.41A110.93,110.93,0,0,1,522.47,296a44.91,44.91,0,0,1,14.7,8.47c.76.68,1.47,1.4,2.16,2.14a69.37,69.37,0,0,1,2.1,26.38l-.19.67a19.39,19.39,0,0,1-10-3.36,42.61,42.61,0,0,1-6-5.45,190.42,190.42,0,0,0-19.79-17.42c-6-4.61-12.46-9-17.05-15a39.76,39.76,0,0,1-2.69-4.11c2.86.27,5.67.87,8.49,1.42C497.34,290.32,500.48,290.85,503.62,291.41Z"/></g><g class="cls-11"><path class="cls-10" d="M482.15,267.65c6.35,9.57,16,16.27,25,23.06a136.5,136.5,0,0,1,13,10.67A89.32,89.32,0,0,1,531.66,315a84.94,84.94,0,0,1,9.59,18.21c.13.33-.35.59-.49.26a90.07,90.07,0,0,0-19.86-30.55c-8-8.05-17.78-14.07-26.44-21.4A63.2,63.2,0,0,1,482,267.74c-.07-.11.1-.2.17-.09Z"/></g></g><g class="cls-7"><path class="cls-8" d="M542.85,348.74c-4.12-9.66-10.33-17.78-19.36-23.14-5.64-3.35-11.91-5.57-17.37-9.2-8.64-5.74-14.68-14.62-22.54-21.4-10.61-9.15-24.08-14.15-37.24-19,15.18,14.76,21.18,37.22,36.89,51.41,12.9,11.66,30.72,16.2,48,18.07,4,.44,8.32.84,11.61,3.23"/><g class="cls-12"><path class="cls-10" d="M456.05,283.64c12.7,5.37,21.6,16.35,30.65,26.29a107.4,107.4,0,0,0,15.16,14.38,48.56,48.56,0,0,0,8.94,5.31c3.55,1.59,7.32,2.61,10.91,4.1a60.23,60.23,0,0,1,20.66,14c.24.25-.17.58-.41.34A66.28,66.28,0,0,0,523,334.93c-3.53-1.59-7.26-2.64-10.84-4.1a46.32,46.32,0,0,1-8.63-4.65c-11.31-7.67-19.3-19.09-28.82-28.68C469.26,292,463.17,287,456,283.82c-.11-.05-.05-.22.06-.18Z"/></g><path class="cls-13" d="M469.48,300.92c4.78,2.13,8.43,6.15,11.64,10.28s6.21,8.52,10.24,11.84a27.75,27.75,0,0,0,22.19,5.8c3.66-.66,7.2-2.06,10.86-2.6,8.52,5.36,14.46,13.24,18.44,22.56-3.29-2.39-7.57-2.78-11.61-3.22-17.29-1.88-35.11-6.42-48-18.07-8.55-7.73-14.22-17.9-20.06-27.95A15.77,15.77,0,0,1,469.48,300.92Z"/></g><path class="cls-19" d="M518.41,340.47c-13.79-5.66-27.39-11.39-42.25-10.25-2.9.22-5.9.75-8.28,2.43a2.57,2.57,0,0,0-1.37,2.36,2.18,2.18,0,0,0,.65,1.06c1.57,1.54,4,1.66,6.2,1.65,15.11-.09,30.69-2.13,45,2.81"/><path class="cls-6" d="M475.54,333.77a33.29,33.29,0,0,1,8,0c2.88.21,5.76.46,8.62.8,5.81.68,11.54,1.88,17.27,3a45.48,45.48,0,0,1,9,2.82c.15.07.08.32-.08.25a42.44,42.44,0,0,0-7.77-2.59c-2.89-.61-5.78-1.16-8.67-1.73A145.77,145.77,0,0,0,484.8,334a41.3,41.3,0,0,0-9.23-.15c-.07,0-.1-.11,0-.12Z"/><path class="cls-19" d="M536.91,335.78a99.56,99.56,0,0,0-51.73-28.31c-4.17-.86-8.56-1.45-12.64-.23-1.53.45-3.28,1.85-2.61,3.3a2.74,2.74,0,0,0,1.08,1.08c2.85,1.88,6.26,2.63,9.59,3.36,10,2.18,20.12,4.35,29.82,7.75a123.54,123.54,0,0,1,26.49,13"/><path class="cls-6" d="M476.61,309.38a235.15,235.15,0,0,1,25.08,6.42,101.46,101.46,0,0,1,11.87,4.78c4,1.95,8,4.15,11.83,6.41a40.14,40.14,0,0,1,5.55,3.54c1.66,1.37,3.18,2.92,4.88,4.24.13.1,0,.33-.14.23-1.43-1.11-2.74-2.38-4.1-3.57a25.08,25.08,0,0,0-2.21-1.76c-.83-.57-1.73-1.05-2.6-1.56-3.84-2.25-7.71-4.47-11.69-6.47a123.63,123.63,0,0,0-24.41-8.84c-4.67-1.22-9.38-2.28-14.08-3.36,0,0,0-.07,0-.06Z"/><path class="cls-19" d="M537.66,331.37c-6.19-6.78-12.42-13.61-17.36-21.35-3.84-6-7-12.74-12.57-17.24a4.94,4.94,0,0,0-3.41-1.41,3.43,3.43,0,0,0-2.72,2.32,6.54,6.54,0,0,0-.07,3.72c.85,3.77,3.38,6.9,5.93,9.79,8.37,9.45,15,18.39,30.2,24.17"/><path class="cls-6" d="M507.43,299.2c6.54,9.05,13.36,18,21.77,25.46,1.2,1.06,2.43,2.09,3.7,3.07s2.63,1.92,4,2.88c.11.09,0,.28-.13.2a53.72,53.72,0,0,1-6.74-5.1q-3.19-2.73-6.1-5.76a142.4,142.4,0,0,1-11-13.07c-1.89-2.52-3.73-5.07-5.56-7.63,0,0,0-.09.06-.05Z"/><path class="cls-1" d="M1127,299.75c7-15.46,14.18-30.69,13.27-47.55-.18-3.29-.72-6.7-2.62-9.44-.64-.91-1.63-1.81-2.75-1.61a2.57,2.57,0,0,0-1.26.71c-1.85,1.73-2.07,4.48-2.12,7-.33,17.1,1.63,34.8-4.59,50.82"/><path class="cls-6" d="M1136.33,245.88a36.38,36.38,0,0,1,.14,9c-.2,3.27-.44,6.53-.78,9.78-1.35,12.76-1,7.83-3.23,19.6a50.85,50.85,0,0,1-3.17,10.2c-.07.17-.37.1-.3-.08a47.3,47.3,0,0,0,2.92-8.85c.66-3.28,1.26-6.57,1.88-9.85a157.38,157.38,0,0,0,2.38-19.34c.23-3.46.62-7,0-10.46,0-.08.12-.12.13,0Z"/><path class="cls-19" d="M1125.5,303a111.88,111.88,0,0,0,34.78-57.78c1.14-4.7,2-9.65.63-14.31-.49-1.74-2.07-3.76-3.8-3.05a3.36,3.36,0,0,0-1.31,1.2c-2.28,3.17-3.27,7-4.22,10.77-2.85,11.31-5.7,22.65-10,33.53A138.25,138.25,0,0,1,1125.5,303"/><path class="cls-6" d="M1158.28,235.41a261.88,261.88,0,0,1-8.27,28.22,113,113,0,0,1-6,13.3c-2.4,4.52-5.1,8.89-7.87,13.21a44.31,44.31,0,0,1-4.33,6.19c-1.66,1.85-3.52,3.52-5.12,5.41-.13.14-.39,0-.26-.16,1.34-1.6,2.87-3,4.31-4.55a30.88,30.88,0,0,0,2.13-2.45c.69-.93,1.29-1.93,1.91-2.91,2.76-4.28,5.48-8.59,8-13a137.15,137.15,0,0,0,11.09-27.4c1.57-5.25,3-10.55,4.35-15.84a0,0,0,0,1,.08,0Z"/><path class="cls-1" d="M1130.67,303.91c8.15-6.82,16.36-13.68,25.6-19.05,7.2-4.19,15.19-7.6,20.64-13.77a5.5,5.5,0,0,0,1.76-3.82,3.93,3.93,0,0,0-2.65-3.14,8.14,8.14,0,0,0-4.38-.18c-4.45.86-8.21,3.64-11.68,6.45-11.36,9.21-22.06,16.43-29.29,33.51"/><path class="cls-6" d="M1169.37,270.59c-10.84,7.15-21.6,14.62-30.57,23.93-1.28,1.33-2.53,2.7-3.72,4.11s-2.33,2.93-3.5,4.38c-.11.14-.33,0-.23-.14a60.65,60.65,0,0,1,6.2-7.5q3.29-3.53,6.94-6.74a165.82,165.82,0,0,1,15.69-12c3-2.07,6.07-4.09,9.13-6.09,0,0,.1.05.06.08Z"/><path class="cls-20" d="M686.22,370.45v-3.08c0-3.55,3.31-10,3.31-12.36s9.16,1.92,9.16,1.92a11.46,11.46,0,0,0,3.15,6.89,8.78,8.78,0,0,1,2.23,6.63Z"/><path class="cls-20" d="M748.75,370.45l-1.59-.74-.74.74h-6c-.61-1.73-2.65-8.35-.81-12.93,2.15-5.32,8.78-3.9,8.78-3.9s4.49,6.27,7.1,7.4,12.55,5.14,13.73,7.75c.35.78-.25,1.3-.08,1.68Z"/><path class="cls-21" d="M728.44,172.22c3.43,49.77,12.81,115,23,183.63,0,0-2,3.24-13.31,1.54l-34.83-145.7a1,1,0,0,0-.94-.64,1,1,0,0,0-1,1c-.4,11-3.93,44.57-2,145.85a13.91,13.91,0,0,1-12.29,0s-22.46-149.8-17.29-178.48Z"/><path class="cls-5" d="M669,189.26s9.52,10,37.4,5.59c15.84-2.51,23-10.24,23-10.24s5.09-86.37-.51-93.65c-4.07-5.29-12.08-7.56-22.52-8.11-3.93-.2-8.21-.17-12.77.05a43.14,43.14,0,0,0-9.54,1.52c-11.68,3.27-19.87,10.93-21.11,16.94C661.38,108.9,669,189.26,669,189.26Z"/><path class="cls-5" d="M665.35,96.33c7.43-1.92,11.67,21.43,13.48,34s.68,20.27-4.85,20.65c-5.88.41-10.72-.17-13.67-20.65C656.29,102.36,665.35,96.33,665.35,96.33Z"/><path class="cls-22" d="M680.89,62.39c2.15,17.16,20.76,16.91,24.17,10,1.1-2.21,1.87-6.08,2.09-10.22.05-.94.07-1.88.06-2.83-.06-6.43-1.54-12.74-5.3-14C688.83,41.15,678.75,45.24,680.89,62.39Z"/><path class="cls-21" d="M705.55,48.81s-7.58-5.29-18.79-1.37c0,0-1.87,9.91-2.26,14.34,0,0-4.18,1.76.45,10.25,0,0-5.57-.12-7.75-14.88-1.88-12.8,4.17-16,12.76-18.2C701.18,36.1,707.36,42.68,705.55,48.81Z"/><path class="cls-23" d="M694.26,57.44c0,1,.5,1.72,1,1.7s.93-.82.89-1.78-.5-1.72-1-1.7S694.22,56.48,694.26,57.44Z"/><path class="cls-23" d="M703.07,57.8c0,1,.51,1.72,1,1.7s.94-.82.89-1.78-.5-1.72-1-1.7S703,56.84,703.07,57.8Z"/><path class="cls-24" d="M690.66,60.6a1.83,1.83,0,1,0,2.1-.92A1.63,1.63,0,0,0,690.66,60.6Z"/><path class="cls-24" d="M705.1,61.35a1.61,1.61,0,0,0,2,.82c.05-.94.07-1.88.06-2.83a2.06,2.06,0,0,0-.85.09A1.65,1.65,0,0,0,705.1,61.35Z"/><path class="cls-25" d="M696.32,51.19a4.84,4.84,0,0,0-3.36.89"/><path class="cls-25" d="M703.7,52s2.07,0,2.19,1.09"/><path class="cls-22" d="M684.5,61.78s-3-3.16-5.46-1,2.12,8,4.91,7.64S684.5,61.78,684.5,61.78Z"/><path class="cls-3" d="M702.35,67.06s-3.94.85-5.88.48c0,0,.56,1.82,5.77,1.14Z"/><path class="cls-24" d="M699.85,76.24s-1.15,4.67,2.1,10.5c0,0-6.9,7.59-14.78,2.78,0,0-1.53-15.34-4-18.26a5.22,5.22,0,0,1,0-3S690.89,76.68,699.85,76.24Z"/><rect class="cls-26" x="697.75" y="73.26" width="136.5" height="70.5" rx="15.08"/><path class="cls-22" d="M766.43,74.92l1-1.56a16.31,16.31,0,0,0,.78,3.48c.35.38,1.45,1.92,1.45,1.92a1,1,0,0,0,.63-1.58,6.17,6.17,0,0,1-.41-3.21s.69,1.88,1.31,2.15a21.86,21.86,0,0,1,2,1.2s.88-.32.06-1.22a.83.83,0,0,1-.17-.27c-.37-.33-.74-.72-.74-1,0-.44-.37-2.07-1.05-2.48s-1.2.37-1.2.37a1.51,1.51,0,0,0-.87-1.41,1.45,1.45,0,0,0-1.64.52s-.41-1.35-1.34-1.23-1.37,1.21-1.37,1.21a1.66,1.66,0,0,0-1.16-1.15,2.16,2.16,0,0,0-1.45.24,5.39,5.39,0,0,0-.48,1.79c0,1.36,1.58,4.74,1.58,4.74s1.69-.17,1.08-1.29a3.19,3.19,0,0,1,.16-3.44l0,2.71,1.25,3.12s1.51-.42,1.29-1.16S766.43,74.92,766.43,74.92Z"/><path class="cls-22" d="M693.81,91.3s3.75-2.07,5.19-2,5,1.8,5,1.8-.23,1.8-1.42,1.13a3.37,3.37,0,0,0-3.66.07l2.88.11,3.3,1.42s-.49,1.58-1.28,1.33-2.63-.86-2.63-.86l-1.69,1s3.29.56,3.69.94,2,1.58,2,1.58-.5,1.4-1.69.64a6.6,6.6,0,0,0-3.42-.53s2,.79,2.26,1.45,1.22,2.22,1.22,2.22-.37.92-1.3,0-4.61-.5-4.61-.5S694.17,95.87,693.81,91.3Z"/><path class="cls-22" d="M693.81,91.3c-4,3-1.32,14-1.32,14s7.84-1.11,7.73-4.25S693.81,91.3,693.81,91.3Z"/><path class="cls-22" d="M691.74,100.79s-25.61,31.9-27.19,37.59,7.64,17.61,14,7.83c3.88-5.92,18.34-43.82,18.34-43.82Z"/><path class="cls-5" d="M1252.42,351.34l-6.35,1.48s-9.92-53.2-12.21-58.83c-2-4.85-10.35-23.4-13.13-37.65a9.34,9.34,0,0,1-2.18-.31h0l-.94-.2-.91-.19c-.24,14.2-3.32,31.71-4.27,36.62-1.14,5.95-.53,60.11-.53,60.11l-6.52-.22c-12.37-43.85-7.68-60.57-7.68-60.57s-9.5-39.23-5.48-53.15a93,93,0,0,1,4.56-12.39c.13-.29.25-.57.39-.85a83.06,83.06,0,0,1,5.77-10.67l13.26,1.66.12-.22.39.08v4.16l1.68-.08.37,0h0l5.51-.29.75,0,7.87-1.11s2.6,5.19,6.71,12.57c.15.29.69.56.84.84,1.46,2.65,2.51,6,4.19,9.22,6.65,12.88,1.79,49.78,1.79,49.78S1256,305.92,1252.42,351.34Z"/><path class="cls-27" d="M1207.3,216.05c0,.09-3.46,8.22-10.53,10,.13-.29.25-.57.39-.85,6.34-2,9.44-9.32,9.48-9.4Z"/><path class="cls-27" d="M1237.3,232.34c-7.92-1.7-12-10-13-12.54-.19-.47-.29-.74-.3-.76l.67-.24s.13.38.38,1c1.13,2.62,4.84,9.88,11.81,11.73C1237,231.77,1237.15,232.05,1237.3,232.34Z"/><path class="cls-27" d="M1218.54,256l-.94-.2a56.56,56.56,0,0,1-5-14.3c-2.47-11,3.15-22.65,3.21-22.76l.64.31c-.06.11-5.58,11.58-3.16,22.3.1.45.21.89.31,1.32.06.23.11.46.17.69A50.34,50.34,0,0,0,1218.54,256Z"/><path class="cls-27" d="M1213.45,243.42h-.11l.05-.71a1.5,1.5,0,0,0,1.16-.58c.47-.54,1.47-2.23.66-6.39-1.09-5.59,3-15.37,3.23-15.79l.65.28c0,.1-4.23,10-3.18,15.38.84,4.3-.16,6.22-.83,7A2.2,2.2,0,0,1,1213.45,243.42Z"/><path class="cls-28" d="M1213.59,164.5s2.1-3.8-.86-10.33-2.34-24.58,12.45-23.81c0,0,8.78-1.46,13.2,4.29s8,26,3.4,41S1207.64,186.71,1213.59,164.5Z"/><path class="cls-22" d="M1229.83,219.5a30.47,30.47,0,0,1-26.9-5s-2.42-49.85,2.19-53.19c2-1.47,6-.3,9.84,1.49a73.36,73.36,0,0,1,9.69,5.61A74.55,74.55,0,0,1,1240,168c4.31.46,7.87,1.73,8,4.59C1248.49,179.92,1229.83,219.5,1229.83,219.5Z"/><path class="cls-22" d="M1240.39,168.07c-2.9-.3-3.44,1.9-6.35,3a40.48,40.48,0,0,1-7.73,2c-1.32.12-2,1.76-2,1.76s-.47-2.22-1.18-2.4-6.86-6.38-8.15-9.58a73.36,73.36,0,0,1,9.69,5.61A74.55,74.55,0,0,1,1240,168Z"/><path class="cls-21" d="M1202.45,357.68c.39-2.71-.61-4.64.1-5.95,1.1-2,2.25.54,2.25.54.1-3.08,5.26-3.08,5.78-1.67a8.34,8.34,0,0,0,.45,1c.32-.74.87-1.46,1.57-1,2.76,1.65-.67,5.92,1.84,9,3.2,4,1.23,9.93,1.23,9.93h-15.3C1198.58,361.17,1202.05,360.39,1202.45,357.68Z"/><path class="cls-29" d="M1211.9,356.67s-3.62-1.9-8.42.62l1-1.73a8.39,8.39,0,0,1,7-.51Z"/><path class="cls-29" d="M1212.53,359.54a13.79,13.79,0,0,0-10,.73l.9-1.83s4.56-2,8.42-.5Z"/><path class="cls-21" d="M1255.23,357.68c-.4-2.71.6-4.64-.11-5.95-1.09-2-2.25.54-2.25.54-.09-3.08-5.25-3.08-5.77-1.67a8.34,8.34,0,0,1-.46,1c-.32-.74-.86-1.46-1.57-1-2.76,1.65.67,5.92-1.84,9-3.19,4-1.22,9.93-1.22,9.93h15.29C1259.1,361.17,1255.63,360.39,1255.23,357.68Z"/><path class="cls-29" d="M1245.78,356.67s3.62-1.9,8.41.62l-.94-1.73a8.4,8.4,0,0,0-7-.51Z"/><path class="cls-29" d="M1245.15,359.54a13.79,13.79,0,0,1,9.95.73l-.91-1.83s-4.56-2-8.41-.5Z"/><path class="cls-22" d="M1223.54,151.94s1.1,13.31-2.6,15.22c0,0,2.74,5,10.07,2,0,0-1.24-6.85,3.62-15C1237.88,148.71,1223.54,151.94,1223.54,151.94Z"/><path class="cls-30" d="M1236.91,147.37s2.76-3.2,3.39.25c.73,4-2.81,5.9-3.62,4.67S1236.91,147.37,1236.91,147.37Z"/><path class="cls-22" d="M1216.05,149.17s-3.21-2.75-3.31.76c-.12,4.06,3.66,5.41,4.28,4.07S1216.05,149.17,1216.05,149.17Z"/><path class="cls-22" d="M1227.9,162.74c6.61-.5,10-5.11,9-18.07-.51-6.69-4.22-10.53-11.63-10s-10.22,4.9-9.71,11.59C1216.65,160.22,1221.06,163.26,1227.9,162.74Z"/><path class="cls-22" d="M1218.13,150.75a1.57,1.57,0,1,0,1.64-1.07A1.41,1.41,0,0,0,1218.13,150.75Z"/><path class="cls-22" d="M1231.77,150.08a1.57,1.57,0,1,0,1.34-1.43A1.41,1.41,0,0,0,1231.77,150.08Z"/><path class="cls-28" d="M1220.48,143.77a.34.34,0,0,0,.4-.09,3.82,3.82,0,0,1,2.47-1.12.33.33,0,0,0,.32-.34.33.33,0,0,0-.35-.32,4.41,4.41,0,0,0-3,1.36.33.33,0,0,0,.05.46Z"/><path class="cls-28" d="M1230.06,142a.57.57,0,0,0,.18,0,3.78,3.78,0,0,1,2.61.72.32.32,0,0,0,.47,0,.34.34,0,0,0,0-.47,4.4,4.4,0,0,0-3.13-.89.33.33,0,0,0-.3.36A.36.36,0,0,0,1230.06,142Z"/><path class="cls-23" d="M1221.48,147.26c.07.82.49,1.46.94,1.43s.78-.73.72-1.55-.49-1.46-.94-1.43S1221.42,146.44,1221.48,147.26Z"/><path class="cls-23" d="M1230.62,146.51c.06.82.48,1.46.94,1.42s.78-.73.71-1.55-.48-1.46-.94-1.42S1230.56,145.69,1230.62,146.51Z"/><path class="cls-31" d="M1230.09,154.62s-4.07.89-6.28-.05c0,0,1.43,3,3.66,2.51A3.3,3.3,0,0,0,1230.09,154.62Z"/><path class="cls-23" d="M1222.11,144.51c1.11-.09,1.57,2.18,1.57,2.18s-.76-2-1.54-1.78-1.26,2-1.26,2l-1.22-.53,1.19.06"/><path class="cls-23" d="M1231.34,144.06c-1.12.08-1.22,2.38-1.22,2.38s.45-2.07,1.25-2,1.54,1.77,1.54,1.77l1.13-.71"/><path class="cls-24" d="M1226.51,151.49a2.46,2.46,0,0,0,.48.16l.14-.71c-.6-.11-.76-.46-.78-.74a.87.87,0,0,1,.38-.85c.12,0,.26,0,.41.22l.57-.43a1,1,0,0,0-1.24-.46,1.58,1.58,0,0,0-.84,1.59A1.47,1.47,0,0,0,1226.51,151.49Z"/><path class="cls-28" d="M1227.68,136.83s1.49-.72,3.83,2.37c4.88,6.43,5.4,15.36,3.28,22.59-1.56,5.27,8.49,2.4,8.49,2.4a15.28,15.28,0,0,0-.47-7.47c-1.3-3.73.35-17.16-4.43-22.07s-13.2-1.77-13.2-1.77-4.06-2.4-8,0-5.08,13.22-1,18c0,0-.21-4.07,1.56-5.65S1220.45,134.82,1227.68,136.83Z"/><path class="cls-22" d="M1196.63,83.68c-1.53,4.9,2.22,7.11-.55,10.46-1.72,2.07-4.32.39-4.32.39A32.93,32.93,0,0,0,1186,87c-1.54-1.5-.44-1.53-.44-1.53l-.46-.35c-1.15-.86-2.12-1.33-1-1.66s4.58,1.92,4.58,1.92c-4-4.45-5.52-4-4.47-4.46,1.45-.63,5.49,2.7,5.61,2.8-1.93-3.07-3.64-4.09-2.54-4.19s5.24,4.84,6.73,6.69c.34.41.54.68.54.68C1195.5,82.8,1196.63,83.68,1196.63,83.68Z"/><path class="cls-32" d="M1194,86.19c.34.41.54.68.54.68a3.45,3.45,0,0,0-.6,3.4A3.1,3.1,0,0,1,1194,86.19Z"/><path class="cls-24" d="M1189,88c-.37-.34-2.45-2.34-3.44-2.51l-.46-.35C1186,84.4,1188.62,87.48,1189,88Z"/><path class="cls-22" d="M1196.08,94.14s-.55,32.33-2.23,38.74c0,0,5.88,20.31,14.68,27.68,0,0,1.37,5.5-6.24,16.34,0,0-14.8-26.48-17.18-41.63l6.65-40.74Z"/><path class="cls-33" d="M1215.53,163.09c.75,2.68,1.17,12.09,10.1,16.91s18.47-2.24,21.07-9.94c0,0,1.08-1.64,4.62,2.34,0,0,18.56,9,21,13.66s1,22.54-6.47,22.81-16.39-8-18.74-2.57-16.16,24.81-44.77,9.22c0,0-3.6-4.5-3.6-8.51s-1.82-30.46-1.82-30.46-10.55-3.05-7.9-27.93c0,0,7.26,4,7.08-9.26,0,0,6-2.78,8,8.37,1.33,7.47,8.71,12.93,8.71,12.93S1214.38,159,1215.53,163.09Z"/><path class="cls-22" d="M1276.49,195.33c6.32-2.65,20.21-14.12,25.17-20.77l-3-2.76s-16.36,11.1-22.64,13.08-9.6,5.57-8.83,10S1275.16,195.88,1276.49,195.33Z"/><path class="cls-22" d="M1306.84,165.23c-3.08,4.11-7.07,2.37-8.16,6.58-.67,2.6,2.22,3.72,2.22,3.72a33.52,33.52,0,0,1,9.49.23c2.12.37,1.5-.53,1.5-.53l.55.17c1.37.42,2.32.93,2-.13-.4-1.21-4.25-2.59-4.25-2.59,6,.64,6.49,2.13,6.24,1-.34-1.54-5.41-2.86-5.56-2.9,3.62-.23,5.45.56,4.89-.4s-7-1.4-9.37-1.53l-.86,0C1308.22,165.63,1306.84,165.23,1306.84,165.23Z"/><path class="cls-24" d="M1306.35,168.85l-.86,0a3.48,3.48,0,0,1-2.41,2.48A3.09,3.09,0,0,0,1306.35,168.85Z"/><path class="cls-24" d="M1307.83,173.91c.5.1,3.34.62,4.06,1.32l.55.17C1312.49,174.28,1308.45,174,1307.83,173.91Z"/><rect class="cls-26" x="1192.66" y="47.64" width="165.14" height="94.09" rx="25.55" transform="translate(259.24 -681.8) rotate(33.14)"/><path class="cls-21" d="M1226.12,71.41a.88.88,0,0,1,.15-.72l7.27-11.41-4.1-2.61a.92.92,0,0,1-.43-.52.9.9,0,0,1,.63-1,1,1,0,0,1,.65.17l9.78,6.24a.85.85,0,0,1,.42.51.73.73,0,0,1-.12.62.76.76,0,0,1-.51.37.9.9,0,0,1-.64-.17l-4.1-2.61-7.27,11.4a.9.9,0,0,1-.58.45.89.89,0,0,1-.71-.14A.94.94,0,0,1,1226.12,71.41Z"/><path class="cls-21" d="M1234.34,76.52a.83.83,0,0,1,.13-.69l7.59-11.92a.85.85,0,0,1,.58-.41.91.91,0,0,1,.71.16l7.13,4.54a.92.92,0,0,1,.43.52.76.76,0,0,1-.11.59.74.74,0,0,1-.5.36.9.9,0,0,1-.64-.17l-6.39-4.07-3,4.67,6,3.83a.91.91,0,0,1,.42.51.7.7,0,0,1-.11.6.75.75,0,0,1-.49.36,1,1,0,0,1-.65-.17l-6-3.83-3.11,4.88,6.39,4.07a.93.93,0,0,1,.43.51.69.69,0,0,1-.12.6.72.72,0,0,1-.49.36.9.9,0,0,1-.64-.17l-7.14-4.55A.9.9,0,0,1,1234.34,76.52Z"/><path class="cls-21" d="M1256.83,90.35a.73.73,0,0,1-.52.34,1,1,0,0,1-.65-.15.8.8,0,0,1-.37-.88l.61-4-7.19-4.58-3.34,2.21a.8.8,0,0,1-1,0,.91.91,0,0,1-.4-.54.7.7,0,0,1,.08-.63.75.75,0,0,1,.27-.26l13.18-8.65a1,1,0,0,1,.6-.18,1.2,1.2,0,0,1,.58.18,1.12,1.12,0,0,1,.42.47,1,1,0,0,1,.1.61L1257,90A.72.72,0,0,1,1256.83,90.35Zm-6.72-10.16,6.05,3.86,1.33-8.78Z"/><path class="cls-21" d="M1261.06,92.9a6.48,6.48,0,0,1-.63-3.76A9.93,9.93,0,0,1,1262,85a9.66,9.66,0,0,1,3.08-3.17,6.44,6.44,0,0,1,3.66-1,7.52,7.52,0,0,1,3.83,1.27,8.58,8.58,0,0,1,2.15,2,7.16,7.16,0,0,1,1.23,2.43,1.06,1.06,0,0,1-.12.86.88.88,0,0,1-.45.38.55.55,0,0,1-.49,0,1.25,1.25,0,0,1-.42-.56,8.58,8.58,0,0,0-1.08-2.19,6,6,0,0,0-1.63-1.46,4.89,4.89,0,0,0-4.32-.73,7.35,7.35,0,0,0-3.8,3.33,7.44,7.44,0,0,0-1.43,4.87,4.94,4.94,0,0,0,2.49,3.61,6,6,0,0,0,2,.85,8.85,8.85,0,0,0,2.46.06,1.25,1.25,0,0,1,.68.14.57.57,0,0,1,.25.42.83.83,0,0,1-.16.57,1,1,0,0,1-.73.48,7,7,0,0,1-2.72-.09,8.4,8.4,0,0,1-2.67-1.12A7.49,7.49,0,0,1,1261.06,92.9Z"/><path class="cls-21" d="M1290.56,93.92a1,1,0,0,1-.17.71l-7.67,12a1,1,0,0,1-.57.45.83.83,0,0,1-.7-.13.92.92,0,0,1-.43-.59,1,1,0,0,1,.16-.71l3.47-5.46-8-5.13-3.48,5.46a.92.92,0,0,1-.58.44.89.89,0,0,1-.71-.14.86.86,0,0,1-.42-.58.91.91,0,0,1,.17-.71l7.66-12a1.06,1.06,0,0,1,.58-.46.88.88,0,0,1,.7.14.92.92,0,0,1,.43.59,1,1,0,0,1-.16.71l-3.34,5.25,8,5.13,3.34-5.25a1,1,0,0,1,.58-.45.9.9,0,0,1,.71.15A.83.83,0,0,1,1290.56,93.92Z"/><path class="cls-21" d="M1285.88,109.49a1,1,0,0,1,.16-.72l7.67-12a1,1,0,0,1,.58-.45.86.86,0,0,1,.71.15.92.92,0,0,1,.44.58,1,1,0,0,1-.16.72l-7.67,12a1,1,0,0,1-.58.45,1,1,0,0,1-1.15-.73Z"/><path class="cls-21" d="M1309.55,106a1.07,1.07,0,0,1-.18.71l-7.67,12a1,1,0,0,1-.57.46.87.87,0,0,1-.7-.14,1,1,0,0,1-.43-.73l-1.17-15.63-6.44,10.11a1,1,0,0,1-.57.46.86.86,0,0,1-.68-.13.82.82,0,0,1-.4-.56,1,1,0,0,1,.18-.7l7.67-12a1,1,0,0,1,.57-.45.85.85,0,0,1,.71.14,1,1,0,0,1,.44.73l1.15,15.62,6.44-10.11a1,1,0,0,1,.57-.45.91.91,0,0,1,1.08.68Z"/><path class="cls-21" d="M1319.38,121.41a.72.72,0,0,1-.12.59l-3,4.75a1.45,1.45,0,0,1-.58.6,1.16,1.16,0,0,1-.75,0,10,10,0,0,1-2.18-.67,14.71,14.71,0,0,1-2.3-1.19,8.25,8.25,0,0,1-2.93-3,6.54,6.54,0,0,1-.71-3.78,10.84,10.84,0,0,1,4.68-7.37,6.51,6.51,0,0,1,3.71-1,7.82,7.82,0,0,1,3.88,1.31,8.73,8.73,0,0,1,2.22,2,6.26,6.26,0,0,1,1.18,2.4,1.11,1.11,0,0,1-.1.88.84.84,0,0,1-.45.36.54.54,0,0,1-.51,0,1.09,1.09,0,0,1-.39-.57,8.46,8.46,0,0,0-1.12-2.2,6.34,6.34,0,0,0-1.66-1.47,5.08,5.08,0,0,0-4.39-.79,9,9,0,0,0-5.24,8.26,5.39,5.39,0,0,0,2.71,3.73,11.06,11.06,0,0,0,3.56,1.52l2.61-4.09-2.79-1.77a.92.92,0,0,1-.41-.5.73.73,0,0,1,.57-.89,1,1,0,0,1,.62.17l3.56,2.27A.75.75,0,0,1,1319.38,121.41Z"/><path class="cls-21" d="M710.61,114.86a.62.62,0,0,1-.18-.46l.07-9.76a.58.58,0,0,1,.18-.45.64.64,0,0,1,.48-.17l3,0a5.57,5.57,0,0,1,4.08,1.46,5.52,5.52,0,0,1-4.15,9.55l-3,0A.68.68,0,0,1,710.61,114.86Zm3.45-.9q4.28,0,4.31-4.39t-4.25-4.44h-2.34l-.06,8.82Z"/><path class="cls-21" d="M722.15,114.94a.61.61,0,0,1-.17-.46l.06-9.76a.55.55,0,0,1,.19-.45.63.63,0,0,1,.47-.17l5.85,0a.63.63,0,0,1,.43.14.56.56,0,0,1,0,.78.61.61,0,0,1-.44.14l-5.23,0,0,3.83,4.92,0a.66.66,0,0,1,.44.14.5.5,0,0,1,.15.39.47.47,0,0,1-.16.39.64.64,0,0,1-.44.14l-4.92,0,0,4,5.24,0a.66.66,0,0,1,.44.14.57.57,0,0,1,0,.78.61.61,0,0,1-.44.14l-5.84,0A.69.69,0,0,1,722.15,114.94Z"/><path class="cls-21" d="M739.35,104.2a.55.55,0,0,1,.32-.1.66.66,0,0,1,.44.17.51.51,0,0,1,.2.4.59.59,0,0,1-.07.25l-4.55,9.94a.7.7,0,0,1-.28.31.74.74,0,0,1-.41.1.71.71,0,0,1-.4-.11.65.65,0,0,1-.28-.31l-4.4-10a.68.68,0,0,1,0-.23.51.51,0,0,1,.21-.42.67.67,0,0,1,.45-.16.6.6,0,0,1,.55.36l4,9.14,4.08-9.08A.58.58,0,0,1,739.35,104.2Z"/><path class="cls-21" d="M742,115.07a.6.6,0,0,1-.18-.45l.07-9.77a.61.61,0,0,1,.18-.45.69.69,0,0,1,.48-.17l5.84,0a.62.62,0,0,1,.44.15.57.57,0,0,1,0,.78.6.6,0,0,1-.44.13l-5.23,0,0,3.83,4.92,0a.64.64,0,0,1,.44.14.5.5,0,0,1,.15.4.53.53,0,0,1-.15.39.68.68,0,0,1-.44.13l-4.92,0,0,4,5.23,0a.72.72,0,0,1,.44.14.51.51,0,0,1,.15.4.47.47,0,0,1-.16.39.64.64,0,0,1-.44.14l-5.84,0A.63.63,0,0,1,742,115.07Z"/><path class="cls-21" d="M751,115.14a.55.55,0,0,1-.18-.43l.07-9.84a.69.69,0,0,1,.17-.48.6.6,0,0,1,.47-.17.61.61,0,0,1,.47.18.64.64,0,0,1,.17.48l-.06,9.34,5,0a.65.65,0,0,1,.44.15.52.52,0,0,1,.15.4.5.5,0,0,1-.16.41.63.63,0,0,1-.43.14l-5.71,0A.64.64,0,0,1,751,115.14Z"/><path class="cls-21" d="M760.68,114.81a4.5,4.5,0,0,1-1.73-2,6.89,6.89,0,0,1-.59-3,7,7,0,0,1,.63-3,4.38,4.38,0,0,1,1.74-1.94,5.62,5.62,0,0,1,5.36,0,4.39,4.39,0,0,1,1.72,2,7.72,7.72,0,0,1,0,6,4.55,4.55,0,0,1-1.75,1.95,5.56,5.56,0,0,1-5.33,0Zm5.4-1.55a6.29,6.29,0,0,0,0-6.73,3.76,3.76,0,0,0-5.46,0,5.18,5.18,0,0,0-1,3.35,5.1,5.1,0,0,0,1,3.36,3.73,3.73,0,0,0,5.45.05Z"/><path class="cls-21" d="M770.84,115.34a.69.69,0,0,1-.17-.48l.07-9.81a.58.58,0,0,1,.18-.45.64.64,0,0,1,.48-.17l3.7,0a4,4,0,0,1,2.69.87,3,3,0,0,1,1,2.39,3.07,3.07,0,0,1-1,2.4,3.89,3.89,0,0,1-2.69.84l-3.08,0,0,3.94a.69.69,0,0,1-.17.48.66.66,0,0,1-.47.17A.61.61,0,0,1,770.84,115.34Zm4.1-5.45c1.68,0,2.52-.72,2.53-2.19s-.82-2.17-2.5-2.18l-3,0,0,4.37Z"/><path class="cls-21" d="M791.06,104.66a.68.68,0,0,1,.16.48l-.07,9.89a.61.61,0,0,1-.16.45.63.63,0,0,1-.86,0A.74.74,0,0,1,790,115l0-8-3.43,6.48a.68.68,0,0,1-.65.44.69.69,0,0,1-.63-.45L782,107.06l-.05,7.91a.64.64,0,0,1-.15.45.56.56,0,0,1-.43.17.54.54,0,0,1-.44-.18.64.64,0,0,1-.15-.45l.07-9.89a.6.6,0,0,1,.64-.65.69.69,0,0,1,.62.46l3.92,7.63,4-7.58a1,1,0,0,1,.28-.35.58.58,0,0,1,.35-.1A.59.59,0,0,1,791.06,104.66Z"/><path class="cls-21" d="M794.06,115.43a.61.61,0,0,1-.17-.46l.06-9.76a.55.55,0,0,1,.19-.45.63.63,0,0,1,.47-.17l5.85,0a.63.63,0,0,1,.43.14.48.48,0,0,1,.16.39.5.5,0,0,1-.16.39.66.66,0,0,1-.44.14l-5.23,0,0,3.83,4.92,0a.67.67,0,0,1,.44.15.5.5,0,0,1,.15.39.47.47,0,0,1-.16.39.64.64,0,0,1-.44.14l-4.92,0,0,4,5.24,0a.72.72,0,0,1,.44.13.52.52,0,0,1,.15.4.5.5,0,0,1-.16.39.61.61,0,0,1-.44.14l-5.84,0A.69.69,0,0,1,794.06,115.43Z"/><path class="cls-21" d="M811.72,104.8a.74.74,0,0,1,.15.48l-.06,9.86a.73.73,0,0,1-.17.48.64.64,0,0,1-.46.17.66.66,0,0,1-.52-.27l-6.42-8.71-.06,8.28a.64.64,0,0,1-.17.47.63.63,0,0,1-.88,0,.73.73,0,0,1-.15-.48l.07-9.86a.65.65,0,0,1,.16-.47.61.61,0,0,1,.47-.18.64.64,0,0,1,.52.27l6.41,8.71.06-8.28a.68.68,0,0,1,.17-.47.57.57,0,0,1,.44-.18A.54.54,0,0,1,811.72,104.8Z"/><path class="cls-21" d="M817.36,115.65a.64.64,0,0,1-.18-.47l.06-9.35-3.35,0a.64.64,0,0,1-.44-.14.51.51,0,0,1-.16-.41.59.59,0,0,1,.16-.41.66.66,0,0,1,.44-.13l8,0a.59.59,0,0,1,.43.15.49.49,0,0,1,.16.4.53.53,0,0,1-.16.41.66.66,0,0,1-.44.14l-3.36,0-.06,9.34a.65.65,0,0,1-.18.48.69.69,0,0,1-.94,0Z"/><g class="cls-11"><path d="M877.64,159.68a11.58,11.58,0,0,1-4.35-2.41,1.81,1.81,0,0,1-.6-1.39,1.55,1.55,0,0,1,.32-1,.92.92,0,0,1,.75-.42,1.88,1.88,0,0,1,1.12.44,13.42,13.42,0,0,0,8.42,2.86,9,9,0,0,0,5.25-1.31,4.33,4.33,0,0,0,1.83-3.74,3,3,0,0,0-.88-2.24,6.24,6.24,0,0,0-2.3-1.38,35.79,35.79,0,0,0-3.86-1.07,36.64,36.64,0,0,1-5.34-1.59,8.32,8.32,0,0,1-3.38-2.38,6.16,6.16,0,0,1-1.29-4.06,7.2,7.2,0,0,1,1.29-4.23,8.31,8.31,0,0,1,3.61-2.86,13.1,13.1,0,0,1,5.31-1,15.44,15.44,0,0,1,5.19.86,11,11,0,0,1,4,2.44,2,2,0,0,1,.64,1.39,1.58,1.58,0,0,1-.32,1,.94.94,0,0,1-.76.42,2.46,2.46,0,0,1-1.15-.44,13.62,13.62,0,0,0-3.62-2.23,11.37,11.37,0,0,0-4-.63,8.37,8.37,0,0,0-5.13,1.37,4.51,4.51,0,0,0-1.83,3.83,3.52,3.52,0,0,0,1.61,3.16,16.17,16.17,0,0,0,4.95,1.85q3.61.87,5.69,1.61a8.52,8.52,0,0,1,3.43,2.21,5.51,5.51,0,0,1,1.38,3.93,6.88,6.88,0,0,1-1.3,4.13,8.4,8.4,0,0,1-3.63,2.79,13.75,13.75,0,0,1-5.37,1A18.28,18.28,0,0,1,877.64,159.68Z"/><path d="M899.38,159.82a1.53,1.53,0,0,1-.46-1.16V133.82a1.51,1.51,0,0,1,.46-1.15,1.68,1.68,0,0,1,1.21-.44h14.86a1.62,1.62,0,0,1,1.12.36,1.46,1.46,0,0,1,0,2,1.62,1.62,0,0,1-1.12.36H902.14v9.73h12.52a1.58,1.58,0,0,1,1.11.36,1.44,1.44,0,0,1,0,2,1.58,1.58,0,0,1-1.11.36H902.14v10.17h13.31a1.67,1.67,0,0,1,1.12.34,1.48,1.48,0,0,1,0,2,1.62,1.62,0,0,1-1.12.36H900.59A1.68,1.68,0,0,1,899.38,159.82Z"/><path d="M943.71,159.14a1.18,1.18,0,0,1-.46,1,1.67,1.67,0,0,1-2.48-.41l-5.33-8.43A6.39,6.39,0,0,0,933.3,149a6.27,6.27,0,0,0-3-.61h-5v10.37a1.66,1.66,0,0,1-.44,1.21,1.49,1.49,0,0,1-1.15.46,1.55,1.55,0,0,1-1.19-.46,1.66,1.66,0,0,1-.44-1.21v-25a1.51,1.51,0,0,1,.46-1.15,1.68,1.68,0,0,1,1.21-.44h9.86c3,0,5.37.68,7,2a7.34,7.34,0,0,1,2.41,6,7.49,7.49,0,0,1-1.93,5.37,8.79,8.79,0,0,1-5.51,2.46,4.87,4.87,0,0,1,1.79,1,9.34,9.34,0,0,1,1.59,2l4.53,7.16A1.62,1.62,0,0,1,943.71,159.14ZM933.3,145.71a7.41,7.41,0,0,0,4.87-1.36,5,5,0,0,0,1.61-4.09,4.89,4.89,0,0,0-1.59-4,7.56,7.56,0,0,0-4.89-1.31h-8v10.77Z"/><path d="M970,132.19a1.51,1.51,0,0,1,.82-.24,1.7,1.7,0,0,1,1.13.42,1.29,1.29,0,0,1,.5,1,1.48,1.48,0,0,1-.16.64l-11.41,25.36a1.76,1.76,0,0,1-.71.79,2,2,0,0,1-1,.28,2,2,0,0,1-1-.28,1.73,1.73,0,0,1-.72-.79L946.06,134a1.69,1.69,0,0,1-.12-.6,1.31,1.31,0,0,1,.51-1,1.8,1.8,0,0,1,1.16-.42,1.46,1.46,0,0,1,1.39.92L959.25,156l10.22-23.17A1.53,1.53,0,0,1,970,132.19Z"/><path d="M976.82,160a1.66,1.66,0,0,1-.44-1.21V133.7a1.7,1.7,0,0,1,.44-1.21,1.77,1.77,0,0,1,2.38,0,1.7,1.7,0,0,1,.44,1.21v25.08a1.66,1.66,0,0,1-.44,1.21,1.77,1.77,0,0,1-2.38,0Z"/><path d="M991.56,158.84a11.45,11.45,0,0,1-4.47-5,19.33,19.33,0,0,1,0-15.26,11.5,11.5,0,0,1,4.47-5,13.24,13.24,0,0,1,6.88-1.73,14.73,14.73,0,0,1,5,.86,12.29,12.29,0,0,1,4.11,2.44,1.87,1.87,0,0,1,.64,1.39,1.58,1.58,0,0,1-.32,1,.94.94,0,0,1-.76.42,2.29,2.29,0,0,1-1.15-.44,15,15,0,0,0-3.68-2.23,10.57,10.57,0,0,0-3.79-.63,8.71,8.71,0,0,0-7.1,3q-2.48,3-2.48,8.52t2.48,8.57a8.71,8.71,0,0,0,7.1,3,10.39,10.39,0,0,0,3.77-.64,14.38,14.38,0,0,0,3.7-2.22,2.19,2.19,0,0,1,1.15-.44.94.94,0,0,1,.76.4,1.53,1.53,0,0,1,.32,1,1.87,1.87,0,0,1-.64,1.39,12.31,12.31,0,0,1-4.11,2.45,14.72,14.72,0,0,1-5,.85A13.24,13.24,0,0,1,991.56,158.84Z"/><path d="M1013.92,159.82a1.53,1.53,0,0,1-.46-1.16V133.82a1.51,1.51,0,0,1,.46-1.15,1.68,1.68,0,0,1,1.21-.44H1030a1.61,1.61,0,0,1,1.11.36,1.44,1.44,0,0,1,0,2,1.61,1.61,0,0,1-1.11.36h-13.32v9.73h12.52a1.58,1.58,0,0,1,1.11.36,1.44,1.44,0,0,1,0,2,1.58,1.58,0,0,1-1.11.36h-12.52v10.17H1030a1.66,1.66,0,0,1,1.11.34,1.45,1.45,0,0,1,0,2,1.61,1.61,0,0,1-1.11.36h-14.87A1.68,1.68,0,0,1,1013.92,159.82Z"/><path d="M1039.43,159.68a11.74,11.74,0,0,1-4.35-2.41,1.84,1.84,0,0,1-.59-1.39,1.54,1.54,0,0,1,.31-1,1,1,0,0,1,.76-.42,1.86,1.86,0,0,1,1.11.44,13.45,13.45,0,0,0,8.43,2.86,8.91,8.91,0,0,0,5.24-1.31,4.33,4.33,0,0,0,1.83-3.74,3,3,0,0,0-.87-2.24,6.2,6.2,0,0,0-2.31-1.38,35.51,35.51,0,0,0-3.85-1.07,36.82,36.82,0,0,1-5.35-1.59,8.38,8.38,0,0,1-3.38-2.38,6.16,6.16,0,0,1-1.29-4.06,7.2,7.2,0,0,1,1.29-4.23,8.34,8.34,0,0,1,3.62-2.86,13.1,13.1,0,0,1,5.31-1,15.34,15.34,0,0,1,5.18.86,10.91,10.91,0,0,1,4,2.44,2,2,0,0,1,.63,1.39,1.57,1.57,0,0,1-.31,1,1,1,0,0,1-.76.42,2.42,2.42,0,0,1-1.15-.44,13.78,13.78,0,0,0-3.62-2.23,11.37,11.37,0,0,0-4-.63,8.37,8.37,0,0,0-5.13,1.37,4.51,4.51,0,0,0-1.83,3.83,3.52,3.52,0,0,0,1.61,3.16,16,16,0,0,0,5,1.85,58.84,58.84,0,0,1,5.68,1.61,8.48,8.48,0,0,1,3.44,2.21,5.55,5.55,0,0,1,1.37,3.93,6.87,6.87,0,0,1-1.29,4.13,8.37,8.37,0,0,1-3.64,2.79,13.66,13.66,0,0,1-5.36,1A18.39,18.39,0,0,1,1039.43,159.68Z"/></g></g></g></svg>