<?xml version="1.0" encoding="utf-8"?>
<!-- Generator: Adobe Illustrator 23.1.0, SVG Export Plug-In . SVG Version: 6.00 Build 0)  -->
<svg version="1.1" id="Layer_1" xmlns="http://www.w3.org/2000/svg" xmlns:xlink="http://www.w3.org/1999/xlink" x="0px" y="0px"
	 viewBox="0 0 638 544" style="enable-background:new 0 0 638 544;" xml:space="preserve">
<style type="text/css">
	.st0{fill:#EDEDED;}
	.st1{fill:#FF6B6E;}
	.st2{font-family:'Montserrat-Medium';}
	.st3{font-size:8.4066px;}
	.st4{fill:#FFFFFF;}
	.st5{fill:#FFC54F;}
	.st6{fill:#B9C1C7;}
	.st7{fill:#364056;}
	.st8{fill:#F9B0A3;}
	.st9{fill:none;stroke:#FFFFFF;stroke-width:0.9579;stroke-linecap:round;stroke-linejoin:round;stroke-miterlimit:10;}
	.st10{fill:#0FA8BA;}
	.st11{fill:#E88E80;}
	.st12{fill:none;stroke:#55382C;stroke-width:0.7184;stroke-miterlimit:10;}
	.st13{fill:#D68076;}
	.st14{fill:#E55C5C;}
	.st15{fill:#FBBD48;}
	.st16{fill:#F7D95C;}
	.st17{fill:#292640;}
	.st18{fill:#ECBC4F;}
	.st19{opacity:0.1;fill:#020202;}
	.st20{fill:none;stroke:#FFF6F3;stroke-width:1.7399;stroke-miterlimit:10;}
	.st21{fill:#FFD6CF;}
	.st22{fill:#FF8C35;}
	.st23{fill:#FFFDFA;}
	.st24{fill:none;}
	.st25{font-size:4.8526px;}
	.st26{fill:#F7B634;}
	.st27{fill:#225866;}
	.st28{fill:#D9DEE2;}
	.st29{fill:none;stroke:#55382E;stroke-width:1.1607;stroke-miterlimit:10;}
	.st30{fill:#0B181B;}
	.st31{fill:none;stroke:#FFFFFF;stroke-width:0.4899;stroke-miterlimit:10;}
	.st32{fill:none;stroke:#0B181B;stroke-width:0.5271;stroke-linecap:round;stroke-linejoin:round;stroke-miterlimit:10;}
	.st33{fill:none;stroke:#FFFFFF;stroke-width:1.1455;stroke-linecap:round;stroke-linejoin:round;stroke-miterlimit:10;}
	.st34{fill:#E5B34E;}
	.st35{fill:#1C5E72;}
	.st36{fill:#10455B;}
	.st37{fill:#F9F3ED;}
	.st38{fill:none;stroke:#B9C1C7;stroke-miterlimit:10;}
</style>
<rect x="113.1" y="54.7" class="st0" width="406.2" height="325"/>
<text transform="matrix(1 0 0 1 132.4067 99.2217)"><tspan x="0" y="0" class="st1 st2 st3">complex </tspan><tspan x="39.1" y="0" class="st4 st2 st3">*p = NULL;</tspan><tspan x="0" y="10.1" class="st4 st2 st3">complex abs_p = sqrt</tspan><tspan x="90.3" y="10.1" class="st5 st2 st3"> (p-&gt;real * p-&gt;real + p-&gt;im * p-&gt;im)</tspan><tspan x="233.2" y="10.1" class="st4 st2 st3">;</tspan></text>
<text transform="matrix(1 0 0 1 131.9956 120.1885)"><tspan x="0" y="0" class="st4 st2 st3">NULL;</tspan><tspan x="0" y="10.1" class="st4 st2 st3">complex abs_p = sqrt</tspan><tspan x="90.3" y="10.1" class="st5 st2 st3"> (p-&gt;real * p-&gt;real + p-&gt;im * p-&gt;im)</tspan><tspan x="233.2" y="10.1" class="st4 st2 st3">;</tspan></text>
<rect x="126.5" y="94.6" class="st4" width="1.7" height="13.5"/>
<rect x="113.1" y="54.9" class="st6" width="407.8" height="22.1"/>
<g>
	<g>
		<path class="st7" d="M320.6,295.9c-1.8,1.6-25.7,14.6-40.1,33.3l28.9,26.8l47.8-11.6l2.8-48.6H320.6z"/>
		<g>
			<g>
				<polygon class="st8" points="313,470.9 307.9,443.7 325.4,443.7 327.4,470.9 				"/>
				<g>
					<rect x="300.4" y="486" class="st4" width="40.5" height="5.1"/>
					<path class="st9" d="M312.5,475.3c0,0,8.5-4.5,15,0"/>
				</g>
			</g>
			<path class="st7" d="M318.5,339c5.7,40.2,15.5,115.8,15.5,115.8l-33.7,0.6l-23.3-108.8c-2.6-11.8,5.1-23.4,16.8-25.6l0,0
				C305.5,318.8,316.8,327,318.5,339z"/>
		</g>
	</g>
	<g>
		<path class="st7" d="M393.2,295.9c1.8,1.6,25.7,14.6,40.1,33.3l-28.9,26.8l-47.8-11.6l-2.8-48.6H393.2z"/>
		<g>
			<g>
				<polygon class="st8" points="398.8,470.9 403.9,443.7 386.5,443.7 384.4,470.9 				"/>
				<g>
					
						<rect x="371" y="486" transform="matrix(-1 -1.224647e-16 1.224647e-16 -1 782.4416 977.0395)" class="st4" width="40.5" height="5.1"/>
					<path class="st9" d="M399.4,475.3c0,0-8.5-4.5-15,0"/>
				</g>
			</g>
			<path class="st7" d="M395.4,339c-5.7,40.2-17.9,115.8-17.9,115.8l33.7,0.6l25.7-108.8c2.6-11.8-5.1-23.4-16.8-25.6l0,0
				C408.3,318.8,397.1,327,395.4,339z"/>
		</g>
	</g>
</g>
<g>
	<g>
		<path class="st10" d="M352.6,184.5c0,0-30.5,0-53,22.3v62.5c0,0,107.5,1.7,107.5,0c0-1.7,0-66.6,0-66.6S385.1,184.5,352.6,184.5z"
			/>
		<g>
			<g>
				<path class="st11" d="M307.2,265.8h-30.7c-8,0-14.6,6.6-14.6,14.7l0,0c0,8.1,6.5,14.7,14.6,14.7h36.1L307.2,265.8z"/>
				<polygon class="st11" points="263.8,273.4 284.3,239.6 312.6,243.5 308.4,280.5 				"/>
				<line class="st12" x1="299.6" y1="265.8" x2="281.4" y2="265.8"/>
			</g>
			<path class="st10" d="M304.1,202.6c0,0-16.6,13.5-34.1,43.3c0,0,3.8,17.2,36.3,19.9L304.1,202.6z"/>
		</g>
		<g>
			<g>
				<path class="st11" d="M403.1,265.8h30.7c8,0,14.6,6.6,14.6,14.7l0,0c0,8.1-6.5,14.7-14.6,14.7h-36.1L403.1,265.8z"/>
				<polygon class="st11" points="446.5,273.2 420.7,233.4 397.7,243.5 401.9,280.5 				"/>
				<line class="st12" x1="404.9" y1="265.8" x2="428.9" y2="265.8"/>
			</g>
			<path class="st10" d="M407.1,202.6c0,0,16.6,13.5,34.1,43.3c0,0-3.8,17.2-36.3,19.9L407.1,202.6z"/>
		</g>
	</g>
	<g>
		<path class="st4" d="M359.9,259.1c0,3.7-2.9,6.6-6.6,6.6c-3.6,0-6.6-3-6.6-6.6c0-3.7,2.9-6.6,6.6-6.6
			C357,252.5,359.9,255.4,359.9,259.1z"/>
	</g>
</g>
<path class="st11" d="M361.9,195.2h-17.1c-1.8,0-3.3-1.5-3.3-3.3v-20.6h23.6v20.6C365.1,193.7,363.7,195.2,361.9,195.2z"/>
<path class="st13" d="M341.5,171.8c0,0,3.4,11.2,23.6,10.8v-15.4l0,0c0,0-1.3,2.9-10.3,2.5C345.7,169.3,341.5,171.8,341.5,171.8z"/>
<ellipse class="st7" cx="353.1" cy="131.3" rx="29.3" ry="30.4"/>
<g>
	<g>
		<path class="st11" d="M375.8,143.6c0,0,2-3.5,6.4-2c4.4,1.5,2.8,12.2-3.6,13.8c0,0-2.3,0.6-4.2-0.9
			C374.4,154.5,375.7,146.6,375.8,143.6z"/>
	</g>
	<g>
		<path class="st11" d="M330.6,142.5c0,0-2.3-3.4-6.6-1.7c-4.4,1.7-2.4,12.3,4.1,13.7c0,0,2.3,0.5,4.2-1.1
			C332.3,153.4,330.8,145.5,330.6,142.5z"/>
	</g>
	<path class="st11" d="M376.4,133.2c0,6.8-0.6,21.1-4.6,29.6c-3.7,8-9.9,12.3-18,12.5c-8.1,0.3-14.1-3-19-13.4
		c-4.8-10.3-4.6-28.6-4.6-28.6s0-24.4,22.9-24.4C377.2,108.9,376.4,133.2,376.4,133.2z"/>
</g>
<path class="st7" d="M329.6,140.9c0,0,9.6-22.1,1.9-25.7C331.5,115.1,325.9,134.2,329.6,140.9z"/>
<path class="st7" d="M376.4,142.4c0,0-5.4-11.9-0.6-20.5C375.7,121.9,380,135.7,376.4,142.4z"/>
<path class="st7" d="M330.3,116.7c0,0,15.8,19.3,49.1,12.9c0,0,2.9-17.4-14.3-22.7C347.9,101.5,334.4,114.1,330.3,116.7z"/>
<path class="st7" d="M330.3,116.7c0,0-0.3-15.8,14.2-18.2c14.5-2.4,15,5.5,25.2,6.1c15.3,0.9,22.3,16.1,9.7,25l-21.3-12.9H330.3z"/>
<path class="st7" d="M330.9,112.1c0,0-15.8,2-6,27.3L330.9,112.1z"/>
<g>
	<g>
		<polygon class="st14" points="473.8,248.3 474.1,245.7 475.5,245.8 475.3,248.6 		"/>
		<g>
			<g>
				
					<rect x="454.6" y="265.2" transform="matrix(8.106776e-02 -0.9967 0.9967 8.106776e-02 169.1623 716.2803)" class="st10" width="36.8" height="2.3"/>
			</g>
			<polygon class="st15" points="472.9,249.6 476.4,249.8 475.8,254.9 472.4,254.5 			"/>
			<polygon class="st15" points="476.1,250.4 477.8,250.6 476.9,259.7 475.8,259.6 475.9,258.3 476.5,258.3 476.9,252.2 
				475.9,252.2 			"/>
		</g>
	</g>
	<g>
		<polygon class="st14" points="469.9,243 469.7,240.3 468.4,240.4 468.4,243.2 		"/>
		<g>
			<g>
				
					<rect x="468.9" y="242.7" transform="matrix(0.9989 -4.738230e-02 4.738230e-02 0.9989 -11.8421 22.5685)" class="st10" width="2.3" height="36.8"/>
			</g>
			<polygon class="st15" points="470.8,244.2 467.3,244.3 467.8,249.5 471.1,249.2 			"/>
			<polygon class="st15" points="467.6,245 465.9,245.1 466.5,254.3 467.6,254.2 467.5,252.9 466.9,252.9 466.8,246.8 467.8,246.8 
							"/>
		</g>
	</g>
	<g>
		
			<rect x="455.5" y="244.8" transform="matrix(0.9979 -6.546970e-02 6.546970e-02 0.9979 -16.3138 30.4753)" class="st16" width="2.7" height="38.7"/>
		
			<rect x="454.2" y="243.5" transform="matrix(0.9979 -6.547251e-02 6.547251e-02 0.9979 -15.0106 30.3481)" class="st0" width="2.7" height="1.3"/>
		<path class="st14" d="M456.8,243.4l-2.7,0.2l-0.1-2.1c0-0.4,0.2-0.7,0.6-0.7l1.4-0.1c0.4,0,0.7,0.2,0.7,0.6L456.8,243.4z"/>
		
			<rect x="456.4" y="244.8" transform="matrix(0.9979 -6.545379e-02 6.545379e-02 0.9979 -16.3094 30.4738)" class="st17" width="1.1" height="38.7"/>
	</g>
	<g>
		
			<rect x="452.9" y="245.5" transform="matrix(0.9603 -0.2788 0.2788 0.9603 -55.8363 137.1681)" class="st16" width="2.7" height="38.7"/>
		
			<rect x="447.3" y="245" transform="matrix(0.9603 -0.2789 0.2789 0.9603 -50.7031 134.8562)" class="st0" width="2.7" height="1.3"/>
		<path class="st14" d="M449.8,244.6l-2.6,0.8l-0.6-2c-0.1-0.3,0.1-0.7,0.4-0.8l1.4-0.4c0.3-0.1,0.7,0.1,0.8,0.4L449.8,244.6z"/>
		
			<rect x="453.8" y="245.5" transform="matrix(0.9603 -0.2788 0.2788 0.9603 -55.8232 137.1823)" class="st17" width="1.1" height="38.7"/>
	</g>
	<g>
		<path class="st18" d="M452.1,289.9l-1.2-29.5c0-0.1,0.1-0.2,0.2-0.2l24.5,0.4c0.1,0,0.2,0.1,0.2,0.2l-1.2,29.1
			c-0.1,1.3-1.1,2.3-2.4,2.3h-17.7C453.2,292.2,452.1,291.2,452.1,289.9z"/>
		<path class="st19" d="M450.8,260.4c0-0.1,0.1-0.2,0.2-0.2l24.5,0.4c0.1,0,0.2,0.1,0.2,0.2L450.8,260.4z"/>
		<path class="st19" d="M474.6,289.9c-0.1,1.3-1.1,2.3-2.4,2.3h-17.7c-1.3,0-2.4-1-2.4-2.3L474.6,289.9z"/>
	</g>
</g>
<g>
	<g>
		<g>
			<g>
				<g>
					<path class="st10" d="M570.5,186.7h-66.8c-2.5,0-4.5-2-4.5-4.5v-43.3c0-2.5,2-4.5,4.5-4.5h66.8c2.5,0,4.5,2,4.5,4.5v43.3
						C575,184.7,573,186.7,570.5,186.7z"/>
					<path class="st20" d="M570.5,186.7h-66.8c-2.5,0-4.5-2-4.5-4.5v-43.3c0-2.5,2-4.5,4.5-4.5h66.8c2.5,0,4.5,2,4.5,4.5v43.3
						C575,184.7,573,186.7,570.5,186.7z"/>
				</g>
			</g>
		</g>
	</g>
	<g>
		<g>
			<g>
				<g>
					<path class="st21" d="M551.8,196.1H485c-2.5,0-4.5-2-4.5-4.5v-43.3c0-2.5,2-4.5,4.5-4.5h66.8c2.5,0,4.5,2,4.5,4.5v43.3
						C556.3,194.1,554.3,196.1,551.8,196.1z"/>
					<path class="st6" d="M551.8,196.1H485c-2.5,0-4.5-2-4.5-4.5v-43.3c0-2.5,2-4.5,4.5-4.5h66.8c2.5,0,4.5,2,4.5,4.5v43.3
						C556.3,194.1,554.3,196.1,551.8,196.1z"/>
				</g>
			</g>
		</g>
		<g>
			<g>
				<rect x="500.8" y="168.3" class="st22" width="5.6" height="16.7"/>
				<rect x="510.8" y="161.2" class="st22" width="5.6" height="23.7"/>
				<rect x="520.8" y="156.3" class="st23" width="5.6" height="28.7"/>
				<rect x="530.8" y="149.8" class="st23" width="5.6" height="35.1"/>
			</g>
			<path class="st23" d="M542.9,185.5h-47.8c-0.2,0-0.5-0.2-0.5-0.5v-28.4c0-0.2,0.2-0.5,0.5-0.5c0.2,0,0.5,0.2,0.5,0.5v28h47.4
				c0.2,0,0.5,0.2,0.5,0.5C543.4,185.3,543.2,185.5,542.9,185.5z"/>
		</g>
	</g>
</g>
<g>
	<path class="st10" d="M527.2,103.3v4.3h-97.1v-4.3c0-2.8,2.2-5,5-5h87.1C525,98.2,527.2,100.5,527.2,103.3z"/>
	<path class="st18" d="M527.2,107.6v51.2c0,2.8-2.2,5-5,5h-87.1c-2.8,0-5-2.2-5-5v-51.2H527.2z"/>
	<rect x="433.2" y="112.2" class="st4" width="1" height="7.8"/>
	<rect x="436" y="112" class="st24" width="89.7" height="42.5"/>
	<text transform="matrix(1 0 0 1 436.0127 115.5801)"><tspan x="0" y="0" class="st4 st2 st25">&lt;html&gt;</tspan><tspan x="0" y="5.8" class="st4 st2 st25">    &lt;head&gt;</tspan><tspan x="0" y="11.6" class="st4 st2 st25">        &lt;title&gt;...&lt;/title&gt;</tspan><tspan x="0" y="17.5" class="st4 st2 st25"> </tspan><tspan x="0" y="23.3" class="st4 st2 st25">&lt;/html&gt;</tspan></text>
</g>
<g>
	<path class="st26" d="M332.9,495.8c-0.1,1.5-0.5,2.6-0.5,2.6h-29.6c-0.4-0.9-1-1.7-0.8-2.6c2.2-16.7,11.1-25,11.1-25l14.3,0
		c0,0,1.7,11.8,4,17.8C332.7,491.8,333.1,493.6,332.9,495.8z"/>
	<path class="st27" d="M302,496.1h30.9c-0.1,1.5-0.5,2.6-0.5,2.6h-29.6C302.4,497.8,302.1,497,302,496.1z"/>
	<g>
		<path class="st27" d="M328.2,488c0,0-12.5-2.8-18.2,0.8v-2.1C310,486.7,320.5,481.6,328.2,488z"/>
		<path class="st27" d="M325.7,484.8c0,0-8-3.6-15.7,0l0.9-2.1C310.9,482.7,320.1,479.2,325.7,484.8z"/>
		<path class="st27" d="M326.2,481.1c0,0-8-3.6-15.7,0l0.9-2.1C311.4,479,320.6,475.5,326.2,481.1z"/>
		<path class="st27" d="M327.3,477.4c0,0-8-3.6-15.7,0l0.9-2.1C312.5,475.3,321.8,471.8,327.3,477.4z"/>
	</g>
</g>
<g>
	<path class="st26" d="M379.1,495.7c0.1,1.5,0.5,2.6,0.5,2.6h29.6c0.4-0.9,1-1.7,0.8-2.6c-2.2-16.7-11.1-25-11.1-25l-14.3,0
		c0,0-1.7,11.8-4,17.8C379.3,491.8,378.9,493.5,379.1,495.7z"/>
	<path class="st27" d="M410.1,496h-30.9c0.1,1.5,0.5,2.6,0.5,2.6h29.6C409.6,497.8,409.9,496.9,410.1,496z"/>
	<g>
		<path class="st27" d="M383.9,487.9c0,0,12.5-2.8,18.2,0.8v-2.1C402,486.7,391.5,481.6,383.9,487.9z"/>
		<path class="st27" d="M386.3,484.7c0,0,8-3.6,15.7,0l-0.9-2.1C401.1,482.7,391.9,479.2,386.3,484.7z"/>
		<path class="st27" d="M385.8,481c0,0,8-3.6,15.7,0l-0.9-2.1C400.6,479,391.4,475.5,385.8,481z"/>
		<path class="st27" d="M384.7,477.3c0,0,8-3.6,15.7,0l-0.9-2.1C399.5,475.3,390.3,471.8,384.7,477.3z"/>
	</g>
</g>
<path class="st28" d="M407.1,294.9L301,294.4c-0.2,0-0.4-0.2-0.4-0.4l-5.7-53c0,0,0,0,0-0.1c0-10.7,8.7-19.3,19.3-19.3h79.7
	c10.7,0,19.3,8.6,19.3,19.3c0,0,0,0,0,0.1l-5.7,53.6C407.5,294.8,407.3,295,407.1,294.9z"/>
<g>
	<g>
		<g>
			<path class="st6" d="M320,141.9l21.2,105.4c0.9,4.5-2.5,8.7-7.1,8.7H181.3c-3.4,0-6.4-2.4-7.1-5.8l-22.6-105.4
				c-1-4.5,2.5-8.8,7.1-8.8h154.1C316.4,136,319.3,138.5,320,141.9z"/>
			<polyline class="st6" points="331,260 277.4,214.8 147.1,142.8 154.1,137.7 243.5,165.2 338.5,254.5 			"/>
			<path class="st28" d="M313.1,146.8l21.2,105.4c0.9,4.5-2.5,8.7-7.1,8.7H174.4c-3.4,0-6.4-2.4-7.1-5.8l-22.6-105.4
				c-1-4.5,2.5-8.8,7.1-8.8H306C309.5,141,312.5,143.4,313.1,146.8z"/>
			<polygon class="st6" points="257.5,233.1 260.4,261 248,261 			"/>
			<polygon class="st6" points="257.5,232.6 244.9,295 198.8,295 220.4,232.6 			"/>
			<circle class="st4" cx="232.5" cy="191.7" r="10.2"/>
			<path class="st6" d="M171.5,289.2h108.7c1.7,0,3,1.4,3,3l0,0c0,1.7-1.4,3-3,3H171.5c-1.7,0-3-1.4-3-3l0,0
				C168.5,290.5,169.8,289.2,171.5,289.2z"/>
			<path class="st4" d="M304.7,289.2h98.4c2.8,0,5.2,1.4,5.2,3l0,0c0,1.7-2.3,3-5.2,3h-98.4c-2.8,0-5.2-1.4-5.2-3l0,0
				C299.6,290.5,301.9,289.2,304.7,289.2z"/>
		</g>
	</g>
	<g>
		<line class="st29" x1="378.2" y1="304.8" x2="378.2" y2="482.9"/>
		<line class="st29" x1="491" y1="304.8" x2="491" y2="482.9"/>
		<line class="st29" x1="104.3" y1="304.8" x2="104.3" y2="482.9"/>
		<line class="st29" x1="217.2" y1="304.8" x2="217.2" y2="482.9"/>
		
			<rect x="410.5" y="295" transform="matrix(-1 -4.491086e-11 4.491086e-11 -1 927.7556 604.2933)" class="st6" width="106.8" height="14.3"/>
		
			<rect x="75.3" y="295" transform="matrix(-1 -4.490287e-11 4.490287e-11 -1 485.9826 604.2933)" class="st6" width="335.4" height="14.3"/>
	</g>
</g>
<ellipse class="st11" cx="353.3" cy="193.3" rx="12.5" ry="11.2"/>
<ellipse transform="matrix(0.9604 -0.2785 0.2785 0.9604 -28.1272 97.0025)" class="st13" cx="327.3" cy="147.5" rx="2.5" ry="3.3"/>
<ellipse transform="matrix(0.5663 -0.8242 0.8242 0.5663 42.4267 377.2626)" class="st13" cx="379.7" cy="148.3" rx="3.3" ry="2.5"/>
<path class="st30" d="M341.8,135.8c0,0,4-1.3,4.5,0.5c0,0,0.3,1.2-3.3,2.2c-3.5,1-4.5,1-5.1-0.1
	C337.3,137.4,339.9,136.2,341.8,135.8z"/>
<path class="st30" d="M364.5,136.5c0,0-3.4-1-3.9,0.6c0,0-0.4,1.1,2.6,1.9c3,0.8,4,0.6,4.5-0.3C368.2,137.8,366.2,136.9,364.5,136.5
	z"/>
<path class="st30" d="M360.4,148.9c0,1,0.8,1.8,1.8,1.9c1,0,1.8-0.8,1.8-1.8c0-1-0.8-1.8-1.8-1.9
	C361.2,147.1,360.4,147.9,360.4,148.9z"/>
<path class="st30" d="M342.1,148.7c0,1,0.8,1.8,1.8,1.9c1,0,1.8-0.8,1.8-1.8c0-1-0.8-1.8-1.8-1.9
	C342.9,146.9,342.1,147.7,342.1,148.7z"/>
<g>
	<path class="st31" d="M355,148.8c-0.1,4.6,3.6,8.4,8.2,8.5c4.6,0.1,8.4-3.6,8.5-8.2c0.1-4.6-3.6-8.4-8.2-8.5
		C358.9,140.6,355.1,144.2,355,148.8z"/>
	<path class="st31" d="M338.3,142.6c-3.3,3.2-3.4,8.5-0.2,11.8c3.2,3.3,8.5,3.4,11.8,0.2c3.3-3.2,3.4-8.5,0.2-11.8
		C346.9,139.5,341.7,139.4,338.3,142.6z"/>
	<line class="st31" x1="352.4" y1="150.4" x2="354.9" y2="150.5"/>
</g>
<path class="st32" d="M349,165.3c0,0,4.7,2,11.4-3.6"/>
<g>
	<g>
		<g>
			<path class="st4" d="M173.1,114.2h57.8c1.8,0,3.2-1.5,3.2-3.2V67.3c0-1.8-1.5-3.2-3.2-3.2h-57.8c-1.8,0-3.2,1.5-3.2,3.2V111
				C169.8,112.8,171.3,114.2,173.1,114.2z"/>
		</g>
	</g>
	<g>
		<rect x="180.3" y="75.6" class="st10" width="43" height="29.5"/>
		<polyline class="st33" points="180.4,75.9 201,90.6 223.1,76 		"/>
	</g>
</g>
<g>
	<g>
		<path class="st34" d="M443.5,217.5h-49.3v-18.9c0-8.5,6.9-15.3,15.3-15.3h32.6c8.5,0,15.3,6.9,15.3,15.3v5
			C457.4,211.2,451.2,217.5,443.5,217.5z"/>
		<polygon class="st34" points="394.2,210.4 394.1,225.5 407,210.4 		"/>
		<g>
			<path class="st4" d="M436.5,200c0,1.6,1.3,2.9,2.8,2.9c1.6,0,2.9-1.3,2.9-2.8c0-1.6-1.3-2.9-2.8-2.9S436.5,198.4,436.5,200z"/>
			<path class="st4" d="M424.3,199.9c0,1.6,1.3,2.9,2.8,2.9c1.6,0,2.9-1.3,2.9-2.8c0-1.6-1.3-2.9-2.8-2.9
				C425.5,197.1,424.3,198.4,424.3,199.9z"/>
			<path class="st4" d="M412,199.9c0,1.6,1.3,2.9,2.8,2.9c1.6,0,2.9-1.3,2.9-2.8c0-1.6-1.3-2.9-2.8-2.9
				C413.3,197.1,412,198.3,412,199.9z"/>
		</g>
	</g>
</g>
<ellipse class="st4" cx="476.7" cy="65.8" rx="3.1" ry="2.9"/>
<ellipse class="st4" cx="488.3" cy="66" rx="3.1" ry="2.9"/>
<ellipse class="st4" cx="499.1" cy="66.2" rx="3.1" ry="2.9"/>
<g>
	<g>
		<path class="st35" d="M128.8,266.6c0,0-0.4,5.8-1.1,8.3c-0.7,2.5-2.6,19.7-3.9,20c-1.4,0.3-2.5,0.2-9.8,0.2
			c-6.6-0.1-8.8,0.4-10.1-0.3s-4.1-17.4-4.8-19.9c-0.7-2.5-1.1-8.3-1.1-8.3l15.4,0.5L128.8,266.6z"/>
		<ellipse class="st36" cx="113.5" cy="266.4" rx="15.4" ry="1.1"/>
		<path class="st10" d="M119.3,259.9c0.3-0.6,0.9-1.1,1.4-1.5c2-2,4.6-3.5,7.4-4c1-0.2,2.1-0.2,3.2-0.1c6.5,0.6,11.2,7.1,13.9,12.5
			c0.7,1.5,1.3,3.2,1.5,4.9c0.2,1.4-0.4,3.3,0.3,4.6c0.2,0.5,0,0.9-0.5,0.9s-0.5-0.2-0.9,0c-0.5,0.2-3.1,1.7-5.1,1.3
			s-7.6-0.9-15.1-6.4c-2.3-1.7-5.1-3.7-6.5-6.3c-1-1.8-0.5-4,0.4-5.8C119.3,260,119.3,259.9,119.3,259.9z"/>
		<g>
			<path class="st37" d="M113.7,261.1c0.4-0.4,0.8-0.6,1.2-0.8c0.4-0.2,0.8-0.4,1.2-0.6c0.8-0.3,1.7-0.5,2.6-0.5
				c1.8-0.1,3.5,0.6,4.9,1.2c2.9,1.3,5.6,2.8,8.2,4.4c2.6,1.6,5.2,3.4,7.6,5.3c2.4,1.9,4.7,4,6.7,6.4c-2.1-2.3-4.5-4.2-7-6
				c-2.5-1.8-5.1-3.3-7.8-4.8c-2.7-1.4-5.5-2.8-8.3-3.8c-1.4-0.5-2.8-0.9-4.1-0.8c-0.7,0.1-1.3,0.2-1.9,0.5c-0.6,0.3-1.2,0.7-1.5,1
				L113.7,261.1z"/>
		</g>
		<path class="st10" d="M113,252.2c0,0-4.5-5.4-4.8-9.7c-0.3-4.3,3.5-6,5.7-6.3c2.3-0.4,4.7,1.8,5.9,1.7c1.1,0,4.4-0.1,5.2,1.3
			s5.1,6.5,0,10.7c-5.1,4.2-8,3.7-9.3,3.1C114.4,252.5,113,252.2,113,252.2z"/>
		<g>
			<path class="st37" d="M113.2,250.3c0.6-0.9,1.2-1.9,1.7-2.9c0.5-1,1.1-2,1.6-3c1-2.1,1.9-4.2,2.3-6.4c-0.1,2.3-0.6,4.6-1.3,6.8
				c-0.3,1.1-0.7,2.2-1.1,3.3c-0.4,1.1-0.8,2.2-1.3,3.3L113.2,250.3z"/>
		</g>
		<path class="st10" d="M120.3,241.4c0.3,0,7.9-9.6,22.3-9.5s14.9,1.3,16.5,3.1s2.2,5.1,2.3,5.9c0.1,0.8,0.3,0.8,0.5,1.3
			c0.1,0.4-0.2,0.3-0.5,0.7c-0.9,1.2-1.3,2.6-2.5,3.6c-4.3,3.9-11.3,5-16.9,5.4c-6.2,0.4-12.8-0.8-17.8-4.6c-1-0.8-1.4-2.3-2.4-2.9
			c-1.4-0.9-1.7-1.6-1.6-1.9C120.4,242.2,120.3,241.4,120.3,241.4z"/>
		<g>
			<path class="st37" d="M112,243.9c1.8-1.2,3.6-2,5.5-2.8c1.9-0.7,3.9-1.3,5.9-1.6c2-0.3,4-0.3,6-0.3c2,0,4,0,6,0.1
				c4,0.1,7.9,0.3,11.9,0.7c2,0.2,3.9,0.4,5.9,0.7c2,0.3,3.9,0.6,5.8,1.3c-1.9-0.6-3.9-0.8-5.8-1c-2-0.2-3.9-0.3-5.9-0.4
				c-3.9-0.2-7.9-0.2-11.8-0.1c-2,0.1-3.9,0.1-5.9,0.2c-2,0.1-3.9,0.2-5.8,0.6c-3.7,0.7-7.3,2.4-10.4,4.5L112,243.9z"/>
		</g>
		<path class="st10" d="M110.7,249.1c0,0-4.4-7.2-10-9.8c-5.6-2.6-9.8-3.5-15.4-0.9c-5.6,2.6-8.4,5.1-9.8,8.9
			c-0.5,1.6,0,2.8-0.5,3.5c-0.5,0.7-1.2,1.2-1.2,1.4s0.7-0.2,0.9,0c0.2,0.2,1.6,1.6,3.3,3.3c1.2,1.2,2.9,2.1,4.5,2.8
			c1.7,0.7,3.5,0.7,5.3,1c3.4,0.5,6.8,1.8,10.3,1.8c2.2,0,4.4-0.3,6.4-1c1.8-0.6,4.2-1.6,5.6-3c1.4-1.4,2.1-4.4,1.9-5.6
			S110.7,249.1,110.7,249.1z"/>
		<g>
			<path class="st37" d="M111.6,252.3c-0.1-0.2-0.3-0.5-0.4-0.8c-0.2-0.3-0.4-0.5-0.6-0.8c-0.5-0.5-1-0.9-1.7-1.3
				c-1.2-0.7-2.7-1.1-4.2-1.3c-0.7-0.1-1.5-0.1-2.3-0.1l-2.4,0.1c-1.6,0-3.2,0.1-4.8,0.2c-6.3,0.4-12.7,1.3-18.9,2.6
				c6.2-1.7,12.4-3,18.8-3.8c1.6-0.2,3.2-0.4,4.8-0.5l2.4-0.2c0.8,0,1.7-0.1,2.5,0c3.3,0.2,7,1.5,8.9,5L111.6,252.3z"/>
		</g>
		<path class="st10" d="M117.9,227.6c0,0,0.9-0.7,1.6-0.5s8.4,0.9,12.6-1.6c4.2-2.6,7.9-7.7,9.2-11.4c1.3-3.7-1.5-6.8-5.3-5.8
			c-3.7,0.9-12.1,4-14.5,4.9c-2.3,0.9-3,2.1-3.3,2.8s-0.7,2.3-1.2,3.5s-0.9,3-0.5,4.2c0.5,1.2,0.7,3,0.7,3L117.9,227.6z"/>
		<g>
			<path class="st37" d="M112.4,232.5c1.2-2.1,2.7-3.9,4.2-5.6c1.5-1.7,3.2-3.3,4.9-4.9c1.7-1.5,3.5-2.9,5.4-4.2
				c0.9-0.7,1.9-1.3,2.8-1.9c1-0.6,1.9-1.2,2.9-1.8c-0.9,0.7-1.8,1.3-2.7,2c-0.9,0.7-1.8,1.4-2.6,2.1c-1.7,1.4-3.4,3-4.9,4.6
				c-1.5,1.6-3,3.3-4.3,5.1c-1.3,1.8-2.6,3.7-3.5,5.6L112.4,232.5z"/>
		</g>
		<path class="st10" d="M94.8,197c0,0,0.7,0.2,0.2,0.7s-2.8,1.9-3,4.4c-0.2,2.6-1.2,18,2.8,23.1c4,5.1,6.5,3.5,7.9,4.2
			c1.4,0.7,2.6,1.2,4.4,1.9c1.9,0.7,4,1.6,4,1.6s4-3.7,4.4-6.1c0.5-2.3-0.7-11-2.1-13.8c-1.3-2.5-2.6-5-3.9-7.4
			c-1.2-2.2-2.7-4.5-4.7-5.9c-2.3-1.6-5.2-1.7-7.9-2.2c-0.3-0.1-1.2-0.1-1.4-0.3C95.3,197,94.8,197,94.8,197z"/>
		<g>
			<path class="st37" d="M113,239c-1.1-1.7-1.9-3.3-2.7-5.1c-0.4-0.9-0.8-1.8-1.1-2.7c-0.3-0.9-0.5-1.9-0.8-2.8
				c-1-3.5-2.1-7.1-3.4-10.6c-1.2-3.5-2.5-7-4-10.4c-0.7-1.7-1.5-3.4-2.3-5.1c-0.9-1.6-1.7-3.3-3-4.7c1.4,1.3,2.3,2.9,3.3,4.5
				c0.9,1.6,1.8,3.3,2.6,5c1.6,3.4,3.1,6.8,4.5,10.3c1.4,3.5,2.8,6.9,3.9,10.5c0.3,1,0.5,1.7,0.9,2.6c0.3,0.8,0.7,1.7,1.1,2.5
				c0.8,1.6,1.8,3.2,2.8,4.6L113,239z"/>
		</g>
		<path class="st10" d="M122.8,215.5c0,0,2.8,0.5,3.7,0.5c0.7,0,1.5-0.4,2.2-0.4c1.8-0.2,3.5,0,5.3-0.1c5.5-0.4,10.9-1.7,16-3.8
			c4.8-1.9,9-4.8,13.5-7.3c0,0,0.1,0,0.1,0c0,0-0.7-3.7-5.4-5.4c-7.2-2.5-15-0.6-21.7,2.4c-5.1,2.3-13.8,6.3-13.8,13V215.5z"/>
		<path class="st38" d="M114.5,221.3c3.7-4.1,7.9-8,12.8-10.6c6.5-3.4,14.1-7,21.4-7.7c4.4-0.5,9.1-0.1,13.4,0.8"/>
		<path class="st10" d="M67,212c0,0,1.2-0.7,1.6-0.5s5.4,4.2,9.6,5.8c4.2,1.6,14.2,7,22,7.7c7.7,0.7,9.6-0.2,9.8-0.9
			c0.2-0.7-0.7-1.4-0.7-2.1s-1.2-2.6-1.6-3.3s-10.7-14.2-25-15.9c-7,0-11,2.1-12.6,4.7C68.4,210.1,67.7,212,67,212z"/>
		<path class="st38" d="M113.4,227.6c-0.2-4.3-4.1-7.6-7.5-9.7c-1.8-1.1-3.7-1.7-5.6-2.6c-2.8-1.3-5.6-2.6-8.5-3.6
			c-6.8-2.4-13.8-3.1-20.9-1.3c-1.1,0.3-2.3,0.6-3.4,1.2"/>
		<path class="st10" d="M90.1,177.9c0,0,2.3-1.2,5.4-0.2c3,0.9,8.2,2.3,16.1,11.9c7.9,9.6,1.6,16.8,1.4,17.3s-0.9,1.2-2.3,0.5
			c-1.4-0.7-4,0.9-13.1-9.1c-4.9-5.4-8.6-12.1-9.4-19.4c-0.1-0.8,0.1-1.2,1-1.3C89.3,177.5,90.3,177.8,90.1,177.9z"/>
		<path class="st38" d="M114.5,211.7c0,0-10.3-20.7-16.9-27.4s-7.4-6.4-7.4-6.4"/>
		<path class="st10" d="M115.2,205.2c0,0-0.5-0.5-1.4-0.5c-0.9,0-6.5-0.9-7.2-5.4c-0.7-4.4,2.6-19.9,15.2-23.6c3-0.9,6.1-0.5,8,2.1
			c1.7,2.3,2.2,5.4,2.4,8.2c0.5,8.2-4.4,18.3-13.6,18.6c-0.4,0-0.9,0-1.3,0.2c-0.2,0.1-0.3,0.2-0.5,0.3
			C116.5,205.3,115.4,205.4,115.2,205.2z"/>
		<path class="st6" d="M108.8,267.4c0,0,2.7-0.3,2.7-1.2s-0.2-13.6-0.2-14.2c0-0.6,0.9-24.3,1-25.2s1.2-9.9,1.2-11.4
			c0-1.5,1.3-4.5,1.2-7c-0.1-2.5,3.6-17.3,10.9-31c0,0-9.3,21.6-9.5,28.5c-0.2,6.9-0.1,7.4-0.1,9.1s-0.7,4.4-0.4,5
			c0.3,0.6-1,7.9-0.8,9c0.2,1.1-0.5,12.7-0.4,14.2c0.1,1.6,0,10.1,0.1,11.2s0.4,12.1,0.9,12.5c0.5,0.4,2.6,0.6,2.6,0.6
			S111.7,267.7,108.8,267.4z"/>
		<path class="st10" d="M116.7,230.4c0.1,0,5.2-2.4,9.3-0.9s2.1,3.4,0.5,2.1s-2-1.3-4.4-1.1S116.7,230.4,116.7,230.4z"/>
		<path class="st10" d="M111.3,233.4c0,0-3.2,0.2-3.4-2.1c-0.2-2.3,12.5-2.9,14.2-1.5s0.8,2.1,0.8,2.1c-0.2,0,0-1.9-1.5-1.2
			c-1.5,0.7-3.1,1.6-4.6,1.8c-1.4,0.1-1.2-0.1-2.4,0.3C113.2,233.2,111.3,233.4,111.3,233.4z"/>
	</g>
</g>
<ellipse class="st4" cx="353.2" cy="259.2" rx="5.8" ry="5.3"/>
</svg>
