<?xml version="1.0" encoding="UTF-8"?>
<svg width="100%" height="444px" viewBox="0 0 1921 444" version="1.1" xmlns="http://www.w3.org/2000/svg" xmlns:xlink="http://www.w3.org/1999/xlink">
    <!-- Generator: Sketch 59 (86127) - https://sketch.com -->
    <title>blog-dark</title>
    <desc>Created with Sketch.</desc>
    <g id="Page-1" stroke="none" stroke-width="1" fill="none" fill-rule="evenodd">
        <g id="blog-dark">
            <path d="M0.28,289.81 C0.28,289.81 353.13,317.68 430.28,289.81 C548.28,247.17 722.77,261.93 860.7,316.05 C991.81,367.5 1114.97,319.33 1171.47,298.05 C1227.97,276.77 1430.72,261.97 1628.47,327.58 C1826.22,393.19 1919.9,324.49 1919.9,324.49 L1920.32,443.94 L0.28,444 L0.28,289.81 Z" id="Path" fill="#1BBFBF" fill-rule="nonzero"></path>
            <path d="M0,280.57 C0,280.57 226.88,234.73 391.63,304.85 C522.19,360.41 761.06,336.92 884.2,297.78 C1007.34,258.64 1281.52,271.02 1375.12,326.05 C1450,370.05 1570.89,374.53 1644.7,337.46 C1762.32,278.38 1919.57,324.18 1919.57,324.18 L1919.98,443.62 L0,444 L0,280.57 Z" id="Path" fill="#0FA8BA" fill-rule="nonzero"></path>
            <path d="M772.16,0.76 L1170.25,0.76 C1174.80642,0.76 1179.17622,2.57003052 1182.39809,5.7919055 C1185.61997,9.01378048 1187.43,13.3835807 1187.43,17.94 L1187.43,268.33 C1187.43,281.220326 1176.98033,291.67 1164.09,291.67 L778.33,291.67 C765.443579,291.664479 755,281.216422 755,268.33 L755,17.94 C755,8.459553 762.679559,0.771036609 772.16,0.76 Z" id="Path" fill="#EEEDEF" fill-rule="nonzero"></path>
            <rect id="Rectangle" fill="#D9D9E2" fill-rule="nonzero" opacity="0.88" x="777.16" y="25.56" width="388.11" height="244.54"></rect>
            <path d="M773.24,-2.71100942e-06 L1169.13,-2.71100942e-06 C1174.02855,-2.71100942e-06 1178.72647,1.94594084 1182.19026,5.40973775 C1185.65406,8.87353466 1187.6,13.5714514 1187.6,18.47 L1187.6,31.47 L754.76,31.47 L754.76,18.47 C754.76,13.5697183 756.707313,8.87028546 760.173273,5.40620095 C763.639233,1.94211643 768.339719,-0.00265310323 773.24,-2.71100942e-06 Z" id="Path" fill="#F7B634" fill-rule="nonzero"></path>
            <circle id="Oval" fill="#EEEDEF" fill-rule="nonzero" cx="1137.49" cy="17.31" r="2.9"></circle>
            <circle id="Oval" fill="#EEEDEF" fill-rule="nonzero" cx="1147.63" cy="17.31" r="2.9"></circle>
            <circle id="Oval" fill="#EEEDEF" fill-rule="nonzero" cx="1157.35" cy="17.31" r="2.9"></circle>
            <path d="M801.43,287.23 C803.654781,287.344931 805.859112,287.713997 808,288.33 C810.34,288.9 812.68,289.49 815,290.15 C819.69,291.49 824.23,293.23 828.79,294.91 C831.236452,295.826988 833.582122,296.993122 835.79,298.39 C835.91,298.46 835.79,298.65 835.69,298.58 C833.794143,297.348141 831.785032,296.300055 829.69,295.45 C827.4,294.57 825.1,293.73 822.8,292.88 C818.285516,291.226781 813.677529,289.841045 809,288.73 C806.531359,287.990746 803.98984,287.521336 801.42,287.33 C801.35,287.33 801.34,287.23 801.42,287.23 L801.43,287.23 Z" id="Path" fill="#EFB670" fill-rule="nonzero"></path>
            <g id="Group" opacity="0.92" transform="translate(812.000000, 225.000000)" fill-rule="nonzero">
                <path d="M43.84,70.67 C46.0049118,63.6125423 46.6858577,56.1834219 45.84,48.85 C44.9508508,41.4444501 41.6637057,34.5330169 36.48,29.17 C34.4603601,27.2614737 32.3119669,25.4939776 30.05,23.88 C24.29,19.57 18.53,15.26 12.61,11.17 C8,8 3.13,4.74 0.18,0 C0.230352922,6.60931619 0.930386644,13.1976718 2.27,19.67 C2.98841154,23.6568576 4.26777918,27.5218946 6.07,31.15 C8.97,36.59 13.63,40.92 17.93,45.41 C22.9024323,50.6110748 27.5037351,56.1546922 31.7,62 C32.9244729,63.850186 34.3242665,65.5781608 35.88,67.16 C38.0397412,69.1677935 40.7048345,70.5504619 43.59,71.16" id="Path" fill="#E0DFDE"></path>
                <g opacity="0.14" transform="translate(4.000000, 27.000000)" fill="#0097CF" id="Path">
                    <path d="M14.73,5.48 C19.8537729,7.12874316 24.8283062,9.20954995 29.6,11.7 C33.7431792,13.9001051 37.4316495,16.8658117 40.47,20.44 C40.9951717,21.0800867 41.4858672,21.7476996 41.94,22.44 C42.6574089,29.5826037 41.9434922,36.7965618 39.84,43.66 L39.58,44.17 C36.698214,43.5510352 34.035502,42.1696022 31.87,40.17 C30.3188877,38.5830773 28.9225729,36.8519148 27.7,35 C23.501105,29.1665085 18.8963678,23.6361455 13.92,18.45 C9.62,13.96 4.92,9.63 2.07,4.19 C1.4486121,3.0214281 0.907364887,1.81197446 0.45,0.57 C2.74701677,1.21900926 5.00988392,1.98331099 7.23,2.86 C9.72,3.75 12.23,4.61 14.73,5.48 Z"></path>
                </g>
                <g opacity="0.5" transform="translate(4.000000, 10.000000)" fill="#0097CF" id="Path">
                    <path d="M0.5,0.67 C4.34,9.14 11.3,15.78 17.77,22.41 C21.0225699,25.6379119 24.0717594,29.0644929 26.9,32.67 C29.8186063,36.5103001 32.3319912,40.6423048 34.4,45 C36.8048927,50.0164301 38.5719804,55.3143338 39.66,60.77 C39.71,61.05 39.28,61.19 39.22,60.91 C37.1846531,51.1734812 33.123337,41.9741914 27.3,33.91 C21.84,26.41 14.7,20.3 8.63,13.29 C5.25241105,9.52262178 2.46114183,5.26829599 0.35,0.67 C0.3,0.569862533 0.46,0.53 0.5,0.62 L0.5,0.67 Z"></path>
                </g>
            </g>
            <g id="Group" opacity="0.92" transform="translate(785.000000, 237.000000)" fill-rule="nonzero">
                <path d="M69.71,71.37 C67.71,63.14 63.78,55.84 57.12,50.37 C52.97,46.94 48.12,44.31 44.12,40.69 C37.84,34.94 34.12,27.07 28.66,20.6 C21.26,11.88 10.89,6.06 0.75,0.43 C11.1,14.23 12.75,32.87 23.65,46.3 C32.59,57.3 46.65,63.38 60.58,67.24 C63.85,68.14 67.32,69.05 69.68,71.4" id="Path" fill="#E0DFDE"></path>
                <g opacity="0.54" transform="translate(7.000000, 7.000000)" fill="#0097CF" id="Path">
                    <path d="M0.67,0.78 C10.35,6.78 16.09,16.72 22.09,25.85 C25.1032255,30.6786937 28.5868629,35.197375 32.49,39.34 C34.4862277,41.3862587 36.695441,43.2133016 39.08,44.79 C41.78,46.54 44.74,47.87 47.48,49.54 C53.4072513,53.1020658 58.5181047,57.8721956 62.48,63.54 C62.64,63.78 62.26,63.98 62.1,63.76 C58.3373229,58.6582433 53.7068089,54.257901 48.42,50.76 C45.74,49.01 42.82,47.66 40.08,46.01 C37.770921,44.6141232 35.6156453,42.978393 33.65,41.13 C25.45,33.49 20.53,23.33 14.08,14.41 C10.37,9.27 6.08,4.46 0.62,0.98 C0.54,0.92 0.62,0.79 0.7,0.85 L0.67,0.78 Z"></path>
                </g>
                <path d="M16.22,23.33 C19.85,25.68 22.22,29.33 24.31,33.09 C26.4,36.85 28.18,40.7 31.03,43.89 C35.4962156,48.7920809 41.8284951,51.5749416 48.46,51.55 C51.58,51.55 54.69,50.91 57.79,50.98 C64.03,56.4 67.79,63.47 69.7,71.42 C67.33,69.07 63.87,68.17 60.6,67.26 C46.6,63.4 32.6,57.34 23.67,46.32 C17.75,39.01 14.55,30.16 11.2,21.38 C12.9873891,21.6859868 14.6947393,22.3492005 16.22,23.33 Z" id="Path" fill="#0097CF" opacity="0.14"></path>
            </g>
            <path d="M835.77,298.44 C825.24,292.06 814.87,285.64 802.45,284.5 C800.0318,284.144052 797.562694,284.416101 795.28,285.29 C794.55,285.62 793.78,286.2 793.81,286.98 C793.841885,287.320764 793.974129,287.644413 794.19,287.91 C795.26,289.34 797.19,289.78 799.06,290.07 C811.52,292.07 824.66,292.6 835.7,298.48" id="Path" fill="#F7B634" fill-rule="nonzero"></path>
            <path d="M851.7,297.27 C842.129114,283.766737 828.713143,273.459089 813.2,267.69 C809.89,266.43 806.36,265.36 802.82,265.77 C801.49,265.92 799.82,266.77 800.18,268.02 C800.323785,268.41841 800.581025,268.766031 800.92,269.02 C802.99,270.9 805.7,272.02 808.34,273.02 C816.29,276.13 824.28,279.24 831.77,283.27 C838.947438,287.125876 845.638235,291.825884 851.7,297.27" id="Path" fill="#F7B634" fill-rule="nonzero"></path>
            <path d="M805.86,268 C812.58395,270.497318 819.169965,273.351369 825.59,276.55 C828.728802,278.171311 831.76457,279.984757 834.68,281.98 C837.68,284.08 840.62,286.36 843.49,288.68 C844.936973,289.762741 846.29467,290.959921 847.55,292.26 C848.72,293.58 849.74,295.01 850.95,296.26 C851.04,296.36 850.9,296.52 850.8,296.42 C849.8,295.34 848.89,294.16 847.94,293.02 C847.451547,292.425173 846.930761,291.85765 846.38,291.32 C845.77,290.76 845.1,290.25 844.46,289.73 C841.62,287.41 838.76,285.12 835.77,282.98 C829.884344,278.910069 823.594354,275.458449 817,272.68 C813.33,271.07 809.6,269.58 805.89,268.07 C805.89,268.07 805.89,268.01 805.89,268.02 L805.86,268 Z" id="Path" fill="#EFB670" fill-rule="nonzero"></path>
            <path d="M853,293.87 C848.88,287.64 844.75,281.36 841.81,274.54 C839.52,269.23 837.88,263.47 833.95,259.13 C833.319122,258.286387 832.388405,257.717217 831.35,257.539648 C830.28645,257.523514 829.298068,258.086662 828.77,259.01 C828.283184,259.908928 828.074353,260.932202 828.17,261.95 C828.33,265.06 829.95,267.89 831.64,270.54 C837.16,279.19 841.29,287.19 853,293.87" id="Path" fill="#F7B634" fill-rule="nonzero"></path>
            <path d="M832.74,264.19 C836.81,272.27 841.12,280.34 846.96,287.38 C847.8,288.38 848.67,289.38 849.57,290.33 C850.47,291.28 851.46,292.21 852.4,293.16 C852.421861,293.197994 852.41643,293.245796 852.386603,293.277917 C852.356776,293.309876 852.309507,293.318991 852.27,293.3 C850.532909,291.76418 848.921128,290.092208 847.45,288.3 C845.967319,286.567502 844.572242,284.761912 843.27,282.89 C840.658416,279.07429 838.280716,275.103664 836.15,271 C834.96,268.74 833.81,266.46 832.68,264.17 C832.68,264.17 832.68,264.11 832.74,264.17 L832.74,264.19 Z" id="Path" fill="#EFB670" fill-rule="nonzero"></path>
            <path d="M1380.91,322.9 C1376.03,305.73 1358.73,268.15 1339.09,270.32 C1316.43,272.82 1361.29,313.84 1361.29,313.84 C1361.29,313.84 1329.91,289.65 1318.58,303.7 C1307.25,317.75 1357.09,326.7 1357.09,326.7 C1357.09,326.7 1330.86,321.25 1333.46,331.7 C1336.06,342.15 1379.79,339.15 1382.85,349.19 C1385.91,359.23 1384.26,334.68 1380.91,322.9 Z" id="Path" fill="#D9D9E2" fill-rule="nonzero"></path>
            <path d="M1382.76,345 C1378.47,326.78 1370.66,309.11 1359.27,294.22 C1355.10335,288.742112 1350.41468,283.681705 1345.27,279.11" id="Path" stroke="#EEEDEF"></path>
            <path d="M1382.48,345.33 C1370.61,325.66 1350.4,311.33 1328.08,307.64" id="Path" stroke="#EEEDEF"></path>
            <path d="M1382.22,345.48 C1371.48,336.75 1357.85,332.25 1344.15,331.28" id="Path" stroke="#EEEDEF"></path>
            <path d="M1387.9,322.08 C1392.78,304.9 1410.08,267.33 1429.73,269.49 C1452.38,271.99 1407.52,313.02 1407.52,313.02 C1407.52,313.02 1438.91,288.82 1450.24,302.87 C1461.57,316.92 1411.72,325.87 1411.72,325.87 C1411.72,325.87 1437.96,320.42 1435.36,330.87 C1432.76,341.32 1389.02,338.31 1385.96,348.36 C1382.9,358.41 1384.55,333.85 1387.9,322.08 Z" id="Path" fill="#D9D9E2" fill-rule="nonzero"></path>
            <path d="M1386.05,344.18 C1390.34,325.96 1398.15,308.3 1409.54,293.4 C1413.7068,287.922233 1418.39545,282.86184 1423.54,278.29" id="Path" stroke="#FFFFFF"></path>
            <path d="M1386.33,344.5 C1398.21,324.83 1418.41,310.5 1440.73,306.81" id="Path" stroke="#FFFFFF"></path>
            <path d="M1386.59,344.65 C1397.33,335.92 1410.96,331.42 1424.66,330.45" id="Path" stroke="#FFFFFF"></path>
            <path d="M1372.26,305.5 C1367.82,278.88 1366.07,217.5 1391.04,211.27 C1419.84,204.08 1390.45,283.38 1390.45,283.38 C1390.45,283.38 1413.72,234.28 1435.81,248.78 C1457.9,263.28 1403.27,299.63 1403.27,299.63 C1403.27,299.63 1431.59,279.49 1434.74,295.49 C1437.89,311.49 1383.39,327.98 1385.74,343.64 C1388.09,359.3 1375.3,323.75 1372.26,305.5 Z" id="Path" fill="#D9D9E2" fill-rule="nonzero" opacity="0.88"></path>
            <path d="M1383.32,337.65 C1377.54,309.84 1376.32,281.14 1381.1,254.65 C1382.79767,245.085256 1385.41997,235.707932 1388.93,226.65" id="Path" stroke="#FFFFFF"></path>
            <path d="M1383.85,338 C1386.33,304.54 1402.04,274.64 1426.73,258.89" id="Path" stroke="#FFFFFF"></path>
            <path d="M1384.26,338.06 C1391.95,320.62 1405.66,307.79 1421.58,299.92" id="Path" stroke="#FFFFFF"></path>
            <path d="M581.62,294.85 C582.17,288.61 573.3,290.52 570.02,292.45 C563.64,296.22 553.67,308.24 551.66,312.11 C551.58,310.59 551.44,309.11 551.27,307.55 C550.94,304.72 550.61,301.89 550.27,299.07 C554.46,297.71 563.54,295.28 570.82,284 C572.04,282.11 573.49,279.48 572.41,277.23 C570.9,274.1 568.17,276.55 566.49,278.15 C563.61,280.88 554.39,290.92 549.85,295.35 C549.183333,289.69 548.516667,284.023333 547.85,278.35 C555.33,274.26 564.38,269.24 567.56,260.76 C569.64,255.21 563.43,255.46 560.25,257.36 C554.55,260.76 550.18,267.02 547.25,273.3 C546.92,270.64 546.58,267.99 546.25,265.3 C546.19,264.82 546.12,264.3 546.06,263.87 C549.91,262.18 553.79,260.95 556.94,257.95 C559.896523,254.932487 561.594663,250.903425 561.69,246.68 C561.8,244.83 562.19,242.6 560.9,241 C559.1,238.77 557.81,241.79 556.9,243.5 C554.93867,247.146827 552.782209,250.685293 550.44,254.1 C549.15,255.96 548.01,257.75 546.93,259.66 C546.562541,260.263341 546.154956,260.84131 545.71,261.39 C545.17,257.62 544.55,253.84 543.85,250.09 C549.02,245.09 555.24,238.96 555.93,231.35 C556.37,226.35 551.36,227.95 549.19,230.22 C545.83,233.74 543.76,238.77 542.63,243.82 C542.29,242.19 541.95,240.56 541.63,238.94 C545.63,231.49 550.63,222.32 548.63,213.58 C547.34,208.03 542.4,211.58 540.82,214.86 C539.293278,218.194466 538.433796,221.795458 538.29,225.46 C538.1,224.74 537.9,224.01 537.69,223.29 C537.2,221.56 536.69,219.87 536.05,218.2 C540.27,212.34 545.38,205.2 544.72,197.55 C544.29,192.55 539.64,195.01 537.89,197.62 C535.14,201.76 533.99,207.25 533.8,212.52 C532.73,210.04 531.59,207.6 530.39,205.18 C533.07,199.92 536.26,193.54 534.78,187.47 C533.78,183.47 530.34,186.05 529.26,188.38 C527.770653,192.007815 527.233646,195.956196 527.7,199.85 C526.36,197.22 525,194.59 523.7,191.93 C524.02,189.29 524.14,186.48 524.2,184.04 C524.27,181.15 523.9,177.93 521.49,175.95 C518.33,173.35 515.75,174.85 515.16,178.73 C514.93343,180.428398 515.171901,182.156447 515.85,183.73 C514.635647,182.844404 513.1986,182.314601 511.7,182.2 C510.674752,182.067464 509.658814,182.504509 509.05,183.34 C508.3,184.54 508.72,186.48 509.78,188.01 C511.67,190.72 514.91,192.18 517.59,193.94 C518.421389,194.504116 519.207143,195.132719 519.94,195.82 C520.94,196.76 521.94,197.75 523,198.61 C523.893333,200.336667 524.78,202.073333 525.66,203.82 L525.66,203.82 C522.42,200.23 518.23,196.94 513.72,195.82 C511.23,195.22 507.06,196.32 509.57,199.57 C513.57,204.78 521.13,206.14 527.07,207.36 L527.33,207.17 L528.5,209.6 L528.56,209.72 C530.543942,213.8798 532.260755,218.161812 533.7,222.54 L533.7,222.54 C532.542315,221.380074 531.241894,220.371996 529.83,219.54 C527.3,218.07 522.4,217.93 524.1,222.28 C526.27,227.88 531.69,231.5 536.89,234.39 C538.32,240.31 539.58,246.3 540.65,252.3 C538.11,247.15 534.42,242.1 529.65,239.3 C526.94,237.73 521.65,237.58 523.5,242.25 C526.41,249.74 534.75,253.93 541.27,257.41 L541.47,257.35 L541.47,257.35 C541.93,260.17 542.35,263.01 542.72,265.83 C542.9,267.22 543.09,268.61 543.25,270 L543.25,270 C539.9,262.81 535.08,255.72 528.94,251.82 C525.43,249.6 518.69,249.3 521.09,255.82 C524.94,266.19 535.64,272.12 544.09,277.04 L544.09,277.04 C544.54,280.99 544.95,284.95 545.39,288.9 C540.31,283.58 530.45,271.9 526.96,268.45 C525.32,266.81 521.06,263.45 519.39,266.99 C518.47,268.99 520.24,273.14 521.34,274.89 C523.81,278.79 536.67,289.21 546.08,295 L546.08,295 C546.4,297.806667 546.75,300.61 547.13,303.41 C547.27,304.41 547.39,305.48 547.5,306.51 C540.68,297.98 526.25,282.23 521.39,279.85 C518.92,278.64 514.58,277.29 512.72,280.12 C510.86,282.95 514.72,286.6 516.25,288.89 C519.82,294.17 536.25,305.57 539.64,307.24 C542.23,308.53 545.21,309.31 547.83,310.44 L547.83,310.57 C547.97,312.9 548.04,315.2 548.05,317.5 L547.6,317.22 C540.1,312.34 524.8,301 519.6,297.78 C517.18,296.29 511.13,293.42 510.13,298.16 C509.58,300.78 512.87,305.29 514.69,307.07 C518.46,310.78 534.69,318.74 547.28,323.28 L547.97,323.51 C547.75,330.99 547.15,338.44 546.97,346.16 C546.91,348.49 550.53,348.79 550.59,346.45 C550.84,335.3 552.28,324.54 551.79,313.5 C564.49,310.91 581.37,297.68 581.62,294.85 Z" id="Path" fill="#ECBC4F" fill-rule="nonzero"></path>
            <path d="M592.55,332 C595.74,328.64 589.73,325.66 586.94,325.27 C581.51,324.51 570.2,326.88 567.26,328.2 C567.91,327.28 568.53,326.34 569.13,325.37 C570.243333,323.576667 571.36,321.793333 572.48,320.02 C578.428865,322.675093 585.171119,322.940057 591.31,320.76 C592.89,320.22 594.94,319.37 595.31,317.57 C595.88,315.06 593.17,315.22 591.46,315.37 C588.54,315.63 578.58,317.19 573.9,317.67 C576.13,314.09 578.37,310.52 580.58,306.93 C586.8,308.01 594.35,309.27 600.1,305.82 C603.87,303.57 600.15,300.82 597.43,300.49 C592.57,299.83 587.16,301.44 582.56,303.73 C583.56,302.03 584.62,300.34 585.64,298.64 L586.19,297.73 C589.19,298.52 592.01,299.6 595.19,299.31 C598.311712,298.946668 601.176861,297.404995 603.2,295 C604.12,294 605.37,292.87 605.36,291.35 C605.36,289.23 603.21,290.35 601.89,290.95 C599.073691,292.161378 596.192638,293.216318 593.26,294.11 C591.66,294.6 590.18,295.11 588.67,295.72 C588.179663,295.895117 587.678643,296.038743 587.17,296.15 C588.59,293.723333 589.966667,291.256667 591.3,288.75 C596.61,288.23 603.02,287.56 606.92,283.47 C609.48,280.78 605.85,279.4 603.54,279.72 C599.81645,280.411625 596.344186,282.082177 593.48,284.56 C594.03,283.47 594.58,282.36 595.12,281.26 C600.85,278.77 607.99,275.78 610.84,269.79 C612.65,265.98 608.15,265.79 605.73,266.93 C603.307812,268.162568 601.153177,269.861807 599.39,271.93 C599.61,271.42 599.82,270.93 600.04,270.39 C600.55,269.16 601.04,267.93 601.43,266.69 C606.57,265.24 612.82,263.46 615.96,258.69 C618.02,255.6 614.19,254.87 611.96,255.58 C608.45,256.71 605.27,259.36 602.72,262.32 C603.25,260.39 603.72,258.45 604.14,256.5 C608.14,254.69 612.89,252.5 614.83,248.27 C616.1,245.51 612.91,245.4 611.21,246.27 C608.67888,247.684051 606.551471,249.721957 605.03,252.19 C605.47,250.04 605.89,247.9 606.35,245.75 C607.75,244.37 609.12,242.8 610.28,241.41 C611.64,239.77 612.92,237.73 612.43,235.48 C611.8,232.48 609.61,232.2 607.49,234.17 C606.569971,235.053457 605.90647,236.16966 605.57,237.4 C605.274008,236.327054 604.685404,235.357589 603.87,234.6 C603.338996,234.047928 602.545518,233.836077 601.81,234.05 C600.81,234.39 600.18,235.71 600.09,237.05 C599.93,239.48 601.09,241.82 601.88,244.05 C602.099711,244.759438 602.263544,245.484988 602.37,246.22 C602.53,247.22 602.64,248.22 602.86,249.22 L601.99,253.46 L601.99,253.46 C601.77,249.89 600.85,246.05 598.75,243.34 C597.59,241.84 594.67,240.56 594.63,243.6 C594.56,248.47 598.29,252.73 601.17,256.17 L601.4,256.17 C601.26,256.82 601.11,257.46 600.96,258.11 C600.961917,258.143306 600.961917,258.176694 600.96,258.21 C600.191288,261.535269 599.212661,264.808493 598.03,268.01 L598.03,268.01 C597.889193,266.805762 597.600345,265.623498 597.17,264.49 C596.38,262.49 593.61,260.14 592.58,263.44 C591.26,267.68 592.73,272.28 594.41,276.34 C592.52,280.43 590.49,284.48 588.34,288.45 C589.24,284.3 589.43,279.67 587.96,275.9 C587.12,273.74 584.14,271.23 583.04,274.77 C581.28,280.45 584.17,286.72 586.35,291.77 L586.49,291.82 L586.49,291.82 C585.49,293.67 584.39,295.5 583.31,297.31 C582.77,298.2 582.24,299.09 581.7,299.97 L581.7,299.97 C583.07,294.27 583.55,287.97 581.79,282.85 C580.79,279.95 577.01,276.67 575.42,281.54 C572.87,289.31 576.33,297.68 578.94,304.4 L578.94,304.4 C577.38,306.89 575.8,309.4 574.23,311.86 C573.74,306.44 573.39,295.16 572.98,291.53 C572.78,289.83 571.88,285.9 569.27,287.2 C567.82,287.92 566.93,291.2 566.76,292.67 C566.39,296.06 569.04,308.02 571.76,315.67 L571.76,315.67 C570.66,317.44 569.56,319.22 568.5,321.02 C568.1,321.69 567.7,322.34 567.28,323.02 C567.28,314.94 566.17,299.17 564.45,295.56 C563.58,293.72 561.68,290.94 559.3,291.72 C556.92,292.5 557.46,296.39 557.3,298.43 C556.93,303.13 561.22,317.32 562.39,319.82 C563.29,321.82 564.66,323.59 565.65,325.45 L565.59,325.53 C564.59,326.94 563.59,328.31 562.53,329.64 C562.53,329.52 562.44,329.4 562.4,329.27 C560.3,322.99 556.67,309.38 555.14,305.11 C554.43,303.11 552.25,298.69 549.48,300.97 C547.96,302.24 547.79,306.36 548.02,308.23 C548.49,312.12 554.21,324.23 559.43,332.63 C559.52,332.79 559.62,332.94 559.71,333.09 C556.14,337.31 552.36,341.35 548.71,345.74 C547.6,347.06 549.56,348.91 550.71,347.58 C555.99,341.24 561.78,335.67 566.58,329.05 C575.24,333.41 591.1,333.52 592.55,332 Z" id="Path" fill="#E8792E" fill-rule="nonzero"></path>
            <g id="Group" opacity="0.92" transform="translate(479.000000, 255.000000)" fill-rule="nonzero">
                <path d="M67.27,78 C68.13,68.92 67.69,59.61 64.95,50.91 C62.21,42.21 57.06,34.12 49.68,28.76 C46.8992698,26.835555 43.9852595,25.1112094 40.96,23.6 C33.25,19.51 25.54,15.42 17.68,11.6 C11.52,8.6 5.08,5.69 0.58,0.53 C2.06920209,8.59784918 4.3192509,16.5065029 7.3,24.15 C9.01311304,28.8736948 11.3685725,33.338973 14.3,37.42 C18.89,43.42 25.3,47.82 31.35,52.42 C38.3412102,57.7624709 44.9537222,63.5830852 51.14,69.84 C52.9648541,71.8406148 54.9736863,73.665304 57.14,75.29 C60.0987418,77.3126744 63.5601966,78.4757232 67.14,78.65" id="Path" fill="#E0DFDE"></path>
                <g opacity="0.14" transform="translate(11.000000, 33.000000)" fill="#0097CF" id="Path">
                    <path d="M18.45,3.41 C24.8553246,4.38655652 31.162774,5.92242881 37.3,8 C42.6936243,9.86375328 47.6826285,12.73837 52,16.47 C52.75,17.15 53.47,17.87 54.16,18.61 C56.5463063,27.1871081 57.2592772,36.1433799 56.26,44.99 L56.07,45.66 C52.4901966,45.4857232 49.0287418,44.3226744 46.07,42.3 C43.901359,40.6781232 41.892271,38.8532016 40.07,36.85 C33.8837222,30.5930852 27.2712102,24.7724709 20.28,19.43 C14.28,14.82 7.82,10.43 3.23,4.43 C2.24948288,3.11675049 1.35110225,1.74413175 0.54,0.32 C3.4,0.59 6.21,1.19 9.02,1.74 C12.17,2.32 15.31,2.85 18.45,3.41 Z"></path>
                </g>
                <g opacity="0.5" transform="translate(7.000000, 12.000000)" fill="#0097CF" id="Path">
                    <path d="M1,0.65 C7.35,10.22 17,16.92 26,23.71 C30.5487317,26.9958161 34.8903193,30.5592576 39,34.38 C43.2768792,38.5233597 47.126246,43.0863166 50.49,48 C54.4091526,53.6611576 57.6292018,59.7755576 60.08,66.21 C60.2,66.54 59.72,66.8 59.59,66.47 C55.1204885,55.0399686 48.362215,44.6439335 39.73,35.92 C31.68,27.87 21.95,21.85 13.29,14.52 C8.47339576,10.5793876 4.26472061,5.94950803 0.8,0.78 C0.73,0.67 0.91,0.58 0.98,0.69 L1,0.65 Z"></path>
                </g>
            </g>
            <g id="Group" opacity="0.92" transform="translate(451.000000, 276.000000)" fill-rule="nonzero">
                <path d="M96.68,72.74 C92.56,63.08 86.34,54.96 77.31,49.6 C71.68,46.25 65.41,44.03 59.95,40.4 C51.31,34.66 45.26,25.78 37.4,19 C26.8,9.85 13.33,4.85 0.17,5.68434189e-14 C15.35,14.76 21.34,37.22 37.05,51.41 C49.96,63.07 67.78,67.61 85.05,69.48 C89.05,69.92 93.37,70.32 96.66,72.71" id="Path" fill="#E0DFDE"></path>
                <g opacity="0.54" transform="translate(9.000000, 7.000000)" fill="#0097CF" id="Path">
                    <path d="M0.88,0.64 C13.57,6.01 22.48,16.99 31.52,26.93 C36.0998273,32.2025468 41.1802822,37.0184296 46.69,41.31 C49.4713614,43.394869 52.4685394,45.175072 55.63,46.62 C59.18,48.21 62.95,49.23 66.54,50.72 C74.3285729,53.8930713 81.3662966,58.6620999 87.2,64.72 C87.43,64.97 87.03,65.3 86.79,65.06 C81.2972436,59.6011499 74.8903385,55.1471154 67.86,51.9 C64.32,50.31 60.6,49.26 57.01,47.8 C53.9779746,46.557459 51.085334,44.998852 48.38,43.15 C37.08,35.48 29.09,24.06 19.57,14.47 C14.09,9 8,4 0.82,0.82 C0.71,0.77 0.77,0.6 0.88,0.64 Z"></path>
                </g>
                <path d="M23.31,24.92 C28.09,27.05 31.74,31.07 34.95,35.2 C38.16,39.33 41.15,43.72 45.19,47.04 C51.4036973,52.0837677 59.4929795,54.1981362 67.38,52.84 C71.04,52.18 74.58,50.78 78.24,50.24 C86.76,55.6 92.69,63.48 96.68,72.8 C93.39,70.41 89.11,70.02 85.07,69.58 C67.78,67.7 49.95,63.16 37.07,51.51 C28.52,43.78 22.85,33.61 17,23.56 C19.1745742,23.5737049 21.3228453,24.0367238 23.31,24.92 L23.31,24.92 Z" id="Path" fill="#0097CF" opacity="0.14"></path>
            </g>
            <path d="M523.24,340.47 C509.45,334.81 495.85,329.08 480.99,330.22 C478.08,330.44 475.09,330.97 472.71,332.65 C471.92,333.2 471.14,334.07 471.34,335.01 C471.449169,335.418942 471.675024,335.78726 471.99,336.07 C473.56,337.61 475.99,337.73 478.19,337.72 C493.3,337.63 508.88,335.59 523.19,340.53" id="Path" fill="#F47F31" fill-rule="nonzero"></path>
            <path d="M480.37,333.77 C483.026972,333.448419 485.713028,333.448419 488.37,333.77 C491.25,333.98 494.12,334.23 496.99,334.57 C502.8,335.25 508.52,336.45 514.26,337.57 C517.349246,338.19702 520.365311,339.142054 523.26,340.39 C523.41,340.46 523.34,340.71 523.18,340.64 C520.678995,339.529635 518.077023,338.662311 515.41,338.05 C512.52,337.44 509.63,336.89 506.74,336.32 C501.0873,335.210581 495.374025,334.4359 489.63,334 C486.568606,333.605234 483.472605,333.55492 480.4,333.85 C480.32,333.85 480.29,333.74 480.4,333.73 L480.37,333.77 Z" id="Path" fill="#EFB670" fill-rule="nonzero"></path>
            <path d="M541.74,335.78 C527.74843,321.334269 509.710091,311.464432 490,307.47 C485.83,306.61 481.44,306.02 477.36,307.24 C475.82,307.69 474.08,309.09 474.74,310.54 C474.993946,310.995792 475.371887,311.370266 475.83,311.62 C478.67,313.5 482.09,314.25 485.42,314.98 C495.42,317.16 505.54,319.33 515.23,322.73 C524.550864,325.989334 533.447611,330.353775 541.73,335.73" id="Path" fill="#F47F31" fill-rule="nonzero"></path>
            <path d="M481.44,309.38 C489.91127,311.059055 498.283889,313.202285 506.52,315.8 C510.573302,317.141987 514.537852,318.738495 518.39,320.58 C522.39,322.53 526.39,324.73 530.21,326.99 C532.158371,328.013642 534.018129,329.197732 535.77,330.53 C537.43,331.9 538.95,333.45 540.65,334.77 C540.78,334.87 540.65,335.1 540.51,335 C539.07,333.89 537.77,332.62 536.41,331.43 C535.704982,330.804657 534.967278,330.217164 534.2,329.67 C533.36,329.1 532.47,328.62 531.6,328.11 C527.75,325.86 523.89,323.64 519.91,321.64 C512.106129,317.844812 503.924364,314.881813 495.5,312.8 C490.83,311.58 486.12,310.52 481.42,309.44 C481.42,309.44 481.42,309.37 481.42,309.38 L481.44,309.38 Z" id="Path" fill="#EFB670" fill-rule="nonzero"></path>
            <path d="M542.49,331.37 C536.29,324.59 530.07,317.76 525.13,310.02 C521.29,304.02 518.13,297.28 512.55,292.78 C511.642374,291.886909 510.42329,291.381348 509.15,291.37 C507.87832,291.573196 506.825673,292.467753 506.42,293.69 C506.04536,294.898858 506.02454,296.189689 506.36,297.41 C507.21,301.18 509.74,304.31 512.29,307.2 C520.66,316.65 527.29,325.59 542.49,331.37" id="Path" fill="#F47F31" fill-rule="nonzero"></path>
            <path d="M512.26,299.2 C518.8,308.25 525.62,317.2 534.02,324.66 C535.23,325.72 536.46,326.75 537.73,327.73 C539,328.71 540.36,329.65 541.67,330.61 C541.79,330.7 541.67,330.89 541.55,330.81 C539.171147,329.292138 536.917316,327.586716 534.81,325.71 C532.680867,323.894059 530.644933,321.971604 528.71,319.95 C524.78508,315.817391 521.111805,311.452873 517.71,306.88 C515.816667,304.36 513.963333,301.816667 512.15,299.25 C512.15,299.25 512.15,299.16 512.21,299.2 L512.26,299.2 Z" id="Path" fill="#EFB670" fill-rule="nonzero"></path>
            <path d="M1131.8,299.75 C1138.8,284.29 1145.98,269.06 1145.07,252.2 C1144.89,248.91 1144.35,245.5 1142.44,242.76 C1141.81,241.85 1140.82,240.95 1139.7,241.15 C1139.21986,241.259021 1138.78197,241.505772 1138.44,241.86 C1136.58,243.59 1136.37,246.34 1136.32,248.86 C1135.99,265.96 1137.95,283.66 1131.73,299.68" id="Path" fill="#1BBFBF" fill-rule="nonzero"></path>
            <path d="M1141.16,245.88 C1141.57905,248.862638 1141.62607,251.885771 1141.3,254.88 C1141.1,258.15 1140.86,261.41 1140.52,264.66 C1139.17,277.42 1139.52,272.49 1137.28,284.26 C1136.59238,287.762697 1135.53305,291.182045 1134.12,294.46 C1134.04,294.63 1133.75,294.56 1133.82,294.38 C1135.0791,291.533039 1136.05384,288.56864 1136.73,285.53 C1137.39,282.25 1138,278.96 1138.62,275.68 C1139.81205,269.288682 1140.60691,262.829638 1141,256.34 C1141.22,252.88 1141.61,249.34 1141,245.88 C1141,245.8 1141.12,245.76 1141.14,245.88 L1141.16,245.88 Z" id="Path" fill="#EFB670" fill-rule="nonzero"></path>
            <path d="M1130.33,303 C1147.59042,287.775809 1159.73568,267.598888 1165.11,245.22 C1166.24,240.52 1167.05,235.57 1165.74,230.91 C1165.25,229.17 1163.66,227.15 1161.94,227.86 C1161.40358,228.135225 1160.9511,228.549714 1160.63,229.06 C1158.34,232.23 1157.35,236.06 1156.41,239.83 C1153.56,251.14 1150.71,262.48 1146.41,273.36 C1142.27323,283.860103 1136.86634,293.814171 1130.31,303" id="Path" fill="#F47F31" fill-rule="nonzero"></path>
            <path d="M1163.11,235.41 C1160.88407,244.964139 1158.12305,254.385655 1154.84,263.63 C1153.12861,268.187961 1151.12443,272.630552 1148.84,276.93 C1146.44,281.45 1143.73,285.82 1140.97,290.14 C1139.70207,292.320641 1138.25368,294.391216 1136.64,296.33 C1134.98,298.18 1133.12,299.85 1131.51,301.74 C1131.39,301.88 1131.13,301.74 1131.25,301.58 C1132.6,299.98 1134.12,298.58 1135.56,297.03 C1136.31847,296.253888 1137.03292,295.435943 1137.7,294.58 C1138.39,293.65 1138.98,292.65 1139.61,291.67 C1142.37,287.39 1145.09,283.08 1147.56,278.67 C1152.23298,269.962863 1155.95123,260.776188 1158.65,251.27 C1160.21,246.02 1161.65,240.72 1163,235.43 C1163,235.43 1163.09,235.43 1163.08,235.43 L1163.11,235.41 Z" id="Path" fill="#EFB670" fill-rule="nonzero"></path>
            <path d="M1135.49,303.91 C1143.65,297.09 1151.85,290.23 1161.1,284.86 C1168.3,280.67 1176.28,277.26 1181.73,271.09 C1182.80602,270.103813 1183.44328,268.728485 1183.5,267.27 C1183.276,265.805654 1182.2476,264.591682 1180.84,264.13 C1179.42749,263.66991 1177.91556,263.607634 1176.47,263.95 C1172.02,264.81 1168.26,267.59 1164.79,270.4 C1153.43,279.61 1142.73,286.83 1135.49,303.91" id="Path" fill="#1BBFBF" fill-rule="nonzero"></path>
            <path d="M1174.19,270.59 C1163.36,277.74 1152.6,285.21 1143.63,294.52 C1142.33667,295.853333 1141.09667,297.223333 1139.91,298.63 C1138.69,300.06 1137.58,301.56 1136.41,303.01 C1136.3,303.15 1136.08,303.01 1136.17,302.87 C1138.03861,300.212671 1140.11156,297.705073 1142.37,295.37 C1144.57,293.016667 1146.90333,290.77 1149.37,288.63 C1154.3569,284.321772 1159.59619,280.314664 1165.06,276.63 C1168.06,274.56 1171.12,272.54 1174.19,270.54 C1174.19,270.54 1174.29,270.59 1174.19,270.62 L1174.19,270.59 Z" id="Path" fill="#EFB670" fill-rule="nonzero"></path>
            <g id="Group" opacity="0.5" transform="translate(912.000000, 124.000000)" fill="#000000" fill-rule="nonzero">
                <path d="M22,18.49 C23.0168263,19.893866 23.5343329,21.5977654 23.47,23.33 C23.6177745,25.7310915 22.6200394,28.0603765 20.78,29.61 C18.9933333,31.0566667 16.4566667,31.7833333 13.17,31.79 L2,31.79 C1.50237562,31.8151281 1.01565323,31.6384659 0.65,31.3 C0.307847714,30.9686721 0.125558021,30.5056563 0.15,30.03 L0.15,2.5 C0.127845603,2.02177297 0.309558481,1.556588 0.65,1.22 C1.01956136,0.889019536 1.50444283,0.716617235 2,0.74 L12.61,0.74 C15.81,0.74 18.29,1.44333333 20.05,2.85 C22.9765507,5.48580532 23.5492544,9.85956453 21.4,13.16 C20.4817975,14.3993217 19.2142581,15.3360472 17.76,15.85 C19.4350066,16.2158977 20.9325496,17.1483302 22,18.49 L22,18.49 Z M3.78,14.49 L12.15,14.49 C14.0147626,14.6209542 15.8697709,14.1246427 17.42,13.08 C18.6327605,12.0793941 19.2942602,10.5594315 19.2,8.99 C19.2,5.47 16.8666667,3.70666667 12.2,3.7 L3.83,3.7 L3.78,14.49 Z M18.21,27.42 C19.4327177,26.3777322 20.0800912,24.8113859 19.95,23.21 C19.95,19.3966667 17.57,17.49 12.81,17.49 L3.81,17.49 L3.81,28.76 L12.81,28.76 C15.22,28.79 17,28.35 18.18,27.45 L18.21,27.42 Z" id="Shape"></path>
                <path d="M30.38,31.33 C30.0402648,31.0213393 29.8537071,30.5787221 29.87,30.12 L29.87,2.37 C29.8448719,1.87237562 30.0215341,1.38565323 30.36,1.02 C30.7109676,0.676464748 31.1895108,0.495198387 31.68,0.52 C32.169913,0.498823895 32.647062,0.67956217 33,1.02 C33.3309805,1.38956136 33.5033828,1.87444283 33.48,2.37 L33.48,28.71 L47.71,28.71 C48.1543473,28.6815864 48.5932085,28.8207375 48.94,29.1 C49.2490424,29.3997145 49.4100553,29.8205437 49.38,30.25 C49.4126971,30.676901 49.2510301,31.0957656 48.94,31.39 C48.5966273,31.6764251 48.1561661,31.8196645 47.71,31.79 L31.63,31.79 C31.1698429,31.8021397 30.7225205,31.6375251 30.38,31.33 L30.38,31.33 Z" id="Path"></path>
                <path d="M57.55,30.2 C55.4058643,28.8920592 53.6972999,26.9781887 52.64,24.7 C51.4416257,22.0616486 50.8537069,19.1869992 50.92,16.29 C50.8508581,13.3722465 51.4315455,10.475641 52.62,7.81 C53.6547067,5.52070978 55.3598564,3.59936529 57.51,2.3 C62.2248949,-0.246100795 67.9051051,-0.246100795 72.62,2.3 C74.7648092,3.60286663 76.4658278,5.52348392 77.5,7.81 C78.6856592,10.4588885 79.2663885,13.3386226 79.2,16.24 C79.2687549,19.1468903 78.6808269,22.0318396 77.48,24.68 C76.4295666,26.9679079 74.719859,28.8900232 72.57,30.2 C67.9024467,32.7785525 62.2375533,32.7785525 57.57,30.2 L57.55,30.2 Z M72.75,25.73 C74.5833333,23.5233333 75.5,20.36 75.5,16.24 C75.5,12.12 74.59,8.96333333 72.77,6.77 C70.7682014,4.6570475 67.9856298,3.46019719 65.075,3.46019719 C62.1643702,3.46019719 59.3817986,4.6570475 57.38,6.77 C55.54,8.99 54.62,12.14 54.62,16.22 C54.62,20.3 55.54,23.4566667 57.38,25.69 C59.3677964,27.8207403 62.1510012,29.0305596 65.065,29.0305596 C67.9789988,29.0305596 70.7622036,27.8207403 72.75,25.69 L72.75,25.73 Z" id="Shape"></path>
                <path d="M109.88,16 C110.166705,16.2917865 110.31578,16.6917418 110.29,17.1 L110.29,28.1 C110.326408,28.6469242 110.212277,29.1933706 109.96,29.68 C109.668156,30.0937396 109.239659,30.3912088 108.75,30.52 C107.376723,31.0782576 105.944068,31.4775219 104.48,31.71 C102.828955,31.9991725 101.156173,32.1463773 99.48,32.15 C96.6942425,32.2274595 93.9365628,31.5759576 91.48,30.26 C89.2563504,29.0017332 87.4673755,27.0976781 86.35,24.8 C83.9833804,19.3804313 83.9833804,13.2195687 86.35,7.8 C87.4527103,5.50399515 89.2188247,3.59157537 91.42,2.31 C93.7861584,0.992020511 96.4623785,0.332461756 99.17,0.4 C101.119958,0.380002206 103.058635,0.698040007 104.9,1.34 C106.560634,1.91349842 108.078347,2.83776896 109.35,4.05 C109.793147,4.4433694 110.059763,4.9982193 110.09,5.59 C110.09973,5.97935366 109.976254,6.36036349 109.74,6.67 C109.54212,6.96219716 109.212891,7.13803531 108.86,7.14 C108.404713,7.09611533 107.974593,6.91077893 107.63,6.61 C106.377431,5.5949917 104.982537,4.76951104 103.49,4.16 C102.117172,3.6862193 100.672086,3.45608841 99.22,3.48 C95.72,3.48 93.0533333,4.58 91.22,6.78 C89.3866667,8.98 88.4533333,12.1366667 88.42,16.25 C88.42,20.45 89.3666667,23.6433333 91.26,25.83 C93.1533333,28.0166667 95.9366667,29.11 99.61,29.11 C102.143224,29.1432077 104.662253,28.7267553 107.05,27.88 L107.05,18.45 L100.62,18.45 C100.18842,18.4741486 99.763569,18.3349118 99.43,18.06 C99.1457982,17.8058529 98.9853662,17.4412348 98.99,17.06 C98.9813063,16.6779484 99.1424531,16.3117057 99.43,16.06 C99.7686983,15.7964881 100.191596,15.6649989 100.62,15.69 L108.86,15.69 C109.226275,15.6668034 109.588575,15.7769141 109.88,16 L109.88,16 Z" id="Path"></path>
            </g>
        </g>
    </g>
</svg>
