<?xml version="1.0" encoding="UTF-8"?>
<svg width="1920px" height="443px" viewBox="0 0 1920 443" version="1.1" xmlns="http://www.w3.org/2000/svg" xmlns:xlink="http://www.w3.org/1999/xlink">
    <!-- Generator: Sketch 59 (86127) - https://sketch.com -->
    <title>blog</title>
    <desc>Created with Sketch.</desc>
    <g id="Page-1" stroke="none" stroke-width="1" fill="none" fill-rule="evenodd">
        <g id="blog">
            <path d="M0.28,288.57 C0.28,288.57 353.07,316.44 430.21,288.57 C548.21,245.93 722.65,260.69 860.55,314.81 C991.64,366.26 1114.78,318.09 1171.27,296.81 C1227.76,275.53 1430.48,260.73 1628.2,326.33 C1825.92,391.93 1919.58,323.25 1919.58,323.25 L1920,442.7 L0.32,442.7 L0.28,288.57 Z" id="Path" fill="#D9D9E2" fill-rule="nonzero"></path>
            <path d="M0,279.33 C0,279.33 226.84,233.49 391.56,303.61 C522.1,359.17 760.93,335.68 884.05,296.54 C1007.17,257.4 1281.3,269.77 1374.89,324.8 C1449.76,368.8 1570.63,373.29 1644.42,336.22 C1762.02,277.14 1919.25,322.94 1919.25,322.94 L1919.66,442.38 L0,442.71 L0,279.33 Z" id="Path" fill="#E5E5EA" fill-rule="nonzero"></path>
            <path d="M771.62,0.76 L1169.62,0.76 C1179.10044,0.771036609 1186.78,8.459553 1186.78,17.94 L1186.78,268.33 C1186.78,281.220326 1176.33033,291.67 1163.44,291.67 L777.78,291.67 C764.889674,291.67 754.44,281.220326 754.44,268.33 L754.44,268.33 L754.44,17.94 C754.44,13.3835807 756.250031,9.01378048 759.471905,5.7919055 C762.69378,2.57003052 767.063581,0.76 771.62,0.76 Z" id="Path" fill="#EEEDEF" fill-rule="nonzero"></path>
            <rect id="Rectangle" fill="#FFFFFF" fill-rule="nonzero" x="776.61" y="25.56" width="388.04" height="244.54"></rect>
            <path d="M772.7,-2.71100942e-06 L1168.52,-2.71100942e-06 C1173.42028,-0.00265310323 1178.12077,1.94211643 1181.58673,5.40620095 C1185.05269,8.87028546 1187,13.5697183 1187,18.47 L1187,31.47 L754.22,31.47 L754.22,18.47 C754.22,8.26930067 762.489301,-2.71100942e-06 772.69,-2.71100942e-06 L772.7,-2.71100942e-06 Z" id="Path" fill="#F7B634" fill-rule="nonzero"></path>
            <circle id="Oval" fill="#EEEDEF" fill-rule="nonzero" cx="1136.89" cy="17.31" r="2.9"></circle>
            <circle id="Oval" fill="#EEEDEF" fill-rule="nonzero" cx="1147.02" cy="17.31" r="2.9"></circle>
            <circle id="Oval" fill="#EEEDEF" fill-rule="nonzero" cx="1156.74" cy="17.31" r="2.9"></circle>
            <path d="M800.86,287.23 C803.084781,287.344931 805.289112,287.713997 807.43,288.33 C809.77,288.9 812.1,289.49 814.43,290.15 C819.11,291.49 823.65,293.23 828.22,294.91 C830.666593,295.826663 833.012296,296.992813 835.22,298.39 C835.34,298.46 835.22,298.65 835.13,298.58 C833.232718,297.350582 831.223845,296.30262 829.13,295.45 C826.84,294.57 824.53,293.73 822.24,292.88 C817.754499,291.231509 813.176738,289.845826 808.53,288.73 C806.05838,287.988957 803.513351,287.519518 800.94,287.33 C800.88,287.33 800.87,287.23 800.94,287.23 L800.86,287.23 Z" id="Path" fill="#EFB670" fill-rule="nonzero"></path>
            <g id="Group" opacity="0.92" transform="translate(811.000000, 225.000000)" fill-rule="nonzero">
                <path d="M44.29,70.67 C46.4492386,63.6114258 47.1300762,56.1834885 46.29,48.85 C45.4009505,41.4423902 42.1098098,34.5299409 36.92,29.17 C34.9012635,27.2604496 32.7527977,25.4928938 30.49,23.88 C24.74,19.57 18.97,15.26 13.05,11.17 C8.41,7.96 3.54,4.74 0.58,0.03 C0.633190985,6.63967182 1.33657924,13.2280751 2.68,19.7 C3.39958398,23.6865594 4.67889797,27.5514343 6.48,31.18 C9.38,36.62 14.03,40.95 18.34,45.44 C23.3246019,50.6305503 27.939244,56.1641109 32.15,62 C33.367843,63.8522799 34.7645375,65.5805638 36.32,67.16 C38.4811968,69.1657266 41.1456861,70.5480816 44.03,71.16" id="Path" fill="#E0DFDE"></path>
                <g opacity="0.14" transform="translate(4.000000, 27.000000)" fill="#0097CF" id="Path">
                    <path d="M15.18,5.48 C20.286449,7.13201205 25.2441012,9.21275408 30,11.7 C34.1482351,13.89681 37.8405687,16.8628942 40.88,20.44 C41.41,21.09 41.88,21.75 42.35,22.44 C43.064176,29.5832684 42.3468584,36.7972397 40.24,43.66 L39.98,44.17 C37.1010986,43.5512194 34.4415689,42.1696456 32.28,40.17 C30.7214796,38.5942699 29.3214307,36.8693292 28.1,35.02 C23.9004225,29.18985 19.2992542,23.6597603 14.33,18.47 C10.02,13.98 5.33,9.65 2.47,4.21 C1.85911086,3.03632356 1.31816655,1.82754677 0.85,0.59 C3.15077023,1.2374761 5.41704354,2.00180097 7.64,2.88 C10.16,3.75 12.67,4.61 15.18,5.48 Z"></path>
                </g>
                <g opacity="0.5" transform="translate(4.000000, 10.000000)" fill="#0097CF" id="Path">
                    <path d="M1,0.67 C4.84,9.14 11.8,15.78 18.27,22.41 C21.5187675,25.6385655 24.5645905,29.0651163 27.39,32.67 C30.2944333,36.5141843 32.7974942,40.6457428 34.86,45 C37.2587298,50.0179955 39.0223373,55.3155364 40.11,60.77 C40.17,61.05 39.73,61.19 39.67,60.91 C37.6405341,51.1733532 33.5823957,41.9735433 27.76,33.91 C22.3,26.41 15.16,20.3 9.09,13.29 C5.71164078,9.52116455 2.91726453,5.26724076 0.8,0.67 C0.8,0.57 0.92,0.53 0.96,0.67 L1,0.67 Z"></path>
                </g>
            </g>
            <g id="Group" opacity="0.92" transform="translate(785.000000, 237.000000)" fill-rule="nonzero">
                <path d="M69.15,71.37 C67.15,63.14 63.23,55.84 56.57,50.37 C52.41,46.94 47.57,44.31 43.57,40.69 C37.28,34.94 33.57,27.07 28.11,20.6 C20.7,11.88 10.34,6.06 0.21,0.43 C10.56,14.23 12.21,32.87 23.1,46.3 C32.03,57.3 46.1,63.38 60.03,67.24 C63.3,68.14 66.76,69.05 69.12,71.4" id="Path" fill="#E0DFDE"></path>
                <g opacity="0.54" transform="translate(7.000000, 7.000000)" fill="#0097CF" id="Path">
                    <path d="M0.13,0.78 C9.79,6.78 15.53,16.72 21.54,25.85 C24.552201,30.6794056 28.035915,35.1981847 31.94,39.34 C33.9379232,41.3844172 36.1469315,43.2112906 38.53,44.79 C41.22,46.54 44.18,47.87 46.92,49.54 C52.845085,53.1049383 57.9553883,57.8745546 61.92,63.54 C62.08,63.78 61.7,63.98 61.53,63.76 C57.7689016,58.6603548 53.1420648,54.2602906 47.86,50.76 C45.17,49.01 42.26,47.66 39.51,46.01 C37.2020861,44.6124079 35.0469839,42.9768093 33.08,41.13 C24.89,33.49 19.96,23.33 13.52,14.41 C9.8,9.27 5.52,4.41 0.07,0.98 C0.0484168636,0.975315979 0.0297303132,0.961917776 0.0183673878,0.942979567 C0.00696657644,0.924041358 0.00397619,0.901248189 0.01,0.88 C0.0146840214,0.858416864 0.0280822237,0.839730313 0.0470204327,0.828367388 C0.0659586416,0.817004462 0.0887518108,0.81397619 0.11,0.82 L0.11,0.82 L0.13,0.78 Z"></path>
                </g>
                <path d="M15.67,23.33 C19.29,25.68 21.67,29.33 23.76,33.09 C25.85,36.85 27.63,40.7 30.47,43.89 C34.9430347,48.7884291 41.2765818,51.5702508 47.91,51.55 C51.02,51.55 54.14,50.91 57.23,50.98 C63.48,56.4 67.23,63.47 69.14,71.42 C66.78,69.07 63.31,68.17 60.05,67.26 C46.05,63.4 32.05,57.34 23.11,46.32 C17.19,39.01 14.01,30.16 10.66,21.38 C12.4435524,21.688593 14.1471272,22.351661 15.67,23.33 Z" id="Path" fill="#0097CF" opacity="0.14"></path>
            </g>
            <path d="M835.22,298.44 C824.68,292.06 814.31,285.64 801.9,284.5 C799.481809,284.143599 797.012587,284.415661 794.73,285.29 C794,285.62 793.24,286.2 793.27,286.98 C793.293533,287.322758 793.42677,287.648838 793.65,287.91 C794.71,289.34 796.7,289.78 798.51,290.07 C810.96,292.07 824.1,292.6 835.15,298.48" id="Path" fill="#F7B634" fill-rule="nonzero"></path>
            <path d="M851.15,297.27 C841.575056,283.770641 828.160415,273.464016 812.65,267.69 C809.34,266.43 805.8,265.36 802.26,265.77 C800.93,265.92 799.26,266.77 799.64,268.02 C799.779343,268.415374 800.029236,268.762448 800.36,269.02 C802.565794,270.799056 805.081367,272.155161 807.78,273.02 C815.795022,275.955528 823.622974,279.378587 831.22,283.27 C838.393298,287.132586 845.083327,291.832055 851.15,297.27" id="Path" fill="#F7B634" fill-rule="nonzero"></path>
            <path d="M805.31,268 C812.020609,270.498072 818.593269,273.352122 825,276.55 C828.137654,278.167594 831.170323,279.981184 834.08,281.98 C837.08,284.08 840.08,286.36 842.89,288.68 C844.337273,289.762372 845.694998,290.959577 846.95,292.26 C848.12,293.58 849.14,295.01 850.35,296.26 C850.45,296.36 850.35,296.52 850.21,296.42 C849.21,295.34 848.3,294.16 847.34,293.02 C846.851547,292.425173 846.330761,291.85765 845.78,291.32 C845.18,290.76 844.51,290.25 843.87,289.73 C841.03,287.41 838.17,285.12 835.18,282.98 C829.27837,278.884977 822.967946,275.413071 816.35,272.62 C812.68,271.01 808.96,269.52 805.24,268.01 L805.24,268 L805.31,268 Z" id="Path" fill="#EFB670" fill-rule="nonzero"></path>
            <path d="M852.4,293.87 C848.29,287.64 844.16,281.36 841.21,274.54 C838.92,269.23 837.28,263.47 833.36,259.13 C832.727727,258.287919 831.797676,257.719157 830.76,257.539732 C829.697003,257.525664 828.709636,258.088234 828.18,259.01 C827.689709,259.907661 827.480659,260.932006 827.58,261.95 C827.73,265.06 829.36,267.89 831.05,270.54 C836.56,279.19 840.7,287.19 852.4,293.87" id="Path" fill="#F7B634" fill-rule="nonzero"></path>
            <path d="M832.19,264.19 C836.26,272.27 840.56,280.34 846.41,287.38 C847.25,288.38 848.11,289.38 849.01,290.33 C849.91,291.28 850.9,292.21 851.84,293.16 C851.93,293.24 851.84,293.38 851.72,293.3 C849.983436,291.76363 848.371697,290.091701 846.9,288.3 C845.41425,286.570001 844.01905,284.764251 842.72,282.89 C840.102502,279.078084 837.72458,275.107087 835.6,271 C834.41,268.74 833.26,266.46 832.12,264.17 C832.12,264.17 832.12,264.11 832.19,264.17 L832.19,264.19 Z" id="Path" fill="#EFB670" fill-rule="nonzero"></path>
            <path d="M1380.27,322.9 C1375.38,305.73 1358.09,268.15 1338.44,270.32 C1315.8,272.82 1360.65,313.84 1360.65,313.84 C1360.65,313.84 1329.27,289.65 1317.94,303.7 C1306.61,317.75 1356.44,326.7 1356.44,326.7 C1356.44,326.7 1330.22,321.25 1332.82,331.7 C1335.42,342.15 1379.15,339.15 1382.2,349.19 C1385.25,359.23 1383.62,334.68 1380.27,322.9 Z" id="Path" fill="#1BBFBF" fill-rule="nonzero"></path>
            <path d="M1382.12,345 C1377.83,326.78 1370.02,309.11 1358.62,294.22 C1354.45773,288.73843 1349.76869,283.677615 1344.62,279.11" id="Path" stroke="#4CA5A2" stroke-width="1.94" stroke-linecap="round"></path>
            <path d="M1381.83,345.33 C1369.96,325.66 1349.76,311.33 1327.45,307.64" id="Path" stroke="#4CA5A2" stroke-width="1.94" stroke-linecap="round"></path>
            <path d="M1381.58,345.48 C1370.84,336.75 1357.2,332.25 1343.51,331.28" id="Path" stroke="#4CA5A2" stroke-width="1.94" stroke-linecap="round"></path>
            <path d="M1387.25,322.08 C1392.14,304.9 1409.43,267.33 1429.07,269.49 C1451.73,271.99 1406.87,313.02 1406.87,313.02 C1406.87,313.02 1438.25,288.82 1449.58,302.87 C1460.91,316.92 1411.07,325.87 1411.07,325.87 C1411.07,325.87 1437.3,320.42 1434.7,330.87 C1432.1,341.32 1388.38,338.31 1385.32,348.36 C1382.26,358.41 1383.91,333.85 1387.25,322.08 Z" id="Path" fill="#1BBFBF" fill-rule="nonzero"></path>
            <path d="M1385.41,344.18 C1389.7,325.96 1397.49,308.3 1408.89,293.4 C1413.05791,287.923164 1417.74646,282.862874 1422.89,278.29" id="Path" stroke="#4CA5A2" stroke-width="1.94" stroke-linecap="round"></path>
            <path d="M1385.69,344.5 C1397.55,324.83 1417.76,310.5 1440.08,306.81" id="Path" stroke="#4CA5A2" stroke-width="1.94" stroke-linecap="round"></path>
            <path d="M1386,344.65 C1396.73,335.92 1410.36,331.42 1424.06,330.45" id="Path" stroke="#4CA5A2" stroke-width="1.94" stroke-linecap="round"></path>
            <path d="M1371.62,305.5 C1367.17,278.88 1365.42,217.5 1390.4,211.27 C1419.18,204.08 1389.81,283.38 1389.81,283.38 C1389.81,283.38 1413.07,234.28 1435.16,248.78 C1457.25,263.28 1402.62,299.63 1402.62,299.63 C1402.62,299.63 1430.94,279.49 1434.08,295.49 C1437.22,311.49 1382.74,327.98 1385.08,343.64 C1387.42,359.3 1374.66,323.75 1371.62,305.5 Z" id="Path" fill="#1BBFBF" fill-rule="nonzero"></path>
            <path d="M1382.68,337.65 C1376.89,309.84 1375.68,281.14 1380.46,254.65 C1382.14898,245.083276 1384.77152,235.705116 1388.29,226.65" id="Path" stroke="#4CA5A2" stroke-width="1.94" stroke-linecap="round"></path>
            <path d="M1383.21,338 C1385.69,304.54 1401.39,274.64 1426.08,258.89" id="Path" stroke="#4CA5A2" stroke-width="1.94" stroke-linecap="round"></path>
            <path d="M1383.61,338.06 C1391.3,320.62 1405.01,307.79 1420.93,299.92" id="Path" stroke="#4CA5A2" stroke-width="1.94" stroke-linecap="round"></path>
            <path d="M581.1,294.85 C581.65,288.61 572.79,290.52 569.51,292.45 C563.12,296.22 553.17,308.24 551.16,312.11 C551.07,310.59 550.94,309.11 550.76,307.55 C550.42,304.72 550.09,301.9 549.76,299.07 C554,297.71 563,295.28 570.29,284 C571.51,282.11 572.97,279.48 571.88,277.23 C570.37,274.1 567.65,276.55 565.96,278.15 C563.09,280.88 553.88,290.92 549.33,295.35 C548.68,289.69 548.04,284.03 547.33,278.35 C554.8,274.26 563.85,269.24 567.03,260.76 C569.11,255.21 562.9,255.46 559.72,257.36 C554.02,260.76 549.65,267.02 546.72,273.3 C546.39,270.64 546.05,267.99 545.72,265.3 C545.65,264.82 545.59,264.3 545.53,263.87 C549.38,262.18 553.26,260.95 556.41,257.95 C559.361441,254.929109 561.058696,250.902147 561.16,246.68 C561.26,244.83 561.66,242.6 560.37,241 C558.56,238.77 557.28,241.79 556.37,243.5 C554.40301,247.14567 552.243286,250.684013 549.9,254.1 C548.62,255.96 547.47,257.75 546.4,259.66 C546.028747,260.263258 545.617843,260.841196 545.17,261.39 C544.63,257.62 544.01,253.84 543.32,250.09 C548.49,245.09 554.7,238.96 555.39,231.35 C555.84,226.35 550.83,227.95 548.66,230.22 C545.3,233.74 543.23,238.77 542.09,243.82 C541.76,242.19 541.41,240.56 541.09,238.94 C545.09,231.49 550.09,222.32 548.09,213.58 C546.81,208.03 541.87,211.58 540.28,214.86 C538.754022,218.194239 537.897815,221.795745 537.76,225.46 L537.16,223.29 C536.67,221.56 536.16,219.87 535.51,218.2 C539.74,212.34 544.85,205.2 544.19,197.55 C543.76,192.55 539.1,195.01 537.36,197.62 C534.6,201.76 533.46,207.25 533.26,212.52 C532.2,210.04 531.05,207.6 529.86,205.18 C532.54,199.92 535.73,193.54 534.24,187.47 C533.24,183.47 529.81,186.05 528.73,188.38 C527.240653,192.007815 526.703646,195.956196 527.17,199.85 C525.82,197.22 524.47,194.59 523.17,191.93 C523.5,189.29 523.62,186.48 523.68,184.04 C523.74,181.15 523.37,177.93 520.97,175.95 C517.81,173.35 515.22,174.85 514.64,178.73 C514.420388,180.428375 514.658605,182.154584 515.33,183.73 C514.115115,182.838367 512.673093,182.308009 511.17,182.2 C510.146861,182.062304 509.131313,182.500836 508.53,183.34 C507.78,184.54 508.2,186.48 509.26,188.01 C511.14,190.72 514.39,192.18 517.07,193.94 C517.898595,194.507895 518.68407,195.136274 519.42,195.82 C520.42,196.76 521.42,197.75 522.48,198.61 C523.38,200.34 524.26,202.07 525.13,203.82 L525.13,203.82 C521.88,200.23 517.69,196.94 513.19,195.82 C510.69,195.22 506.53,196.32 509.04,199.57 C513.04,204.78 520.6,206.14 526.54,207.36 L526.8,207.17 C527.19,207.98 527.58,208.78 527.96,209.6 L528.03,209.72 C530.012215,213.880557 531.728983,218.162458 533.17,222.54 L533.17,222.54 C532.012028,221.380399 530.711651,220.372354 529.3,219.54 C526.77,218.07 521.87,217.93 523.56,222.28 C525.74,227.88 531.16,231.5 536.36,234.39 C537.79,240.31 539.05,246.3 540.12,252.3 C537.57,247.15 533.89,242.1 529.12,239.3 C526.41,237.73 521.12,237.58 522.97,242.25 C525.88,249.74 534.22,253.93 540.74,257.41 L540.94,257.35 L540.94,257.35 C541.4,260.17 541.81,263.01 542.19,265.83 C542.37,267.22 542.55,268.61 542.72,270 L542.72,270 C539.38,263 534.55,255.9 528.41,252 C524.91,249.78 518.16,249.48 520.57,256 C524.42,266.37 535.12,272.3 543.57,277.22 L543.57,277.22 C544.02,281.17 544.43,285.13 544.86,289.08 C539.78,283.76 529.93,272.08 526.43,268.63 C524.8,266.99 520.54,263.63 518.87,267.17 C517.95,269.17 519.71,273.32 520.87,275.07 C523.33,278.97 536.19,289.39 545.6,295.18 L545.6,295.18 C545.93,297.99 546.27,300.79 546.66,303.59 C546.8,304.59 546.92,305.66 547.03,306.69 C540.2,298.16 525.77,282.41 520.92,280.03 C518.45,278.82 514.11,277.47 512.24,280.3 C510.37,283.13 514.24,286.78 515.78,289.07 C519.35,294.35 535.78,305.75 539.17,307.42 C541.76,308.71 544.74,309.49 547.35,310.62 L547.35,310.75 C547.5,313.08 547.57,315.38 547.57,317.68 L547.13,317.4 C539.63,312.52 524.33,301.18 519.13,297.96 C516.71,296.47 510.67,293.6 509.66,298.34 C509.12,300.96 512.41,305.47 514.23,307.25 C517.99,310.96 534.23,318.92 546.82,323.46 L547.51,323.69 C547.28,331.17 546.69,338.62 546.51,346.34 C546.45,348.67 550.08,348.97 550.13,346.63 C550.39,335.48 551.82,324.72 551.33,313.68 C564,310.91 580.9,297.68 581.1,294.85 Z" id="Path" fill="#ECBC4F" fill-rule="nonzero"></path>
            <path d="M592,332 C595.19,328.64 589.18,325.66 586.39,325.27 C580.95,324.51 569.65,326.88 566.7,328.2 C567.35,327.28 567.97,326.34 568.58,325.37 C569.69,323.58 570.8,321.79 571.92,320.02 C577.872942,322.67266 584.617335,322.937567 590.76,320.76 C592.34,320.22 594.39,319.37 594.76,317.57 C595.33,315.06 592.62,315.22 590.91,315.37 C587.98,315.63 578.02,317.19 573.35,317.67 C575.58,314.09 577.82,310.52 580.03,306.93 C586.25,308.01 593.8,309.27 599.55,305.82 C603.31,303.57 599.55,300.82 596.88,300.49 C592.01,299.83 586.6,301.44 582,303.73 C583,302.03 584.07,300.34 585.09,298.64 C585.27,298.34 585.45,298.03 585.64,297.73 C588.64,298.52 591.46,299.6 594.64,299.31 C597.741984,298.924787 600.580945,297.373012 602.58,294.97 C603.5,293.97 604.76,292.84 604.74,291.32 C604.74,289.2 602.59,290.32 601.28,290.92 C598.461952,292.127003 595.58114,293.181854 592.65,294.08 C591.05,294.57 589.56,295.08 588.06,295.69 C587.567245,295.868169 587.062694,296.011849 586.55,296.12 C587.98,293.69 589.36,291.23 590.69,288.72 C595.99,288.2 602.41,287.53 606.31,283.44 C608.87,280.75 605.23,279.37 602.93,279.69 C599.205238,280.377917 595.732045,282.048916 592.87,284.53 C593.42,283.44 593.97,282.33 594.51,281.23 C600.24,278.74 607.38,275.75 610.23,269.76 C612.04,265.95 607.53,265.76 605.12,266.9 C602.693654,268.130566 600.535374,269.829999 598.77,271.9 C598.99,271.39 599.21,270.9 599.42,270.36 C599.94,269.13 600.42,267.9 600.82,266.66 C605.96,265.21 612.21,263.43 615.35,258.66 C617.4,255.57 613.58,254.84 611.35,255.55 C607.85,256.68 604.66,259.33 602.12,262.29 C602.653333,260.356667 603.123333,258.416667 603.53,256.47 C607.53,254.66 612.29,252.47 614.23,248.24 C615.49,245.48 612.31,245.37 610.61,246.24 C608.07888,247.654051 605.951471,249.691957 604.43,252.16 C604.86,250.01 605.28,247.87 605.74,245.72 C607.15,244.34 608.51,242.77 609.67,241.38 C611.04,239.74 612.31,237.7 611.83,235.45 C611.2,232.45 609.01,232.17 606.83,234.14 C605.911238,235.022774 605.250841,236.13957 604.92,237.37 C604.619216,236.299129 604.031353,235.330883 603.22,234.57 C602.686659,234.021903 601.895562,233.810687 601.16,234.02 C600.16,234.36 599.52,235.68 599.43,237.02 C599.27,239.45 600.43,241.79 601.22,244.02 C601.443377,244.728453 601.607278,245.454302 601.71,246.19 C601.87,247.19 601.99,248.19 602.2,249.19 C601.92,250.61 601.63,252.02 601.34,253.43 L601.34,253.43 C601.11,249.86 600.2,246.02 598.1,243.31 C596.93,241.81 594.01,240.53 593.97,243.57 C593.9,248.44 597.64,252.7 600.51,256.14 L600.81,256.14 C600.67,256.79 600.52,257.43 600.37,258.08 L600.37,258.18 C599.600334,261.505017 598.621724,264.77818 597.44,267.98 L597.44,267.98 C597.300511,266.775526 597.011623,265.5931 596.58,264.46 C595.8,262.46 593.02,260.11 592,263.46 C590.68,267.7 592.15,272.3 593.83,276.36 C591.93,280.45 589.9,284.5 587.76,288.47 C588.65,284.32 588.85,279.69 587.38,275.92 C586.53,273.76 583.56,271.25 582.46,274.79 C580.69,280.47 583.59,286.74 585.76,291.79 L585.91,291.84 L585.91,291.84 C584.87,293.686667 583.81,295.516667 582.73,297.33 L581.18,300 L581.18,300 C582.55,294.3 583.02,288 581.26,282.88 C580.26,279.98 576.49,276.7 574.89,281.57 C572.34,289.34 575.81,297.71 578.42,304.43 L578.42,304.43 L573.7,311.89 C573.21,306.47 572.87,295.19 572.45,291.56 C572.26,289.86 571.36,285.93 568.75,287.23 C567.3,287.95 566.4,291.23 566.24,292.7 C565.87,296.09 568.51,308.05 571.24,315.7 L571.24,315.7 C570.133333,317.473333 569.043333,319.256667 567.97,321.05 C567.58,321.72 567.17,322.37 566.76,323.05 C566.76,314.97 565.64,299.2 563.93,295.59 C563.06,293.75 561.17,290.97 558.78,291.75 C556.39,292.53 556.95,296.42 556.78,298.46 C556.42,303.16 560.71,317.35 561.87,319.85 C562.78,321.85 564.13,323.62 565.13,325.48 L565.07,325.56 C564.076667,326.973333 563.06,328.343333 562.02,329.67 C561.993158,329.541478 561.949446,329.417067 561.89,329.3 C559.79,323.02 556.16,309.41 554.63,305.14 C553.91,303.14 551.73,298.72 548.97,301 C547.44,302.27 547.27,306.39 547.51,308.26 C547.98,312.15 553.69,324.26 558.91,332.66 L559.2,333.12 C555.63,337.34 551.85,341.38 548.2,345.77 C547.09,347.09 549.06,348.94 550.2,347.61 C555.48,341.27 561.26,335.7 566.06,329.08 C574.72,333.41 590.59,333.52 592,332 Z" id="Path" fill="#E8792E" fill-rule="nonzero"></path>
            <g id="Group" opacity="0.92" transform="translate(479.000000, 255.000000)" fill-rule="nonzero">
                <path d="M66.77,78 C67.63,68.92 67.19,59.61 64.45,50.91 C61.71,42.21 56.56,34.12 49.18,28.76 C46.3992698,26.835555 43.4852595,25.1112094 40.46,23.6 C32.75,19.51 25.03,15.42 17.18,11.6 C11.03,8.6 4.59,5.69 0.09,0.53 C1.57920209,8.59784918 3.8292509,16.5065029 6.81,24.15 C8.52299658,28.8737463 10.8784642,33.33904 13.81,37.42 C18.4,43.42 24.81,47.82 30.81,52.42 C37.8044261,57.7623782 44.4202701,63.5829844 50.61,69.84 C52.4317538,71.843719 54.4408935,73.6686876 56.61,75.29 C59.5523268,77.3081906 62.9965143,78.4712529 66.56,78.65" id="Path" fill="#E0DFDE"></path>
                <g opacity="0.14" transform="translate(11.000000, 33.000000)" fill="#0097CF" id="Path">
                    <path d="M17.91,3.41 C24.3262526,4.38087224 30.644159,5.91684629 36.79,8 C42.183319,9.864423 47.1722022,12.73897 51.49,16.47 C52.25,17.15 52.97,17.87 53.65,18.61 C56.0318621,27.1912564 56.7480982,36.1493 55.76,45 L55.56,45.67 C51.9973986,45.4866107 48.554438,44.3239627 45.61,42.31 C43.4408935,40.6886876 41.4317538,38.863719 39.61,36.86 C33.4202701,30.6029844 26.8044261,24.7823782 19.81,19.44 C13.81,14.83 7.36,10.44 2.81,4.44 C1.82039544,3.13313074 0.921618437,1.7599064 0.12,0.33 C2.97,0.6 5.78,1.2 8.6,1.75 C11.68,2.32 14.81,2.85 17.91,3.41 Z"></path>
                </g>
                <g opacity="0.5" transform="translate(7.000000, 12.000000)" fill="#0097CF" id="Path">
                    <path d="M0.49,0.65 C6.83,10.22 16.49,16.92 25.49,23.71 C30.0377583,26.9970795 34.3792699,30.5604587 38.49,34.38 C42.7725638,38.5235917 46.6285454,43.0864474 50,48 C53.9184667,53.6631857 57.1416105,59.7770866 59.6,66.21 C59.72,66.54 59.24,66.8 59.11,66.47 C54.6404885,55.0399686 47.882215,44.6439335 39.25,35.92 C31.2,27.87 21.47,21.85 12.81,14.52 C7.99674025,10.5788648 3.79143896,5.94898985 0.33,0.78 C0.26,0.67 0.44,0.58 0.51,0.69 L0.49,0.65 Z"></path>
                </g>
            </g>
            <g id="Group" opacity="0.92" transform="translate(450.000000, 276.000000)" fill-rule="nonzero">
                <path d="M97.18,72.74 C93.05,63.08 86.84,54.96 77.81,49.6 C72.17,46.25 65.91,44.03 60.45,40.4 C51.81,34.66 45.77,25.78 37.91,19 C27.3,9.85 13.83,4.85 0.68,5.68434189e-14 C15.85,14.76 21.85,37.22 37.56,51.41 C50.47,63.07 68.28,67.61 85.56,69.48 C89.56,69.92 93.88,70.32 97.17,72.71" id="Path" fill="#E0DFDE"></path>
                <g opacity="0.54" transform="translate(10.000000, 7.000000)" fill="#0097CF" id="Path">
                    <path d="M0.39,0.639412847 C13.08,6 22,17 31,26.93 C35.5714341,32.2070699 40.6490354,37.0234226 46.16,41.31 C48.9427678,43.3927659 51.9397134,45.1728309 55.1,46.62 C58.64,48.21 62.42,49.23 66.01,50.72 C73.797245,53.8900898 80.8322827,58.6596069 86.66,64.72 C86.9,64.97 86.5,65.3 86.25,65.06 C80.7609017,59.601314 74.3573027,55.147225 67.33,51.9 C63.79,50.31 60.07,49.26 56.48,47.8 C53.4479746,46.557459 50.555334,44.998852 47.85,43.15 C36.56,35.48 28.56,24.06 19.05,14.47 C13.59,9 7.5,4 0.32,0.82 C0.283558169,0.79322185 0.269622991,0.745319604 0.286013725,0.703172004 C0.302404458,0.661024404 0.345041295,0.635122386 0.39,0.639412847 Z"></path>
                </g>
                <path d="M23.82,24.92 C28.59,27.05 32.24,31.07 35.46,35.2 C38.68,39.33 41.66,43.72 45.7,47.04 C51.910623,52.0821217 59.9961665,54.1964658 67.88,52.84 C71.54,52.18 75.07,50.78 78.73,50.24 C87.26,55.6 93.19,63.48 97.17,72.8 C93.88,70.41 89.6,70.02 85.56,69.58 C68.27,67.7 50.46,63.16 37.56,51.51 C29.01,43.78 23.33,33.61 17.49,23.56 C19.6712255,23.571814 21.8264095,24.0348552 23.82,24.92 Z" id="Path" fill="#0097CF" opacity="0.14"></path>
            </g>
            <path d="M522.74,340.47 C508.95,334.81 495.36,329.08 480.49,330.22 C477.59,330.44 474.59,330.97 472.21,332.65 C471.42,333.2 470.65,334.07 470.85,335.01 C470.956417,335.420118 471.182728,335.78918 471.5,336.07 C473.06,337.61 475.5,337.73 477.7,337.72 C492.8,337.63 508.38,335.59 522.7,340.53" id="Path" fill="#F47F31" fill-rule="nonzero"></path>
            <path d="M479.92,333.77 C482.577065,333.449968 485.262935,333.449968 487.92,333.77 C490.79,333.98 493.67,334.23 496.54,334.57 C502.34,335.25 508.06,336.45 513.79,337.57 C516.880496,338.192155 519.89706,339.137345 522.79,340.39 C522.95,340.46 522.87,340.71 522.72,340.64 C520.216117,339.528159 517.610683,338.660797 514.94,338.05 C512.06,337.44 509.16,336.89 506.27,336.32 C500.653489,335.221858 494.976892,334.457187 489.27,334.03 C486.208612,333.63515 483.112602,333.584836 480.04,333.88 C479.96,333.88 479.93,333.77 480.04,333.76 L479.92,333.77 Z" id="Path" fill="#EFB670" fill-rule="nonzero"></path>
            <path d="M541.24,335.78 C527.251889,321.340298 509.221847,311.471185 489.52,307.47 C485.35,306.61 480.96,306.02 476.87,307.24 C475.34,307.69 473.59,309.09 474.26,310.54 C474.51296,310.993128 474.886872,311.36704 475.34,311.62 C478.19,313.5 481.61,314.25 484.94,314.98 C494.94,317.16 505.04,319.33 514.74,322.73 C524.061533,325.987733 532.958467,330.352266 541.24,335.73" id="Path" fill="#F47F31" fill-rule="nonzero"></path>
            <path d="M480.92,309.38 C489.391705,311.057141 497.764428,313.200398 506,315.8 C510.075112,317.135699 514.060018,318.732333 517.93,320.58 C521.93,322.53 525.93,324.73 529.75,326.99 C531.697019,328.015972 533.556589,329.199942 535.31,330.53 C536.97,331.9 538.48,333.45 540.18,334.77 C540.31,334.87 540.18,335.1 540.05,335 C538.61,333.89 537.31,332.62 535.94,331.43 C535.239517,330.799283 534.501501,330.211542 533.73,329.67 C532.9,329.1 532,328.62 531.13,328.11 C527.29,325.86 523.43,323.64 519.45,321.64 C511.634542,317.839361 503.438934,314.876205 495,312.8 C490.34,311.58 485.63,310.52 480.93,309.44 C480.88,309.44 480.93,309.37 480.93,309.38 L480.92,309.38 Z" id="Path" fill="#EFB670" fill-rule="nonzero"></path>
            <path d="M542,331.37 C535.81,324.59 529.59,317.76 524.65,310.02 C520.8,304.02 517.65,297.28 512.07,292.78 C511.158715,291.886295 509.936335,291.380853 508.66,291.37 C507.390135,291.572341 506.340112,292.467949 505.94,293.69 C505.567015,294.898698 505.542752,296.188126 505.87,297.41 C506.72,301.18 509.25,304.31 511.81,307.2 C520.17,316.65 526.81,325.59 542,331.37" id="Path" fill="#F47F31" fill-rule="nonzero"></path>
            <path d="M511.76,299.2 C518.3,308.25 525.11,317.2 533.52,324.66 C534.72,325.72 535.96,326.75 537.23,327.73 C538.5,328.71 539.86,329.65 541.17,330.61 C541.29,330.7 541.17,330.89 541.05,330.81 C538.667941,329.292229 536.410779,327.586818 534.3,325.71 C532.18,323.89 530.14,321.97 528.21,319.95 C524.28508,315.817391 520.611805,311.452873 517.21,306.88 C515.33,304.36 513.473333,301.816667 511.64,299.25 C508.9,295.4 511.64,299.16 511.71,299.2 L511.76,299.2 Z" id="Path" fill="#EFB670" fill-rule="nonzero"></path>
            <path d="M1131.19,299.75 C1138.19,284.29 1145.37,269.06 1144.46,252.2 C1144.28,248.91 1143.74,245.5 1141.84,242.76 C1141.21,241.85 1140.21,240.95 1139.1,241.15 C1138.6167,241.258308 1138.1754,241.505019 1137.83,241.86 C1135.98,243.59 1135.76,246.34 1135.72,248.86 C1135.38,265.96 1137.34,283.66 1131.12,299.68" id="Path" fill="#1BBFBF" fill-rule="nonzero"></path>
            <path d="M1140.56,245.88 C1140.96814,248.863628 1141.0118,251.885829 1140.69,254.88 C1140.5,258.15 1140.26,261.41 1139.91,264.66 C1138.57,277.42 1138.91,272.49 1136.68,284.26 C1135.99057,287.763436 1134.92784,291.182942 1133.51,294.46 C1133.44,294.63 1133.14,294.56 1133.22,294.38 C1134.47753,291.532433 1135.45221,288.568192 1136.13,285.53 C1136.79,282.25 1137.39,278.96 1138.02,275.68 C1139.20284,269.287262 1139.99763,262.828784 1140.4,256.34 C1140.62,252.88 1141.01,249.34 1140.4,245.88 C1140.4,245.8 1140.52,245.76 1140.54,245.88 L1140.56,245.88 Z" id="Path" fill="#EFB670" fill-rule="nonzero"></path>
            <path d="M1129.72,303 C1146.98294,287.777917 1159.12873,267.600135 1164.5,245.22 C1165.63,240.52 1166.44,235.57 1165.13,230.91 C1164.64,229.17 1163.05,227.15 1161.32,227.91 C1160.78639,228.185465 1160.33721,228.6001 1160.02,229.11 C1157.73,232.28 1156.74,236.11 1155.8,239.88 C1152.95,251.19 1150.11,262.53 1145.8,273.41 C1141.66812,283.892813 1136.26792,293.830123 1129.72,303" id="Path" fill="#F47F31" fill-rule="nonzero"></path>
            <path d="M1162.5,235.41 C1160.27135,244.963424 1157.51038,254.38479 1154.23,263.63 C1152.51761,268.187547 1150.51346,272.630075 1148.23,276.93 C1145.83,281.45 1143.13,285.82 1140.37,290.14 C1139.09952,292.321414 1137.64773,294.392052 1136.03,296.33 C1134.37,298.18 1132.52,299.85 1130.91,301.74 C1130.79,301.88 1130.52,301.74 1130.65,301.58 C1131.99,299.98 1133.52,298.58 1134.96,297.03 C1135.7121,296.250912 1136.42307,295.433135 1137.09,294.58 C1137.79,293.65 1138.38,292.65 1139,291.67 C1141.76,287.39 1144.48,283.08 1147,278.67 C1151.67237,269.963776 1155.38739,260.7768 1158.08,251.27 C1159.65,246.02 1161.08,240.72 1162.44,235.43 L1162.52,235.43 L1162.5,235.41 Z" id="Path" fill="#EFB670" fill-rule="nonzero"></path>
            <path d="M1134.89,303.91 C1143.04,297.09 1151.25,290.23 1160.49,284.86 C1167.69,280.67 1175.67,277.26 1181.12,271.09 C1182.19239,270.101159 1182.82891,268.727427 1182.89,267.27 C1182.65103,265.812517 1181.62837,264.605315 1180.23,264.13 C1178.81384,263.671107 1177.29904,263.608855 1175.85,263.95 C1171.4,264.81 1167.65,267.59 1164.17,270.4 C1152.82,279.61 1142.12,286.83 1134.89,303.91" id="Path" fill="#1BBFBF" fill-rule="nonzero"></path>
            <path d="M1173.58,270.59 C1162.75,277.74 1151.99,285.21 1143.03,294.52 C1141.74333,295.853333 1140.5,297.223333 1139.3,298.63 C1138.09,300.06 1136.98,301.56 1135.8,303.01 C1135.7,303.15 1135.47,303.01 1135.57,302.87 C1137.43365,300.208886 1139.50691,297.700908 1141.77,295.37 C1143.96,293.02 1146.29,290.77 1148.71,288.63 C1153.69819,284.327654 1158.9338,280.320809 1164.39,276.63 C1167.39,274.56 1170.46,272.54 1173.53,270.54 C1173.53,270.54 1173.63,270.54 1173.53,270.62 L1173.58,270.59 Z" id="Path" fill="#EFB670" fill-rule="nonzero"></path>
            <g id="Group" opacity="0.5" transform="translate(907.000000, 131.000000)" fill="#000000" fill-rule="nonzero">
                <path d="M22.06,18.41 C23.0768263,19.813866 23.5943329,21.5177654 23.53,23.25 C23.6754057,25.6485575 22.6823918,27.9754707 20.85,29.53 C19.05,30.9766667 16.51,31.7033333 13.23,31.71 L2.13,31.71 C1.63237562,31.7351281 1.14565323,31.5584659 0.78,31.22 C0.442196366,30.8857882 0.260705584,30.4248016 0.28,29.95 L0.28,2.42 C0.262793183,1.94259995 0.443756615,1.47933356 0.78,1.14 C1.14956136,0.809019536 1.63444283,0.636617235 2.13,0.66 L12.74,0.66 C15.94,0.66 18.4233333,1.36333333 20.19,2.77 C23.1132764,5.40847427 23.6816979,9.78192674 21.53,13.08 C20.6117975,14.3193217 19.3442581,15.2560472 17.89,15.77 C19.5424185,16.1438317 21.0152756,17.0762879 22.06,18.41 Z M3.84,14.41 L12.21,14.41 C14.0747626,14.5409542 15.9297709,14.0446427 17.48,13 C18.6967924,12.002437 19.3592347,10.4803083 19.26,8.91 C19.26,5.37666667 16.9266667,3.61333333 12.26,3.61998117 L3.89,3.61998117 L3.84,14.41 Z M18.27,27.34 C19.4927177,26.2977322 20.1400912,24.7313859 20.01,23.13 C20.01,19.3166667 17.63,17.41 12.87,17.41 L3.87,17.41 L3.87,28.68 L12.87,28.68 C15.31,28.71 17.11,28.27 18.27,27.37 L18.27,27.34 Z" id="Shape"></path>
                <path d="M30.47,31.25 C30.1362924,30.9232731 29.9642268,30.4656516 30,30 L30,2.29 C29.9748719,1.79237562 30.1515341,1.30565323 30.49,0.94 C31.2450125,0.276708264 32.3749875,0.276708264 33.13,0.94 C33.4609805,1.30956136 33.6333828,1.79444283 33.61,2.29 L33.61,28.63 L47.8,28.63 C48.2316665,28.6034575 48.6582314,28.7349817 49,29 C49.3090424,29.2997145 49.4700553,29.7205437 49.44,30.15 C49.4726971,30.576901 49.3110301,30.9957656 49,31.29 C48.6566273,31.5764251 48.2161661,31.7196645 47.77,31.69 L31.72,31.69 C31.2628454,31.7056262 30.8165692,31.548537 30.47,31.25 L30.47,31.25 Z" id="Path"></path>
                <path d="M57.64,30.12 C55.4958643,28.8120592 53.7872999,26.8981887 52.73,24.62 C51.5350641,21.980849 50.9505704,19.1062336 51.02,16.21 C50.9477153,13.2930009 51.5249805,10.3964279 52.71,7.73 C53.7447067,5.44070978 55.4498564,3.51936529 57.6,2.22 C62.3148949,-0.326100795 67.9951051,-0.326100795 72.71,2.22 C74.857712,3.52228379 76.5621065,5.44277741 77.6,7.73 C78.7822234,10.379677 79.3595301,13.2593784 79.29,16.16 C79.3587549,19.0668903 78.7708269,21.9518396 77.57,24.6 C76.5195666,26.8879079 74.809859,28.8100232 72.66,30.12 C67.9924467,32.6985525 62.3275533,32.6985525 57.66,30.12 L57.64,30.12 Z M72.84,25.65 C74.6666667,23.4366667 75.5833333,20.2733333 75.5900364,16.16 C75.5966667,12.0466667 74.6866667,8.89 72.86,6.69 C70.8582014,4.5770475 68.0756298,3.38019719 65.165,3.38019719 C62.2543702,3.38019719 59.4717986,4.5770475 57.47,6.69 C55.63,8.91 54.71,12.06 54.71,16.14 C54.71,20.22 55.63,23.3766667 57.47,25.61 C59.4577964,27.7407403 62.2410012,28.9505596 65.155,28.9505596 C68.0689988,28.9505596 70.8522036,27.7407403 72.84,25.61 L72.84,25.65 Z" id="Shape"></path>
                <path d="M110,15.94 C110.289273,16.2307636 110.441875,16.6304346 110.42,17.04 L110.42,28.04 C110.456408,28.5869242 110.342277,29.1333706 110.09,29.62 C109.793837,30.0338087 109.362242,30.3309726 108.87,30.46 C107.49718,31.0195973 106.06437,31.4189051 104.6,31.65 C102.948955,31.9391725 101.276173,32.0863773 99.6,32.09 C96.8142425,32.1674595 94.0565628,31.5159576 91.6,30.2 C89.3783117,28.9392374 87.5899886,27.035876 86.47,24.74 C84.099727,19.3211948 84.099727,13.1588052 86.47,7.74 C87.5686001,5.44699638 89.3316825,3.53757117 91.53,2.26 C93.8961584,0.942020511 96.5723785,0.282461756 99.28,0.35 C101.229958,0.330002206 103.168635,0.648040007 105.01,1.29 C106.670634,1.86349842 108.188347,2.78776896 109.46,4 C109.908711,4.39021975 110.179447,4.94613174 110.21,5.54 C110.216873,5.93055068 110.089829,6.31168324 109.85,6.62 C109.651066,6.9097404 109.321454,7.0820377 108.97,7.08 C108.515533,7.04026773 108.085147,6.858316 107.74,6.56 C106.487431,5.5449917 105.092537,4.71951104 103.6,4.11 C102.227373,3.63541681 100.782144,3.40526322 99.33,3.43 C95.83,3.43 93.1633333,4.53 91.33,6.73 C89.4966667,8.93 88.5633333,12.0866667 88.53,16.2 C88.53,20.4 89.4766667,23.5933333 91.37,25.78 C93.2633333,27.9666667 96.0466667,29.06 99.72,29.06 C102.253224,29.0932077 104.772253,28.6767553 107.16,27.83 L107.16,18.4 L100.73,18.4 C100.298678,18.4221925 99.8745182,18.283182 99.54,18.01 C99.2557982,17.7558529 99.0953662,17.3912348 99.1,17.01 C99.0913063,16.6279484 99.2524531,16.2617057 99.54,16.01 C99.8781631,15.74454 100.300571,15.6096534 100.73,15.63 L108.97,15.63 C109.339537,15.6052622 109.705504,15.7154075 110,15.94 L110,15.94 Z" id="Path"></path>
            </g>
        </g>
    </g>
</svg>