<svg xmlns="http://www.w3.org/2000/svg" viewBox="0 0 125.51 315.93"><defs><style>.cls-1{fill:#fbb990;}.cls-2{fill:#ff9c00;}.cls-3{fill:#fff;}.cls-4{fill:#3e4a5e;}.cls-5{fill:#363f51;}.cls-6{fill:#0fa8ba;}.cls-7{fill:#e8792e;}.cls-8{fill:#edbc4f;}.cls-9{fill:#f9927d;}.cls-10{fill:#1bbfbf;}.cls-11{fill:#ecbc4f;}.cls-12{fill:#1f3727;}</style></defs><title>boy-contactus</title><g id="Layer_2" data-name="Layer 2"><g id="Layer_1-2" data-name="Layer 1"><path class="cls-1" d="M56.09,249c-1.91,7.25-1.51,15.42-.81,26.92L53.9,303a14.43,14.43,0,0,0,9.19,1.12l7.57-53.67Z"/><path class="cls-2" d="M86.93,315.07c-.78,1.67-35.09-.12-35.09-.12s-1.09-10.19,0-13.32,6.07.38,9.5-.4c0,0,2.05-2.85,3.72-2.75.61,0,2.77,1.42,5.47,3.2l1.36.89c.32.21.64.43,1,.64l1.62,1.07.62.39h0l1.51,1c3,1.87,5.85,3.45,7.5,3.74C88.52,310.16,87.71,313.4,86.93,315.07Z"/><path class="cls-3" d="M74.48,304.28a3.1,3.1,0,0,0-1.87.36A8.54,8.54,0,0,0,70,307.53a.53.53,0,0,1-.35.29.62.62,0,0,1-.48,0,.61.61,0,0,1-.24-.84A9.41,9.41,0,0,1,72,303.55a6.21,6.21,0,0,1,.82-.34C73.76,303.29,74.51,303.49,74.48,304.28Z"/><path class="cls-3" d="M71.88,302.57a3.32,3.32,0,0,0-1.14.36,8.37,8.37,0,0,0-2.65,2.9.62.62,0,0,1-1.08-.6,9.62,9.62,0,0,1,3.16-3.39l.35-.16C71.1,301.73,71.75,301.69,71.88,302.57Z"/><path class="cls-3" d="M76.61,305.63a3.19,3.19,0,0,0-1.5.39,8.3,8.3,0,0,0-2.64,2.89.68.68,0,0,1-.36.29.62.62,0,0,1-.48-.05.61.61,0,0,1-.24-.84,9.45,9.45,0,0,1,3.15-3.39c.19-.09.38-.18.56-.25h0C76.08,304.58,76.66,304.83,76.61,305.63Z"/><path class="cls-4" d="M61.23,182.49,58.5,223.8C51.81,241.26,53.32,286.73,54,294l11.7-.51L92,154.35l-28.34,1Z"/><path class="cls-5" d="M68.27,291.45c1,2.06,1.14,4.68.15,5.94l-16.58,1.39C50.52,297.72,50,294,51,292.89Z"/><path class="cls-1" d="M27.49,239.79c-4.17,6-7.47,14.58-10.4,25.6L9.15,289.61s2.12,2.36,7.53,4L40.49,245Z"/><path class="cls-5" d="M41.18,153.9s-3.39,35.26-4.38,62.62c0,0-26.47,53.26-27.91,64.44l15.27,6.78s27.32-55,32.76-67.66l15.64-64Z"/><path class="cls-4" d="M30.54,240.61l-.21,0a.82.82,0,0,1-.59-1c1.94-7.65,9.9-20.56,11.15-22.56-2-17.5,3.57-59.45,3.8-61.23a.82.82,0,0,1,1.63.21c-.06.44-5.78,44-3.77,61.12a.83.83,0,0,1-.12.53c-.09.14-9.1,14.45-11.1,22.33A.81.81,0,0,1,30.54,240.61Z"/><path class="cls-2" d="M28.82,315.93H14.71c-.33-.29-1-1.06-1.82-1.86L.48,301.26a1.71,1.71,0,0,1-.27-2c1.43-2.6,5-8.95,6.59-10.44,2-1.89,3.35-.52,3.35-.52s3.41,4.38,5.13,3.64c2-.88,3.86-1.6,4.21,2.76A30.18,30.18,0,0,0,22.13,304s2.09,3.6,5,5c3.32,1.63,3.56,4.05,3.32,5.56A1.66,1.66,0,0,1,28.82,315.93Z"/><path class="cls-3" d="M21.23,301.16a3.08,3.08,0,0,0-1.6-1.06,8.33,8.33,0,0,0-3.91.2.61.61,0,0,1-.46,0,.66.66,0,0,1-.31-.38.61.61,0,0,1,.41-.76,9.42,9.42,0,0,1,4.63-.2,5.32,5.32,0,0,1,.83.33C21.4,299.94,21.8,300.61,21.23,301.16Z"/><path class="cls-3" d="M20.57,298.11a3.63,3.63,0,0,0-1.06-.54,8.31,8.31,0,0,0-3.92.21.66.66,0,0,1-.46,0,.61.61,0,0,1,.11-1.13,9.26,9.26,0,0,1,4.63-.2l.36.13C20.61,297,21.09,297.39,20.57,298.11Z"/><path class="cls-3" d="M21.8,303.61a3.25,3.25,0,0,0-1.34-.77,8.24,8.24,0,0,0-3.92.2.61.61,0,0,1-.77-.42.61.61,0,0,1,.42-.76,9.4,9.4,0,0,1,4.63-.2,4.79,4.79,0,0,1,.57.21h0C22.16,302.49,22.4,303.08,21.8,303.61Z"/><path class="cls-6" d="M113.57,122.42l0,0q-5.23-4-10.32-8.13c-3.37-2.76-6.69-5.56-9.8-8.42-1.56-1.43-3.07-2.87-4.42-4.31-.52-.54-1-1.08-1.46-1.61l-.41-.49L86.78,99l0-.06c-.11-.16-.24-.32-.34-.46l-.14-.22-.13-.19c-.09-.13-.12-.21-.18-.31l0-.08v0h0a0,0,0,0,1,0,0h0l0-.1-.08-.22c0-.06,0-.12-.07-.19l-14.16,5.45.15.37c.07.17.15.36.24.55l.13.28.08.18.1.19.19.39.1.19.09.16.38.64c.24.38.5.77.73,1.09.12.16.25.33.36.49l.36.45.69.85.69.77c.91,1,1.81,1.9,2.7,2.76,1.79,1.7,3.58,3.24,5.37,4.74,3.59,3,7.21,5.73,10.87,8.42s7.33,5.29,11,7.85l.11.07a6.12,6.12,0,0,0,8.61-1.73c.17-.25.33-.5.49-.75A6.13,6.13,0,0,0,113.57,122.42Z"/><path class="cls-1" d="M120.07,126.68c-1,1.92-2.13,3.8-3.26,5.67l-.37.61q-1.27,2.07-2.59,4.09l-.24-.23c-1.07-1.1-4.26-4.22-4.71-6.37-.28-1.3.58-3.54,2.74-4.92a4.71,4.71,0,0,1,3.31-.4,16.1,16.1,0,0,1,4.36,1.17Z"/><polygon class="cls-7" points="123.91 125.17 123.52 126.76 122.84 129.45 122.71 129.97 122.14 132.26 121.52 134.75 121.49 134.87 120.78 137.72 120.15 140.26 119.36 143.41 110.47 142 110.52 141.26 110.75 138.11 110.88 136.2 111.1 133.09 111.1 133.04 111.24 131.14 111.45 128.18 111.46 127.97 111.6 126.08 111.8 123.24 123.91 125.17"/><polygon class="cls-3" points="122.71 129.97 122.14 132.26 121.52 134.75 111.1 133.09 111.1 133.04 111.24 131.14 111.45 128.18 122.71 129.97"/><rect class="cls-8" x="111.28" y="121.82" width="13.53" height="2.4" transform="translate(20.77 -17) rotate(9.03)"/><path class="cls-8" d="M114.12,119.82h8.53a1.48,1.48,0,0,1,1.48,1.48v.56a0,0,0,0,1,0,0H112.65a0,0,0,0,1,0,0v-.56A1.48,1.48,0,0,1,114.12,119.82Z" transform="translate(20.43 -17.08) rotate(9.03)"/><path class="cls-9" d="M124.55,127.88a1.94,1.94,0,0,0-.84-1.89l-.58,2.32A1.36,1.36,0,0,0,124.55,127.88Z"/><path class="cls-1" d="M124.55,127.88a22.31,22.31,0,0,1-3.5-.35c-1.34-.2-4.45-.11-3.55.93.72.82,4.72,1.29,5.37,2,0,0-2.06-.37-3.79-.76-1.56-.35-4.17-.39-3.47.43s2.83,1.42,3.57,1.73c1,.42,2.24.9,2.24.9a33.17,33.17,0,0,0-3.77-.53c-1-.08-3.52-.8-3.17.62.17.71,3.65,1.62,5.26,2.42,0,0-3.28-.69-4.5-.2-1,.38,0,.85,1.17,1.43a28.52,28.52,0,0,0,3.06,1.2c1,.39,2.88.34,3.31-.64s0-1.62.45-2.18,1.21-1.36,1.19-2a3,3,0,0,1,.66-2A2.08,2.08,0,0,0,124.55,127.88Z"/><path class="cls-10" d="M90.06,159c-5.32,2.8-40.55,2.27-48.43-2.24-2.43-1.39-3.55-10.36-3.89-22.38,0-.27,0-.55,0-.83s0-.54,0-.81c0-.66,0-1.31,0-2,0-1.2,0-2.42,0-3.65,0-.41,0-.82,0-1.23v-1.56c0-.77,0-1.55,0-2.33,0-.45,0-.9,0-1.36s0-.85,0-1.28,0-.77,0-1.16c0-.11,0-.22,0-.34l0-1.75c0-.2,0-.4,0-.61l.06-2.41c0-1.88.1-3.76.16-5.65,0-.89.06-1.77.1-2.66l.06-1.68q0-.36,0-.75c0-1.37.11-2.75.17-4.11,0-.21,0-.41,0-.62,0-1,.1-2.06.16-3.08l0-.72c0-.42,0-.84.07-1.26l0-.76c0-.28,0-.57,0-.86s0-.62,0-.94,0-.8.07-1.19,0-.63.05-.94,0-.58,0-.87l0-.53c0-.55.07-1.09.1-1.63,0-.24,0-.48,0-.72.37-5.94.76-11.3,1.13-15.59.07-.73.13-1.43.19-2.1.1-1.17.21-2.23.3-3.18.08-.71.15-1.36.21-1.93.13-1.06.24-1.89.33-2.44,1.21-7,14.15-14,20.58-17a9.69,9.69,0,0,1,7.12-.48l6.68,2.18c5.79,1.87,9.49,5.5,11.35,10.63.15.4.28.81.4,1.23a28.11,28.11,0,0,1,1,8c0,2.34.09,5.26.12,8.08,0,.43,0,.85,0,1.28,0,.62,0,1.23,0,1.83,0,.11,0,.23,0,.35v1.89c0,1.31,0,2.63,0,4,0,.49,0,1,0,1.48,0,.23,0,.47,0,.71l0,1.15v.08l0,.93c0,.29,0,.58,0,.87s0,.63,0,.94l.12,3c0,.13,0,.26,0,.4s0,.32,0,.48q0,1.2.09,2.37c0,.3,0,.59,0,.89l.06,1.33c0,.44,0,.89,0,1.33,0,.14,0,.29,0,.44s0,.32,0,.48V98s0,0,0,0q0,.56,0,1.08l0,1v.06c0,.35,0,.71,0,1,0,.85,0,1.67,0,2.45,0,.54,0,1.06,0,1.56,0,.34,0,.67,0,1,0,.15,0,.3,0,.45q0,.7,0,1.44c0,.91,0,1.85,0,2.83,0,.61,0,1.24.07,1.88,0,.3,0,.61,0,.92s0,.52,0,.78,0,.61.05.91,0,.38,0,.57a2.64,2.64,0,0,0,0,.28c0,.3,0,.61.06.91s.05.76.08,1.14c.05.77.11,1.54.18,2.33l0,.45c0,.14,0,.29,0,.44q.06.85.15,1.71c0,.24,0,.49.06.73s0,.52.07.78c0,.47.09.95.13,1.42s.09.9.13,1.36c.08.88.17,1.76.25,2.64,0,.33.06.66.1,1,.08.94.17,1.86.26,2.78C92.28,146.33,93.06,157.45,90.06,159Z"/><path class="cls-1" d="M62.31,43.61c5.2,9.27,13.51,3,13.51,3l-.34-14.46L64.2,28.72l-1.82-.55Z"/><path class="cls-9" d="M64.2,28.72s2.85,12.06,11.51,13.4l-.23-10Z"/><path class="cls-9" d="M82.32,16.78s3.37-2.08,5,2-2.12,9.36-6,8.51C81.35,27.32,80.8,18.89,82.32,16.78Z"/><path class="cls-1" d="M59.79,20.06a14.54,14.54,0,0,0,1.11,5.06c.19.49.4,1,.63,1.48h0c4,8.67,14.12,17.77,20.07,11.12,5-5.62,5-16.63,4.45-23.36a10.71,10.71,0,0,0-9.48-9.76c-3.78-.42-7.85-.05-10.26,1-3.31,1.5-5.14,3.29-6,7a23.58,23.58,0,0,0-.44,3.2c0,.31,0,.64-.06,1,0,.51,0,1.05-.05,1.62S59.78,19.52,59.79,20.06Z"/><path class="cls-11" d="M60,13.18s-3.48.24-4.54,2.42,4.61,1.82,5.93,1.06Z"/><path class="cls-12" d="M59.79,18.49c3,.57,6.27,1.63,7.69,0,0,0-.25-2,2.85-3.9a3,3,0,0,0,1.1-3.52L60.34,12.69a23.58,23.58,0,0,0-.44,3.2c0,.31,0,.64-.06,1C59.81,17.38,59.8,17.92,59.79,18.49Z"/><path class="cls-11" d="M59.9,15.89A13.49,13.49,0,0,1,61.81,4.44C65.79-1.27,77.23-1,81,2.55a13.7,13.7,0,0,1,4.22,8.52S69.54,8.68,59.9,15.89Z"/><path class="cls-11" d="M70.52,11.48S89.78,1.14,97,4.44s-10.92,9.93-10.92,9.93a9,9,0,0,0-.82-3.3S75.34,10.52,70.52,11.48Z"/><path class="cls-9" d="M60.9,25.12c.19.49.4,1,.63,1.48h0a7.75,7.75,0,0,0,3.94,1.17h.19a.4.4,0,1,0-.06-.8h-.14A6.94,6.94,0,0,1,60.9,25.12Z"/><path class="cls-1" d="M63.34,16.62s-3.71-1.8-4.62,2.52S62.37,28,66,26.54C66,26.54,65.19,18.46,63.34,16.62Z"/><path class="cls-9" d="M63.8,23.87a.4.4,0,0,1-.38-.33,6.61,6.61,0,0,0-2.52-4.06.4.4,0,0,1,.45-.67,7.41,7.41,0,0,1,2.86,4.59.4.4,0,0,1-.33.46Z"/><path class="cls-9" d="M60.73,21.92a.39.39,0,0,1-.34-.21.4.4,0,0,1,.17-.54,4.36,4.36,0,0,1,2.4-.5.4.4,0,1,1-.15.78,3.56,3.56,0,0,0-1.88.43A.36.36,0,0,1,60.73,21.92Z"/><path class="cls-9" d="M80.83,28.16A6.24,6.24,0,0,1,79.47,28a.43.43,0,0,1,.2-.84,4.36,4.36,0,0,0,1.44.15c0-.71-.51-4-1-6.84A.43.43,0,0,1,81,20.3c.25,1.54,1.06,6.6,1,7.19a.71.71,0,0,1-.3.48A1.52,1.52,0,0,1,80.83,28.16Z"/><path class="cls-12" d="M75.2,21.19c0,.75-.31,1.36-.72,1.37s-.76-.6-.78-1.35.32-1.36.73-1.37S75.19,20.44,75.2,21.19Z"/><path class="cls-12" d="M71,19.26a.58.58,0,0,1-.26-.13.64.64,0,0,1-.1-.91,4.51,4.51,0,0,1,5.41-1.34.63.63,0,0,1,.31.86.64.64,0,0,1-.87.31,3.26,3.26,0,0,0-3.84,1A.65.65,0,0,1,71,19.26Z"/><path class="cls-12" d="M84.48,21.19c0,.75-.32,1.36-.73,1.37S83,22,83,21.21s.32-1.36.73-1.37S84.46,20.44,84.48,21.19Z"/><path class="cls-12" d="M81.24,18a.52.52,0,0,1-.17-.19.59.59,0,0,1,.25-.78,4,4,0,0,1,4.84.88.57.57,0,0,1-.06.81.58.58,0,0,1-.81-.07,2.88,2.88,0,0,0-3.45-.6A.55.55,0,0,1,81.24,18Z"/><path class="cls-3" d="M82.43,30.81a24.6,24.6,0,0,1-8.08-1.21s1,3.45,4.46,3.56A3.85,3.85,0,0,0,82.43,30.81Z"/><path class="cls-9" d="M53.85,151.64a17.27,17.27,0,0,1-5.21-.92,7,7,0,0,1,1.63,1.34c3.08,3.82,6.44,4.89,6.83,4S53.85,151.64,53.85,151.64Z"/><path class="cls-6" d="M43,54.47a123.62,123.62,0,0,0-9.38,10.64,112.74,112.74,0,0,0-8.07,11.76A119.68,119.68,0,0,0,19,89.48c-1.48,3.3-2.81,6.64-4,10q-.55,1.53-1.08,3.06l-.25.91a6.65,6.65,0,0,0,.64,5.06c.8,1.38,1.6,2.74,2.43,4.09C20,118,23.48,123.18,27.16,128.2c4.62,6.28,9.5,12.3,14.56,18.1a4.82,4.82,0,0,0,7.66-5.83v0c-4.13-6.22-8-12.57-11.57-19-2.87-5.23-5.51-10.53-7.88-15.91l0-.08c-.09-.2-.18-.4-.26-.6s.1-.3.16-.44l.06-.16c.31-.87.63-1.72,1-2.58q1.13-2.92,2.4-5.77a105.41,105.41,0,0,1,5.7-11,97.67,97.67,0,0,1,7-10.16,110.58,110.58,0,0,1,8.19-9.29h0A7.81,7.81,0,1,0,43,54.47Z"/><path class="cls-8" d="M15,99.48q-.55,1.53-1.08,3.06l-.25.91a6.65,6.65,0,0,0,.64,5.06c.8,1.38,1.6,2.74,2.43,4.09C18.46,109.91,20.65,104.58,15,99.48Z"/><path class="cls-9" d="M54.85,150.13s3.2,2.09,4.25,4.51,5.68,6.05,4.19,7.22c-1.26,1-6.78-6.78-9.47-8.43C51,151.68,54.85,150.13,54.85,150.13Z"/><path class="cls-1" d="M52.35,151.58s5.41,2,7,4.27,5.94,4.9,5.81,5.91-3.54-.59-6-3.08S52.35,151.58,52.35,151.58Z"/><path class="cls-1" d="M48.66,143a8,8,0,0,0-1.87.07,3.67,3.67,0,0,0-2.8,5.09v0A6.58,6.58,0,0,0,45.5,150l.1.08.39.32c2.76,2.13,7.11,2.55,7.11,2.55s5.44,3.91,7.76,5.61,6,3.51,5.8,2.21-5.48-5.52-7.39-9.14S48.66,143,48.66,143Z"/><path class="cls-1" d="M46,150.37l-.39-.32.33.28Z"/><path class="cls-4" d="M7.52,280.08a9.49,9.49,0,0,0-3,7.13s11.13,5.29,16.78,7.45c0,0,3.44-4.4,3.53-7.08C24.79,287.58,14.7,283.56,7.52,280.08Z"/></g></g></svg>