<?xml version="1.0" encoding="UTF-8"?>
<svg width="97px" height="296px" viewBox="0 0 97 296" version="1.1" xmlns="http://www.w3.org/2000/svg" xmlns:xlink="http://www.w3.org/1999/xlink">
    <!-- Generator: Sketch 59 (86127) - https://sketch.com -->
    <title>boy-blog</title>
    <desc>Created with Sketch.</desc>
    <g id="Page-1" stroke="none" stroke-width="1" fill="none" fill-rule="evenodd">
        <g id="boy-blog" transform="translate(0.000000, -1.000000)" fill-rule="nonzero">
            <path d="M4.08,68.66 C4.75,73.45 7.44,79.34 10.76,85.1 C11.6,86.56 12.48,88.02 13.39,89.44 C14.52,91.24 15.69,92.99 16.84,94.66 C17.99,96.33 18.98,97.66 19.98,99.08 C23.87,104.4 26.98,108.08 26.98,108.08 L35.23,81.08 L28.43,72.08 L26.43,69.43 L24.43,66.81 L22.43,64.14 L20.26,61.3 C19.4,47.3 20.91,25.61 15.61,24.37 C15.61,24.37 9.11,23.81 6.85,24.84 C2.05,27.05 1.47,49.91 4.08,68.66 Z" id="Path" fill="#F7B634"></path>
            <path d="M15.65,23 C15.6677553,23.4974694 15.6476976,23.9955689 15.59,24.49 C15.557463,24.8580024 15.4802277,25.2206725 15.36,25.57 C14.71,27.4 12.98,27.52 10.54,27.71 C8.48,27.87 7.35,27.3 6.95,25.95 C6.82458588,25.5012452 6.77059176,25.0355458 6.79,24.57 C6.78495443,24.2020774 6.80835748,23.8343152 6.86,23.47 C6.86,23.15 6.94,22.83 7,22.47 C7.12,21.86 7.27,21.2 7.46,20.47 C7.84,19.02 12.05,18.65 12.05,18.65 C13.33,18.5 15.12,18.72 15.35,20.17 C15.45,20.86 15.54,21.49 15.58,22.05 C15.62,22.36 15.64,22.66 15.65,23 Z" id="Path" fill="#123C5E"></path>
            <path d="M4.51,9.49 C5.25162329,10.6477949 5.87476712,11.8773314 6.37,13.16 C6.89,15.63 7.19,16.99 8.09,18.11 C8.62814591,19.0629082 8.79888682,20.1798383 8.57,21.25 C8.57,21.25 11.98,22.89 14.76,20.69 C14.5895297,19.8468439 14.5692181,18.9802167 14.7,18.13 C15.26,16.99 17.11,16.34 17.7,14.05 C18.2597097,12.3053134 19.0825241,10.6563125 20.14,9.16 C20.14,9.16 19.55,8 18.57,8.73 C17.59,9.46 16.99,11.33 16.45,11.52 C16.3412274,11.5651467 16.2268636,11.5954195 16.11,11.61 L16.11,11.61 C15.7212647,11.6901741 15.3168301,11.5990852 15,11.36 C14.9720946,11.3460503 14.9480535,11.3254437 14.93,11.3 C13.99,10.3 13.7,7.14 13.7,5.74 C13.7,3.8 13.57,1.11 12.4,1.6 C11.23,2.09 12.33,3.13 11.52,7.44 L11.08,7.51 C11,7.82 10.08,4.93 9.86,2.2 C9.65,0.33 8.44,1.05 8.18,1.65 C7.92,2.25 8.38,4.11 8.5,5.47 C8.59,6.37 8.68,7.3 8.74,7.85 L8.23,8.15 C6.28,4.94 6.89,3.57 5.8,3.54 C4.71,3.51 5.17,6.24 5.8,7.27 C6.13409695,8.00573462 6.38239769,8.77748015 6.54,9.57 C4.54,7.41 4.75,6.25 3.88,6.41 C3.01,6.57 3.82,8.75 4.51,9.49 Z" id="Path" fill="#FFAEAB"></path>
            <path d="M12.9099999,14.39 C13.51,12.59 15.8,11.72 16.09,11.62 C15.706247,11.6913883 15.3102113,11.5969211 15,11.36 C13.7415505,11.8377802 12.9096023,13.043906 12.9099999,14.39 L12.9099999,14.39 Z" id="Path" fill="#F9927D"></path>
            <path d="M16.84,94.66 C17.92,96.22 18.98,97.66 19.98,99.08 C20.29,80.92 26.1,74.08 28.39,72.08 L26.39,69.43 C23.74,71.65 18,78.36 16.84,94.66 Z" id="Path" fill="#FFFFFF"></path>
            <path d="M10.76,85.1 C11.6,86.56 12.48,88.02 13.39,89.44 C15.59,73.73 22.88,67.84 24.39,66.78 L22.39,64.11 C20.29,65.59 13.63,71.27 10.76,85.1 Z" id="Path" fill="#FFFFFF"></path>
            <path d="M80.27,175.88 C83.11,174.88 95.27,155.96 96.36,145.14 C96.92,139.6 93.64,128.33 89.15,117.03 C88.64,115.75 88.15,114.46 87.58,113.19 C86.8,111.36 86.01,109.55 85.2,107.78 C84.61,106.49 84.01,105.21 83.4,103.96 C81.0529963,98.9154031 78.3006364,94.0695108 75.17,89.47 L72.58,121.23 L72.13,126.67 L71.74,131.48 L71.81,131.59 L73.63,134.39 L79.47,143.31 C79.47,143.31 74.14,164.43 72.6,166.47 C71.06,168.51 77.42,176.84 80.27,175.88 Z" id="Path" fill="#F7B634"></path>
            <path d="M72.13,126.67 C77.67,121.2 82.6,112.67 85.2,107.78 C84.61,106.49 84.01,105.21 83.4,103.96 C80.3869865,110.067951 76.7617376,115.854278 72.58,121.23 L72.13,126.67 Z" id="Path" fill="#FFFFFF"></path>
            <path d="M71.81,131.59 L73.63,134.39 C80.44,129.64 85.93,122.13 89.15,117.03 C88.64,115.75 88.15,114.46 87.58,113.19 C84.81,117.81 79,126.52 71.81,131.59 Z" id="Path" fill="#FFFFFF"></path>
            <path d="M75.34,168.22 C75.34,168.22 79.34,169.84 79.01,173.53 L72.91,179.35 L71.3,173.72 L75.34,168.22 Z" id="Path" fill="#FFAEAB"></path>
            <path d="M0,295.1 C0.0148413478,295.618662 0.0582404188,296.136112 0.13,296.65 L26.35,296 C26.35,295.48 26.35,295 26.28,294.46 C25.933637,290.103918 24.9984583,285.81488 23.5,281.71 L16.88,279.06 C16.6192212,281.783508 15.3017303,284.296434 13.21,286.06 C12.7510462,286.441584 12.2552719,286.776567 11.73,287.06 C11.5,287.2 11.26,287.32 11.01,287.44 C10.4724548,287.697803 9.91781227,287.918323 9.35,288.1 C7.2993874,288.682618 5.20633401,289.103903 3.09,289.36 C0.3,289.89 0,293.13 0,295.1 Z" id="Path" fill="#F47F31"></path>
            <path d="M0,295.1 C0.0148413478,295.618662 0.0582404188,296.136112 0.13,296.65 L26.35,296 C26.35,295.48 26.35,295 26.28,294.46 L0,295.1 Z" id="Path" fill="#FFFFFF"></path>
            <path d="M11.73,287.09 L15.4,288.17 L16.14,286.82 L13.21,286.09 C12.7510462,286.471584 12.2552719,286.806567 11.73,287.09 L11.73,287.09 Z" id="Path" fill="#FFFFFF"></path>
            <path d="M9.35,288.13 L11.84,289.7 L13.34,289.07 L11,287.47 C10.4656985,287.727379 9.91441077,287.947894 9.35,288.13 L9.35,288.13 Z" id="Path" fill="#FFFFFF"></path>
            <path d="M46.54,294 C46.5911835,294.525108 46.7053365,295.042154 46.88,295.54 L64.34,295.11 C64.5417413,294.60634 64.6924947,294.083728 64.79,293.55 C66.31,285.15 54.45,275.21 54.45,275.21 L50.89,280.21 C50.89,280.21 51.51,288.06 48.43,289.78 C46.9684228,290.643162 46.2107921,292.334803 46.54,294 L46.54,294 Z" id="Path" fill="#F47F31"></path>
            <path d="M64.79,293.51 L46.54,294 C46.5911835,294.525108 46.7053365,295.042154 46.88,295.54 L64.34,295.11 C64.5443326,294.593463 64.6951224,294.057321 64.79,293.51 L64.79,293.51 Z" id="Path" fill="#FFFFFF"></path>
            <path d="M49.21,289.1 C49.21,289.1 56.53,287.24 59.94,289.33 L59.94,288.12 C59.94,288.12 53.64,285.26 49.21,289.1 Z" id="Path" fill="#FFFFFF"></path>
            <path d="M50.63,287.2 C50.63,287.2 55.27,284.93 59.88,286.97 L59.33,285.76 C59.33,285.76 53.84,283.83 50.63,287.2 Z" id="Path" fill="#FFFFFF"></path>
            <path d="M72.39,158.16 C72.8,174.78 71.58,191.73 71.26,196.04 C70.94,200.35 63.52,284.04 63.52,284.04 C63.52,284.04 55.38,278.28 50.39,283.84 L51.23,180.67 L47.23,180.51 C47.23,180.51 26.57,283.16 26.64,287.51 L13.92,282.85 L17.17,259.92 C17.17,259.92 29.22,170.92 27.89,160.92 L72.39,158.16 Z" id="Path" fill="#123C5E"></path>
            <path d="M71.16,168.32 C71.16,168.32 75.31,174.81 75.61,179.32 L70,188.49 L71.16,168.32 Z" id="Path" fill="#123C5E"></path>
            <path d="M44.44,77.25 C44.44,77.25 45.84,81.48 43.85,83.73 C43.85,83.73 47.39,90.27 54.79,84.66 C54.79,84.66 53.27,81.07 54.65,78.66 L44.44,77.25 Z" id="Path" fill="#F9927D"></path>
            <path d="M58.93,66.17 C58.93,66.17 61.69,63.28 62.12,66.57 C62.62,70.39 59.18,72.01 58.47,70.81 C57.76,69.61 58.93,66.17 58.93,66.17 Z" id="Path" fill="#F9927D"></path>
            <path d="M39.11,66.86 C39.11,66.86 36.2,64.1 35.94,67.41 C35.63,71.25 39.14,72.71 39.79,71.47 C40.44,70.23 39.11,66.86 39.11,66.86 Z" id="Path" fill="#F9927D"></path>
            <path d="M49.65,80.27 C55.94,80.11 59.38,75.92 59.08,63.62 C58.92,57.27 55.6,53.45 48.56,53.62 C41.52,53.79 38.65,57.76 38.81,64.1 C39.14,77.34 43.16,80.43 49.65,80.27 Z" id="Path" fill="#FFAEAB"></path>
            <path d="M42.88,61.92 C42.9631834,61.9310414 43.0470715,61.9055103 43.11,61.85 C43.8541052,61.3634622 44.7498652,61.1644044 45.63,61.29 C45.719053,61.3113705 45.8129898,61.2908937 45.8850694,61.2343989 C45.957149,61.1779041 45.9994756,61.0915798 46,61 C46.0303286,60.8315634 45.9184208,60.6704162 45.75,60.64 C44.6987916,60.4840539 43.6274473,60.7304631 42.75,61.33 C42.6913747,61.3881998 42.6584033,61.4673916 42.6584033,61.55 C42.6584033,61.6326084 42.6913747,61.7118002 42.75,61.77 C42.7750576,61.8333025 42.8209016,61.8861995 42.88,61.92 Z" id="Path" fill="#123C5E"></path>
            <path d="M54.9,61.66 C54.9782305,61.6501046 55.0497499,61.6107689 55.1,61.55 C55.1525381,61.4853478 55.1768436,61.4022706 55.1674373,61.3194958 C55.1580311,61.2367209 55.1157049,61.1612154 55.05,61.11 C54.1674476,60.5238761 53.0937735,60.2984046 52.05,60.48 C51.8815792,60.5104162 51.7696714,60.6715634 51.8,60.84 C51.8304162,61.0084208 51.9915634,61.1203286 52.16,61.09 C53.0340716,60.947799 53.9300046,61.1291188 54.68,61.6 C54.7408752,61.6515058 54.8214045,61.6734684 54.9,61.66 Z" id="Path" fill="#123C5E"></path>
            <path d="M43.61,65.45 C43.61,66.23 44,66.85 44.43,66.84 C44.86,66.83 45.2,66.19 45.18,65.41 C45.16,64.63 44.8,64 44.36,64 C43.92,64 43.59,64.67 43.61,65.45 Z" id="Path" fill="#1A4850"></path>
            <path d="M52,65.24 C52,66.02 52.39,66.64 52.82,66.63 C53.25,66.62 53.59,65.98 53.57,65.2 C53.55,64.42 53.19,63.8 52.75,63.81 C52.31,63.82 52,64.46 52,65.24 Z" id="Path" fill="#1A4850"></path>
            <path d="M55.26,55.64 C55.26,55.64 51.73,56.26 42.12,55.81 C42.12,55.81 41.48,59.08 39.9,60.56 C39.3876838,63.1952509 39.1431069,65.8755463 39.17,68.56 C39.17,68.56 32.61,50.33 49.52,50.4 C66.7,50.46 59,67.7 59,67.7 C58.8617355,65.8601847 58.5944109,64.0323533 58.2,62.23 C56.7099259,60.298364 55.7020418,58.0391952 55.26,55.64 Z" id="Path" fill="#123C5E"></path>
            <path d="M49,69.4 L49.46,68.91 L48.18,67.71 C49.34,66 49.23,62 49.23,61.86 L48.56,61.86 C48.56,61.86 48.67,66.14 47.48,67.51 L47.26,67.75 L49,69.4 Z" id="Path" fill="#F9927D"></path>
            <path d="M51.5500132,73.72 C49.6783957,73.8338243 47.8016043,73.8338243 45.93,73.72 C45.93,73.72 45.63,75.25 48.53,75.25 C51.59,75.2 51.5500132,73.72 51.5500132,73.72 Z" id="Path" fill="#FFFFFF"></path>
            <path d="M29.66,73.73 C32.4539932,77.5247603 36.3461823,80.3697236 40.81,81.88 C40.81,81.88 39.55,88.34 48.14,88.73 C56.08,89.09 57.75,83.83 57.75,83.83 C57.75,83.83 70.18,85.62 74.2,88.16 C78.22,90.7 80.63,146.16 78.47,151.72 C76.31,157.28 67.47,163.28 46.73,162.35 C25.99,161.42 24.54,154.72 24.89,151.83 C25.24,148.94 22.54,112.9 23.55,100 C25.16,79.35 29.66,73.73 29.66,73.73 Z" id="Path" fill="#F7B634"></path>
            <path d="M75.05,156.26 L75.19,162.09 C75.19,162.09 44.33,167.91 26.59,161.09 L26.94,156.98 C26.94,156.98 58.86,159.71 75.05,156.26 Z" id="Path" fill="#F7B634"></path>
            <path d="M57.75,83.83 C57.75,83.83 56.28,82.83 55.75,83.05 C55.75,83.05 53.11,88.67 47.96,87.9 C45.0285387,87.5335615 42.6946897,85.2690752 42.24,82.35 C42.24,82.35 41.5,81.09 40.77,81.88 C40.04,82.67 40,89.77 48.05,90 C56.1,90.23 57.92,85.28 57.75,83.83 Z" id="Path" fill="#123C5E"></path>
            <path d="M66.81,100.48 L59.25,102.16 L60.32,108.05 C60.32,108.05 64.08,105.83 65.59,108.28 C66.49,109.73 65.13,114.91 60.2,112.77 L60.2,114.68 C60.2,114.68 65.61,116.06 67.39,111.43 C69.17,106.8 66.39,104.43 61.62,105.78 L61.3,103.78 L67,102.26 L66.81,100.48 Z" id="Path" fill="#FFFFFF"></path>
        </g>
    </g>
</svg>