<svg xmlns="http://www.w3.org/2000/svg" viewBox="0 0 141.05 321.4"><defs><style>.cls-1{fill:#faaeb0;}.cls-2{fill:#3a2c32;}.cls-3{fill:#fff;}.cls-4{fill:#09090b;}.cls-5{fill:#123c5e;}.cls-11,.cls-13,.cls-14,.cls-6{fill:none;stroke-miterlimit:10;}.cls-6{stroke:#09090b;stroke-width:0.75px;}.cls-7{fill:#ffaeab;}.cls-8{fill:#f7a59c;}.cls-9{fill:#ff7133;}.cls-10{fill:#ffb1a5;}.cls-11{stroke:#ccc;stroke-width:1.03px;}.cls-12{fill:#f9927d;}.cls-13{stroke:#123c5e;}.cls-14{stroke:#fff;stroke-width:0.75px;}</style></defs><title>boy-academy</title><g id="Layer_2" data-name="Layer 2"><g id="Layer_1-2" data-name="Layer 1"><polygon class="cls-1" points="116.46 311.37 116.07 279.83 104.33 279.15 106.01 312.13 116.46 311.37 116.46 311.37"/><path class="cls-2" d="M104.69,305.94s9,4.37,13.18-2.51l21.78,13.29-37.74-.28Z"/><polygon class="cls-3" points="139.63 320.48 101.89 320.19 101.91 316.44 139.65 316.72 139.63 320.48"/><polygon class="cls-4" points="105.15 295.47 116.28 298.57 116.24 295.36 105.15 295.47"/><polygon class="cls-1" points="36.91 312.53 47.84 280.99 59.58 280.31 47.36 313.29 36.91 312.53 36.91 312.53"/><path class="cls-2" d="M51.25,306.87s-9,4.37-13.18-2.51L16.29,317.65,54,317.37Z"/><polygon class="cls-3" points="16.32 321.4 54.05 321.12 54.03 317.37 16.29 317.65 16.32 321.4"/><polygon class="cls-4" points="43.95 292.22 53.55 296.57 54.72 293.43 43.95 292.22"/><polygon class="cls-5" points="114.03 148.56 119.21 295.37 102.71 295.37 87.83 171.31 58.91 294.39 42.15 292.13 63.24 148.56 114.03 148.56"/><line class="cls-6" x1="87.83" y1="171.32" x2="78.69" y2="167.62"/><path class="cls-7" d="M108.91,106.89s13.76,33.82,20.53,70.29l7.09-1.59s-4-44-13.49-76.77Z"/><path class="cls-8" d="M135.83,172.62s12,17-.37,26.12a1.89,1.89,0,0,1-2.59-.3l-.09-.1a2.54,2.54,0,0,1-.08-3.14c1.69-2.26,3.86-6.81-.46-12.14,0,0-2,.78-1.36,5.36a1.86,1.86,0,0,1-1.7,2.24h0a1.75,1.75,0,0,1-1.58-1.32c-.89-3-2.52-10.43,1.52-14.86Z"/><path class="cls-9" d="M109.07,73.34s9.62,3,17,23.94l-17.93,12.17-3.81-11.26Z"/><path class="cls-7" d="M74.82,65.67,14.27,11.93,5.52,14c-2.21-2.4,34.14,42.26,60.2,65.38Z"/><path class="cls-7" d="M1.45,14.8a7.1,7.1,0,0,0,10.66,1.91,9.32,9.32,0,0,0,1.7-12A7.1,7.1,0,0,0,3.15,2.79,9.33,9.33,0,0,0,1.45,14.8Z"/><path class="cls-10" d="M9,1.31s2.09-3.14,4.68.3S18,11.1,12.11,16.71Z"/><path class="cls-9" d="M52.54,76.35,59,50.9,74,61.31a23.21,23.21,0,0,0,5.87,2.11v4.3l-5.05.89-4.92,30Z"/><path class="cls-9" d="M77.37,62.76l-6.23,10.7c-2.39,1-5.42,6.71-4.79,9.5l-5.41,66.11,54.12,7-3.54-78.76c.39-1.94-.07-2.92-1.71-3.66l-12.4-5.56Z"/><line class="cls-11" x1="112.13" y1="101.38" x2="112.83" y2="118.86"/><line class="cls-11" x1="66.19" y1="98.52" x2="67.01" y2="87.81"/><path class="cls-7" d="M90.36,67.05l-.6-16.62-11.61-.37-.71,19.49c-.07,2.13,1.57,1.74,3.46,1.64l6.41-.37A3.49,3.49,0,0,0,90.36,67.05Z"/><polygon class="cls-12" points="78.57 53.9 90.16 61.58 89.76 50.44 78.57 53.9"/><path class="cls-7" d="M103.62,38.6a4.38,4.38,0,1,1-8.7,0,4.38,4.38,0,1,1,8.7,0Z"/><path class="cls-5" d="M96.83,39.67c.24-.36,1.09-3.11,3.82-2.66"/><path class="cls-7" d="M64.9,38.6a4.38,4.38,0,1,0,8.7,0,4.38,4.38,0,1,0-8.7,0Z"/><path class="cls-5" d="M71.69,39.67c-.24-.36-1.08-3.11-3.82-2.66"/><path class="cls-7" d="M97.79,29.85a76.28,76.28,0,0,1-1.61,15.46,13.23,13.23,0,0,1-6.1,8.46l-.56.38a9.81,9.81,0,0,1-10.9.14h0c-3.37-2.17-5.74-5-6.46-9a112.35,112.35,0,0,1-1.47-15.4S69.43,14.09,84,14.4,97.79,29.85,97.79,29.85Z"/><path class="cls-5" d="M71.47,36.25s3.08-11.19.85-18.44C72.32,17.81,65.35,21.71,71.47,36.25Z"/><path class="cls-5" d="M97.23,36.25s-3.89-11.19-1.65-18.44C95.58,17.81,102.59,20.81,97.23,36.25Z"/><path class="cls-5" d="M71.3,19.49s19.31,11.16,26.8,2.32c0,0,6.13-7-.62-12.34s-22.23,4.08-22.23,4.08S71.79,14.48,71.3,19.49Z"/><path class="cls-5" d="M71.3,19.49S67.69,12.29,78,8.74c0,0,2.5,2.89-1.07,6.68S71.3,19.49,71.3,19.49Z"/><path class="cls-5" d="M79.11,36.25a1.35,1.35,0,1,1-1.35-1.51A1.43,1.43,0,0,1,79.11,36.25Z"/><ellipse class="cls-5" cx="90.24" cy="36.25" rx="1.35" ry="1.51"/><path class="cls-13" d="M83.32,39.13v2a.74.74,0,0,0,.84.8l1-.23"/><path class="cls-5" d="M82,31.51l-8.17,1.1s.66-2.43,4-2.85S82,31.51,82,31.51Z"/><path class="cls-5" d="M86.38,31.51l8.16,1.1s-.66-2.43-4-2.85S86.38,31.51,86.38,31.51Z"/><path class="cls-14" d="M82,36.71c0,3.3-2.38,6-5.32,6s-5.32-2.67-5.32-6,2.38-6,5.32-6S82,33.42,82,36.71Z"/><ellipse class="cls-14" cx="91.75" cy="36.71" rx="5.32" ry="5.97"/><path class="cls-14" d="M82,37.21s1.88-3.24,4.43,0"/><path class="cls-3" d="M79.42,44.36H88s-.68,2.49-4.29,2.49A4.92,4.92,0,0,1,79.42,44.36Z"/><polygon class="cls-7" points="80.91 64.03 70.04 63.06 80.02 73.48 95.21 68.22 80.91 64.03"/></g></g></svg>