<?xml version="1.0" encoding="UTF-8"?>
<svg xmlns="http://www.w3.org/2000/svg" viewBox="0 0 223.15 313.5">
   <defs>
      <style>.cls-1{fill:#fff;}.cls-2{fill:#edbc4f;}.cls-3{fill:#ffaeab;}.cls-4{fill:#fa968c;}.cls-5{fill:#feb01b;}.cls-6{fill:#364056;}</style>
   </defs>
   <title>face</title>
   <g id="Layer_2" data-name="Layer 2">
      <g id="Layer_1-2" data-name="Layer 1">
         <path d="M64.17,282.1l1.27-23.76c0-.38-.58-.38-.6,0L63.57,282.1c0,.38.58.38.6,0Z" />
         <path d="M164.78,282.11l-.85-23.77c0-.39-.62-.39-.6,0l.85,23.77c0,.38.61.39.6,0Z" />
         <path class="cls-1" d="M139.26,205.27l-46,.39s-3.11.25-7.6,1.07c-3.34.61-7.05,1-12.12,2.26,31.24,20,62.15,17.17,90.58,3.58A45.13,45.13,0,0,0,146.63,206,58.52,58.52,0,0,0,139.26,205.27Z" />
         <path class="cls-2" d="M73.5,209c-5.4,1.76-13.66,2.07-21.11,6.2-6,3.34-11.07,6.17-16.79,14.43C33.79,232.25,0,286.86,0,286.86s107.7,59.94,223.15,0c0,0-18.48-53.85-42.48-68.75-10.06-6.24-14.74-5.33-16.5-5.53C128.17,225.82,108.67,228.46,73.5,209Z" />
         <path class="cls-3" d="M66.43,116.49c0,10-7.67,18.07-17.21,18.11s-17.29-8-17.32-18,7.67-18.07,17.2-18.11S66.39,106.52,66.43,116.49Z" />
         <path class="cls-3" d="M197.35,116c0,10-7.67,18.08-17.2,18.11s-17.29-8-17.33-18S170.5,98.09,180,98.05,197.32,106.08,197.35,116Z" />
         <path class="cls-3" d="M93.22,205.66s6,7.41,22.33,7.36,23.71-7.75,23.71-7.75a45.94,45.94,0,0,1-9.59-14.44,85.36,85.36,0,0,1-30.5,7.09A24.9,24.9,0,0,1,93.22,205.66Z" />
         <path class="cls-4" d="M104.13,178.93s-.49,10.28-5,19a85.36,85.36,0,0,0,30.5-7.09,40,40,0,0,1-3.06-12.38S114.87,180.93,104.13,178.93Z" />
         <path d="M37.17,116.83h.12a.19.19,0,0,0,.16-.1c3.22-6,11.19-6.15,13.93.42A.31.31,0,0,0,52,117a7.61,7.61,0,0,0-7.63-5.73,8.84,8.84,0,0,0-4.93,1.85,25.13,25.13,0,0,0-2.25,3.35.18.18,0,0,0,0,.36Z" />
         <path d="M42.9,121.33c1.22-.74,2.25-1.77,3.51-2.49,1.47-.85,3.15-.65,4.79-.64a.4.4,0,0,0,0-.79c-1.48,0-3.14-.22-4.52.43a15.39,15.39,0,0,0-2.37,1.56c-.68.48-1,1.17-1.61,1.67-.14.12,0,.35.2.26Z" />
         <path d="M190.87,116a24.82,24.82,0,0,0-2.27-3.34,8.79,8.79,0,0,0-4.95-1.82,7.6,7.6,0,0,0-7.58,5.78.31.31,0,0,0,.6.17c2.69-6.6,10.66-6.55,13.92-.52a.2.2,0,0,0,.16.09h.12a.18.18,0,0,0,0-.35Z" />
         <path d="M185.37,120.59c-.58-.45-.84-1.1-1.45-1.55a15.22,15.22,0,0,0-2.55-1.65c-1.39-.63-3-.41-4.52-.4a.39.39,0,0,0,0,.78c1.64,0,3.33-.24,4.8.61,1.26.72,2.3,1.74,3.52,2.47.16.09.35-.14.2-.26Z" />
         <path d="M58.89,306.74l6.62-46.34c0-.38-.52-.54-.58-.16l-6.62,46.34c-.05.38.52.54.58.16Z" />
         <path d="M173.92,305.34,158.2,256.1c-.12-.37-.7-.21-.58.16l15.72,49.24c.12.37.7.21.58-.16Z" />
         <path class="cls-3" d="M176.33,109.64c-.45-37.27-12.13-76.42-62.47-76.22C69.63,33.6,52.63,72,51.93,108.87c0,.94,0,1.88,0,2.82C52,139.33,67,163.08,88.57,173.77c33.83.89,64.81-17.43,85.44-43.7a74.38,74.38,0,0,0,2.34-18.8C176.35,110.73,176.34,110.18,176.33,109.64Z" />
         <path class="cls-4" d="M88.57,173.77a57.37,57.37,0,0,0,25.79,6c28.43-.09,52.31-21.12,59.65-49.75C153.38,156.34,122.4,174.66,88.57,173.77Z" />
         <path d="M91.49,112.38c0,2.65-1.67,4.8-3.74,4.8S84,115,84,112.38s1.67-4.81,3.74-4.81S91.49,109.72,91.49,112.38Z" />
         <ellipse cx="146.78" cy="112.38" rx="3.74" ry="4.81" />
         <path class="cls-5" d="M66.91,67.81c.18-1.19.31-2.1.39-2.69l-.78,0C66.58,65.67,66.69,66.67,66.91,67.81Z" />
         <path class="cls-5" d="M66.44,65.07h.08C66.45,64.39,66.44,64.24,66.44,65.07Z" />
         <path d="M113.93,132.92a8.4,8.4,0,0,0,2.78,6.06c1.61,1.18,4.24,1.32,6.13,1a.32.32,0,0,0,0-.61c-1.89-.34-3.91.23-5.6-1s-2.47-3.66-2.93-5.5c0-.22-.37-.16-.38,0Z" />
         <path d="M124.29,127c2.22.05,5.41-6.49,5.83-8.3.59-2.49.1-6.25-3.22-6.33-2.42,0-2.87,2.53-4.7,3.33-6.9,3-6.38-8.2-6.37-11.41,0-3.66,0-7.28.27-10.92.37-4.56.27-10.33,2.08-14.54.22-.51-.52-1-.74-.44-2.14,5-2,11.49-2.34,16.83-.32,5.63-.57,11.74.69,17.28.42,1.85,1,5.43,3.48,5.71s2.75-2.8,4.46-3.1l5.81,3.43a10,10,0,0,1-1.33,3.17c-.33.58-2.82,4.88-3.92,4.9a.2.2,0,0,0,0,.39Z" />
         <path class="cls-6" d="M162.82,59.48c.45.72,1.86,27.45,13,39.14,0,0,5.59-1.58,9.41.26,0,0-1.36-34.12-6.88-44.19S162.82,59.48,162.82,59.48Z" />
         <path class="cls-6" d="M125.44,10.72a95.43,95.43,0,0,1-13.73.09,110.56,110.56,0,0,0-12.89,0C82.49,26.71,60.87,37.49,38.22,44a35.84,35.84,0,0,0-5,11.3C69.81,50.89,101.79,36.64,125.44,10.72Z" />
         <path class="cls-6" d="M174.06,33.42C184.14,9.09,166.38-.46,153,0c-11.22.4-8.72,9-27.51,10.7-23.65,25.92-55.63,40.17-92.2,44.61C27.86,76.73,41,100.62,41,100.62c4.79-4,13.13-1.09,13.13-1.09C59.44,90.9,67.3,60.68,67.3,60.68s38.91,6.31,69.83,8.4c24.71,1.66,44.36-6.48,46.49-23.26S174.06,33.42,174.06,33.42Z" />
         <path class="cls-6" d="M38.22,44c22.65-6.54,44.27-17.32,60.6-33.21-25,1.45-36.27,11.26-36.27,11.26s.72-17-4.55-16.79-3.36,21.58-3.36,21.58S47.21,9.61,42.82,13.2s6.34,20.22,6.34,20.22A37.81,37.81,0,0,0,38.22,44Z" />
         <path class="cls-5" d="M117.23,210.31s-16.92-3.73-20.75-8.1l3.06-5.05a9.85,9.85,0,0,0-10.61,5.72c-3.48,7.19-.53,8.51,4.29,12.71s7.22,9.23,10.82,11.15S115.43,218.71,117.23,210.31Z" />
         <path class="cls-5" d="M114.76,209.59s16.92-3.73,20.75-8.1l-3.07-5.05a9.87,9.87,0,0,1,10.62,5.72c3.48,7.19.53,8.51-4.29,12.71S131.55,224.1,128,226,116.56,218,114.76,209.59Z" />
         <path class="cls-6" d="M64.75,95c-.36-.56,5.47-15.52,12.57-16.7,3.88-.2,4.21,1.7,4.21,1.7s5.06-6,8.36-2c1,1.76-2.3,4.66-2.3,4.66s5.75-1.33,2.63,3.58-17.06,2.36-24.38,8.52" />
         <path class="cls-6" d="M163.71,95c.36-.56-5.47-15.52-12.57-16.7-3.88-.2-4.21,1.7-4.21,1.7s-5.06-6-8.36-2c-1,1.76,2.3,4.66,2.3,4.66s-5.75-1.33-2.63,3.58,17.06,2.36,24.38,8.52" />
         <path class="cls-1" d="M82.54,133.78h0c-6.94,0-12.88-.91-15.89-2.43-10.74-5.43-8-30.28-7.87-31.34.14-5.32,20.83-8.65,33.84-9.47,1-.06,1.93-.09,2.81-.09,6.12,0,10.48,1.42,12.95,4.23a7.92,7.92,0,0,1,2,5.83c0,.44-.3,14.53-1.94,24.52C107.41,131.49,93.84,133.78,82.54,133.78ZM95.43,93.33c-.83,0-1.7,0-2.63.09-18.66,1.17-30.38,5.18-31.18,6.92C60.87,107,60.52,125,68,128.78c2.59,1.31,8.18,2.12,14.59,2.12h0c12.37,0,22.51-2.78,23.1-6.34,1.61-9.79,1.91-24.11,1.91-24.26a5,5,0,0,0-1.37-3.77C104.29,94.44,100.57,93.33,95.43,93.33Z" />
         <path class="cls-1" d="M176.17,100.14c-.16-5.45-20.85-8.78-33.86-9.6-1-.06-1.93-.09-2.8-.09-6.12,0-10.48,1.42-13,4.23a7.84,7.84,0,0,0-2,5.68c0,.36.12,5.59.57,11.87a1.69,1.69,0,0,1,.48-.15h.06a6.41,6.41,0,0,1,2.32-.19c-.44-6.29-.55-11.55-.56-11.73a5.07,5.07,0,0,1,1.34-3.57c1.88-2.13,5.61-3.25,10.8-3.25.82,0,1.69,0,2.62.09,18.66,1.17,30.38,5.18,31.17,6.92.76,6.64,1.12,24.68-6.32,28.44-2.59,1.31-8.17,2.12-14.58,2.12-12.37,0-22.52-2.79-23.11-6.34-.08-.54-.17-1.1-.25-1.66a5.68,5.68,0,0,1-1.39,2.09,10,10,0,0,1-.87,1c2.19,5.72,14.9,7.81,25.62,7.81,6.93,0,12.87-.91,15.88-2.43C179,125.92,176.28,101.07,176.17,100.14Z" />
         <path class="cls-1" d="M108.6,112.43l-1.4-2.52c.41-.22,10.1-5.47,19.94,0l-1.4,2.52C117.33,107.75,108.68,112.38,108.6,112.43Z" />
      </g>
   </g>
</svg>