<?xml version="1.0" encoding="UTF-8"?>
<svg width="142px" height="255px" viewBox="0 0 142 255" version="1.1" xmlns="http://www.w3.org/2000/svg" xmlns:xlink="http://www.w3.org/1999/xlink">
    <!-- Generator: Sketch 59 (86127) - https://sketch.com -->
    <title>girl-boy</title>
    <desc>Created with Sketch.</desc>
    <g id="Page-1" stroke="none" stroke-width="1" fill="none" fill-rule="evenodd">
        <g id="girl-boy">
            <path d="M12.4,247.79 L5,251.47 C4.19990349,251.849217 3.78067238,252.74218 4,253.6 C4.19,254.26 4.83,254.88 6.48,254.91 C10.17,254.97 26.48,252.43 26.48,252.43 L26.48,254.14 L34.04,253.29 C34.04,253.29 34.57,244.64 32.27,243.37 L12.4,247.79 Z" id="Path" fill="#1BBFBF" fill-rule="nonzero"></path>
            <path d="M24.41,239.14 L12.41,247.79 C12.41,247.79 13.7,251.09 19.41,248.89 C25.12,246.69 32.23,243.37 32.23,243.37 L31.23,238.2 L24.41,239.14 Z" id="Path" fill="#FFB1A5" fill-rule="nonzero"></path>
            <polygon id="Path" fill="#FFB1A5" fill-rule="nonzero" points="32.19 243.38 37.13 211.3 25.14 212.44 23.09 242.23"></polygon>
            <polygon id="Path" fill="#F9927D" fill-rule="nonzero" points="23.81 231.73 33.64 233.92 33.98 231.73"></polygon>
            <path d="M97.71,247.79 L105.16,251.47 C105.960097,251.849217 106.379328,252.74218 106.16,253.6 C105.97,254.26 105.33,254.77 103.68,254.8 C99.99,254.87 83.68,252.43 83.68,252.43 L83.68,254.14 L76.11,253.29 C76.11,253.29 75.58,244.64 77.89,243.37 L97.71,247.79 Z" id="Path" fill="#1BBFBF" fill-rule="nonzero"></path>
            <path d="M85.7,239.14 L97.7,247.79 C97.7,247.79 96.42,251.09 90.7,248.89 C84.98,246.69 77.89,243.37 77.89,243.37 L78.89,238.2 L85.7,239.14 Z" id="Path" fill="#FFB1A5" fill-rule="nonzero"></path>
            <polygon id="Path" fill="#FFB1A5" fill-rule="nonzero" points="77.93 243.38 72.98 211.3 84.98 212.44 87.03 242.23"></polygon>
            <polygon id="Path" fill="#F9927D" fill-rule="nonzero" points="76.03 231.08 86.26 231.15 86.44 233.66"></polygon>
            <path d="M44.53,83.93 C44.53,83.93 34.24,87.26 26.64,122.14 C19.04,157.02 21.09,205.55 19.75,231.45 L37.13,231.72 L56.94,123.83 L72.16,231.72 L89.5401142,232 C89.5401142,232 89.78,95.68 68.26,83.93 L44.53,83.93 Z" id="Path" fill="#E8792E" fill-rule="nonzero"></path>
            <line x1="56.94" y1="123.83" x2="64.2" y2="121.07" id="Path" stroke="#ECBC4F"></line>
            <path d="M67.1,41.63 C71.9931496,42.0607334 76.4172825,44.7152131 79.1,48.83 C83.56,55.83 97.52,70.24 118.52,77.52 L119.34,83.72 C119.34,83.72 84.67,77.88 70.56,63.22 L67.1,41.63 Z" id="Path" fill="#FFAEAB" fill-rule="nonzero"></path>
            <path d="M34,45.76 C34,45.76 30.27,54.56 38.2,67.16 L44.99,60.16 L42.18,47.16 L34,45.76 Z" id="Path" fill="#FFAEAB" fill-rule="nonzero"></path>
            <path d="M42.43,43.52 L34,45.76 C34,45.76 41.09,53.82 38.2,67.16 L44.5,80.38 L68.38,80.44 L73.49,64.66 C74.9,60.32 75.97,55.73 73.84,51.66 L68.38,41.66 L63.14,41.44 L42.43,43.52 Z" id="Path" fill="#FFFFFF" fill-rule="nonzero"></path>
            <path d="M44.53,80.38 L44.53,83.93 C44.53,83.93 68.67,84.48 68.26,83.93 C67.85,83.38 68.41,80.44 68.41,80.44 L44.53,80.38 Z" id="Path" fill="#FFB1A5" fill-rule="nonzero"></path>
            <path d="M34,45.759985 C34,45.759985 24.62,45.68 18.5,57.22 L1.1,78.74 C-0.193162854,80.860103 -0.348172979,83.4842433 0.686395117,85.7418474 C1.72096321,87.9994514 3.80982925,89.5953145 6.26,90 L6.26,90 C9,90.47 11,89.33 12,87.06 L36.38,62.13 L34,45.759985 Z" id="Path" fill="#FFAEAB" fill-rule="nonzero"></path>
            <path d="M36.4,105.6 L4.93,89.69 C1.43233145,88.5148407 -0.619245566,84.8944107 0.17,81.29 L0.17,81.29 C1.22,76.51 5.85,74.13 10.09,76.57 L40.09,97.74 L36.4,105.6 Z" id="Path" fill="#FFAEAB" fill-rule="nonzero"></path>
            <polygon id="Path" fill="#FFB1A5" fill-rule="nonzero" points="37.85 97.25 43.91 95.68 37.97 107.25 32.16 103.64"></polygon>
            <line x1="45.27" y1="92.97" x2="36.23" y2="110.66" id="Path" stroke="#ECBC4F"></line>
            <path d="M58.93,1.71 C58.93,1.71 68.65,2.2 69.58,12.89 C70.27,20.89 68.73,24.43 74.8,30.82 C74.8,30.82 57.05,41.29 31.58,33.59 C31.58,33.59 36.37,25.33 36.24,17.49 C36.11,9.65 38.35,6.2 42.44,3.23 C46.53,0.26 54.84,-1.49 58.93,1.71 Z" id="Path" fill="#123C5E" fill-rule="nonzero"></path>
            <path d="M62.19,21 C62.1516462,23.4958913 64.1437673,25.5503571 66.6396555,25.5889105 C69.1355437,25.6274638 71.1901688,23.635507 71.2289217,21.1396219 C71.2676746,18.6437368 69.275882,16.5889524 66.78,16.55 C64.2857503,16.5165755 62.2338286,18.5059114 62.19,21 Z" id="Path" fill="#EF968F" fill-rule="nonzero"></path>
            <path d="M58.3,32.44 L58.22,42.23 C58.22,45.28 56.31,44.89 53.31,44.84 L53.31,44.84 C50.75,44.84 47.61,45.51 47.31,42.96 L48.1,28.14 L58.3,32.44 Z" id="Path" fill="#FFAEAB" fill-rule="nonzero"></path>
            <polygon id="Path" fill="#F9927D" fill-rule="nonzero" points="58.25 38.13 48.68 30.1 58.33 31.55"></polygon>
            <path d="M58,34.18 L58,34.18 C63.77,33.88 68.33,28.62 68.25,23.9 L68,13.66 C67.8777526,7.75939851 63.1207124,3.00677114 57.22,2.89 L57.22,2.89 C51.16,2.8 45.12,7.61 45,13.67 L45.31,22.67 C45.57,29.55 51.08,34.07 58,34.18 Z" id="Path" fill="#FFAEAB" fill-rule="nonzero"></path>
            <path d="M62.19,22.21 L62.44,23.64 C62.468701,23.80027 62.4287145,23.9652234 62.3298098,24.0945604 C62.230905,24.2238974 62.082191,24.3057062 61.92,24.32 L61.12,24.4" id="Path" stroke="#123C5E"></path>
            <path d="M56,15.41 C56,15.41 58.45,15.07 58.53,16.07 C58.53,16.07 58.53,16.75 56.43,17 C54.33,17.25 53.09,17.23 52.86,16.6 C52.63,15.97 54.85,15.48 56,15.41 Z" id="Path" fill="#123C5E" fill-rule="nonzero"></path>
            <path d="M65.68,15.24 C65.68,15.24 63.68,15.15 63.52,16.09 C63.52,16.09 63.46,16.74 65.25,16.78 C67.04,16.82 67.6,16.57 67.74,16.05 C67.88,15.53 66.65,15.21 65.68,15.24 Z" id="Path" fill="#123C5E" fill-rule="nonzero"></path>
            <path d="M64.52,19.71 C64.5472815,20.2549396 65.0063477,20.6774216 65.551674,20.659457 C66.0970003,20.6414925 66.527266,20.1897136 66.5186237,19.6441599 C66.5099814,19.0986062 66.0656217,18.6606825 65.52,18.6599992 C65.2458887,18.6596571 64.9836536,18.7718495 64.7946112,18.970344 C64.6055689,19.1688386 64.5062942,19.4362314 64.52,19.71 Z" id="Path" fill="#123C5E" fill-rule="nonzero"></path>
            <path d="M55.44,19.9 C55.472656,20.4432713 55.9337836,20.8606727 56.4776126,20.8392213 C57.0214416,20.81777 57.4482589,20.3653437 57.4380214,19.8211881 C57.4277838,19.2770325 56.984251,18.8409806 56.44,18.8399984 C56.1640529,18.8395028 55.9001655,18.9530554 55.7108046,19.153778 C55.5214438,19.3545005 55.4234427,19.6245496 55.44,19.9 Z" id="Path" fill="#123C5E" fill-rule="nonzero"></path>
            <path d="M63.9,26.24 L57.75,25.83 C57.75,25.83 58.75,26.97 61.62,26.97 C63.43,27 63.9,26.24 63.9,26.24 Z" id="Path" fill="#FFFFFF" fill-rule="nonzero"></path>
            <path d="M57,40.63 L64.05,41.58 C64.05,41.58 60.91,51.64 41.08,44 L48.08,41.81 L57,40.63 Z" id="Path" fill="#FFAEAB" fill-rule="nonzero"></path>
            <path d="M60,1.89 C60,1.89 65.12,4.05 63.78,7.5 C62.12,11.77 53.25,17.65 44.33,19.26 C44.33,19.26 39.48,11.63 44.33,6.97 C49.18,2.31 53,1.75 53,1.75 L60,1.89 Z" id="Path" fill="#123C5E" fill-rule="nonzero"></path>
            <path d="M68,13.66 C68,13.66 60.5,8.43 60.72,3.77 C60.72,3.77 58.86,1.97 63.21,3.52 C67.56,5.07 69.25,10.76 68,13.66 Z" id="Path" fill="#123C5E" fill-rule="nonzero"></path>
            <path d="M50.77,14.81 C50.77,15.04 48.08,23.01 48.08,23.01 L46.08,15.69 L50.77,14.81 Z" id="Path" fill="#123C5E" fill-rule="nonzero"></path>
            <path d="M40,21.86 C39.9616441,24.3724627 41.967198,26.4403636 44.4796576,26.4789177 C46.9921173,26.5174718 49.0601764,24.5120811 49.0989288,21.9996245 C49.1376811,19.4871679 47.1324535,17.4189505 44.62,17.38 C43.4132234,17.3612914 42.2484558,17.8228131 41.3820063,18.6630065 C40.5155568,19.5032 40.018423,20.653219 40,21.86 Z" id="Path" fill="#FFAEAB" fill-rule="nonzero"></path>
            <path d="M46.1,23.3 C46.1,23.3 46.1,20.01 42.99,20.48" id="Path" stroke="#123C5E"></path>
            <path d="M137.3,78.64 C135.08,78.08 132.86,77.71 132.86,77.71 L132.86,77.97 C132.916428,78.4244413 132.943151,78.8820796 132.94,79.34 L132.94,79.45 C132.93797,79.9080748 132.907914,80.3655963 132.85,80.82 C132.85,80.87 132.85,80.91 132.85,80.95 C132.786425,81.4175957 132.672428,81.8769372 132.51,82.32 C132.491027,82.3816056 132.467632,82.4417618 132.44,82.5 C132.256595,83.0209904 131.951472,83.4906735 131.55,83.87 C131.442053,83.9865563 131.321288,84.0905486 131.19,84.18 C128.78,85.85 119.31,83.69 119.31,83.69 L118.47,77.53 C118.47,77.53 126.01,74.76 129.47,74.76 C132.93,74.76 139.27,76.76 140.75,78.08 C142.23,79.4 139.51,79.19 137.3,78.64 Z" id="Path" fill="#FFAEAB" fill-rule="nonzero"></path>
            <path d="M132.92,79.34 L127.36,79.34 C127.095511,79.372015 126.836222,79.2489019 126.693858,79.0237091 C126.551493,78.7985164 126.551493,78.5114836 126.693858,78.2862909 C126.836222,78.0610981 127.095511,77.937985 127.36,77.97 L132.82,77.97 C132.890414,78.4232011 132.923857,78.8813777 132.92,79.34 Z" id="Path" fill="#ED9A9A" fill-rule="nonzero"></path>
            <path d="M132.92,79.45 C132.915807,79.9086947 132.879048,80.3665126 132.81,80.82 L126.66,80.82 C126.395511,80.852015 126.136222,80.7289019 125.993858,80.5037091 C125.851493,80.2785164 125.851493,79.9914836 125.993858,79.7662909 C126.136222,79.5410981 126.395511,79.417985 126.66,79.45 L132.92,79.45 Z" id="Path" fill="#ED9A9A" fill-rule="nonzero"></path>
            <path d="M132.79,81 C132.715217,81.4717623 132.580808,81.9321138 132.39,82.37 L127.39,82.37 C126.980936,82.3932455 126.627078,82.0880425 126.59,81.68 C126.627087,81.2733463 126.982683,80.9710896 127.39,81 L132.79,81 Z" id="Path" fill="#ED9A9A" fill-rule="nonzero"></path>
            <path d="M132.3,82.5 C132.087373,83.0336015 131.743399,83.5048456 131.3,83.87 L128.66,83.87 C128.395511,83.902015 128.136222,83.7789019 127.993858,83.5537091 C127.851493,83.3285164 127.851493,83.0414836 127.993858,82.8162909 C128.136222,82.5910981 128.395511,82.467985 128.66,82.5 L132.3,82.5 Z" id="Path" fill="#ED9A9A" fill-rule="nonzero"></path>
            <polygon id="Path" fill="#123C5E" fill-rule="nonzero" points="68.44 80.48 44.49 80.48 42.27 76.58 69.96 76.07"></polygon>
        </g>
    </g>
</svg>