<svg xmlns="http://www.w3.org/2000/svg" viewBox="0 0 177.18 350.09"><defs><style>.cls-1{fill:#f7b634;}.cls-2{fill:#e09f2d;}.cls-3{fill:#0e3944;}.cls-4{fill:#ffaeab;}.cls-5{fill:#364056;}.cls-6{fill:#adbec4;}.cls-7{fill:#ff8b66;}.cls-8{fill:#1a4850;}.cls-13,.cls-9{fill:#fff;}.cls-10{fill:#fa968c;}.cls-11{fill:#ef6e4b;}.cls-12{fill:#ff7133;}.cls-13{stroke:#0fa8ba;stroke-miterlimit:10;}</style></defs><title>girl-services_1</title><g id="Layer_2" data-name="Layer 2"><g id="Layer_1-2" data-name="Layer 1"><path class="cls-1" d="M68.82,331.88l-6.35,1.48s-9.92-53.2-12.21-58.82c-2-4.85-10.35-23.41-13.13-37.66a9.34,9.34,0,0,1-2.18-.31h0l-.94-.19-.91-.2c-.24,14.2-3.32,31.71-4.27,36.62-1.14,5.95-.53,60.11-.53,60.11l-6.52-.22c-12.37-43.85-7.68-60.57-7.68-60.57S4.59,232.89,8.61,219a93,93,0,0,1,4.56-12.39c.13-.29.25-.57.39-.84a82.82,82.82,0,0,1,5.77-10.68l13.26,1.66.12-.21.39.07v4.16l1.68-.08.37,0h0l5.51-.29.75,0,7.87-1.11s2.6,5.19,6.71,12.58c.15.28.69.55.84.83,1.46,2.66,2.51,6,4.19,9.23,6.65,12.88,1.79,49.77,1.79,49.77S72.43,286.46,68.82,331.88Z"/><path class="cls-2" d="M23.7,196.59c-.05.1-3.46,8.22-10.53,10,.13-.29.25-.57.39-.84,6.35-2,9.44-9.33,9.48-9.41Z"/><path class="cls-2" d="M53.7,212.88c-7.92-1.7-12-10-13-12.54-.19-.46-.29-.74-.3-.76l.67-.23s.14.37.38,1c1.13,2.62,4.84,9.88,11.81,11.73Z"/><path class="cls-2" d="M34.94,236.57l-.94-.19a56.85,56.85,0,0,1-5-14.31c-2.47-11,3.15-22.65,3.21-22.76l.64.31c-.06.11-5.58,11.58-3.16,22.3.1.45.21.9.31,1.32.06.24.11.46.17.69A50.76,50.76,0,0,0,34.94,236.57Z"/><path class="cls-2" d="M29.85,224h-.11l.05-.7a1.52,1.52,0,0,0,1.16-.59c.47-.53,1.47-2.23.66-6.39-1.08-5.58,3-15.37,3.23-15.78l.65.27c0,.1-4.23,10-3.18,15.38.84,4.3-.16,6.23-.83,7A2.21,2.21,0,0,1,29.85,224Z"/><path class="cls-3" d="M30,145s2.1-3.8-.86-10.33-2.34-24.58,12.45-23.81c0,0,8.78-1.46,13.2,4.29s8,26,3.4,41.05S24,167.25,30,145Z"/><path class="cls-4" d="M46.23,200a30.47,30.47,0,0,1-26.9-5s-2.42-49.85,2.19-53.19c2-1.46,6-.29,9.84,1.49A73.36,73.36,0,0,1,41.05,149a74.55,74.55,0,0,1,15.38-.47c4.31.47,7.87,1.73,8,4.59C64.89,160.46,46.23,200,46.23,200Z"/><path class="cls-4" d="M56.79,148.62c-2.9-.31-3.44,1.89-6.35,2.95a39.73,39.73,0,0,1-7.73,2c-1.32.12-2,1.76-2,1.76s-.47-2.21-1.18-2.4-6.86-6.38-8.15-9.58A73.36,73.36,0,0,1,41.05,149a74.55,74.55,0,0,1,15.38-.47Z"/><path class="cls-5" d="M18.85,338.22c.4-2.71-.61-4.64.1-6,1.1-2,2.25.54,2.25.54.1-3.08,5.26-3.08,5.78-1.67a8.34,8.34,0,0,0,.45,1c.32-.74.87-1.46,1.57-1,2.76,1.65-.67,5.92,1.84,9,3.2,4,1.23,9.93,1.23,9.93H16.77C15,341.71,18.45,340.93,18.85,338.22Z"/><path class="cls-6" d="M28.3,337.21s-3.62-1.9-8.42.62l.95-1.73a8.43,8.43,0,0,1,7-.51Z"/><path class="cls-6" d="M28.93,340.09a13.76,13.76,0,0,0-9.95.72l.9-1.83s4.56-2,8.42-.5Z"/><path class="cls-5" d="M71.63,338.22c-.4-2.71.6-4.64-.11-6-1.09-2-2.25.54-2.25.54-.09-3.08-5.25-3.08-5.77-1.67a8.34,8.34,0,0,1-.46,1c-.32-.74-.86-1.46-1.57-1-2.76,1.65.67,5.92-1.84,9-3.19,4-1.22,9.93-1.22,9.93h15.3C75.5,341.71,72,340.93,71.63,338.22Z"/><path class="cls-6" d="M62.18,337.21s3.62-1.9,8.41.62l-.94-1.73a8.44,8.44,0,0,0-7-.51Z"/><path class="cls-6" d="M61.55,340.09a13.76,13.76,0,0,1,10,.72L70.59,339s-4.56-2-8.41-.5Z"/><path class="cls-4" d="M39.94,132.48s1.1,13.31-2.6,15.22c0,0,2.74,5,10.07,2,0,0-1.24-6.84,3.62-15C54.28,129.26,39.94,132.48,39.94,132.48Z"/><path class="cls-7" d="M53.31,127.91s2.76-3.2,3.39.25c.73,4-2.81,5.9-3.62,4.67S53.31,127.91,53.31,127.91Z"/><path class="cls-4" d="M32.45,129.71s-3.21-2.74-3.31.76c-.12,4.06,3.66,5.41,4.28,4.07S32.45,129.71,32.45,129.71Z"/><path class="cls-4" d="M44.3,143.28c6.61-.5,10-5.11,9-18.07-.51-6.68-4.22-10.53-11.63-10s-10.22,4.9-9.71,11.59C33.05,140.76,37.46,143.8,44.3,143.28Z"/><path class="cls-4" d="M34.53,131.29a1.57,1.57,0,1,0,1.65-1.07A1.41,1.41,0,0,0,34.53,131.29Z"/><path class="cls-4" d="M48.17,130.62a1.57,1.57,0,1,0,1.34-1.43A1.4,1.4,0,0,0,48.17,130.62Z"/><path class="cls-3" d="M36.88,124.31a.34.34,0,0,0,.4-.09,3.82,3.82,0,0,1,2.47-1.12.33.33,0,0,0,.32-.34.33.33,0,0,0-.35-.32,4.41,4.41,0,0,0-3,1.36.33.33,0,0,0,.05.46Z"/><path class="cls-3" d="M46.46,122.55a.57.57,0,0,0,.18,0,3.81,3.81,0,0,1,2.61.73.34.34,0,0,0,.45-.5,4.4,4.4,0,0,0-3.13-.89.33.33,0,0,0-.3.36A.36.36,0,0,0,46.46,122.55Z"/><path class="cls-8" d="M37.88,127.8c.07.83.49,1.46.94,1.43s.78-.73.72-1.55-.49-1.46-.94-1.43S37.82,127,37.88,127.8Z"/><path class="cls-8" d="M47,127.05c.06.82.49,1.46.94,1.42s.78-.73.71-1.55-.48-1.46-.94-1.42S47,126.23,47,127.05Z"/><path class="cls-9" d="M46.49,135.16s-4.07.89-6.28,0c0,0,1.43,3,3.66,2.51A3.3,3.3,0,0,0,46.49,135.16Z"/><path class="cls-8" d="M38.51,125.05c1.11-.09,1.57,2.18,1.57,2.18s-.76-2-1.54-1.77-1.26,2-1.26,2l-1.22-.53,1.19.06"/><path class="cls-8" d="M47.74,124.6c-1.12.08-1.22,2.39-1.22,2.39s.45-2.07,1.25-2,1.54,1.77,1.54,1.77l1.13-.71"/><path class="cls-10" d="M42.91,132a2.46,2.46,0,0,0,.48.16l.14-.71c-.6-.11-.76-.46-.78-.74a.87.87,0,0,1,.38-.85c.12,0,.26,0,.41.22l.57-.43a1,1,0,0,0-1.24-.46,1.59,1.59,0,0,0-.84,1.59A1.47,1.47,0,0,0,42.91,132Z"/><path class="cls-3" d="M44.08,117.37s1.49-.71,3.83,2.37c4.88,6.44,5.4,15.36,3.28,22.59-1.56,5.27,8.49,2.4,8.49,2.4a15.27,15.27,0,0,0-.47-7.47c-1.3-3.73.35-17.16-4.43-22.07s-13.2-1.76-13.2-1.76-4.06-2.41-8,0-5.08,13.21-1,18c0,0-.2-4.07,1.56-5.65S36.85,115.36,44.08,117.37Z"/><path class="cls-4" d="M13,64.22c-1.53,4.9,2.22,7.11-.55,10.46-1.72,2.08-4.32.39-4.32.39a32.93,32.93,0,0,0-5.75-7.56C.87,66,2,66,2,66l-.46-.35C.36,64.77-.61,64.3.47,64S5.05,65.9,5.05,65.9c-4-4.46-5.52-4-4.47-4.47,1.45-.63,5.49,2.7,5.61,2.8C4.26,61.16,2.55,60.14,3.65,60s5.24,4.85,6.73,6.69l.54.68C11.9,63.34,13,64.22,13,64.22Z"/><path class="cls-11" d="M10.38,66.73l.54.68a3.47,3.47,0,0,0-.6,3.41A3.11,3.11,0,0,1,10.38,66.73Z"/><path class="cls-10" d="M5.41,68.5C5,68.15,3,66.15,2,66l-.46-.35C2.38,64.94,5,68,5.41,68.5Z"/><path class="cls-4" d="M12.48,74.68s-.55,32.33-2.23,38.75c0,0,5.88,20.3,14.68,27.67,0,0,1.37,5.51-6.24,16.35,0,0-14.8-26.49-17.18-41.64L8.16,75.07Z"/><path class="cls-12" d="M31.93,143.63c.75,2.68,1.17,12.09,10.1,16.92s18.47-2.24,21.07-10c0,0,1.08-1.64,4.62,2.34,0,0,18.56,9,21,13.66s1,22.54-6.47,22.81-16.39-8-18.74-2.57-16.16,24.81-44.77,9.22c0,0-3.6-4.5-3.6-8.51s-1.82-30.45-1.82-30.45S2.72,154,5.37,129.16c0,0,7.26,4,7.08-9.25,0,0,6-2.79,8,8.36,1.33,7.47,8.71,12.94,8.71,12.94S30.78,139.56,31.93,143.63Z"/><path class="cls-4" d="M92.89,175.87c6.32-2.65,20.21-14.12,25.17-20.77l-3-2.75s-16.36,11.09-22.64,13.07-9.6,5.58-8.83,10S91.56,176.42,92.89,175.87Z"/><path class="cls-4" d="M123.24,145.77c-3.08,4.11-7.07,2.37-8.16,6.58-.67,2.61,2.22,3.72,2.22,3.72a33.22,33.22,0,0,1,9.5.24c2.11.36,1.49-.54,1.49-.54l.55.17c1.37.42,2.32.94,2-.13s-4.24-2.59-4.24-2.59c6,.64,6.48,2.13,6.23,1-.34-1.53-5.41-2.86-5.56-2.9,3.62-.23,5.45.56,4.89-.4s-7-1.4-9.37-1.53l-.86,0C124.62,146.17,123.24,145.77,123.24,145.77Z"/><path class="cls-10" d="M122.75,149.39l-.86,0a3.48,3.48,0,0,1-2.41,2.48A3.09,3.09,0,0,0,122.75,149.39Z"/><path class="cls-10" d="M124.23,154.45c.5.1,3.34.62,4.06,1.32l.55.17C128.89,154.83,124.85,154.49,124.23,154.45Z"/><rect class="cls-13" x="9.06" y="28.18" width="165.14" height="94.09" rx="25.55" transform="translate(56.04 -37.86) rotate(33.14)"/><path class="cls-5" d="M42.52,52a.88.88,0,0,1,.15-.72l7.27-11.41-4.1-2.61a.93.93,0,0,1-.43-.51.77.77,0,0,1,.13-.62.7.7,0,0,1,.5-.37.92.92,0,0,1,.65.16l9.78,6.24a1,1,0,0,1,.43.51.88.88,0,0,1-.64,1,.86.86,0,0,1-.64-.17l-4.1-2.61L44.25,52.24a.92.92,0,0,1-.58.44.89.89,0,0,1-.71-.14A.91.91,0,0,1,42.52,52Z"/><path class="cls-5" d="M50.74,57.07a.85.85,0,0,1,.13-.7l7.59-11.92A.88.88,0,0,1,59,44a1,1,0,0,1,.71.16l7.13,4.54a.92.92,0,0,1,.43.52.82.82,0,0,1-.61,1,.9.9,0,0,1-.64-.17L59.67,46l-3,4.67,6,3.83a.91.91,0,0,1,.42.51.7.7,0,0,1-.11.6.72.72,0,0,1-.49.36.93.93,0,0,1-.65-.17l-6-3.83-3.12,4.88,6.39,4.07a.93.93,0,0,1,.43.51.68.68,0,0,1-.12.6.69.69,0,0,1-.49.36.9.9,0,0,1-.64-.17l-7.14-4.54A1,1,0,0,1,50.74,57.07Z"/><path class="cls-5" d="M73.23,70.89a.7.7,0,0,1-.52.34,1,1,0,0,1-.65-.14.82.82,0,0,1-.37-.89l.61-4-7.19-4.58-3.34,2.21a.8.8,0,0,1-1,0,.9.9,0,0,1-.4-.55.7.7,0,0,1,.08-.63.66.66,0,0,1,.27-.25l13.18-8.66a1,1,0,0,1,.6-.18,1.2,1.2,0,0,1,.58.18,1.12,1.12,0,0,1,.42.47,1,1,0,0,1,.1.61L73.36,70.52A.72.72,0,0,1,73.23,70.89ZM66.51,60.74l6,3.85,1.33-8.78Z"/><path class="cls-5" d="M77.46,73.44a6.48,6.48,0,0,1-.63-3.76,11,11,0,0,1,4.67-7.32,6.52,6.52,0,0,1,3.66-1A7.54,7.54,0,0,1,89,62.62a8.36,8.36,0,0,1,2.15,1.94A7.11,7.11,0,0,1,92.37,67a1.07,1.07,0,0,1-.12.86.86.86,0,0,1-.45.37.52.52,0,0,1-.49,0,1.36,1.36,0,0,1-.42-.57,8.58,8.58,0,0,0-1.08-2.19A5.83,5.83,0,0,0,88.18,64a4.92,4.92,0,0,0-4.32-.73,7.35,7.35,0,0,0-3.8,3.33,7.44,7.44,0,0,0-1.43,4.87,4.94,4.94,0,0,0,2.49,3.61,6,6,0,0,0,2,.85,8.77,8.77,0,0,0,2.45.06,1.32,1.32,0,0,1,.69.14.6.6,0,0,1,.24.42.85.85,0,0,1-.16.58,1,1,0,0,1-.73.47,7.15,7.15,0,0,1-2.72-.08,8.42,8.42,0,0,1-2.67-1.13A7.49,7.49,0,0,1,77.46,73.44Z"/><path class="cls-5" d="M107,74.46a1,1,0,0,1-.17.71l-7.67,12a1,1,0,0,1-.57.46.88.88,0,0,1-.7-.14.92.92,0,0,1-.43-.59,1,1,0,0,1,.16-.71l3.48-5.46-8-5.13-3.48,5.46a1,1,0,0,1-.58.45.9.9,0,0,1-.71-.15.86.86,0,0,1-.42-.58A.92.92,0,0,1,88,80.1l7.66-12a1.06,1.06,0,0,1,.58-.46.88.88,0,0,1,.7.14.92.92,0,0,1,.43.59,1,1,0,0,1-.16.71L93.86,74.3l8,5.13,3.34-5.25a1,1,0,0,1,.58-.45.94.94,0,0,1,.71.15A.86.86,0,0,1,107,74.46Z"/><path class="cls-5" d="M102.28,90a1,1,0,0,1,.16-.71l7.67-12a1,1,0,0,1,.58-.45.9.9,0,0,1,.71.15.92.92,0,0,1,.44.58,1,1,0,0,1-.16.72l-7.67,12a1,1,0,0,1-.58.45,1,1,0,0,1-1.15-.73Z"/><path class="cls-5" d="M126,86.56a1.06,1.06,0,0,1-.18.7l-7.67,12a.94.94,0,0,1-.57.46.87.87,0,0,1-.7-.14,1,1,0,0,1-.43-.73l-1.17-15.62-6.44,10.1a1,1,0,0,1-.57.46.93.93,0,0,1-1.08-.69,1,1,0,0,1,.18-.7l7.67-12a1,1,0,0,1,.57-.45.85.85,0,0,1,.71.14,1,1,0,0,1,.44.73l1.15,15.62,6.44-10.11a1,1,0,0,1,.57-.45.81.81,0,0,1,.68.13A.77.77,0,0,1,126,86.56Z"/><path class="cls-5" d="M135.78,102a.75.75,0,0,1-.12.6l-3,4.74a1.45,1.45,0,0,1-.58.6,1.16,1.16,0,0,1-.75,0,10,10,0,0,1-2.18-.67,14.71,14.71,0,0,1-2.3-1.19,8.14,8.14,0,0,1-2.92-3,6.44,6.44,0,0,1-.72-3.78,10.9,10.9,0,0,1,4.68-7.37,6.51,6.51,0,0,1,3.71-1,7.82,7.82,0,0,1,3.88,1.31,8.73,8.73,0,0,1,2.22,2,6.26,6.26,0,0,1,1.18,2.4,1.11,1.11,0,0,1-.1.88.86.86,0,0,1-.45.37.54.54,0,0,1-.51,0,1.1,1.1,0,0,1-.39-.56A8.54,8.54,0,0,0,136.28,95a6.19,6.19,0,0,0-1.66-1.47,5.12,5.12,0,0,0-4.39-.79A9,9,0,0,0,125,101a5.37,5.37,0,0,0,2.71,3.73,11,11,0,0,0,3.57,1.52l2.6-4.08-2.79-1.78a.93.93,0,0,1-.41-.5.7.7,0,0,1,.09-.56.69.69,0,0,1,.48-.33,1,1,0,0,1,.62.17l3.56,2.27A.75.75,0,0,1,135.78,102Z"/></g></g></svg>