<svg xmlns="http://www.w3.org/2000/svg" viewBox="0 0 161.42 310.8"><defs><style>.cls-1{fill:#364056;}.cls-2{fill:#fbb990;}.cls-3{fill:#ecbc4f;}.cls-4{fill:#fff;}.cls-5{fill:#3e4a5e;}.cls-6{fill:#1f3727;}.cls-7{fill:#363f51;}.cls-8{fill:none;stroke:#0b1b10;stroke-linecap:round;stroke-linejoin:round;stroke-width:2px;}.cls-9{fill:#ffaeab;}.cls-10{fill:#ff9c00;}.cls-11{fill:#f49d9d;}.cls-12{fill:#f7b634;}.cls-13{fill:#fab9af;}.cls-14{fill:#fa968c;}</style></defs><title>girl-contactus</title><g id="Layer_2" data-name="Layer 2"><g id="Layer_1-2" data-name="Layer 1"><path class="cls-1" d="M59.81,6.16S70.64,5.57,74,18.09C77,29.41,91.49,77.83,97.4,96.33a4.18,4.18,0,0,1-5,5.35C81.12,99,59.63,93.51,51.63,89c0,0-8.79-49.9-8.92-63.65C42.6,12.72,48.14,6.26,59.81,6.16Z"/><path class="cls-2" d="M50.79,286.17l-1.21,10s7.19,3.17,9.61.72l.6-9.65Z"/><path class="cls-3" d="M26,310.1c.77,1.64,34.46-.12,34.46-.12s1.07-10,0-13.08-6,.38-9.33-.4c0,0-2-2.79-3.65-2.69-.61,0-2.72,1.39-5.38,3.14-.43.28-.87.58-1.33.87l-1,.63-1.6,1.05-.6.39h0l-1.47.93c-3,1.84-5.75,3.4-7.37,3.69C24.4,305.27,25.19,308.46,26,310.1Z"/><path class="cls-4" d="M38.18,299.5a3.12,3.12,0,0,1,1.85.36,8.17,8.17,0,0,1,2.6,2.84.6.6,0,1,0,1.06-.58,9.27,9.27,0,0,0-3.1-3.33,5.41,5.41,0,0,0-.81-.34C38.9,298.53,38.16,298.73,38.18,299.5Z"/><path class="cls-4" d="M40.74,297.82a3.45,3.45,0,0,1,1.12.36,8.26,8.26,0,0,1,2.6,2.84.63.63,0,0,0,.35.29.65.65,0,0,0,.47-.05.61.61,0,0,0,.24-.82,9.27,9.27,0,0,0-3.1-3.33l-.35-.16C41.51,297,40.87,297,40.74,297.82Z"/><path class="cls-4" d="M36.1,300.82a3.2,3.2,0,0,1,1.47.39,8.17,8.17,0,0,1,2.6,2.83.6.6,0,0,0,.82.24.61.61,0,0,0,.24-.82,9.34,9.34,0,0,0-3.11-3.32,5.13,5.13,0,0,0-.54-.25h0C36.61,299.8,36,300,36.1,300.82Z"/><path class="cls-2" d="M101.33,211l10.11.57s2.28-7.52-.45-9.62l-9.66.35Z"/><path class="cls-3" d="M135.12,225.2c1.09-1.45-16.27-30.38-16.27-30.38s-9.33,3.75-11.56,6.13,3.14,5.09,4,8.42c0,0-1.52,3.1-.67,4.5.32.51,2.52,1.74,5.3,3.27l1.4.76,1,.55,1.67.93.63.35h0l1.52.87c3,1.74,5.69,3.48,6.7,4.77C131.59,228.84,134,226.64,135.12,225.2Z"/><path class="cls-4" d="M118.14,217.82a3.18,3.18,0,0,1-.55-1.8,8.28,8.28,0,0,1,1.29-3.63A.58.58,0,0,0,119,212a.63.63,0,0,0-.26-.4.61.61,0,0,0-.84.18,9.24,9.24,0,0,0-1.48,4.3,4.77,4.77,0,0,0,.08.87C117,217.64,117.47,218.2,118.14,217.82Z"/><path class="cls-4" d="M115.46,216.34a3.47,3.47,0,0,1-.21-1.15,8.28,8.28,0,0,1,1.29-3.63.58.58,0,0,0,.09-.44.61.61,0,0,0-.26-.39.6.6,0,0,0-.84.17,9.24,9.24,0,0,0-1.48,4.3,2.36,2.36,0,0,0,0,.38C114.37,216.06,114.64,216.63,115.46,216.34Z"/><path class="cls-4" d="M120.29,219a3.14,3.14,0,0,1-.35-1.48,8,8,0,0,1,1.29-3.62.65.65,0,0,0,.08-.45.57.57,0,0,0-.26-.39.61.61,0,0,0-.84.17,9.41,9.41,0,0,0-1.48,4.3,5.66,5.66,0,0,0,0,.6h0C119.14,219.07,119.62,219.45,120.29,219Z"/><path class="cls-5" d="M42.32,132.32s-17.06,51.73-18,64.2,25.82,13,38,13.86c13.63,1,40.82,1.51,40.82,1.51l.49-11.16s-14.36-4.57-25.81-7.08S47,188.85,47,188.85L74,131.18Z"/><path class="cls-6" d="M99.25,199.72s1.27-2.1,5.31.07c0,0-.59,6.81-1.34,12.7a8.55,8.55,0,0,1-5.38-.31A73,73,0,0,0,99.25,199.72Z"/><path class="cls-7" d="M63.85,130.69s-22,58.58-22.6,74.13,6.67,82.45,6.67,82.45l10.68,1.3s9.49-43.39,3.51-71c0,0,27.67-66.06,29.56-80.94S63.85,130.69,63.85,130.69Z"/><path class="cls-8" d="M85,146.94s-13.37,47-28,71.13A79,79,0,0,1,60.9,242c0,15.84-3.24,35.8-3.24,35.8"/><path class="cls-6" d="M60.39,282.08a8.5,8.5,0,0,1,.44,7.62s-7,.31-13,.07c0,0-1.41-5.29-.45-7.75A109.87,109.87,0,0,0,60.39,282.08Z"/><path class="cls-9" d="M45.5,54.41c-1.3.41-2.6.8-3.91,1.17-2.89.82-5.78,1.54-8.66,2.13-1.43.29-2.87.54-4.29.75l-.81.11-.21,0-.15-.21-.31-.44,0,0L27,57.65c-.18-.26-.35-.53-.52-.8s-.47-.69-.69-1.06l-.69-1.1c-.22-.37-.45-.74-.67-1.12-1.79-3-3.47-6.15-5.13-9.33-.82-1.6-1.65-3.19-2.44-4.82s-1.61-3.23-2.38-4.88-1.57-3.26-2.32-4.91L9.84,24.68l0-.05a3.82,3.82,0,0,0-4.63-2.05c-2,.63-2.37,1.67-1.73,3.69l1.32,5.81c.54,1.76,1,4,1.52,5.73s.91,3.62,1.5,5.38S9,46.69,9.66,48.44c1.29,3.5,2.62,7,4.14,10.51.19.44.38.88.58,1.32l.6,1.32c.2.44.42.89.63,1.33s.43.89.67,1.34L17,65.62c.25.45.53.93.79,1.39.13.23.31.49.46.73l.23.37.12.19.15.2.29.4.14.21.19.23.4.49.33.35.16.17.11.1.13.11a2.75,2.75,0,0,0,.26.22,6.34,6.34,0,0,0,4.08,1.41h.42c1.76-.11,3.49-.27,5.19-.49s3.37-.49,5-.79c3.16-.59,6.26-1.31,9.31-2.11Z"/><path class="cls-10" d="M44.89,52.9A64.26,64.26,0,0,1,29,57.52a100.31,100.31,0,0,1-.8,16s13.58,0,17.32-3.89c3.17-3.26,5.77-5,5-10.49C50.22,57.49,47.62,51.64,44.89,52.9Z"/><path class="cls-9" d="M25,63.57a.46.46,0,0,0,.49-.13.29.29,0,0,0,.08-.14,30.14,30.14,0,0,1,2.25-4.73l-.21,0-.15-.21-.31-.44c-.19.32-.38.65-.56,1A33.23,33.23,0,0,0,24.74,63,.46.46,0,0,0,25,63.57Z"/><path class="cls-9" d="M23.67,60.49a.44.44,0,0,0,.49.14.37.37,0,0,0,.14-.07c.74-.59,1.51-1.13,2.3-1.64.29-.19.58-.36.87-.54l-.31-.44,0,0L27,57.65a29.5,29.5,0,0,0-3.22,2.2A.47.47,0,0,0,23.67,60.49Z"/><path class="cls-11" d="M3.88,16.35s1-5.44-.1-7.84S2.65,1.23,1.76.84.51,4,1.38,7.25,3.88,16.35,3.88,16.35Z"/><path class="cls-9" d="M3.14,15.07S1.83,10.41.9,10.33s-1.55,3.23.26,7.56c.54,1.28.3,3.29.86,5.67A3.56,3.56,0,0,0,8.2,25.09a7.48,7.48,0,0,0,1-1.5S9.29,14,7.24,10.65,4.3.91,3.33.11,2.05,3.22,2.32,6,3.14,15.07,3.14,15.07Z"/><path class="cls-12" d="M83.79,137.56c-5.39,1.38-25,1.49-35.8-.23a26.63,26.63,0,0,1-5.17-1.23,6.32,6.32,0,0,1-1-.45c-.66-.38-1-.8-1-1.25q0-.36,0-.9h0c0-.73.11-1.69.21-2.84.17-2,.43-4.58.74-7.45h0c.82-7.71,1.94-17.54,2.57-24.29.07-.78.14-1.51.2-2.2,0-.29,0-.56.06-.82,0-.6.09-1.14.12-1.64,0-.18,0-.36,0-.53,0-.6.09-1.16.14-1.68.08-.89.17-1.67.26-2.37.63-4.92,1.12-5.93-2.09-10.66-6-8.82-.67-12.57,0-15.34s-1.2-10.38,3-12.75c1-.54,4.65-2.07,5.58-2.38.32-.1.64-.2.95-.28a17.38,17.38,0,0,1,4.88-.6,55,55,0,0,1,11.67.76l.92.18c7.3,1.52,11.52,4.66,13.17,8,1.27,2.58,2.28,8.45,3.14,15.65,0,.31.07.63.11,1,1.16,10,2,22.42,2.9,32.09.08.83.15,1.64.22,2.42.06.56.11,1.12.16,1.65.08.78.15,1.54.23,2.26l.09.82c.09.77.17,1.51.26,2.2a47.72,47.72,0,0,0,.82,4.91C95.27,135.49,91.86,135.49,83.79,137.56Z"/><path class="cls-10" d="M96.78,65.07s5.16,8-2.13,17.81A15.13,15.13,0,0,1,91.93,75,11.12,11.12,0,0,1,96.78,65.07Z"/><path class="cls-13" d="M144.66,70.22a3.45,3.45,0,0,0-3.89-1.66l-.1,0c-.81.22-1.62.43-2.42.66s-1.61.46-2.41.67c-1.6.44-3.2.88-4.8,1.28-.79.21-1.58.43-2.38.61l-2.38.58-2.38.52-2.36.48c-.39.09-.78.15-1.17.22l-1.17.21c-.77.13-1.54.24-2.31.35l-1.13.13c-.38,0-.74.07-1.11.11s-.73,0-1.09.08-.68,0-1,0h-.68l-.19,0h-.1l.15,0h0l-.3-.07-.24,0-.11,0-.7-.19-.12,0-.54-.18a36.18,36.18,0,0,1-3.93-1.68,91.29,91.29,0,0,1-8.21-4.66l-1.9-1.21c-2.09-1.35-4.18-2.74-6.25-4.2-1.34-.93-2.7-1.88-4-2.84l-4-2.91-1.4-1a146,146,0,0,0-.81,15.06c1,.73,2,1.45,3.08,2.16,1.44,1,2.89,1.94,4.36,2.88s3,1.88,4.49,2.77c.79.47,1.58.93,2.38,1.37s1.52.84,2.29,1.25c1.59.84,3.23,1.64,5,2.39.86.37,1.73.74,2.64,1.08s1.86.65,2.85.94a26.94,26.94,0,0,0,3.22.72l.46.06.49.06.13,0,.31,0h1.29l.42,0,.8-.07c.51-.06,1-.11,1.5-.19s1-.15,1.43-.24l1.4-.28L119,85c.45-.1.89-.23,1.33-.34l1.32-.37c.86-.26,1.73-.5,2.58-.8l1.26-.42c.43-.15.85-.29,1.26-.45l2.49-.93,2.43-1c.82-.34,1.6-.71,2.4-1.07l1.19-.54.6-.27.58-.29,2.34-1.15c1.55-.79,3.06-1.63,4.57-2.48A3.44,3.44,0,0,0,144.66,70.22Z"/><path class="cls-13" d="M143.58,74.54c-1.36-.43-4.14-3.84-2.2-8.09,1.79-3.94,1.4-5.52,3.09-8.21,1.47-2.33,1.49,0,1.48,2.27s-.56,3.1,1.38,2.65,8.66-5.53,10.86-5.66-6.32,6.32-6.32,6.32,8.07-4.24,9.06-3.45c1.19.94-7.17,5.95-7.17,5.95s7.37-2.61,7.64-2.08c.52,1.05-6.41,4.81-6.41,4.81s5.16-1.54,5.06-.58S150.3,74.53,143.58,74.54Z"/><path class="cls-14" d="M144.76,69.72a5.34,5.34,0,0,0,3.33-1.86.27.27,0,0,0-.05-.38.26.26,0,0,0-.38,0c-.09.1-2.12,2.6-4.48,1.29a.28.28,0,0,0-.37.1.29.29,0,0,0,.11.38A3.33,3.33,0,0,0,144.76,69.72Z"/><path class="cls-14" d="M151.8,69.8a.25.25,0,0,0,.21-.12.27.27,0,0,0-.08-.38,5.3,5.3,0,0,1-2.37-4.17.26.26,0,0,0-.27-.27.26.26,0,0,0-.27.27,5.74,5.74,0,0,0,2.61,4.63A.25.25,0,0,0,151.8,69.8Z"/><path class="cls-14" d="M111.12,80a.4.4,0,0,0,.34-.32.38.38,0,0,0,0-.15,29.34,29.34,0,0,1-.31-5.2l-.11,0c-.22,0-.46-.12-.7-.2,0,.49,0,1,0,1.47a29.54,29.54,0,0,0,.33,4.09A.41.41,0,0,0,111.12,80Z"/><path class="cls-14" d="M109.13,78.06a.25.25,0,0,0,.08-.12,25,25,0,0,1,1.11-2.34c.23-.43.47-.86.72-1.27-.22,0-.46-.12-.7-.2l-.12,0a29,29,0,0,0-1.77,3.52.41.41,0,0,0,.23.54A.4.4,0,0,0,109.13,78.06Z"/><path class="cls-10" d="M96.79,65.07a9.84,9.84,0,0,0-1.52,1.69,14.17,14.17,0,0,0-2,12.22,22,22,0,0,0,1.41,3.89C94.47,82.77,83,76.1,77.89,71.8a18.47,18.47,0,0,1-1.43-3.9h0A22.92,22.92,0,0,1,77.24,54c.22-.57.46-1.14.73-1.72A136,136,0,0,0,96.79,65.07Z"/><path class="cls-10" d="M52.67,54.06c1,1.36,2.63,2,4.88,2H58a15.07,15.07,0,0,0,12.2-7.27l-.92-.22a14.12,14.12,0,0,1-11.31,6.6c-2.15.08-3.67-.48-4.53-1.67-1-1.43-1-3.51-.71-5.12-.31.1-.63.22-1,.35A7.55,7.55,0,0,0,52.67,54.06Z"/><path class="cls-9" d="M67.14,48.57A12.25,12.25,0,0,1,55,51.13l.31-13.08,10.07-3.33L67,34.18Z"/><path class="cls-14" d="M65.37,34.72S62.8,46.35,55.08,47.65l.22-9.6Z"/><path class="cls-9" d="M69.94,26.38a13.57,13.57,0,0,1-.79,4.12c-.09.25-.18.5-.28.76-.18.47-.39.95-.61,1.43h0A23.19,23.19,0,0,1,67,35C62.6,42.17,54.23,47.1,48.91,41.93c-4.23-4.1-4.77-11.11-4.53-17.08,0-.25,0-.51,0-.76.06-1.12.14-2.19.22-3.19a10.13,10.13,0,0,1,.76-3.11h0a10.33,10.33,0,0,1,8.37-6.28c3.64-.41,7.56-.05,9.88,1,3.19,1.44,5,3.17,5.75,6.78a22.2,22.2,0,0,1,.43,3.08c0,.3,0,.62.06.95,0,.49,0,1,0,1.56Z"/><path class="cls-1" d="M55,22.9s-1.12.14-1.05.89.8.58,1.37.47a6.31,6.31,0,0,1,2.6,0,3,3,0,0,1,1.82,1.39S59.6,22.57,55,22.9Z"/><path class="cls-1" d="M48.93,24c-.06.69-.73.53-1.24.43a5.71,5.71,0,0,0-2.37,0,3,3,0,0,0-.94.45c0-.25,0-.51,0-.76A4.35,4.35,0,0,1,48,23.15S49,23.27,48.93,24Z"/><path class="cls-1" d="M69.15,30.5c-.09.25-.18.5-.28.76-.18.47-.39.95-.61,1.43h0A23.19,23.19,0,0,1,67,35a4.22,4.22,0,0,1-1.34-2.09Z"/><path class="cls-1" d="M56.18,15.61s-2,5.75,3.42,5.43,3.21,4.35,6,5.95,7.79-4.27,3.82-12.08S53.15,8,49.93,9.83c-3.84,2.23-6.88,6.88-5.53,13.61C44.4,23.44,55,20.45,56.18,15.61Z"/><path class="cls-9" d="M66.52,23.07S70.09,21.33,71,25.5s-3.18,7.83-6.81,7.57C64.15,33.07,64.73,24.84,66.52,23.07Z"/><path class="cls-14" d="M66.07,30.05a.38.38,0,0,0,.37-.32,6.36,6.36,0,0,1,2.42-3.91.39.39,0,0,0,.11-.54.4.4,0,0,0-.54-.1,7.13,7.13,0,0,0-2.75,4.42A.37.37,0,0,0,66,30Z"/><path class="cls-14" d="M69,28.18a.41.41,0,0,0,.33-.21.38.38,0,0,0-.16-.52A4.27,4.27,0,0,0,66.89,27a.38.38,0,1,0,.14.75,3.54,3.54,0,0,1,1.81.41A.32.32,0,0,0,69,28.18Z"/><path class="cls-1" d="M54.73,27.47c0,.72.41,1.31,1,1.32s1-.57,1-1.29-.41-1.32-1-1.33A1.19,1.19,0,0,0,54.73,27.47Z"/><path class="cls-1" d="M45.77,27.46c0,.72.39,1.32.89,1.32s.93-.57.94-1.29-.38-1.31-.89-1.32S45.79,26.74,45.77,27.46Z"/><path class="cls-4" d="M49.45,37.74a18.55,18.55,0,0,0,6.2-.93,3.88,3.88,0,0,1-3.42,2.73A2.94,2.94,0,0,1,49.45,37.74Z"/><path class="cls-14" d="M49.67,34.18A6,6,0,0,0,51,34a.41.41,0,0,0,.3-.5.42.42,0,0,0-.5-.31,4.59,4.59,0,0,1-1.38.15c0-.69.49-3.81.94-6.59a.42.42,0,1,0-.82-.13c-.24,1.48-1,6.35-1,6.92a.67.67,0,0,0,.29.46A1.43,1.43,0,0,0,49.67,34.18Z"/></g></g></svg>