<svg xmlns="http://www.w3.org/2000/svg" viewBox="0 0 1218.25 961.38"><defs><style>.cls-1{fill:#b9c1c7;}.cls-2{fill:#d9dee2;}.cls-28,.cls-3,.cls-31,.cls-38,.cls-40{fill:#fff;}.cls-4{fill:#ededed;}.cls-5{fill:#eeedef;}.cls-6{fill:#e0e0e0;}.cls-7{fill:#0fa8ba;}.cls-8{fill:#ffaeab;}.cls-9{fill:#f4952f;}.cls-10{fill:#283045;}.cls-11{fill:#edbc4f;}.cls-12{fill:#1bbfbf;}.cls-13,.cls-37{fill:none;stroke-width:2px;}.cls-13{stroke:#283045;}.cls-13,.cls-30,.cls-37{stroke-miterlimit:10;}.cls-14,.cls-30{fill:#efb41e;}.cls-15{fill:#e8792e;}.cls-16{fill:#db712a;}.cls-17{fill:#d0d5dd;}.cls-18{fill:#ff6b6e;}.cls-19{fill:#ffc54f;}.cls-20{fill:#c1cc8c;}.cls-21{font-size:36.69px;}.cls-21,.cls-23{fill:#0c243f;font-family:Montserrat-Bold, Montserrat;}.cls-21,.cls-23,.cls-31,.cls-38,.cls-40{font-weight:700;}.cls-22{fill:#f7f4f0;}.cls-23{font-size:34.64px;}.cls-24{letter-spacing:-0.01em;}.cls-25{fill:#f8ba1b;}.cls-26{fill:#e5e5e5;}.cls-27{fill:#ffbb36;}.cls-28{opacity:0.33;}.cls-29{fill:#e0dfde;}.cls-30,.cls-37{stroke:#fff;}.cls-30{stroke-width:4px;}.cls-31{font-size:57.83px;}.cls-31,.cls-38,.cls-40{font-family:Nunito-Bold, Nunito;}.cls-32{fill:#e5b34e;}.cls-33{fill:#ecbc4f;}.cls-34{fill:#ff7133;}.cls-35{fill:#0a353a;}.cls-36{fill:#e06612;}.cls-38{font-size:35.35px;}.cls-39{letter-spacing:0em;}.cls-40{font-size:33.7px;}</style></defs><title>hero_1</title><g id="Layer_2" data-name="Layer 2"><g id="Layer_1-2" data-name="Layer 1"><path class="cls-1" d="M1006.8,703c1.47,1.22,5.35-1.49,7.12-2.25,4.86-2.08,10-3.37,14.87-5.49a128.19,128.19,0,0,1,19.46-6.53q1-.24,2-.42a18.86,18.86,0,0,1,7.17-.14,8.54,8.54,0,0,1,6.76,5.85c2.06,5.81-2.9,15-5.37,20.13-3.3,6.87-7,14-7.32,21.73a17.06,17.06,0,0,0,6.75,14.23c6.68,5.12,13,4.53,20.62,2.12,9.5-3,16.62-10.31,23.56-17.1a180.86,180.86,0,0,0,19.29-23.1c4.77-6.68,9.08-14,13.3-21.17a128.81,128.81,0,0,1-17.35,0c-6.82-.49-15.27-2.72-9.46-10.89,3.25-4.61,9.83-6.81,15.1-8.57,7.67-2.5,15.56-4.94,23.55-6a26.83,26.83,0,0,0,2.71-.43c.75-1.53,1.47-3.07,2.17-4.64,2.89-6.56,5.34-13.19,7.53-19.88a35.72,35.72,0,0,0-13,2.13c-4.36,1.85-11.44,6.41-16,3.7-6.41-3.86-.9-9,3-12.11,5.35-4.16,11.84-5.13,18.11-7.23,2.2-.74,4.38-1.4,6.55-2a11.82,11.82,0,0,0,8.53-8.07l0-.07c2.54-8.76,6-20.11,13.56-26.08a19.74,19.74,0,0,1,2.61-1.74,36.05,36.05,0,0,1,10.65-3.73c-1.88-.38-3.78-.72-5.69-1h0c-16.31-2.44-33.88-1.07-49.92,1.94l-.19,0a11.2,11.2,0,0,0-8.61,8.15c-.33,1.2-.67,2.41-1.06,3.63-1.61,5.11-3.3,14.24-8.42,16.94-2.51,1.31-4.29.27-5.51-1.7-1.71-2.72-2.35-7.23-2.4-9.69a16,16,0,0,1,.85-5.22c.53-1.64,1.2-3.25,1.77-4.87-.89.3-1.78.59-2.68.87h0c-6.28,2-12.64,3.65-18.86,6.07l-3.18,1.26c-5.63,2.24-11.28,4.57-16.81,7-.67.28-1.33.57-2,.86-.12,1.08-.22,2.16-.27,3.24-.11,1.47-.15,3-.17,4.43,0,2.26,0,4.51,0,6.75,0,1.67,0,3.32,0,4.95,0,.57,0,1.17,0,1.75,0,3.19.25,6.52.33,9.87.16,7.13-.3,14.26-4.67,20.09-3.58,4.76-7.3,6.79-12.34,3a14.29,14.29,0,0,1-2.68-2.57,15.73,15.73,0,0,1-3-7,29.6,29.6,0,0,1-.48-4.6c-.3-8.15,2.06-15.3,4.1-23,.41-1.6.89-3.15,1.42-4.68.37-1.09.77-2.17,1.18-3.25-1.14.38-2.27.77-3.41,1.18-1.83.64-3.67,1.31-5.5,2-1.25.46-2.57.88-3.92,1.27-1.57.45-3.19.88-4.82,1.32-4.35,1.2-8.68,2.58-11.94,5.23-4,3.21-6.88,9.48-9,14.05-4.51,9.8-6.36,19.61-8.16,30.18-1.18,6.89-2.34,14.15-1.78,21.11C1005.59,696.54,1005.35,701.75,1006.8,703Z"/><path class="cls-2" d="M1013.61,758.76c6.86-21.84,23.14-42.09,36.27-60.49q3.67-5.14,7.52-10.14a340.62,340.62,0,0,1,34.9-38.84c4.27-4.08,8.59-8.15,13-12.14s8.83-7.85,13.39-11.59a214.51,214.51,0,0,1,24.15-17.38c7.07-4.32,14.72-7.43,22.14-11.09,4.9-2.4,9.77-4.9,15-6.38a19.74,19.74,0,0,1,2.61-1.74,36.05,36.05,0,0,1,10.65-3.73c-1.88-.38-3.78-.72-5.69-1h0a59.25,59.25,0,0,0-13.74,2.73c-21.59,8.09-41.44,20.27-59.2,34.85l-.71.58q-9.65,8-18.85,16.48a366.11,366.11,0,0,0-40.92,44.34l-3.91,5c-16,20.68-34.25,44.41-42,69C1007.17,760.72,1012.55,762.18,1013.61,758.76Z"/><path class="cls-1" d="M105.81,759.23c-10.16-8.52,6-18.93,13.75-20.94,15.19-3.9,48.07-.84,56.86,2q-3.21-3.6-6.23-7.43-5.59-7.06-11.24-14.12c-8.3,4.24-25.52,14.18-53.26,8.2-4.66-1-10.76-2.76-12.51-7.75-2.42-6.94,5.32-7.36,10.23-7.49,8.39-.22,37.19,1,50.62.84q-11.25-14.16-22.46-28.33c-17.3,5.06-38.35,11.09-55.8,3.16-11.42-5.19-1.74-14.11,5.86-16,13.62-3.43,29.5-.62,43.31,4.39q-5.23-6.72-10.4-13.44l-1.86-2.43c-8.29,3.22-15.93,7.2-25.13,7.42s-17.29-3.85-24-9.75c-2.94-2.62-6.86-5.36-7.32-9.68-.64-6,5.8-3.43,9.72-2.24a242.59,242.59,0,0,0,25.53,6.17c4.7.86,9.09,1.83,13.56,3.09a33.26,33.26,0,0,0,4.41.74c-4.83-6.44-9.55-13-14.12-19.68-15.25.23-33.68.39-46.1-10-8.12-6.8,1.75-11.9,8.39-11.76,10.29.23,20.9,4.67,30.16,10.52-1.93-2.93-3.85-5.89-5.73-8.85-17.09-5.22-38.33-11.41-48.36-27.5-6.39-10.23,6.36-12.27,13.59-9.78a59.18,59.18,0,0,1,19.62,12.09c-.78-1.38-1.57-2.77-2.33-4.15-1.86-3.32-3.56-6.68-5.16-10.07C44.37,574,26.05,571,15.59,558.52c-6.83-8.12,3.8-11.41,10.32-10.11,10.32,2.07,20.22,8.56,28.41,16.15-2.13-5.3-4.06-10.66-5.9-16.07-11.86-3.86-26.18-8.62-33-19.93-4.49-7.43,4.51-8.76,9.61-6.89,7.4,2.72,14.06,8.38,19.49,14.83-1.93-6-3.83-11.91-5.83-17.86-4.43-3.48-8.82-7.5-12.56-11.06-4.41-4.22-8.69-9.6-8-16.14.83-8.62,6.94-10.24,13.62-5.32a20,20,0,0,1,6.48,8.55,17.27,17.27,0,0,1,3.94-8.5c2-2.07,3.94-2.66,5.66-2.25,2.92.67,5.19,4.19,5.89,8.08,1.23,6.87-1.44,13.9-2.82,20.55a40.2,40.2,0,0,0-.69,6.32c-.13,2.93-.12,5.89-.41,8.75q1.91,5.89,3.83,11.78h0c-.52-10.22.83-21.41,5.92-29.78,2.82-4.65,10.7-9.23,11.81-.61,1.77,13.82-7.46,27.11-14.52,37.82l-.67.12q.91,2.67,1.89,5.37l.09.28a227.73,227.73,0,0,0,11.48,26.86l0,0a41.61,41.61,0,0,1,1.3-10.28c1.58-6,8.7-13.51,12.69-4.47,5.12,11.63,2.42,25.15-1,37.25,6.72,11,13.8,21.84,21.18,32.42-3.9-11.51-6-24.58-3-35.78,1.7-6.41,9.33-14.49,13.6-4.79,6.85,15.56.65,34.3-3.9,49.27l-.39.19h0q5.31,7.38,10.82,14.56,2.7,3.54,5.44,7v0c-5.73-15.77-9.13-33.59-5.77-48.61,1.91-8.57,11.56-19.09,17.67-5.79,9.76,21.26,2.61,46.14-2.63,66.09h0c5.24,6.58,10.53,13.11,15.79,19.67-.36-15.55-3-47.71-3-58.16,0-4.89,1.3-16.34,9.14-13.5,4.34,1.58,7.93,10.47,8.9,14.74,2.15,9.51-1.51,44.34-6.91,67.08h0q5.56,7,11,14.16c1.34,1.76,2.7,3.48,4.09,5.18-2.56-23-4.54-68.11-.83-78.92,1.88-5.51,6.36-14,13.39-12.57,7.27,1.51,6.72,12.67,7.82,18.41,2.56,13.22-5,54.91-7.54,62.42-2,5.81-5.22,11.43-7.45,17a1.8,1.8,0,0,1,.19.2q4.89,5.53,10,10.68c.08-.35.16-.72.25-1.09,3.92-18.52,9.84-58.35,12.81-71,1.39-5.85,6.14-19.19,14.74-13.59,4.74,3.1,6.55,14.76,6.49,20.14-.08,11.18-12.42,47.33-24.5,73-.22.47-.45.93-.67,1.38,11.51,10.84,23.54,21.1,35.36,32.38,3.57,3.4-1.41,9.28-5,5.86-17.06-16.3-35.29-30.24-51.08-47.49C155.44,757.62,110.41,763.08,105.81,759.23Z"/><path class="cls-1" d="M128.8,790.74c-7.67-8.41-16.5-15.69-25.59-22.55A405,405,0,0,0,0,711.68c4.89,1.82,12.44,16.11,16,20.37q8.74,10.38,18.2,20.13a395.91,395.91,0,0,0,85.32,66.66c5.54,3.21,42.54,25.94,46.32,20.39,2.24-3.28-14.28-19.24-17-22.85C142.3,807.73,136.13,798.77,128.8,790.74Z"/><path class="cls-2" d="M133.36,810.36a132.4,132.4,0,0,0-21-12.3,288.53,288.53,0,0,0-79.84-25.51c3.67.6,10.89,9.58,14,12.07q7.53,6.06,15.47,11.61a281.65,281.65,0,0,0,68.7,35c4.31,1.49,33.27,12.37,35.16,8,1.12-2.6-12.6-11.52-15-13.68C145.1,820.41,139.57,815,133.36,810.36Z"/><path class="cls-3" d="M18.65,724c33.78,38.35,88.59,53.3,121.5,92.41,4.31,5.11,8.64,10.91,15.07,12.74"/><path class="cls-3" d="M49.73,783.24c24.86,19.51,59.87,22.41,84.29,42.48,3.19,2.62,6.48,5.66,10.6,6"/><path class="cls-2" d="M207.34,765.61c-2.94-6.63-10.69-11.73-17.47-9.16a9.31,9.31,0,0,1-2.86.89c-2.68.1-4.38-3.05-4.26-5.73s1.35-5.2,1.52-7.87a10,10,0,0,0-19.07-5c.38-5.26.68-10.89-2-15.44s-9.52-7-13.34-3.37c-1.12,1.06-1.86,2.51-3.13,3.39-2.7,1.86-6.66.21-8.45-2.53s-2-6.18-2.36-9.45a126.62,126.62,0,0,0-2.74-16.51c-1-4.13-2.27-8.41-5.29-11.39s-8.27-4.11-11.51-1.37c-2.56,2.15-3.09,5.81-3.94,9a4,4,0,0,1-1.23,2.29c-2.33,1.75-4.77-2.05-5.36-4.9-2.3-11.1-7.14-21.8-14.77-30.18S73,644.06,61.67,642.9A26.45,26.45,0,0,0,50.17,644a23.45,23.45,0,0,0-10.39,7.75C29.08,665.33,33,686.21,44,699.6s27.33,21,43.18,28a5,5,0,0,1-2.49,6.4c-1.48.65-3.2.53-4.75,1-3.89,1.23-5.61,6.34-4,10.1s5.57,6.09,9.61,6.68,8.13-.27,12.08-1.3c2.38-.62,5.25-1.18,7,.52,2.15,2.07.91,5.75-1,8s-4.49,4.35-4.91,7.3c-.53,3.71,2.64,6.91,5.91,8.76a28.24,28.24,0,0,0,12.74,3.61c3.74,4.21-5.07,9.86-3.94,15.37.72,3.55,5.07,4.85,8.67,5.29a123.88,123.88,0,0,0,18.67.87c3.2-.1,7.74,1.12,7.09,4.25-.34,1.65-2.11,2.54-3.13,3.88-3,3.91,1.22,9.18,5.18,12.08,8,5.88,16.83,11.1,26.62,12.8s20.74-.66,27.41-8c7.39-8.16,7.72-19.73,6.7-30.09C209.65,785.81,211.15,774.2,207.34,765.61Z"/><path class="cls-3" d="M62,670.9l46.63,50.7c6.37,6.92,12.74,13.85,19.49,20.39,5.54,5.39,11.34,10.51,17.13,15.62q16.45,14.53,32.9,29.08"/><path class="cls-1" d="M1089.45,804.74c7.67-8.41,16.5-15.69,25.59-22.55a404.49,404.49,0,0,1,103.21-56.5c-4.89,1.81-12.44,16.1-16,20.36q-8.74,10.38-18.21,20.13a395.08,395.08,0,0,1-85.32,66.66c-5.53,3.21-42.53,25.95-46.32,20.4-2.24-3.29,14.29-19.25,17-22.86C1075.94,821.73,1082.12,812.77,1089.45,804.74Z"/><path class="cls-2" d="M1084.89,824.37a131.64,131.64,0,0,1,21-12.3,288.22,288.22,0,0,1,79.84-25.52c-3.67.61-10.89,9.58-14,12.07q-7.53,6.07-15.47,11.61a282.12,282.12,0,0,1-68.7,35c-4.31,1.5-33.27,12.37-35.16,8-1.12-2.6,12.6-11.52,15-13.67C1073.14,834.42,1078.68,829,1084.89,824.37Z"/><path class="cls-3" d="M1199.6,738c-33.79,38.35-88.6,53.3-121.51,92.4-4.3,5.12-8.63,10.91-15.06,12.75"/><path class="cls-3" d="M1168.52,797.24c-24.86,19.51-59.87,22.42-84.29,42.48-3.19,2.63-6.48,5.66-10.6,6"/><path class="cls-2" d="M1010.91,779.61c2.94-6.63,10.69-11.73,17.47-9.16a9.31,9.31,0,0,0,2.86.89c2.68.11,4.38-3.05,4.25-5.72s-1.35-5.2-1.52-7.88a10,10,0,0,1,19.08-5c-.38-5.26-.69-10.89,2-15.44s9.51-7,13.34-3.37c1.12,1.07,1.86,2.52,3.13,3.39,2.7,1.87,6.65.22,8.45-2.53s2-6.18,2.36-9.44a124.83,124.83,0,0,1,2.74-16.52c1-4.13,2.27-8.4,5.29-11.38s8.26-4.11,11.51-1.38c2.56,2.16,3.08,5.81,3.94,9a3.94,3.94,0,0,0,1.23,2.29c2.33,1.75,4.76-2.05,5.36-4.9,2.3-11.09,7.14-21.79,14.77-30.17s18.16-14.32,29.43-15.48a26.33,26.33,0,0,1,11.51,1.06,23.27,23.27,0,0,1,10.38,7.74c10.7,13.63,6.83,34.51-4.16,47.9s-27.33,21-43.19,28a5,5,0,0,0,2.49,6.4c1.49.66,3.21.53,4.76,1,3.89,1.22,5.61,6.33,4,10.1s-5.57,6.08-9.61,6.67-8.14-.27-12.09-1.3c-2.38-.61-5.24-1.18-7,.52-2.14,2.07-.9,5.75,1,8s4.49,4.35,4.91,7.3c.53,3.7-2.65,6.9-5.91,8.75a28.26,28.26,0,0,1-12.75,3.62c-3.74,4.2,5.08,9.85,4,15.36-.73,3.56-5.07,4.85-8.67,5.29a123.94,123.94,0,0,1-18.67.87c-3.2-.1-7.75,1.12-7.09,4.26.34,1.65,2.11,2.53,3.12,3.88,3,3.9-1.22,9.17-5.17,12.07-8,5.88-16.83,11.1-26.62,12.81s-20.75-.67-27.41-8c-7.39-8.16-7.72-19.73-6.7-30.09C1008.59,799.81,1007.09,788.2,1010.91,779.61Z"/><path class="cls-3" d="M1156.3,684.9l-46.64,50.7c-6.36,6.92-12.73,13.85-19.48,20.4-5.55,5.38-11.34,10.5-17.13,15.61l-32.91,29.08"/><path class="cls-4" d="M193.66,320.17H351a34.94,34.94,0,0,1,34.94,34.94v496a0,0,0,0,1,0,0H158.73a0,0,0,0,1,0,0v-496A34.94,34.94,0,0,1,193.66,320.17Z"/><rect class="cls-3" x="187.33" y="359.55" width="43.52" height="65.93"/><rect class="cls-3" x="247.02" y="359.55" width="43.52" height="65.93"/><rect class="cls-3" x="305.46" y="360.7" width="43.52" height="65.93"/><rect class="cls-3" x="187.33" y="445.14" width="43.52" height="65.93"/><rect class="cls-3" x="247.02" y="445.14" width="43.52" height="65.93"/><rect class="cls-3" x="305.46" y="446.3" width="43.52" height="65.93"/><rect class="cls-3" x="188.16" y="529.19" width="43.52" height="65.93"/><rect class="cls-3" x="247.85" y="529.19" width="43.52" height="65.93"/><rect class="cls-3" x="306.29" y="530.34" width="43.52" height="65.93"/><rect class="cls-3" x="188.16" y="612.47" width="43.52" height="65.93"/><rect class="cls-3" x="247.85" y="612.47" width="43.52" height="65.93"/><rect class="cls-3" x="306.29" y="613.62" width="43.52" height="65.93"/><path class="cls-5" d="M440.93,121H630.1A34.94,34.94,0,0,1,665,155.92V849.35a0,0,0,0,1,0,0H406a0,0,0,0,1,0,0V155.92A34.94,34.94,0,0,1,440.93,121Z"/><path class="cls-6" d="M748.52,43.45H944.28a34.94,34.94,0,0,1,34.94,34.94V841.95a0,0,0,0,1,0,0H713.59a0,0,0,0,1,0,0V78.39A34.94,34.94,0,0,1,748.52,43.45Z"/><circle class="cls-3" cx="817.32" cy="107.38" r="20.48"/><circle class="cls-3" cx="762.14" cy="107.1" r="20.48"/><circle class="cls-3" cx="877.73" cy="107.38" r="20.48"/><circle class="cls-3" cx="935.66" cy="107.38" r="20.48"/><circle class="cls-3" cx="987.8" cy="107.38" r="20.48"/><circle class="cls-3" cx="762.34" cy="163.28" r="19.08"/><circle class="cls-3" cx="818.63" cy="163.28" r="19.08"/><circle class="cls-3" cx="872.6" cy="163.28" r="19.08"/><circle class="cls-3" cx="921.18" cy="163.28" r="19.08"/><circle class="cls-3" cx="762.34" cy="240" r="19.08"/><circle class="cls-3" cx="818.63" cy="240" r="19.08"/><circle class="cls-3" cx="872.6" cy="240" r="19.08"/><circle class="cls-3" cx="921.18" cy="224.97" r="19.08"/><circle class="cls-3" cx="762.34" cy="308.63" r="19.08"/><circle class="cls-3" cx="818.63" cy="308.63" r="19.08"/><circle class="cls-3" cx="872.6" cy="308.63" r="19.08"/><circle class="cls-3" cx="921.18" cy="279.33" r="19.08"/><rect class="cls-3" x="459.2" y="156.53" width="40.48" height="65.93"/><rect class="cls-3" x="514.72" y="156.53" width="40.48" height="65.93"/><rect class="cls-3" x="569.08" y="157.69" width="40.48" height="65.93"/><rect class="cls-3" x="458.04" y="246.75" width="40.48" height="65.93"/><rect class="cls-3" x="513.56" y="246.75" width="40.48" height="65.93"/><rect class="cls-3" x="567.92" y="247.91" width="40.48" height="65.93"/><rect class="cls-3" x="458.04" y="333.5" width="40.48" height="65.93"/><rect class="cls-3" x="513.56" y="333.5" width="40.48" height="65.93"/><rect class="cls-3" x="567.92" y="334.65" width="40.48" height="65.93"/><rect class="cls-3" x="459.2" y="422.56" width="40.48" height="65.93"/><rect class="cls-3" x="514.72" y="422.56" width="40.48" height="65.93"/><rect class="cls-3" x="569.08" y="423.71" width="40.48" height="65.93"/><polygon class="cls-7" points="159.8 850.47 159.32 810.6 298.63 811.21 297.39 715.45 419.45 716.69 419.96 612.68 537.12 612.68 537.12 515.37 661.73 515.37 661.73 417.08 780.75 417.08 780.75 320.73 911.86 320.73 911.86 203.17 1069.94 203.17 1069.88 852.83 159.8 850.47"/><path class="cls-8" d="M236.42,810.83c-3.86-3.11-13.75-16.46-15.79-23.17-2.87-9.47,7.71-23.27,4.24-37.47l-11.18.77c4.86,15.49-5.88,28.1-4.48,33.93-.05,1-4.06,2.14-4.34,3.08-.41,1.42-1.24,23-1.24,23h33.19l-.3-.09C236.46,810.85,236.44,810.85,236.42,810.83Z"/><path class="cls-9" d="M202,811s-1.46-19.74,2.39-24.89,14.48,4.78,14.48,4.78l9.46-4.3s-.48,6.17,7.18,11.22,13.88,3.61,14.36,13.19Z"/><path class="cls-8" d="M364.42,715.73c-3.86-3.11-13.75-16.46-15.79-23.17-2.87-9.48,7.72-23.27,4.24-37.47l-11.18.77c4.86,15.48-5.88,28.1-4.48,33.93,0,1-4.06,2.14-4.34,3.08-.41,1.42-1.24,23-1.24,23h33.19l-.3-.09C364.46,715.75,364.44,715.75,364.42,715.73Z"/><path class="cls-9" d="M330,715.86s-1.46-19.74,2.39-24.89,14.48,4.78,14.48,4.78l9.46-4.31s-.48,6.18,7.18,11.23,13.88,3.61,14.36,13.19Z"/><path class="cls-8" d="M297.61,413.16l6.52,2.8,8.39.93v3.72l6.52,4.66s2.79.94,1.86,2.8-6.52,4.66-7.45,12.11,1.4,29.35,1.4,29.35-14,1.86-16.77-8.38-18.17-30.29-18.17-30.29S275.25,409.43,297.61,413.16Z"/><path class="cls-10" d="M285,428.53s12.11.94,15.84-5.59,3.73-27-14.91-28.88-25.15,22.36-27,28.88-9.32,16.78-21.43,19.57-25.15,15.84-27.95,27.95.93,32.61.93,40.07-5.59,15.84-9.32,18.63-12.11,16.77-4.65,28,33.54,8.39,35.4,7.46,9.79-52.65,9.79-52.65l35.4-43.79s27-3.72,26.09-17.7-12.11-15.84-13-15.84S283.63,433.66,285,428.53Z"/><path class="cls-11" d="M251,547.33s48.45,5.59,48.45,4.66,14-36.34,14-36.34,8.38-1.86,6.52-10.25-5.12-35.87-5.12-35.87-14,0-16.77-9.32l-19.23,6.17a16.4,16.4,0,0,0-8.65,6.53l-6.13,9.2,16.77,20.5-22.36,14.91Z"/><path class="cls-12" d="M251,547.33,299.47,552l62.43,25.16s21.43,3.72,14.91,34.47-27,72.68-27,72.68l-13.05-1.87L347,613.48l-63.36-12.11-28.88,78.27S243.1,704.33,238.44,723c-4.34,17.39-17.23,61-17.23,61H208.16s-8.85-60.1,1.4-84.32,9.78-21,9.78-21l26.09-54.05s-23.29-38.2-16.06-58.76C233.11,555.24,251,547.33,251,547.33Z"/><rect class="cls-13" x="213.29" y="591.59" width="27.02" height="38.2"/><path class="cls-8" d="M264.07,482.11l17.7,20.5-22.36,15.84-19.57,67.08-4.66,15.84s-8.38,3.73-14-3.73,9.31-17.7,9.31-17.7l10.25-68Z"/><rect class="cls-14" x="175.09" y="610.22" width="106.22" height="68.95" rx="13.2"/><rect class="cls-3" x="189.99" y="619.54" width="76.4" height="2.8"/><path class="cls-3" d="M985,68.69s-10.48,59-18.76,68.14-14.07,22.07-14.07,22.07,9.93,11,22.62,13.24,36.42-57.93,37.25-65.66,17.65-38.07,17.65-38.07l-35-8Z"/><path class="cls-15" d="M1056,117.28c-7.45,32.62-20.49,48.45-20.49,48.45l-6.32,7.84-.78,1-17.79,21.72s-11-13.43-37.85-24.48c0,0,.59-16,8.17-30.7l.09-.17a48.78,48.78,0,0,1,11.23-14.41l.31-.28c.78-.66,1.57-1.3,2.41-1.93,0,0,13-18.63,8.85-40.53,0,0,12.11-.93,17.7-20.5,0,0,17.7,11.18,23.29,13.05a18.08,18.08,0,0,1,2.66,1.09,17,17,0,0,1,5,3.7l0,0C1057.11,86.26,1060.72,96.44,1056,117.28Z"/><path class="cls-8" d="M755.94,164.8l-18.64-1.86s-3.73,7.45.93,12.11l15.84-.93Z"/><path class="cls-10" d="M737.3,162s-14-7.46-18.63-14-8.39-2.79-8.39-2.79-1.86,2.79,1.86,10.25,11.19,27.95,11.19,27.95l14.9-7.46S732.64,170.39,737.3,162Z"/><path class="cls-8" d="M888.24,308.29l-6.52-29.82,14.91.94.93,21.43S893.83,308.29,888.24,308.29Z"/><path class="cls-10" d="M888.24,308.29s-13,21.43-3.72,24.23c0,0,25.15-22.37,24.22-27s-11.18-5.59-11.18-5.59S894.76,307.36,888.24,308.29Z"/><path class="cls-10" d="M747.55,162.94l200.32-16.77s2.8,16.77,26.09,27L871.47,185.3s-40.06,3.73-63.36,2.8c-40.13-1.61-59.63-14-59.63-14Z"/><path class="cls-8" d="M991.2,20.85l-8.39,20.5,4.66.93-.93,10.25h10.25V64.64s-2.8,10.25,8.39,10.25,14-6.52,14-6.52L1021,36.69s6.53-14.91-6.52-17.7A40.53,40.53,0,0,0,991.2,20.85Z"/><path class="cls-10" d="M881.72,292.45s-13-100.63-9.32-106.22,55-31.68,91.31-19.56c0,0,40.85,16.88,47.37,29,0,0-14.29,29.24-98.15,7.81,0,0,6.71,15.5,4.66,29.82-3.72,26.08-15.84,60.56-15.84,60.56Z"/><path class="cls-15" d="M996.79,60.91s-5.59,7.46,0,19.57c0,0-19.57,41-26.09,53.11s-12.11,27.95-12.11,27.95-9.32.93-11.18-15.84L966,112.16s-14.91,9.32-23.29,9.32-19.57-1.87-14.91-15.84,33.54-46.59,33.54-46.59,7.46,7.45,10.25,7.45S950.2,99.12,950.2,99.12,981,59.05,996.79,60.91Z"/><path d="M1019.62,45.54,1028,26.91s5.59-14.91-7.45-20.5-23.29,0-23.29,0-26.09-.93-23.3,13S991.2,33,996.79,30.17s5.59,1.86,5.59,4.66,4.66,6.52,7.45,2.79,2.8-11.18,7.46-10.25.93,7.46,0,9.32S1015.42,44.14,1019.62,45.54Z"/><path class="cls-16" d="M1056.08,117.28c-7.45,32.62-20.49,48.45-20.49,48.45l-6.32,7.84-.78,1c-1.83,1.17-7.89,4.06-17.13-1.33-8.53-5-23-22.93-29.41-31.2-.29-.39-.58-.75-.84-1.1-1.48-1.93-2.36-3.11-2.36-3.11s9.81-11.32,9.81-12.25c0,0,1,.33,3.77,1l1.35.28c6.27,1.3,15.78,5.8,23.27,18.48,0,0,0-36.34,14-54,8.75-11.09,14.49-13,17.56-12.89a17.1,17.1,0,0,1,4,2.77l0,0C1057.24,86.26,1060.84,96.44,1056.08,117.28Z"/><path class="cls-8" d="M959.05,62.31l14-15.84,25.16,2.8s-6.52,5.59-12.12,8.38-14,9.32-14,9.32Z"/><ellipse class="cls-15" cx="984.15" cy="132.16" rx="8.02" ry="4" transform="translate(268.11 820.13) rotate(-51.5)"/><path class="cls-7" d="M928.57,50.45,960.12,48a7.93,7.93,0,0,1,8.46,6.68L977.87,114a7.93,7.93,0,0,1-9,9.07l-32.07-4.93a7.93,7.93,0,0,1-6.61-6.52l-8.78-52A7.93,7.93,0,0,1,928.57,50.45Z"/><path class="cls-8" d="M988.81,132a1.74,1.74,0,0,0-.59-2.14c-2.23-1.55-7.11-5.65-6.39-11.42.94-7.46,1.87-10.25,0-10.25s-3.72,3.72-3.72,3.72-3.73,1.87-4.66-5.59-2.8-10.25-4.66-9.31.93,10.24.93,11.18-.93-.94-1.86-1.87-2.8-7.45-3.73-6.52-2.79,11.18-.93,15.84,10.25,12.11,14,14,3.73,5.59,4.66,6.52S987.16,135.58,988.81,132Z"/><ellipse class="cls-3" cx="947.45" cy="83.66" rx="3.31" ry="4.66" transform="translate(-1.82 143.16) rotate(-8.63)"/><ellipse cx="1002.26" cy="10.8" rx="16.63" ry="10.8"/><polygon points="1021.6 62.85 1019.42 62.21 1019.08 68.34 1019.81 68.57 1021.6 62.85"/><path d="M1004,83.77s13.11-2.15,17.58-20.94l5.1,3.27s-1.58,10.49-9.44,17.29c-6.58,5.7-12.4,6-12.4,6Z"/><path d="M996.68,60.74S993.3,66,994,71.61a27.1,27.1,0,0,0,2.66,9l-2.76,5.48a21.58,21.58,0,0,1-5.69-13.9c-.28-7.86,2.69-10.87,2.69-10.87S994,59.76,996.68,60.74Z"/><path class="cls-3" d="M933.56,670.75V800.24a3.76,3.76,0,0,1-3.75,3.76H718a3.77,3.77,0,0,1-3.76-3.76V670.75A3.76,3.76,0,0,1,718,667H929.81A3.75,3.75,0,0,1,933.56,670.75Z"/><path class="cls-17" d="M933.56,670.75V681H714.27V670.75A3.76,3.76,0,0,1,718,667H929.81A3.75,3.75,0,0,1,933.56,670.75Z"/><path class="cls-18" d="M908.28,674.42a2.78,2.78,0,1,1-2.78-2.78A2.77,2.77,0,0,1,908.28,674.42Z"/><path class="cls-19" d="M918.06,674.42a2.78,2.78,0,1,1-2.78-2.78A2.78,2.78,0,0,1,918.06,674.42Z"/><path class="cls-20" d="M927.83,674.42a2.78,2.78,0,1,1-2.78-2.78A2.77,2.77,0,0,1,927.83,674.42Z"/><rect class="cls-3" x="731.47" y="686.37" width="1.19" height="9.37"/><text class="cls-21" transform="translate(769.15 749.95)">HTML</text><rect class="cls-7" x="736.72" y="695.03" width="106.36" height="2.54" rx="0.85"/><rect class="cls-19" x="736.72" y="772.8" width="118.7" height="2.5" rx="0.85"/><path class="cls-3" d="M871.26,702.12H737.81a1.09,1.09,0,0,0-1.09,1.09h0a1.09,1.09,0,0,0,1.09,1.08H871.26a1.09,1.09,0,0,0,1.09-1.08h0A1.09,1.09,0,0,0,871.26,702.12Z"/><rect class="cls-7" x="736.72" y="779.73" width="114.74" height="2.45" rx="0.85"/><rect class="cls-7" x="736.72" y="766.49" width="135.76" height="2.57" rx="0.94"/><rect class="cls-20" x="877.91" y="702.01" width="33.52" height="2.31" rx="0.85"/><rect class="cls-3" x="736.41" y="688.15" width="38.92" height="2.48" rx="0.85"/><path class="cls-22" d="M795.22,599.44V721.69a3.56,3.56,0,0,1-3.57,3.55H590.07a3.56,3.56,0,0,1-3.58-3.55V599.44a3.56,3.56,0,0,1,3.58-3.55H791.65A3.56,3.56,0,0,1,795.22,599.44Z"/><path class="cls-17" d="M795.22,599.44v9.65H586.49v-9.65a3.56,3.56,0,0,1,3.58-3.55H791.65A3.56,3.56,0,0,1,795.22,599.44Z"/><path class="cls-18" d="M771.16,602.91a2.65,2.65,0,1,1-2.65-2.63A2.63,2.63,0,0,1,771.16,602.91Z"/><path class="cls-7" d="M780.47,602.91a2.65,2.65,0,1,1-2.65-2.63A2.64,2.64,0,0,1,780.47,602.91Z"/><path class="cls-3" d="M789.77,602.91a2.65,2.65,0,1,1-2.65-2.63A2.63,2.63,0,0,1,789.77,602.91Z"/><rect class="cls-3" x="602.86" y="614.19" width="1.13" height="8.84"/><text class="cls-23" transform="translate(651.33 674.21) scale(1.01 1)"><tspan class="cls-24">C</tspan><tspan x="25.19" y="0">SS</tspan></text><rect class="cls-25" x="607.86" y="622.36" width="101.24" height="2.39" rx="0.85"/><rect class="cls-19" x="607.86" y="695.78" width="112.99" height="2.36" rx="0.85"/><path class="cls-26" d="M735.93,629.06h-127a1,1,0,0,0-1,1h0a1,1,0,0,0,1,1h127a1,1,0,0,0,1-1h0A1,1,0,0,0,735.93,629.06Z"/><rect class="cls-26" x="607.86" y="702.33" width="109.22" height="2.32" rx="0.85"/><rect class="cls-26" x="607.86" y="689.83" width="129.22" height="2.43" rx="0.94"/><rect class="cls-25" x="742.25" y="628.95" width="31.9" height="2.18" rx="0.85"/><rect class="cls-26" x="607.56" y="615.87" width="37.05" height="2.35" rx="0.85"/><rect class="cls-27" x="557.39" y="677.33" width="6.83" height="37.72" transform="translate(279.94 1544.9) rotate(-122.84)"/><path class="cls-28" d="M543.81,704.64l-.1-.16s28.83-20,31.69-20.46,6.87,1,1.28,2S543.81,704.64,543.81,704.64Z"/><path class="cls-10" d="M587.23,627a43.85,43.85,0,1,0,60.62,13A43.84,43.84,0,0,0,587.23,627Zm2.67,4.13a38.93,38.93,0,1,1-11.58,53.82A38.92,38.92,0,0,1,589.9,631.09Z"/><path class="cls-3" d="M480.76,744.6a2.21,2.21,0,0,1,.66-3.06l68.72-44.34a2.1,2.1,0,0,1,2.93.52l3.14,4.86a2.12,2.12,0,0,1-.73,2.9l-68.72,44.34a2.22,2.22,0,0,1-3.06-.66Z"/><path class="cls-29" d="M552.92,697.54C551.32,699.2,488.4,746,484,745.92s-3.71-3.65-2.57-4.38l68.72-44.34A2.11,2.11,0,0,1,552.92,697.54Z"/><path class="cls-3" d="M615.49,644.72a5.65,5.65,0,1,1,1.68-7.81A5.65,5.65,0,0,1,615.49,644.72Z"/><path class="cls-3" d="M602.61,643.61a2.69,2.69,0,1,1,.79-3.72A2.7,2.7,0,0,1,602.61,643.61Z"/><rect class="cls-30" x="844.81" y="393.68" width="102.66" height="90.7" rx="15.22"/><rect class="cls-30" x="96.7" y="266.53" width="135.35" height="76.84" rx="15.22"/><rect class="cls-7" x="193.93" y="219.38" width="97.27" height="64.7" rx="15.22"/><text class="cls-31" transform="translate(872.17 455.73)">Js</text><path class="cls-8" d="M1058.06,909.87c2.46,4.43,9,20.17,8.35,25.06-.86,6.75-7.24,14.37-8.84,15.23,0,0-.08,0-.08.09,0,.4,5.81,1,10.64.4,3-.38,8.09-.44,10.75-3l-5.83-40.1h0Z"/><path class="cls-8" d="M982.4,902.26l12.78.65s-6.47,34.19-6.14,38.77,1.47,6.51,1.47,6.51.08,7.13-2.7,7.46-31.36.41-31.36.41,16.62-7.62,20.06-13.84C979.67,936.51,982.4,902.26,982.4,902.26Z"/><polygon class="cls-32" points="995.18 913.56 979.46 913.07 1000.09 657.11 1059.05 653.67 995.18 913.56"/><path class="cls-3" d="M959.42,573.32,993,575a7.18,7.18,0,0,1,6.81,7.31l-1.13,58a7.18,7.18,0,0,1-9.88,6.51l-31.85-12.94a7.18,7.18,0,0,1-4.47-6.56l-.58-46.79A7.17,7.17,0,0,1,959.42,573.32Z"/><path class="cls-33" d="M1000.09,657.6l64.85-4.42s16.21,33.4,1,95.8c0,0-7.37,25-6.87,36.35s7.86,11.79,12.28,27.51,4.42,99.74,4.42,99.74l-18.67,1.47Z"/><path class="cls-34" d="M1064.94,653.18l-64.85,4.42s6.39-75.66-1-80.08-16.71-3.93-16.71-3.93l3.93-31,40.86-4.92s4.83,9.83,17.61,2.95,37.83,10.81,38.32,34.88,0,19.65,0,19.65l-29.32-.65Z"/><path class="cls-8" d="M1053.93,594.55l-3.4,32.59-45.85,14.74s-6.23.65-8.85-1.64-5.24-4.91-6.55-4.59-1.31,5.57-1,6.55-9.5,0-9.5,0-10.15-5.89-11.13-4.91,14.73,19,14.73,19l66.49-7.21s16.71,0,20.64-6.88,9-47.16,9-47.16Z"/><path class="cls-8" d="M986.33,546.32l-11.79-.08-20.3-45.53S957.18,468,942.12,464c0,0-.66.65,0,4.26s3.93,9.5,3,11.46-4.92,2-8.52-2.95-2.95-1.63-1,3.61,7.86,10.8,8.51,15.39,7.86,44.87,10.16,56.33,4.25,15.07,12.12,15.73,16.7,1,16.7,1Z"/><path class="cls-8" d="M1041,482s-15.06,2.95-19,6.88-6.22,3.93-8.51,4.26,2.29,3.6,2.29,3.6,0,6.88-2.29,9.17-2,5.24,4.91,8.85,8.52,3.6,9.17,10.15a72.06,72.06,0,0,1-.32,14.08s2.93,5.78,12,5.08c8.43-.66,9.91-4.59,9.91-4.59s7.94-9.66,7.61-19.16S1058.72,486,1041,482Z"/><path class="cls-35" d="M1067.89,482.7s-2.62-11.47-17.36-12.78-22.6,4.92-22.27,13.11,1,15.39,13.75,15.39,1.64,8.52-2.29,10.81-12.12,15.39-2.29,22.6,15.72,11.79,28.82,6.88,18.34-3,17.36-13.76-.33-14.08,3.27-16.7S1095.73,483.35,1067.89,482.7Z"/><path class="cls-36" d="M990.76,946.23c-16.22,7-18.61,2.89-28.44,4.79-7,1.35-9.42,3.76-10.07,4.36-1.47,1.35-2.6,5.34-2.11,5.34l40.29-.33a19.61,19.61,0,0,0,1.43-5.93A19.86,19.86,0,0,0,990.76,946.23Z"/><path class="cls-36" d="M1079.45,947c-16.2,6.18-17.88,1.22-27.71,3.89-6.89,1.86-9.42,4.6-10.07,5.19-1.48,1.36-2.6,5.35-2.11,5.35l40.28-.33a19.57,19.57,0,0,0,1.44-5.94C1081.57,951.48,1080.05,948.64,1079.45,947Z"/><rect class="cls-1" x="923.17" y="337.62" width="81.52" height="80.72" rx="9.06"/><line class="cls-37" x1="958.05" y1="353.54" x2="996.75" y2="353.54"/><line class="cls-37" x1="930.67" y1="365.38" x2="996.43" y2="365.38"/><line class="cls-37" x1="930.67" y1="376.6" x2="996.43" y2="376.6"/><line class="cls-37" x1="930.67" y1="387.83" x2="996.43" y2="387.83"/><line class="cls-37" x1="930.67" y1="399.05" x2="996.43" y2="399.05"/><path class="cls-3" d="M931.14,352.07l6.85-3.48v1.91l-4.92,2.4,4.92,2.46v1.92l-6.85-3.52Z"/><path class="cls-3" d="M939.7,357.93l4.14-11.23h1.78l-4.13,11.23Z"/><path class="cls-3" d="M954.18,353.81l-6.85,3.47v-1.92l4.91-2.39-4.91-2.47v-1.91l6.85,3.53Z"/><text class="cls-38" transform="translate(113.78 314.9)">Rea<tspan class="cls-39" x="62.43" y="0">c</tspan><tspan x="79.79" y="0">t</tspan></text><text class="cls-40" transform="translate(215.27 261.69)">Git</text><ellipse class="cls-7" cx="971.87" cy="604.76" rx="3.72" ry="5.17"/></g></g></svg>