<?xml version="1.0" encoding="UTF-8"?>
<svg width="325px" height="211px" viewBox="0 0 325 211" version="1.1" xmlns="http://www.w3.org/2000/svg" xmlns:xlink="http://www.w3.org/1999/xlink">
    <!-- Generator: Sketch 59 (86127) - https://sketch.com -->
    <title>Group 2</title>
    <desc>Created with Sketch.</desc>
    <g id="Page-1" stroke="none" stroke-width="1" fill="none" fill-rule="evenodd">
        <g id="academy" transform="translate(-250.000000, -873.000000)">
            <g id="Group-2" transform="translate(250.000000, 873.000000)">
                <rect id="Rectangle-Copy-31" fill="#0FA8BA" x="0" y="0" width="325" height="211" rx="8"></rect>
                <g id="html-5-copy-2" transform="translate(61.000000, 50.000000)" fill-rule="nonzero">
                    <path d="M84,24 L77.3868967,99.9826752 C67.5804799,107.515924 55.2601779,112 41.8754381,112 C28.626584,112 16.3968725,107.605605 6.63575088,100.184459 L0,24 L84,24 Z" id="Path" fill="#FFFFFF"></path>
                    <polygon id="Path" fill="#FFFFFF" points="41 31 41 111 69.6193029 103.203966 76 31"></polygon>
                    <polygon id="Path" fill="#0FA8BA" points="16 40 18.7496757 72.4894837 55.1599654 72.4894837 53.9684393 85.9120459 42.488543 89.0095602 30.5732815 85.6596558 30.2753999 77.3078394 19.1392131 77.3078394 20.536965 93.7820268 42.488543 100 64.463035 93.7820268 67.1897968 61.5219885 28.8318201 61.5219885 27.8923476 51.0133843 27.8923476 51.0133843 68.0834414 50.7839388 69 40"></polygon>
                    <polygon id="Path" fill="#FFFFFF" points="19.8030075 0 19.8030075 5.57819225 14.1969925 5.57819225 14.1969925 0 9 0 9 16 14.1969925 16 14.1969925 10.7890961 19.8030075 10.7890961 19.8030075 16 25 16 25 0"></polygon>
                    <polygon id="Path" fill="#FFFFFF" points="41 0 25 0 25 5.53058321 30.2210526 5.53058321 30.2210526 16 35.8030075 16 35.8030075 5.53058321 41 5.53058321"></polygon>
                    <polygon id="Path" fill="#FFFFFF" points="68.153169 10.9111748 68.153169 0 62 0 62 10.9111748 62 16 68.153169 16 77 16 77 10.9111748"></polygon>
                    <polygon id="Path" fill="#FFFFFF" points="55.6911392 0 52 5.70773639 48.3088608 0 43 0 43 16 48.3088608 16 48.3088608 8.06876791 52 13.7535817 55.6911392 8.06876791 55.6911392 16 61 16 61 0"></polygon>
                </g>
                <g id="css-copy-3" transform="translate(164.000000, 50.000000)" fill-rule="nonzero">
                    <path d="M84,24 L77.4064516,99.9826752 C67.6290323,107.515924 55.3451613,112 42,112 C28.6548387,112 16.3709677,107.515924 6.59354839,99.9826752 L0,24 L84,24 Z" id="Path" fill="#FFFFFF"></path>
                    <polygon id="Path" fill="#FFFFFF" points="41 29 41 109 69.632107 101.20339 76 29"></polygon>
                    <polygon id="Path" fill="#0FA8BA" points="67.1724138 62.1662219 47.0461207 62.1662219 68.0862069 51.6168509 69 41 16 41 16.9366379 51.8192909 38.2051724 51.8192909 17.7818966 61.8738086 18.7413793 72.9405261 18.7413793 72.9405261 55.1560345 72.9405261 53.9681034 86.1441098 42.5 89.2032024 30.575 85.8966832 30.2551724 77.6866184 19.1525862 77.6866184 20.5461207 93.8818147 42.5 100 64.4538793 93.8818147"></polygon>
                    <g id="Group" transform="translate(18.000000, 0.000000)" fill="#FFFFFF">
                        <polygon id="Path" points="4.13577982 11.7633803 4.13577982 4.23661972 14.9247706 4.23661972 14.9247706 0.157746479 0.202293578 0.157746479 0.202293578 15.8422535 14.9247706 15.8422535 14.9247706 11.7633803"></polygon>
                        <polygon id="Path" points="21.2408257 6.28732394 21.2408257 4.41690141 31.9848624 4.41690141 31.9848624 4.23661972 31.9848624 0.157746479 17.2848624 0.157746479 17.2848624 9.89295775 27.8266055 9.89295775 27.8266055 11.7633803 17.2848624 11.7633803 17.2848624 15.8422535 31.9848624 15.8422535 31.9848624 11.7633803 31.9848624 6.28732394"></polygon>
                        <polygon id="Path" points="38.0536697 6.28732394 38.0536697 4.41690141 48.7977064 4.41690141 48.7977064 4.23661972 48.7977064 0.157746479 34.0752294 0.157746479 34.0752294 9.89295775 44.6169725 9.89295775 44.6169725 11.7633803 34.0752294 11.7633803 34.0752294 15.8422535 48.7977064 15.8422535 48.7977064 11.7633803 48.7977064 6.28732394"></polygon>
                    </g>
                </g>
            </g>
        </g>
    </g>
</svg>