<?xml version="1.0" encoding="UTF-8"?>
<svg width="325px" height="211px" viewBox="0 0 325 211" version="1.1" xmlns="http://www.w3.org/2000/svg" xmlns:xlink="http://www.w3.org/1999/xlink">
    <!-- Generator: Sketch 59 (86127) - https://sketch.com -->
    <title>Group 4</title>
    <desc>Created with Sketch.</desc>
    <g id="Page-1" stroke="none" stroke-width="1" fill="none" fill-rule="evenodd">
        <g id="academy" transform="translate(-980.000000, -873.000000)">
            <g id="Group-4" transform="translate(980.000000, 873.000000)">
                <rect id="Rectangle-Copy-26" fill="#0FA8BA" x="0" y="0" width="325" height="211" rx="8"></rect>
                <g id="java-copy" transform="translate(108.000000, 33.000000)" fill="#FFFFFF" fill-rule="nonzero">
                    <path d="M49.6289532,25.1842002 C43.320167,29.6013792 36.1697914,34.6081393 32.3387695,42.8912413 C25.6843944,57.3415487 45.9555054,73.1047102 46.8217157,73.7687131 C47.0231599,73.92335 47.2639977,74 47.5043879,74 C47.7595506,74 48.015161,73.9131003 48.2228724,73.7401922 C48.6253132,73.4050712 48.7394649,72.8359895 48.4977318,72.3725244 C48.4243166,72.2317023 41.1481503,58.1619711 41.4185333,48.0677901 C41.5143312,44.5525854 46.4564301,40.5645573 51.6886088,36.3421227 C56.4807436,32.4748629 61.9125759,28.0915524 65.0909185,22.964024 C72.068052,11.6773116 64.3133437,0.579104733 64.2341089,0.46858613 C63.9261231,0.0380983427 63.3576026,-0.118321133 62.8714505,0.0942489236 C62.385746,0.307264619 62.1167061,0.830445429 62.2277242,1.34694164 C62.2433921,1.42002653 63.7515381,8.75926396 59.5552305,16.3204299 C57.8259435,19.4448086 54.0276003,22.104831 49.6289532,25.1842002 Z" id="XMLID_8_"></path>
                    <path d="M75.5504042,30.010958 C75.9991931,29.6760476 76.1310305,29.0652495 75.8592288,28.5778631 C75.587427,28.0904767 74.9955132,27.8754007 74.4699696,28.0730381 C73.3890836,28.4799387 48,38.1717741 48,49.8829095 C48,57.9551911 51.4819521,62.2200458 54.024337,65.3344003 C55.0216959,66.5555492 55.8827025,67.6103607 56.1662432,68.5109078 C56.9649431,71.1061286 55.0727152,75.796664 54.2771758,77.3849177 C54.0478149,77.8418983 54.1602379,78.3950148 54.5503321,78.7285839 C54.7611816,78.9087827 55.0244049,79 55.2880797,79 C55.5124742,79 55.7377717,78.9338228 55.9323673,78.7996797 C56.3689658,78.4987521 66.6012636,71.3341718 64.7659244,62.7020665 C64.0823566,59.4213747 62.454255,57.0237912 61.0175886,54.9083553 C58.7921552,51.6312406 57.1848226,49.2636158 59.6233629,44.8909995 C62.4813449,39.791775 75.4199213,30.1079882 75.5504042,30.010958 Z" id="XMLID_9_"></path>
                    <path d="M11.218895,79.6398671 C10.7910021,80.9013818 10.992964,82.1541511 11.8025872,83.2617479 C14.5084329,86.9618995 24.0925244,89 38.7909129,89 C38.7918007,89 38.7922446,89 38.7926884,89 C40.7843436,89 42.8869669,88.9615205 45.0406354,88.8854361 C68.5405685,88.0563783 77.2568896,80.8445371 77.6164262,80.5380131 C78.0083655,80.2039412 78.1131193,79.6473006 77.8694334,79.1969158 C77.6257475,78.7469683 77.1002027,78.5209014 76.5981831,78.6568913 C68.3221834,80.8830166 52.8674363,81.6731576 42.1479194,81.6731576 C30.1531573,81.6731576 24.0445862,80.8222365 22.5491803,80.1938841 C23.3166356,79.1558127 28.0496463,77.3022388 33.9145315,76.1657824 C34.4751422,76.0573403 34.8604234,75.5474872 34.8049394,74.9873484 C34.7494553,74.4272097 34.2718487,74 33.700585,74 C30.2623499,74.0004373 13.0210167,74.2724172 11.218895,79.6398671 Z" id="XMLID_10_"></path>
                    <path d="M90.1477875,72 C85.3009335,72 80.7048553,74.3834977 80.5113362,74.484988 C80.0630466,74.7206372 79.8357949,75.2250397 79.9587416,75.7094054 C80.0821322,76.1933356 80.5255395,76.5335242 81.0341928,76.5339597 C81.1371663,76.5343953 91.3728166,76.6162845 92.3000215,82.3554961 C93.1211461,87.3067422 82.6151905,95.3292679 78.4975838,98.0028624 C78.052845,98.2916524 77.8801869,98.8500669 78.0865777,99.3322548 C78.2618988,99.7430074 78.669798,100 79.1092106,100 C79.1859968,100 79.2636708,99.9921595 79.3409009,99.9756075 C80.318261,99.7708845 103.244502,94.8131048 100.820631,81.7130145 C99.3417193,73.6848262 94.2001481,72 90.1477875,72 Z" id="XMLID_11_"></path>
                    <path d="M74.9810135,97.0610843 C75.0613913,96.6510322 74.8823275,96.2341743 74.5242001,95.995119 L68.9937652,92.3050756 C68.7240533,92.1251461 68.383341,92.0685725 68.066742,92.1485412 C68.009138,92.1630036 62.2255133,93.6109469 53.828719,94.4991095 C50.4961688,94.8551402 46.763516,95.0431516 43.0335425,95.0431516 C34.638981,95.0431516 29.1500746,94.1035198 28.3507627,93.4144281 C28.244932,93.2208869 28.2784227,93.1328363 28.2971776,93.0839193 C28.442304,92.6989638 29.2206284,92.2416962 29.7225427,92.0609159 C30.2767026,91.8656733 30.5754398,91.292281 30.4030743,90.7537686 C30.2311552,90.2152562 29.6484166,89.8979337 29.0732693,90.029797 C23.5254193,91.3050419 20.8126706,93.0885984 21.0100426,95.3302731 C21.3605789,99.3044605 31.0251086,101.344512 39.1955056,101.884301 C40.3703601,101.960866 41.6412215,102 42.971473,102 C42.9723661,102 42.9728126,102 42.9737057,102 C56.5597759,102 73.9767384,97.9394635 74.1508901,97.898203 C74.575999,97.7982422 74.9001892,97.4711364 74.9810135,97.0610843 Z" id="XMLID_12_"></path>
                    <path d="M32.4040704,106.049327 C32.8230864,105.776721 33.0089187,105.259616 32.8601635,104.783111 C32.7118551,104.306607 32.2655896,103.993846 31.7643786,104 C31.0206028,104.019723 24.4865438,104.314192 24.0291105,108.469326 C23.8906297,109.711003 24.2466593,110.845155 25.0878184,111.840549 C27.4339507,114.617479 33.7665425,116.267843 44.4447504,116.886674 C45.7080524,116.962076 46.9910098,117 48.2592257,117 C61.8348087,117 70.9776668,112.754741 71.3604991,112.574044 C71.731717,112.398701 71.9765152,112.03463 71.9984041,111.625051 C72.020293,111.215918 71.8156989,110.827308 71.4654765,110.613595 L64.4735375,106.350489 C64.2309728,106.202808 63.9406099,106.15373 63.6636484,106.210393 C63.6194238,106.219762 59.1799982,107.139308 52.480209,108.048146 C51.2124399,108.21992 49.6248248,108.307368 47.762035,108.307368 C41.0693932,108.307368 33.6253815,107.215156 32.1976894,106.5004 C32.1771406,106.366105 32.2034966,106.196562 32.4040704,106.049327 Z" id="XMLID_13_"></path>
                    <path d="M41.9790278,129 C72.9734525,128.974088 89.6087448,123.537497 92.8132682,120.116296 C93.9477862,118.905481 94.0702322,117.759664 93.9736111,117.011303 C93.735398,115.169388 92.0349568,114.042017 91.8417148,113.919486 C91.3764199,113.624358 90.7521679,113.701654 90.3892825,114.114482 C90.0272875,114.527749 90.0188276,115.130741 90.3821583,115.543129 C90.5776267,115.791265 90.6907223,116.206289 90.1190107,116.770634 C88.8380028,117.950706 75.9166093,121.533086 54.4026226,122.609073 C51.4554585,122.76059 48.3644759,122.837007 45.2156098,122.837446 C25.9528487,122.837446 11.8555282,120.235313 10.005035,118.71839 C10.718784,117.707841 15.7047855,116.092542 21.0078109,115.17949 C21.6053474,115.076722 22.0091966,114.521161 21.9165829,113.930027 C21.8239692,113.338892 21.2714038,112.931774 20.6676336,113.009508 C20.5180269,113.029271 20.0108777,113.060014 19.4226916,113.095148 C10.6729224,113.622162 0.561553458,114.796965 0.0339224676,119.243209 C-0.126370491,120.598514 0.281931296,121.828214 1.24769637,122.898931 C3.61068175,125.517753 10.4030959,128.999561 41.977692,128.999561 C41.9785825,129 41.9785825,129 41.9790278,129 Z" id="XMLID_14_"></path>
                    <path d="M98.3558687,121.104398 C97.9188638,120.899112 97.4028073,121.002883 97.0763861,121.360215 C97.0306427,121.409845 92.3830255,126.347523 78.4081978,129.246786 C73.0579977,130.335926 63.0153251,130.888167 48.5590816,130.888167 C34.0757474,130.888167 20.294552,130.309307 20.1568777,130.303442 C19.5813104,130.275018 19.0887918,130.700026 19.0106283,131.275728 C18.9320207,131.851429 19.2970796,132.393293 19.8531061,132.527743 C19.9965538,132.562484 34.439474,136 54.187295,136 C63.6588414,136 72.8754682,135.218111 81.581812,133.675988 C97.8153861,130.784847 98.951865,122.607268 98.9922791,122.260764 C99.0486812,121.7762 98.7919852,121.309683 98.3558687,121.104398 Z" id="XMLID_15_"></path>
                </g>
            </g>
        </g>
    </g>
</svg>