<?xml version="1.0" encoding="UTF-8"?>
<svg width="325px" height="211px" viewBox="0 0 325 211" version="1.1" xmlns="http://www.w3.org/2000/svg" xmlns:xlink="http://www.w3.org/1999/xlink">
    <!-- Generator: Sketch 59 (86127) - https://sketch.com -->
    <title>Group 3</title>
    <desc>Created with Sketch.</desc>
    <g id="Page-1" stroke="none" stroke-width="1" fill="none" fill-rule="evenodd">
        <g id="academy" transform="translate(-615.000000, -873.000000)">
            <g id="Group-3" transform="translate(615.000000, 873.000000)">
                <rect id="Rectangle-Copy-25" fill="#0FA8BA" x="0" y="0" width="325" height="211" rx="8"></rect>
                <g id="kisscc0-computer-icons-logo-brand-javascript-angle-js-5b741783c87687.7713575915343348518211-copy" transform="translate(108.000000, 62.000000)" fill-rule="nonzero">
                    <polygon id="path13" fill="#FFFFFF" points="8.55496386 96.3041551 0 0 94 0 85.4371357 96.288613 46.9424845 107"></polygon>
                    <polygon id="path15" fill="#FFFFFF" points="46 99 77.5720243 90.3387443 85 8 46 8 46 99"></polygon>
                    <g id="Group" transform="translate(13.000000, 19.000000)" fill="#0FA8BA">
                        <polygon id="path18" points="66.6423111 23.8408427 50.0319633 23.8408427 50.0319633 11.7991585 67.6923772 11.7991585 68.7379266 0.03947448 37.7090697 0.03947448 37.7090697 35.5995789 53.7779037 35.5995789 52.358656 50.8503158 37.709133 53.5111579 37.709133 65.7697895 63.3755505 59.9431579"></polygon>
                        <path d="M31.2702933,0.03947448 L4.95185767,0.03947448 L6.04477969,11.8038954 L19.4393254,11.8040027 L19.4393254,51.8164832 L12.8745134,50.8582105 L12.0351189,41.4798947 C12.0351189,41.4798947 4.14780735,41.4798947 0.204151376,41.4798947 L1.85508706,59.9431579 C31.2702933,65.7696411 1.96659204,59.9388947 31.2702933,65.7696411 L31.2702933,0.03947448 Z" id="path24"></path>
                    </g>
                </g>
            </g>
        </g>
    </g>
</svg>