<svg xmlns="http://www.w3.org/2000/svg" viewBox="0 0 209.79 58"><defs><style>.cls-1{fill:#c7c5c4;}.cls-2{fill:#0ea9ba;}.cls-3{fill:#50c4cc;}.cls-4{fill:#da6627;}.cls-5{fill:#eeb41e;}.cls-6{fill:#e0dfde;}.cls-7{fill:#acabab;}.cls-8{fill:#b7b7b8;}.cls-9{fill:#d4d0cb;}.cls-10{fill:#f4952f;}.cls-11{fill:#f37f2f;}.cls-12{fill:#ef7826;}.cls-13{fill:#edbb4f;}.cls-14{fill:#12b4bc;}.cls-15{fill:#29bdbd;}.cls-16{fill:#3dbfbe;}</style></defs><title>Asset 3</title><g id="Layer_2" data-name="Layer 2"><g id="Layer_1-2" data-name="Layer 1"><polygon class="cls-1" points="26.34 57.98 26.34 44.41 58.62 0.17 58.62 13.61 26.34 57.98"/><polygon class="cls-2" points="0 27.37 13.04 27.38 26.34 13.61 26.34 0.17 0 27.37"/><polygon class="cls-3" points="26.34 57.98 26.34 44.41 13.16 30.64 0.12 30.66 26.34 57.98"/><polygon class="cls-4" points="84.76 30.67 71.71 30.67 58.62 44.4 58.62 58 84.76 30.67"/><polygon class="cls-5" points="58.62 0.17 58.62 13.61 71.71 27.38 84.76 27.38 58.62 0.17"/><polygon class="cls-6" points="26.34 44.4 36.2 44.42 26.34 57.98 26.34 44.4"/><polygon class="cls-1" points="36.22 44.39 26.34 44.4 33.76 34.24 36.22 44.39"/><polygon class="cls-7" points="43.6 34.26 33.76 34.23 41.14 24.13 43.6 34.26"/><polygon class="cls-8" points="33.76 34.24 43.6 34.26 36.22 44.4 33.76 34.24"/><polygon class="cls-9" points="41.15 24.12 50.98 24.11 43.6 34.26 41.15 24.12"/><polygon class="cls-8" points="50.98 24.11 41.16 24.11 48.81 13.61 50.98 24.11"/><polygon class="cls-6" points="58.62 13.61 48.81 13.61 58.62 0.17 58.62 13.61"/><polygon class="cls-1" points="48.81 13.61 58.62 13.61 50.99 24.11 48.81 13.61"/><polygon class="cls-10" points="68.3 10.25 58.62 13.61 65.15 20.48 68.3 10.25"/><polygon class="cls-11" points="65.15 20.48 75.49 17.73 68.3 10.25 65.15 20.48"/><polygon class="cls-12" points="65.15 20.48 71.72 27.38 75.5 17.73 65.15 20.48"/><polygon class="cls-4" points="75.5 17.76 71.72 27.38 84.76 27.38 75.5 17.76"/><polygon class="cls-12" points="75.01 40.86 71.72 30.67 65.21 37.49 75.01 40.86"/><polygon class="cls-11" points="65.21 37.49 67.89 48.31 75.01 40.86 65.21 37.49"/><polygon class="cls-5" points="65.21 37.49 58.62 44.41 67.89 48.31 65.21 37.49"/><polygon class="cls-13" points="67.89 48.31 58.62 44.41 58.62 58 67.89 48.31"/><polygon class="cls-2" points="9.9 17.15 13.11 27.36 19.68 20.61 9.9 17.15"/><polygon class="cls-14" points="19.69 20.58 17.2 9.61 9.91 17.15 19.69 20.58"/><polygon class="cls-15" points="19.66 20.57 26.34 13.61 17.2 9.6 19.66 20.57"/><polygon class="cls-3" points="17.2 9.6 26.34 13.61 26.38 0 17.2 9.6"/><polygon class="cls-16" points="16.54 47.77 26.34 44.41 19.81 37.58 16.54 47.77"/><polygon class="cls-15" points="19.81 37.59 9.45 40.38 16.54 47.76 19.81 37.59"/><polygon class="cls-14" points="19.81 37.58 13.16 30.64 9.45 40.38 19.81 37.58"/><polygon class="cls-2" points="9.45 40.37 13.16 30.64 0.15 30.67 9.45 40.37"/><path class="cls-3" d="M92.06,43.17a1.22,1.22,0,0,1-.38-.94V20.71A1.5,1.5,0,0,1,92,19.66a1.44,1.44,0,0,1,2,0,1.5,1.5,0,0,1,.36,1.05V41.13H105a1.33,1.33,0,0,1,.92.31,1.37,1.37,0,0,1,0,1.78,1.32,1.32,0,0,1-.92.3H93A1.33,1.33,0,0,1,92.06,43.17Z"/><path class="cls-3" d="M122,40a1.17,1.17,0,0,1,.27.79c0,.57-.39,1.09-1.15,1.57a9.34,9.34,0,0,1-2.5,1.07,9.69,9.69,0,0,1-2.56.36,7.62,7.62,0,0,1-5.86-2.29A8.83,8.83,0,0,1,108,35.15a10.18,10.18,0,0,1,1-4.52,7.25,7.25,0,0,1,2.67-3.06,7.17,7.17,0,0,1,3.93-1.09,6.22,6.22,0,0,1,5,2.12,8.47,8.47,0,0,1,1.84,5.74,1.56,1.56,0,0,1-.26,1,1.09,1.09,0,0,1-.86.3H110.7c.19,3.92,2,5.88,5.35,5.88a6,6,0,0,0,2.2-.36,14.24,14.24,0,0,0,2-1,3,3,0,0,1,1.15-.52A.8.8,0,0,1,122,40Zm-9.73-10a6.3,6.3,0,0,0-1.5,3.86h9.3A6.09,6.09,0,0,0,118.84,30a4,4,0,0,0-3.22-1.35A4.36,4.36,0,0,0,112.26,30Z"/><path class="cls-3" d="M138.78,26.58a1.28,1.28,0,0,1,.88.34,1.07,1.07,0,0,1,.4.86,1.2,1.2,0,0,1-.13.54l-6.41,14.35a1.59,1.59,0,0,1-1.44,1,1.47,1.47,0,0,1-.82-.26,1.71,1.71,0,0,1-.63-.7l-6.37-14.35a1,1,0,0,1-.13-.51,1.15,1.15,0,0,1,.44-.89,1.47,1.47,0,0,1,1-.37,1.12,1.12,0,0,1,.64.2,1.31,1.31,0,0,1,.48.58l5.48,12.81,5.49-12.74A1.19,1.19,0,0,1,138.78,26.58Z"/><path class="cls-3" d="M155.79,40a1.16,1.16,0,0,1,.26.79c0,.57-.38,1.09-1.15,1.57a9.28,9.28,0,0,1-2.49,1.07,9.69,9.69,0,0,1-2.56.36A7.66,7.66,0,0,1,144,41.47a8.87,8.87,0,0,1-2.15-6.32,10.32,10.32,0,0,1,.95-4.52,7.34,7.34,0,0,1,2.68-3.06,7.17,7.17,0,0,1,3.93-1.09,6.22,6.22,0,0,1,5,2.12,8.47,8.47,0,0,1,1.83,5.74,1.5,1.5,0,0,1-.26,1,1.07,1.07,0,0,1-.85.3H144.49c.2,3.92,2,5.88,5.36,5.88a6.07,6.07,0,0,0,2.2-.36,14.24,14.24,0,0,0,2-1,3,3,0,0,1,1.15-.52A.8.8,0,0,1,155.79,40Zm-9.74-10a6.35,6.35,0,0,0-1.49,3.86h9.29A6.09,6.09,0,0,0,152.64,30a4,4,0,0,0-3.22-1.35A4.39,4.39,0,0,0,146.05,30Z"/><path class="cls-3" d="M160.47,43.34a1.34,1.34,0,0,1-.38-1V20.64a1.33,1.33,0,0,1,.38-1,1.35,1.35,0,0,1,1-.36,1.26,1.26,0,0,1,1.31,1.37V42.33a1.26,1.26,0,0,1-1.31,1.37A1.35,1.35,0,0,1,160.47,43.34Z"/><path class="cls-5" d="M170.08,41.27c-1.64-1.71-2.47-4.2-2.47-7.48V21.46a2.25,2.25,0,0,1,.56-1.59,2.2,2.2,0,0,1,3,0,2.21,2.21,0,0,1,.56,1.59V34a6.8,6.8,0,0,0,1.42,4.69,5.23,5.23,0,0,0,4.13,1.59,5.18,5.18,0,0,0,4.11-1.6A6.89,6.89,0,0,0,182.82,34V21.46a2.25,2.25,0,0,1,.56-1.59,2.2,2.2,0,0,1,3,0,2.25,2.25,0,0,1,.56,1.59V33.79c0,3.26-.82,5.74-2.46,7.46s-4,2.58-7.2,2.58S171.72,43,170.08,41.27Z"/><path class="cls-5" d="M192.4,43.13a2.22,2.22,0,0,1-.58-1.62v-20a2.08,2.08,0,0,1,.54-1.54,2,2,0,0,1,1.5-.55h8.08a8.14,8.14,0,0,1,5.78,1.93,7,7,0,0,1,2.07,5.42,7.1,7.1,0,0,1-2.07,5.43,8.1,8.1,0,0,1-5.78,1.94h-5.88v7.35a2.22,2.22,0,0,1-.58,1.62,2,2,0,0,1-1.56.6A2,2,0,0,1,192.4,43.13Zm9-12.35q4.36,0,4.37-4t-4.37-4h-5.35v7.92Z"/></g></g></svg>