<svg xmlns="http://www.w3.org/2000/svg" viewBox="0 0 1352.69 1124.22"><defs><style>.cls-1{fill:#0fa8ba;}.cls-2{fill:#edbc4f;}.cls-3{fill:#159aa0;}.cls-4{fill:#d3a240;}.cls-5{fill:#b9c1c7;}.cls-6{fill:#eeedef;}.cls-28,.cls-7{fill:#fff;}.cls-8{fill:#e0dfde;}.cls-9{fill:#a7a1a8;opacity:0.25;}.cls-10{fill:#fa968c;}.cls-11{fill:#e8792e;}.cls-12{fill:#ffaeab;}.cls-13{fill:#283045;}.cls-14{fill:#3e4a5e;}.cls-15{fill:#363f51;}.cls-16{fill:#2d3544;}.cls-17{fill:#fab9af;}.cls-18,.cls-19,.cls-22,.cls-23,.cls-24{fill:none;stroke-miterlimit:10;}.cls-18{stroke:#82c8e6;}.cls-18,.cls-19{stroke-linecap:round;stroke-width:2.2px;}.cls-19{stroke:#d4d8d8;}.cls-20{fill:#f9062f;}.cls-21{fill:#364056;}.cls-22{stroke:#0091c8;stroke-width:3px;}.cls-23{stroke:#c8e6eb;stroke-width:1.27px;}.cls-24{stroke:#87afb9;stroke-width:5px;}.cls-25{fill:#f6b38c;}.cls-26{fill:#ffc9a5;}.cls-27{fill:#ffbb36;}.cls-28{opacity:0.33;}.cls-29{fill:#ffbe92;}.cls-30{fill:#efe6ef;opacity:0.08;}.cls-31{fill:#e5a61a;}.cls-32{fill:#efb41e;}.cls-33{fill:#5320b1;}.cls-34{fill:#f7ad89;}.cls-35{fill:#021019;}.cls-36{fill:#2a3554;}.cls-37{fill:#fff9ff;}.cls-38{fill:#e2e5fa;}.cls-39{fill:#445279;}.cls-40{fill:#fa8465;}.cls-41{fill:#fa664d;}</style></defs><title>Asset 20</title><g id="Layer_2" data-name="Layer 2"><g id="Layer_5" data-name="Layer 5"><path class="cls-1" d="M363.48,543.74c-1.55,11.33-3.29,23.29-7.58,33.91-1.09,2.54-3.24,10.85-6.12,12s-7.65-4.94-10-7c-6.58-5.64-14-10.17-20.57-15.88A209.4,209.4,0,0,0,291.9,547c-.92-.55-1.89-1.11-2.88-1.62a31.79,31.79,0,0,0-11.16-3.73,14,14,0,0,0-13.46,5.84c-6.07,8.08-2.85,24.95-1.48,34.15.13.75.22,1.5.34,2.28,1.72,11.67,3.54,23.87.46,35.32a27.11,27.11,0,0,1-9.27,14.21,27.75,27.75,0,0,1-8.28,4.74,32,32,0,0,1-8.3,1.91,29.71,29.71,0,0,1-16.63-3.56,68.23,68.23,0,0,1-8.38-5.13,47,47,0,0,1-3.87-3A69.72,69.72,0,0,1,195.8,613c-1.33-2-2.57-4-3.75-6-2.71-4.58-5.18-9.32-7.68-13.95-1.86-3.48-3.65-7.11-5.37-10.84-2.47-5.3-4.75-10.77-6.88-16.29-2.42-6.2-4.62-12.45-6.63-18.5-3.29-10.09-6-20.67-8.45-31.2-.67-2.81-1.33-5.64-2-8.45a211,211,0,0,0,27.18,8.45c10.92,2.59,25.25,3.24,20.14-12.39-2.83-8.79-12-15.5-19.43-20.82C172.17,475.35,161,467.66,149,462.09c-1.38-.61-2.73-1.26-4-2-.41-2.76-.8-5.54-1.12-8.32-1.3-11.7-1.88-23.29-2-34.84,7.87,2.37,15.45,6.39,19.37,9.73,5.93,5,14.76,15.67,23.14,13.63,11.93-2.9,5.86-13.7,1.28-20.4-6.34-9.15-16-13.85-24.79-20.22-3.09-2.25-6.17-4.33-9.32-6.27a19.49,19.49,0,0,1-9.39-16.82l0-.12c.31-15,.43-34.4-8.48-47.45a29.57,29.57,0,0,0-3.22-4,59.74,59.74,0,0,0-14.83-11c3.09.32,6.22.7,9.34,1.19,26.75,4.19,53.62,15,77.29,27.55l.27.14a18.48,18.48,0,0,1,9.49,17c-.08,2-.15,4.09-.12,6.2,0,8.76-1.82,23.92,4.86,30.65,7.87,7.84,15.76-7.39,18-14,1.92-5.61,1.07-11.35.85-17.09,10,7.31,20.55,13.63,30.33,21.45,10.07,8.13,20.21,16.53,29.92,25.08-2,10.36-5.88,20.55-8.78,30.52-4.85,16.44-14.94,34.28-8.77,51.76,3.27,9.22,8.11,14.23,17.84,10.82,9.1-3.2,13.53-10.46,16.58-19.12,4.48-12.64,4.29-25,4.92-38.11a129.6,129.6,0,0,0-.19-13.67c4.18,3,8.3,6.15,12.39,9.34,9.08,7.14,22.05,12.66,28.51,22.39,4.65,7,6.13,18.21,7.17,26.41C367.77,510,365.83,526.31,363.48,543.74Z"/><path class="cls-1" d="M320.88,673.88V674c0,5.73-8.69,5.56-9.11.07a2.88,2.88,0,0,1,0-.41A179,179,0,0,0,308,639.21a352.61,352.61,0,0,0-9.47-36c-4.48-14.43-9.49-28.57-13.87-42.05-2.15-6.56-4.4-13.07-6.8-19.54a559.45,559.45,0,0,0-35.61-77.92c-17.14-31.08-35.46-62.36-58.92-89.13-9-10.24-19.39-18.86-29.22-28.2-6.48-6.17-12.87-12.49-20.43-17.36a29.57,29.57,0,0,0-3.22-4,59.74,59.74,0,0,0-14.83-11c3.09.32,6.22.7,9.34,1.19,8.76,3.6,16.56,8.18,20.24,11.06,30.23,23.55,55.6,52.8,76.42,84.82,25.39,39.12,47.49,80.76,63.73,124.52,1.19,3.25,2.43,6.51,3.66,9.83,6.51,17.5,13.36,36.09,19,55,1.88,6.18,3.6,12.4,5.15,18.62C317.83,637.47,320.85,656,320.88,673.88Z"/><path class="cls-2" d="M313.69,604.88c-8.51-13.11-23,4.24-26.46,13.08-6.75,17.2-7.88,56.1-5.88,66.78q-3.75-4.28-7.79-8.36-7.47-7.56-14.91-15.17c6.16-9.1,20.25-27.8,17.23-61.11-.51-5.59-1.68-13-7.27-15.74-7.77-3.83-9.37,5.17-10.22,10.89-1.46,9.78-4.15,43.64-6.28,59.31q-14.94-15.16-29.92-30.32c8.4-19.51,18.48-43.26,11.71-64.8-4.43-14.1-16.26-4.07-19.59,4.55-6,15.43-4.94,34.42-1.07,51.28q-7.1-7.08-14.23-14.1l-2.57-2.52c5-9.23,10.71-17.59,12.28-28.32s-2-20.78-8-29.42c-2.63-3.81-5.28-8.8-10.26-9.94-7-1.62-4.85,6.29-4,11A286.72,286.72,0,0,1,190,572.75c.33,5.63.83,10.9,1.67,16.31a42.9,42.9,0,0,1,.23,5.26c-6.84-6.58-13.86-13-21-19.35,2.46-17.79,5.28-39.33-5-55.33-6.79-10.48-14.17.34-15,8.13-1.21,12.06,2.45,25.11,8,36.77q-4.72-4-9.53-8c-3.65-20.73-7.85-46.47-25.23-60.5-11-8.94-15.26,5.67-13.38,14.49,1.86,8.66,6,17,11.32,24.69q-2.25-1.68-4.52-3.33c-3.61-2.65-7.3-5.12-11-7.48-.69-18-1.6-39.85-14.65-53.86-8.51-9.15-13.89,2.81-13.3,10.62.93,12.36,7.11,24.88,14.81,35.54-5.89-3.24-11.89-6.27-18-9.2-2.81-14.43-6.33-31.85-18.57-41.49-8.05-6.32-10.89,4-9.43,10.26,2.12,9,7.78,17.64,14.54,24.9-6.69-3.11-13.38-6.18-20.05-9.37-3.43-5.68-7.5-11.39-11.13-16.27-4.3-5.77-10-11.54-17.73-11.73-10.2-.26-13,6.66-8.17,15.17A23.6,23.6,0,0,0,14,487.82a20.35,20.35,0,0,0-10.5,3.38c-2.71,2-3.69,4.23-3.44,6.3.35,3.51,4.15,6.67,8.6,8.05,7.85,2.43,16.46.31,24.43-.35a45.89,45.89,0,0,1,7.5.11c3.44.26,6.9.7,10.28.76q6.63,3.07,13.23,6.17h0c-11.88-2.07-25.16-2.09-35.69,2.66-5.83,2.64-12.32,11.19-2.4,13.72,15.91,4,32.78-4.84,46.32-11.55l.23-.77c2,1,4,2,6,3l.31.14a268.59,268.59,0,0,1,29.77,17.29l0,0a48.87,48.87,0,0,0-12.21,0c-7.22,1-17.06,8.24-7,14.19,12.86,7.66,29.06,6.44,43.71,4.14,11.9,9.43,23.57,19.26,34.88,29.41-12.9-6.2-27.9-10.48-41.41-8.62-7.74,1.06-18.29,8.83-7.56,15.22,17.21,10.24,40,5.68,58.18,2.5l.28-.43h0q7.88,7.26,15.48,14.74c2.49,2.45,5,4.9,7.44,7.37h0c-17.62-9-38-15.49-56-13.71-10.3,1-24,10.78-9.31,19.83,23.47,14.46,53.59,9.68,77.67,6.41h0c6.94,7.08,13.82,14.2,20.74,21.3-18.14-2.65-55.36-10.38-67.58-11.88-5.72-.7-19.3-.83-17.1,8.74,1.22,5.31,11.1,10.79,16,12.52,10.81,3.88,52.07,4.6,79.44,1.55h0q7.39,7.53,15,14.9c1.87,1.81,3.69,3.66,5.48,5.52-26.49-6.28-79-15.07-92.19-12.29-6.7,1.41-17.31,5.43-16.61,13.86.72,8.72,13.85,9.67,20.4,11.79,15.1,4.89,65,2,74.08.13,7.08-1.44,14.13-4.47,21-6.27.07.09.14.17.2.26q5.77,6.5,11.06,13.26l-1.3.13c-22.23,1.93-69.66,3.14-84.84,4.81-7,.78-23.32,4.43-18,15.28,2.95,6,16.33,9.78,22.63,10.49,13.08,1.51,57.13-7.74,88.88-18.2.59-.18,1.15-.38,1.71-.58,11,15,21.3,30.56,32.8,46,3.47,4.67,11-.31,7.57-5-16.62-22.3-30.31-45.62-48.22-66.55C304.69,662.69,317.53,610.81,313.69,604.88Z"/><path class="cls-1" d="M413.11,796c-1.94,2.91-10.12.17-13.61-.24-9.56-1.11-19.2-.7-28.81-1.89a233.24,233.24,0,0,0-37.37-1.33c-1.21.05-2.45.15-3.68.29a34.72,34.72,0,0,0-12.59,3.46A15.61,15.61,0,0,0,308.26,810c-.58,11.21,12.86,24.76,19.81,32.39,9.32,10.29,19.48,20.89,24,34.16a31,31,0,0,1-4.43,28.34c-9,12.4-20.43,14.67-34.9,14.38-18.16-.31-34.38-9.39-50-17.67s-31.62-19.49-45.66-30.36c-11.79-9.19-23.09-19.75-34.18-30.09a234.88,234.88,0,0,0,30.28-9c11.67-4.39,25.28-12.66,10.9-23.92-8.06-6.37-20.7-6.8-30.82-7.14-14.69-.41-29.72-.58-44.22,1.72a49.71,49.71,0,0,1-5,.65q-3.15-3.42-6.19-7c-8.45-10-16.15-20.29-23.44-30.84,8.72-2.71,18.18-3.68,23.87-3,8.57,1,23.31,5.28,29.78-1.79,9.19-10.07-3.1-16.27-11.48-19.61-11.5-4.5-23.33-2.83-35.36-3.26-4.24-.15-8.38-.17-12.47,0a21.53,21.53,0,0,1-19.08-9.68l-.07-.1c-9-14-20.91-32-37.21-38.54A35.34,35.34,0,0,0,47,687.94a66.12,66.12,0,0,0-20.53-1c3.07-1.65,6.22-3.22,9.42-4.7h0c27.23-12.71,58.63-19.41,88.21-22.46.12,0,.22,0,.34,0a20.39,20.39,0,0,1,19.27,9.78c1.19,1.92,2.42,3.85,3.73,5.79,5.44,8.08,13.14,23.16,23.48,25.22,5.06,1,7.62-1.74,8.74-5.81,1.57-5.64.36-13.84-.83-18.18a29.31,29.31,0,0,0-4.18-8.66c-1.77-2.59-3.78-5.06-5.62-7.6,1.72.07,3.41.12,5.13.14h0c12,.24,24-.17,36.09.85,2.06.17,4.11.36,6.2.55,11,1,22.07,2.13,33,3.51,1.31.15,2.61.32,3.9.49.77,1.81,1.5,3.65,2.15,5.52,1,2.52,1.79,5.08,2.59,7.65,1.24,3.92,2.35,7.86,3.49,11.79.84,2.93,1.69,5.81,2.59,8.64.31,1,.63,2,.92,3,1.6,5.59,2.93,11.52,4.52,17.4,3.42,12.54,7.92,24.77,18.57,32.68,8.72,6.47,16.27,8.09,23.12-1.11a25.62,25.62,0,0,0,3.34-5.88,28.5,28.5,0,0,0,1.65-13.73,54.5,54.5,0,0,0-1.53-8.28c-3.7-14.4-11.52-25.66-19.1-38.15q-2.32-3.84-4.91-7.43c-1.21-1.72-2.47-3.39-3.73-5.06,2.18.07,4.36.17,6.56.29,3.53.17,7.09.39,10.65.66,2.42.17,4.94.21,7.5.19,3,0,6-.12,9.11-.19,8.2-.15,16.48,0,23.55,3,8.62,3.56,16.92,13,23,19.9,13,14.79,21.26,31,29.87,48.48,5.62,11.43,11.41,23.51,14,35.95C411.9,784.19,415,793.17,413.11,796Z"/><path class="cls-1" d="M430.1,897c-23.29-34.6-62.21-61.54-94.67-86.88q-9.09-7.08-18.38-13.83A623.81,623.81,0,0,0,236,746.54c-9.56-4.91-19.22-9.77-29-14.47s-19.49-9.15-29.39-13.31a391.66,391.66,0,0,0-51.17-17.87C111.85,697,96.89,695.54,82,693c-9.81-1.67-19.61-3.51-29.59-3.37A35.34,35.34,0,0,0,47,687.94a66.12,66.12,0,0,0-20.53-1c3.07-1.65,6.22-3.22,9.42-4.7h0c10.29-2.1,20.26-2.71,25.42-2.35,41.9,3,82.88,14,121.45,30.21l1.54.66q21,8.93,41.45,19a668.87,668.87,0,0,1,94.43,56.26l9.44,6.8c38.75,27.82,82.81,59.84,109.08,98.84C442.37,897.11,433.73,902.44,430.1,897Z"/><path class="cls-1" d="M989.21,527.59c1.55,11.33,3.29,23.29,7.57,33.92,1.09,2.54,3.25,10.84,6.13,12s7.65-4.94,10-7c6.59-5.64,14-10.16,20.58-15.88a209.58,209.58,0,0,1,27.26-19.77c.92-.56,1.88-1.12,2.88-1.62a31.33,31.33,0,0,1,11.16-3.73,14,14,0,0,1,13.45,5.83c6.08,8.09,2.86,25,1.48,34.16-.12.75-.22,1.5-.34,2.27-1.72,11.67-3.53,23.87-.46,35.32a27.23,27.23,0,0,0,9.27,14.21,27.88,27.88,0,0,0,8.28,4.74,32.05,32.05,0,0,0,8.31,1.92,29.8,29.8,0,0,0,16.63-3.56,69.9,69.9,0,0,0,8.37-5.13,47.77,47.77,0,0,0,3.88-3,69.67,69.67,0,0,0,13.19-15.34c1.33-2,2.56-4,3.75-6,2.71-4.58,5.18-9.32,7.67-13.94,1.87-3.49,3.66-7.12,5.38-10.85,2.47-5.3,4.74-10.77,6.87-16.29,2.42-6.2,4.63-12.44,6.64-18.49,3.29-10.1,6-20.68,8.44-31.21.68-2.8,1.33-5.64,2-8.44a211.07,211.07,0,0,1-27.19,8.44c-10.91,2.59-25.24,3.25-20.14-12.39,2.84-8.79,12.06-15.49,19.44-20.82,10.77-7.67,21.91-15.37,33.92-20.94q2.07-.9,4-2c.41-2.76.8-5.55,1.11-8.33,1.31-11.69,1.89-23.29,2-34.83-7.87,2.37-15.45,6.39-19.37,9.73-5.93,5-14.77,15.66-23.14,13.63-11.94-2.91-5.86-13.7-1.29-20.41,6.35-9.15,16-13.85,24.79-20.21,3.1-2.25,6.18-4.34,9.32-6.27a19.45,19.45,0,0,0,9.39-16.83l0-.12c-.31-15-.43-34.4,8.47-47.44a31.27,31.27,0,0,1,3.22-4.05,59.51,59.51,0,0,1,14.84-11c-3.1.31-6.22.7-9.34,1.18-26.75,4.19-53.62,15-77.3,27.55a1.26,1.26,0,0,1-.26.14,18.48,18.48,0,0,0-9.49,17c.07,2,.14,4.09.12,6.2,0,8.76,1.82,23.91-4.87,30.64-7.86,7.84-15.75-7.38-18-13.94-1.91-5.62-1.06-11.36-.84-17.09-10,7.31-20.56,13.63-30.34,21.45-10.07,8.13-20.21,16.53-29.92,25.07,2,10.36,5.89,20.56,8.79,30.53,4.84,16.44,14.94,34.28,8.76,51.75-3.26,9.23-8.1,14.24-17.84,10.82-9.1-3.19-13.53-10.45-16.58-19.12-4.48-12.64-4.28-25-4.91-38.1a129.82,129.82,0,0,1,.19-13.68c-4.19,3-8.3,6.15-12.39,9.35-9.08,7.14-22,12.66-28.52,22.39-4.65,7-6.12,18.2-7.16,26.41C984.92,493.9,986.86,510.16,989.21,527.59Z"/><path class="cls-3" d="M1031.81,657.73v.12c0,5.74,8.69,5.57,9.1.07a1.84,1.84,0,0,0,0-.41,179,179,0,0,1,3.75-34.44,352.73,352.73,0,0,1,9.46-36c4.48-14.43,9.49-28.56,13.87-42.05,2.16-6.56,4.41-13.07,6.81-19.53a559.51,559.51,0,0,1,35.6-77.93c17.14-31.08,35.47-62.35,58.92-89.13,9-10.24,19.39-18.85,29.22-28.2,6.49-6.17,12.88-12.49,20.43-17.35a31.27,31.27,0,0,1,3.22-4.05,59.51,59.51,0,0,1,14.84-11c-3.1.31-6.22.7-9.34,1.18-8.77,3.61-16.56,8.18-20.24,11.06-30.23,23.56-55.6,52.8-76.42,84.83-25.39,39.11-47.5,80.75-63.74,124.52-1.18,3.24-2.42,6.51-3.65,9.83-6.51,17.5-13.37,36.09-19,55-1.89,6.17-3.61,12.39-5.16,18.61C1034.86,621.32,1031.83,639.84,1031.81,657.73Z"/><path class="cls-1" d="M1039,588.73c8.51-13.11,23,4.25,26.46,13.08,6.75,17.2,7.87,56.1,5.88,66.78q3.75-4.27,7.78-8.36,7.49-7.54,14.92-15.16c-6.16-9.1-20.25-27.81-17.23-61.12.5-5.59,1.68-13,7.27-15.74,7.77-3.83,9.36,5.17,10.22,10.89,1.46,9.79,4.15,43.64,6.28,59.32q14.94-15.18,29.91-30.32c-8.4-19.52-18.47-43.27-11.7-64.81,4.43-14.1,16.25-4.07,19.58,4.55,6,15.44,5,34.42,1.08,51.28q7.1-7.08,14.23-14.09c.85-.85,1.71-1.68,2.57-2.52-5-9.23-10.71-17.6-12.28-28.33s2-20.77,8-29.42c2.64-3.81,5.29-8.79,10.27-9.94,7-1.61,4.85,6.29,4,11a287.31,287.31,0,0,0-3.56,30.74c-.34,5.63-.84,10.9-1.67,16.31a41,41,0,0,0-.23,5.26q10.26-9.85,21-19.34c-2.46-17.8-5.28-39.33,5-55.33,6.79-10.48,14.17.33,15,8.12,1.21,12.06-2.46,25.11-8,36.78,3.15-2.68,6.33-5.35,9.52-8,3.66-20.72,7.85-46.46,25.24-60.5,11-8.93,15.26,5.68,13.38,14.5-1.87,8.65-6,17-11.32,24.68,1.49-1.12,3-2.23,4.51-3.33,3.62-2.64,7.31-5.11,11-7.47.7-18,1.61-39.85,14.65-53.87,8.52-9.15,13.9,2.81,13.31,10.62-.94,12.36-7.11,24.88-14.82,35.55,5.9-3.25,11.89-6.28,18-9.21,2.81-14.42,6.33-31.85,18.57-41.49,8-6.32,10.89,4,9.44,10.26-2.12,9-7.79,17.64-14.54,24.91,6.68-3.11,13.38-6.18,20-9.37,3.42-5.69,7.5-11.4,11.13-16.28,4.3-5.77,10-11.53,17.72-11.72,10.21-.26,13,6.65,8.18,15.17a23.57,23.57,0,0,1-9.07,8.8,20.33,20.33,0,0,1,10.5,3.39c2.71,2,3.68,4.23,3.44,6.3-.36,3.51-4.15,6.67-8.6,8-7.86,2.43-16.47.32-24.44-.34a45.74,45.74,0,0,0-7.49.1c-3.45.27-6.91.7-10.29.77q-6.61,3.07-13.22,6.17h0c11.88-2.07,25.16-2.1,35.68,2.65,5.84,2.64,12.32,11.2,2.41,13.72-15.92,4.06-32.78-4.83-46.32-11.55l-.23-.77q-3,1.47-6,3l-.31.15A266,266,0,0,0,1244,520.57l0,0a49.84,49.84,0,0,1,12.21,0c7.22,1,17,8.24,7,14.2-12.86,7.65-29.06,6.44-43.71,4.13-11.9,9.43-23.57,19.26-34.88,29.41,12.9-6.2,27.89-10.48,41.41-8.62,7.74,1.07,18.29,8.84,7.56,15.22-17.21,10.25-40,5.68-58.18,2.51l-.29-.44h0q-7.86,7.26-15.47,14.74c-2.5,2.45-5,4.91-7.44,7.37l0,0c17.62-9,38-15.49,56-13.72,10.29,1,24,10.78,9.31,19.83-23.47,14.47-53.59,9.68-77.67,6.41v0c-6.94,7.07-13.83,14.2-20.74,21.3,18.14-2.66,55.36-10.39,67.58-11.89,5.72-.7,19.3-.83,17.1,8.75-1.23,5.3-11.11,10.78-16,12.52-10.82,3.88-52.07,4.6-79.45,1.54h0q-7.41,7.53-15,14.9c-1.86,1.82-3.69,3.66-5.47,5.52,26.49-6.28,79-15.07,92.19-12.29,6.7,1.42,17.3,5.44,16.61,13.86-.72,8.73-13.85,9.68-20.4,11.8-15.1,4.88-64.95,2-74.09.12-7.08-1.44-14.12-4.47-21-6.26-.06.08-.14.16-.2.25-3.85,4.34-7.52,8.77-11.06,13.26l1.31.13c22.22,1.94,69.66,3.15,84.83,4.81,7,.78,23.33,4.43,18,15.29-3,6-16.33,9.77-22.63,10.48-13.09,1.51-57.13-7.73-88.88-18.19l-1.72-.58c-11,15-21.29,30.56-32.8,46-3.46,4.67-11-.31-7.56-5,16.61-22.29,30.31-45.61,48.21-66.54C1048,646.54,1035.16,594.66,1039,588.73Z"/><path class="cls-2" d="M939.58,779.88c1.94,2.9,10.12.17,13.61-.24,9.56-1.12,19.19-.71,28.8-1.89a232.25,232.25,0,0,1,37.38-1.33c1.21.05,2.44.14,3.68.29a34.57,34.57,0,0,1,12.59,3.46,15.59,15.59,0,0,1,8.78,13.72c.58,11.21-12.85,24.77-19.8,32.39-9.32,10.29-19.49,20.89-24,34.16a31.05,31.05,0,0,0,4.43,28.35c9,12.39,20.43,14.67,34.91,14.37,18.16-.31,34.37-9.39,50-17.67s31.62-19.48,45.66-30.35c11.78-9.2,23.09-19.75,34.18-30.09a235.07,235.07,0,0,1-30.29-9c-11.66-4.38-25.27-12.66-10.89-23.92,8.06-6.36,20.7-6.8,30.82-7.14,14.69-.41,29.72-.58,44.22,1.72a49.9,49.9,0,0,0,5,.65q3.17-3.41,6.2-7c8.45-10,16.15-20.28,23.43-30.84-8.71-2.71-18.18-3.68-23.86-3-8.57,1-23.32,5.27-29.78-1.79-9.2-10.07,3.1-16.27,11.48-19.61,11.49-4.5,23.33-2.83,35.36-3.27,4.24-.15,8.38-.17,12.47,0a21.52,21.52,0,0,0,19.07-9.69l.08-.09c9-14,20.91-32,37.2-38.54a36.63,36.63,0,0,1,5.45-1.7,66.11,66.11,0,0,1,20.53-1c-3.08-1.64-6.23-3.22-9.42-4.69h0c-27.24-12.71-58.63-19.42-88.22-22.47l-.33,0A20.39,20.39,0,0,0,1209,653.4c-1.19,1.91-2.42,3.85-3.73,5.78-5.45,8.09-13.14,23.17-23.48,25.23-5.06,1-7.63-1.75-8.74-5.81-1.57-5.64-.36-13.85.82-18.18a29.27,29.27,0,0,1,4.19-8.67c1.77-2.59,3.78-5.06,5.62-7.6-1.72.07-3.42.12-5.13.14h0c-12,.25-24-.16-36.09.85-2.06.17-4.12.37-6.2.56-11,1-22.08,2.13-33,3.51-1.31.14-2.62.31-3.9.48q-1.17,2.73-2.15,5.52c-1,2.52-1.8,5.09-2.6,7.65-1.23,3.92-2.34,7.87-3.48,11.79-.85,2.93-1.7,5.81-2.59,8.64-.32,1-.63,2-.92,3.05-1.6,5.59-2.93,11.53-4.53,17.41-3.41,12.54-7.91,24.76-18.56,32.68-8.72,6.46-16.27,8.08-23.12-1.12a25.62,25.62,0,0,1-3.34-5.88,28.44,28.44,0,0,1-1.65-13.72,54.05,54.05,0,0,1,1.53-8.28c3.7-14.41,11.52-25.66,19.1-38.15,1.54-2.57,3.19-5,4.91-7.43,1.21-1.72,2.47-3.39,3.73-5.06-2.18.07-4.36.17-6.56.29-3.54.17-7.1.38-10.65.65-2.42.17-4.94.22-7.51.19-3,0-6-.12-9.1-.19-8.21-.15-16.48,0-23.55,2.95-8.62,3.56-16.92,13-23,19.9-12.95,14.79-21.25,31-29.87,48.49-5.61,11.42-11.4,23.5-14,35.95C940.79,768,937.67,777,939.58,779.88Z"/><path class="cls-4" d="M922.59,880.87c23.29-34.59,62.21-61.53,94.67-86.88q9.08-7.08,18.38-13.82a621.94,621.94,0,0,1,81.06-49.77c9.57-4.91,19.22-9.78,29-14.48s19.49-9.15,29.39-13.31a392.62,392.62,0,0,1,51.17-17.87c14.6-3.87,29.56-5.34,44.42-7.89,9.81-1.67,19.61-3.51,29.58-3.36a36.63,36.63,0,0,1,5.45-1.7,66.11,66.11,0,0,1,20.53-1c-3.08-1.64-6.23-3.22-9.42-4.69h0c-10.29-2.11-20.27-2.72-25.42-2.35-41.9,3-82.89,13.94-121.45,30.21l-1.55.65q-21,8.94-41.44,19a667.35,667.35,0,0,0-94.43,56.26c-3.1,2.22-6.25,4.5-9.44,6.8-38.76,27.81-82.81,59.84-109.08,98.83C910.32,881,919,886.29,922.59,880.87Z"/><rect class="cls-5" x="190.06" y="956.63" width="1017.92" height="9.93"/><path class="cls-6" d="M333.82,268.56h735.51a76,76,0,0,1,76,76V869.85A68.16,68.16,0,0,1,1077.21,938H325.93a68.16,68.16,0,0,1-68.16-68.16V344.61A76,76,0,0,1,333.82,268.56Z"/><rect class="cls-7" x="572.39" y="573.39" width="283.11" height="164.86" rx="14.58" transform="translate(-100.26 129.62) rotate(-9.7)"/><ellipse class="cls-8" cx="623.08" cy="668.61" rx="30.91" ry="30.94" transform="translate(-103.72 114.5) rotate(-9.7)"/><rect class="cls-8" x="662.7" y="615.65" width="125.31" height="5.28" transform="translate(-93.78 131.01) rotate(-9.7)"/><rect class="cls-8" x="666.17" y="635.98" width="125.31" height="5.28" transform="translate(-97.15 131.89) rotate(-9.7)"/><rect class="cls-8" x="669.84" y="655.49" width="125.31" height="5.28" transform="translate(-100.39 132.78) rotate(-9.7)"/><rect class="cls-8" x="674.29" y="680.04" width="69.42" height="5.28" transform="translate(-104.86 129.17) rotate(-9.7)"/><rect class="cls-2" x="869.71" y="491.83" width="123.64" height="144.92"/><path class="cls-5" d="M333.76,266.84H1071.9a74.73,74.73,0,0,1,74.73,74.73v2.31a0,0,0,0,1,0,0H259a0,0,0,0,1,0,0v-2.31A74.73,74.73,0,0,1,333.76,266.84Z"/><rect class="cls-7" x="264.96" y="307.56" width="259.94" height="121.05" rx="3.21" transform="translate(-49.43 61.49) rotate(-8.38)"/><rect class="cls-8" x="283.81" y="343.74" width="59.52" height="70.27" rx="29.76" transform="translate(-51.88 49.75) rotate(-8.38)"/><rect class="cls-8" x="357.97" y="331.07" width="78.43" height="6.74" transform="translate(-44.51 61.47) rotate(-8.38)"/><rect class="cls-8" x="360.78" y="348.65" width="120.1" height="6.74" transform="translate(-46.82 65.1) rotate(-8.38)"/><rect class="cls-8" x="363.82" y="369.26" width="120.1" height="6.74" transform="translate(-49.79 65.76) rotate(-8.38)"/><rect class="cls-8" x="366.86" y="389.87" width="120.1" height="6.74" transform="translate(-52.76 66.42) rotate(-8.38)"/><rect class="cls-7" x="779.29" y="759.54" width="211.78" height="142.18" rx="14.58" transform="translate(231.07 -191.93) rotate(14.21)"/><path class="cls-9" d="M635.42,671.06a70.8,70.8,0,0,0,109.94,88.53,69.82,69.82,0,0,0,6.89-8.57,70.87,70.87,0,0,0-18.43-98.4,71.75,71.75,0,0,0-9.53-5.49,70.92,70.92,0,0,0-82.73,16.17A72.22,72.22,0,0,0,635.42,671.06Z"/><path class="cls-10" d="M215.5,431.57c1.64,1.11,2.46,1.84,5.2-1.11,15.41-15.91,27-83.26,26.41-80.34.86-4.43,7.47-3.64,7.29.85C248.76,494.64,196,462.7,170.55,405.29a12.84,12.84,0,1,1,23.83-9.55C198.09,406,207.41,426.08,215.5,431.57Z"/><path class="cls-11" d="M208.71,421.69a.86.86,0,0,0-.07-.1,155.71,155.71,0,0,1-8.18-13.41,149.4,149.4,0,0,1-6.81-13.75l-.09-.22c-.14-.34-.3-.67-.48-1a12.85,12.85,0,0,0-22.74,12A160.45,160.45,0,0,0,179.88,421c2.31,3.35,4.78,6.59,7.33,9.79C189.1,428.72,204.18,423.31,208.71,421.69Z"/><path class="cls-12" d="M199.64,510.2c-11.18,12.83-75.71,18.18-75.71,18.18-4.76-5.53,2.2-30.65,3.88-56.15,1.82-27.57,2.86-58,3.34-74.45a12.54,12.54,0,0,1,12.54-12.17l38.79.57c6.07,2.35,13,11.09,13.51,17.38,1.08,13,3.68,28.81,5.53,51C203.39,477.06,209.3,499.11,199.64,510.2Z"/><path class="cls-10" d="M162.42,724.66l.09,25.38-2.2,12.36a3.54,3.54,0,0,0,3.37,4.19c10.39.32,37,1,37.71-.13,3.34-5.41-11.78-7.5-22.84-11.78s-3.43-46.28-3.43-46.28Z"/><path class="cls-13" d="M178.55,754.68a1.4,1.4,0,0,1-.17-.09,25.17,25.17,0,0,1-8.94,1.57,26.21,26.21,0,0,1-7.82-1.15l-1.31,7.39a3.54,3.54,0,0,0,3.37,4.19c10.39.32,37,1,37.71-.13C204.73,761.05,189.61,759,178.55,754.68Z"/><path class="cls-14" d="M160.45,626.17c-9.28,18.32-.71,90.44,1.48,122.05l12.69-1.93c6.69-30.66,12.77-106.67,14.1-116.16,0-.12,0-.24,0-.36,7.46-33,11.16-97.21,10.86-110.22-.4-17.64-11.83-31.69-25.53-31.37S149.6,503,150,520.68C150.25,531.75,162.55,622,160.45,626.17Z"/><path class="cls-15" d="M199.62,519.55c.4,17.64-6.53,129.55-20.24,129.87s-29-111.1-29.38-128.74,10.38-32.19,24.09-32.5S199.22,501.91,199.62,519.55Z"/><path class="cls-16" d="M182.81,547.37a83.81,83.81,0,0,1,16.31-15.83l.27-.26c.21-5.27.29-9.36.23-11.73-.4-17.64-11.83-31.69-25.53-31.37S149.6,503,150,520.68c.13,5.71,3.07,32.35,5.81,57.46C163.59,567.15,173,557,182.81,547.37Z"/><path class="cls-10" d="M132.47,724.66l.1,25.38-2.21,12.36a3.56,3.56,0,0,0,3.38,4.19c10.39.32,37,1,37.7-.13,3.35-5.41-11.77-7.5-22.83-11.78s-3.43-46.28-3.43-46.28Z"/><path class="cls-13" d="M148.61,754.68a1.4,1.4,0,0,1-.17-.09,25.23,25.23,0,0,1-8.95,1.57,26.19,26.19,0,0,1-7.81-1.15l-1.32,7.39a3.56,3.56,0,0,0,3.38,4.19c10.39.32,37,1,37.7-.13C174.79,761.05,159.67,759,148.61,754.68Z"/><path class="cls-14" d="M126.89,626.29c-1.65,25.38-3,86.62,5.1,122.2l12.83-.82c6.7-30.66,12.63-108,14-117.54,0-.12,0-.24,0-.36,7.46-33,14.12-97.62,13.83-110.63-.4-17.64-14.8-31.28-28.51-31S122.62,502.63,123,520.27C123.27,531.34,127.72,613.63,126.89,626.29Z"/><path class="cls-15" d="M169.68,519.55c.4,17.64-6.54,129.55-20.24,129.87s-26-111.51-26.42-129.15,7.42-31.78,21.12-32.09S169.28,501.91,169.68,519.55Z"/><path class="cls-2" d="M180.3,385.91l-2.37.21c-2.32,5.36-6.77,9.1-14.38,9.1s-12.51-4.14-14.83-9.5h-6.07a11.45,11.45,0,0,0-11.47,11.11c-.46,16.17-2.16,47.63-4,75.8-1.68,25.5-5.52,47.18-6.35,56.55,0,0,67.44-3.17,78.62-16,9.67-11.08,4.36-35.42,2.49-57.93s-5.06-37-5.59-49.79C195.72,390.56,186.4,385.91,180.3,385.91Z"/><path class="cls-10" d="M259.61,344.39s-2.47,8.74-5.87,9.42-5.8.52-7-4.38-.47-12.2.84-16.49c.43-1.43.59-3.11,2.06-4.45,2.94-2.68,6.06-2.16,6.69-1.87,2.45,1.12,2.72,3.38,0,3-1.05-.14-1.68,1.42-2.12,2.61-1.36,3.71-2.53,8-.56,8.2s7.75-7.58,9.71-6.21C266,336,259.61,344.39,259.61,344.39Z"/><path class="cls-12" d="M149.36,391.31c.61.79,1.74,2.11,2.69,3.19s2,2.3,3,3.44c27.72,30.69,66.25,51.92,107.41,48,6.45-.36,12.82-1.69,19.29-3l.15,0a3.69,3.69,0,0,1,2.28,7c-59,27.27-123.3-2.1-155.26-43a12.83,12.83,0,1,1,20.22-15.8Z"/><path class="cls-11" d="M169.07,411.06c-8.62-7.74-20.33-22-20.33-22s-5.2-6.15-15.89-1.67C124.31,390.93,126,401,126,401c.2,1.4,5.38,15.74,25,30.46C151.06,431.48,170.52,412.36,169.07,411.06Z"/><path class="cls-13" d="M147.38,345.53H159a0,0,0,0,1,0,0V372.4a0,0,0,0,1,0,0h-7.91a3.72,3.72,0,0,1-3.72-3.72V345.53A0,0,0,0,1,147.38,345.53Z" transform="translate(-74.21 41.77) rotate(-12.53)"/><polygon class="cls-12" points="171.89 386.22 150.31 386.01 156.69 364.37 171.29 366.18 171.89 386.22"/><path class="cls-10" d="M171.29,366.18l-14.6-1.81-2.87,9.95c3.26,3.68,8.11,9.4,13.42,9.4a8.48,8.48,0,0,0,4.6-1.35Z"/><path class="cls-12" d="M173.5,377.52h0A17.83,17.83,0,0,1,152.22,364l-4.31-19.39L177.76,338s3.37,15.14,3.47,25.84C181.3,371.82,178.4,376.43,173.5,377.52Z"/><rect class="cls-13" x="148.18" y="351.73" width="5.75" height="2.61" transform="translate(-73.03 41.21) rotate(-12.54)"/><path class="cls-12" d="M156.47,359.2c.84,3.78-.29,7.25-2.52,7.75s-5.8-3.92-6.65-7.7,1.37-5.51,3.6-6S155.63,355.41,156.47,359.2Z"/><path class="cls-13" d="M181.61,345.47a17.17,17.17,0,0,0-1.23-7.53h0c-2.4-5.92-9-8.47-15.06-6.37a15.68,15.68,0,0,1-2,.56l-10.07,2.24a11.22,11.22,0,0,0-8.53,13.4l.52,2.34,6,3.47,2.43,4.24.4-.09a3.71,3.71,0,0,0,2.86-4.19c-.5-3.17,1.08-6.26,4.2-7l9-2c5.44-1.21,8.92,1.08,9.82,5.15l.49,3.51Z"/><path class="cls-17" d="M291.75,440.14s-10.75.76-11.6,4.12-.82,5.76,4,7.19,12.16,1.08,16.51,0,10.86-6,11.21-7c1.28-3.58-6.39-.79-10.16.38s-8.17,2.12-8.22.14,7.36-3.67,8.05-6S291.75,440.14,291.75,440.14Z"/><line class="cls-18" x1="153.05" y1="460.53" x2="49.5" y2="1025.69"/><line class="cls-18" x1="171.99" y1="1025.69" x2="275.55" y2="460.53"/><line class="cls-18" x1="265.79" y1="497.05" x2="146.05" y2="497.05"/><line class="cls-18" x1="257.83" y1="551.89" x2="136.42" y2="551.89"/><line class="cls-18" x1="246.76" y1="606.74" x2="126.44" y2="606.74"/><line class="cls-18" x1="236.06" y1="661.59" x2="116.46" y2="661.59"/><line class="cls-18" x1="227.46" y1="716.44" x2="106.48" y2="716.44"/><line class="cls-18" x1="219.34" y1="770.31" x2="96.67" y2="770.31"/><line class="cls-18" x1="207.3" y1="826.14" x2="86.51" y2="826.14"/><line class="cls-18" x1="199.03" y1="880.99" x2="77.91" y2="880.99"/><line class="cls-18" x1="187.06" y1="935.55" x2="65.95" y2="935.55"/><line class="cls-19" x1="275.55" y1="460.53" x2="378.24" y2="1027.12"/><line class="cls-19" x1="255.74" y1="1027.12" x2="153.05" y2="460.53"/><line class="cls-19" x1="162.81" y1="497.05" x2="282.19" y2="497.05"/><line class="cls-19" x1="170.77" y1="551.89" x2="292.17" y2="551.89"/><line class="cls-19" x1="181.84" y1="606.74" x2="302.15" y2="606.74"/><line class="cls-19" x1="192.54" y1="661.59" x2="312.14" y2="661.59"/><line class="cls-19" x1="201.13" y1="716.44" x2="322.12" y2="716.44"/><line class="cls-19" x1="209.26" y1="770.31" x2="331.92" y2="770.31"/><line class="cls-19" x1="221.29" y1="826.14" x2="342.08" y2="826.14"/><line class="cls-19" x1="229.57" y1="880.99" x2="350.69" y2="880.99"/><line class="cls-19" x1="240.1" y1="935.55" x2="361.22" y2="935.55"/><path class="cls-13" d="M151.46,338.4c-.69,5.54,19.19,12.54,24.44,13.19a10.11,10.11,0,0,0,2.47-20C173.13,330.91,152.14,332.87,151.46,338.4Z"/><path class="cls-11" d="M139.13,420.91l.33,20.79c.11,6.92.38,13.86.22,20.78a145.94,145.94,0,0,1-2.18,20.31c-1.13,6.89-2.33,13.77-3.5,20.66l-4,23.22c-.32,1.89,2.57,2.7,2.89.8Q136.47,506.73,140,486a182.76,182.76,0,0,0,2.57-20.58c.37-6.89,0-13.83-.07-20.73l-.37-23.76c0-1.93-3-1.94-3,0Z"/><path d="M165.1,359.24a1.5,1.5,0,0,0,0-3,1.5,1.5,0,0,0,0,3Z"/><path d="M176.13,358.41a1.5,1.5,0,0,0,0-3,1.5,1.5,0,0,0,0,3Z"/><path d="M168.69,369.27a6.51,6.51,0,0,0,6.89-3.57.51.51,0,0,0-.18-.68.51.51,0,0,0-.69.18,5.52,5.52,0,0,1-5.76,3.11.5.5,0,0,0-.61.35.49.49,0,0,0,.35.61Z"/><path d="M170.13,362.64a1.84,1.84,0,0,0,2.69.05.52.52,0,0,0,0-.71.51.51,0,0,0-.71,0,.47.47,0,0,1-.1.1l0,0c.08-.09.06-.05,0,0l-.1.06-.06,0c-.07,0,0,0,0,0s-.09,0-.12.05l-.14,0c-.08,0,.11,0,0,0h-.32c-.06,0,.13,0,0,0l-.08,0-.12,0s-.05,0-.07,0,.12.06,0,0l-.12-.06c-.05,0-.13-.12,0,0l-.19-.19a.47.47,0,0,0-.35-.15.53.53,0,0,0-.36.15.46.46,0,0,0-.14.35.62.62,0,0,0,.14.36Z"/><path d="M162.49,355.78a3.55,3.55,0,0,1,.23-.43c0-.07.09-.13.13-.19s.07-.08,0,0L163,355a3.43,3.43,0,0,1,.33-.33l.17-.15,0,0,.1-.07a3.14,3.14,0,0,1,.39-.24l.23-.11c.09,0,0,0,0,0l.11,0a3.81,3.81,0,0,1,.45-.13l.25-.05s.12,0,0,0h.14a.51.51,0,0,0,.5-.5.52.52,0,0,0-.5-.5,4.45,4.45,0,0,0-3.62,2.45.5.5,0,1,0,.87.51Z"/><path d="M174.46,353l2.52,1a.5.5,0,0,0,.61-.35.52.52,0,0,0-.35-.62l-2.51-1a.51.51,0,0,0-.62.35.53.53,0,0,0,.35.62Z"/><path class="cls-7" d="M165.58,357.62a.5.5,0,0,0,0-1,.5.5,0,0,0,0,1Z"/><path class="cls-7" d="M176.75,356.72a.5.5,0,0,0,0-1,.5.5,0,0,0,0,1Z"/><path class="cls-20" d="M171.91,369.22a3.3,3.3,0,0,0,1.74-.42,2,2,0,0,0,.91-1.24c0-.12-.12-.23-.21-.13a3.43,3.43,0,0,1-2.36,1.43l0,.24c.39-.16.78-.33,1.17-.52l.56-.3a3.19,3.19,0,0,1,.59-.28l-.14-.18a2.34,2.34,0,0,1-1.06.77c-.15.05-.08.3.07.24a2.43,2.43,0,0,0,1.2-.89c.07-.09,0-.21-.14-.18a6.25,6.25,0,0,0-1.13.56,12.75,12.75,0,0,1-1.19.54c-.12.05-.12.25,0,.25a3.66,3.66,0,0,0,2.54-1.5l-.21-.12a1.73,1.73,0,0,1-.83,1.11,3,3,0,0,1-1.58.37.13.13,0,0,0,0,.25Z"/><path class="cls-11" d="M148.06,386.38c2.56,6.79,9.08,10,16.06,10.27,6.61.25,13.57-3,15.57-9.69a.75.75,0,0,0-1.45-.4c-1.81,6.09-8.19,8.81-14.12,8.59-6.25-.23-12.3-3-14.61-9.17-.34-.89-1.79-.5-1.45.4Z"/><path class="cls-17" d="M909.16,699.84s6.75,5.85,9.22,4.38,3.85-2.9,1.85-6.57-6.5-7.76-9.68-9.66-9.87-2.86-10.65-2.48c-2.85,1.35,3.28,4.2,6.18,5.72s6,3.54,4.9,4.73-6.47-2.15-8.21-1.22S909.16,699.84,909.16,699.84Z"/><path class="cls-17" d="M1141,889.13s-9.1,4.8-13.93,3.29-1.44-3.46-.43-2.87,6.9-2.6,6.9-2.6A16.49,16.49,0,0,1,1141,889.13Z"/><path class="cls-12" d="M1164.33,1096.1l.13,1.86c.3,4.21-1,13.74-3.46,17,3.51-.3,17.06-2.6,23.67-22.36l-3.38-3.28a20.77,20.77,0,0,0-4.69-3.22,18.68,18.68,0,0,1-7.22-6.81l-15.52-25.76-2.8,17.25,9.68,14.69A22.11,22.11,0,0,1,1164.33,1096.1Z"/><path class="cls-1" d="M1169.74,1123.5c2.72-.91,17.51-24.68,17.51-24.68a3.17,3.17,0,0,0-.4-4.11c-1.28-1.22-2.93-2.81-4.42-4.26-3.64,12-11.52,24.92-21.7,24-4.13-.39-11.46,3.33-11.37,9.35A90.24,90.24,0,0,0,1169.74,1123.5Z"/><path class="cls-13" d="M1030.42,626.86s4,9,1,18.2a29.71,29.71,0,0,0,6.52,28.88s1.48-13,4.07-19.23S1042.93,630.15,1030.42,626.86Z"/><path class="cls-13" d="M1050.45,622.94s-13.71,8.63-12,20.24c0,0-7.32-5.18-9-23C1028.29,607.78,1050.45,622.94,1050.45,622.94Z"/><path class="cls-13" d="M1125.47,677.07c-6.85-3-12.54-8.21-15.28-15.18-4.44-11.29-12.61-20.16-22.7-24.51a13.55,13.55,0,0,1-8.3-12.41h-13.54V635.3c-18.61,4.21-32.66,23.21-32.66,46,0,25,16.88,45.41,38.14,46.8,3,22.46,19.71,39.66,39.91,39.66,22.33,0,40.44-21,40.44-46.92C1151.48,700.85,1140.67,683.8,1125.47,677.07Z"/><path class="cls-12" d="M1040.09,716.44c-25.31,44.16-78.84,22.89-120.63-8.9-4.08-3.1-.2-9.49,4.43-7.3,37.8,17.85,90.25,34.66,93.78-6.86,0-.36.09-1.07,0-.85C1019.55,669.6,1064.52,674.11,1040.09,716.44Z"/><path class="cls-12" d="M1016.15,823.15c13,14.94,88.17,21.17,88.17,21.17,5.55-6.43-20.3-79.91-20.3-79.91s12.45-53,11.89-72.19a14.6,14.6,0,0,0-14.6-14.17h-47.69A14.11,14.11,0,0,0,1019.54,691c-1.25,15.16,18.56,71.76,18.56,71.76S1004.89,810.24,1016.15,823.15Z"/><path class="cls-12" d="M1060.34,1119.94c9.06-.26,13.37-1.73,18.05-3.92l-1.82-10.41a10.85,10.85,0,0,1-.15-2.41l1.12-25.38a10.4,10.4,0,0,0-4.6-9.1h0a5.33,5.33,0,0,0-8.29,4.75c.77,13.12.71,33.66-7,36.27-2.24.76-16.26,5.54-18.62,6.23C1044.56,1118.27,1055.48,1120.08,1060.34,1119.94Z"/><path class="cls-1" d="M1057.14,1117.05a89.12,89.12,0,0,1-16.08-1.49,4.17,4.17,0,0,0-2.13.16c-6,2.08-10,4.31-7.92,7.63.83,1.34,31.81.65,43.91.33a4.13,4.13,0,0,0,3.95-4.86l-.79-4.54A85,85,0,0,1,1057.14,1117.05Z"/><path class="cls-10" d="M1080.45,977c9,12.93,81.44,112.24,85,108.28,3.12-3.44-48.76-114.27-57.71-127.2s-22.94-15.33-30.49-10.1S1071.5,964.1,1080.45,977Z"/><path class="cls-10" d="M1042.79,972.72c1.83,10.28,15.19,66.62,24.11,102.86,4.52,18.33,6.49,31.7,8.14,31,4.28-1.82,3.24-124.19.49-139.67s-12.32-26.72-21.35-25.11S1040,957.25,1042.79,972.72Z"/><path class="cls-10" d="M1017.57,835.92c1.18,20.52,19.63,149.8,35.57,148.89s23.32-131.67,22.15-152.19-15-36.41-31-35.49S1016.4,815.41,1017.57,835.92Z"/><path class="cls-21" d="M1064.86,1078c1.6,1.17,11.42,1.45,13.17-.09,1-37.63-.59-100.24-2.5-111-.21-1.16-.46-2.3-.74-3.41-3.86-15.27-5.9-31-4.24-46.62,3.75-35.59,5.33-73.91,4.74-84.25-1.17-20.52-15-36.41-31-35.49s-27.23,16.55-27.26,37.1C1017,883.83,1064.67,1077.22,1064.86,1078Z"/><path class="cls-14" d="M1047.27,867.12A434,434,0,0,1,1071.33,909c3.19-33.2,4.51-66.8,4-76.38-1.17-20.52-15-36.41-31-35.49s-27.23,16.55-27.26,37.1c0,1.75.07,3.72.18,5.82a92.75,92.75,0,0,1,27.2,24.81A5.37,5.37,0,0,1,1047.27,867.12Z"/><path class="cls-17" d="M1042.08,831.07c.35,20.54,23.4,137.63,39.37,137.35s21.65-118.26,21.3-138.81-16.45-36.52-32.41-36.24S1041.72,810.52,1042.08,831.07Z"/><path class="cls-14" d="M1162.7,1066.94c-13.1-32.34-48-98.88-54.91-108.83-4.41-6.36-4.78-113.55-5-128.5-.35-20.55-16.45-36.52-32.41-36.24s-30.89,16.77-30.54,37.32c.29,17,16.73,106.86,40.65,146.34,6.28,10.36,51.44,71.93,73.21,97.73C1156.18,1074,1161.24,1070.56,1162.7,1066.94Z"/><path class="cls-1" d="M1084,764.41s12.4-54.58,11.86-73.41a13.34,13.34,0,0,0-13.36-13h-7.07c-2.69,6.25-8.4,11.07-17.27,11.07s-14.57-4.82-17.27-11.07h-6.64c7.22,15.45-11.45,19-7.79,47.73,5.27,18.63,11.62,37,11.62,37s-33.21,47.49-21.95,60.4c13,14.94,88.17,21.17,88.17,21.17C1109.87,836.23,1084,764.41,1084,764.41Z"/><polygon class="cls-12" points="1050.44 681.34 1072.08 679.06 1065.23 655.39 1051.24 657.12 1050.44 681.34"/><path class="cls-10" d="M1051.24,657.12l14-1.73,2.14,7.39c-3.13,3.53-7.16,11.16-12.25,11.16a8.1,8.1,0,0,1-4.41-1.3Z"/><path class="cls-12" d="M1050.76,668.56c4.75,0,9.89-2.37,17-8.56,4.06-3.55,7.07-9.74,7.07-13.92V622.94h-35.61s-2.68,12.29-.08,24.48C1041.05,656.56,1047,668.57,1050.76,668.56Z"/><rect class="cls-7" x="1070.01" y="631.82" width="6.69" height="3.04" transform="translate(2146.71 1266.67) rotate(180)"/><path class="cls-10" d="M1068.76,641.7c0,4.52,2.16,8.18,4.83,8.18s5.6-5.92,5.6-10.43-2.94-5.92-5.6-5.92S1068.76,637.19,1068.76,641.7Z"/><path class="cls-13" d="M1066.11,612.67h-12a19.7,19.7,0,0,1-9.28-2.32c-4.54-2.44-10.27-1.74-13.21,2.5s-3.93,9.68,3.75,14.77c3.94,2.62,9.7-.28,13.54,1,.24,0,.45-.05.7-.05h10.67c3.73,0,6.3,3.11,6.54,6.84a4.31,4.31,0,0,0,4.31,4h.47l1.7-5.43,5.91-5.45v-2.8A13.07,13.07,0,0,0,1066.11,612.67Z"/><path class="cls-13" d="M1041,625.55c2.13,4.77,1.17,7.91,18.07,11.94s21-.53,27.57,6.74c0,0-5.07-13.49-14.51-16.19s-24.69-2.18-31.75-12.15C1040.33,615.89,1039.5,622.29,1041,625.55Z"/><path class="cls-12" d="M1102.05,685.54c18.28,32.07,37,97.76,35.69,177.11a4.3,4.3,0,0,1-8.53.69c-22.6-113.45-53.16-163.07-53.16-163.07C1066.33,683,1092.42,668.47,1102.05,685.54Z"/><rect class="cls-1" x="1103" y="909.47" width="57.6" height="73.28"/><rect class="cls-13" x="1103" y="909.47" width="57.6" height="17.08"/><path class="cls-1" d="M1099.63,909.47H1164a1.67,1.67,0,0,1,1.67,1.67v9.91a0,0,0,0,1,0,0H1098a0,0,0,0,1,0,0v-9.92A1.66,1.66,0,0,1,1099.63,909.47Z"/><path class="cls-22" d="M1106.9,909.47a24.1,24.1,0,0,1,48.2,0"/><path class="cls-2" d="M1147.68,946.11h0a4.9,4.9,0,0,1-4.9-4.9V909.47h9.8v31.74A4.9,4.9,0,0,1,1147.68,946.11Z"/><path class="cls-2" d="M1139.14,924.85h0a3.64,3.64,0,0,1-3.64-3.64V909.47h7.28v11.74A3.64,3.64,0,0,1,1139.14,924.85Z"/><path class="cls-23" d="M881.1,611.25l67.68,10.64a10.28,10.28,0,0,1,8.55,11.74L956,642a10.26,10.26,0,0,1-11.73,8.55l-19.23-3a9.94,9.94,0,0,0-11.37,8.27l-6.52,41.45"/><rect class="cls-1" x="887.53" y="603.03" width="64.41" height="28.6" rx="1.19" transform="translate(107.07 -135.38) rotate(8.94)"/><line class="cls-24" x1="911.86" y1="667.39" x2="906.87" y2="699.11"/><path class="cls-17" d="M1126.53,889.22c2.61-.94,4.13-9.66,6.43-9.73,1.13,0,1.24,2.92,1.19,4.7a24.72,24.72,0,0,1,7.14,1.81c.57-5.11.27-13-1.41-17.77-2-5.54-4.77-5.44-8.62-4.23s-4.06,13.74-4.06,13.74S1123.91,890.17,1126.53,889.22Z"/><path class="cls-7" d="M1014.53,813.21a93,93,0,0,0,15.86,7.31q8.35,3.12,17,5.5a197.86,197.86,0,0,0,34.72,6.34,191,191,0,0,0,20.15.78,1.5,1.5,0,0,0,0-3,195.52,195.52,0,0,1-68.42-11.56,96.86,96.86,0,0,1-17.76-8c-1.65-1-3.16,1.59-1.51,2.59Z"/><path class="cls-7" d="M1017.57,805.28c20.78,6.8,41.78,13.6,63.63,15.85a133.74,133.74,0,0,0,18.45.67c1.93-.06,1.94-3.06,0-3-21.77.74-43.1-4.45-63.76-10.8-5.86-1.8-11.69-3.7-17.52-5.61-1.84-.6-2.63,2.3-.8,2.89Z"/><path class="cls-7" d="M1038.79,680.27a22.13,22.13,0,0,0,18.51,11.22,22.68,22.68,0,0,0,11.88-2.81,14.12,14.12,0,0,0,4.22-3.66c1.2-1.55,2.14-3.29,3.69-4.54s-.63-3.32-2.12-2.12c-2.61,2.11-3.73,5.45-6.61,7.3a19.42,19.42,0,0,1-27-6.91c-.94-1.68-3.54-.17-2.6,1.52Z"/><path class="cls-17" d="M912.65,694.78c1.57,2.12-1.57,6.2-1.57,6.2s-8.61-2.61-8.42-6.71"/><path class="cls-1" d="M367.16,977.36s-6.37,6.87-10.36,22.53c-.88,3.45.3,7.16-5.39,7.16v-19l2.73-15.81h-2.73V963.7s14-2.38,15.75,2.61Z"/><path class="cls-25" d="M377.19,975.68l-10,1.68h0a9.65,9.65,0,0,1-.35-10.46l.35-.59,10-2.48Z"/><path class="cls-1" d="M496.34,1084.31s6.64,6.6,22.16,11.14c3.41,1,7.17,0,7,5.64l-19-.66-15.7-3.29-.1,2.73-8.53-.3s-1.89-14,3.16-15.65Z"/><path class="cls-25" d="M495,1074.22l1.33,10.09h0a9.66,9.66,0,0,1-10.47,0l-.57-.37-2.13-10.11Z"/><path class="cls-21" d="M440.13,860.42s.93,31.61,13.05,59.18a14.52,14.52,0,0,1-10.28,20.14c-43.69,9.15-68.35,23.85-68.35,23.85v15l101.93-14a35.83,35.83,0,0,0,30.77-31.81l3.25-31.53Z"/><path class="cls-14" d="M513.53,855.83s18.21,79.37,18.21,99.86-35.2,120.3-35.2,120.3H483s-3-58.87,6.2-100.87c1.8-8.23,4.51-32.1-1.63-37.87-28.82-27-47.41-76.83-47.41-76.83Z"/><path class="cls-26" d="M486,745.37l29.45-14.48,8.86,29.28,54,37.25-7.55,8.07S518.85,793,505.87,780.87,486,745.37,486,745.37Z"/><path class="cls-26" d="M578.31,797.42l11,7a10.75,10.75,0,0,1,4,4.63c1.63,3.6,3.66,9.44,1.17,12.1-3.74,4-17.55,2.77-17.55,2.77l-6.17-18.42Z"/><rect class="cls-27" x="606.17" y="748.88" width="12.48" height="68.93" transform="translate(420.25 1758.91) rotate(-130.84)"/><path class="cls-28" d="M583.81,803l-.23-.27s47.09-43.53,52.14-45.08,12.7.13,2.84,3.28S583.81,803,583.81,803Z"/><path class="cls-1" d="M642.61,651.33a80.13,80.13,0,1,0,113,8.18A80.13,80.13,0,0,0,642.61,651.33Zm5.88,6.81a71.13,71.13,0,1,1-7.26,100.33A71.13,71.13,0,0,1,648.49,658.14Z"/><path class="cls-11" d="M479.88,891.29a4,4,0,0,1,.41-5.7l113.07-97.72a3.86,3.86,0,0,1,5.45.21l6.91,8a3.87,3.87,0,0,1-.58,5.42L492.07,899.22a4.05,4.05,0,0,1-5.71-.42Z"/><path class="cls-1" d="M598.49,787.78C596,791.2,494.05,891.89,486.05,892.87s-7.63-5.66-5.76-7.28l113.07-97.72A3.87,3.87,0,0,1,598.49,787.78Z"/><path class="cls-7" d="M698.27,676.29a10.33,10.33,0,1,1,1.05-14.57A10.32,10.32,0,0,1,698.27,676.29Z"/><path class="cls-7" d="M674.68,677.55a4.92,4.92,0,1,1,.5-6.94A4.92,4.92,0,0,1,674.68,677.55Z"/><path class="cls-11" d="M514.12,710.39c20,14.43-.59,145.44-.59,145.44l-73.4,4.59S430.39,710.72,514.12,710.39Z"/><path class="cls-29" d="M503.64,710.79l7.81-11.45,13.84,7.2-4.71,15.38a3,3,0,0,1-.41.18A44.2,44.2,0,0,0,503.64,710.79Z"/><path class="cls-26" d="M513,671.69,509.17,693c2.11.41,2.81,2.94,1.95,4.81a3.89,3.89,0,0,1,0,1.63,24.74,24.74,0,0,0,17.7,8.75c13.9.58,11.9-27,11.9-27Z"/><path class="cls-13" d="M502.64,685.91c.26-1.57-1.07-5.33-2-6.61-6-8.28,1.85-11.45,4.59-12.43,3-1.07,35.21,1.74,36.39,3.72s5.09-1.8,8.64,4.4c5.41,9.43-9.52,9.42-9.52,9.42s-8.5,1.39-17.81-5a3.46,3.46,0,0,0-4.2,0c-3.23,2.78-7.37,20.3-7.37,20.3l-2.75-3.65S501.44,693.07,502.64,685.91Z"/><path class="cls-26" d="M510.22,689.5a3.31,3.31,0,1,0,2.75-3.8A3.31,3.31,0,0,0,510.22,689.5Z"/><path class="cls-13" d="M554.09,678.28a9.2,9.2,0,0,0,1.7-6.12,7.61,7.61,0,0,0-3.92-5.56,9.28,9.28,0,0,0-6.86-.69c-1.79.49-3.42,1.45-5.23,1.89s-4,.29-6,.51-4.14,1-5.18,2.71a5.47,5.47,0,0,0,.65,5.91,12.25,12.25,0,0,0,5.09,3.6,33.93,33.93,0,0,0,11.68,2.8C549.93,683.55,551.91,681.55,554.09,678.28Z"/><path class="cls-13" d="M527.92,661.82a36.61,36.61,0,0,0-7.12-3,15.79,15.79,0,0,0-8.13-.64c-2.68.64-5.17,2.64-5.71,5.33a7.44,7.44,0,0,0,2.63,6.79,16.6,16.6,0,0,0,6.78,3.31,45.71,45.71,0,0,0,13.52,1.66c3.12-.09,10.58-.07,13-2.48,2.78-2.83-1.66-4.46-3.77-5.16C535,666.34,531.64,663.84,527.92,661.82Z"/><path class="cls-26" d="M455.72,769.19,488.27,765l-1,30.58,39.14,52.67-9.75,5.21s-45.12-28.55-53.49-44.22S455.72,769.19,455.72,769.19Z"/><path class="cls-26" d="M526.36,848.22l8.13,10.16a10.79,10.79,0,0,1,2.33,5.68c.37,3.93.41,10.11-2.81,11.83-4.82,2.58-17.5-3-17.5-3l.1-19.43Z"/><path class="cls-30" d="M691.32,634.62l26,138.82a70.53,70.53,0,0,0,34.23-20.06L730.5,640.92A70.6,70.6,0,0,0,691.32,634.62Z"/><rect class="cls-8" x="803.16" y="813.19" width="158.9" height="5.3" transform="translate(227.36 -191.75) rotate(14.21)"/><rect class="cls-8" x="809.69" y="775.8" width="158.9" height="28.14" transform="translate(221.18 -194.15) rotate(14.21)"/><rect class="cls-8" x="798.08" y="833.25" width="158.9" height="5.3" transform="translate(232.13 -189.89) rotate(14.21)"/><rect class="cls-8" x="793.59" y="852.65" width="158.9" height="5.3" transform="translate(236.76 -188.19) rotate(14.21)"/><rect class="cls-8" x="790.49" y="863.83" width="88.02" height="5.3" transform="translate(238.32 -178.39) rotate(14.21)"/><rect class="cls-7" x="371.77" y="462.25" width="171.24" height="150.38" rx="12.1" transform="translate(152.02 -98.8) rotate(14.76)"/><rect class="cls-8" x="410.97" y="485.22" width="114.86" height="3.57" transform="translate(131.96 -98.98) rotate(14.02)"/><rect class="cls-8" x="407.12" y="498.54" width="114.86" height="3.57" transform="translate(135.08 -97.65) rotate(14.02)"/><rect class="cls-8" x="403.45" y="512.92" width="114.86" height="3.57" transform="translate(138.45 -96.34) rotate(14.02)"/><rect class="cls-8" x="400" y="526.72" width="114.86" height="3.57" transform="translate(141.69 -95.09) rotate(14.02)"/><rect class="cls-8" x="394.72" y="545.22" width="114.86" height="3.57" transform="translate(146.02 -93.26) rotate(14.02)"/><rect class="cls-8" x="390.45" y="562.13" width="114.86" height="3.57" transform="translate(149.99 -91.72) rotate(14.02)"/><rect class="cls-8" x="441.89" y="583.21" width="60.3" height="14.3" rx="7.15" transform="translate(157.12 -96.79) rotate(14.02)"/><polygon class="cls-8" points="1145.79 375.25 528.27 376.08 522.61 344.22 1145.79 344.48 1145.79 375.25"/><circle class="cls-7" cx="1042.75" cy="305.74" r="8.29"/><circle class="cls-7" cx="1069.23" cy="305.74" r="8.29"/><circle class="cls-7" cx="1016.85" cy="305.75" r="8.29"/><path class="cls-31" d="M765,92.43s-27.61,36.82-31.29,68.94C731.11,184.06,765,218,765,218l11.67-5.81L765,185.91c-4.14-12.78-9.24-17.83-5.48-30.72L768,137Z"/><path class="cls-31" d="M852,91.87s27.26,39.27,29.51,71.52c2,27.8-31.42,54.56-31.42,54.56l-9.63-4.79,13.34-26.51c4.14-12.78,6.11-20.48.47-34.38L847.11,137Z"/><path class="cls-32" d="M770.62,176.3l-18.31,58.23s79.25,10.11,103.49,3.57l-12.31-63.43L852,91.87a118,118,0,0,0-37.27-9.12C796,81.4,784.16,84.49,765,92.43Z"/><path class="cls-33" d="M790.43,110c17.48-2,33.75-14.06,34.49-14.61a1,1,0,0,0,.19-1.36,1,1,0,0,0-1.36-.2c-.19.14-19.33,14.26-37.74,14.51a1,1,0,1,0,0,2A40.46,40.46,0,0,0,790.43,110Z"/><polygon class="cls-34" points="804.51 421.96 805.94 434.81 819.62 435.13 820.76 424.46 804.51 421.96"/><path class="cls-35" d="M802.37,218.11S767,216.16,755,226s-9.58,38,2.64,45.66,33,22.8,33,22.8L803.9,426.15l17.5.59s16.13-132.3,8-157.93S802.37,218.11,802.37,218.11Z"/><path class="cls-36" d="M823,420.21a14.64,14.64,0,0,1-.45,9l-20.15-.45A23.26,23.26,0,0,1,802,420Z"/><path class="cls-37" d="M852.48,217.11H759.55L751,166.9a7.11,7.11,0,0,1,7-8.32h96.06a7.12,7.12,0,0,1,7,8.32Z"/><path class="cls-38" d="M759.55,217.11h93a0,0,0,0,1,0,0v7.3A3.62,3.62,0,0,1,849,228H763.18a3.62,3.62,0,0,1-3.62-3.62v-7.3A0,0,0,0,1,759.55,217.11Z"/><path class="cls-38" d="M814.3,189.92a8.08,8.08,0,1,1-8.08-8.07A8.08,8.08,0,0,1,814.3,189.92Z"/><polygon class="cls-34" points="746.43 385.8 743.4 398.52 755.67 400.94 760.67 389.58 746.43 385.8"/><path class="cls-36" d="M820.36,215.93s-23.72-8.18-37.62,9-37.18,162.15-37.18,162.15l16,6.58,51.3-128.74s41.78,23.84,46.84-10.06C863.66,228,820.36,215.93,820.36,215.93Z"/><path class="cls-39" d="M765.14,387a15.11,15.11,0,0,1-3.36,8.7l-19.61-6.94a24,24,0,0,1,2.46-8.79Z"/><path class="cls-1" d="M752.77,396.43s-7.44-3.78-9.63-4.21-20.27,12.4-25.39,12.27c-9.29-.22-12.27,13.42-7,15.27,15.27,5.37,43.54,4.71,43.54,4.71s6.27-17,6.39-22.7S756.8,399,752.77,396.43Z"/><path class="cls-37" d="M736.52,408.55a1.12,1.12,0,0,0,.88,0,1.07,1.07,0,0,0,.61-1.41c-.07-.19-1.9-4.62-4.91-6.68a7.81,7.81,0,0,0-7.85-.75,1.08,1.08,0,0,0-.43,1.48,1.12,1.12,0,0,0,1.51.44,5.55,5.55,0,0,1,5.51.62c2.45,1.68,4.1,5.65,4.11,5.69A1.13,1.13,0,0,0,736.52,408.55Z"/><path class="cls-37" d="M740.23,406a1.1,1.1,0,0,0,.87,0,1.07,1.07,0,0,0,.62-1.41c-.07-.19-1.91-4.62-4.91-6.68a7.78,7.78,0,0,0-7.85-.75,1.07,1.07,0,0,0-.44,1.47,1.14,1.14,0,0,0,1.51.45,5.57,5.57,0,0,1,5.52.62c2.46,1.68,4.09,5.64,4.11,5.68A1.07,1.07,0,0,0,740.23,406Z"/><path class="cls-37" d="M731.73,410.38a1.14,1.14,0,0,0,.87,0,1.08,1.08,0,0,0,.62-1.42c-.08-.18-1.91-4.62-4.92-6.67a7.78,7.78,0,0,0-7.84-.76A1.08,1.08,0,0,0,720,403a1.13,1.13,0,0,0,1.51.44,5.58,5.58,0,0,1,5.51.62c2.47,1.69,4.1,5.65,4.12,5.69A1.1,1.1,0,0,0,731.73,410.38Z"/><path class="cls-1" d="M811.22,434.28s7.61-2.32,9.74-2.36,17,15,21.81,15.74c8.76,1.33,9.29,14.64,4,15.51-15.24,2.5-41.68-2.81-41.68-2.81s-3.07-17-2.23-22.38S807,436,811.22,434.28Z"/><path class="cls-37" d="M824.46,448.36a1.08,1.08,0,0,1-.82-.12,1,1,0,0,1-.35-1.43c.1-.17,2.56-4,5.73-5.46a7.44,7.44,0,0,1,7.49.59,1,1,0,0,1,.17,1.46,1.08,1.08,0,0,1-1.5.17,5.27,5.27,0,0,0-5.28-.33c-2.58,1.17-4.78,4.62-4.8,4.66A1.1,1.1,0,0,1,824.46,448.36Z"/><path class="cls-37" d="M821.41,445.32a1.07,1.07,0,0,1-.83-.12,1,1,0,0,1-.34-1.43c.1-.16,2.55-4,5.72-5.45a7.44,7.44,0,0,1,7.49.59,1,1,0,0,1,.17,1.46,1.07,1.07,0,0,1-1.49.17,5.28,5.28,0,0,0-5.28-.33c-2.59,1.17-4.79,4.62-4.81,4.65A1,1,0,0,1,821.41,445.32Z"/><path class="cls-37" d="M828.66,450.87a1,1,0,0,1-.82-.12,1,1,0,0,1-.35-1.43c.1-.16,2.56-4,5.73-5.45a7.42,7.42,0,0,1,7.49.59,1,1,0,0,1,.16,1.46,1.08,1.08,0,0,1-1.49.17,5.29,5.29,0,0,0-5.28-.34c-2.59,1.18-4.78,4.63-4.8,4.66A1,1,0,0,1,828.66,450.87Z"/><path class="cls-36" d="M831.89,9.37s11.27,17.46,10,35.64,1.67,39.17-14.6,38.25S782,89.78,772.8,75.62,831.89,9.37,831.89,9.37Z"/><path class="cls-35" d="M836.07,41.47s2.92,26.35-9.58,33.61-21.56-.85-21.56-.85S831.29,37.5,836.07,41.47Z"/><path class="cls-40" d="M784.12,41.34s-4.49-6-7.83-1,1.38,19.57,9.56,16Z"/><path class="cls-41" d="M784.06,51.79a.68.68,0,0,1-.66-.5c-1.27-4.52-5.95-6.35-6-6.36a.69.69,0,0,1,.49-1.3c.22.09,5.37,2.09,6.83,7.29a.7.7,0,0,1-.48.85Z"/><path class="cls-41" d="M779.34,49.52a.7.7,0,0,1-.37-.11.71.71,0,0,1-.21-1,6.42,6.42,0,0,1,2.59-2.09.7.7,0,0,1,.57,1.27,5,5,0,0,0-2,1.57A.67.67,0,0,1,779.34,49.52Z"/><path class="cls-40" d="M830.4,41.34s4.49-6,7.83-1-1.38,19.57-9.56,16Z"/><path class="cls-41" d="M830.46,51.79a.69.69,0,0,0,.66-.5c1.27-4.52,5.94-6.35,6-6.36a.69.69,0,0,0-.49-1.3c-.22.09-5.37,2.09-6.83,7.29a.7.7,0,0,0,.48.85Z"/><path class="cls-41" d="M835.18,49.52a.75.75,0,0,0,.37-.11.71.71,0,0,0,.21-1,6.49,6.49,0,0,0-2.6-2.09.7.7,0,0,0-.91.35.7.7,0,0,0,.35.92,4.82,4.82,0,0,1,2,1.57A.7.7,0,0,0,835.18,49.52Z"/><path class="cls-34" d="M818.31,68.71V83.26s-4.33,7.4-10.2,7.91-11.06-6.38-11.06-6.38V69.74Z"/><path class="cls-40" d="M818.31,68.71v6.46c-3.93,4.36-10.92,5.91-21.26,4.38V69.74Z"/><path class="cls-34" d="M833.64,31.37a141.21,141.21,0,0,1-1.88,18.37c-.27,1.41-.58,2.73-.91,3.92-3.06,10.72-10.72,29.09-32.15,21.44-9.46-3.38-13.85-13.92-15.8-24.64a103.17,103.17,0,0,1-1.43-19.9,15.18,15.18,0,0,1,7.7-12.92c12.65-7.17,26-4.5,34.78-1.12A15.13,15.13,0,0,1,833.64,31.37Z"/><path class="cls-36" d="M797.82,43.59c0,1.55-.8,2.81-1.79,2.81s-1.78-1.26-1.78-2.81.8-2.81,1.78-2.81S797.82,42,797.82,43.59Z"/><path class="cls-36" d="M819.89,43.59c0,1.55-.8,2.81-1.79,2.81s-1.79-1.26-1.79-2.81.8-2.81,1.79-2.81S819.89,42,819.89,43.59Z"/><path class="cls-36" d="M792.5,34.24a29.75,29.75,0,0,1,7.64-1.15,1.33,1.33,0,0,1,1.32,1.56v0a1.32,1.32,0,0,1-1.37,1.08c-2.15-.1-7.8.21-10.47,1.29a2,2,0,0,1,.61-1.42A4.54,4.54,0,0,1,792.5,34.24Z"/><path class="cls-36" d="M821.37,34.29a30.38,30.38,0,0,0-7.65-1.14,1.33,1.33,0,0,0-1.32,1.56v0a1.31,1.31,0,0,0,1.36,1.08c2.15-.1,7.8.2,10.47,1.29a2,2,0,0,0-.61-1.43A4.7,4.7,0,0,0,821.37,34.29Z"/><path class="cls-40" d="M807.5,55a2.85,2.85,0,0,1-1.5-.36A2.09,2.09,0,0,1,805,53c-.26-2.54.39-10.5.42-10.84a.69.69,0,1,1,1.37.11c0,.09-.66,8.17-.41,10.58a.75.75,0,0,0,.34.65c.64.39,2.14,0,2.77-.26a.69.69,0,1,1,.52,1.27A7.2,7.2,0,0,1,807.5,55Z"/><path class="cls-37" d="M798.73,59.38c.52,2.63,2.25,7.47,8.1,7.47s7.51-4.42,8.07-7.47Z"/><path class="cls-40" d="M806.75,70.88a6.85,6.85,0,0,1-3.24-.95.69.69,0,1,1,.72-1.18h0a5.49,5.49,0,0,0,2.52.75,5.8,5.8,0,0,0,2.65-.75.69.69,0,0,1,.72,1.18A7.21,7.21,0,0,1,806.75,70.88Z"/><path class="cls-36" d="M836.43,30.24a2.3,2.3,0,0,1-1.67,1.28,44,44,0,0,1-.25,5.11c-.85,10-3.37,11.74-3.94,9.27-.37-1.64-.35-11-.17-14.11a32.66,32.66,0,0,1-3.66-.46l-2.31-9.69-.82,9.57c-3.47,1.21-11.57-.73-11.57-.73l-2.72-9.55-1.68,9.19c-5.21,2.54-11.73.85-11.73.85l-1.49-9.92L791,31s-11.11,4-11.23,0c-.08-2.32,1.62-8.86,3.06-13.92A20.91,20.91,0,0,1,792.88,4.24c13.79-7.41,28.37-3.47,33.37-.48C836.86,10.09,836.43,30.24,836.43,30.24Z"/><path class="cls-36" d="M785.85,10.11S776.7,21,773.69,40.43s-7.18,33.8,4.53,40.22c12.68,6.95,11.58-7.3,11.4-11.17s-11-14.46-3.77-44.27C788.17,15.59,785.85,10.11,785.85,10.11Z"/><path class="cls-35" d="M783.71,50.28v0c0,.15,0,.92.07,2.13,0,.75.07,1.66.14,2.7.43,6.55,1.71,17.86,5.45,21.78,1.48,1.55,4.32,2.33,7.68,2.64V74.41a20.39,20.39,0,0,1-8.43-7.82A48.36,48.36,0,0,1,784,52.22Z"/><path class="cls-37" d="M833.81,56.64A1.62,1.62,0,1,1,832.19,55,1.63,1.63,0,0,1,833.81,56.64Z"/></g></g></svg>