
<svg width="55px" height="73px" viewBox="0 0 55 73" version="1.1" xmlns="http://www.w3.org/2000/svg">

    <g id="Page-1" stroke="none" strokeWidth="1" fill="none" fillRule="evenodd">
        <g id="contact-US" transform="translate(-861.000000, -1185.000000)">
            <g id="Group-6" transform="translate(861.000000, 1185.000000)">
                <path d="M27.5,0 C12.3364181,0 0,11.859948 0,26.4377236 C0,44.5291988 24.609806,71.0885417 25.6575903,72.2103478 C26.6417512,73.264144 28.3600285,73.2622904 29.3424097,72.2103478 C30.390194,71.0885417 55,44.5291988 55,26.4377236 C55,11.859948 42.6634336,0 27.5,0 Z M27.000075,40 C19.2803149,40 13,33.9439022 13,26.4999276 C13,19.0559531 19.280465,13 27.000075,13 C34.7196851,13 41,19.0560978 41,26.5000724 C41,33.9440469 34.7196851,40 27.000075,40 Z" id="Shape-Copy" fill="#17A9BA" fillRule="nonzero"></path>
                <ellipse id="Oval" fill="#F8BA1B" cx="27" cy="26.5" rx="12" ry="11.5"></ellipse>
            </g>
        </g>
    </g>
</svg>