<?xml version="1.0" encoding="UTF-8"?>
<svg
    xmlns="http://www.w3.org/2000/svg" viewBox="0 0 751.03 546.31">
    <defs>
        <style>.cls-1{fill:#ffaeab;}.cls-2{fill:#fa968c;}.cls-3{fill:#364056;}.cls-4{fill:#0fa8ba;}.cls-5{fill:#adbec4;}.cls-6{fill:#fff;}.cls-7{fill:#119ea5;}.cls-8{fill:#cfd8dc;}.cls-9{fill:#0e3944;}.cls-10{fill:#1a4850;}.cls-11{fill:#ecbc4f;}.cls-12{fill:#f7b634;}.cls-13{fill:#e09f2d;}.cls-14{fill:#ff8b66;}.cls-15{fill:#ff7133;}.cls-16{fill:#ef6e4b;}.cls-17{fill:#2d3749;}.cls-18{fill:#662c33;}.cls-19{fill:#e8a631;}.cls-20{fill:#225866;}.cls-21{fill:#6097b2;}.cls-22{fill:#164353;}</style>
    </defs>
    <title>team_3</title>
    <g id="Layer_2" data-name="Layer 2">
        <g id="Layer_1-2" data-name="Layer 1">
            <path class="cls-1" d="M215.6,23.45c2,0,8,2.39,8,2.39,4.34,2.67,6.75,4.13,9.64,4.37s4.05,5.19,4.05,5.19,11.32,2.48,12-4.67c0,0-6.33-9-6.77-10.17-.9-2.4.73-6-1.81-10.06S236.86.12,236.86.12s-2.51-.79-2.79,1.69,1.59,5.93,1.13,7a3.88,3.88,0,0,1-.34.6.07.07,0,0,0,0,.05,2.71,2.71,0,0,1-1.92,1.26.3.3,0,0,1-.17,0c-2.84-.07-7.81-4-9.85-5.94-2.84-2.72-7-6.25-7.89-3.87s2.17,2.24,7.34,9.43l-.52.74c.34.54-5.11-2.19-9.46-5.6-3-2.34-3.64.45-3.11,1.65s3.87,3.13,6,4.85c1.43,1.12,2.93,2.28,3.83,3l-.27,1.17c-7.42-1.62-8.58-4.41-10.15-2.86s3.07,4.68,5.43,5.22a21.56,21.56,0,0,1,4.41,2.13c-5.91-.13-7.36-2-8.34-.51S213.56,23.42,215.6,23.45Z" />
            <path class="cls-2" d="M234.46,18c-1.8-3.39.12-8,.37-8.52a2.71,2.71,0,0,1-1.92,1.26C231.36,15.5,234.46,18,234.46,18Z" />
            <path class="cls-1" d="M548.85,23.45c-2,0-8,2.39-8,2.39-4.34,2.67-6.76,4.13-9.64,4.37s-4,5.19-4,5.19-11.33,2.48-12-4.67c0,0,6.33-9,6.77-10.17.9-2.4-.73-6,1.81-10.06S527.59.12,527.59.12s2.52-.79,2.79,1.69-1.59,5.93-1.13,7a3.25,3.25,0,0,0,.35.6.12.12,0,0,1,0,.05,2.72,2.72,0,0,0,1.92,1.26.31.31,0,0,0,.17,0c2.84-.07,7.81-4,9.86-5.94,2.83-2.72,6.95-6.25,7.88-3.87s-2.16,2.24-7.34,9.43l.52.74c-.34.54,5.11-2.19,9.47-5.6,3-2.34,3.63.45,3.11,1.65s-3.88,3.13-6,4.85c-1.43,1.12-2.93,2.28-3.83,3l.28,1.17c7.41-1.62,8.57-4.41,10.15-2.86s-3.08,4.68-5.44,5.22a21.28,21.28,0,0,0-4.4,2.13c5.91-.13,7.35-2,8.33-.51S550.89,23.42,548.85,23.45Z" />
            <path class="cls-2" d="M530,18c1.8-3.39-.12-8-.37-8.52a2.72,2.72,0,0,0,1.92,1.26C533.09,15.5,530,18,530,18Z" />
            <path class="cls-3" d="M449.31,366.8,427.55,232.06,384,236.93l-43.57-4.87L318.65,366.8,308.2,497.47s3.32,10.83,25.06,3.35c0,0,16.12-121.21,18.62-123.87S380,295.11,380,295.11h8s25.6,79.17,28.1,81.84,18.62,123.87,18.62,123.87c21.73,7.48,25.05-3.35,25.05-3.35Z" />
            <path class="cls-3" d="M370.26,101.59c2.75,2.68,16.29,7.51,23.44,0l4.85,4.76s-5.53,13-15.23,13.46-16.72-11.57-16.72-11.57Z" />
            <path class="cls-4" d="M408.6,100.12c16.21-7,68.57-25.52,68.57-25.52S512.37,30.5,519.55,24c0,0,7.79,1.4,10.07,11.1,0,0-22.67,48.53-35,62.43s-74.72,43.94-74.72,43.94Z" />
            <path class="cls-5" d="M351.88,99.12c4.82-3,29,13.15,29,13.15s31.47-16.71,38.85-13.48c0,0,6.66,8.91,9.33,31.81s2.85,117.12,2.85,117.12-21.16,7.48-49.77,7.48c-32.63,0-50.18-9.35-50.18-9.35S326.17,115.39,351.88,99.12Z" />
            <path class="cls-2" d="M371.53,96.68s3.49,11,0,15.18c0,0,3.62,7.6,10.13,7.94,7.52.38,10.13-7.94,10.13-7.94s-4-10.58,0-14.31Z" />
            <path class="cls-3" d="M362.85,85.89S355.51,71.77,357,56.68s24.19-18.55,39.51-11.13c0,0,12.59,8.76,3.35,37.94Z" />
            <path class="cls-2" d="M361.74,76.94s-5.47-5.45-6.14.93c-.78,7.39,5.93,10.37,7.25,8S361.74,76.94,361.74,76.94Z" />
            <path class="cls-2" d="M400,77.33s5.47-5.46,6.14.92c.78,7.39-5.93,10.37-7.24,8S400,77.33,400,77.33Z" />
            <path class="cls-1" d="M380.32,103.72c-12.14,0-19-7.93-19-31.7,0-12.27,6.24-19.79,19.83-19.79S400.48,59.75,400.48,72C400.48,97.56,392.85,103.72,380.32,103.72Z" />
            <path d="M390.91,68.16a.59.59,0,0,1-.44-.19c-1.68-1.76-4.62-1.68-4.67-1.68a.62.62,0,0,1-.62-.59.6.6,0,0,1,.58-.63c.13,0,3.54-.09,5.59,2.07a.6.6,0,0,1,0,.85A.58.58,0,0,1,390.91,68.16Z" />
            <path d="M368.06,68.16a.58.58,0,0,1-.42-.17.6.6,0,0,1,0-.85c2.05-2.16,5.45-2.07,5.59-2.07a.6.6,0,0,1,.58.63.62.62,0,0,1-.62.59s-3-.06-4.67,1.68A.59.59,0,0,1,368.06,68.16Z" />
            <path d="M389.86,74.6c0,1.51-.68,2.73-1.51,2.73s-1.52-1.22-1.52-2.73.68-2.73,1.52-2.73S389.86,73.09,389.86,74.6Z" />
            <path d="M373.66,74.6c0,1.51-.68,2.73-1.52,2.73s-1.52-1.22-1.52-2.73.68-2.73,1.52-2.73S373.66,73.09,373.66,74.6Z" />
            <path class="cls-6" d="M373.66,90.72s10.7,1.38,16.2-1.26c0,0-3.11,7.29-8.95,6.63A8.3,8.3,0,0,1,373.66,90.72Z" />
            <path class="cls-3" d="M399.22,80s-.38-13.19-5.52-23.34c0,0-9.06,4.19-11.05,3.2s1.9-3.2,1.9-3.2-14.95,4.93-15.85,3.94,5-3.94,5-3.94l-9.31,3.2S361.48,71.75,362.66,80c0,0-4-6.9-4.49-11.67S359.77,50,373.79,49s21.9,2.19,25.38,8.63S402.21,72,399.22,80Z" />
            <path class="cls-2" d="M382.43,86.91a11.25,11.25,0,0,1-2.74-.4l.34-1.25c1.28.36,3.28.57,3.71,0,.15-.18.09-.59-.17-1.13-1.75-3.74-2.11-13.18-2.13-13.58l1.29,0c0,.1.37,9.58,2,13.08a2.23,2.23,0,0,1,0,2.51A3,3,0,0,1,382.43,86.91Z" />
            <path class="cls-4" d="M395.86,105.07s22,68.18,24.05,123.65c0,0,7.93,2.19,16.86-10s3.61-108.43-13.49-124.47C423.28,94.28,415.52,92.52,395.86,105.07Z" />
            <path class="cls-3" d="M399.44,117s3.93-9.13,2.18-15.4-7.92,0-7.92,0S396.19,111.85,399.44,117Z" />
            <path class="cls-4" d="M355.35,100.12c-16.2-7-68.57-25.52-68.57-25.52S251.5,29.22,244.32,22.67c0,0-8.88,5-9.49,15.43,0,0,22.17,45.49,34.49,59.39S344,141.43,344,141.43Z" />
            <path class="cls-4" d="M368.1,105.07s-22,68.18-24.06,123.65c0,0-7.92,2.19-16.85-10s-3.62-108.43,13.48-124.47C340.67,94.28,348.43,92.52,368.1,105.07Z" />
            <path class="cls-3" d="M364.52,117s-3.93-9.13-2.19-15.4,7.93,0,7.93,0S367.76,111.85,364.52,117Z" />
            <path class="cls-4" d="M479.14,532.61H435.53c-3-17.34,1.81-34.69,1.81-34.69l19.94-3.43c1.81,11,4,15.28,7,17.51h0c2.2,1.61,4.84,2.13,8.13,3.27a10.43,10.43,0,0,1,6.73,6.27C481.16,526.66,479.14,532.61,479.14,532.61Z" />
            <path class="cls-7" d="M479.19,521.54c-10.75,1.34-34.37,3.64-32.93-2.59,1.2-5.19,11.17-6.6,18.05-7h0c2.2,1.61,4.84,2.13,8.13,3.27A10.43,10.43,0,0,1,479.19,521.54Z" />
            <path class="cls-4" d="M333.09,532.61H289.48a20.34,20.34,0,0,1-.75-8.4,10.58,10.58,0,0,1,7.43-8.94c3.77-1.31,6.67-1.79,9-4,2.58-2.43,4.5-6.92,6.13-16.76l19.93,3.43S336.12,515.27,333.09,532.61Z" />
            <path class="cls-7" d="M288.73,524.21a10.58,10.58,0,0,1,7.43-8.94c3.77-1.31,6.67-1.79,9-4,5.51,1.7,13.24,4.82,15.63,9.56C324.17,527.3,298.68,526.27,288.73,524.21Z" />
            <path class="cls-8" d="M331.65,245.85,331.31,235s45.47,19.87,100.53,1.66l.57,11a159.11,159.11,0,0,1-51.25,7.8C350.5,254.83,331.65,245.85,331.65,245.85Z" />
            <path class="cls-3" d="M193.66,129.62s-9.78-6.65-24.08-1.52-17.51,24.38-14,40-16.17,69-16.17,69,10.24,14.39,46,8.88c0,0,26.68-48.46,24.7-83.26S193.66,129.62,193.66,129.62Z" />
            <path class="cls-1" d="M205,189.75c13.45-4.3,21.67,6.89,29.37,27.72s10.3,22.92,10.3,22.92l29.72,19.11-2.47,11.13s-28.29-11.08-35.13-18.13-26.52-42.73-26.52-42.73Z" />
            <path class="cls-1" d="M139.44,324.33s-5.84,29.53-4.88,74c0,0-23,33.89-4,130.58h9.95s8.13-82.27,14.34-104.56,29.19-29.13,30.43-96.91Z" />
            <path class="cls-1" d="M94,411.18c-5.78-19.05-20.64-51-58.76-94.22,0,0-2.27-1.17-5.35.71-3.24,2-3.24,4.31-3.24,4.31s19.11,41.66,31.3,72.18a27,27,0,0,0,25.09,17Z" />
            <path class="cls-4" d="M163.36,448s.13,14.22-9.19,14.46c-13.17.35-13.66-14-28.58-13.53s-45.71,4.2-55.5-19.12C65,417.78,72,402.32,55.63,390.66s-8.39-24.72,0-31.72S52,344.32,60.76,340.75a8.57,8.57,0,0,1,6-.11A13.79,13.79,0,0,1,70,342.25a30.63,30.63,0,0,1,7.87,8.43C102.57,283,146.57,274,146.57,274l43.53,15C191.14,394.39,163.36,448,163.36,448Z" />
            <path class="cls-8" d="M205,189.75s-10.15,3.42-24.59,1.23-19.14-11.26-29.29-5.42c-15.25,8.76-8.11,38.92-4.29,54.6,1.43,5.85,3.24,21.21-.2,33.89,0,0,20.29,15.79,43.52,15l12.67-27.56S230.33,228.52,205,189.75Z" />
            <path class="cls-1" d="M179.16,164.45s1.69,14.27-3.58,27.25c0,0,7.53,11.12,14.72,3.8A71.92,71.92,0,0,1,199,167.63C204.45,157.73,179.16,164.45,179.16,164.45Z" />
            <path class="cls-1" d="M167.62,164.94s-6.36-4-5.64,2.18c.83,7.19,7.84,8.59,8.59,6.07S167.62,164.94,167.62,164.94Z" />
            <path class="cls-1" d="M204.08,157.15s4-6.34,6-.43c2.32,6.86-3.43,11.12-5.17,9.16S204.08,157.15,204.08,157.15Z" />
            <path class="cls-1" d="M191,186.42c-11.53,2.58-19.73-3.49-24.78-26.08-2.61-11.65,1.72-20.12,14.63-23s19.95,3,22.56,14.69C208.8,176.28,202.87,183.75,191,186.42Z" />
            <path class="cls-9" d="M193.33,150.4a.58.58,0,0,1-.33-.1c-2-1.31-4.76-.61-4.79-.61a.58.58,0,0,1-.72-.42.59.59,0,0,1,.42-.72,7.86,7.86,0,0,1,5.75.77.59.59,0,0,1,.16.82A.58.58,0,0,1,193.33,150.4Z" />
            <path class="cls-9" d="M171.62,155.26a.54.54,0,0,1-.3-.08.59.59,0,0,1-.2-.81c1.49-2.48,4.73-3.12,4.86-3.15a.6.6,0,0,1,.69.47.59.59,0,0,1-.47.69s-2.86.58-4.07,2.6A.6.6,0,0,1,171.62,155.26Z" />
            <path class="cls-10" d="M193.83,156.73c.32,1.43-.06,2.73-.86,2.91s-1.7-.84-2-2.27.07-2.73.86-2.91S193.51,155.3,193.83,156.73Z" />
            <path class="cls-10" d="M177.81,160.18c.33,1.43-.06,2.73-.85,2.91s-1.71-.84-2-2.27.07-2.74.86-2.92S177.49,158.74,177.81,160.18Z" />
            <path class="cls-6" d="M183,173.73s7.41-.6,10.67-3.35c0,0-.9,5.78-4.93,6.18A5.9,5.9,0,0,1,183,173.73Z" />
            <path class="cls-10" d="M189.8,156.88s.26-3.76,1.7-3.81,3.17,2.72,3.17,2.72l1.8-1.54-2,.73s-1.78-2.91-3.15-2.61C189.39,152.79,189.8,156.88,189.8,156.88Z" />
            <path class="cls-10" d="M178.7,159.82s-1.84-3.29-3.17-2.73-1.7,3.82-1.7,3.82l-2.29-.62,2.11-.19s.36-3.39,1.72-3.71C177.32,156,178.7,159.82,178.7,159.82Z" />
            <path class="cls-2" d="M186.73,167.05l-.59-1.12a1.47,1.47,0,0,0,.94-1.67A1.62,1.62,0,0,0,186,163c-.23,0-.43.19-.58.6l-1.2-.45a1.85,1.85,0,0,1,1.88-1.42,2.8,2.8,0,0,1,2.24,2.27A2.73,2.73,0,0,1,186.73,167.05Z" />
            <path class="cls-3" d="M168.53,169s-3.56-13.08-1.45-22.33c0,0,10-14,29.39-7.06a78.14,78.14,0,0,1,8.59,22.18s.72-4.65-1.21-15-11.11-16.78-23.7-14.71S154.08,146.68,168.53,169Z" />
            <path class="cls-3" d="M188.83,136.7s.76,3.42-2.56,12.21a3.62,3.62,0,0,0-5.18,0c-2.8,2.5-8.48,1.66-10.42,3s-1.94,4.44-1.94,4.44a12.23,12.23,0,0,1,0-8.45s-3.78,4.8-3.28,10.73c0,0-5.12-.83-4.89-9.28s12.24-22.11,25.71-21.22S203,150.35,203,150.35a3.92,3.92,0,0,0-3.15-.54,27.91,27.91,0,0,0-3.33-10.2,15.05,15.05,0,0,1,0,8.53s-3.75-2-6.71-1.35C189.76,146.79,191.59,143.22,188.83,136.7Z" />
            <path class="cls-1" d="M147.65,188.25c6.55-5.17,11.66,1.41,12.91,10.5S150,261.47,140.81,259.5c-3.52-.77-5-14.82-5-14.82a324.16,324.16,0,0,0,5.89-37.77C142.8,196.48,144.23,191,147.65,188.25Z" />
            <path class="cls-1" d="M128.57,251.92c-8.82-8.42-24.64-36.32-28.66-50.53l6.7-2.69s20.16,28.85,29.35,36.12,12.43,15.38,8.32,22.31S130.43,253.69,128.57,251.92Z" />
            <path class="cls-1" d="M102.66,182.78c-.46,9.12,7,11.29,3.67,18.29a4.77,4.77,0,0,1-2.79,2.59,5.65,5.65,0,0,1-5.84-1.5,64.47,64.47,0,0,0-11.91-9c-3.3-1.91-1.43-2.43-1.43-2.43-.32-.15-.63-.28-.94-.41-2.36-1-4.25-1.36-2.54-2.41,1.93-1.19,8.75,1.3,8.75,1.3-8.88-5.92-11.29-4.47-9.67-5.73,2.21-1.72,10.66,2.24,10.91,2.36-4.69-4.44-8.1-5.45-6.23-6.12s11.17,6,14.56,8.57c.76.57,1.23.94,1.23.94C100.31,181.76,102.66,182.78,102.66,182.78Z" />
            <path class="cls-2" d="M99.2,188.28c.76.57,1.23.94,1.23.94a6.16,6.16,0,0,0,.47,6.13A5.52,5.52,0,0,1,99.2,188.28Z" />
            <path class="cls-1" d="M91.41,193.52c-.79-.43-5.27-3-7-2.8-.32-.15-.63-.28-.94-.41C84.61,188.73,90.52,192.88,91.41,193.52Z" />
            <path class="cls-6" d="M126.64,328.91a1.8,1.8,0,1,1-1.8-1.79A1.8,1.8,0,0,1,126.64,328.91Z" />
            <path class="cls-6" d="M158.63,341.25a1.8,1.8,0,1,1-1.8-1.79A1.81,1.81,0,0,1,158.63,341.25Z" />
            <path class="cls-6" d="M185.89,347.87a1.8,1.8,0,1,1-1.8-1.79A1.8,1.8,0,0,1,185.89,347.87Z" />
            <path class="cls-6" d="M144,305.49a1.8,1.8,0,1,1-1.79-1.79A1.79,1.79,0,0,1,144,305.49Z" />
            <circle class="cls-6" cx="148.25" cy="322.53" r="1.79" />
            <path class="cls-6" d="M178.41,332.25a1.8,1.8,0,1,1-1.8-1.8A1.79,1.79,0,0,1,178.41,332.25Z" />
            <path class="cls-6" d="M182.3,302.85a1.8,1.8,0,1,1-1.79-1.79A1.8,1.8,0,0,1,182.3,302.85Z" />
            <circle class="cls-6" cx="161.92" cy="296.74" r="1.79" />
            <path class="cls-6" d="M110.77,363.89a1.8,1.8,0,1,1-1.8-1.79A1.81,1.81,0,0,1,110.77,363.89Z" />
            <path class="cls-6" d="M85.21,356.27a1.8,1.8,0,1,1-1.79-1.8A1.79,1.79,0,0,1,85.21,356.27Z" />
            <path class="cls-6" d="M70,342.25a1.82,1.82,0,0,1-1.52.8,1.79,1.79,0,0,1-1.79-1.79,1.41,1.41,0,0,1,.13-.62A13.79,13.79,0,0,1,70,342.25Z" />
            <circle class="cls-6" cx="118.13" cy="387.28" r="1.79" />
            <path class="cls-6" d="M74.05,412.7a1.79,1.79,0,1,1-1.79-1.8A1.79,1.79,0,0,1,74.05,412.7Z" />
            <circle class="cls-6" cx="91" cy="397.29" r="1.79" />
            <circle class="cls-6" cx="63.09" cy="383.66" r="1.79" />
            <path class="cls-6" d="M87.41,437.34a1.79,1.79,0,1,1-1.79-1.8A1.79,1.79,0,0,1,87.41,437.34Z" />
            <path class="cls-6" d="M104.49,343.05a1.8,1.8,0,1,1-1.8-1.8A1.8,1.8,0,0,1,104.49,343.05Z" />
            <path class="cls-6" d="M121.72,312.84a1.8,1.8,0,1,1-1.8-1.79A1.81,1.81,0,0,1,121.72,312.84Z" />
            <path class="cls-6" d="M141.22,287.71a1.8,1.8,0,1,1-1.8-1.8A1.8,1.8,0,0,1,141.22,287.71Z" />
            <path class="cls-6" d="M101.7,324.33a1.8,1.8,0,1,1-1.79-1.8A1.79,1.79,0,0,1,101.7,324.33Z" />
            <path class="cls-6" d="M123.51,294.94a1.8,1.8,0,1,1-1.79-1.79A1.8,1.8,0,0,1,123.51,294.94Z" />
            <path class="cls-6" d="M89.21,375.69a1.8,1.8,0,1,1-1.8-1.79A1.81,1.81,0,0,1,89.21,375.69Z" />
            <path class="cls-6" d="M66.68,359.85a1.8,1.8,0,1,1-1.79-1.79A1.8,1.8,0,0,1,66.68,359.85Z" />
            <circle class="cls-6" cx="130.22" cy="354.47" r="1.79" />
            <circle class="cls-6" cx="167.3" cy="363.89" r="1.79" />
            <path class="cls-6" d="M167.3,312.84a1.8,1.8,0,1,1-1.79-1.79A1.8,1.8,0,0,1,167.3,312.84Z" />
            <path class="cls-6" d="M188.86,316.6a1.8,1.8,0,1,1-1.8-1.79A1.81,1.81,0,0,1,188.86,316.6Z" />
            <path class="cls-6" d="M145.8,377.49a1.8,1.8,0,1,1-1.8-1.8A1.8,1.8,0,0,1,145.8,377.49Z" />
            <circle class="cls-6" cx="128.43" cy="409.39" r="1.79" />
            <circle class="cls-6" cx="100.9" cy="414.49" r="1.79" />
            <circle class="cls-6" cx="176.61" cy="387.28" r="1.79" />
            <path class="cls-6" d="M153.63,400.88a1.8,1.8,0,1,1-1.8-1.8A1.8,1.8,0,0,1,153.63,400.88Z" />
            <path class="cls-6" d="M116.34,440.92a1.8,1.8,0,1,1-1.8-1.79A1.81,1.81,0,0,1,116.34,440.92Z" />
            <circle class="cls-6" cx="142.21" cy="431.59" r="1.79" />
            <circle class="cls-6" cx="168.86" cy="421.02" r="1.79" />
            <path class="cls-6" d="M158.63,451.87a1.8,1.8,0,1,1-1.8-1.79A1.81,1.81,0,0,1,158.63,451.87Z" />
            <path class="cls-11" d="M156.67,546.31H127.21c-1.92-5.48,1.62-11,1-15.82-1-8.17,3.73-3.65,3.73-3.65.84-8.79,13.19-10.45,13.05-6.53-.2,5.76.92,9.33,2.56,11.71,3.32,4.8,8.77,4.76,9.7,8.19.09.34.17.67.23,1C158.42,545.47,156.67,546.31,156.67,546.31Z" />
            <path class="cls-5" d="M157.51,541.18c-6.1,1.42-20.17-.43-20.73-4s7-5,10.8-5.19c3.32,4.8,8.77,4.76,9.7,8.19C157.37,540.55,157.45,540.88,157.51,541.18Z" />
            <path class="cls-11" d="M35.58,318.14c-3.14-2.85-8.23,1.87-8.23,1.87s2.74,4.07,1,5.71-3.83-2.11-7.31-.47a6.27,6.27,0,0,0-.86.49c-2.73,1.62-5.56,5-7.86,7.63-.46.52-.91,1-1.32,1.43-2.67,2.8-9.55,4.44-10.84-3s7.11-16.21,16.32-24.25,15.17-3.27,15.17-3.27,2.09,3.38,2.09,5.49,1.87,3.13,2.91,5.13S35.58,318.14,35.58,318.14Z" />
            <path class="cls-5" d="M20.15,325.74c-2.73,1.62-5.56,5-7.86,7.63-3.45.82-6.54.57-7-2.67-1.17-7.84,14.46-17.8,13.21-12.3A9.78,9.78,0,0,0,20.15,325.74Z" />
            <path class="cls-12" d="M332.81,513.13l-10.95,2.56s-17.13-91.8-21.07-101.5c-3.39-8.37-17.86-40.37-22.66-65a16.27,16.27,0,0,1-3.77-.54h0l-1.61-.34-1.58-.34c-.41,24.5-5.73,54.72-7.36,63.19-2,10.27-.91,103.7-.91,103.7l-11.25-.37c-21.35-75.66-10.08-104.08-10.08-104.08s-19.57-68.1-12.63-92.12A160.19,160.19,0,0,1,236.79,297c.23-.5.44-1,.68-1.46a143.06,143.06,0,0,1,9.95-18.41l22.87,2.86.22-.37.66.13v7.18l2.9-.15.65-.05h0l9.49-.5,1.3-.07,8.31-.44s5,7.93,12.08,20.68l.79,1.46c2.53,4.58,5.3,9.72,8.19,15.31,11.48,22.22,7.56,86,7.56,86S339,434.77,332.81,513.13Z" />
            <path class="cls-13" d="M255,279.71c-.08.17-6,14.18-18.17,17.24.23-.5.44-1,.68-1.46,10.94-3.4,16.28-16.09,16.35-16.23Z" />
            <path class="cls-13" d="M306.71,307.81c-13.66-2.93-20.62-17.22-22.48-21.63-.32-.8-.49-1.27-.5-1.31l1.15-.4s.23.65.65,1.64c2,4.53,8.36,17.05,20.39,20.24Z" />
            <path class="cls-13" d="M274.35,348.69l-1.61-.34c-2-3.66-5.6-11.54-8.57-24.68-4.26-18.92,5.44-39.07,5.54-39.27l1.11.54c-.1.19-9.63,20-5.46,38.47.18.78.36,1.55.54,2.28.1.41.19.8.29,1.19C269.22,338.91,272.75,345.89,274.35,348.69Z" />
            <path class="cls-13" d="M265.57,326.94h-.18l.08-1.22a2.65,2.65,0,0,0,2-1c.81-.92,2.54-3.85,1.14-11-1.87-9.64,5.26-26.53,5.57-27.24l1.12.48c-.07.17-7.29,17.25-5.49,26.52,1.45,7.43-.27,10.75-1.42,12.06A3.83,3.83,0,0,1,265.57,326.94Z" />
            <path class="cls-3" d="M265.81,190.77s3.62-6.55-1.47-17.82-4-42.41,21.47-41.08c0,0,15.14-2.51,22.78,7.41s13.84,44.88,5.85,70.82S255.55,229.09,265.81,190.77Z" />
            <path class="cls-1" d="M293.84,285.67a52.59,52.59,0,0,1-46.42-8.59s-4.18-86,3.78-91.78c3.48-2.52,10.35-.5,17,2.57a128.15,128.15,0,0,1,16.72,9.69s14.83-2.1,26.52-.81c7.44.8,13.6,3,13.87,7.91C326,217.37,293.84,285.67,293.84,285.67Z" />
            <path class="cls-1" d="M312.06,196.94c-5-.52-5.95,3.28-11,5.1a70.62,70.62,0,0,1-13.33,3.47c-2.28.21-3.49,3-3.49,3s-.81-3.83-2-4.15-11.84-11-14.05-16.53a128.15,128.15,0,0,1,16.72,9.69s14.83-2.1,26.52-.81Z" />
            <path class="cls-3" d="M246.59,524.07c.68-4.68-1-8,.18-10.27,1.89-3.49,3.88.93,3.88.93.17-5.32,9.07-5.31,10-2.88a17.7,17.7,0,0,0,.79,1.8c.55-1.28,1.49-2.53,2.71-1.8,4.76,2.85-1.16,10.21,3.17,15.57,5.51,6.82,2.12,17.13,2.12,17.13H243C239.92,530.09,245.9,528.73,246.59,524.07Z" />
            <path class="cls-5" d="M262.89,522.32s-6.24-3.28-14.52,1.07l1.63-3a14.51,14.51,0,0,1,12.13-.87Z" />
            <path class="cls-5" d="M264,527.28s-8.89-3.08-17.16,1.26l1.55-3.16s7.87-3.41,14.52-.86Z" />
            <path class="cls-3" d="M337.65,524.07c-.68-4.68,1-8-.18-10.27-1.89-3.49-3.88.93-3.88.93-.16-5.32-9.07-5.31-10-2.88a17.7,17.7,0,0,1-.79,1.8c-.55-1.28-1.49-2.53-2.71-1.8-4.76,2.85,1.16,10.21-3.17,15.57-5.51,6.82-2.12,17.13-2.12,17.13h26.39C344.32,530.09,338.34,528.73,337.65,524.07Z" />
            <path class="cls-5" d="M321.35,522.32s6.24-3.28,14.52,1.07l-1.63-3a14.51,14.51,0,0,0-12.13-.87Z" />
            <path class="cls-5" d="M320.26,527.28s8.89-3.08,17.16,1.26l-1.55-3.16s-7.87-3.41-14.52-.86Z" />
            <path class="cls-1" d="M283,169.11s1.9,23-4.49,26.25c0,0,4.72,8.7,17.38,3.41,0,0-2.14-11.82,6.24-25.84C307.71,163.54,283,169.11,283,169.11Z" />
            <path class="cls-14" d="M306.05,161.23s4.75-5.53,5.84.43c1.26,6.89-4.84,10.17-6.24,8.06S306.05,161.23,306.05,161.23Z" />
            <path class="cls-1" d="M270.05,164.33s-5.53-4.74-5.71,1.31c-.2,7,6.33,9.33,7.39,7S270.05,164.33,270.05,164.33Z" />
            <path class="cls-1" d="M290.5,187.74c11.41-.87,17.29-8.81,15.58-31.18C305.2,145,298.8,138.4,286,139.38s-17.63,8.45-16.75,20C271.09,183.4,278.71,188.64,290.5,187.74Z" />
            <path class="cls-1" d="M273.65,167.06a2.71,2.71,0,1,0,2.83-1.85A2.42,2.42,0,0,0,273.65,167.06Z" />
            <path class="cls-1" d="M297.17,165.89a2.71,2.71,0,1,0,2.32-2.46A2.44,2.44,0,0,0,297.17,165.89Z" />
            <path class="cls-9" d="M277.7,155a.57.57,0,0,0,.68-.15,6.55,6.55,0,0,1,4.27-1.92.59.59,0,0,0,.55-.6.57.57,0,0,0-.6-.55c-.13,0-3.33.17-5.1,2.34a.57.57,0,0,0,.08.81Z" />
            <path class="cls-9" d="M294.23,152a.65.65,0,0,0,.31.05s2.81-.28,4.51,1.25a.56.56,0,0,0,.81,0,.58.58,0,0,0,0-.81c-2.09-1.88-5.27-1.55-5.41-1.54a.58.58,0,0,0-.18,1.09Z" />
            <path class="cls-10" d="M279.43,161c.11,1.41.84,2.52,1.62,2.45s1.34-1.25,1.23-2.67-.83-2.52-1.62-2.46S279.32,159.62,279.43,161Z" />
            <path class="cls-10" d="M295.2,159.73c.11,1.42.83,2.52,1.62,2.46s1.34-1.26,1.23-2.67-.83-2.52-1.62-2.46S295.09,158.32,295.2,159.73Z" />
            <path class="cls-6" d="M294.29,173.73s-7,1.54-10.84-.09c0,0,2.47,5.1,6.32,4.34A5.72,5.72,0,0,0,294.29,173.73Z" />
            <path class="cls-10" d="M283.21,160s-1.3-3.41-2.65-3.06-2.17,3.43-2.17,3.43l-2.11-.92,2.05.11s.82-3.2,2.17-3.31C282.43,156.14,283.21,160,283.21,160Z" />
            <path class="cls-10" d="M294.33,159.62s.77-3.57,2.16-3.42,2.66,3.06,2.66,3.06l2-1.23-2,.42s-1.29-3-2.65-2.94C294.51,155.65,294.33,159.62,294.33,159.62Z" />
            <path class="cls-2" d="M288.1,168.33a3.59,3.59,0,0,0,.84.27l.23-1.21c-1-.2-1.3-.81-1.35-1.28a1.54,1.54,0,0,1,.66-1.48c.22-.08.45.05.71.39l1-.75a1.77,1.77,0,0,0-2.13-.79,2.73,2.73,0,0,0-1.45,2.74A2.53,2.53,0,0,0,288.1,168.33Z" />
            <path class="cls-3" d="M290.12,143s2.57-1.23,6.6,4.09c8.43,11.11,9.33,26.5,5.66,39-2.67,9.09,14.66,4.14,14.66,4.14a26.47,26.47,0,0,0-.82-12.89c-2.23-6.44.61-29.61-7.63-38.07s-22.78-3.05-22.78-3.05-7-4.15-13.83,0-8.77,22.8-1.8,31.08c0,0-.36-7,2.7-9.75S277.65,139.57,290.12,143Z" />
            <path class="cls-1" d="M236.55,51.33c-2.63,8.46,3.83,12.28-1,18.06-3,3.57-7.45.66-7.45.66-2.16-4.51-7.27-10.47-9.92-13s-.77-2.63-.77-2.63c-.26-.22-.52-.41-.78-.6-2-1.5-3.66-2.3-1.8-2.88,2.09-.66,7.9,3.33,7.9,3.33-6.92-7.69-9.53-6.92-7.7-7.71,2.49-1.08,9.46,4.66,9.67,4.84-3.33-5.3-6.29-7.06-4.38-7.24s9,8.36,11.61,11.55c.58.71.93,1.17.93,1.17C234.6,49.81,236.55,51.33,236.55,51.33Z" />
            <path class="cls-2" d="M232,55.67c.58.71.93,1.17.93,1.17a6,6,0,0,0-1,5.87A5.34,5.34,0,0,1,232,55.67Z" />
            <path class="cls-2" d="M223.41,58.71c-.64-.59-4.24-4-5.95-4.33-.26-.22-.52-.41-.78-.6C218.18,52.58,222.73,57.89,223.41,58.71Z" />
            <path class="cls-1" d="M235.6,69.39s-.95,55.77-3.85,66.84c0,0,10.14,35,25.33,47.74,0,0,2.37,9.5-10.76,28.21,0,0-25.54-45.7-29.64-71.84l11.47-70.29Z" />
            <path class="cls-15" d="M269.16,188.34c1.3,4.62,2,20.85,17.42,29.19s31.88-3.87,36.35-17.17c0,0,1.88-2.82,8,4,0,0,32,15.52,36.15,23.58s1.64,38.88-11.16,39.34-28.27-13.79-32.34-4.42-27.88,42.79-77.23,15.9c0,0-6.21-7.76-6.21-14.68S237,211.57,237,211.57s-18.19-5.27-13.63-48.2c0,0,12.53,6.94,12.22-16,0,0,10.33-4.8,13.76,14.44,2.29,12.89,15,22.31,15,22.31S267.18,181.31,269.16,188.34Z" />
            <path class="cls-2" d="M374.34,244c10.89-4.57,34.86-24.35,43.41-35.83l-5.13-4.75s-28.23,19.14-39.06,22.55-16.56,9.62-15.25,17.32S372.05,244.92,374.34,244Z" />
            <path class="cls-1" d="M426.69,192c-5.31,7.08-12.19,4.08-14.07,11.35-1.17,4.49,3.82,6.42,3.82,6.42,4.92-.89,12.75-.24,16.39.4s2.57-.92,2.57-.92l1,.28c2.37.73,4,1.62,3.38-.22-.69-2.08-7.33-4.46-7.33-4.46,10.29,1.1,11.19,3.67,10.76,1.73-.58-2.66-9.32-4.94-9.59-5,6.25-.4,9.41,1,8.44-.69s-12.08-2.42-16.16-2.64l-1.5-.07C429.07,192.73,426.69,192,426.69,192Z" />
            <path class="cls-16" d="M425.86,198.28l-1.5-.07a6,6,0,0,1-4.15,4.28A5.35,5.35,0,0,0,425.86,198.28Z" />
            <path class="cls-1" d="M428.41,207c.85.17,5.76,1.06,7,2.28l1,.28C436.44,207.66,429.48,207.08,428.41,207Z" />
            <path class="cls-3" d="M306,154.8s-2.06,3.09-2.73,11.84-.89,6.26-1,18.55-1.06,17.44-3,21.63c0,0,22.54,6.31,20.62-16.27S319.08,162.09,306,154.8Z" />
            <path class="cls-15" d="M538.54,524.09a10.62,10.62,0,0,1-3.73-4.27,42.48,42.48,0,0,1,0-12c1-6.15-1.71-11.18-10.43-13.07-8.47-1.83-13.49,2.25-11.54,19.28h0c-1.29,7.08-1.55,15.16,1.39,22H540.3S544.41,527.17,538.54,524.09Z" />
            <path class="cls-14" d="M561.41,432.3a79.11,79.11,0,0,1-9.58,34.41c-9.76,17.75-21.83,42.1-21.83,42.1s-8,7.85-13.14-5.14c0,0,3.6-45.23,11.88-61.79S561.41,432.3,561.41,432.3Z" />
            <path class="cls-14" d="M686.45,377s15.53,65.31,25.41,82.54c0,0-2.27,7.2-13,9.38,0,0-33.79-49.66-36-70.58S686.45,377,686.45,377Z" />
            <path class="cls-3" d="M719.17,451.65c-4.13,10-25,20.9-25,20.9l-38.66-73.33-.64-.94-5-7.35S597,339.06,586.68,343.42h0a4.9,4.9,0,0,0-.88.51c-7.07,5.05-7.73,32.74-16.1,79.22a81.62,81.62,0,0,1-3.92,13.1c-.16.39-.3.75-.43,1.1-.77,2-15.82,66.24-15.82,66.24-32.28,13.07-38.49-6.21-38.49-6.21s10.46-70.31,11-71.51c.12-.27.26-.56.4-.88,1.69-3.73,4.39-10.19,4.36-13.61q-.06-5.61-.09-10.82c0-.31,0-.61,0-.9-.05-11.17,0-20.88,0-29.32v-.88c0-3.68.08-7.11.15-10.32v-.91c.28-14.69.75-24.5,1.26-31,0-.3.05-.61.07-.89.89-11,1.83-12.08,1.83-12.08l-6.47-44.94h70.54s10.6,10.61,24.35,24.62c.3.28.57.56.85.86,5,5.07,10.37,10.57,15.77,16.17.23.22.44.43.63.64l6.36,6.57c.26.26.51.54.77.8,7.07,7.34,13.94,14.57,19.81,20.9.21.21.4.42.6.63,8,8.69,14.15,15.64,16.25,18.89,5.6,8.55,10,19.69,12.36,26.57v0c.12.31.23.59.33.89C693.33,390.19,719.17,451.65,719.17,451.65Z" />
            <path class="cls-17" d="M540.61,321c-2.88,3.4-7.06,5.49-12.46,6.24,0-.3.05-.61.07-.89,5.09-.73,9-2.72,11.72-5.93,4.85-5.71,4.07-13.43,4-13.5l.87-.11C544.89,307.1,545.7,315,540.61,321Z" />
            <path class="cls-18" d="M619.32,294.77c-.28,0-.54,0-.82,0-7.84,0-16-8.57-16.45-9l.63-.61c.11.12,8.26,8.66,15.79,8.73C618.77,294.19,619,294.47,619.32,294.77Z" />
            <path class="cls-17" d="M565.77,436.25c-.16.39-.3.75-.43,1.1a41.52,41.52,0,0,1-14.4,2.7c-13.94,0-23.59-8.07-28.89-14.18.12-.27.26-.56.4-.88C529.23,432.94,543.71,444.67,565.77,436.25Z" />
            <path class="cls-17" d="M584.71,327.23a73.47,73.47,0,0,1,2,16.19,4.9,4.9,0,0,0-.88.51c0-26.32-15.26-46.85-15.44-47.07l.7-.53a90.76,90.76,0,0,1,13.44,30,8,8,0,0,0,3.48-5c2.2-9.23-7.79-24.32-7.87-24.48l.71-.49c.42.65,10.28,15.56,8,25.17A8.89,8.89,0,0,1,584.71,327.23Z" />
            <path class="cls-17" d="M663.26,340.48c-2.6,2.82-5,5.22-5.27,5.43l-.47.47-.22-.62c-3.42-8.94-25.38-28.32-25.6-28.51l-.27-.25,3.66-6.06c.23.22.44.43.63.64l-3.07,5.09c4.27,1.48,7.31,1.74,9.43,1.48.26.26.51.54.77.8a12.81,12.81,0,0,1-2.28.2,23.94,23.94,0,0,1-6.75-1.17c5,4.49,20.48,18.85,24,26.85,1.38-1.36,3.12-3.15,4.81-5C662.87,340.06,663.06,340.27,663.26,340.48Z" />
            <path class="cls-18" d="M542.77,400.41l-.35.07a45.54,45.54,0,0,1-8.84.9,25.88,25.88,0,0,1-6.86-.82c0-.31,0-.61,0-.9,5.75,1.65,13.44.38,15.18,0l-1.46-36.27a11.76,11.76,0,0,1-5.48,6.21,10.56,10.56,0,0,1-4.84,1.08,15,15,0,0,1-3.36-.39v-.88a11.34,11.34,0,0,0,7.8-.6c3.7-1.83,5.16-5.75,5.61-7.3-2.91.44-8.78-1-13.26-2.42v-.91c4.83,1.47,11.36,3.16,13.72,2.34l.55-.19Z" />
            <path class="cls-17" d="M692.2,386.85a44.22,44.22,0,0,1-31.44,12.65,51.12,51.12,0,0,1-5.28-.28l-.64-.94c19.43,2.23,31.61-6.88,37-12.32C692,386.27,692.1,386.55,692.2,386.85Z" />
            <path class="cls-12" d="M607.16,78.21s-1.94-4.46-10.13-4.47c-6.31,0-8.73,3.49-8.73,3.49-3.77,11-7.83,53.3-9.28,54.8-.74.76-47.56,32.29-47.56,32.29,25.41.48,41.26,31.79,41.26,31.79.82-10.29,29.51-51.07,29.82-54.7C603.12,134.55,615.26,103.91,607.16,78.21Z" />
            <path class="cls-15" d="M525.89,299.17s-.24,8.82,2.61,9.4a80.22,80.22,0,0,0,52.81-4.7C608,291.72,612.68,282.72,604.84,276S525.89,299.17,525.89,299.17Z" />
            <path class="cls-12" d="M515.18,170.42s-24.31-2.88-38.25,3.16c0,0-3.89,17.25,15.26,55.86s14.71,62.93,36.31,72.08c19.15,8.12,75.61-16,77.38-24,4.47-20.17-30.06-55.55-32.24-76.06S551.42,150.09,515.18,170.42Z" />
            <path class="cls-12" d="M476.93,173.58c-17,6-36.11,25.11-36.14,34.3s15.95,12.74,15.95,12.74l26.18-12.74s7.49-5.23,2.72-20.47S476.93,173.58,476.93,173.58Z" />
            <path class="cls-8" d="M546.74,190.58A28.85,28.85,0,0,1,531.45,186c-2.15-1.54-3.44-3.27-3.72-5-1-6,4.92-9.1,5.17-9.23l.79,1.55c-.2.11-5,2.63-4.23,7.41.2,1.27,1.24,2.6,3,3.86,4.39,3.13,12,5,16.9,4.09,2.22-.39,3.67-1.19,4.32-2.38a4,4,0,0,0,.11-3.1l1.6-.69a5.7,5.7,0,0,1-.17,4.6c-.91,1.69-2.78,2.79-5.56,3.28A16.84,16.84,0,0,1,546.74,190.58Z" />
            <path class="cls-8" d="M525.19,209c-3.76,0-10-1.57-10.87-7.74a30.56,30.56,0,0,1,.09-8.07c.37-3.41.67-6.1-1.32-9.32-3.27-5.31-7.73-5.67-7.92-5.68l.11-1.74c.22,0,5.53.38,9.3,6.51,2.29,3.73,1.94,7,1.56,10.42A29.08,29.08,0,0,0,516,201c1,6.66,9.44,6.24,9.79,6.22l.11,1.74Q525.58,209,525.19,209Z" />
            <path class="cls-12" d="M530.48,177.69s12.85-8.75,9.8-18.23-44.43-8.82-55.11,2.51,23.09,18.84,23.09,18.84C510.88,175.54,527.58,175,530.48,177.69Z" />
            <path class="cls-15" d="M507.38,176.21c-6.1-2.07-9.72-6.47-8.41-11.56s27.52-5.22,32.49-1.15S529.43,183.7,507.38,176.21Z" />
            <path class="cls-2" d="M504.47,161.92s5.4,9.22,2.91,14.29c0,0,18.51,6.39,18.51-4,0,0-3.49-7.76-2.18-12.78Z" />
            <path class="cls-3" d="M498.3,153.87s-9.09-14.56-8.25-28.47c.42-7,4-9.69,4-9.69s-2.89-4,.21-10.15c0,0,4.28,5,19.31,3.4,14.5-1.51,15.95,8.82,15.95,8.82,10.36,1.54,3.37,32.89-3.86,36.09Z" />
            <path class="cls-1" d="M494.44,140.42s-5.22-5.21-5.87.89c-.74,7.06,5.67,9.91,6.93,7.66S494.44,140.42,494.44,140.42Z" />
            <path class="cls-1" d="M531,140.79s5.23-5.22,5.88.88c.74,7.07-5.68,9.91-6.93,7.67S531,140.79,531,140.79Z" />
            <path class="cls-1" d="M512.19,166c-11.59,0-18.14-7.57-18.14-30.3,0-11.71,6-18.9,18.95-18.9s18.46,7.18,18.46,18.9C531.46,160.13,524.17,166,512.19,166Z" />
            <path class="cls-9" d="M522.52,131.64a.6.6,0,0,1-.44-.12c-1.85-1.42-4.62-.91-4.66-.91a.58.58,0,1,1-.22-1.14c.12,0,3.33-.6,5.58,1.13a.6.6,0,0,1,.11.82A.65.65,0,0,1,522.52,131.64Z" />
            <path class="cls-9" d="M500.32,131.72a.61.61,0,0,1-.38-.21.59.59,0,0,1,.08-.82c2.2-1.8,5.42-1.32,5.54-1.3a.59.59,0,0,1,.49.66.6.6,0,0,1-.67.49,6.66,6.66,0,0,0-4.62,1.05A.56.56,0,0,1,500.32,131.72Z" />
            <path class="cls-10" d="M521.32,138.18c0,1.44-.65,2.61-1.45,2.61s-1.45-1.17-1.45-2.61.65-2.61,1.45-2.61S521.32,136.74,521.32,138.18Z" />
            <path class="cls-10" d="M505.83,138.18c0,1.44-.65,2.61-1.45,2.61s-1.45-1.17-1.45-2.61.65-2.61,1.45-2.61S505.83,136.74,505.83,138.18Z" />
            <path class="cls-3" d="M497.61,119.32s12.36,4.53,30.08,3.26c0,0,3.77,4.7,3.32,21.32,0,0,10.37-29.93-19.92-29.93s-16.64,29.27-16.64,29.27S492,124.93,497.61,119.32Z" />
            <path class="cls-2" d="M512.93,145.93l-.87-.88,2.29-2.28c-2.22-3.14-2.21-10.42-2.21-10.74h1.23c0,.08,0,7.91,2.26,10.37l.41.44Z" />
            <path class="cls-6" d="M507.5,151.29s8.18.34,12.3-.75c0,0,.73,5.94-5.6,6.24C507.5,157.09,507.5,151.29,507.5,151.29Z" />
            <path class="cls-8" d="M554,181.1c2.18-.4,2,5.3,0,3.65S551.83,181.51,554,181.1Z" />
            <path class="cls-8" d="M527.74,208.73c-.33,2.19-5.65.11-3.44-1.2S528.07,206.54,527.74,208.73Z" />
            <path class="cls-1" d="M504.36,220.62s-3.46,8.87-3.26,13.88,1.83,4.36,1.83,4.36a5.41,5.41,0,0,0-3.12,3.92c-.49,2.89,6.8,5,7.3,5s5.65-2,5.65-2l1.08-16.39-4.56-2.86Z" />
            <path class="cls-2" d="M507.11,219.47s6.3,3.92,8.73,6.32,1,20.91,0,21.78-9.07,2.67-10.61,1.66.6-6.45.6-6.45,4-.87,3.45.66a4,4,0,0,0,0,2.83l1.66-.66a19,19,0,0,1,0-7.18c.81-3.05-5.68-6.27-6.47-11.85S507.11,219.47,507.11,219.47Z" />
            <path class="cls-12" d="M441.84,210.45c-2-8.7,6.62-11.78,18.65-10.3,13.94,1.72,42.57,5.37,48.79,20.47,0,0,2,6-3.23,8.82C491.35,237.44,445.63,226.81,441.84,210.45Z" />
            <path class="cls-19" d="M485.45,204.68s-16.61-6.9-24.89-7.6S472,203.62,485.45,204.68Z" />
            <path class="cls-1" d="M610,55.1c-1.26,1.43-3.33,7-3.33,7-.87,4.67-1.38,7.25-3,9.39s-.77,5.92-.77,5.92-6.34,3.26-11.68-.76c0,0,.56-3.75,0-4.81-1.09-2.13-4.61-3.26-5.82-7.55s-4.81-9.1-4.81-9.1,1-2.23,2.91-.87,3.11,4.81,4.13,5.16a2.85,2.85,0,0,0,.63.14l0,0a2.57,2.57,0,0,0,2.08-.54.38.38,0,0,0,.12-.11c1.72-2,2.13-7.89,2.06-10.52-.11-3.66,0-8.72,2.26-7.86s.19,2.89,1.92,11l.83.1c.16.58,1.69-4.89,2.06-10,.26-3.54,2.58-2.23,3.09-1.12s-.27,4.64-.42,7.2c-.12,1.69-.26,3.45-.35,4.49l1,.55c3.52-6.14,2.32-8.68,4.38-8.81s1.31,5.06.21,7a19.07,19.07,0,0,0-1.29,4.37c3.61-4.16,3.2-6.34,4.86-6.08S611.25,53.67,610,55.1Z" />
            <path class="cls-1" d="M594.42,64.7c-1.22-3.36-5.58-4.9-6.12-5.07a2.57,2.57,0,0,0,2.08-.54C594.65,61,594.42,64.7,594.42,64.7Z" />
            <path class="cls-6" d="M518.72,510.42s-2.41-4.92-.26-7,4.68,1.81,8.35.93,4.52-3.48,5.48.08S532.08,519.14,518.72,510.42Z" />
            <path class="cls-6" d="M532.65,513.33s-9.87,1.59-15,0l1.3,1.95s10.72.51,12.2-.72Z" />
            <path class="cls-6" d="M532.41,516.64s-9-.8-13.39.63v1.35s11.78-1.76,15.58,0Z" />
            <path class="cls-6" d="M518.59,523s1.75-3.12,7.24-3.34a17.94,17.94,0,0,1,9.2,2S526.32,519,518.59,523Z" />
            <path class="cls-15" d="M751,463.72c-17.34,23.14-40.93,27.58-40.93,27.58-6.85-5.47-7-11.95-7-11.95s-6.61-5.89-7.48-8.72,5.66-11.32,9.58-10.45a7.94,7.94,0,0,1,5,4c-3.24-7.3-.65-9.84,4-9.21,4.8.64.26,1.77,3.7,5.62a4.32,4.32,0,0,0,.82.72,5.71,5.71,0,0,0,2.23.89,10.28,10.28,0,0,0,2.45.12,13.54,13.54,0,0,0,1.4-.14,19.63,19.63,0,0,0,2.73-.66,25,25,0,0,0,4.41-1.9c6-3.28,8.53-4.39,13.09-3.23s4.48,4.6,4.48,4.6Z" />
            <path class="cls-5" d="M751,463.72c-17.34,23.14-40.93,27.58-40.93,27.58,12-5.17,23.11-11.95,30.67-20.3S751,463.72,751,463.72Z" />
            <path class="cls-6" d="M718.64,461.33a5.71,5.71,0,0,0,2.23.89,5.86,5.86,0,0,0-4.92,5l-2-.63C714.42,461.69,718.31,461.35,718.64,461.33Z" />
            <path class="cls-6" d="M721.72,467.72l-2,.07c-.76-2.89.23-4.61,1.19-5.57a10.28,10.28,0,0,0,2.45.12A5.81,5.81,0,0,0,721.72,467.72Z" />
            <path class="cls-6" d="M726.76,466.61l-2,.26a5.61,5.61,0,0,1,0-4.67,19.63,19.63,0,0,0,2.73-.66A5.92,5.92,0,0,0,726.76,466.61Z" />
            <path class="cls-15" d="M532.72,251.71s4.48,24.15-4.57,33.78-3.07,1.71-.37-10.7S528.43,249.32,532.72,251.71Z" />
            <path class="cls-15" d="M574.48,240.94s14.27,4.68,21.73,17.86C596.21,258.8,586.25,237.35,574.48,240.94Z" />
            <path class="cls-12" d="M598.29,543.11a23,23,0,0,1-.17,2.91H548.75c0-1,0-1.95.07-2.91A90.73,90.73,0,0,1,553.46,519l12.33-5.3c1.07,6.36,3.8,10.42,7.24,13.07a16.43,16.43,0,0,0,2.82,1.81,14.54,14.54,0,0,0,1.37.68,23.62,23.62,0,0,0,3.16,1.17c4.36,1.33,8.76,1.6,11.85,2.08C597.49,533.31,598.29,539.4,598.29,543.11Z" />
            <path class="cls-20" d="M598.29,543.11a23,23,0,0,1-.17,2.91H548.75c0-1,0-1.95.07-2.91Z" />
            <path class="cls-20" d="M575.85,528.57l-6.85,2.2-1.45-2.51,5.48-1.5A16.43,16.43,0,0,0,575.85,528.57Z" />
            <path class="cls-20" d="M580.38,530.42l-4.62,3.07-2.84-1.12,4.3-3.12A23.62,23.62,0,0,0,580.38,530.42Z" />
            <path class="cls-12" d="M409.67,543.11a12.23,12.23,0,0,1-.56,2.91H376.23a14.91,14.91,0,0,1-.93-2.91c-3.24-15.74,18.61-35,18.61-35l6.94,9.25s-.8,14.81,5.07,17.9C409.44,537.11,409.9,540.6,409.67,543.11Z" />
            <path class="cls-20" d="M375.3,543.11h34.37a12.23,12.23,0,0,1-.56,2.91H376.23A14.91,14.91,0,0,1,375.3,543.11Z" />
            <path class="cls-20" d="M404.42,534.09s-13.86-3.16-20.17.93v-2.29S395.9,527.07,404.42,534.09Z" />
            <path class="cls-20" d="M401.67,530.57s-8.84-4-17.42,0l1-2.3S395.48,524.39,401.67,530.57Z" />
            <path class="cls-4" d="M583.39,403.21c0,13.22-11.72,121.06-11.72,121.06a68.63,68.63,0,0,1-21.16-1.18C547.29,468.44,547,421.44,547,421.44l-56.29-42.19-.13-.11s-.21,1-.6,2.67c-2.79,12.37-14.58,64.2-19.5,76.06-5.59,13.53-66.76,70.4-66.76,70.4-11.36-1.57-21-9.8-21-9.8,22-36.42,51.9-73,51.9-73,2.33-13.12,4-42.31,5-64.13,0-.33,0-.68.05-1,.66-14.78,1-25.93,1-25.93l-10.32-21.16,65.54-24.08L510.55,328s3.36,3.12,8.66,8.11c.25.22.49.45.73.68C539.62,355.35,583.39,397.28,583.39,403.21Z" />
            <path class="cls-21" d="M439.59,381.39c0-.33,0-.68.05-1,13.8-7.49,11.49-19.45,11.45-19.57l.86-.18C452,360.76,454.45,373.6,439.59,381.39Z" />
            <path class="cls-21" d="M489.67,370.79a74.34,74.34,0,0,1,1,8.46l-.13-.11s-.21,1-.6,2.67c-.61-20.5-9.06-32.61-9.16-32.75l.71-.5c.09.1,5.42,7.81,8,21.24,10-8.85.21-27,.1-27.17l.77-.42C490.48,342.41,500.81,361.61,489.67,370.79Z" />
            <path class="cls-21" d="M519.94,336.8s-.05,0-.07,0a3.7,3.7,0,0,1-1.36.23c-4.82,0-12.93-6.77-13.31-7.1l.58-.66c2.63,2.23,10,7.58,13.43,6.82C519.46,336.34,519.7,336.57,519.94,336.8Z" />
            <path class="cls-5" d="M434.91,220.49s19.93-3.21,29.92,3.16,23.11,23,23.11,23-15.57,2.05-17.34,12.63C470.6,259.27,459.29,232.33,434.91,220.49Z" />
            <path class="cls-8" d="M404.92,230.89c-8.44,4.56-22.53,21.67-23.17,32.2-.62,10.27,7,19.71,12.11,27.74,16,25.05,32.84,47.18,40,76.56.05.18,36.6,14.69,79.49-36.87,0,0-24.24-32.62-32.61-60.38-3.41-11.3-6.88-23.31-13.42-33.27-7.21-11-19.56-17.42-32.41-16.38C424,221.37,413.22,226.39,404.92,230.89Z" />
            <path class="cls-2" d="M401.38,220.38s5.39,9.22,2.9,14.28c0,0,18.51,6.39,18.51-4,0,0-3.49-7.77-2.18-12.78Z" />
            <path class="cls-1" d="M442.51,283.49s-10.3,2.93-12.9,6.57-4.91,11.82-4.91,11.82h17.81l3.34-6.16,3.92-8.21Z" />
            <path class="cls-22" d="M425.49,210.1s7.23-3,2.55-24.77c-3.1-14.41-7.56-16.56-10.45-16.68,0,0-3.53-5.32-15.76-2.77-8.39,1.74-15.07,6.83-18,16.25-3.07,9.83,3.08,30.91,11.17,33Z" />
            <path class="cls-2" d="M427.2,195.41s4.55-6.34,6.27-.09c2,7.24-4.21,11.31-5.9,9.18S427.2,195.41,427.2,195.41Z" />
            <path class="cls-2" d="M389.08,202.09s-6.35-4.54-6,1.93c.44,7.5,7.62,9.36,8.54,6.8S389.08,202.09,389.08,202.09Z" />
            <path class="cls-1" d="M413.08,225.16c12.1-2,17.63-11,13.72-34.73-2-12.23-9.48-18.7-23-16.46s-18,10.67-16,22.9C392,222.34,400.59,227.22,413.08,225.16Z" />
            <path class="cls-2" d="M393.17,204.66a2.9,2.9,0,1,0,2.85-2.24A2.6,2.6,0,0,0,393.17,204.66Z" />
            <path class="cls-2" d="M418.16,201.22a2.91,2.91,0,1,0,2.25-2.85A2.59,2.59,0,0,0,418.16,201.22Z" />
            <path class="cls-10" d="M396.57,191.46a.53.53,0,0,1-.34-.11.61.61,0,0,1-.16-.85c1.69-2.48,5.08-3,5.23-3a.62.62,0,1,1,.16,1.22s-3,.43-4.38,2.45A.6.6,0,0,1,396.57,191.46Z" />
            <path class="cls-10" d="M419.35,187.7a.63.63,0,0,1-.37-.12c-2-1.48-4.9-.92-4.93-.92a.61.61,0,0,1-.72-.48.62.62,0,0,1,.48-.72c.15,0,3.51-.67,5.91,1.14a.61.61,0,0,1,.12.86A.6.6,0,0,1,419.35,187.7Z" />
            <path class="cls-10" d="M398.78,197.7c.25,1.5,1.12,2.61,2,2.47s1.31-1.47,1.06-3-1.13-2.61-2-2.47S398.53,196.19,398.78,197.7Z" />
            <path class="cls-10" d="M414.93,195c.25,1.5,1.13,2.61,2,2.47s1.31-1.46,1.07-3-1.13-2.61-2-2.47S414.69,193.53,414.93,195Z" />
            <path class="cls-6" d="M419.47,208.67s-10.5,2.82-16.32,1.7c0,0,4,5.07,9.77,3.61S419.47,208.67,419.47,208.67Z" />
            <path class="cls-9" d="M420,179.43s-13.66,9.89-30.8,10.64l.48,15.26s-16-29.44,15.63-34.65,22.4,27.67,22.4,27.67S426.7,184.16,420,179.43Z" />
            <path class="cls-2" d="M408.8,204.57l-.09-1.32s1.84-.14,2.31-1.27c.2-.46-.58-1.94-1.26-3.25a24.77,24.77,0,0,1-2.64-6.58l1.3-.26a23.79,23.79,0,0,0,2.51,6.23c1,1.94,1.75,3.34,1.31,4.38C411.45,204.38,408.91,204.57,408.8,204.57Z" />
            <path class="cls-15" d="M427.37,179.47c-23-10-44.64,10.7-44.64,10.7s-2.53-16.75,1.9-20.67a26.94,26.94,0,0,1,3.67-2.74c10.15-6.39,23.63-6.27,29.82-4.07a7.61,7.61,0,0,1,2.81,1.56C424.59,168.05,427.37,179.47,427.37,179.47Z" />
            <path class="cls-8" d="M424.59,175.74a54.33,54.33,0,0,0-37.28,8.08s-1.15-10.8,1-17.06c10.15-6.39,23.63-6.27,29.82-4.07C421.73,166.8,424.59,175.74,424.59,175.74Z" />
            <path class="cls-15" d="M384.63,188.2s3.05-13,7.17-16.65c6.86-6.08,26.12-8.17,36.24-4.52s0,14.72,0,14.72S411.91,170.2,384.63,188.2Z" />
            <path class="cls-1" d="M414.41,274.51s7.89,12.21,21.31,19.39c0,0,16.8-14.58,38.58-13.27,0,0-18.05,32.57-33.55,36.18-8.14,1.89-37.6-17.61-37.6-17.61S409,278.47,414.41,274.51Z" />
            <path class="cls-5" d="M385.38,252.37c7.22-11.75,23.86,5.61,29.52,18s9.8,15,9.8,15-16.63,6.94-16.51,19.41C408.19,304.83,369.64,278,385.38,252.37Z" />
            <path class="cls-2" d="M434.59,286.65s11.26-8,44.58-21l-4.31-13.53c3.82-5,10.85-5,10.85-5s17.07,24.1,14.13,31.3C498,282.86,462.52,287.38,434.59,286.65Z" />
            <path class="cls-1" d="M472.1,268.36a8.86,8.86,0,0,1,1.49-3.17c1.24-1.73.9-4.9,1.34-5.88s3.07-5,4.8-5.76,4-2.06,4.51.15-3.12,1.58-4.73,4.76a13.92,13.92,0,0,1,6.34-.48c2.81.66,3.6,3.23.14,3.14-2.77-.07-6.33,1.91-6.33,1.91s3.6.54,3,2.2C481.88,267.53,477.48,266.11,472.1,268.36Z" />
            <path class="cls-6" d="M176.1,259a2,2,0,0,1-.2-1.59l5.46-22.14-7.74-1.91c-1.24-.31-1.72-1-1.45-2.13a1.61,1.61,0,0,1,.79-1.11,2,2,0,0,1,1.48-.09L194,234.79a2.14,2.14,0,0,1,1.27.76,1.64,1.64,0,0,1,.18,1.36c-.28,1.11-1,1.51-2.27,1.21l-7.74-1.91-5.47,22.14a2.07,2.07,0,0,1-.89,1.32,2.29,2.29,0,0,1-2.93-.72Z" />
            <path class="cls-6" d="M266.43,258.42a2,2,0,0,1-.18-1.54L272,233.46a1.87,1.87,0,0,1,2.45-1.45l14.25,3.52a2,2,0,0,1,1.26.76,1.52,1.52,0,0,1,.19,1.32,1.49,1.49,0,0,1-.77,1.06,2.14,2.14,0,0,1-1.48.07l-12.31-3-2.12,8.59L285,247.14a2.14,2.14,0,0,1,1.27.76,1.6,1.6,0,0,1,.19,1.32,1.56,1.56,0,0,1-.78,1.08,2,2,0,0,1-1.48.09l-11.54-2.84-2.22,9,12.31,3c1.24.31,1.72,1,1.46,2a1.54,1.54,0,0,1-.78,1.08,2.08,2.08,0,0,1-1.48.08l-14.24-3.51A2,2,0,0,1,266.43,258.42Z" />
            <path class="cls-6" d="M459,266.51a1.62,1.62,0,0,1,0,1.44,2.13,2.13,0,0,1-1,1.09,1.8,1.8,0,0,1-1,.16,1.84,1.84,0,0,1-1-.47l-5.08-4.29L437.5,271l.27,6.65a1.8,1.8,0,0,1-.28,1.1,1.83,1.83,0,0,1-.77.72,2.19,2.19,0,0,1-1.53.16,1.61,1.61,0,0,1-1.13-.89,2.08,2.08,0,0,1-.18-.82l-.73-27.52a2.13,2.13,0,0,1,.37-1.31,2.57,2.57,0,0,1,2.37-1.16,2.14,2.14,0,0,1,1.27.51l21.29,17.46A2.05,2.05,0,0,1,459,266.51Zm-21.6.81,10.68-5.23-11.26-9.44Z" />
            <path class="cls-6" d="M556.31,210.91a2.29,2.29,0,0,1,1.32,1.24l12.23,25a2.3,2.3,0,0,1,.21,1.71,2.07,2.07,0,0,1-1.15,1.22,1.94,1.94,0,0,1-1.6.13,2.29,2.29,0,0,1-1.2-1.23l-9.26-18.91-.55,19.07a2.35,2.35,0,0,1-4,2L537,230l9.18,18.75a2.25,2.25,0,0,1,.23,1.7,2,2,0,0,1-1.12,1.21,2,2,0,0,1-1.63.12,2.26,2.26,0,0,1-1.22-1.2l-12.23-25a2.42,2.42,0,0,1-.18-1.81,2.18,2.18,0,0,1,1.18-1.3,2.57,2.57,0,0,1,2.75.46l18.82,13.83.54-23.31a2.56,2.56,0,0,1,1.28-2.44A2.16,2.16,0,0,1,556.31,210.91Z" />
        </g>
    </g>
</svg>