<?xml version="1.0" encoding="UTF-8"?>
<svg xmlns="http://www.w3.org/2000/svg" viewBox="0 0 746.04 906.81">
   <defs>
      <style>.cls-1{fill:#0fa8ba;}.cls-2{fill:#fff;}.cls-3{fill:#ecbc4f;}.cls-4{fill:#b9c1c7;}.cls-5{fill:#455a64;}.cls-6{fill:#e8505b;}.cls-7{fill:#edbc4f;}.cls-8{fill:#e8792e;}.cls-9{fill:#dce0e3;}.cls-10{fill:#ffaeab;}.cls-11{fill:#e5b34e;}.cls-12{fill:#ff7133;}.cls-13{fill:#d9dee2;}.cls-14{fill:#0a353a;}.cls-15{fill:#e06612;}.cls-16{fill:#364056;}.cls-17,.cls-18,.cls-20{fill:none;}.cls-17{stroke:#ce6620;}.cls-17,.cls-18,.cls-20,.cls-21{stroke-miterlimit:10;}.cls-18{stroke:#364056;}.cls-19{fill:#ce6620;}.cls-20{stroke:#ecbc4f;}.cls-21{fill:#efb41e;stroke:#fff;stroke-width:4px;}</style>
   </defs>
   <title>technology_1</title>
   <g id="Layer_2" data-name="Layer 2">
      <g id="Layer_1-2" data-name="Layer 1">
         <path class="cls-1" d="M522.35,651.67S543.07,538.3,638.7,531,746,535.2,746,535.2,702.29,742.46,522.35,651.67Z" />
         <path class="cls-2" d="M651.45,580.57c11.26-15.68,3.81-42.74,3.44-44l-2.27.64c.09.34,9.3,33.69-7.51,46.61h0c-9.35,4.77-18.87,9.69-28,14.46l-.11,0h0l-1.69.88c9-10.89,9.65-22.91,8.38-31.65A56.19,56.19,0,0,0,617,548.12l-2,1.23c.19.32,18.63,31.37-6.35,53.32-13.89,7.26-26.54,14-36,19,16.59-23.24,8-50.16,7.86-50.45l-2.24.75c.1.29,9.43,29.41-10.86,52.48l-2.59,1.39a21.59,21.59,0,0,0-2.46,1.3l-6.5,3.48,1.11,2.09,8.35-4.47c9.43-4.33,39.82-9.2,71.8,26.44l1.76-1.58c-23.93-26.67-48.45-31.89-64-29.94,5.92-3.15,13-6.91,20.84-11,4.18,0,55.32.12,76.58,19.87l1.61-1.73c-19.08-17.73-59.8-20.16-73.76-20.47l9.64-5.06,0,0,.17-.15,7.94-4.15c1.84-.72,46-18.47,82.59-3.56l.9-2.19c-25.3-10.32-54.13-5.37-70.73-.87,33-17,67.31-34.23,80.35-38.88l-.8-2.23C700,556.38,676.84,567.67,651.45,580.57Z" />
         <path class="cls-3" d="M492.58,572.43s-8.2-114.95,82.61-145.83,105-22.71,105-22.71S689.47,615.51,492.58,572.43Z" />
         <path class="cls-2" d="M599.88,471.4c7-18-7-42.34-7.63-43.49l-2,1.19c.18.3,17.4,30.3,4.34,47h0c-7.86,6.95-15.85,14.08-23.54,21l-.1.08h0l-1.43,1.27c6-12.78,3.65-24.59.23-32.74a56.33,56.33,0,0,0-11.28-17.15l-1.65,1.69c.26.26,25.86,25.73,7.14,53.21-11.64,10.5-22.22,20.13-30.1,27.33,10.28-26.64-4.79-50.56-5-50.81l-2,1.28c.16.26,16.46,26.13,2.56,53.53l-2.17,2a20,20,0,0,0-2,1.88c-3.33,3.05-5.29,4.86-5.43,5l1.6,1.74c.16-.15,2.71-2.5,7-6.41,8-6.54,36.26-18.83,76.12,7.7l1.31-2c-29.82-19.86-54.87-18.81-69.45-13.05,4.95-4.52,10.89-9.93,17.44-15.87,4-1.06,53.61-13.67,79.11.16l1.13-2.08c-22.9-12.41-62.94-4.62-76.53-1.44l8.08-7.3,0,0a1.22,1.22,0,0,1,.12-.19c2.18-2,4.4-4,6.65-6,1.6-1.15,40-29.36,79.1-24l.32-2.34c-27.07-3.69-53.76,8.28-68.71,16.78,27.68-24.72,56.66-49.93,68.12-57.69l-1.33-2C640.91,435.86,621.26,452.58,599.88,471.4Z" />
         <path class="cls-1" d="M278.73,691.82s-147.72,34.84-207-76.7-51.62-131.7-51.62-131.7S293.29,426.81,278.73,691.82Z" />
         <path class="cls-2" d="M124.81,573.6c-24.87-5.32-53.58,18-54.93,19.07l2,2.41c.36-.3,35.73-29,60.19-15.54h0c10.69,8.76,21.65,17.65,32.25,26.19l.11.11h0c.65.53,1.3,1.06,2,1.58-17.87-5.06-32.74.44-42.62,6.59a74.16,74.16,0,0,0-19.92,18.29l2.55,1.78c.28-.39,28-39,67.67-20.48,16.1,12.93,30.84,24.65,41.86,33.38-36.8-7.76-64.72,16.87-65,17.14l2.08,2.31c.3-.27,30.51-26.91,69.05-14.6l3,2.4a27.3,27.3,0,0,0,2.87,2.27l7.63,6,1.93-2.45c-.23-.17-3.81-3-9.8-7.71-10.19-9.1-32.11-43.18-6-100.58l-2.84-1.29c-19.53,42.95-12.9,75.28-2.33,93-6.93-5.49-15.21-12.07-24.31-19.34-2.23-5-29.05-66.8-16.44-102.87l-2.94-1c-11.32,32.38,7.23,82.79,14.23,99.79l-11.19-9,0-.08-.28-.12q-4.53-3.63-9.18-7.39c-1.84-1.83-46.6-45.79-47.9-97.76l-3.11.07c.9,36,22.08,68.15,36.28,85.8-37.95-30.79-76.83-63.15-89.32-76.42l-2.27,2.14C70,527.73,95.85,549.77,124.81,573.6Z" />
         <path class="cls-3" d="M199.46,642.59c-10.17-8.52,5.95-18.92,13.75-20.94,15.19-3.9,48.07-.83,56.86,2-2.14-2.4-4.21-4.87-6.24-7.42q-5.59-7.08-11.23-14.13c-8.3,4.25-25.52,14.18-53.26,8.2-4.66-1-10.76-2.76-12.51-7.75-2.42-6.94,5.32-7.36,10.23-7.48,8.39-.22,37.19,1,50.61.83q-11.23-14.15-22.45-28.33c-17.31,5.06-38.35,11.09-55.8,3.17-11.42-5.19-1.75-14.12,5.86-16,13.62-3.43,29.5-.61,43.31,4.39q-5.24-6.7-10.41-13.44c-.62-.81-1.23-1.62-1.86-2.43-8.28,3.23-15.92,7.2-25.13,7.42s-17.29-3.85-23.95-9.75c-2.94-2.61-6.87-5.36-7.32-9.67-.64-6,5.8-3.44,9.72-2.25a245,245,0,0,0,25.52,6.18c4.71.86,9.1,1.83,13.57,3.08a33.26,33.26,0,0,0,4.41.74q-7.24-9.66-14.13-19.67c-15.24.23-33.67.38-46.09-10-8.12-6.81,1.75-11.91,8.39-11.76,10.29.23,20.9,4.66,30.16,10.51-1.93-2.93-3.85-5.89-5.74-8.85-17.08-5.22-38.33-11.41-48.36-27.5-6.38-10.23,6.36-12.27,13.6-9.77A59.08,59.08,0,0,1,160.59,474c-.79-1.38-1.57-2.77-2.33-4.15-1.86-3.32-3.56-6.68-5.16-10.07-15.08-2.45-33.41-5.47-43.86-17.91-6.83-8.12,3.8-11.41,10.31-10.11,10.32,2.07,20.23,8.56,28.42,16.16-2.13-5.31-4.06-10.67-5.9-16.08-11.86-3.85-26.18-8.62-33-19.93-4.5-7.43,4.51-8.75,9.61-6.88,7.4,2.72,14.06,8.38,19.48,14.82-1.93-5.95-3.82-11.91-5.82-17.86-4.44-3.47-8.82-7.5-12.56-11.06-4.41-4.22-8.69-9.59-8-16.14.84-8.62,7-10.24,13.63-5.32a20,20,0,0,1,6.48,8.55,17.32,17.32,0,0,1,3.93-8.49c2-2.08,3.95-2.67,5.67-2.25,2.92.66,5.18,4.19,5.88,8.07,1.24,6.87-1.43,13.91-2.81,20.55a39.17,39.17,0,0,0-.69,6.33c-.13,2.93-.12,5.89-.42,8.74,1.28,3.93,2.55,7.86,3.84,11.78h0c-.51-10.21.84-21.41,5.93-29.78,2.82-4.64,10.7-9.22,11.8-.61,1.77,13.83-7.46,27.11-14.51,37.83l-.67.11c.61,1.79,1.24,3.57,1.88,5.37a2.22,2.22,0,0,1,.09.28,227.09,227.09,0,0,0,11.49,26.86l0,0a41.49,41.49,0,0,1,1.3-10.28c1.58-6,8.7-13.52,12.68-4.47,5.12,11.62,2.43,25.14-1,37.24,6.72,11,13.79,21.85,21.17,32.43-3.89-11.51-5.94-24.59-3-35.78,1.7-6.41,9.33-14.49,13.6-4.8,6.85,15.56.65,34.3-3.9,49.27l-.39.2h0c3.53,4.92,7.15,9.77,10.81,14.56,1.81,2.35,3.62,4.7,5.44,7l0,0c-5.74-15.77-9.13-33.59-5.77-48.6,1.91-8.57,11.56-19.1,17.66-5.8,9.76,21.27,2.62,46.14-2.62,66.09h0c5.24,6.58,10.54,13.12,15.8,19.67-.36-15.55-3-47.71-3-58.15,0-4.89,1.3-16.35,9.14-13.5,4.34,1.58,7.93,10.46,8.89,14.73,2.15,9.52-1.5,44.34-6.9,67.09h0q5.57,7,11,14.15c1.33,1.76,2.7,3.49,4.08,5.19-2.55-23-4.53-68.11-.83-78.93,1.89-5.5,6.37-14,13.39-12.56,7.28,1.5,6.72,12.66,7.83,18.4,2.56,13.23-5,54.92-7.54,62.42-1.95,5.81-5.23,11.43-7.45,17l.19.2q4.89,5.53,10,10.68l.24-1.08c3.93-18.52,9.85-58.36,12.82-71,1.38-5.85,6.14-19.19,14.74-13.59,4.74,3.11,6.55,14.77,6.49,20.15-.08,11.18-12.42,47.32-24.51,73-.21.48-.44.93-.66,1.39,11.51,10.84,23.54,21.09,35.35,32.38,3.58,3.4-1.4,9.27-5,5.85-17.07-16.3-35.29-30.24-51.08-47.49C249.09,641,204.06,646.44,199.46,642.59Z" />
         <path class="cls-4" d="M494,699.78l-203.62-.93c-24.49-.11-44.25-19.69-44.15-43.74l2.16-501.33c.1-24.07,20.06-43.49,44.56-43.38l203.62.92c24.49.12,44.25,19.7,44.15,43.75L538.53,656.4C538.43,680.46,518.48,699.89,494,699.78Z" />
         <path class="cls-2" d="M496.25,128.63l-39.48-.18a9.72,9.72,0,0,0-9.63,9.8l0,7a9.71,9.71,0,0,1-9.62,9.8l-77-.35a9.72,9.72,0,0,1-9.54-9.89l0-7a9.73,9.73,0,0,0-9.55-9.89l-13.88-.06L293,127.7c-17.16-.07-31.14,13.53-31.21,30.38l-2.11,489.34c-.07,16.84,13.77,30.56,30.92,30.64l203.22.92c17.16.08,31.13-13.53,31.2-30.38l2.11-489.34C527.24,142.42,513.4,128.7,496.25,128.63Z" />
         <path class="cls-5" d="M384.55,617.22a4.26,4.26,0,1,1-4.26-4.19A4.23,4.23,0,0,1,384.55,617.22Z" />
         <path class="cls-5" d="M400.75,617.22a4.27,4.27,0,1,1-4.26-4.19A4.23,4.23,0,0,1,400.75,617.22Z" />
         <path class="cls-5" d="M417,617.22a4.27,4.27,0,1,1-4.27-4.19A4.23,4.23,0,0,1,417,617.22Z" />
         <path class="cls-4" d="M299.68,265.14s0-.36,0-1.07a14.16,14.16,0,0,1,.53-3.1,14.62,14.62,0,0,1,7.85-9.06c2.42-1.26,5.59-1.56,8.84-1.44h37l156.47.31h1.16l-.8.83-20.06,20.71.14-.34v34.3a25.06,25.06,0,0,1-.52,6.82,14.56,14.56,0,0,1-3.29,6.05,15.32,15.32,0,0,1-5.64,4,17,17,0,0,1-6.77,1.12H461.37l-50.56,0-85.61-.11-8.91,0a17.38,17.38,0,0,1-8.39-1.48,14.74,14.74,0,0,1-8.45-12.28c-.08-9.55,0-17.71,0-24.41s.07-11.85.09-15.41c0-1.73,0-3.07.05-4s.05-1.37.05-1.37,0,.46.06,1.37,0,2.27.05,4c0,3.56,0,8.75.09,15.41s0,14.9.14,24.37A14.14,14.14,0,0,0,308.18,322a16.72,16.72,0,0,0,8.11,1.39l8.91,0,85.61-.11,50.56,0h13.26a16,16,0,0,0,6.38-1.05,14.25,14.25,0,0,0,5.27-3.7,13.51,13.51,0,0,0,3.06-5.65,24.09,24.09,0,0,0,.49-6.57v-34.5l.14-.15,20.08-20.7.36.83-156.48-.65-26.3-.15-10.72-.07c-3.29-.14-6.28.11-8.69,1.33a14.29,14.29,0,0,0-5.45,4.3,14.72,14.72,0,0,0-2.38,4.49A20.31,20.31,0,0,0,299.68,265.14Z" />
         <polygon class="cls-4" points="466.58 277.43 320.3 276.76 320.31 272.35 466.59 273.01 466.58 277.43" />
         <polygon class="cls-4" points="466.58 291.95 320.3 291.29 320.31 286.87 466.59 287.54 466.58 291.95" />
         <rect class="cls-4" x="435.44" y="274.82" width="4.42" height="57.88" transform="translate(131.77 739.94) rotate(-89.72)" />
         <path class="cls-6" d="M410.8,193.3a7.76,7.76,0,0,0,4.71-7.19,7.42,7.42,0,1,0-14.83-.06,7.76,7.76,0,0,0,4.73,7.25C394,195,394.52,207.16,394.52,207.16l27,.13S422.11,195,410.8,193.3Z" />
         <path class="cls-7" d="M410.8,193.3a7.76,7.76,0,0,0,4.71-7.19,7.42,7.42,0,1,0-14.83-.06,7.76,7.76,0,0,0,4.73,7.25C394,195,394.52,207.16,394.52,207.16l27,.13S422.11,195,410.8,193.3Z" />
         <path class="cls-8" d="M396,193.3a7.74,7.74,0,0,0,4.71-7.19,7.42,7.42,0,1,0-14.82-.06,7.75,7.75,0,0,0,4.72,7.25c-11.41,1.68-10.89,13.86-10.89,13.86l27,.13S407.3,195,396,193.3Z" />
         <rect class="cls-6" x="364.68" y="212.61" width="72.52" height="3.45" transform="translate(0.98 -1.82) rotate(0.26)" />
         <rect class="cls-8" x="364.68" y="212.61" width="72.52" height="3.47" transform="translate(0.98 -1.82) rotate(0.26)" />
         <path class="cls-5" d="M303.08,463.06a5.55,5.55,0,0,1,0-1.05,7,7,0,0,1,1-2.93,7.89,7.89,0,0,1,3.84-3.28c1.94-.86,4.38-.52,7-.6h44.86l151,.31H512l-.79.83L491.4,477.12l.14-.34v1.65q0,6.18,0,12.28c0,1,0,2,0,3.07a8,8,0,0,1-.81,3.1,8.31,8.31,0,0,1-4.75,4.17,9.2,9.2,0,0,1-3.18.47H461.71l-45.59,0-77.2-.1-15.68,0-7.21,0h-3.44a16.06,16.06,0,0,1-3.38-.19,8.11,8.11,0,0,1-5.18-3.61,7.85,7.85,0,0,1-1.08-2.82,16.28,16.28,0,0,1-.12-2.85c0-3.66,0-7,.05-10,0-6,.07-10.68.09-13.89,0-1.57,0-2.77.06-3.62s.05-1.23.05-1.23,0,.42.05,1.23,0,2,.05,3.62c0,3.21.05,7.88.1,13.89,0,3,0,6.38,0,10a17,17,0,0,0,.13,2.77,7.18,7.18,0,0,0,1,2.62,7.58,7.58,0,0,0,4.85,3.35,15.79,15.79,0,0,0,3.26.15H316l7.21,0,15.68,0,77.2-.11,45.59,0h21.06a8.12,8.12,0,0,0,2.84-.42,7.31,7.31,0,0,0,4.17-3.66,7,7,0,0,0,.72-2.73c0-1,0-2,0-3V476.58l.13-.14c6.78-7.12,13.47-14.14,19.79-20.79l.37.84-151-.64-44.86-.29c-2.62.05-5-.31-6.86.49a7.69,7.69,0,0,0-3.78,3.13A7.46,7.46,0,0,0,303.2,462C303.1,462.7,303.1,463.06,303.08,463.06Z" />
         <polygon class="cls-9" points="473.14 474.71 326.86 474.04 326.87 469.63 473.15 470.29 473.14 474.71" />
         <rect class="cls-9" x="441.26" y="456.89" width="4.42" height="59.35" transform="translate(-45.22 927.69) rotate(-89.72)" />
         <path class="cls-1" d="M493.41,541.87v30.27a7.76,7.76,0,0,1-7.83,7.69H313.3a7.76,7.76,0,0,1-7.84-7.69V555.59L285.68,534.8l199.87-.62A7.76,7.76,0,0,1,493.41,541.87Z" />
         <polygon class="cls-2" points="323.35 553.52 469.63 552.85 469.62 548.44 323.34 549.1 323.35 553.52" />
         <polygon class="cls-2" points="323.35 567.73 469.63 567.06 469.62 562.65 323.34 563.31 323.35 567.73" />
         <path class="cls-4" d="M298.23,407.86V377.59a7.77,7.77,0,0,1,7.83-7.69H478.35a7.77,7.77,0,0,1,7.83,7.69v16.55L506,414.93l-199.87.63A7.77,7.77,0,0,1,298.23,407.86Z" />
         <polygon class="cls-2" points="468.29 396.22 322.01 396.88 322.03 401.3 468.31 400.63 468.29 396.22" />
         <polygon class="cls-2" points="468.29 382.01 322.01 382.67 322.02 387.08 468.31 386.42 468.29 382.01" />
         <path class="cls-10" d="M526.84,457.87l-12.65-.08L492.4,408.93s3.16-35.14-13-39.36c0,0-.71.7,0,4.57s4.21,10.19,3.16,12.3-5.27,2.11-9.14-3.16-3.16-1.76-1.05,3.86,8.43,11.6,9.14,16.52,8.43,48.15,10.89,60.45,4.57,16.17,13,16.87S523.33,482,523.33,482Z" />
         <path class="cls-10" d="M603.37,851.54c2.64,4.75,9.63,21.64,9,26.89-.92,7.25-7.77,15.42-9.49,16.34,0,0-.09.05-.09.1,0,.43,6.24,1.09,11.43.43,3.19-.41,8.67-.47,11.53-3.23l-6.26-43h0Z" />
         <path class="cls-10" d="M522.18,843.37l13.71.7s-6.94,36.69-6.59,41.61,1.58,7,1.58,7,.09,7.65-2.9,8-33.65.44-33.65.44,17.84-8.17,21.53-14.85C519.24,880.12,522.18,843.37,522.18,843.37Z" />
         <polygon class="cls-11" points="535.89 855.5 519.02 854.97 541.16 580.31 604.42 576.62 535.89 855.5" />
         <path class="cls-3" d="M541.16,580.83l69.59-4.74s17.4,35.85,1,102.8c0,0-7.9,26.89-7.38,39s8.44,12.65,13.18,29.52,4.75,107,4.75,107l-20,1.58Z" />
         <path class="cls-12" d="M610.75,576.09l-69.59,4.74s6.85-81.18-1-85.93-17.93-4.22-17.93-4.22l4.22-33.21,43.84-5.27s5.19,10.54,18.9,3.16,40.59,11.6,41.12,37.43,0,21.09,0,21.09l-31.46-.7Z" />
         <path class="cls-13" d="M491.34,479.08l41.15,2.09a8.81,8.81,0,0,1,8.35,9l-1.39,71.13a8.8,8.8,0,0,1-12.11,8l-39-15.87a8.81,8.81,0,0,1-5.49-8L482.1,488A8.79,8.79,0,0,1,491.34,479.08Z" />
         <path class="cls-10" d="M598.93,513.18l-3.64,35L546.08,564s-6.68.71-9.49-1.75-5.62-5.28-7-4.92-1.4,6-1,7-10.19,0-10.19,0-10.9-6.32-12-5.27,15.81,20.39,15.81,20.39l71.35-7.73s17.92,0,22.14-7.39,9.67-50.61,9.67-50.61Z" />
         <path class="cls-10" d="M585.09,392.45s-16.16,3.17-20.38,7.38-6.68,4.22-9.14,4.57,2.46,3.87,2.46,3.87,0,7.38-2.46,9.84-2.11,5.62,5.27,9.49,9.14,3.86,9.84,10.89a77,77,0,0,1-.35,15.12s3.15,6.19,12.83,5.44c9.05-.7,10.63-4.92,10.63-4.92s8.52-10.37,8.17-20.56S604.07,396.67,585.09,392.45Z" />
         <path class="cls-14" d="M613.91,393.16s-2.81-12.31-18.62-13.71-24.25,5.27-23.9,14.06S572.44,410,586.15,410s1.76,9.14-2.46,11.6-13,16.52-2.46,24.25,16.87,12.66,30.93,7.38,19.68-3.16,18.62-14.76-.35-15.11,3.52-17.92S643.79,393.86,613.91,393.16Z" />
         <path class="cls-15" d="M531.14,890.56c-17.39,7.51-20,3.1-30.51,5.14-7.51,1.44-10.11,4-10.8,4.67-1.59,1.45-2.79,5.74-2.27,5.74l43.23-.35a20.79,20.79,0,0,0,1.54-6.37A21.14,21.14,0,0,0,531.14,890.56Z" />
         <path class="cls-15" d="M626.32,891.33c-17.39,6.63-19.18,1.31-29.74,4.17-7.38,2-10.11,4.94-10.81,5.58-1.58,1.45-2.79,5.73-2.26,5.73l43.23-.35a21.31,21.31,0,0,0,1.54-6.37C628.59,896.19,627,893.14,626.32,891.33Z" />
         <rect class="cls-1" x="148.97" y="155.23" width="142.34" height="105.93" rx="28.87" />
         <rect class="cls-1" x="471.72" y="60.88" width="142.34" height="105.93" rx="29.51" />
         <rect class="cls-3" x="519.72" y="252.88" width="142.34" height="105.93" rx="28.59" />
         <path class="cls-16" d="M206.8,419h13.9a2.75,2.75,0,0,1,2.41,4.07l-11.58,21.23a2.76,2.76,0,0,1-2.35,1.44l-13.34.32a2.76,2.76,0,0,1-2.52-4l11-21.55A2.76,2.76,0,0,1,206.8,419Z" />
         <path class="cls-8" d="M175.93,488.46l12.21,1s-7.51-19,1.67-29.07l-8.51-34.75Z" />
         <path class="cls-10" d="M121.18,358.21s11.52,29.16,27.45,23,6.37-38.47,2.45-40.92-9.56,4.41-15,8.08-5.15,2.45-8.58,2.21S117.75,347.68,121.18,358.21Z" />
         <path d="M125,346s16.82,13,31.51-2.84,1.66-20.14-13.27-17.54-14.45,2.37-21.8,1.9S102.24,341.47,125,346Z" />
         <path d="M129.49,343.36s11.69,7.67.47,8.3c-3.78.21-9.48-2.37-8.53,4.74s8.53,11.37,6.16,14.69-24.17-1.66-24.17-20.85S129.49,343.36,129.49,343.36Z" />
         <path class="cls-10" d="M127.83,369.9l-4,23.22s1,11.38,9.48,11.62S143,388.86,143,388.86l1-6.93S137.07,381.51,127.83,369.9Z" />
         <path class="cls-8" d="M124.16,390.64s-31.43,1-42.38,12.52c-12.32,12.95-38.46,48.65-9.32,81.59l-7.82,45s66.82,5.45,103.55-7.35c0,0,24.17-89.33,9.48-107.81A77.61,77.61,0,0,0,143,390.16s-.4,10-8.69,10S124.16,390.64,124.16,390.64Z" />
         <path class="cls-16" d="M64.62,529.73,26.65,791l25.12,2.37,61.61-197S128.54,796.19,130,795.71s25.12-1,25.12-1l13.11-272.34S121.43,534.11,64.62,529.73Z" />
         <path class="cls-10" d="M102.29,465.82s-14,8-12.36,19,19.23,6.87,21.29,5.72,69.82-36.62,73-37.08,22.66.68,23.35-3a11,11,0,0,0-.91-6.64s-10.31-1.37-12.14-1.37,2.52-5.72,3.67-7.1-.46-3.43-3.21-2.06-11.9,10.53-11.9,10.53Z" />
         <path class="cls-10" d="M188.75,460.58s-7.63,7.86-1.67,29.06c0,0,71.24-58.61,75-59.32s22.16-4.77,23.11-7.15-3.81-3.57-3.81-4.53,2.38-6.43,12.86-7.86c6.59-.9,2-3.82-5.48-4.29C273.56,405.54,188.75,460.58,188.75,460.58Z" />
         <path class="cls-1" d="M28.37,794.76l19.57,1.09.73,18.86-25,5.27L.09,819.42s-1.46-6.17,7.61-10.52A80.58,80.58,0,0,0,28.37,794.76Z" />
         <path class="cls-16" d="M.09,819.42V823a225.1,225.1,0,0,0,23.7.39c11-.55,25-5.26,25-5.26l-.11-3.95S28.82,819.15,23,819.64C19,820,.09,819.42.09,819.42Z" />
         <path class="cls-2" d="M13.3,807.21a11.14,11.14,0,0,1,4.38-.08,8.69,8.69,0,0,1,3.62,1.7c.5.4,1.22-.31.71-.71a10.09,10.09,0,0,0-4.06-2,12.49,12.49,0,0,0-4.91.09c-.64.12-.37,1.08.26,1Z" />
         <path class="cls-2" d="M18.13,804.34c2.33-.18,5.06-.29,6.82,1.54.45.47,1.15-.24.71-.7-2-2-4.92-2-7.53-1.84-.64,0-.64,1,0,1Z" />
         <path class="cls-2" d="M23,800.92c1.88,0,4.07,0,5.6,1.27a.49.49,0,1,0,.7-.7c-1.76-1.48-4.11-1.57-6.3-1.57a.5.5,0,0,0,0,1Z" />
         <path class="cls-2" d="M6.8,810.53c3.75-.15,7.79-.27,11.1,1.79.55.34,1.05-.52.5-.86-3.46-2.16-7.67-2.08-11.6-1.93-.64,0-.64,1,0,1Z" />
         <polygon class="cls-16" points="47.97 795.85 28.32 794.74 28.6 792.39 48.14 793.5 47.97 795.85" />
         <path class="cls-1" d="M152.27,798.63l-19.58,1.08L132,818.57l25,5.27,23.57-.56s1.45-6.16-7.61-10.51A80.65,80.65,0,0,1,152.27,798.63Z" />
         <path class="cls-16" d="M180.55,823.28v3.63a226.67,226.67,0,0,1-23.71.38c-11-.55-25-5.26-25-5.26l.11-3.95s19.85,4.93,25.63,5.42C161.67,823.84,180.55,823.28,180.55,823.28Z" />
         <path class="cls-2" d="M167.6,810.11a12.3,12.3,0,0,0-4.91-.08,9.84,9.84,0,0,0-4.06,2c-.51.4.2,1.1.7.7A8.92,8.92,0,0,1,163,811a11,11,0,0,1,4.38.09c.62.11.89-.85.26-1Z" />
         <path class="cls-2" d="M162.51,807.21C159.9,807,156.93,807,155,809c-.44.46.26,1.17.71.71,1.76-1.84,4.49-1.72,6.82-1.54.64,0,.64-1,0-1Z" />
         <path class="cls-2" d="M157.68,803.78c-2.19,0-4.54.09-6.31,1.57a.5.5,0,1,0,.71.7c1.53-1.27,3.72-1.27,5.6-1.27a.5.5,0,0,0,0-1Z" />
         <path class="cls-2" d="M173.84,813.39c-3.93-.15-8.15-.23-11.61,1.93-.54.34,0,1.2.51.86,3.3-2.06,7.35-1.93,11.1-1.79.64,0,.64-1,0-1Z" />
         <polygon class="cls-16" points="132.66 799.72 152.32 798.6 152.03 796.25 132.5 797.36 132.66 799.72" />
         <path class="cls-17" d="M101.91,465.36a47,47,0,0,1-7.17-4.64,15.87,15.87,0,0,1-5-6.81c-1-3.05-.78-6.35-.51-9.56" />
         <path class="cls-18" d="M65.69,523.91c16.45.73,59.51-2.33,69.83-3s24-2.89,34.15-4.67" />
         <path class="cls-19" d="M97.76,469.12a24.4,24.4,0,0,0-5.55,6.14,12.74,12.74,0,0,0-2.14,7.05c-.07,2.14,0,4.42,1.26,6.14,2.16,2.94,6.22,4,9.74,3.83-2.53.26-5.84,1-8.35.6a9.76,9.76,0,0,1-6.48-3.61A10.08,10.08,0,0,1,84.6,485a16.62,16.62,0,0,1,4-13.64c1.76-1.94,9.92-7.17,12.53-4.82C99.93,467.36,98.7,468.35,97.76,469.12Z" />
         <path class="cls-18" d="M116.25,391.29a10.86,10.86,0,0,0,1,5.18,22.05,22.05,0,0,0,9.68,11.2,15.77,15.77,0,0,0,14.51.36,10.79,10.79,0,0,0,5.28-5.92,18.16,18.16,0,0,0,.58-2.73l1-6.71" />
         <path class="cls-18" d="M108.09,392.33a22.31,22.31,0,0,0,3.71,11.13,30.37,30.37,0,0,0,8.36,8.32,26.22,26.22,0,0,0,6,3.16c4.21,1.49,8.78,1.56,13.24,1.47a12.32,12.32,0,0,0,4.41-.64,12.88,12.88,0,0,0,4.56-3.76,13.42,13.42,0,0,0,3.11-4.67,17.85,17.85,0,0,0,.5-4.07,27.26,27.26,0,0,1,1.78-7.87" />
         <path class="cls-2" d="M186.6,226.15a3.73,3.73,0,0,1,.94-2.75,4.61,4.61,0,0,1,3-1.09l2.41-.15a6.28,6.28,0,0,0,4.67-2c1.06-1.2,1.58-3,1.58-5.49V181.05a4.54,4.54,0,0,1,4.82-4.82,4.83,4.83,0,0,1,3.58,1.32,4.72,4.72,0,0,1,1.32,3.5v33.66q0,14.22-14.08,15.28l-2.41.15Q186.6,230.37,186.6,226.15Z" />
         <path class="cls-2" d="M219.58,227.06a4.49,4.49,0,0,1-2.41-4.07,3.55,3.55,0,0,1,.83-2.45,2.62,2.62,0,0,1,2-.94,8.28,8.28,0,0,1,3.54,1.21,33.29,33.29,0,0,0,4.4,1.73,18.05,18.05,0,0,0,5.09.6,9.69,9.69,0,0,0,4.93-1,3.28,3.28,0,0,0,1.77-2.94,2.81,2.81,0,0,0-.72-2,6.52,6.52,0,0,0-2.56-1.4,55.48,55.48,0,0,0-5.61-1.46q-6.7-1.37-9.6-3.85a8.54,8.54,0,0,1-2.9-6.85,9.9,9.9,0,0,1,2-6,12.64,12.64,0,0,1,5.39-4.14,19.57,19.57,0,0,1,7.79-1.47,23.25,23.25,0,0,1,6.1.79,18.46,18.46,0,0,1,5.27,2.29,4.57,4.57,0,0,1,2.41,4,3.88,3.88,0,0,1-.83,2.52,2.54,2.54,0,0,1-2,1,4,4,0,0,1-1.62-.34,19.77,19.77,0,0,1-2-1,32.67,32.67,0,0,0-3.76-1.7,12,12,0,0,0-3.92-.56,7.58,7.58,0,0,0-4.4,1.13,3.56,3.56,0,0,0-1.62,3.09,3.14,3.14,0,0,0,1.65,2.86,24.16,24.16,0,0,0,6.41,2,36.66,36.66,0,0,1,7.9,2.4,9.35,9.35,0,0,1,4.11,3.39,9.93,9.93,0,0,1,1.24,5.2,9.66,9.66,0,0,1-4.26,8.21q-4.24,3.09-11.33,3.08Q224.63,230.29,219.58,227.06Z" />
         <path class="cls-2" d="M545.5,318.89a12.79,12.79,0,0,1-4.42-2.2,2.42,2.42,0,0,1-.42-3.35,1.46,1.46,0,0,1,1.17-.61,3.22,3.22,0,0,1,1.63.55,11.71,11.71,0,0,0,3.57,1.78,14.35,14.35,0,0,0,4.12.56,8.15,8.15,0,0,0,4.44-1,3.33,3.33,0,0,0,1.55-3,2.54,2.54,0,0,0-1.45-2.31,18.77,18.77,0,0,0-4.82-1.57A28.73,28.73,0,0,1,545.2,306a8.12,8.12,0,0,1-3.29-2.54,6.57,6.57,0,0,1-1.11-3.93,7.38,7.38,0,0,1,1.39-4.4,9.19,9.19,0,0,1,3.87-3,13.6,13.6,0,0,1,5.57-1.09,13.87,13.87,0,0,1,9.23,3,3,3,0,0,1,.74.86,2.28,2.28,0,0,1,.21,1,2.22,2.22,0,0,1-.49,1.44,1.47,1.47,0,0,1-1.17.62,2.11,2.11,0,0,1-.73-.12,6,6,0,0,1-.9-.44,13.23,13.23,0,0,0-3.15-1.76,10.72,10.72,0,0,0-3.74-.58,7.43,7.43,0,0,0-4.27,1.09,3.5,3.5,0,0,0-1.56,3,2.77,2.77,0,0,0,1.39,2.49,15.8,15.8,0,0,0,4.71,1.63,32.14,32.14,0,0,1,5.73,1.76,8.54,8.54,0,0,1,3.37,2.48,6,6,0,0,1,1.17,3.77,7.15,7.15,0,0,1-1.37,4.34,8.93,8.93,0,0,1-3.84,2.93,14.47,14.47,0,0,1-5.69,1.05A20.07,20.07,0,0,1,545.5,318.89Z" />
         <path class="cls-2" d="M593.15,300a2.07,2.07,0,0,1,1.17-.36,2.51,2.51,0,0,1,1.65.62,1.94,1.94,0,0,1,.73,1.52,2.08,2.08,0,0,1-.2.92L590,318a2.39,2.39,0,0,1-1,1.15,2.79,2.79,0,0,1-1.45.39,2.73,2.73,0,0,1-1.41-.39,2.44,2.44,0,0,1-1-1.15l-4.71-11.34L575.89,318a2.44,2.44,0,0,1-1,1.15,2.79,2.79,0,0,1-1.45.39,2.82,2.82,0,0,1-1.43-.39,2.37,2.37,0,0,1-1-1.15l-6.5-15.34a2.64,2.64,0,0,1-.2-.88,2,2,0,0,1,.79-1.56,2.67,2.67,0,0,1,1.75-.66A2.14,2.14,0,0,1,569,301l4.68,12.09,4.79-12a2.38,2.38,0,0,1,4.44,0l4.84,12L592.34,301A2.13,2.13,0,0,1,593.15,300Z" />
         <path class="cls-2" d="M600.38,295.3a2.52,2.52,0,0,1-.79-1.92,2.45,2.45,0,0,1,.79-1.9,3.53,3.53,0,0,1,4.27,0,2.4,2.4,0,0,1,.81,1.9,2.49,2.49,0,0,1-.79,1.92,3.48,3.48,0,0,1-4.29,0Zm.38,23.67a2.25,2.25,0,0,1-.69-1.77V301.9a2.17,2.17,0,0,1,.69-1.74,2.6,2.6,0,0,1,1.77-.6,2.68,2.68,0,0,1,1.78.6,2.12,2.12,0,0,1,.71,1.74v15.3a2.19,2.19,0,0,1-.71,1.77,2.64,2.64,0,0,1-1.78.61A2.56,2.56,0,0,1,600.76,319Z" />
         <path class="cls-2" d="M617.27,296.19a4.39,4.39,0,0,0-.83,2.86V300h3.37q2.22,0,2.22,1.86c0,1.25-.74,1.87-2.22,1.87h-3.37V317.2a2.19,2.19,0,0,1-.69,1.75,2.61,2.61,0,0,1-1.77.59,2.67,2.67,0,0,1-1.78-.59,2.14,2.14,0,0,1-.71-1.75V303.69h-2c-1.48,0-2.22-.62-2.22-1.87S608,300,609.5,300h2v-.28a8.25,8.25,0,0,1,2-5.84,8,8,0,0,1,5.53-2.4l1-.08a3.63,3.63,0,0,1,2.24.33,1.63,1.63,0,0,1,.65,1.41c0,1.14-.65,1.77-1.94,1.9l-1,.08A3.62,3.62,0,0,0,617.27,296.19Z" />
         <path class="cls-2" d="M635.31,317.68a1.63,1.63,0,0,1-.77,1.45,3.65,3.65,0,0,1-2.2.41l-1.07-.08q-6.66-.46-6.66-7.13v-8.64h-2a2.5,2.5,0,0,1-1.65-.48,1.71,1.71,0,0,1-.57-1.39,1.69,1.69,0,0,1,.57-1.38,2.5,2.5,0,0,1,1.65-.48h2v-3.65a2.21,2.21,0,0,1,.67-1.7,2.57,2.57,0,0,1,1.82-.64,2.53,2.53,0,0,1,1.79.64,2.21,2.21,0,0,1,.67,1.7V300h3.37a2.52,2.52,0,0,1,1.65.48,1.69,1.69,0,0,1,.57,1.38,1.71,1.71,0,0,1-.57,1.39,2.52,2.52,0,0,1-1.65.48h-3.37v9c0,1.95.9,3,2.7,3.13l1.07.08C634.65,316,635.31,316.57,635.31,317.68Z" />
         <path class="cls-2" d="M523.91,105.4a1.48,1.48,0,0,1-.58,1.19,2.17,2.17,0,0,1-2.32.24,2.09,2.09,0,0,1-.77-.71l-4.18-6.34a4,4,0,0,0-1.33-1.41A3.65,3.65,0,0,0,512.9,98h-3.08v7a2.07,2.07,0,0,1-.53,1.49,2.19,2.19,0,0,1-2.9,0,2,2,0,0,1-.55-1.49V86.64a1.91,1.91,0,0,1,.51-1.42,2,2,0,0,1,1.43-.5h7.85a8.58,8.58,0,0,1,5.72,1.68,6,6,0,0,1,2,4.85,6.11,6.11,0,0,1-1.46,4.22,6.9,6.9,0,0,1-4.12,2.12,3.86,3.86,0,0,1,1.6.78,7,7,0,0,1,1.35,1.57l2.85,4.36A2,2,0,0,1,523.91,105.4ZM518.42,94a3.2,3.2,0,0,0,1.06-2.65,3.16,3.16,0,0,0-1.06-2.65,5.49,5.49,0,0,0-3.36-.83h-5.27v7h5.27A5.28,5.28,0,0,0,518.42,94Z" />
         <path class="cls-2" d="M540.3,103.05a1.67,1.67,0,0,1,.33,1.09,1.89,1.89,0,0,1-1.16,1.63,10.36,10.36,0,0,1-2.42,1,9.94,9.94,0,0,1-2.57.36,8,8,0,0,1-5.87-2.13,7.83,7.83,0,0,1-2.16-5.84,8.9,8.9,0,0,1,.94-4.17A6.87,6.87,0,0,1,530,92.13a7.51,7.51,0,0,1,3.88-1,7,7,0,0,1,3.6.91,6.21,6.21,0,0,1,2.39,2.58,8.55,8.55,0,0,1,.85,3.92q0,1.35-1.2,1.35h-9.25a4.9,4.9,0,0,0,1.22,3.18,4.12,4.12,0,0,0,3,1,5.71,5.71,0,0,0,1.78-.25q.76-.26,1.74-.69a3.3,3.3,0,0,1,1.38-.5A1,1,0,0,1,540.3,103.05Zm-8.85-8.16a4.69,4.69,0,0,0-1.14,2.88h7.09a4.5,4.5,0,0,0-.94-2.9,3.11,3.11,0,0,0-2.45-1A3.37,3.37,0,0,0,531.45,94.89Z" />
         <path class="cls-2" d="M555.36,92.71a6.59,6.59,0,0,1,1.55,4.81v7.66a1.74,1.74,0,0,1-.5,1.33A1.86,1.86,0,0,1,555,107a1.84,1.84,0,0,1-1.33-.5,1.76,1.76,0,0,1-.52-1.32v-.69a4.16,4.16,0,0,1-1.68,1.91,5,5,0,0,1-2.65.69,6.09,6.09,0,0,1-2.79-.63,4.89,4.89,0,0,1-2-1.72,4.37,4.37,0,0,1-.72-2.45,3.87,3.87,0,0,1,.86-2.66A5.24,5.24,0,0,1,547,98.21a25.79,25.79,0,0,1,5.36-.44h.79v-.72a3.21,3.21,0,0,0-.66-2.24,2.8,2.8,0,0,0-2.13-.71,6.63,6.63,0,0,0-1.85.27c-.63.18-1.37.43-2.23.77a3.22,3.22,0,0,1-1.19.41,1.19,1.19,0,0,1-.93-.41,1.56,1.56,0,0,1-.36-1.07,1.58,1.58,0,0,1,.27-.92,2.45,2.45,0,0,1,.89-.74,10.16,10.16,0,0,1,2.62-.94,13.56,13.56,0,0,1,3-.35A6.38,6.38,0,0,1,555.36,92.71Zm-3.17,10.51a3.81,3.81,0,0,0,1-2.72v-.66h-.57a22.38,22.38,0,0,0-3.26.19,3.22,3.22,0,0,0-1.66.66,1.67,1.67,0,0,0-.5,1.29,2.13,2.13,0,0,0,.7,1.65,2.52,2.52,0,0,0,1.74.64A3.35,3.35,0,0,0,552.19,103.22Z" />
         <path class="cls-2" d="M563.67,106.12a6.66,6.66,0,0,1-2.68-2.76A9.6,9.6,0,0,1,561,95a7,7,0,0,1,2.77-2.84,8.3,8.3,0,0,1,4.12-1,9.19,9.19,0,0,1,2.46.35,8.16,8.16,0,0,1,2.18.94,1.93,1.93,0,0,1,1,1.66,1.8,1.8,0,0,1-.33,1.12,1,1,0,0,1-.86.42,1.78,1.78,0,0,1-.72-.16,6.5,6.5,0,0,1-.75-.37,8.43,8.43,0,0,0-1.32-.65,4.28,4.28,0,0,0-1.45-.23,3.66,3.66,0,0,0-3,1.27,6.83,6.83,0,0,0,0,7.28,3.68,3.68,0,0,0,3,1.27,3.8,3.8,0,0,0,1.4-.24,11.44,11.44,0,0,0,1.37-.64,5.3,5.3,0,0,1,.81-.42,1.72,1.72,0,0,1,.69-.15,1,1,0,0,1,.85.44,1.74,1.74,0,0,1,.34,1.1,1.83,1.83,0,0,1-.23.93,2.21,2.21,0,0,1-.77.7,8.18,8.18,0,0,1-2.26,1,9.76,9.76,0,0,1-2.63.36A8.13,8.13,0,0,1,563.67,106.12Z" />
         <path class="cls-2" d="M585.84,105.52a1.29,1.29,0,0,1-.61,1.15,3,3,0,0,1-1.74.33l-.85-.06q-5.26-.39-5.27-5.65V94.45H575.8a2,2,0,0,1-1.3-.38,1.53,1.53,0,0,1,0-2.19,2,2,0,0,1,1.3-.38h1.57V88.61a1.8,1.8,0,0,1,.53-1.35,2.05,2.05,0,0,1,1.44-.5,2,2,0,0,1,1.42.5,1.8,1.8,0,0,1,.53,1.35V91.5H584a2,2,0,0,1,1.3.38,1.56,1.56,0,0,1,0,2.19,2,2,0,0,1-1.3.38h-2.67v7.12c0,1.55.71,2.37,2.13,2.48l.85.06C585.32,104.17,585.84,104.65,585.84,105.52Z" />
         <path class="cls-2" d="M523.54,120.47a1.93,1.93,0,0,1,.47,1.35v16.94a1.89,1.89,0,0,1-.49,1.36,1.66,1.66,0,0,1-1.27.52,1.63,1.63,0,0,1-1.41-.66L510.3,126.26v12.5a2,2,0,0,1-.46,1.36,1.62,1.62,0,0,1-1.27.52,1.59,1.59,0,0,1-1.27-.52,2,2,0,0,1-.47-1.36V121.82a1.9,1.9,0,0,1,.49-1.35,1.77,1.77,0,0,1,1.3-.5,1.63,1.63,0,0,1,1.39.66l10.51,13.66V121.82a1.89,1.89,0,0,1,.48-1.35,1.64,1.64,0,0,1,1.25-.5A1.72,1.72,0,0,1,523.54,120.47Z" />
         <path class="cls-2" d="M538.58,127.46a6.11,6.11,0,0,1,1.43,4.43v7.05a1.64,1.64,0,0,1-.46,1.22,1.77,1.77,0,0,1-1.28.45,1.67,1.67,0,0,1-1.22-.46,1.6,1.6,0,0,1-.48-1.21v-.64a3.77,3.77,0,0,1-1.54,1.76,4.61,4.61,0,0,1-2.44.64,5.71,5.71,0,0,1-2.57-.58,4.55,4.55,0,0,1-1.82-1.59,4,4,0,0,1-.67-2.25,3.54,3.54,0,0,1,.8-2.45,4.75,4.75,0,0,1,2.58-1.3,23.49,23.49,0,0,1,4.94-.41h.72v-.66a3,3,0,0,0-.6-2.07,2.61,2.61,0,0,0-2-.65,6.36,6.36,0,0,0-1.7.25,21.34,21.34,0,0,0-2,.71,2.87,2.87,0,0,1-1.1.37,1.07,1.07,0,0,1-.85-.37,1.43,1.43,0,0,1-.33-1,1.54,1.54,0,0,1,.24-.86,2.35,2.35,0,0,1,.83-.67,9.05,9.05,0,0,1,2.41-.87,12.49,12.49,0,0,1,2.75-.32A5.89,5.89,0,0,1,538.58,127.46Zm-2.92,9.67a3.48,3.48,0,0,0,.91-2.5V134h-.52a20.7,20.7,0,0,0-3,.17,3,3,0,0,0-1.53.61,1.53,1.53,0,0,0-.46,1.18,2,2,0,0,0,.65,1.52,2.29,2.29,0,0,0,1.6.59A3.07,3.07,0,0,0,535.66,137.13Z" />
         <path class="cls-2" d="M552.45,139.25a1.18,1.18,0,0,1-.56,1.06,2.7,2.7,0,0,1-1.61.3l-.77-.06q-4.86-.35-4.86-5.19v-6.3h-1.44a1.84,1.84,0,0,1-1.2-.34,1.44,1.44,0,0,1,0-2,1.84,1.84,0,0,1,1.2-.34h1.44v-2.66a1.65,1.65,0,0,1,.49-1.24,1.87,1.87,0,0,1,1.33-.46,1.81,1.81,0,0,1,1.3.46,1.61,1.61,0,0,1,.49,1.24v2.66h2.46a1.84,1.84,0,0,1,1.2.34,1.46,1.46,0,0,1,0,2,1.84,1.84,0,0,1-1.2.34h-2.46v6.56a2,2,0,0,0,2,2.28l.78,0C552,138,552.45,138.45,552.45,139.25Z" />
         <path class="cls-2" d="M554.56,123a1.82,1.82,0,0,1-.58-1.4,1.77,1.77,0,0,1,.58-1.39,2.57,2.57,0,0,1,3.1,0,1.78,1.78,0,0,1,.59,1.39,1.85,1.85,0,0,1-.57,1.4,2.25,2.25,0,0,1-1.56.53A2.22,2.22,0,0,1,554.56,123Zm.27,17.23a1.6,1.6,0,0,1-.5-1.28V127.76a1.58,1.58,0,0,1,.5-1.27,1.92,1.92,0,0,1,1.29-.43,2,2,0,0,1,1.3.43,1.59,1.59,0,0,1,.51,1.27v11.15a1.61,1.61,0,0,1-.51,1.28,1.92,1.92,0,0,1-1.3.45A1.88,1.88,0,0,1,554.83,140.19Z" />
         <path class="cls-2" d="M572.13,126.32a1.5,1.5,0,0,1,.85-.26,1.83,1.83,0,0,1,1.2.45,1.41,1.41,0,0,1,.53,1.11,1.59,1.59,0,0,1-.17.69l-5.35,11.17a1.83,1.83,0,0,1-.73.84,2,2,0,0,1-1.06.29,2.13,2.13,0,0,1-1-.29,1.78,1.78,0,0,1-.76-.84l-5.37-11.17a1.4,1.4,0,0,1-.15-.66,1.43,1.43,0,0,1,.56-1.13,2,2,0,0,1,1.29-.46,1.62,1.62,0,0,1,1.53,1l4,8.92,4-8.89A1.79,1.79,0,0,1,572.13,126.32Z" />
         <path class="cls-2" d="M588.58,137a1.58,1.58,0,0,1,.3,1,1.73,1.73,0,0,1-1.06,1.5,10,10,0,0,1-2.23.89,9.18,9.18,0,0,1-2.36.33,7.33,7.33,0,0,1-5.4-2,7.17,7.17,0,0,1-2-5.37,8.23,8.23,0,0,1,.87-3.84,6.29,6.29,0,0,1,2.44-2.59,6.89,6.89,0,0,1,3.57-.93,6.4,6.4,0,0,1,3.32.84,5.71,5.71,0,0,1,2.19,2.37,7.84,7.84,0,0,1,.78,3.61c0,.82-.37,1.24-1.1,1.24h-8.51a4.57,4.57,0,0,0,1.12,2.93,3.82,3.82,0,0,0,2.77.94,5,5,0,0,0,1.63-.24,14.59,14.59,0,0,0,1.61-.63,3.1,3.1,0,0,1,1.27-.46A1,1,0,0,1,588.58,137Zm-8.14-7.5a4.29,4.29,0,0,0-1.05,2.65h6.52a4.13,4.13,0,0,0-.87-2.67,2.85,2.85,0,0,0-2.25-.91A3.09,3.09,0,0,0,580.44,129.47Z" />
         <path class="cls-3" d="M617.61,538.44a.9.9,0,0,1,.23-.69.91.91,0,0,1,.63-.13l28.38,1.1.22,3.51c0,.27,0,.6-.21.76a.92.92,0,0,1-.52.1l-16.87-.4-8.36-.19c-.76,0-3,.33-3.54-.25S617.57,539.21,617.61,538.44Z" />
         <path class="cls-3" d="M553.91,490c-.67,5.49-1.21,10.82-1.76,16.56-.16,1.71-.23,3.44-.47,5.14a.8.8,0,0,1-.24.54.82.82,0,0,1-.49.09l-3.24-.11a.52.52,0,0,1-.42-.13.61.61,0,0,1-.09-.46q.74-6.86,1.53-13.69l.39-3.3a16.28,16.28,0,0,1,.6-3.91C550.25,489.71,553.9,490.12,553.91,490Z" />
         <path class="cls-20" d="M588.47,486a10.8,10.8,0,0,0,.68,6.25c1.4,2.7,4.55,4,7.55,4.52a24.63,24.63,0,0,0,22.35-7.95" />
         <path class="cls-21" d="M187.58,2.24,308.82,2c10.86,0,19.67,9.51,19.7,21.3L328.59,61l0,17.55.12,58.87-22.52-37.5-118.45.23c-10.85,0-19.67-9.51-19.7-21.29l-.1-55.2C167.94,11.83,176.73,2.26,187.58,2.24Z" />
         <path class="cls-2" d="M214,75.15a1.57,1.57,0,0,1-.59,1.24,2,2,0,0,1-1.35.51,1.84,1.84,0,0,1-1-.27,1.79,1.79,0,0,1-.7-.84l-1.91-4.26h-11.2l-1.91,4.26a1.79,1.79,0,0,1-.7.84,1.83,1.83,0,0,1-1,.27,2,2,0,0,1-1.34-.51,1.55,1.55,0,0,1-.6-1.24,1.89,1.89,0,0,1,.19-.82l8.78-18.87a2,2,0,0,1,.87-1,2.59,2.59,0,0,1,1.26-.34,2.56,2.56,0,0,1,1.26.34,2,2,0,0,1,.87,1l8.82,18.87A2,2,0,0,1,214,75.15Zm-15.31-6.81H207l-4.2-9.44Z" />
         <path class="cls-2" d="M229.89,62.43a7.22,7.22,0,0,1,1.37,4.8v7.83a1.87,1.87,0,0,1-.53,1.4,2,2,0,0,1-1.45.51,2,2,0,0,1-1.46-.51,1.84,1.84,0,0,1-.54-1.4V67.45a4.09,4.09,0,0,0-.69-2.64,2.61,2.61,0,0,0-2.14-.82,3.65,3.65,0,0,0-2.76,1.08,4,4,0,0,0-1,2.89v7.1a1.84,1.84,0,0,1-.54,1.4,2,2,0,0,1-1.46.51,2,2,0,0,1-1.45-.51,1.87,1.87,0,0,1-.53-1.4V62.74a1.74,1.74,0,0,1,.54-1.33,2.05,2.05,0,0,1,1.47-.51,1.89,1.89,0,0,1,1.35.49,1.69,1.69,0,0,1,.52,1.29v.86a5.28,5.28,0,0,1,2.14-2,6.35,6.35,0,0,1,3-.7A5.21,5.21,0,0,1,229.89,62.43Z" />
         <path class="cls-2" d="M249.74,54.69a1.72,1.72,0,0,1,.57,1.34v19a1.8,1.8,0,0,1-.54,1.37,2.26,2.26,0,0,1-2.86,0,1.8,1.8,0,0,1-.54-1.37v-.8a5,5,0,0,1-2,2,6.07,6.07,0,0,1-3,.73,6.46,6.46,0,0,1-3.58-1,6.74,6.74,0,0,1-2.45-2.88,10,10,0,0,1-.87-4.28,9.68,9.68,0,0,1,.87-4.23,6.42,6.42,0,0,1,6-3.78,6.17,6.17,0,0,1,3,.7,4.83,4.83,0,0,1,2,2V56a1.69,1.69,0,0,1,.52-1.29,2,2,0,0,1,1.42-.49A2.16,2.16,0,0,1,249.74,54.69Zm-4.41,18a5.86,5.86,0,0,0,1-3.72,5.81,5.81,0,0,0-1-3.71,3.52,3.52,0,0,0-2.91-1.29,3.65,3.65,0,0,0-3,1.27,5.62,5.62,0,0,0-1.05,3.66,5.94,5.94,0,0,0,1.05,3.76,3.93,3.93,0,0,0,5.87,0Z" />
         <path class="cls-2" d="M264.41,61.25a1.55,1.55,0,0,1,.48,1.24,1.71,1.71,0,0,1-.42,1.27,2.45,2.45,0,0,1-1.49.54l-1,.1a3.87,3.87,0,0,0-2.75,1.27,4.2,4.2,0,0,0-.88,2.71v6.68a1.75,1.75,0,0,1-.57,1.41,2.11,2.11,0,0,1-1.43.5,2.09,2.09,0,0,1-1.42-.5,1.77,1.77,0,0,1-.55-1.41V62.74a1.68,1.68,0,0,1,.55-1.36,2.08,2.08,0,0,1,1.39-.48,1.91,1.91,0,0,1,1.34.46,1.73,1.73,0,0,1,.5,1.32V64a4.8,4.8,0,0,1,1.8-2.16,5.48,5.48,0,0,1,2.66-.86l.44,0A1.71,1.71,0,0,1,264.41,61.25Z" />
         <path class="cls-2" d="M269.2,76a6.8,6.8,0,0,1-2.79-2.83,9.05,9.05,0,0,1-1-4.29,9,9,0,0,1,1-4.28,6.89,6.89,0,0,1,2.79-2.82,9.43,9.43,0,0,1,8.37,0,6.76,6.76,0,0,1,2.76,2.82,9,9,0,0,1,1,4.28,9,9,0,0,1-1,4.29A6.67,6.67,0,0,1,277.57,76a9.34,9.34,0,0,1-8.37,0Zm7.11-3.37a5.9,5.9,0,0,0,1-3.75,5.91,5.91,0,0,0-1-3.74,4,4,0,0,0-5.87,0,5.85,5.85,0,0,0-1,3.74,5.9,5.9,0,0,0,1,3.75,4,4,0,0,0,5.89,0Z" />
         <path class="cls-2" d="M284.84,57.48a2,2,0,0,1-.64-1.54,1.94,1.94,0,0,1,.64-1.53,2.45,2.45,0,0,1,1.71-.57,2.52,2.52,0,0,1,1.71.57,1.94,1.94,0,0,1,.65,1.53,2,2,0,0,1-.64,1.54,2.44,2.44,0,0,1-1.72.59A2.42,2.42,0,0,1,284.84,57.48Zm.3,19a1.78,1.78,0,0,1-.56-1.41V62.78a1.73,1.73,0,0,1,.56-1.4,2.08,2.08,0,0,1,1.41-.48,2.18,2.18,0,0,1,1.44.48,1.7,1.7,0,0,1,.57,1.4V75.06a1.75,1.75,0,0,1-.57,1.41,2.14,2.14,0,0,1-1.44.5A2,2,0,0,1,285.14,76.47Z" />
         <path class="cls-2" d="M307.11,54.69a1.72,1.72,0,0,1,.57,1.34v19a1.8,1.8,0,0,1-.54,1.37,2.26,2.26,0,0,1-2.86,0,1.8,1.8,0,0,1-.54-1.37v-.8a5.08,5.08,0,0,1-2,2,6.1,6.1,0,0,1-3,.73,6.43,6.43,0,0,1-3.58-1,6.74,6.74,0,0,1-2.45-2.88,9.83,9.83,0,0,1-.88-4.28,9.54,9.54,0,0,1,.88-4.23,6.39,6.39,0,0,1,6-3.78,6.2,6.2,0,0,1,3,.7,4.75,4.75,0,0,1,2,2V56a1.7,1.7,0,0,1,.53-1.29,2,2,0,0,1,1.41-.49A2.16,2.16,0,0,1,307.11,54.69Zm-4.41,18a5.86,5.86,0,0,0,1-3.72,5.81,5.81,0,0,0-1-3.71,3.52,3.52,0,0,0-2.91-1.29,3.65,3.65,0,0,0-3,1.27,5.62,5.62,0,0,0-1.05,3.66,5.94,5.94,0,0,0,1.05,3.76,3.93,3.93,0,0,0,5.87,0Z" />
         <path class="cls-2" d="M214.76,42.21a1.62,1.62,0,0,1,.4-1.16,2,2,0,0,1,1.26-.46l1-.06a2.65,2.65,0,0,0,2-.83,3.47,3.47,0,0,0,.67-2.32V23.16a1.91,1.91,0,0,1,2-2,2,2,0,0,1,1.52.56,2,2,0,0,1,.55,1.48V37.38q0,6-6,6.46l-1,.06C215.58,44,214.76,43.4,214.76,42.21Z" />
         <path class="cls-2" d="M240.23,29.38a6.72,6.72,0,0,1,1.58,4.88V42a1.8,1.8,0,0,1-.51,1.36,2,2,0,0,1-1.4.49,1.86,1.86,0,0,1-1.35-.51A1.78,1.78,0,0,1,238,42v-.7a4.12,4.12,0,0,1-1.7,1.94,5.07,5.07,0,0,1-2.69.7,6.29,6.29,0,0,1-2.83-.63,5,5,0,0,1-2-1.75,4.41,4.41,0,0,1-.74-2.48,3.91,3.91,0,0,1,.88-2.71A5.24,5.24,0,0,1,231.79,35a25.59,25.59,0,0,1,5.44-.45H238v-.73a3.23,3.23,0,0,0-.67-2.27,2.81,2.81,0,0,0-2.16-.72,6.94,6.94,0,0,0-1.88.27c-.63.18-1.39.44-2.26.78a3.11,3.11,0,0,1-1.21.42,1.17,1.17,0,0,1-.93-.42,1.52,1.52,0,0,1-.37-1.08,1.65,1.65,0,0,1,.27-.94,2.66,2.66,0,0,1,.91-.75,10.34,10.34,0,0,1,2.66-.95,13.82,13.82,0,0,1,3-.35A6.44,6.44,0,0,1,240.23,29.38ZM237,40a3.83,3.83,0,0,0,1-2.75v-.67h-.57a21.45,21.45,0,0,0-3.31.2,3.17,3.17,0,0,0-1.69.66,1.71,1.71,0,0,0-.5,1.31,2.15,2.15,0,0,0,.71,1.67,2.56,2.56,0,0,0,1.77.65A3.37,3.37,0,0,0,237,40Z" />
         <path class="cls-2" d="M257.38,28.12a1.68,1.68,0,0,1,.94-.29,2,2,0,0,1,1.32.5,1.52,1.52,0,0,1,.59,1.22,1.61,1.61,0,0,1-.19.76l-5.89,12.32a2.08,2.08,0,0,1-.81.92,2.22,2.22,0,0,1-1.16.32,2.33,2.33,0,0,1-1.16-.32,2,2,0,0,1-.84-.92l-5.92-12.32a1.54,1.54,0,0,1-.16-.73,1.56,1.56,0,0,1,.62-1.24,2.15,2.15,0,0,1,1.41-.51A1.77,1.77,0,0,1,247.82,29l4.46,9.83L256.7,29A2,2,0,0,1,257.38,28.12Z" />
         <path class="cls-2" d="M273.93,29.38a6.72,6.72,0,0,1,1.57,4.88V42a1.8,1.8,0,0,1-.51,1.36,2,2,0,0,1-1.4.49,1.86,1.86,0,0,1-1.35-.51,1.77,1.77,0,0,1-.52-1.34v-.7A4.09,4.09,0,0,1,270,43.26a5.05,5.05,0,0,1-2.68.7,6.33,6.33,0,0,1-2.84-.63,5.16,5.16,0,0,1-2-1.75,4.4,4.4,0,0,1-.73-2.48,4,4,0,0,1,.87-2.71A5.31,5.31,0,0,1,265.48,35a25.71,25.71,0,0,1,5.44-.45h.8v-.73a3.27,3.27,0,0,0-.67-2.27,2.85,2.85,0,0,0-2.17-.72,6.82,6.82,0,0,0-1.87.27c-.64.18-1.39.44-2.26.78a3.17,3.17,0,0,1-1.21.42,1.19,1.19,0,0,1-.94-.42,1.57,1.57,0,0,1-.37-1.08,1.65,1.65,0,0,1,.28-.94,2.71,2.71,0,0,1,.9-.75,10.34,10.34,0,0,1,2.66-.95,13.91,13.91,0,0,1,3-.35A6.45,6.45,0,0,1,273.93,29.38ZM270.71,40a3.84,3.84,0,0,0,1-2.75v-.67h-.58a21.21,21.21,0,0,0-3.3.2,3.14,3.14,0,0,0-1.69.66,1.72,1.72,0,0,0-.51,1.31,2.16,2.16,0,0,0,.72,1.67,2.52,2.52,0,0,0,1.76.65A3.35,3.35,0,0,0,270.71,40Z" />
         <ellipse class="cls-2" cx="508.55" cy="517.43" rx="4.41" ry="6.07" />
      </g>
   </g>
</svg>