<?xml version="1.0" encoding="UTF-8"?>
<svg width="325px" height="211px" viewBox="0 0 325 211" version="1.1" xmlns="http://www.w3.org/2000/svg" xmlns:xlink="http://www.w3.org/1999/xlink">
    <!-- Generator: Sketch 59 (86127) - https://sketch.com -->
    <title>Group 5</title>
    <desc>Created with Sketch.</desc>
    <g id="Page-1" stroke="none" stroke-width="1" fill="none" fill-rule="evenodd">
        <g id="academy" transform="translate(-1345.000000, -873.000000)">
            <g id="Group-5" transform="translate(1345.000000, 873.000000)">
                <rect id="Rectangle-Copy-28" fill="#0FA8BA" x="0" y="0" width="325" height="211" rx="8"></rect>
                <g id="Asset-2-Copy" transform="translate(96.000000, 56.000000)" fill="#FFFFFF" fill-rule="nonzero">
                    <path d="M90.4460587,31.7637172 L90.4460587,31.7637172 C89.2754747,31.3613678 88.0955846,30.98897 86.9063882,30.6465237 C87.1038121,29.8438218 87.286612,29.0376254 87.4547879,28.2279347 C90.1349666,15.1990032 88.3825804,4.7024767 82.3970475,1.24706429 C76.658793,-2.06657737 67.2736808,1.38883504 57.7948421,9.64797955 C56.8605685,10.4636605 55.9475662,11.3026372 55.0558351,12.1649095 C54.4575809,11.5918362 53.8500206,11.0299116 53.2331541,10.4791355 C43.2966509,1.6474169 33.3392089,-2.07456445 27.3606557,1.39133101 C21.6273866,4.71395813 19.9293418,14.582001 22.3427989,26.9300335 C22.5824329,28.152723 22.8533091,29.3687566 23.1554274,30.5781343 C21.7465389,30.9774886 20.3860092,31.405796 19.0843078,31.8600614 C7.4377949,35.9254874 0,42.2976832 0,48.9069956 C0,55.7334568 7.98420037,62.5803849 20.1152992,66.7321713 C21.0987626,67.067296 22.0902026,67.3776275 23.0896195,67.6631658 C22.7652328,68.9653934 22.4772399,70.2761072 22.2256407,71.5953073 C19.9248549,83.728687 21.7216116,93.3626084 27.4399243,96.6652678 C33.34569,100.075254 43.2577644,96.569922 52.9095983,88.1220826 C53.6740342,87.4541627 54.43847,86.7479713 55.2029059,86.0035084 C56.168754,86.935335 57.1598617,87.8408707 58.1762291,88.7201155 C67.5254461,96.7760886 76.7590005,100.028829 82.4723278,96.7171838 C88.3726095,93.2972141 90.2900141,82.9479495 87.8002797,70.3558116 C87.6101678,69.3937008 87.3901432,68.411955 87.1402059,67.4105742 C87.8381691,67.2049068 88.5195141,66.9917515 89.184241,66.7711083 C101.797433,62.5873736 110,55.8238107 110,48.9059972 C110.004483,42.2742211 102.326888,35.8585955 90.4460587,31.7637172 Z M60.8773467,13.1977394 C68.9986469,6.12068338 76.5889966,3.32620221 80.0479028,5.32347252 L80.0479028,5.32347252 C83.7311543,7.45103214 85.163973,16.0291608 82.8497265,27.2784701 C82.6978364,28.0106195 82.5328179,28.7404393 82.3546711,29.4679296 C77.790989,28.4136345 72.8354503,27.6289034 67.6475896,27.1411921 C64.6249104,22.8316608 61.4930499,18.9129975 58.3487257,15.5209826 C59.1723223,14.7249365 60.0151959,13.9505221 60.8773467,13.1977394 Z M32.4807142,54.5528659 C33.4754779,56.4767548 34.5149445,58.3766825 35.599114,60.252649 C36.7055519,62.1648901 37.8568588,64.0503413 39.0530347,65.9090024 C35.450049,65.506653 32.0524639,64.9605361 28.9151194,64.2771412 C29.8862853,61.1367194 31.0827936,57.8724978 32.4807142,54.5528659 Z M32.4752302,43.4862612 C31.1092165,40.2350186 29.9356413,37.0401848 28.9794317,33.9551735 C32.1202661,33.2518109 35.4655039,32.67724 38.9528272,32.2409455 C37.7852345,34.0639975 36.6610152,35.9133403 35.5801693,37.788974 C34.4993235,39.6646077 33.4643438,41.5637034 32.4752302,43.4862612 L32.4752302,43.4862612 Z M34.9729413,49.0208115 C36.4210488,46.0030248 37.9808303,43.042978 39.652286,40.1406712 L39.652286,40.1406712 C41.3220798,37.2416923 43.100058,34.4077749 44.9862204,31.638919 C48.2576736,31.3893226 51.6118853,31.2615292 55.0024908,31.2615292 C58.4085511,31.2615292 61.7672497,31.3923178 65.0382044,31.6419141 C66.9037603,34.4041142 68.670438,37.2285469 70.3382377,40.1152124 C72.0143465,43.0105305 73.5950669,45.9557679 75.0803991,48.9509245 C73.6110204,51.9793607 72.0354515,54.9512217 70.3536926,57.8665075 L70.3536926,57.8665075 C68.6875548,60.7654864 66.9285213,63.6075573 65.0765923,66.3927202 C61.8126173,66.6258432 58.4399595,66.7466479 55.0029893,66.7466479 C51.5799784,66.7466479 48.2496969,66.6398206 45.0430546,66.4316572 C43.1442623,63.6541486 41.3521587,60.8077514 39.6667438,57.8924656 C37.9903027,54.9964819 36.4257019,52.0392638 34.9729413,49.0208115 Z M74.4243137,60.2202015 C75.5307515,58.2989749 76.5943145,56.3536206 77.6150025,54.3841387 L77.6150025,54.3841387 C79.0852121,57.7402118 80.3245953,60.9864624 81.309222,64.0739697 C78.1185331,64.802292 74.6760789,65.3893427 71.0476674,65.825138 C72.2099423,63.9794559 73.3354911,62.1109773 74.4243137,60.2197023 L74.4243137,60.2202015 Z M77.5696349,43.4902547 C76.5529352,41.5600427 75.4981799,39.6494655 74.4053689,37.7585233 L74.4053689,37.7585233 C73.3301733,35.898531 72.215094,34.0623335 71.0601311,32.2499309 C74.5703874,32.6937133 77.9330743,33.2837592 81.0903607,34.0055919 C80.1426264,37.0471735 78.9610744,40.2285291 77.5696349,43.4897555 L77.5696349,43.4902547 Z M55.054838,18.8860411 L55.054838,18.8860411 C57.2220137,21.2372391 59.3921807,23.8624939 61.5284466,26.7108879 C57.1970865,26.5055533 52.8632336,26.5045549 48.526888,26.7078927 C50.664151,23.885956 52.8532627,21.2656931 55.054838,18.8860411 Z M29.7132902,5.46324649 C33.3940489,3.33019576 41.5313026,6.37227654 50.1082732,13.999443 C50.6566728,14.4873207 51.2069005,14.9959982 51.7589561,15.5254753 C48.5632818,18.9614192 45.4049983,22.873593 42.3863075,27.1371985 C37.2124061,27.6169228 32.2598587,28.3881756 27.7071445,29.4215047 C27.4262974,28.2966569 27.1741998,27.1651533 26.9508515,26.0269938 L26.9508515,26.0269938 C24.8868747,15.4466029 26.259868,7.46600792 29.7132902,5.46324649 Z M24.3509387,63.1304954 C23.4389334,62.8689184 22.5342402,62.5852105 21.6368589,62.2793717 C16.2725133,60.4433406 11.8429397,58.0576984 8.8063013,55.4549072 C6.07826231,53.1146915 4.70028355,50.7919475 4.70028355,48.9069956 C4.70028355,44.8964808 10.6723557,39.7807532 20.632789,36.3033763 C21.8831402,35.8690786 23.1451242,35.4713883 24.4187408,35.1103056 C25.7942268,39.5940551 27.5999573,44.2814753 29.7790981,49.0208115 C27.5695461,53.8325307 25.740384,58.5943306 24.3509387,63.1304954 Z M49.8176213,84.5788123 C45.5490779,88.314771 41.2725577,90.9644863 37.5035565,92.2978302 L37.5035565,92.2978302 C34.1169393,93.4958928 31.4213058,93.529838 29.7885705,92.5883604 C26.3186963,90.5850998 24.8764052,82.8486101 26.8441629,72.4708914 C27.0768173,71.244874 27.344536,70.0258452 27.6473191,68.8138051 C32.1526715,69.8121907 37.1406156,70.5295307 42.4715587,70.9603341 C45.5126841,75.2484001 48.703373,79.1900262 51.9140036,82.6414451 C51.2306644,83.3063699 50.5318703,83.9521589 49.8176213,84.5788123 L49.8176213,84.5788123 Z M55.1849583,79.2604124 C52.9574586,76.853804 50.7359415,74.1921081 48.566273,71.3292376 C50.6721277,71.4121036 52.8175336,71.453703 55.0024908,71.4540357 C57.2446144,71.4540357 59.4579886,71.4041165 61.6426134,71.3042779 C59.5008635,74.2215605 57.3376762,76.8867507 55.1849583,79.2604124 L55.1849583,79.2604124 Z M83.7216819,85.8073257 C83.0660951,89.3431081 81.7489388,91.7007956 80.1196933,92.6462667 C76.6528104,94.6560169 69.2389457,92.0437411 61.2442759,85.1548807 C60.3272852,84.3651578 59.4051429,83.5235187 58.4778489,82.6299637 C61.577304,79.2354528 64.6752635,75.2883355 67.7009339,70.9064213 C73.0194135,70.4336857 78.0432528,69.6614345 82.5999554,68.6066401 C82.8239683,69.5138398 83.0223893,70.4020702 83.1952182,71.2713312 L83.1952182,71.2713312 C84.2935132,76.8378299 84.4505549,81.8716898 83.7216819,85.8073257 L83.7216819,85.8073257 Z M87.710043,62.3058289 L87.710043,62.3058289 C87.1087976,62.505506 86.4929281,62.6983608 85.8624347,62.8843933 C84.4699982,58.47103 82.5909815,53.7781187 80.2921899,48.9304576 C82.4857885,44.1971117 84.2925161,39.5646027 85.6460661,35.1796934 C86.770784,35.5061654 87.8635949,35.8501093 88.9160237,36.2130224 C99.0958168,39.7213493 105.305197,44.909959 105.305197,48.9069956 C105.305695,53.1641116 98.5992659,58.6931708 87.7110401,62.3058289 L87.710043,62.3058289 Z" id="Shape"></path>
                    <path d="M64.9218509,49.0543997 C64.9218509,54.5461885 60.4616822,59 54.9609255,59 C49.4601687,59 45,54.5461885 45,49.0543997 C45,43.5626109 49.4606743,39.1087994 54.9609255,39.1087994 C60.4631991,39.1087994 64.9218509,43.5626109 64.9218509,49.0543997 Z" id="Path"></path>
                </g>
            </g>
        </g>
    </g>
</svg>